%FSLAX45Y45*%
G04 Gerber Fmt 4.5, Leading zero omitted, Abs format (unit mm)*
G04 Created by KiCad (PCBNEW (5.1.5)-3) date 2021-05-19 18:46:04*
%MOMM*%
%LPD*%
G04 APERTURE LIST*
%TA.AperFunction,Profile*%
%ADD10C,0.050000*%
%TD*%
%ADD11C,0.200000*%
%ADD12C,0.300000*%
G04 APERTURE END LIST*
D10*
X3000000Y-8500000D02*
X3000000Y-3500000D01*
X8000000Y-8500000D02*
X3000000Y-8500000D01*
X8000000Y-3500000D02*
X8000000Y-8500000D01*
X3000000Y-3500000D02*
X8000000Y-3500000D01*
D11*
X3230000Y-7230000D02*
X3270000Y-7270000D01*
X3270000Y-7230000D02*
X3230000Y-7270000D01*
X3528734Y-5681266D02*
X3568734Y-5721266D01*
X3568734Y-5681266D02*
X3528734Y-5721266D01*
X3580000Y-7955000D02*
X3620000Y-7995000D01*
X3620000Y-7955000D02*
X3580000Y-7995000D01*
X3905000Y-7805000D02*
X3945000Y-7845000D01*
X3945000Y-7805000D02*
X3905000Y-7845000D01*
X4080000Y-7655000D02*
X4120000Y-7695000D01*
X4120000Y-7655000D02*
X4080000Y-7695000D01*
X4230000Y-7880000D02*
X4270000Y-7920000D01*
X4270000Y-7880000D02*
X4230000Y-7920000D01*
X4280000Y-8180000D02*
X4320000Y-8220000D01*
X4320000Y-8180000D02*
X4280000Y-8220000D01*
X4355000Y-7830000D02*
X4395000Y-7870000D01*
X4395000Y-7830000D02*
X4355000Y-7870000D01*
X4430000Y-7605000D02*
X4470000Y-7645000D01*
X4470000Y-7605000D02*
X4430000Y-7645000D01*
X4912499Y-6127500D02*
X4952499Y-6167500D01*
X4952499Y-6127500D02*
X4912499Y-6167500D01*
X5030000Y-5130000D02*
X5070000Y-5170000D01*
X5070000Y-5130000D02*
X5030000Y-5170000D01*
X5055000Y-4630000D02*
X5095000Y-4670000D01*
X5095000Y-4630000D02*
X5055000Y-4670000D01*
X5080000Y-4854999D02*
X5120000Y-4894999D01*
X5120000Y-4854999D02*
X5080000Y-4894999D01*
X5130000Y-7855000D02*
X5170000Y-7895000D01*
X5170000Y-7855000D02*
X5130000Y-7895000D01*
X5230000Y-5180000D02*
X5270000Y-5220000D01*
X5270000Y-5180000D02*
X5230000Y-5220000D01*
X5255000Y-6255000D02*
X5295000Y-6295000D01*
X5295000Y-6255000D02*
X5255000Y-6295000D01*
X5355000Y-5705000D02*
X5395000Y-5745000D01*
X5395000Y-5705000D02*
X5355000Y-5745000D01*
X5380000Y-7855000D02*
X5420000Y-7895000D01*
X5420000Y-7855000D02*
X5380000Y-7895000D01*
X5429999Y-5230000D02*
X5469999Y-5270000D01*
X5469999Y-5230000D02*
X5429999Y-5270000D01*
X5430000Y-4180000D02*
X5470000Y-4220000D01*
X5470000Y-4180000D02*
X5430000Y-4220000D01*
X5430000Y-4330000D02*
X5470000Y-4370000D01*
X5470000Y-4330000D02*
X5430000Y-4370000D01*
X5455000Y-5830000D02*
X5495000Y-5870000D01*
X5495000Y-5830000D02*
X5455000Y-5870000D01*
X5630002Y-6305000D02*
X5670002Y-6345000D01*
X5670002Y-6305000D02*
X5630002Y-6345000D01*
X5830000Y-6180000D02*
X5870000Y-6220000D01*
X5870000Y-6180000D02*
X5830000Y-6220000D01*
X5853735Y-5503735D02*
X5893735Y-5543735D01*
X5893735Y-5503735D02*
X5853735Y-5543735D01*
X5880000Y-4430000D02*
X5920000Y-4470000D01*
X5920000Y-4430000D02*
X5880000Y-4470000D01*
X5880000Y-5205000D02*
X5920000Y-5245000D01*
X5920000Y-5205000D02*
X5880000Y-5245000D01*
X5930000Y-5405000D02*
X5970000Y-5445000D01*
X5970000Y-5405000D02*
X5930000Y-5445000D01*
X5980000Y-7130000D02*
X6020000Y-7170000D01*
X6020000Y-7130000D02*
X5980000Y-7170000D01*
X6080000Y-5230000D02*
X6120000Y-5270000D01*
X6120000Y-5230000D02*
X6080000Y-5270000D01*
X6280000Y-5255000D02*
X6320000Y-5295000D01*
X6320000Y-5255000D02*
X6280000Y-5295000D01*
X6380000Y-5180000D02*
X6420000Y-5220000D01*
X6420000Y-5180000D02*
X6380000Y-5220000D01*
X6405000Y-5630000D02*
X6445000Y-5670000D01*
X6445000Y-5630000D02*
X6405000Y-5670000D01*
X6680000Y-6755000D02*
X6720000Y-6795000D01*
X6720000Y-6755000D02*
X6680000Y-6795000D01*
X6690000Y-5780000D02*
X6730000Y-5820000D01*
X6730000Y-5780000D02*
X6690000Y-5820000D01*
X6730000Y-4605000D02*
X6770000Y-4645000D01*
X6770000Y-4605000D02*
X6730000Y-4645000D01*
X6780000Y-4830000D02*
X6820000Y-4870000D01*
X6820000Y-4830000D02*
X6780000Y-4870000D01*
X6780000Y-5380000D02*
X6820000Y-5420000D01*
X6820000Y-5380000D02*
X6780000Y-5420000D01*
X6830000Y-6155000D02*
X6870000Y-6195000D01*
X6870000Y-6155000D02*
X6830000Y-6195000D01*
X6855000Y-5680000D02*
X6895000Y-5720000D01*
X6895000Y-5680000D02*
X6855000Y-5720000D01*
X6880000Y-4430000D02*
X6920000Y-4470000D01*
X6920000Y-4430000D02*
X6880000Y-4470000D01*
X6930000Y-4680000D02*
X6970000Y-4720000D01*
X6970000Y-4680000D02*
X6930000Y-4720000D01*
X6955000Y-6605000D02*
X6995000Y-6645000D01*
X6995000Y-6605000D02*
X6955000Y-6645000D01*
X6980000Y-5030000D02*
X7020000Y-5070000D01*
X7020000Y-5030000D02*
X6980000Y-5070000D01*
X7280000Y-6230000D02*
X7320000Y-6270000D01*
X7320000Y-6230000D02*
X7280000Y-6270000D01*
X7380000Y-6055000D02*
X7420000Y-6095000D01*
X7420000Y-6055000D02*
X7380000Y-6095000D01*
X7555000Y-6405000D02*
X7595000Y-6445000D01*
X7595000Y-6405000D02*
X7555000Y-6445000D01*
X7620644Y-5289356D02*
X7660644Y-5329356D01*
X7660644Y-5289356D02*
X7620644Y-5329356D01*
X7680000Y-6330000D02*
X7720000Y-6370000D01*
X7720000Y-6330000D02*
X7680000Y-6370000D01*
X4015000Y-4975000D02*
G75*
G03X4015000Y-4975000I-40000J0D01*
G01*
X4015000Y-5225000D02*
G75*
G03X4015000Y-5225000I-40000J0D01*
G01*
X3590000Y-7575000D02*
G75*
G03X3590000Y-7575000I-40000J0D01*
G01*
X3840000Y-7575000D02*
G75*
G03X3840000Y-7575000I-40000J0D01*
G01*
X5250000Y-3650000D02*
X5250000Y-3750000D01*
X5200000Y-3700000D02*
X5300000Y-3700000D01*
X5250000Y-3904000D02*
X5250000Y-4004000D01*
X5200000Y-3954000D02*
X5300000Y-3954000D01*
X5250000Y-4158000D02*
X5250000Y-4258000D01*
X5200000Y-4208000D02*
X5300000Y-4208000D01*
X7317000Y-6725000D02*
X7317000Y-6825000D01*
X7267000Y-6775000D02*
X7367000Y-6775000D01*
X7571000Y-6725000D02*
X7571000Y-6825000D01*
X7521000Y-6775000D02*
X7621000Y-6775000D01*
X7825000Y-6725000D02*
X7825000Y-6825000D01*
X7775000Y-6775000D02*
X7875000Y-6775000D01*
X3175000Y-4350000D02*
X3175000Y-4450000D01*
X3125000Y-4400000D02*
X3225000Y-4400000D01*
X3175000Y-4604000D02*
X3175000Y-4704000D01*
X3125000Y-4654000D02*
X3225000Y-4654000D01*
X3175000Y-4858000D02*
X3175000Y-4958000D01*
X3125000Y-4908000D02*
X3225000Y-4908000D01*
X3175000Y-5112000D02*
X3175000Y-5212000D01*
X3125000Y-5162000D02*
X3225000Y-5162000D01*
X3175000Y-5366000D02*
X3175000Y-5466000D01*
X3125000Y-5416000D02*
X3225000Y-5416000D01*
X3175000Y-5620000D02*
X3175000Y-5720000D01*
X3125000Y-5670000D02*
X3225000Y-5670000D01*
X3175000Y-5874000D02*
X3175000Y-5974000D01*
X3125000Y-5924000D02*
X3225000Y-5924000D01*
X7317000Y-7150000D02*
X7317000Y-7250000D01*
X7267000Y-7200000D02*
X7367000Y-7200000D01*
X7571000Y-7150000D02*
X7571000Y-7250000D01*
X7521000Y-7200000D02*
X7621000Y-7200000D01*
X7825000Y-7150000D02*
X7825000Y-7250000D01*
X7775000Y-7200000D02*
X7875000Y-7200000D01*
X7317000Y-7575000D02*
X7317000Y-7675000D01*
X7267000Y-7625000D02*
X7367000Y-7625000D01*
X7571000Y-7575000D02*
X7571000Y-7675000D01*
X7521000Y-7625000D02*
X7621000Y-7625000D01*
X7825000Y-7575000D02*
X7825000Y-7675000D01*
X7775000Y-7625000D02*
X7875000Y-7625000D01*
X4850000Y-3650000D02*
X4850000Y-3750000D01*
X4800000Y-3700000D02*
X4900000Y-3700000D01*
X4850000Y-3904000D02*
X4850000Y-4004000D01*
X4800000Y-3954000D02*
X4900000Y-3954000D01*
X4850000Y-4158000D02*
X4850000Y-4258000D01*
X4800000Y-4208000D02*
X4900000Y-4208000D01*
X6335921Y-6985921D02*
X6335921Y-6914079D01*
X6264079Y-6914079D01*
X6264079Y-6985921D01*
X6335921Y-6985921D01*
X6335921Y-7239921D02*
X6335921Y-7168079D01*
X6264079Y-7168079D01*
X6264079Y-7239921D01*
X6335921Y-7239921D01*
X6335921Y-7493921D02*
X6335921Y-7422079D01*
X6264079Y-7422079D01*
X6264079Y-7493921D01*
X6335921Y-7493921D01*
X6335921Y-7747921D02*
X6335921Y-7676079D01*
X6264079Y-7676079D01*
X6264079Y-7747921D01*
X6335921Y-7747921D01*
X6335921Y-8001921D02*
X6335921Y-7930079D01*
X6264079Y-7930079D01*
X6264079Y-8001921D01*
X6335921Y-8001921D01*
X6589921Y-6985921D02*
X6589921Y-6914079D01*
X6518079Y-6914079D01*
X6518079Y-6985921D01*
X6589921Y-6985921D01*
X6589921Y-7239921D02*
X6589921Y-7168079D01*
X6518079Y-7168079D01*
X6518079Y-7239921D01*
X6589921Y-7239921D01*
X6589921Y-7493921D02*
X6589921Y-7422079D01*
X6518079Y-7422079D01*
X6518079Y-7493921D01*
X6589921Y-7493921D01*
X6589921Y-7747921D02*
X6589921Y-7676079D01*
X6518079Y-7676079D01*
X6518079Y-7747921D01*
X6589921Y-7747921D01*
X6589921Y-8001921D02*
X6589921Y-7930079D01*
X6518079Y-7930079D01*
X6518079Y-8001921D01*
X6589921Y-8001921D01*
X3950000Y-3705000D02*
X4005000Y-3650000D01*
X3950000Y-3595000D01*
X3895000Y-3650000D01*
X3950000Y-3705000D01*
X3950000Y-4355000D02*
X4005000Y-4300000D01*
X3950000Y-4245000D01*
X3895000Y-4300000D01*
X3950000Y-4355000D01*
X4400000Y-3705000D02*
X4455000Y-3650000D01*
X4400000Y-3595000D01*
X4345000Y-3650000D01*
X4400000Y-3705000D01*
X4400000Y-4355000D02*
X4455000Y-4300000D01*
X4400000Y-4245000D01*
X4345000Y-4300000D01*
X4400000Y-4355000D01*
X3510000Y-6402000D02*
X3640000Y-6532000D01*
X3640000Y-6402000D02*
X3510000Y-6532000D01*
X3640000Y-6467000D02*
G75*
G03X3640000Y-6467000I-65000J0D01*
G01*
X3510000Y-6910000D02*
X3640000Y-7040000D01*
X3640000Y-6910000D02*
X3510000Y-7040000D01*
X3640000Y-6975000D02*
G75*
G03X3640000Y-6975000I-65000J0D01*
G01*
X7490000Y-7990000D02*
X7810000Y-8310000D01*
X7810000Y-7990000D02*
X7490000Y-8310000D01*
X7650000Y-7990000D02*
X7650000Y-8310000D01*
X7490000Y-8150000D02*
X7810000Y-8150000D01*
X7515000Y-3690000D02*
X7835000Y-4010000D01*
X7835000Y-3690000D02*
X7515000Y-4010000D01*
X7675000Y-3690000D02*
X7675000Y-4010000D01*
X7515000Y-3850000D02*
X7835000Y-3850000D01*
X3190000Y-3690000D02*
X3510000Y-4010000D01*
X3510000Y-3690000D02*
X3190000Y-4010000D01*
X3350000Y-3690000D02*
X3350000Y-4010000D01*
X3190000Y-3850000D02*
X3510000Y-3850000D01*
X3190000Y-7990000D02*
X3510000Y-8310000D01*
X3510000Y-7990000D02*
X3190000Y-8310000D01*
X3350000Y-7990000D02*
X3350000Y-8310000D01*
X3190000Y-8150000D02*
X3510000Y-8150000D01*
D12*
X3283928Y-8968214D02*
X3283928Y-8668214D01*
X3355357Y-8668214D01*
X3398214Y-8682500D01*
X3426786Y-8711072D01*
X3441071Y-8739643D01*
X3455357Y-8796786D01*
X3455357Y-8839643D01*
X3441071Y-8896786D01*
X3426786Y-8925357D01*
X3398214Y-8953929D01*
X3355357Y-8968214D01*
X3283928Y-8968214D01*
X3583928Y-8968214D02*
X3583928Y-8768214D01*
X3583928Y-8825357D02*
X3598214Y-8796786D01*
X3612500Y-8782500D01*
X3641071Y-8768214D01*
X3669643Y-8768214D01*
X3769643Y-8968214D02*
X3769643Y-8768214D01*
X3769643Y-8668214D02*
X3755357Y-8682500D01*
X3769643Y-8696786D01*
X3783928Y-8682500D01*
X3769643Y-8668214D01*
X3769643Y-8696786D01*
X3955357Y-8968214D02*
X3926786Y-8953929D01*
X3912500Y-8925357D01*
X3912500Y-8668214D01*
X4112500Y-8968214D02*
X4083928Y-8953929D01*
X4069643Y-8925357D01*
X4069643Y-8668214D01*
X4455357Y-8968214D02*
X4455357Y-8668214D01*
X4555357Y-8882500D01*
X4655357Y-8668214D01*
X4655357Y-8968214D01*
X4926786Y-8968214D02*
X4926786Y-8811072D01*
X4912500Y-8782500D01*
X4883928Y-8768214D01*
X4826786Y-8768214D01*
X4798214Y-8782500D01*
X4926786Y-8953929D02*
X4898214Y-8968214D01*
X4826786Y-8968214D01*
X4798214Y-8953929D01*
X4783928Y-8925357D01*
X4783928Y-8896786D01*
X4798214Y-8868214D01*
X4826786Y-8853929D01*
X4898214Y-8853929D01*
X4926786Y-8839643D01*
X5069643Y-8768214D02*
X5069643Y-9068214D01*
X5069643Y-8782500D02*
X5098214Y-8768214D01*
X5155357Y-8768214D01*
X5183928Y-8782500D01*
X5198214Y-8796786D01*
X5212500Y-8825357D01*
X5212500Y-8911072D01*
X5198214Y-8939643D01*
X5183928Y-8953929D01*
X5155357Y-8968214D01*
X5098214Y-8968214D01*
X5069643Y-8953929D01*
X5341071Y-8939643D02*
X5355357Y-8953929D01*
X5341071Y-8968214D01*
X5326786Y-8953929D01*
X5341071Y-8939643D01*
X5341071Y-8968214D01*
X5341071Y-8782500D02*
X5355357Y-8796786D01*
X5341071Y-8811072D01*
X5326786Y-8796786D01*
X5341071Y-8782500D01*
X5341071Y-8811072D01*
X2957500Y-9442500D02*
X2997500Y-9482500D01*
X2997500Y-9442500D02*
X2957500Y-9482500D01*
X3341071Y-9298214D02*
X3369643Y-9298214D01*
X3398214Y-9312500D01*
X3412500Y-9326786D01*
X3426786Y-9355357D01*
X3441071Y-9412500D01*
X3441071Y-9483929D01*
X3426786Y-9541072D01*
X3412500Y-9569643D01*
X3398214Y-9583929D01*
X3369643Y-9598214D01*
X3341071Y-9598214D01*
X3312500Y-9583929D01*
X3298214Y-9569643D01*
X3283928Y-9541072D01*
X3269643Y-9483929D01*
X3269643Y-9412500D01*
X3283928Y-9355357D01*
X3298214Y-9326786D01*
X3312500Y-9312500D01*
X3341071Y-9298214D01*
X3569643Y-9569643D02*
X3583928Y-9583929D01*
X3569643Y-9598214D01*
X3555357Y-9583929D01*
X3569643Y-9569643D01*
X3569643Y-9598214D01*
X3841071Y-9398214D02*
X3841071Y-9598214D01*
X3769643Y-9283929D02*
X3698214Y-9498214D01*
X3883928Y-9498214D01*
X4055357Y-9298214D02*
X4083928Y-9298214D01*
X4112500Y-9312500D01*
X4126786Y-9326786D01*
X4141071Y-9355357D01*
X4155357Y-9412500D01*
X4155357Y-9483929D01*
X4141071Y-9541072D01*
X4126786Y-9569643D01*
X4112500Y-9583929D01*
X4083928Y-9598214D01*
X4055357Y-9598214D01*
X4026786Y-9583929D01*
X4012500Y-9569643D01*
X3998214Y-9541072D01*
X3983928Y-9483929D01*
X3983928Y-9412500D01*
X3998214Y-9355357D01*
X4012500Y-9326786D01*
X4026786Y-9312500D01*
X4055357Y-9298214D01*
X4283928Y-9598214D02*
X4283928Y-9398214D01*
X4283928Y-9426786D02*
X4298214Y-9412500D01*
X4326786Y-9398214D01*
X4369643Y-9398214D01*
X4398214Y-9412500D01*
X4412500Y-9441072D01*
X4412500Y-9598214D01*
X4412500Y-9441072D02*
X4426786Y-9412500D01*
X4455357Y-9398214D01*
X4498214Y-9398214D01*
X4526786Y-9412500D01*
X4541071Y-9441072D01*
X4541071Y-9598214D01*
X4683928Y-9598214D02*
X4683928Y-9398214D01*
X4683928Y-9426786D02*
X4698214Y-9412500D01*
X4726786Y-9398214D01*
X4769643Y-9398214D01*
X4798214Y-9412500D01*
X4812500Y-9441072D01*
X4812500Y-9598214D01*
X4812500Y-9441072D02*
X4826786Y-9412500D01*
X4855357Y-9398214D01*
X4898214Y-9398214D01*
X4926786Y-9412500D01*
X4941071Y-9441072D01*
X4941071Y-9598214D01*
X5526786Y-9283929D02*
X5269643Y-9669643D01*
X5912500Y-9298214D02*
X5941071Y-9298214D01*
X5969643Y-9312500D01*
X5983928Y-9326786D01*
X5998214Y-9355357D01*
X6012500Y-9412500D01*
X6012500Y-9483929D01*
X5998214Y-9541072D01*
X5983928Y-9569643D01*
X5969643Y-9583929D01*
X5941071Y-9598214D01*
X5912500Y-9598214D01*
X5883928Y-9583929D01*
X5869643Y-9569643D01*
X5855357Y-9541072D01*
X5841071Y-9483929D01*
X5841071Y-9412500D01*
X5855357Y-9355357D01*
X5869643Y-9326786D01*
X5883928Y-9312500D01*
X5912500Y-9298214D01*
X6141071Y-9569643D02*
X6155357Y-9583929D01*
X6141071Y-9598214D01*
X6126786Y-9583929D01*
X6141071Y-9569643D01*
X6141071Y-9598214D01*
X6341071Y-9298214D02*
X6369643Y-9298214D01*
X6398214Y-9312500D01*
X6412500Y-9326786D01*
X6426786Y-9355357D01*
X6441071Y-9412500D01*
X6441071Y-9483929D01*
X6426786Y-9541072D01*
X6412500Y-9569643D01*
X6398214Y-9583929D01*
X6369643Y-9598214D01*
X6341071Y-9598214D01*
X6312500Y-9583929D01*
X6298214Y-9569643D01*
X6283928Y-9541072D01*
X6269643Y-9483929D01*
X6269643Y-9412500D01*
X6283928Y-9355357D01*
X6298214Y-9326786D01*
X6312500Y-9312500D01*
X6341071Y-9298214D01*
X6726786Y-9598214D02*
X6555357Y-9598214D01*
X6641071Y-9598214D02*
X6641071Y-9298214D01*
X6612500Y-9341072D01*
X6583928Y-9369643D01*
X6555357Y-9383929D01*
X6983928Y-9298214D02*
X6926786Y-9298214D01*
X6898214Y-9312500D01*
X6883928Y-9326786D01*
X6855357Y-9369643D01*
X6841071Y-9426786D01*
X6841071Y-9541072D01*
X6855357Y-9569643D01*
X6869643Y-9583929D01*
X6898214Y-9598214D01*
X6955357Y-9598214D01*
X6983928Y-9583929D01*
X6998214Y-9569643D01*
X7012500Y-9541072D01*
X7012500Y-9469643D01*
X6998214Y-9441072D01*
X6983928Y-9426786D01*
X6955357Y-9412500D01*
X6898214Y-9412500D01*
X6869643Y-9426786D01*
X6855357Y-9441072D01*
X6841071Y-9469643D01*
X7126786Y-9298214D02*
X7126786Y-9355357D01*
X7241071Y-9298214D02*
X7241071Y-9355357D01*
X7683928Y-9712500D02*
X7669643Y-9698214D01*
X7641071Y-9655357D01*
X7626786Y-9626786D01*
X7612500Y-9583929D01*
X7598214Y-9512500D01*
X7598214Y-9455357D01*
X7612500Y-9383929D01*
X7626786Y-9341072D01*
X7641071Y-9312500D01*
X7669643Y-9269643D01*
X7683928Y-9255357D01*
X7926786Y-9398214D02*
X7926786Y-9598214D01*
X7855357Y-9283929D02*
X7783928Y-9498214D01*
X7969643Y-9498214D01*
X8098214Y-9598214D02*
X8155357Y-9598214D01*
X8183928Y-9583929D01*
X8198214Y-9569643D01*
X8226786Y-9526786D01*
X8241071Y-9469643D01*
X8241071Y-9355357D01*
X8226786Y-9326786D01*
X8212500Y-9312500D01*
X8183928Y-9298214D01*
X8126786Y-9298214D01*
X8098214Y-9312500D01*
X8083928Y-9326786D01*
X8069643Y-9355357D01*
X8069643Y-9426786D01*
X8083928Y-9455357D01*
X8098214Y-9469643D01*
X8126786Y-9483929D01*
X8183928Y-9483929D01*
X8212500Y-9469643D01*
X8226786Y-9455357D01*
X8241071Y-9426786D01*
X8598214Y-9598214D02*
X8598214Y-9298214D01*
X8726786Y-9598214D02*
X8726786Y-9441072D01*
X8712500Y-9412500D01*
X8683928Y-9398214D01*
X8641071Y-9398214D01*
X8612500Y-9412500D01*
X8598214Y-9426786D01*
X8912500Y-9598214D02*
X8883928Y-9583929D01*
X8869643Y-9569643D01*
X8855357Y-9541072D01*
X8855357Y-9455357D01*
X8869643Y-9426786D01*
X8883928Y-9412500D01*
X8912500Y-9398214D01*
X8955357Y-9398214D01*
X8983928Y-9412500D01*
X8998214Y-9426786D01*
X9012500Y-9455357D01*
X9012500Y-9541072D01*
X8998214Y-9569643D01*
X8983928Y-9583929D01*
X8955357Y-9598214D01*
X8912500Y-9598214D01*
X9183928Y-9598214D02*
X9155357Y-9583929D01*
X9141071Y-9555357D01*
X9141071Y-9298214D01*
X9412500Y-9583929D02*
X9383928Y-9598214D01*
X9326786Y-9598214D01*
X9298214Y-9583929D01*
X9283928Y-9555357D01*
X9283928Y-9441072D01*
X9298214Y-9412500D01*
X9326786Y-9398214D01*
X9383928Y-9398214D01*
X9412500Y-9412500D01*
X9426786Y-9441072D01*
X9426786Y-9469643D01*
X9283928Y-9498214D01*
X9541071Y-9583929D02*
X9569643Y-9598214D01*
X9626786Y-9598214D01*
X9655357Y-9583929D01*
X9669643Y-9555357D01*
X9669643Y-9541072D01*
X9655357Y-9512500D01*
X9626786Y-9498214D01*
X9583928Y-9498214D01*
X9555357Y-9483929D01*
X9541071Y-9455357D01*
X9541071Y-9441072D01*
X9555357Y-9412500D01*
X9583928Y-9398214D01*
X9626786Y-9398214D01*
X9655357Y-9412500D01*
X9769643Y-9712500D02*
X9783928Y-9698214D01*
X9812500Y-9655357D01*
X9826786Y-9626786D01*
X9841071Y-9583929D01*
X9855357Y-9512500D01*
X9855357Y-9455357D01*
X9841071Y-9383929D01*
X9826786Y-9341072D01*
X9812500Y-9312500D01*
X9783928Y-9269643D01*
X9769643Y-9255357D01*
X2997500Y-9858500D02*
G75*
G03X2997500Y-9858500I-40000J0D01*
G01*
X3341071Y-9694214D02*
X3369643Y-9694214D01*
X3398214Y-9708500D01*
X3412500Y-9722786D01*
X3426786Y-9751357D01*
X3441071Y-9808500D01*
X3441071Y-9879929D01*
X3426786Y-9937072D01*
X3412500Y-9965643D01*
X3398214Y-9979929D01*
X3369643Y-9994214D01*
X3341071Y-9994214D01*
X3312500Y-9979929D01*
X3298214Y-9965643D01*
X3283928Y-9937072D01*
X3269643Y-9879929D01*
X3269643Y-9808500D01*
X3283928Y-9751357D01*
X3298214Y-9722786D01*
X3312500Y-9708500D01*
X3341071Y-9694214D01*
X3569643Y-9965643D02*
X3583928Y-9979929D01*
X3569643Y-9994214D01*
X3555357Y-9979929D01*
X3569643Y-9965643D01*
X3569643Y-9994214D01*
X3755357Y-9822786D02*
X3726786Y-9808500D01*
X3712500Y-9794214D01*
X3698214Y-9765643D01*
X3698214Y-9751357D01*
X3712500Y-9722786D01*
X3726786Y-9708500D01*
X3755357Y-9694214D01*
X3812500Y-9694214D01*
X3841071Y-9708500D01*
X3855357Y-9722786D01*
X3869643Y-9751357D01*
X3869643Y-9765643D01*
X3855357Y-9794214D01*
X3841071Y-9808500D01*
X3812500Y-9822786D01*
X3755357Y-9822786D01*
X3726786Y-9837072D01*
X3712500Y-9851357D01*
X3698214Y-9879929D01*
X3698214Y-9937072D01*
X3712500Y-9965643D01*
X3726786Y-9979929D01*
X3755357Y-9994214D01*
X3812500Y-9994214D01*
X3841071Y-9979929D01*
X3855357Y-9965643D01*
X3869643Y-9937072D01*
X3869643Y-9879929D01*
X3855357Y-9851357D01*
X3841071Y-9837072D01*
X3812500Y-9822786D01*
X4055357Y-9694214D02*
X4083928Y-9694214D01*
X4112500Y-9708500D01*
X4126786Y-9722786D01*
X4141071Y-9751357D01*
X4155357Y-9808500D01*
X4155357Y-9879929D01*
X4141071Y-9937072D01*
X4126786Y-9965643D01*
X4112500Y-9979929D01*
X4083928Y-9994214D01*
X4055357Y-9994214D01*
X4026786Y-9979929D01*
X4012500Y-9965643D01*
X3998214Y-9937072D01*
X3983928Y-9879929D01*
X3983928Y-9808500D01*
X3998214Y-9751357D01*
X4012500Y-9722786D01*
X4026786Y-9708500D01*
X4055357Y-9694214D01*
X4283928Y-9994214D02*
X4283928Y-9794214D01*
X4283928Y-9822786D02*
X4298214Y-9808500D01*
X4326786Y-9794214D01*
X4369643Y-9794214D01*
X4398214Y-9808500D01*
X4412500Y-9837072D01*
X4412500Y-9994214D01*
X4412500Y-9837072D02*
X4426786Y-9808500D01*
X4455357Y-9794214D01*
X4498214Y-9794214D01*
X4526786Y-9808500D01*
X4541071Y-9837072D01*
X4541071Y-9994214D01*
X4683928Y-9994214D02*
X4683928Y-9794214D01*
X4683928Y-9822786D02*
X4698214Y-9808500D01*
X4726786Y-9794214D01*
X4769643Y-9794214D01*
X4798214Y-9808500D01*
X4812500Y-9837072D01*
X4812500Y-9994214D01*
X4812500Y-9837072D02*
X4826786Y-9808500D01*
X4855357Y-9794214D01*
X4898214Y-9794214D01*
X4926786Y-9808500D01*
X4941071Y-9837072D01*
X4941071Y-9994214D01*
X5526786Y-9679929D02*
X5269643Y-10065643D01*
X5912500Y-9694214D02*
X5941071Y-9694214D01*
X5969643Y-9708500D01*
X5983928Y-9722786D01*
X5998214Y-9751357D01*
X6012500Y-9808500D01*
X6012500Y-9879929D01*
X5998214Y-9937072D01*
X5983928Y-9965643D01*
X5969643Y-9979929D01*
X5941071Y-9994214D01*
X5912500Y-9994214D01*
X5883928Y-9979929D01*
X5869643Y-9965643D01*
X5855357Y-9937072D01*
X5841071Y-9879929D01*
X5841071Y-9808500D01*
X5855357Y-9751357D01*
X5869643Y-9722786D01*
X5883928Y-9708500D01*
X5912500Y-9694214D01*
X6141071Y-9965643D02*
X6155357Y-9979929D01*
X6141071Y-9994214D01*
X6126786Y-9979929D01*
X6141071Y-9965643D01*
X6141071Y-9994214D01*
X6341071Y-9694214D02*
X6369643Y-9694214D01*
X6398214Y-9708500D01*
X6412500Y-9722786D01*
X6426786Y-9751357D01*
X6441071Y-9808500D01*
X6441071Y-9879929D01*
X6426786Y-9937072D01*
X6412500Y-9965643D01*
X6398214Y-9979929D01*
X6369643Y-9994214D01*
X6341071Y-9994214D01*
X6312500Y-9979929D01*
X6298214Y-9965643D01*
X6283928Y-9937072D01*
X6269643Y-9879929D01*
X6269643Y-9808500D01*
X6283928Y-9751357D01*
X6298214Y-9722786D01*
X6312500Y-9708500D01*
X6341071Y-9694214D01*
X6541071Y-9694214D02*
X6726786Y-9694214D01*
X6626786Y-9808500D01*
X6669643Y-9808500D01*
X6698214Y-9822786D01*
X6712500Y-9837072D01*
X6726786Y-9865643D01*
X6726786Y-9937072D01*
X6712500Y-9965643D01*
X6698214Y-9979929D01*
X6669643Y-9994214D01*
X6583928Y-9994214D01*
X6555357Y-9979929D01*
X6541071Y-9965643D01*
X7012500Y-9994214D02*
X6841071Y-9994214D01*
X6926786Y-9994214D02*
X6926786Y-9694214D01*
X6898214Y-9737072D01*
X6869643Y-9765643D01*
X6841071Y-9779929D01*
X7126786Y-9694214D02*
X7126786Y-9751357D01*
X7241071Y-9694214D02*
X7241071Y-9751357D01*
X7683928Y-10108500D02*
X7669643Y-10094214D01*
X7641071Y-10051357D01*
X7626786Y-10022786D01*
X7612500Y-9979929D01*
X7598214Y-9908500D01*
X7598214Y-9851357D01*
X7612500Y-9779929D01*
X7626786Y-9737072D01*
X7641071Y-9708500D01*
X7669643Y-9665643D01*
X7683928Y-9651357D01*
X7926786Y-9794214D02*
X7926786Y-9994214D01*
X7855357Y-9679929D02*
X7783928Y-9894214D01*
X7969643Y-9894214D01*
X8312500Y-9994214D02*
X8312500Y-9694214D01*
X8441071Y-9994214D02*
X8441071Y-9837072D01*
X8426786Y-9808500D01*
X8398214Y-9794214D01*
X8355357Y-9794214D01*
X8326786Y-9808500D01*
X8312500Y-9822786D01*
X8626786Y-9994214D02*
X8598214Y-9979929D01*
X8583928Y-9965643D01*
X8569643Y-9937072D01*
X8569643Y-9851357D01*
X8583928Y-9822786D01*
X8598214Y-9808500D01*
X8626786Y-9794214D01*
X8669643Y-9794214D01*
X8698214Y-9808500D01*
X8712500Y-9822786D01*
X8726786Y-9851357D01*
X8726786Y-9937072D01*
X8712500Y-9965643D01*
X8698214Y-9979929D01*
X8669643Y-9994214D01*
X8626786Y-9994214D01*
X8898214Y-9994214D02*
X8869643Y-9979929D01*
X8855357Y-9951357D01*
X8855357Y-9694214D01*
X9126786Y-9979929D02*
X9098214Y-9994214D01*
X9041071Y-9994214D01*
X9012500Y-9979929D01*
X8998214Y-9951357D01*
X8998214Y-9837072D01*
X9012500Y-9808500D01*
X9041071Y-9794214D01*
X9098214Y-9794214D01*
X9126786Y-9808500D01*
X9141071Y-9837072D01*
X9141071Y-9865643D01*
X8998214Y-9894214D01*
X9255357Y-9979929D02*
X9283928Y-9994214D01*
X9341071Y-9994214D01*
X9369643Y-9979929D01*
X9383928Y-9951357D01*
X9383928Y-9937072D01*
X9369643Y-9908500D01*
X9341071Y-9894214D01*
X9298214Y-9894214D01*
X9269643Y-9879929D01*
X9255357Y-9851357D01*
X9255357Y-9837072D01*
X9269643Y-9808500D01*
X9298214Y-9794214D01*
X9341071Y-9794214D01*
X9369643Y-9808500D01*
X9483928Y-10108500D02*
X9498214Y-10094214D01*
X9526786Y-10051357D01*
X9541071Y-10022786D01*
X9555357Y-9979929D01*
X9569643Y-9908500D01*
X9569643Y-9851357D01*
X9555357Y-9779929D01*
X9541071Y-9737072D01*
X9526786Y-9708500D01*
X9498214Y-9665643D01*
X9483928Y-9651357D01*
X2947500Y-10204500D02*
X2947500Y-10304500D01*
X2897500Y-10254500D02*
X2997500Y-10254500D01*
X3441071Y-10390214D02*
X3269643Y-10390214D01*
X3355357Y-10390214D02*
X3355357Y-10090214D01*
X3326786Y-10133072D01*
X3298214Y-10161643D01*
X3269643Y-10175929D01*
X3569643Y-10361643D02*
X3583928Y-10375929D01*
X3569643Y-10390214D01*
X3555357Y-10375929D01*
X3569643Y-10361643D01*
X3569643Y-10390214D01*
X3769643Y-10090214D02*
X3798214Y-10090214D01*
X3826786Y-10104500D01*
X3841071Y-10118786D01*
X3855357Y-10147357D01*
X3869643Y-10204500D01*
X3869643Y-10275929D01*
X3855357Y-10333072D01*
X3841071Y-10361643D01*
X3826786Y-10375929D01*
X3798214Y-10390214D01*
X3769643Y-10390214D01*
X3741071Y-10375929D01*
X3726786Y-10361643D01*
X3712500Y-10333072D01*
X3698214Y-10275929D01*
X3698214Y-10204500D01*
X3712500Y-10147357D01*
X3726786Y-10118786D01*
X3741071Y-10104500D01*
X3769643Y-10090214D01*
X4055357Y-10090214D02*
X4083928Y-10090214D01*
X4112500Y-10104500D01*
X4126786Y-10118786D01*
X4141071Y-10147357D01*
X4155357Y-10204500D01*
X4155357Y-10275929D01*
X4141071Y-10333072D01*
X4126786Y-10361643D01*
X4112500Y-10375929D01*
X4083928Y-10390214D01*
X4055357Y-10390214D01*
X4026786Y-10375929D01*
X4012500Y-10361643D01*
X3998214Y-10333072D01*
X3983928Y-10275929D01*
X3983928Y-10204500D01*
X3998214Y-10147357D01*
X4012500Y-10118786D01*
X4026786Y-10104500D01*
X4055357Y-10090214D01*
X4283928Y-10390214D02*
X4283928Y-10190214D01*
X4283928Y-10218786D02*
X4298214Y-10204500D01*
X4326786Y-10190214D01*
X4369643Y-10190214D01*
X4398214Y-10204500D01*
X4412500Y-10233072D01*
X4412500Y-10390214D01*
X4412500Y-10233072D02*
X4426786Y-10204500D01*
X4455357Y-10190214D01*
X4498214Y-10190214D01*
X4526786Y-10204500D01*
X4541071Y-10233072D01*
X4541071Y-10390214D01*
X4683928Y-10390214D02*
X4683928Y-10190214D01*
X4683928Y-10218786D02*
X4698214Y-10204500D01*
X4726786Y-10190214D01*
X4769643Y-10190214D01*
X4798214Y-10204500D01*
X4812500Y-10233072D01*
X4812500Y-10390214D01*
X4812500Y-10233072D02*
X4826786Y-10204500D01*
X4855357Y-10190214D01*
X4898214Y-10190214D01*
X4926786Y-10204500D01*
X4941071Y-10233072D01*
X4941071Y-10390214D01*
X5526786Y-10075929D02*
X5269643Y-10461643D01*
X5912500Y-10090214D02*
X5941071Y-10090214D01*
X5969643Y-10104500D01*
X5983928Y-10118786D01*
X5998214Y-10147357D01*
X6012500Y-10204500D01*
X6012500Y-10275929D01*
X5998214Y-10333072D01*
X5983928Y-10361643D01*
X5969643Y-10375929D01*
X5941071Y-10390214D01*
X5912500Y-10390214D01*
X5883928Y-10375929D01*
X5869643Y-10361643D01*
X5855357Y-10333072D01*
X5841071Y-10275929D01*
X5841071Y-10204500D01*
X5855357Y-10147357D01*
X5869643Y-10118786D01*
X5883928Y-10104500D01*
X5912500Y-10090214D01*
X6141071Y-10361643D02*
X6155357Y-10375929D01*
X6141071Y-10390214D01*
X6126786Y-10375929D01*
X6141071Y-10361643D01*
X6141071Y-10390214D01*
X6341071Y-10090214D02*
X6369643Y-10090214D01*
X6398214Y-10104500D01*
X6412500Y-10118786D01*
X6426786Y-10147357D01*
X6441071Y-10204500D01*
X6441071Y-10275929D01*
X6426786Y-10333072D01*
X6412500Y-10361643D01*
X6398214Y-10375929D01*
X6369643Y-10390214D01*
X6341071Y-10390214D01*
X6312500Y-10375929D01*
X6298214Y-10361643D01*
X6283928Y-10333072D01*
X6269643Y-10275929D01*
X6269643Y-10204500D01*
X6283928Y-10147357D01*
X6298214Y-10118786D01*
X6312500Y-10104500D01*
X6341071Y-10090214D01*
X6541071Y-10090214D02*
X6726786Y-10090214D01*
X6626786Y-10204500D01*
X6669643Y-10204500D01*
X6698214Y-10218786D01*
X6712500Y-10233072D01*
X6726786Y-10261643D01*
X6726786Y-10333072D01*
X6712500Y-10361643D01*
X6698214Y-10375929D01*
X6669643Y-10390214D01*
X6583928Y-10390214D01*
X6555357Y-10375929D01*
X6541071Y-10361643D01*
X6869643Y-10390214D02*
X6926786Y-10390214D01*
X6955357Y-10375929D01*
X6969643Y-10361643D01*
X6998214Y-10318786D01*
X7012500Y-10261643D01*
X7012500Y-10147357D01*
X6998214Y-10118786D01*
X6983928Y-10104500D01*
X6955357Y-10090214D01*
X6898214Y-10090214D01*
X6869643Y-10104500D01*
X6855357Y-10118786D01*
X6841071Y-10147357D01*
X6841071Y-10218786D01*
X6855357Y-10247357D01*
X6869643Y-10261643D01*
X6898214Y-10275929D01*
X6955357Y-10275929D01*
X6983928Y-10261643D01*
X6998214Y-10247357D01*
X7012500Y-10218786D01*
X7126786Y-10090214D02*
X7126786Y-10147357D01*
X7241071Y-10090214D02*
X7241071Y-10147357D01*
X7683928Y-10504500D02*
X7669643Y-10490214D01*
X7641071Y-10447357D01*
X7626786Y-10418786D01*
X7612500Y-10375929D01*
X7598214Y-10304500D01*
X7598214Y-10247357D01*
X7612500Y-10175929D01*
X7626786Y-10133072D01*
X7641071Y-10104500D01*
X7669643Y-10061643D01*
X7683928Y-10047357D01*
X7783928Y-10118786D02*
X7798214Y-10104500D01*
X7826786Y-10090214D01*
X7898214Y-10090214D01*
X7926786Y-10104500D01*
X7941071Y-10118786D01*
X7955357Y-10147357D01*
X7955357Y-10175929D01*
X7941071Y-10218786D01*
X7769643Y-10390214D01*
X7955357Y-10390214D01*
X8069643Y-10118786D02*
X8083928Y-10104500D01*
X8112500Y-10090214D01*
X8183928Y-10090214D01*
X8212500Y-10104500D01*
X8226786Y-10118786D01*
X8241071Y-10147357D01*
X8241071Y-10175929D01*
X8226786Y-10218786D01*
X8055357Y-10390214D01*
X8241071Y-10390214D01*
X8598214Y-10390214D02*
X8598214Y-10090214D01*
X8726786Y-10390214D02*
X8726786Y-10233072D01*
X8712500Y-10204500D01*
X8683928Y-10190214D01*
X8641071Y-10190214D01*
X8612500Y-10204500D01*
X8598214Y-10218786D01*
X8912500Y-10390214D02*
X8883928Y-10375929D01*
X8869643Y-10361643D01*
X8855357Y-10333072D01*
X8855357Y-10247357D01*
X8869643Y-10218786D01*
X8883928Y-10204500D01*
X8912500Y-10190214D01*
X8955357Y-10190214D01*
X8983928Y-10204500D01*
X8998214Y-10218786D01*
X9012500Y-10247357D01*
X9012500Y-10333072D01*
X8998214Y-10361643D01*
X8983928Y-10375929D01*
X8955357Y-10390214D01*
X8912500Y-10390214D01*
X9183928Y-10390214D02*
X9155357Y-10375929D01*
X9141071Y-10347357D01*
X9141071Y-10090214D01*
X9412500Y-10375929D02*
X9383928Y-10390214D01*
X9326786Y-10390214D01*
X9298214Y-10375929D01*
X9283928Y-10347357D01*
X9283928Y-10233072D01*
X9298214Y-10204500D01*
X9326786Y-10190214D01*
X9383928Y-10190214D01*
X9412500Y-10204500D01*
X9426786Y-10233072D01*
X9426786Y-10261643D01*
X9283928Y-10290214D01*
X9541071Y-10375929D02*
X9569643Y-10390214D01*
X9626786Y-10390214D01*
X9655357Y-10375929D01*
X9669643Y-10347357D01*
X9669643Y-10333072D01*
X9655357Y-10304500D01*
X9626786Y-10290214D01*
X9583928Y-10290214D01*
X9555357Y-10275929D01*
X9541071Y-10247357D01*
X9541071Y-10233072D01*
X9555357Y-10204500D01*
X9583928Y-10190214D01*
X9626786Y-10190214D01*
X9655357Y-10204500D01*
X9769643Y-10504500D02*
X9783928Y-10490214D01*
X9812500Y-10447357D01*
X9826786Y-10418786D01*
X9841071Y-10375929D01*
X9855357Y-10304500D01*
X9855357Y-10247357D01*
X9841071Y-10175929D01*
X9826786Y-10133072D01*
X9812500Y-10104500D01*
X9783928Y-10061643D01*
X9769643Y-10047357D01*
X2982621Y-10686422D02*
X2982621Y-10614579D01*
X2910778Y-10614579D01*
X2910778Y-10686422D01*
X2982621Y-10686422D01*
X3441071Y-10786214D02*
X3269643Y-10786214D01*
X3355357Y-10786214D02*
X3355357Y-10486214D01*
X3326786Y-10529072D01*
X3298214Y-10557643D01*
X3269643Y-10571929D01*
X3569643Y-10757643D02*
X3583928Y-10771929D01*
X3569643Y-10786214D01*
X3555357Y-10771929D01*
X3569643Y-10757643D01*
X3569643Y-10786214D01*
X3769643Y-10486214D02*
X3798214Y-10486214D01*
X3826786Y-10500500D01*
X3841071Y-10514786D01*
X3855357Y-10543357D01*
X3869643Y-10600500D01*
X3869643Y-10671929D01*
X3855357Y-10729072D01*
X3841071Y-10757643D01*
X3826786Y-10771929D01*
X3798214Y-10786214D01*
X3769643Y-10786214D01*
X3741071Y-10771929D01*
X3726786Y-10757643D01*
X3712500Y-10729072D01*
X3698214Y-10671929D01*
X3698214Y-10600500D01*
X3712500Y-10543357D01*
X3726786Y-10514786D01*
X3741071Y-10500500D01*
X3769643Y-10486214D01*
X3983928Y-10514786D02*
X3998214Y-10500500D01*
X4026786Y-10486214D01*
X4098214Y-10486214D01*
X4126786Y-10500500D01*
X4141071Y-10514786D01*
X4155357Y-10543357D01*
X4155357Y-10571929D01*
X4141071Y-10614786D01*
X3969643Y-10786214D01*
X4155357Y-10786214D01*
X4283928Y-10786214D02*
X4283928Y-10586214D01*
X4283928Y-10614786D02*
X4298214Y-10600500D01*
X4326786Y-10586214D01*
X4369643Y-10586214D01*
X4398214Y-10600500D01*
X4412500Y-10629072D01*
X4412500Y-10786214D01*
X4412500Y-10629072D02*
X4426786Y-10600500D01*
X4455357Y-10586214D01*
X4498214Y-10586214D01*
X4526786Y-10600500D01*
X4541071Y-10629072D01*
X4541071Y-10786214D01*
X4683928Y-10786214D02*
X4683928Y-10586214D01*
X4683928Y-10614786D02*
X4698214Y-10600500D01*
X4726786Y-10586214D01*
X4769643Y-10586214D01*
X4798214Y-10600500D01*
X4812500Y-10629072D01*
X4812500Y-10786214D01*
X4812500Y-10629072D02*
X4826786Y-10600500D01*
X4855357Y-10586214D01*
X4898214Y-10586214D01*
X4926786Y-10600500D01*
X4941071Y-10629072D01*
X4941071Y-10786214D01*
X5526786Y-10471929D02*
X5269643Y-10857643D01*
X5912500Y-10486214D02*
X5941071Y-10486214D01*
X5969643Y-10500500D01*
X5983928Y-10514786D01*
X5998214Y-10543357D01*
X6012500Y-10600500D01*
X6012500Y-10671929D01*
X5998214Y-10729072D01*
X5983928Y-10757643D01*
X5969643Y-10771929D01*
X5941071Y-10786214D01*
X5912500Y-10786214D01*
X5883928Y-10771929D01*
X5869643Y-10757643D01*
X5855357Y-10729072D01*
X5841071Y-10671929D01*
X5841071Y-10600500D01*
X5855357Y-10543357D01*
X5869643Y-10514786D01*
X5883928Y-10500500D01*
X5912500Y-10486214D01*
X6141071Y-10757643D02*
X6155357Y-10771929D01*
X6141071Y-10786214D01*
X6126786Y-10771929D01*
X6141071Y-10757643D01*
X6141071Y-10786214D01*
X6341071Y-10486214D02*
X6369643Y-10486214D01*
X6398214Y-10500500D01*
X6412500Y-10514786D01*
X6426786Y-10543357D01*
X6441071Y-10600500D01*
X6441071Y-10671929D01*
X6426786Y-10729072D01*
X6412500Y-10757643D01*
X6398214Y-10771929D01*
X6369643Y-10786214D01*
X6341071Y-10786214D01*
X6312500Y-10771929D01*
X6298214Y-10757643D01*
X6283928Y-10729072D01*
X6269643Y-10671929D01*
X6269643Y-10600500D01*
X6283928Y-10543357D01*
X6298214Y-10514786D01*
X6312500Y-10500500D01*
X6341071Y-10486214D01*
X6698214Y-10586214D02*
X6698214Y-10786214D01*
X6626786Y-10471929D02*
X6555357Y-10686214D01*
X6741071Y-10686214D01*
X6912500Y-10486214D02*
X6941071Y-10486214D01*
X6969643Y-10500500D01*
X6983928Y-10514786D01*
X6998214Y-10543357D01*
X7012500Y-10600500D01*
X7012500Y-10671929D01*
X6998214Y-10729072D01*
X6983928Y-10757643D01*
X6969643Y-10771929D01*
X6941071Y-10786214D01*
X6912500Y-10786214D01*
X6883928Y-10771929D01*
X6869643Y-10757643D01*
X6855357Y-10729072D01*
X6841071Y-10671929D01*
X6841071Y-10600500D01*
X6855357Y-10543357D01*
X6869643Y-10514786D01*
X6883928Y-10500500D01*
X6912500Y-10486214D01*
X7126786Y-10486214D02*
X7126786Y-10543357D01*
X7241071Y-10486214D02*
X7241071Y-10543357D01*
X7683928Y-10900500D02*
X7669643Y-10886214D01*
X7641071Y-10843357D01*
X7626786Y-10814786D01*
X7612500Y-10771929D01*
X7598214Y-10700500D01*
X7598214Y-10643357D01*
X7612500Y-10571929D01*
X7626786Y-10529072D01*
X7641071Y-10500500D01*
X7669643Y-10457643D01*
X7683928Y-10443357D01*
X7955357Y-10786214D02*
X7783928Y-10786214D01*
X7869643Y-10786214D02*
X7869643Y-10486214D01*
X7841071Y-10529072D01*
X7812500Y-10557643D01*
X7783928Y-10571929D01*
X8141071Y-10486214D02*
X8169643Y-10486214D01*
X8198214Y-10500500D01*
X8212500Y-10514786D01*
X8226786Y-10543357D01*
X8241071Y-10600500D01*
X8241071Y-10671929D01*
X8226786Y-10729072D01*
X8212500Y-10757643D01*
X8198214Y-10771929D01*
X8169643Y-10786214D01*
X8141071Y-10786214D01*
X8112500Y-10771929D01*
X8098214Y-10757643D01*
X8083928Y-10729072D01*
X8069643Y-10671929D01*
X8069643Y-10600500D01*
X8083928Y-10543357D01*
X8098214Y-10514786D01*
X8112500Y-10500500D01*
X8141071Y-10486214D01*
X8598214Y-10786214D02*
X8598214Y-10486214D01*
X8726786Y-10786214D02*
X8726786Y-10629072D01*
X8712500Y-10600500D01*
X8683928Y-10586214D01*
X8641071Y-10586214D01*
X8612500Y-10600500D01*
X8598214Y-10614786D01*
X8912500Y-10786214D02*
X8883928Y-10771929D01*
X8869643Y-10757643D01*
X8855357Y-10729072D01*
X8855357Y-10643357D01*
X8869643Y-10614786D01*
X8883928Y-10600500D01*
X8912500Y-10586214D01*
X8955357Y-10586214D01*
X8983928Y-10600500D01*
X8998214Y-10614786D01*
X9012500Y-10643357D01*
X9012500Y-10729072D01*
X8998214Y-10757643D01*
X8983928Y-10771929D01*
X8955357Y-10786214D01*
X8912500Y-10786214D01*
X9183928Y-10786214D02*
X9155357Y-10771929D01*
X9141071Y-10743357D01*
X9141071Y-10486214D01*
X9412500Y-10771929D02*
X9383928Y-10786214D01*
X9326786Y-10786214D01*
X9298214Y-10771929D01*
X9283928Y-10743357D01*
X9283928Y-10629072D01*
X9298214Y-10600500D01*
X9326786Y-10586214D01*
X9383928Y-10586214D01*
X9412500Y-10600500D01*
X9426786Y-10629072D01*
X9426786Y-10657643D01*
X9283928Y-10686214D01*
X9541071Y-10771929D02*
X9569643Y-10786214D01*
X9626786Y-10786214D01*
X9655357Y-10771929D01*
X9669643Y-10743357D01*
X9669643Y-10729072D01*
X9655357Y-10700500D01*
X9626786Y-10686214D01*
X9583928Y-10686214D01*
X9555357Y-10671929D01*
X9541071Y-10643357D01*
X9541071Y-10629072D01*
X9555357Y-10600500D01*
X9583928Y-10586214D01*
X9626786Y-10586214D01*
X9655357Y-10600500D01*
X9769643Y-10900500D02*
X9783928Y-10886214D01*
X9812500Y-10843357D01*
X9826786Y-10814786D01*
X9841071Y-10771929D01*
X9855357Y-10700500D01*
X9855357Y-10643357D01*
X9841071Y-10571929D01*
X9826786Y-10529072D01*
X9812500Y-10500500D01*
X9783928Y-10457643D01*
X9769643Y-10443357D01*
X2942500Y-11101500D02*
X2997500Y-11046500D01*
X2942500Y-10991500D01*
X2887500Y-11046500D01*
X2942500Y-11101500D01*
X3441071Y-11182214D02*
X3269643Y-11182214D01*
X3355357Y-11182214D02*
X3355357Y-10882214D01*
X3326786Y-10925072D01*
X3298214Y-10953643D01*
X3269643Y-10967929D01*
X3569643Y-11153643D02*
X3583928Y-11167929D01*
X3569643Y-11182214D01*
X3555357Y-11167929D01*
X3569643Y-11153643D01*
X3569643Y-11182214D01*
X3869643Y-11182214D02*
X3698214Y-11182214D01*
X3783928Y-11182214D02*
X3783928Y-10882214D01*
X3755357Y-10925072D01*
X3726786Y-10953643D01*
X3698214Y-10967929D01*
X4055357Y-10882214D02*
X4083928Y-10882214D01*
X4112500Y-10896500D01*
X4126786Y-10910786D01*
X4141071Y-10939357D01*
X4155357Y-10996500D01*
X4155357Y-11067929D01*
X4141071Y-11125072D01*
X4126786Y-11153643D01*
X4112500Y-11167929D01*
X4083928Y-11182214D01*
X4055357Y-11182214D01*
X4026786Y-11167929D01*
X4012500Y-11153643D01*
X3998214Y-11125072D01*
X3983928Y-11067929D01*
X3983928Y-10996500D01*
X3998214Y-10939357D01*
X4012500Y-10910786D01*
X4026786Y-10896500D01*
X4055357Y-10882214D01*
X4283928Y-11182214D02*
X4283928Y-10982214D01*
X4283928Y-11010786D02*
X4298214Y-10996500D01*
X4326786Y-10982214D01*
X4369643Y-10982214D01*
X4398214Y-10996500D01*
X4412500Y-11025072D01*
X4412500Y-11182214D01*
X4412500Y-11025072D02*
X4426786Y-10996500D01*
X4455357Y-10982214D01*
X4498214Y-10982214D01*
X4526786Y-10996500D01*
X4541071Y-11025072D01*
X4541071Y-11182214D01*
X4683928Y-11182214D02*
X4683928Y-10982214D01*
X4683928Y-11010786D02*
X4698214Y-10996500D01*
X4726786Y-10982214D01*
X4769643Y-10982214D01*
X4798214Y-10996500D01*
X4812500Y-11025072D01*
X4812500Y-11182214D01*
X4812500Y-11025072D02*
X4826786Y-10996500D01*
X4855357Y-10982214D01*
X4898214Y-10982214D01*
X4926786Y-10996500D01*
X4941071Y-11025072D01*
X4941071Y-11182214D01*
X5526786Y-10867929D02*
X5269643Y-11253643D01*
X5912500Y-10882214D02*
X5941071Y-10882214D01*
X5969643Y-10896500D01*
X5983928Y-10910786D01*
X5998214Y-10939357D01*
X6012500Y-10996500D01*
X6012500Y-11067929D01*
X5998214Y-11125072D01*
X5983928Y-11153643D01*
X5969643Y-11167929D01*
X5941071Y-11182214D01*
X5912500Y-11182214D01*
X5883928Y-11167929D01*
X5869643Y-11153643D01*
X5855357Y-11125072D01*
X5841071Y-11067929D01*
X5841071Y-10996500D01*
X5855357Y-10939357D01*
X5869643Y-10910786D01*
X5883928Y-10896500D01*
X5912500Y-10882214D01*
X6141071Y-11153643D02*
X6155357Y-11167929D01*
X6141071Y-11182214D01*
X6126786Y-11167929D01*
X6141071Y-11153643D01*
X6141071Y-11182214D01*
X6341071Y-10882214D02*
X6369643Y-10882214D01*
X6398214Y-10896500D01*
X6412500Y-10910786D01*
X6426786Y-10939357D01*
X6441071Y-10996500D01*
X6441071Y-11067929D01*
X6426786Y-11125072D01*
X6412500Y-11153643D01*
X6398214Y-11167929D01*
X6369643Y-11182214D01*
X6341071Y-11182214D01*
X6312500Y-11167929D01*
X6298214Y-11153643D01*
X6283928Y-11125072D01*
X6269643Y-11067929D01*
X6269643Y-10996500D01*
X6283928Y-10939357D01*
X6298214Y-10910786D01*
X6312500Y-10896500D01*
X6341071Y-10882214D01*
X6698214Y-10982214D02*
X6698214Y-11182214D01*
X6626786Y-10867929D02*
X6555357Y-11082214D01*
X6741071Y-11082214D01*
X6826786Y-10882214D02*
X7012500Y-10882214D01*
X6912500Y-10996500D01*
X6955357Y-10996500D01*
X6983928Y-11010786D01*
X6998214Y-11025072D01*
X7012500Y-11053643D01*
X7012500Y-11125072D01*
X6998214Y-11153643D01*
X6983928Y-11167929D01*
X6955357Y-11182214D01*
X6869643Y-11182214D01*
X6841071Y-11167929D01*
X6826786Y-11153643D01*
X7126786Y-10882214D02*
X7126786Y-10939357D01*
X7241071Y-10882214D02*
X7241071Y-10939357D01*
X7683928Y-11296500D02*
X7669643Y-11282214D01*
X7641071Y-11239357D01*
X7626786Y-11210786D01*
X7612500Y-11167929D01*
X7598214Y-11096500D01*
X7598214Y-11039357D01*
X7612500Y-10967929D01*
X7626786Y-10925072D01*
X7641071Y-10896500D01*
X7669643Y-10853643D01*
X7683928Y-10839357D01*
X7926786Y-10982214D02*
X7926786Y-11182214D01*
X7855357Y-10867929D02*
X7783928Y-11082214D01*
X7969643Y-11082214D01*
X8312500Y-11182214D02*
X8312500Y-10882214D01*
X8441071Y-11182214D02*
X8441071Y-11025072D01*
X8426786Y-10996500D01*
X8398214Y-10982214D01*
X8355357Y-10982214D01*
X8326786Y-10996500D01*
X8312500Y-11010786D01*
X8626786Y-11182214D02*
X8598214Y-11167929D01*
X8583928Y-11153643D01*
X8569643Y-11125072D01*
X8569643Y-11039357D01*
X8583928Y-11010786D01*
X8598214Y-10996500D01*
X8626786Y-10982214D01*
X8669643Y-10982214D01*
X8698214Y-10996500D01*
X8712500Y-11010786D01*
X8726786Y-11039357D01*
X8726786Y-11125072D01*
X8712500Y-11153643D01*
X8698214Y-11167929D01*
X8669643Y-11182214D01*
X8626786Y-11182214D01*
X8898214Y-11182214D02*
X8869643Y-11167929D01*
X8855357Y-11139357D01*
X8855357Y-10882214D01*
X9126786Y-11167929D02*
X9098214Y-11182214D01*
X9041071Y-11182214D01*
X9012500Y-11167929D01*
X8998214Y-11139357D01*
X8998214Y-11025072D01*
X9012500Y-10996500D01*
X9041071Y-10982214D01*
X9098214Y-10982214D01*
X9126786Y-10996500D01*
X9141071Y-11025072D01*
X9141071Y-11053643D01*
X8998214Y-11082214D01*
X9255357Y-11167929D02*
X9283928Y-11182214D01*
X9341071Y-11182214D01*
X9369643Y-11167929D01*
X9383928Y-11139357D01*
X9383928Y-11125072D01*
X9369643Y-11096500D01*
X9341071Y-11082214D01*
X9298214Y-11082214D01*
X9269643Y-11067929D01*
X9255357Y-11039357D01*
X9255357Y-11025072D01*
X9269643Y-10996500D01*
X9298214Y-10982214D01*
X9341071Y-10982214D01*
X9369643Y-10996500D01*
X9483928Y-11296500D02*
X9498214Y-11282214D01*
X9526786Y-11239357D01*
X9541071Y-11210786D01*
X9555357Y-11167929D01*
X9569643Y-11096500D01*
X9569643Y-11039357D01*
X9555357Y-10967929D01*
X9541071Y-10925072D01*
X9526786Y-10896500D01*
X9498214Y-10853643D01*
X9483928Y-10839357D01*
X2867500Y-11377500D02*
X2997500Y-11507500D01*
X2997500Y-11377500D02*
X2867500Y-11507500D01*
X2997500Y-11442500D02*
G75*
G03X2997500Y-11442500I-65000J0D01*
G01*
X3441071Y-11578214D02*
X3269643Y-11578214D01*
X3355357Y-11578214D02*
X3355357Y-11278214D01*
X3326786Y-11321071D01*
X3298214Y-11349643D01*
X3269643Y-11363929D01*
X3569643Y-11549643D02*
X3583928Y-11563929D01*
X3569643Y-11578214D01*
X3555357Y-11563929D01*
X3569643Y-11549643D01*
X3569643Y-11578214D01*
X3683928Y-11278214D02*
X3869643Y-11278214D01*
X3769643Y-11392500D01*
X3812500Y-11392500D01*
X3841071Y-11406786D01*
X3855357Y-11421071D01*
X3869643Y-11449643D01*
X3869643Y-11521071D01*
X3855357Y-11549643D01*
X3841071Y-11563929D01*
X3812500Y-11578214D01*
X3726786Y-11578214D01*
X3698214Y-11563929D01*
X3683928Y-11549643D01*
X4055357Y-11278214D02*
X4083928Y-11278214D01*
X4112500Y-11292500D01*
X4126786Y-11306786D01*
X4141071Y-11335357D01*
X4155357Y-11392500D01*
X4155357Y-11463929D01*
X4141071Y-11521071D01*
X4126786Y-11549643D01*
X4112500Y-11563929D01*
X4083928Y-11578214D01*
X4055357Y-11578214D01*
X4026786Y-11563929D01*
X4012500Y-11549643D01*
X3998214Y-11521071D01*
X3983928Y-11463929D01*
X3983928Y-11392500D01*
X3998214Y-11335357D01*
X4012500Y-11306786D01*
X4026786Y-11292500D01*
X4055357Y-11278214D01*
X4283928Y-11578214D02*
X4283928Y-11378214D01*
X4283928Y-11406786D02*
X4298214Y-11392500D01*
X4326786Y-11378214D01*
X4369643Y-11378214D01*
X4398214Y-11392500D01*
X4412500Y-11421071D01*
X4412500Y-11578214D01*
X4412500Y-11421071D02*
X4426786Y-11392500D01*
X4455357Y-11378214D01*
X4498214Y-11378214D01*
X4526786Y-11392500D01*
X4541071Y-11421071D01*
X4541071Y-11578214D01*
X4683928Y-11578214D02*
X4683928Y-11378214D01*
X4683928Y-11406786D02*
X4698214Y-11392500D01*
X4726786Y-11378214D01*
X4769643Y-11378214D01*
X4798214Y-11392500D01*
X4812500Y-11421071D01*
X4812500Y-11578214D01*
X4812500Y-11421071D02*
X4826786Y-11392500D01*
X4855357Y-11378214D01*
X4898214Y-11378214D01*
X4926786Y-11392500D01*
X4941071Y-11421071D01*
X4941071Y-11578214D01*
X5526786Y-11263929D02*
X5269643Y-11649643D01*
X5912500Y-11278214D02*
X5941071Y-11278214D01*
X5969643Y-11292500D01*
X5983928Y-11306786D01*
X5998214Y-11335357D01*
X6012500Y-11392500D01*
X6012500Y-11463929D01*
X5998214Y-11521071D01*
X5983928Y-11549643D01*
X5969643Y-11563929D01*
X5941071Y-11578214D01*
X5912500Y-11578214D01*
X5883928Y-11563929D01*
X5869643Y-11549643D01*
X5855357Y-11521071D01*
X5841071Y-11463929D01*
X5841071Y-11392500D01*
X5855357Y-11335357D01*
X5869643Y-11306786D01*
X5883928Y-11292500D01*
X5912500Y-11278214D01*
X6141071Y-11549643D02*
X6155357Y-11563929D01*
X6141071Y-11578214D01*
X6126786Y-11563929D01*
X6141071Y-11549643D01*
X6141071Y-11578214D01*
X6341071Y-11278214D02*
X6369643Y-11278214D01*
X6398214Y-11292500D01*
X6412500Y-11306786D01*
X6426786Y-11335357D01*
X6441071Y-11392500D01*
X6441071Y-11463929D01*
X6426786Y-11521071D01*
X6412500Y-11549643D01*
X6398214Y-11563929D01*
X6369643Y-11578214D01*
X6341071Y-11578214D01*
X6312500Y-11563929D01*
X6298214Y-11549643D01*
X6283928Y-11521071D01*
X6269643Y-11463929D01*
X6269643Y-11392500D01*
X6283928Y-11335357D01*
X6298214Y-11306786D01*
X6312500Y-11292500D01*
X6341071Y-11278214D01*
X6712500Y-11278214D02*
X6569643Y-11278214D01*
X6555357Y-11421071D01*
X6569643Y-11406786D01*
X6598214Y-11392500D01*
X6669643Y-11392500D01*
X6698214Y-11406786D01*
X6712500Y-11421071D01*
X6726786Y-11449643D01*
X6726786Y-11521071D01*
X6712500Y-11549643D01*
X6698214Y-11563929D01*
X6669643Y-11578214D01*
X6598214Y-11578214D01*
X6569643Y-11563929D01*
X6555357Y-11549643D01*
X7012500Y-11578214D02*
X6841071Y-11578214D01*
X6926786Y-11578214D02*
X6926786Y-11278214D01*
X6898214Y-11321071D01*
X6869643Y-11349643D01*
X6841071Y-11363929D01*
X7126786Y-11278214D02*
X7126786Y-11335357D01*
X7241071Y-11278214D02*
X7241071Y-11335357D01*
X7683928Y-11692500D02*
X7669643Y-11678214D01*
X7641071Y-11635357D01*
X7626786Y-11606786D01*
X7612500Y-11563929D01*
X7598214Y-11492500D01*
X7598214Y-11435357D01*
X7612500Y-11363929D01*
X7626786Y-11321071D01*
X7641071Y-11292500D01*
X7669643Y-11249643D01*
X7683928Y-11235357D01*
X7783928Y-11306786D02*
X7798214Y-11292500D01*
X7826786Y-11278214D01*
X7898214Y-11278214D01*
X7926786Y-11292500D01*
X7941071Y-11306786D01*
X7955357Y-11335357D01*
X7955357Y-11363929D01*
X7941071Y-11406786D01*
X7769643Y-11578214D01*
X7955357Y-11578214D01*
X8312500Y-11578214D02*
X8312500Y-11278214D01*
X8441071Y-11578214D02*
X8441071Y-11421071D01*
X8426786Y-11392500D01*
X8398214Y-11378214D01*
X8355357Y-11378214D01*
X8326786Y-11392500D01*
X8312500Y-11406786D01*
X8626786Y-11578214D02*
X8598214Y-11563929D01*
X8583928Y-11549643D01*
X8569643Y-11521071D01*
X8569643Y-11435357D01*
X8583928Y-11406786D01*
X8598214Y-11392500D01*
X8626786Y-11378214D01*
X8669643Y-11378214D01*
X8698214Y-11392500D01*
X8712500Y-11406786D01*
X8726786Y-11435357D01*
X8726786Y-11521071D01*
X8712500Y-11549643D01*
X8698214Y-11563929D01*
X8669643Y-11578214D01*
X8626786Y-11578214D01*
X8898214Y-11578214D02*
X8869643Y-11563929D01*
X8855357Y-11535357D01*
X8855357Y-11278214D01*
X9126786Y-11563929D02*
X9098214Y-11578214D01*
X9041071Y-11578214D01*
X9012500Y-11563929D01*
X8998214Y-11535357D01*
X8998214Y-11421071D01*
X9012500Y-11392500D01*
X9041071Y-11378214D01*
X9098214Y-11378214D01*
X9126786Y-11392500D01*
X9141071Y-11421071D01*
X9141071Y-11449643D01*
X8998214Y-11478214D01*
X9255357Y-11563929D02*
X9283928Y-11578214D01*
X9341071Y-11578214D01*
X9369643Y-11563929D01*
X9383928Y-11535357D01*
X9383928Y-11521071D01*
X9369643Y-11492500D01*
X9341071Y-11478214D01*
X9298214Y-11478214D01*
X9269643Y-11463929D01*
X9255357Y-11435357D01*
X9255357Y-11421071D01*
X9269643Y-11392500D01*
X9298214Y-11378214D01*
X9341071Y-11378214D01*
X9369643Y-11392500D01*
X9483928Y-11692500D02*
X9498214Y-11678214D01*
X9526786Y-11635357D01*
X9541071Y-11606786D01*
X9555357Y-11563929D01*
X9569643Y-11492500D01*
X9569643Y-11435357D01*
X9555357Y-11363929D01*
X9541071Y-11321071D01*
X9526786Y-11292500D01*
X9498214Y-11249643D01*
X9483928Y-11235357D01*
X2677500Y-11678500D02*
X2997500Y-11998500D01*
X2997500Y-11678500D02*
X2677500Y-11998500D01*
X2837500Y-11678500D02*
X2837500Y-11998500D01*
X2677500Y-11838500D02*
X2997500Y-11838500D01*
X3255357Y-11674214D02*
X3441071Y-11674214D01*
X3341071Y-11788500D01*
X3383928Y-11788500D01*
X3412500Y-11802786D01*
X3426786Y-11817071D01*
X3441071Y-11845643D01*
X3441071Y-11917071D01*
X3426786Y-11945643D01*
X3412500Y-11959929D01*
X3383928Y-11974214D01*
X3298214Y-11974214D01*
X3269643Y-11959929D01*
X3255357Y-11945643D01*
X3569643Y-11945643D02*
X3583928Y-11959929D01*
X3569643Y-11974214D01*
X3555357Y-11959929D01*
X3569643Y-11945643D01*
X3569643Y-11974214D01*
X3698214Y-11702786D02*
X3712500Y-11688500D01*
X3741071Y-11674214D01*
X3812500Y-11674214D01*
X3841071Y-11688500D01*
X3855357Y-11702786D01*
X3869643Y-11731357D01*
X3869643Y-11759929D01*
X3855357Y-11802786D01*
X3683928Y-11974214D01*
X3869643Y-11974214D01*
X4055357Y-11674214D02*
X4083928Y-11674214D01*
X4112500Y-11688500D01*
X4126786Y-11702786D01*
X4141071Y-11731357D01*
X4155357Y-11788500D01*
X4155357Y-11859929D01*
X4141071Y-11917071D01*
X4126786Y-11945643D01*
X4112500Y-11959929D01*
X4083928Y-11974214D01*
X4055357Y-11974214D01*
X4026786Y-11959929D01*
X4012500Y-11945643D01*
X3998214Y-11917071D01*
X3983928Y-11859929D01*
X3983928Y-11788500D01*
X3998214Y-11731357D01*
X4012500Y-11702786D01*
X4026786Y-11688500D01*
X4055357Y-11674214D01*
X4283928Y-11974214D02*
X4283928Y-11774214D01*
X4283928Y-11802786D02*
X4298214Y-11788500D01*
X4326786Y-11774214D01*
X4369643Y-11774214D01*
X4398214Y-11788500D01*
X4412500Y-11817071D01*
X4412500Y-11974214D01*
X4412500Y-11817071D02*
X4426786Y-11788500D01*
X4455357Y-11774214D01*
X4498214Y-11774214D01*
X4526786Y-11788500D01*
X4541071Y-11817071D01*
X4541071Y-11974214D01*
X4683928Y-11974214D02*
X4683928Y-11774214D01*
X4683928Y-11802786D02*
X4698214Y-11788500D01*
X4726786Y-11774214D01*
X4769643Y-11774214D01*
X4798214Y-11788500D01*
X4812500Y-11817071D01*
X4812500Y-11974214D01*
X4812500Y-11817071D02*
X4826786Y-11788500D01*
X4855357Y-11774214D01*
X4898214Y-11774214D01*
X4926786Y-11788500D01*
X4941071Y-11817071D01*
X4941071Y-11974214D01*
X5526786Y-11659929D02*
X5269643Y-12045643D01*
X5912500Y-11674214D02*
X5941071Y-11674214D01*
X5969643Y-11688500D01*
X5983928Y-11702786D01*
X5998214Y-11731357D01*
X6012500Y-11788500D01*
X6012500Y-11859929D01*
X5998214Y-11917071D01*
X5983928Y-11945643D01*
X5969643Y-11959929D01*
X5941071Y-11974214D01*
X5912500Y-11974214D01*
X5883928Y-11959929D01*
X5869643Y-11945643D01*
X5855357Y-11917071D01*
X5841071Y-11859929D01*
X5841071Y-11788500D01*
X5855357Y-11731357D01*
X5869643Y-11702786D01*
X5883928Y-11688500D01*
X5912500Y-11674214D01*
X6141071Y-11945643D02*
X6155357Y-11959929D01*
X6141071Y-11974214D01*
X6126786Y-11959929D01*
X6141071Y-11945643D01*
X6141071Y-11974214D01*
X6441071Y-11974214D02*
X6269643Y-11974214D01*
X6355357Y-11974214D02*
X6355357Y-11674214D01*
X6326786Y-11717071D01*
X6298214Y-11745643D01*
X6269643Y-11759929D01*
X6555357Y-11702786D02*
X6569643Y-11688500D01*
X6598214Y-11674214D01*
X6669643Y-11674214D01*
X6698214Y-11688500D01*
X6712500Y-11702786D01*
X6726786Y-11731357D01*
X6726786Y-11759929D01*
X6712500Y-11802786D01*
X6541071Y-11974214D01*
X6726786Y-11974214D01*
X6983928Y-11674214D02*
X6926786Y-11674214D01*
X6898214Y-11688500D01*
X6883928Y-11702786D01*
X6855357Y-11745643D01*
X6841071Y-11802786D01*
X6841071Y-11917071D01*
X6855357Y-11945643D01*
X6869643Y-11959929D01*
X6898214Y-11974214D01*
X6955357Y-11974214D01*
X6983928Y-11959929D01*
X6998214Y-11945643D01*
X7012500Y-11917071D01*
X7012500Y-11845643D01*
X6998214Y-11817071D01*
X6983928Y-11802786D01*
X6955357Y-11788500D01*
X6898214Y-11788500D01*
X6869643Y-11802786D01*
X6855357Y-11817071D01*
X6841071Y-11845643D01*
X7126786Y-11674214D02*
X7126786Y-11731357D01*
X7241071Y-11674214D02*
X7241071Y-11731357D01*
X7683928Y-12088500D02*
X7669643Y-12074214D01*
X7641071Y-12031357D01*
X7626786Y-12002786D01*
X7612500Y-11959929D01*
X7598214Y-11888500D01*
X7598214Y-11831357D01*
X7612500Y-11759929D01*
X7626786Y-11717071D01*
X7641071Y-11688500D01*
X7669643Y-11645643D01*
X7683928Y-11631357D01*
X7926786Y-11774214D02*
X7926786Y-11974214D01*
X7855357Y-11659929D02*
X7783928Y-11874214D01*
X7969643Y-11874214D01*
X8312500Y-11974214D02*
X8312500Y-11674214D01*
X8441071Y-11974214D02*
X8441071Y-11817071D01*
X8426786Y-11788500D01*
X8398214Y-11774214D01*
X8355357Y-11774214D01*
X8326786Y-11788500D01*
X8312500Y-11802786D01*
X8626786Y-11974214D02*
X8598214Y-11959929D01*
X8583928Y-11945643D01*
X8569643Y-11917071D01*
X8569643Y-11831357D01*
X8583928Y-11802786D01*
X8598214Y-11788500D01*
X8626786Y-11774214D01*
X8669643Y-11774214D01*
X8698214Y-11788500D01*
X8712500Y-11802786D01*
X8726786Y-11831357D01*
X8726786Y-11917071D01*
X8712500Y-11945643D01*
X8698214Y-11959929D01*
X8669643Y-11974214D01*
X8626786Y-11974214D01*
X8898214Y-11974214D02*
X8869643Y-11959929D01*
X8855357Y-11931357D01*
X8855357Y-11674214D01*
X9126786Y-11959929D02*
X9098214Y-11974214D01*
X9041071Y-11974214D01*
X9012500Y-11959929D01*
X8998214Y-11931357D01*
X8998214Y-11817071D01*
X9012500Y-11788500D01*
X9041071Y-11774214D01*
X9098214Y-11774214D01*
X9126786Y-11788500D01*
X9141071Y-11817071D01*
X9141071Y-11845643D01*
X8998214Y-11874214D01*
X9255357Y-11959929D02*
X9283928Y-11974214D01*
X9341071Y-11974214D01*
X9369643Y-11959929D01*
X9383928Y-11931357D01*
X9383928Y-11917071D01*
X9369643Y-11888500D01*
X9341071Y-11874214D01*
X9298214Y-11874214D01*
X9269643Y-11859929D01*
X9255357Y-11831357D01*
X9255357Y-11817071D01*
X9269643Y-11788500D01*
X9298214Y-11774214D01*
X9341071Y-11774214D01*
X9369643Y-11788500D01*
X9483928Y-12088500D02*
X9498214Y-12074214D01*
X9526786Y-12031357D01*
X9541071Y-12002786D01*
X9555357Y-11959929D01*
X9569643Y-11888500D01*
X9569643Y-11831357D01*
X9555357Y-11759929D01*
X9541071Y-11717071D01*
X9526786Y-11688500D01*
X9498214Y-11645643D01*
X9483928Y-11631357D01*
X10026786Y-12088500D02*
X10012500Y-12074214D01*
X9983928Y-12031357D01*
X9969643Y-12002786D01*
X9955357Y-11959929D01*
X9941071Y-11888500D01*
X9941071Y-11831357D01*
X9955357Y-11759929D01*
X9969643Y-11717071D01*
X9983928Y-11688500D01*
X10012500Y-11645643D01*
X10026786Y-11631357D01*
X10141071Y-11774214D02*
X10141071Y-11974214D01*
X10141071Y-11802786D02*
X10155357Y-11788500D01*
X10183928Y-11774214D01*
X10226786Y-11774214D01*
X10255357Y-11788500D01*
X10269643Y-11817071D01*
X10269643Y-11974214D01*
X10455357Y-11974214D02*
X10426786Y-11959929D01*
X10412500Y-11945643D01*
X10398214Y-11917071D01*
X10398214Y-11831357D01*
X10412500Y-11802786D01*
X10426786Y-11788500D01*
X10455357Y-11774214D01*
X10498214Y-11774214D01*
X10526786Y-11788500D01*
X10541071Y-11802786D01*
X10555357Y-11831357D01*
X10555357Y-11917071D01*
X10541071Y-11945643D01*
X10526786Y-11959929D01*
X10498214Y-11974214D01*
X10455357Y-11974214D01*
X10641071Y-11774214D02*
X10755357Y-11774214D01*
X10683928Y-11674214D02*
X10683928Y-11931357D01*
X10698214Y-11959929D01*
X10726786Y-11974214D01*
X10755357Y-11974214D01*
X11083928Y-11774214D02*
X11083928Y-12074214D01*
X11083928Y-11788500D02*
X11112500Y-11774214D01*
X11169643Y-11774214D01*
X11198214Y-11788500D01*
X11212500Y-11802786D01*
X11226786Y-11831357D01*
X11226786Y-11917071D01*
X11212500Y-11945643D01*
X11198214Y-11959929D01*
X11169643Y-11974214D01*
X11112500Y-11974214D01*
X11083928Y-11959929D01*
X11398214Y-11974214D02*
X11369643Y-11959929D01*
X11355357Y-11931357D01*
X11355357Y-11674214D01*
X11641071Y-11974214D02*
X11641071Y-11817071D01*
X11626786Y-11788500D01*
X11598214Y-11774214D01*
X11541071Y-11774214D01*
X11512500Y-11788500D01*
X11641071Y-11959929D02*
X11612500Y-11974214D01*
X11541071Y-11974214D01*
X11512500Y-11959929D01*
X11498214Y-11931357D01*
X11498214Y-11902786D01*
X11512500Y-11874214D01*
X11541071Y-11859929D01*
X11612500Y-11859929D01*
X11641071Y-11845643D01*
X11741071Y-11774214D02*
X11855357Y-11774214D01*
X11783928Y-11674214D02*
X11783928Y-11931357D01*
X11798214Y-11959929D01*
X11826786Y-11974214D01*
X11855357Y-11974214D01*
X12069643Y-11959929D02*
X12041071Y-11974214D01*
X11983928Y-11974214D01*
X11955357Y-11959929D01*
X11941071Y-11931357D01*
X11941071Y-11817071D01*
X11955357Y-11788500D01*
X11983928Y-11774214D01*
X12041071Y-11774214D01*
X12069643Y-11788500D01*
X12083928Y-11817071D01*
X12083928Y-11845643D01*
X11941071Y-11874214D01*
X12341071Y-11974214D02*
X12341071Y-11674214D01*
X12341071Y-11959929D02*
X12312500Y-11974214D01*
X12255357Y-11974214D01*
X12226786Y-11959929D01*
X12212500Y-11945643D01*
X12198214Y-11917071D01*
X12198214Y-11831357D01*
X12212500Y-11802786D01*
X12226786Y-11788500D01*
X12255357Y-11774214D01*
X12312500Y-11774214D01*
X12341071Y-11788500D01*
X12455357Y-12088500D02*
X12469643Y-12074214D01*
X12498214Y-12031357D01*
X12512500Y-12002786D01*
X12526786Y-11959929D01*
X12541071Y-11888500D01*
X12541071Y-11831357D01*
X12526786Y-11759929D01*
X12512500Y-11717071D01*
X12498214Y-11688500D01*
X12469643Y-11645643D01*
X12455357Y-11631357D01*
M02*
