G04 #@! TF.GenerationSoftware,KiCad,Pcbnew,(5.1.5)-3*
G04 #@! TF.CreationDate,2021-05-19T18:43:05+02:00*
G04 #@! TF.ProjectId,esp12Board,65737031-3242-46f6-9172-642e6b696361,rev?*
G04 #@! TF.SameCoordinates,Original*
G04 #@! TF.FileFunction,Paste,Top*
G04 #@! TF.FilePolarity,Positive*
%FSLAX46Y46*%
G04 Gerber Fmt 4.6, Leading zero omitted, Abs format (unit mm)*
G04 Created by KiCad (PCBNEW (5.1.5)-3) date 2021-05-19 18:43:05*
%MOMM*%
%LPD*%
G04 APERTURE LIST*
%ADD10R,0.900000X0.800000*%
%ADD11C,0.100000*%
%ADD12R,1.500000X2.000000*%
%ADD13R,3.800000X2.000000*%
%ADD14R,1.100000X1.700000*%
%ADD15R,2.000000X1.200000*%
%ADD16R,3.500000X2.950000*%
%ADD17R,1.525000X0.650000*%
%ADD18R,0.900000X1.200000*%
G04 APERTURE END LIST*
D10*
X49500000Y-49000000D03*
X47500000Y-49950000D03*
X47500000Y-48050000D03*
X47500000Y-54500000D03*
X49500000Y-53550000D03*
X49500000Y-55450000D03*
D11*
G36*
X58974505Y-64151204D02*
G01*
X58998773Y-64154804D01*
X59022572Y-64160765D01*
X59045671Y-64169030D01*
X59067850Y-64179520D01*
X59088893Y-64192132D01*
X59108599Y-64206747D01*
X59126777Y-64223223D01*
X59143253Y-64241401D01*
X59157868Y-64261107D01*
X59170480Y-64282150D01*
X59180970Y-64304329D01*
X59189235Y-64327428D01*
X59195196Y-64351227D01*
X59198796Y-64375495D01*
X59200000Y-64399999D01*
X59200000Y-65050001D01*
X59198796Y-65074505D01*
X59195196Y-65098773D01*
X59189235Y-65122572D01*
X59180970Y-65145671D01*
X59170480Y-65167850D01*
X59157868Y-65188893D01*
X59143253Y-65208599D01*
X59126777Y-65226777D01*
X59108599Y-65243253D01*
X59088893Y-65257868D01*
X59067850Y-65270480D01*
X59045671Y-65280970D01*
X59022572Y-65289235D01*
X58998773Y-65295196D01*
X58974505Y-65298796D01*
X58950001Y-65300000D01*
X58049999Y-65300000D01*
X58025495Y-65298796D01*
X58001227Y-65295196D01*
X57977428Y-65289235D01*
X57954329Y-65280970D01*
X57932150Y-65270480D01*
X57911107Y-65257868D01*
X57891401Y-65243253D01*
X57873223Y-65226777D01*
X57856747Y-65208599D01*
X57842132Y-65188893D01*
X57829520Y-65167850D01*
X57819030Y-65145671D01*
X57810765Y-65122572D01*
X57804804Y-65098773D01*
X57801204Y-65074505D01*
X57800000Y-65050001D01*
X57800000Y-64399999D01*
X57801204Y-64375495D01*
X57804804Y-64351227D01*
X57810765Y-64327428D01*
X57819030Y-64304329D01*
X57829520Y-64282150D01*
X57842132Y-64261107D01*
X57856747Y-64241401D01*
X57873223Y-64223223D01*
X57891401Y-64206747D01*
X57911107Y-64192132D01*
X57932150Y-64179520D01*
X57954329Y-64169030D01*
X57977428Y-64160765D01*
X58001227Y-64154804D01*
X58025495Y-64151204D01*
X58049999Y-64150000D01*
X58950001Y-64150000D01*
X58974505Y-64151204D01*
G37*
G36*
X58974505Y-66201204D02*
G01*
X58998773Y-66204804D01*
X59022572Y-66210765D01*
X59045671Y-66219030D01*
X59067850Y-66229520D01*
X59088893Y-66242132D01*
X59108599Y-66256747D01*
X59126777Y-66273223D01*
X59143253Y-66291401D01*
X59157868Y-66311107D01*
X59170480Y-66332150D01*
X59180970Y-66354329D01*
X59189235Y-66377428D01*
X59195196Y-66401227D01*
X59198796Y-66425495D01*
X59200000Y-66449999D01*
X59200000Y-67100001D01*
X59198796Y-67124505D01*
X59195196Y-67148773D01*
X59189235Y-67172572D01*
X59180970Y-67195671D01*
X59170480Y-67217850D01*
X59157868Y-67238893D01*
X59143253Y-67258599D01*
X59126777Y-67276777D01*
X59108599Y-67293253D01*
X59088893Y-67307868D01*
X59067850Y-67320480D01*
X59045671Y-67330970D01*
X59022572Y-67339235D01*
X58998773Y-67345196D01*
X58974505Y-67348796D01*
X58950001Y-67350000D01*
X58049999Y-67350000D01*
X58025495Y-67348796D01*
X58001227Y-67345196D01*
X57977428Y-67339235D01*
X57954329Y-67330970D01*
X57932150Y-67320480D01*
X57911107Y-67307868D01*
X57891401Y-67293253D01*
X57873223Y-67276777D01*
X57856747Y-67258599D01*
X57842132Y-67238893D01*
X57829520Y-67217850D01*
X57819030Y-67195671D01*
X57810765Y-67172572D01*
X57804804Y-67148773D01*
X57801204Y-67124505D01*
X57800000Y-67100001D01*
X57800000Y-66449999D01*
X57801204Y-66425495D01*
X57804804Y-66401227D01*
X57810765Y-66377428D01*
X57819030Y-66354329D01*
X57829520Y-66332150D01*
X57842132Y-66311107D01*
X57856747Y-66291401D01*
X57873223Y-66273223D01*
X57891401Y-66256747D01*
X57911107Y-66242132D01*
X57932150Y-66229520D01*
X57954329Y-66219030D01*
X57977428Y-66210765D01*
X58001227Y-66204804D01*
X58025495Y-66201204D01*
X58049999Y-66200000D01*
X58950001Y-66200000D01*
X58974505Y-66201204D01*
G37*
G36*
X32974505Y-73651204D02*
G01*
X32998773Y-73654804D01*
X33022572Y-73660765D01*
X33045671Y-73669030D01*
X33067850Y-73679520D01*
X33088893Y-73692132D01*
X33108599Y-73706747D01*
X33126777Y-73723223D01*
X33143253Y-73741401D01*
X33157868Y-73761107D01*
X33170480Y-73782150D01*
X33180970Y-73804329D01*
X33189235Y-73827428D01*
X33195196Y-73851227D01*
X33198796Y-73875495D01*
X33200000Y-73899999D01*
X33200000Y-74550001D01*
X33198796Y-74574505D01*
X33195196Y-74598773D01*
X33189235Y-74622572D01*
X33180970Y-74645671D01*
X33170480Y-74667850D01*
X33157868Y-74688893D01*
X33143253Y-74708599D01*
X33126777Y-74726777D01*
X33108599Y-74743253D01*
X33088893Y-74757868D01*
X33067850Y-74770480D01*
X33045671Y-74780970D01*
X33022572Y-74789235D01*
X32998773Y-74795196D01*
X32974505Y-74798796D01*
X32950001Y-74800000D01*
X32049999Y-74800000D01*
X32025495Y-74798796D01*
X32001227Y-74795196D01*
X31977428Y-74789235D01*
X31954329Y-74780970D01*
X31932150Y-74770480D01*
X31911107Y-74757868D01*
X31891401Y-74743253D01*
X31873223Y-74726777D01*
X31856747Y-74708599D01*
X31842132Y-74688893D01*
X31829520Y-74667850D01*
X31819030Y-74645671D01*
X31810765Y-74622572D01*
X31804804Y-74598773D01*
X31801204Y-74574505D01*
X31800000Y-74550001D01*
X31800000Y-73899999D01*
X31801204Y-73875495D01*
X31804804Y-73851227D01*
X31810765Y-73827428D01*
X31819030Y-73804329D01*
X31829520Y-73782150D01*
X31842132Y-73761107D01*
X31856747Y-73741401D01*
X31873223Y-73723223D01*
X31891401Y-73706747D01*
X31911107Y-73692132D01*
X31932150Y-73679520D01*
X31954329Y-73669030D01*
X31977428Y-73660765D01*
X32001227Y-73654804D01*
X32025495Y-73651204D01*
X32049999Y-73650000D01*
X32950001Y-73650000D01*
X32974505Y-73651204D01*
G37*
G36*
X32974505Y-75701204D02*
G01*
X32998773Y-75704804D01*
X33022572Y-75710765D01*
X33045671Y-75719030D01*
X33067850Y-75729520D01*
X33088893Y-75742132D01*
X33108599Y-75756747D01*
X33126777Y-75773223D01*
X33143253Y-75791401D01*
X33157868Y-75811107D01*
X33170480Y-75832150D01*
X33180970Y-75854329D01*
X33189235Y-75877428D01*
X33195196Y-75901227D01*
X33198796Y-75925495D01*
X33200000Y-75949999D01*
X33200000Y-76600001D01*
X33198796Y-76624505D01*
X33195196Y-76648773D01*
X33189235Y-76672572D01*
X33180970Y-76695671D01*
X33170480Y-76717850D01*
X33157868Y-76738893D01*
X33143253Y-76758599D01*
X33126777Y-76776777D01*
X33108599Y-76793253D01*
X33088893Y-76807868D01*
X33067850Y-76820480D01*
X33045671Y-76830970D01*
X33022572Y-76839235D01*
X32998773Y-76845196D01*
X32974505Y-76848796D01*
X32950001Y-76850000D01*
X32049999Y-76850000D01*
X32025495Y-76848796D01*
X32001227Y-76845196D01*
X31977428Y-76839235D01*
X31954329Y-76830970D01*
X31932150Y-76820480D01*
X31911107Y-76807868D01*
X31891401Y-76793253D01*
X31873223Y-76776777D01*
X31856747Y-76758599D01*
X31842132Y-76738893D01*
X31829520Y-76717850D01*
X31819030Y-76695671D01*
X31810765Y-76672572D01*
X31804804Y-76648773D01*
X31801204Y-76624505D01*
X31800000Y-76600001D01*
X31800000Y-75949999D01*
X31801204Y-75925495D01*
X31804804Y-75901227D01*
X31810765Y-75877428D01*
X31819030Y-75854329D01*
X31829520Y-75832150D01*
X31842132Y-75811107D01*
X31856747Y-75791401D01*
X31873223Y-75773223D01*
X31891401Y-75756747D01*
X31911107Y-75742132D01*
X31932150Y-75729520D01*
X31954329Y-75719030D01*
X31977428Y-75710765D01*
X32001227Y-75704804D01*
X32025495Y-75701204D01*
X32049999Y-75700000D01*
X32950001Y-75700000D01*
X32974505Y-75701204D01*
G37*
D12*
X48950000Y-64900000D03*
X53550000Y-64900000D03*
X51250000Y-64900000D03*
D13*
X51250000Y-58600000D03*
D14*
X69500000Y-59750000D03*
X67500000Y-59750000D03*
X65500000Y-59750000D03*
X63500000Y-59750000D03*
X61500000Y-59750000D03*
X59500000Y-59750000D03*
D15*
X72000000Y-44250000D03*
X72000000Y-46250000D03*
X72000000Y-48250000D03*
X72000000Y-50250000D03*
X72000000Y-52250000D03*
X72000000Y-54250000D03*
X72000000Y-56250000D03*
X72000000Y-58250000D03*
X57000000Y-58250000D03*
X57000000Y-56250000D03*
X57000000Y-54250000D03*
X57000000Y-52250000D03*
X57000000Y-50250000D03*
X57000000Y-48250000D03*
X57000000Y-46250000D03*
X57000000Y-44250000D03*
D11*
G36*
X56224505Y-81451204D02*
G01*
X56248773Y-81454804D01*
X56272572Y-81460765D01*
X56295671Y-81469030D01*
X56317850Y-81479520D01*
X56338893Y-81492132D01*
X56358599Y-81506747D01*
X56376777Y-81523223D01*
X56393253Y-81541401D01*
X56407868Y-81561107D01*
X56420480Y-81582150D01*
X56430970Y-81604329D01*
X56439235Y-81627428D01*
X56445196Y-81651227D01*
X56448796Y-81675495D01*
X56450000Y-81699999D01*
X56450000Y-82350001D01*
X56448796Y-82374505D01*
X56445196Y-82398773D01*
X56439235Y-82422572D01*
X56430970Y-82445671D01*
X56420480Y-82467850D01*
X56407868Y-82488893D01*
X56393253Y-82508599D01*
X56376777Y-82526777D01*
X56358599Y-82543253D01*
X56338893Y-82557868D01*
X56317850Y-82570480D01*
X56295671Y-82580970D01*
X56272572Y-82589235D01*
X56248773Y-82595196D01*
X56224505Y-82598796D01*
X56200001Y-82600000D01*
X55299999Y-82600000D01*
X55275495Y-82598796D01*
X55251227Y-82595196D01*
X55227428Y-82589235D01*
X55204329Y-82580970D01*
X55182150Y-82570480D01*
X55161107Y-82557868D01*
X55141401Y-82543253D01*
X55123223Y-82526777D01*
X55106747Y-82508599D01*
X55092132Y-82488893D01*
X55079520Y-82467850D01*
X55069030Y-82445671D01*
X55060765Y-82422572D01*
X55054804Y-82398773D01*
X55051204Y-82374505D01*
X55050000Y-82350001D01*
X55050000Y-81699999D01*
X55051204Y-81675495D01*
X55054804Y-81651227D01*
X55060765Y-81627428D01*
X55069030Y-81604329D01*
X55079520Y-81582150D01*
X55092132Y-81561107D01*
X55106747Y-81541401D01*
X55123223Y-81523223D01*
X55141401Y-81506747D01*
X55161107Y-81492132D01*
X55182150Y-81479520D01*
X55204329Y-81469030D01*
X55227428Y-81460765D01*
X55251227Y-81454804D01*
X55275495Y-81451204D01*
X55299999Y-81450000D01*
X56200001Y-81450000D01*
X56224505Y-81451204D01*
G37*
G36*
X56224505Y-79401204D02*
G01*
X56248773Y-79404804D01*
X56272572Y-79410765D01*
X56295671Y-79419030D01*
X56317850Y-79429520D01*
X56338893Y-79442132D01*
X56358599Y-79456747D01*
X56376777Y-79473223D01*
X56393253Y-79491401D01*
X56407868Y-79511107D01*
X56420480Y-79532150D01*
X56430970Y-79554329D01*
X56439235Y-79577428D01*
X56445196Y-79601227D01*
X56448796Y-79625495D01*
X56450000Y-79649999D01*
X56450000Y-80300001D01*
X56448796Y-80324505D01*
X56445196Y-80348773D01*
X56439235Y-80372572D01*
X56430970Y-80395671D01*
X56420480Y-80417850D01*
X56407868Y-80438893D01*
X56393253Y-80458599D01*
X56376777Y-80476777D01*
X56358599Y-80493253D01*
X56338893Y-80507868D01*
X56317850Y-80520480D01*
X56295671Y-80530970D01*
X56272572Y-80539235D01*
X56248773Y-80545196D01*
X56224505Y-80548796D01*
X56200001Y-80550000D01*
X55299999Y-80550000D01*
X55275495Y-80548796D01*
X55251227Y-80545196D01*
X55227428Y-80539235D01*
X55204329Y-80530970D01*
X55182150Y-80520480D01*
X55161107Y-80507868D01*
X55141401Y-80493253D01*
X55123223Y-80476777D01*
X55106747Y-80458599D01*
X55092132Y-80438893D01*
X55079520Y-80417850D01*
X55069030Y-80395671D01*
X55060765Y-80372572D01*
X55054804Y-80348773D01*
X55051204Y-80324505D01*
X55050000Y-80300001D01*
X55050000Y-79649999D01*
X55051204Y-79625495D01*
X55054804Y-79601227D01*
X55060765Y-79577428D01*
X55069030Y-79554329D01*
X55079520Y-79532150D01*
X55092132Y-79511107D01*
X55106747Y-79491401D01*
X55123223Y-79473223D01*
X55141401Y-79456747D01*
X55161107Y-79442132D01*
X55182150Y-79429520D01*
X55204329Y-79419030D01*
X55227428Y-79410765D01*
X55251227Y-79404804D01*
X55275495Y-79401204D01*
X55299999Y-79400000D01*
X56200001Y-79400000D01*
X56224505Y-79401204D01*
G37*
G36*
X56474505Y-74651204D02*
G01*
X56498773Y-74654804D01*
X56522572Y-74660765D01*
X56545671Y-74669030D01*
X56567850Y-74679520D01*
X56588893Y-74692132D01*
X56608599Y-74706747D01*
X56626777Y-74723223D01*
X56643253Y-74741401D01*
X56657868Y-74761107D01*
X56670480Y-74782150D01*
X56680970Y-74804329D01*
X56689235Y-74827428D01*
X56695196Y-74851227D01*
X56698796Y-74875495D01*
X56700000Y-74899999D01*
X56700000Y-75550001D01*
X56698796Y-75574505D01*
X56695196Y-75598773D01*
X56689235Y-75622572D01*
X56680970Y-75645671D01*
X56670480Y-75667850D01*
X56657868Y-75688893D01*
X56643253Y-75708599D01*
X56626777Y-75726777D01*
X56608599Y-75743253D01*
X56588893Y-75757868D01*
X56567850Y-75770480D01*
X56545671Y-75780970D01*
X56522572Y-75789235D01*
X56498773Y-75795196D01*
X56474505Y-75798796D01*
X56450001Y-75800000D01*
X55549999Y-75800000D01*
X55525495Y-75798796D01*
X55501227Y-75795196D01*
X55477428Y-75789235D01*
X55454329Y-75780970D01*
X55432150Y-75770480D01*
X55411107Y-75757868D01*
X55391401Y-75743253D01*
X55373223Y-75726777D01*
X55356747Y-75708599D01*
X55342132Y-75688893D01*
X55329520Y-75667850D01*
X55319030Y-75645671D01*
X55310765Y-75622572D01*
X55304804Y-75598773D01*
X55301204Y-75574505D01*
X55300000Y-75550001D01*
X55300000Y-74899999D01*
X55301204Y-74875495D01*
X55304804Y-74851227D01*
X55310765Y-74827428D01*
X55319030Y-74804329D01*
X55329520Y-74782150D01*
X55342132Y-74761107D01*
X55356747Y-74741401D01*
X55373223Y-74723223D01*
X55391401Y-74706747D01*
X55411107Y-74692132D01*
X55432150Y-74679520D01*
X55454329Y-74669030D01*
X55477428Y-74660765D01*
X55501227Y-74654804D01*
X55525495Y-74651204D01*
X55549999Y-74650000D01*
X56450001Y-74650000D01*
X56474505Y-74651204D01*
G37*
G36*
X56474505Y-76701204D02*
G01*
X56498773Y-76704804D01*
X56522572Y-76710765D01*
X56545671Y-76719030D01*
X56567850Y-76729520D01*
X56588893Y-76742132D01*
X56608599Y-76756747D01*
X56626777Y-76773223D01*
X56643253Y-76791401D01*
X56657868Y-76811107D01*
X56670480Y-76832150D01*
X56680970Y-76854329D01*
X56689235Y-76877428D01*
X56695196Y-76901227D01*
X56698796Y-76925495D01*
X56700000Y-76949999D01*
X56700000Y-77600001D01*
X56698796Y-77624505D01*
X56695196Y-77648773D01*
X56689235Y-77672572D01*
X56680970Y-77695671D01*
X56670480Y-77717850D01*
X56657868Y-77738893D01*
X56643253Y-77758599D01*
X56626777Y-77776777D01*
X56608599Y-77793253D01*
X56588893Y-77807868D01*
X56567850Y-77820480D01*
X56545671Y-77830970D01*
X56522572Y-77839235D01*
X56498773Y-77845196D01*
X56474505Y-77848796D01*
X56450001Y-77850000D01*
X55549999Y-77850000D01*
X55525495Y-77848796D01*
X55501227Y-77845196D01*
X55477428Y-77839235D01*
X55454329Y-77830970D01*
X55432150Y-77820480D01*
X55411107Y-77807868D01*
X55391401Y-77793253D01*
X55373223Y-77776777D01*
X55356747Y-77758599D01*
X55342132Y-77738893D01*
X55329520Y-77717850D01*
X55319030Y-77695671D01*
X55310765Y-77672572D01*
X55304804Y-77648773D01*
X55301204Y-77624505D01*
X55300000Y-77600001D01*
X55300000Y-76949999D01*
X55301204Y-76925495D01*
X55304804Y-76901227D01*
X55310765Y-76877428D01*
X55319030Y-76854329D01*
X55329520Y-76832150D01*
X55342132Y-76811107D01*
X55356747Y-76791401D01*
X55373223Y-76773223D01*
X55391401Y-76756747D01*
X55411107Y-76742132D01*
X55432150Y-76729520D01*
X55454329Y-76719030D01*
X55477428Y-76710765D01*
X55501227Y-76704804D01*
X55525495Y-76701204D01*
X55549999Y-76700000D01*
X56450001Y-76700000D01*
X56474505Y-76701204D01*
G37*
G36*
X56474505Y-70151204D02*
G01*
X56498773Y-70154804D01*
X56522572Y-70160765D01*
X56545671Y-70169030D01*
X56567850Y-70179520D01*
X56588893Y-70192132D01*
X56608599Y-70206747D01*
X56626777Y-70223223D01*
X56643253Y-70241401D01*
X56657868Y-70261107D01*
X56670480Y-70282150D01*
X56680970Y-70304329D01*
X56689235Y-70327428D01*
X56695196Y-70351227D01*
X56698796Y-70375495D01*
X56700000Y-70399999D01*
X56700000Y-71050001D01*
X56698796Y-71074505D01*
X56695196Y-71098773D01*
X56689235Y-71122572D01*
X56680970Y-71145671D01*
X56670480Y-71167850D01*
X56657868Y-71188893D01*
X56643253Y-71208599D01*
X56626777Y-71226777D01*
X56608599Y-71243253D01*
X56588893Y-71257868D01*
X56567850Y-71270480D01*
X56545671Y-71280970D01*
X56522572Y-71289235D01*
X56498773Y-71295196D01*
X56474505Y-71298796D01*
X56450001Y-71300000D01*
X55549999Y-71300000D01*
X55525495Y-71298796D01*
X55501227Y-71295196D01*
X55477428Y-71289235D01*
X55454329Y-71280970D01*
X55432150Y-71270480D01*
X55411107Y-71257868D01*
X55391401Y-71243253D01*
X55373223Y-71226777D01*
X55356747Y-71208599D01*
X55342132Y-71188893D01*
X55329520Y-71167850D01*
X55319030Y-71145671D01*
X55310765Y-71122572D01*
X55304804Y-71098773D01*
X55301204Y-71074505D01*
X55300000Y-71050001D01*
X55300000Y-70399999D01*
X55301204Y-70375495D01*
X55304804Y-70351227D01*
X55310765Y-70327428D01*
X55319030Y-70304329D01*
X55329520Y-70282150D01*
X55342132Y-70261107D01*
X55356747Y-70241401D01*
X55373223Y-70223223D01*
X55391401Y-70206747D01*
X55411107Y-70192132D01*
X55432150Y-70179520D01*
X55454329Y-70169030D01*
X55477428Y-70160765D01*
X55501227Y-70154804D01*
X55525495Y-70151204D01*
X55549999Y-70150000D01*
X56450001Y-70150000D01*
X56474505Y-70151204D01*
G37*
G36*
X56474505Y-72201204D02*
G01*
X56498773Y-72204804D01*
X56522572Y-72210765D01*
X56545671Y-72219030D01*
X56567850Y-72229520D01*
X56588893Y-72242132D01*
X56608599Y-72256747D01*
X56626777Y-72273223D01*
X56643253Y-72291401D01*
X56657868Y-72311107D01*
X56670480Y-72332150D01*
X56680970Y-72354329D01*
X56689235Y-72377428D01*
X56695196Y-72401227D01*
X56698796Y-72425495D01*
X56700000Y-72449999D01*
X56700000Y-73100001D01*
X56698796Y-73124505D01*
X56695196Y-73148773D01*
X56689235Y-73172572D01*
X56680970Y-73195671D01*
X56670480Y-73217850D01*
X56657868Y-73238893D01*
X56643253Y-73258599D01*
X56626777Y-73276777D01*
X56608599Y-73293253D01*
X56588893Y-73307868D01*
X56567850Y-73320480D01*
X56545671Y-73330970D01*
X56522572Y-73339235D01*
X56498773Y-73345196D01*
X56474505Y-73348796D01*
X56450001Y-73350000D01*
X55549999Y-73350000D01*
X55525495Y-73348796D01*
X55501227Y-73345196D01*
X55477428Y-73339235D01*
X55454329Y-73330970D01*
X55432150Y-73320480D01*
X55411107Y-73307868D01*
X55391401Y-73293253D01*
X55373223Y-73276777D01*
X55356747Y-73258599D01*
X55342132Y-73238893D01*
X55329520Y-73217850D01*
X55319030Y-73195671D01*
X55310765Y-73172572D01*
X55304804Y-73148773D01*
X55301204Y-73124505D01*
X55300000Y-73100001D01*
X55300000Y-72449999D01*
X55301204Y-72425495D01*
X55304804Y-72401227D01*
X55310765Y-72377428D01*
X55319030Y-72354329D01*
X55329520Y-72332150D01*
X55342132Y-72311107D01*
X55356747Y-72291401D01*
X55373223Y-72273223D01*
X55391401Y-72256747D01*
X55411107Y-72242132D01*
X55432150Y-72229520D01*
X55454329Y-72219030D01*
X55477428Y-72210765D01*
X55501227Y-72204804D01*
X55525495Y-72201204D01*
X55549999Y-72200000D01*
X56450001Y-72200000D01*
X56474505Y-72201204D01*
G37*
G36*
X51324505Y-81551204D02*
G01*
X51348773Y-81554804D01*
X51372572Y-81560765D01*
X51395671Y-81569030D01*
X51417850Y-81579520D01*
X51438893Y-81592132D01*
X51458599Y-81606747D01*
X51476777Y-81623223D01*
X51493253Y-81641401D01*
X51507868Y-81661107D01*
X51520480Y-81682150D01*
X51530970Y-81704329D01*
X51539235Y-81727428D01*
X51545196Y-81751227D01*
X51548796Y-81775495D01*
X51550000Y-81799999D01*
X51550000Y-82700001D01*
X51548796Y-82724505D01*
X51545196Y-82748773D01*
X51539235Y-82772572D01*
X51530970Y-82795671D01*
X51520480Y-82817850D01*
X51507868Y-82838893D01*
X51493253Y-82858599D01*
X51476777Y-82876777D01*
X51458599Y-82893253D01*
X51438893Y-82907868D01*
X51417850Y-82920480D01*
X51395671Y-82930970D01*
X51372572Y-82939235D01*
X51348773Y-82945196D01*
X51324505Y-82948796D01*
X51300001Y-82950000D01*
X50649999Y-82950000D01*
X50625495Y-82948796D01*
X50601227Y-82945196D01*
X50577428Y-82939235D01*
X50554329Y-82930970D01*
X50532150Y-82920480D01*
X50511107Y-82907868D01*
X50491401Y-82893253D01*
X50473223Y-82876777D01*
X50456747Y-82858599D01*
X50442132Y-82838893D01*
X50429520Y-82817850D01*
X50419030Y-82795671D01*
X50410765Y-82772572D01*
X50404804Y-82748773D01*
X50401204Y-82724505D01*
X50400000Y-82700001D01*
X50400000Y-81799999D01*
X50401204Y-81775495D01*
X50404804Y-81751227D01*
X50410765Y-81727428D01*
X50419030Y-81704329D01*
X50429520Y-81682150D01*
X50442132Y-81661107D01*
X50456747Y-81641401D01*
X50473223Y-81623223D01*
X50491401Y-81606747D01*
X50511107Y-81592132D01*
X50532150Y-81579520D01*
X50554329Y-81569030D01*
X50577428Y-81560765D01*
X50601227Y-81554804D01*
X50625495Y-81551204D01*
X50649999Y-81550000D01*
X51300001Y-81550000D01*
X51324505Y-81551204D01*
G37*
G36*
X53374505Y-81551204D02*
G01*
X53398773Y-81554804D01*
X53422572Y-81560765D01*
X53445671Y-81569030D01*
X53467850Y-81579520D01*
X53488893Y-81592132D01*
X53508599Y-81606747D01*
X53526777Y-81623223D01*
X53543253Y-81641401D01*
X53557868Y-81661107D01*
X53570480Y-81682150D01*
X53580970Y-81704329D01*
X53589235Y-81727428D01*
X53595196Y-81751227D01*
X53598796Y-81775495D01*
X53600000Y-81799999D01*
X53600000Y-82700001D01*
X53598796Y-82724505D01*
X53595196Y-82748773D01*
X53589235Y-82772572D01*
X53580970Y-82795671D01*
X53570480Y-82817850D01*
X53557868Y-82838893D01*
X53543253Y-82858599D01*
X53526777Y-82876777D01*
X53508599Y-82893253D01*
X53488893Y-82907868D01*
X53467850Y-82920480D01*
X53445671Y-82930970D01*
X53422572Y-82939235D01*
X53398773Y-82945196D01*
X53374505Y-82948796D01*
X53350001Y-82950000D01*
X52699999Y-82950000D01*
X52675495Y-82948796D01*
X52651227Y-82945196D01*
X52627428Y-82939235D01*
X52604329Y-82930970D01*
X52582150Y-82920480D01*
X52561107Y-82907868D01*
X52541401Y-82893253D01*
X52523223Y-82876777D01*
X52506747Y-82858599D01*
X52492132Y-82838893D01*
X52479520Y-82817850D01*
X52469030Y-82795671D01*
X52460765Y-82772572D01*
X52454804Y-82748773D01*
X52451204Y-82724505D01*
X52450000Y-82700001D01*
X52450000Y-81799999D01*
X52451204Y-81775495D01*
X52454804Y-81751227D01*
X52460765Y-81727428D01*
X52469030Y-81704329D01*
X52479520Y-81682150D01*
X52492132Y-81661107D01*
X52506747Y-81641401D01*
X52523223Y-81623223D01*
X52541401Y-81606747D01*
X52561107Y-81592132D01*
X52582150Y-81579520D01*
X52604329Y-81569030D01*
X52627428Y-81560765D01*
X52651227Y-81554804D01*
X52675495Y-81551204D01*
X52699999Y-81550000D01*
X53350001Y-81550000D01*
X53374505Y-81551204D01*
G37*
G36*
X75474505Y-58701204D02*
G01*
X75498773Y-58704804D01*
X75522572Y-58710765D01*
X75545671Y-58719030D01*
X75567850Y-58729520D01*
X75588893Y-58742132D01*
X75608599Y-58756747D01*
X75626777Y-58773223D01*
X75643253Y-58791401D01*
X75657868Y-58811107D01*
X75670480Y-58832150D01*
X75680970Y-58854329D01*
X75689235Y-58877428D01*
X75695196Y-58901227D01*
X75698796Y-58925495D01*
X75700000Y-58949999D01*
X75700000Y-59600001D01*
X75698796Y-59624505D01*
X75695196Y-59648773D01*
X75689235Y-59672572D01*
X75680970Y-59695671D01*
X75670480Y-59717850D01*
X75657868Y-59738893D01*
X75643253Y-59758599D01*
X75626777Y-59776777D01*
X75608599Y-59793253D01*
X75588893Y-59807868D01*
X75567850Y-59820480D01*
X75545671Y-59830970D01*
X75522572Y-59839235D01*
X75498773Y-59845196D01*
X75474505Y-59848796D01*
X75450001Y-59850000D01*
X74549999Y-59850000D01*
X74525495Y-59848796D01*
X74501227Y-59845196D01*
X74477428Y-59839235D01*
X74454329Y-59830970D01*
X74432150Y-59820480D01*
X74411107Y-59807868D01*
X74391401Y-59793253D01*
X74373223Y-59776777D01*
X74356747Y-59758599D01*
X74342132Y-59738893D01*
X74329520Y-59717850D01*
X74319030Y-59695671D01*
X74310765Y-59672572D01*
X74304804Y-59648773D01*
X74301204Y-59624505D01*
X74300000Y-59600001D01*
X74300000Y-58949999D01*
X74301204Y-58925495D01*
X74304804Y-58901227D01*
X74310765Y-58877428D01*
X74319030Y-58854329D01*
X74329520Y-58832150D01*
X74342132Y-58811107D01*
X74356747Y-58791401D01*
X74373223Y-58773223D01*
X74391401Y-58756747D01*
X74411107Y-58742132D01*
X74432150Y-58729520D01*
X74454329Y-58719030D01*
X74477428Y-58710765D01*
X74501227Y-58704804D01*
X74525495Y-58701204D01*
X74549999Y-58700000D01*
X75450001Y-58700000D01*
X75474505Y-58701204D01*
G37*
G36*
X75474505Y-56651204D02*
G01*
X75498773Y-56654804D01*
X75522572Y-56660765D01*
X75545671Y-56669030D01*
X75567850Y-56679520D01*
X75588893Y-56692132D01*
X75608599Y-56706747D01*
X75626777Y-56723223D01*
X75643253Y-56741401D01*
X75657868Y-56761107D01*
X75670480Y-56782150D01*
X75680970Y-56804329D01*
X75689235Y-56827428D01*
X75695196Y-56851227D01*
X75698796Y-56875495D01*
X75700000Y-56899999D01*
X75700000Y-57550001D01*
X75698796Y-57574505D01*
X75695196Y-57598773D01*
X75689235Y-57622572D01*
X75680970Y-57645671D01*
X75670480Y-57667850D01*
X75657868Y-57688893D01*
X75643253Y-57708599D01*
X75626777Y-57726777D01*
X75608599Y-57743253D01*
X75588893Y-57757868D01*
X75567850Y-57770480D01*
X75545671Y-57780970D01*
X75522572Y-57789235D01*
X75498773Y-57795196D01*
X75474505Y-57798796D01*
X75450001Y-57800000D01*
X74549999Y-57800000D01*
X74525495Y-57798796D01*
X74501227Y-57795196D01*
X74477428Y-57789235D01*
X74454329Y-57780970D01*
X74432150Y-57770480D01*
X74411107Y-57757868D01*
X74391401Y-57743253D01*
X74373223Y-57726777D01*
X74356747Y-57708599D01*
X74342132Y-57688893D01*
X74329520Y-57667850D01*
X74319030Y-57645671D01*
X74310765Y-57622572D01*
X74304804Y-57598773D01*
X74301204Y-57574505D01*
X74300000Y-57550001D01*
X74300000Y-56899999D01*
X74301204Y-56875495D01*
X74304804Y-56851227D01*
X74310765Y-56827428D01*
X74319030Y-56804329D01*
X74329520Y-56782150D01*
X74342132Y-56761107D01*
X74356747Y-56741401D01*
X74373223Y-56723223D01*
X74391401Y-56706747D01*
X74411107Y-56692132D01*
X74432150Y-56679520D01*
X74454329Y-56669030D01*
X74477428Y-56660765D01*
X74501227Y-56654804D01*
X74525495Y-56651204D01*
X74549999Y-56650000D01*
X75450001Y-56650000D01*
X75474505Y-56651204D01*
G37*
G36*
X42574505Y-45551204D02*
G01*
X42598773Y-45554804D01*
X42622572Y-45560765D01*
X42645671Y-45569030D01*
X42667850Y-45579520D01*
X42688893Y-45592132D01*
X42708599Y-45606747D01*
X42726777Y-45623223D01*
X42743253Y-45641401D01*
X42757868Y-45661107D01*
X42770480Y-45682150D01*
X42780970Y-45704329D01*
X42789235Y-45727428D01*
X42795196Y-45751227D01*
X42798796Y-45775495D01*
X42800000Y-45799999D01*
X42800000Y-46700001D01*
X42798796Y-46724505D01*
X42795196Y-46748773D01*
X42789235Y-46772572D01*
X42780970Y-46795671D01*
X42770480Y-46817850D01*
X42757868Y-46838893D01*
X42743253Y-46858599D01*
X42726777Y-46876777D01*
X42708599Y-46893253D01*
X42688893Y-46907868D01*
X42667850Y-46920480D01*
X42645671Y-46930970D01*
X42622572Y-46939235D01*
X42598773Y-46945196D01*
X42574505Y-46948796D01*
X42550001Y-46950000D01*
X41899999Y-46950000D01*
X41875495Y-46948796D01*
X41851227Y-46945196D01*
X41827428Y-46939235D01*
X41804329Y-46930970D01*
X41782150Y-46920480D01*
X41761107Y-46907868D01*
X41741401Y-46893253D01*
X41723223Y-46876777D01*
X41706747Y-46858599D01*
X41692132Y-46838893D01*
X41679520Y-46817850D01*
X41669030Y-46795671D01*
X41660765Y-46772572D01*
X41654804Y-46748773D01*
X41651204Y-46724505D01*
X41650000Y-46700001D01*
X41650000Y-45799999D01*
X41651204Y-45775495D01*
X41654804Y-45751227D01*
X41660765Y-45727428D01*
X41669030Y-45704329D01*
X41679520Y-45682150D01*
X41692132Y-45661107D01*
X41706747Y-45641401D01*
X41723223Y-45623223D01*
X41741401Y-45606747D01*
X41761107Y-45592132D01*
X41782150Y-45579520D01*
X41804329Y-45569030D01*
X41827428Y-45560765D01*
X41851227Y-45554804D01*
X41875495Y-45551204D01*
X41899999Y-45550000D01*
X42550001Y-45550000D01*
X42574505Y-45551204D01*
G37*
G36*
X44624505Y-45551204D02*
G01*
X44648773Y-45554804D01*
X44672572Y-45560765D01*
X44695671Y-45569030D01*
X44717850Y-45579520D01*
X44738893Y-45592132D01*
X44758599Y-45606747D01*
X44776777Y-45623223D01*
X44793253Y-45641401D01*
X44807868Y-45661107D01*
X44820480Y-45682150D01*
X44830970Y-45704329D01*
X44839235Y-45727428D01*
X44845196Y-45751227D01*
X44848796Y-45775495D01*
X44850000Y-45799999D01*
X44850000Y-46700001D01*
X44848796Y-46724505D01*
X44845196Y-46748773D01*
X44839235Y-46772572D01*
X44830970Y-46795671D01*
X44820480Y-46817850D01*
X44807868Y-46838893D01*
X44793253Y-46858599D01*
X44776777Y-46876777D01*
X44758599Y-46893253D01*
X44738893Y-46907868D01*
X44717850Y-46920480D01*
X44695671Y-46930970D01*
X44672572Y-46939235D01*
X44648773Y-46945196D01*
X44624505Y-46948796D01*
X44600001Y-46950000D01*
X43949999Y-46950000D01*
X43925495Y-46948796D01*
X43901227Y-46945196D01*
X43877428Y-46939235D01*
X43854329Y-46930970D01*
X43832150Y-46920480D01*
X43811107Y-46907868D01*
X43791401Y-46893253D01*
X43773223Y-46876777D01*
X43756747Y-46858599D01*
X43742132Y-46838893D01*
X43729520Y-46817850D01*
X43719030Y-46795671D01*
X43710765Y-46772572D01*
X43704804Y-46748773D01*
X43701204Y-46724505D01*
X43700000Y-46700001D01*
X43700000Y-45799999D01*
X43701204Y-45775495D01*
X43704804Y-45751227D01*
X43710765Y-45727428D01*
X43719030Y-45704329D01*
X43729520Y-45682150D01*
X43742132Y-45661107D01*
X43756747Y-45641401D01*
X43773223Y-45623223D01*
X43791401Y-45606747D01*
X43811107Y-45592132D01*
X43832150Y-45579520D01*
X43854329Y-45569030D01*
X43877428Y-45560765D01*
X43901227Y-45554804D01*
X43925495Y-45551204D01*
X43949999Y-45550000D01*
X44600001Y-45550000D01*
X44624505Y-45551204D01*
G37*
G36*
X45474505Y-49901204D02*
G01*
X45498773Y-49904804D01*
X45522572Y-49910765D01*
X45545671Y-49919030D01*
X45567850Y-49929520D01*
X45588893Y-49942132D01*
X45608599Y-49956747D01*
X45626777Y-49973223D01*
X45643253Y-49991401D01*
X45657868Y-50011107D01*
X45670480Y-50032150D01*
X45680970Y-50054329D01*
X45689235Y-50077428D01*
X45695196Y-50101227D01*
X45698796Y-50125495D01*
X45700000Y-50149999D01*
X45700000Y-50800001D01*
X45698796Y-50824505D01*
X45695196Y-50848773D01*
X45689235Y-50872572D01*
X45680970Y-50895671D01*
X45670480Y-50917850D01*
X45657868Y-50938893D01*
X45643253Y-50958599D01*
X45626777Y-50976777D01*
X45608599Y-50993253D01*
X45588893Y-51007868D01*
X45567850Y-51020480D01*
X45545671Y-51030970D01*
X45522572Y-51039235D01*
X45498773Y-51045196D01*
X45474505Y-51048796D01*
X45450001Y-51050000D01*
X44549999Y-51050000D01*
X44525495Y-51048796D01*
X44501227Y-51045196D01*
X44477428Y-51039235D01*
X44454329Y-51030970D01*
X44432150Y-51020480D01*
X44411107Y-51007868D01*
X44391401Y-50993253D01*
X44373223Y-50976777D01*
X44356747Y-50958599D01*
X44342132Y-50938893D01*
X44329520Y-50917850D01*
X44319030Y-50895671D01*
X44310765Y-50872572D01*
X44304804Y-50848773D01*
X44301204Y-50824505D01*
X44300000Y-50800001D01*
X44300000Y-50149999D01*
X44301204Y-50125495D01*
X44304804Y-50101227D01*
X44310765Y-50077428D01*
X44319030Y-50054329D01*
X44329520Y-50032150D01*
X44342132Y-50011107D01*
X44356747Y-49991401D01*
X44373223Y-49973223D01*
X44391401Y-49956747D01*
X44411107Y-49942132D01*
X44432150Y-49929520D01*
X44454329Y-49919030D01*
X44477428Y-49910765D01*
X44501227Y-49904804D01*
X44525495Y-49901204D01*
X44549999Y-49900000D01*
X45450001Y-49900000D01*
X45474505Y-49901204D01*
G37*
G36*
X45474505Y-51951204D02*
G01*
X45498773Y-51954804D01*
X45522572Y-51960765D01*
X45545671Y-51969030D01*
X45567850Y-51979520D01*
X45588893Y-51992132D01*
X45608599Y-52006747D01*
X45626777Y-52023223D01*
X45643253Y-52041401D01*
X45657868Y-52061107D01*
X45670480Y-52082150D01*
X45680970Y-52104329D01*
X45689235Y-52127428D01*
X45695196Y-52151227D01*
X45698796Y-52175495D01*
X45700000Y-52199999D01*
X45700000Y-52850001D01*
X45698796Y-52874505D01*
X45695196Y-52898773D01*
X45689235Y-52922572D01*
X45680970Y-52945671D01*
X45670480Y-52967850D01*
X45657868Y-52988893D01*
X45643253Y-53008599D01*
X45626777Y-53026777D01*
X45608599Y-53043253D01*
X45588893Y-53057868D01*
X45567850Y-53070480D01*
X45545671Y-53080970D01*
X45522572Y-53089235D01*
X45498773Y-53095196D01*
X45474505Y-53098796D01*
X45450001Y-53100000D01*
X44549999Y-53100000D01*
X44525495Y-53098796D01*
X44501227Y-53095196D01*
X44477428Y-53089235D01*
X44454329Y-53080970D01*
X44432150Y-53070480D01*
X44411107Y-53057868D01*
X44391401Y-53043253D01*
X44373223Y-53026777D01*
X44356747Y-53008599D01*
X44342132Y-52988893D01*
X44329520Y-52967850D01*
X44319030Y-52945671D01*
X44310765Y-52922572D01*
X44304804Y-52898773D01*
X44301204Y-52874505D01*
X44300000Y-52850001D01*
X44300000Y-52199999D01*
X44301204Y-52175495D01*
X44304804Y-52151227D01*
X44310765Y-52127428D01*
X44319030Y-52104329D01*
X44329520Y-52082150D01*
X44342132Y-52061107D01*
X44356747Y-52041401D01*
X44373223Y-52023223D01*
X44391401Y-52006747D01*
X44411107Y-51992132D01*
X44432150Y-51979520D01*
X44454329Y-51969030D01*
X44477428Y-51960765D01*
X44501227Y-51954804D01*
X44525495Y-51951204D01*
X44549999Y-51950000D01*
X45450001Y-51950000D01*
X45474505Y-51951204D01*
G37*
G36*
X52474505Y-55201204D02*
G01*
X52498773Y-55204804D01*
X52522572Y-55210765D01*
X52545671Y-55219030D01*
X52567850Y-55229520D01*
X52588893Y-55242132D01*
X52608599Y-55256747D01*
X52626777Y-55273223D01*
X52643253Y-55291401D01*
X52657868Y-55311107D01*
X52670480Y-55332150D01*
X52680970Y-55354329D01*
X52689235Y-55377428D01*
X52695196Y-55401227D01*
X52698796Y-55425495D01*
X52700000Y-55449999D01*
X52700000Y-56100001D01*
X52698796Y-56124505D01*
X52695196Y-56148773D01*
X52689235Y-56172572D01*
X52680970Y-56195671D01*
X52670480Y-56217850D01*
X52657868Y-56238893D01*
X52643253Y-56258599D01*
X52626777Y-56276777D01*
X52608599Y-56293253D01*
X52588893Y-56307868D01*
X52567850Y-56320480D01*
X52545671Y-56330970D01*
X52522572Y-56339235D01*
X52498773Y-56345196D01*
X52474505Y-56348796D01*
X52450001Y-56350000D01*
X51549999Y-56350000D01*
X51525495Y-56348796D01*
X51501227Y-56345196D01*
X51477428Y-56339235D01*
X51454329Y-56330970D01*
X51432150Y-56320480D01*
X51411107Y-56307868D01*
X51391401Y-56293253D01*
X51373223Y-56276777D01*
X51356747Y-56258599D01*
X51342132Y-56238893D01*
X51329520Y-56217850D01*
X51319030Y-56195671D01*
X51310765Y-56172572D01*
X51304804Y-56148773D01*
X51301204Y-56124505D01*
X51300000Y-56100001D01*
X51300000Y-55449999D01*
X51301204Y-55425495D01*
X51304804Y-55401227D01*
X51310765Y-55377428D01*
X51319030Y-55354329D01*
X51329520Y-55332150D01*
X51342132Y-55311107D01*
X51356747Y-55291401D01*
X51373223Y-55273223D01*
X51391401Y-55256747D01*
X51411107Y-55242132D01*
X51432150Y-55229520D01*
X51454329Y-55219030D01*
X51477428Y-55210765D01*
X51501227Y-55204804D01*
X51525495Y-55201204D01*
X51549999Y-55200000D01*
X52450001Y-55200000D01*
X52474505Y-55201204D01*
G37*
G36*
X52474505Y-53151204D02*
G01*
X52498773Y-53154804D01*
X52522572Y-53160765D01*
X52545671Y-53169030D01*
X52567850Y-53179520D01*
X52588893Y-53192132D01*
X52608599Y-53206747D01*
X52626777Y-53223223D01*
X52643253Y-53241401D01*
X52657868Y-53261107D01*
X52670480Y-53282150D01*
X52680970Y-53304329D01*
X52689235Y-53327428D01*
X52695196Y-53351227D01*
X52698796Y-53375495D01*
X52700000Y-53399999D01*
X52700000Y-54050001D01*
X52698796Y-54074505D01*
X52695196Y-54098773D01*
X52689235Y-54122572D01*
X52680970Y-54145671D01*
X52670480Y-54167850D01*
X52657868Y-54188893D01*
X52643253Y-54208599D01*
X52626777Y-54226777D01*
X52608599Y-54243253D01*
X52588893Y-54257868D01*
X52567850Y-54270480D01*
X52545671Y-54280970D01*
X52522572Y-54289235D01*
X52498773Y-54295196D01*
X52474505Y-54298796D01*
X52450001Y-54300000D01*
X51549999Y-54300000D01*
X51525495Y-54298796D01*
X51501227Y-54295196D01*
X51477428Y-54289235D01*
X51454329Y-54280970D01*
X51432150Y-54270480D01*
X51411107Y-54257868D01*
X51391401Y-54243253D01*
X51373223Y-54226777D01*
X51356747Y-54208599D01*
X51342132Y-54188893D01*
X51329520Y-54167850D01*
X51319030Y-54145671D01*
X51310765Y-54122572D01*
X51304804Y-54098773D01*
X51301204Y-54074505D01*
X51300000Y-54050001D01*
X51300000Y-53399999D01*
X51301204Y-53375495D01*
X51304804Y-53351227D01*
X51310765Y-53327428D01*
X51319030Y-53304329D01*
X51329520Y-53282150D01*
X51342132Y-53261107D01*
X51356747Y-53241401D01*
X51373223Y-53223223D01*
X51391401Y-53206747D01*
X51411107Y-53192132D01*
X51432150Y-53179520D01*
X51454329Y-53169030D01*
X51477428Y-53160765D01*
X51501227Y-53154804D01*
X51525495Y-53151204D01*
X51549999Y-53150000D01*
X52450001Y-53150000D01*
X52474505Y-53151204D01*
G37*
G36*
X54624505Y-47301204D02*
G01*
X54648773Y-47304804D01*
X54672572Y-47310765D01*
X54695671Y-47319030D01*
X54717850Y-47329520D01*
X54738893Y-47342132D01*
X54758599Y-47356747D01*
X54776777Y-47373223D01*
X54793253Y-47391401D01*
X54807868Y-47411107D01*
X54820480Y-47432150D01*
X54830970Y-47454329D01*
X54839235Y-47477428D01*
X54845196Y-47501227D01*
X54848796Y-47525495D01*
X54850000Y-47549999D01*
X54850000Y-48450001D01*
X54848796Y-48474505D01*
X54845196Y-48498773D01*
X54839235Y-48522572D01*
X54830970Y-48545671D01*
X54820480Y-48567850D01*
X54807868Y-48588893D01*
X54793253Y-48608599D01*
X54776777Y-48626777D01*
X54758599Y-48643253D01*
X54738893Y-48657868D01*
X54717850Y-48670480D01*
X54695671Y-48680970D01*
X54672572Y-48689235D01*
X54648773Y-48695196D01*
X54624505Y-48698796D01*
X54600001Y-48700000D01*
X53949999Y-48700000D01*
X53925495Y-48698796D01*
X53901227Y-48695196D01*
X53877428Y-48689235D01*
X53854329Y-48680970D01*
X53832150Y-48670480D01*
X53811107Y-48657868D01*
X53791401Y-48643253D01*
X53773223Y-48626777D01*
X53756747Y-48608599D01*
X53742132Y-48588893D01*
X53729520Y-48567850D01*
X53719030Y-48545671D01*
X53710765Y-48522572D01*
X53704804Y-48498773D01*
X53701204Y-48474505D01*
X53700000Y-48450001D01*
X53700000Y-47549999D01*
X53701204Y-47525495D01*
X53704804Y-47501227D01*
X53710765Y-47477428D01*
X53719030Y-47454329D01*
X53729520Y-47432150D01*
X53742132Y-47411107D01*
X53756747Y-47391401D01*
X53773223Y-47373223D01*
X53791401Y-47356747D01*
X53811107Y-47342132D01*
X53832150Y-47329520D01*
X53854329Y-47319030D01*
X53877428Y-47310765D01*
X53901227Y-47304804D01*
X53925495Y-47301204D01*
X53949999Y-47300000D01*
X54600001Y-47300000D01*
X54624505Y-47301204D01*
G37*
G36*
X52574505Y-47301204D02*
G01*
X52598773Y-47304804D01*
X52622572Y-47310765D01*
X52645671Y-47319030D01*
X52667850Y-47329520D01*
X52688893Y-47342132D01*
X52708599Y-47356747D01*
X52726777Y-47373223D01*
X52743253Y-47391401D01*
X52757868Y-47411107D01*
X52770480Y-47432150D01*
X52780970Y-47454329D01*
X52789235Y-47477428D01*
X52795196Y-47501227D01*
X52798796Y-47525495D01*
X52800000Y-47549999D01*
X52800000Y-48450001D01*
X52798796Y-48474505D01*
X52795196Y-48498773D01*
X52789235Y-48522572D01*
X52780970Y-48545671D01*
X52770480Y-48567850D01*
X52757868Y-48588893D01*
X52743253Y-48608599D01*
X52726777Y-48626777D01*
X52708599Y-48643253D01*
X52688893Y-48657868D01*
X52667850Y-48670480D01*
X52645671Y-48680970D01*
X52622572Y-48689235D01*
X52598773Y-48695196D01*
X52574505Y-48698796D01*
X52550001Y-48700000D01*
X51899999Y-48700000D01*
X51875495Y-48698796D01*
X51851227Y-48695196D01*
X51827428Y-48689235D01*
X51804329Y-48680970D01*
X51782150Y-48670480D01*
X51761107Y-48657868D01*
X51741401Y-48643253D01*
X51723223Y-48626777D01*
X51706747Y-48608599D01*
X51692132Y-48588893D01*
X51679520Y-48567850D01*
X51669030Y-48545671D01*
X51660765Y-48522572D01*
X51654804Y-48498773D01*
X51651204Y-48474505D01*
X51650000Y-48450001D01*
X51650000Y-47549999D01*
X51651204Y-47525495D01*
X51654804Y-47501227D01*
X51660765Y-47477428D01*
X51669030Y-47454329D01*
X51679520Y-47432150D01*
X51692132Y-47411107D01*
X51706747Y-47391401D01*
X51723223Y-47373223D01*
X51741401Y-47356747D01*
X51761107Y-47342132D01*
X51782150Y-47329520D01*
X51804329Y-47319030D01*
X51827428Y-47310765D01*
X51851227Y-47304804D01*
X51875495Y-47301204D01*
X51899999Y-47300000D01*
X52550001Y-47300000D01*
X52574505Y-47301204D01*
G37*
G36*
X75474505Y-51676204D02*
G01*
X75498773Y-51679804D01*
X75522572Y-51685765D01*
X75545671Y-51694030D01*
X75567850Y-51704520D01*
X75588893Y-51717132D01*
X75608599Y-51731747D01*
X75626777Y-51748223D01*
X75643253Y-51766401D01*
X75657868Y-51786107D01*
X75670480Y-51807150D01*
X75680970Y-51829329D01*
X75689235Y-51852428D01*
X75695196Y-51876227D01*
X75698796Y-51900495D01*
X75700000Y-51924999D01*
X75700000Y-52575001D01*
X75698796Y-52599505D01*
X75695196Y-52623773D01*
X75689235Y-52647572D01*
X75680970Y-52670671D01*
X75670480Y-52692850D01*
X75657868Y-52713893D01*
X75643253Y-52733599D01*
X75626777Y-52751777D01*
X75608599Y-52768253D01*
X75588893Y-52782868D01*
X75567850Y-52795480D01*
X75545671Y-52805970D01*
X75522572Y-52814235D01*
X75498773Y-52820196D01*
X75474505Y-52823796D01*
X75450001Y-52825000D01*
X74549999Y-52825000D01*
X74525495Y-52823796D01*
X74501227Y-52820196D01*
X74477428Y-52814235D01*
X74454329Y-52805970D01*
X74432150Y-52795480D01*
X74411107Y-52782868D01*
X74391401Y-52768253D01*
X74373223Y-52751777D01*
X74356747Y-52733599D01*
X74342132Y-52713893D01*
X74329520Y-52692850D01*
X74319030Y-52670671D01*
X74310765Y-52647572D01*
X74304804Y-52623773D01*
X74301204Y-52599505D01*
X74300000Y-52575001D01*
X74300000Y-51924999D01*
X74301204Y-51900495D01*
X74304804Y-51876227D01*
X74310765Y-51852428D01*
X74319030Y-51829329D01*
X74329520Y-51807150D01*
X74342132Y-51786107D01*
X74356747Y-51766401D01*
X74373223Y-51748223D01*
X74391401Y-51731747D01*
X74411107Y-51717132D01*
X74432150Y-51704520D01*
X74454329Y-51694030D01*
X74477428Y-51685765D01*
X74501227Y-51679804D01*
X74525495Y-51676204D01*
X74549999Y-51675000D01*
X75450001Y-51675000D01*
X75474505Y-51676204D01*
G37*
G36*
X75474505Y-53726204D02*
G01*
X75498773Y-53729804D01*
X75522572Y-53735765D01*
X75545671Y-53744030D01*
X75567850Y-53754520D01*
X75588893Y-53767132D01*
X75608599Y-53781747D01*
X75626777Y-53798223D01*
X75643253Y-53816401D01*
X75657868Y-53836107D01*
X75670480Y-53857150D01*
X75680970Y-53879329D01*
X75689235Y-53902428D01*
X75695196Y-53926227D01*
X75698796Y-53950495D01*
X75700000Y-53974999D01*
X75700000Y-54625001D01*
X75698796Y-54649505D01*
X75695196Y-54673773D01*
X75689235Y-54697572D01*
X75680970Y-54720671D01*
X75670480Y-54742850D01*
X75657868Y-54763893D01*
X75643253Y-54783599D01*
X75626777Y-54801777D01*
X75608599Y-54818253D01*
X75588893Y-54832868D01*
X75567850Y-54845480D01*
X75545671Y-54855970D01*
X75522572Y-54864235D01*
X75498773Y-54870196D01*
X75474505Y-54873796D01*
X75450001Y-54875000D01*
X74549999Y-54875000D01*
X74525495Y-54873796D01*
X74501227Y-54870196D01*
X74477428Y-54864235D01*
X74454329Y-54855970D01*
X74432150Y-54845480D01*
X74411107Y-54832868D01*
X74391401Y-54818253D01*
X74373223Y-54801777D01*
X74356747Y-54783599D01*
X74342132Y-54763893D01*
X74329520Y-54742850D01*
X74319030Y-54720671D01*
X74310765Y-54697572D01*
X74304804Y-54673773D01*
X74301204Y-54649505D01*
X74300000Y-54625001D01*
X74300000Y-53974999D01*
X74301204Y-53950495D01*
X74304804Y-53926227D01*
X74310765Y-53902428D01*
X74319030Y-53879329D01*
X74329520Y-53857150D01*
X74342132Y-53836107D01*
X74356747Y-53816401D01*
X74373223Y-53798223D01*
X74391401Y-53781747D01*
X74411107Y-53767132D01*
X74432150Y-53754520D01*
X74454329Y-53744030D01*
X74477428Y-53735765D01*
X74501227Y-53729804D01*
X74525495Y-53726204D01*
X74549999Y-53725000D01*
X75450001Y-53725000D01*
X75474505Y-53726204D01*
G37*
G36*
X77724505Y-55976204D02*
G01*
X77748773Y-55979804D01*
X77772572Y-55985765D01*
X77795671Y-55994030D01*
X77817850Y-56004520D01*
X77838893Y-56017132D01*
X77858599Y-56031747D01*
X77876777Y-56048223D01*
X77893253Y-56066401D01*
X77907868Y-56086107D01*
X77920480Y-56107150D01*
X77930970Y-56129329D01*
X77939235Y-56152428D01*
X77945196Y-56176227D01*
X77948796Y-56200495D01*
X77950000Y-56224999D01*
X77950000Y-56875001D01*
X77948796Y-56899505D01*
X77945196Y-56923773D01*
X77939235Y-56947572D01*
X77930970Y-56970671D01*
X77920480Y-56992850D01*
X77907868Y-57013893D01*
X77893253Y-57033599D01*
X77876777Y-57051777D01*
X77858599Y-57068253D01*
X77838893Y-57082868D01*
X77817850Y-57095480D01*
X77795671Y-57105970D01*
X77772572Y-57114235D01*
X77748773Y-57120196D01*
X77724505Y-57123796D01*
X77700001Y-57125000D01*
X76799999Y-57125000D01*
X76775495Y-57123796D01*
X76751227Y-57120196D01*
X76727428Y-57114235D01*
X76704329Y-57105970D01*
X76682150Y-57095480D01*
X76661107Y-57082868D01*
X76641401Y-57068253D01*
X76623223Y-57051777D01*
X76606747Y-57033599D01*
X76592132Y-57013893D01*
X76579520Y-56992850D01*
X76569030Y-56970671D01*
X76560765Y-56947572D01*
X76554804Y-56923773D01*
X76551204Y-56899505D01*
X76550000Y-56875001D01*
X76550000Y-56224999D01*
X76551204Y-56200495D01*
X76554804Y-56176227D01*
X76560765Y-56152428D01*
X76569030Y-56129329D01*
X76579520Y-56107150D01*
X76592132Y-56086107D01*
X76606747Y-56066401D01*
X76623223Y-56048223D01*
X76641401Y-56031747D01*
X76661107Y-56017132D01*
X76682150Y-56004520D01*
X76704329Y-55994030D01*
X76727428Y-55985765D01*
X76751227Y-55979804D01*
X76775495Y-55976204D01*
X76799999Y-55975000D01*
X77700001Y-55975000D01*
X77724505Y-55976204D01*
G37*
G36*
X77724505Y-53926204D02*
G01*
X77748773Y-53929804D01*
X77772572Y-53935765D01*
X77795671Y-53944030D01*
X77817850Y-53954520D01*
X77838893Y-53967132D01*
X77858599Y-53981747D01*
X77876777Y-53998223D01*
X77893253Y-54016401D01*
X77907868Y-54036107D01*
X77920480Y-54057150D01*
X77930970Y-54079329D01*
X77939235Y-54102428D01*
X77945196Y-54126227D01*
X77948796Y-54150495D01*
X77950000Y-54174999D01*
X77950000Y-54825001D01*
X77948796Y-54849505D01*
X77945196Y-54873773D01*
X77939235Y-54897572D01*
X77930970Y-54920671D01*
X77920480Y-54942850D01*
X77907868Y-54963893D01*
X77893253Y-54983599D01*
X77876777Y-55001777D01*
X77858599Y-55018253D01*
X77838893Y-55032868D01*
X77817850Y-55045480D01*
X77795671Y-55055970D01*
X77772572Y-55064235D01*
X77748773Y-55070196D01*
X77724505Y-55073796D01*
X77700001Y-55075000D01*
X76799999Y-55075000D01*
X76775495Y-55073796D01*
X76751227Y-55070196D01*
X76727428Y-55064235D01*
X76704329Y-55055970D01*
X76682150Y-55045480D01*
X76661107Y-55032868D01*
X76641401Y-55018253D01*
X76623223Y-55001777D01*
X76606747Y-54983599D01*
X76592132Y-54963893D01*
X76579520Y-54942850D01*
X76569030Y-54920671D01*
X76560765Y-54897572D01*
X76554804Y-54873773D01*
X76551204Y-54849505D01*
X76550000Y-54825001D01*
X76550000Y-54174999D01*
X76551204Y-54150495D01*
X76554804Y-54126227D01*
X76560765Y-54102428D01*
X76569030Y-54079329D01*
X76579520Y-54057150D01*
X76592132Y-54036107D01*
X76606747Y-54016401D01*
X76623223Y-53998223D01*
X76641401Y-53981747D01*
X76661107Y-53967132D01*
X76682150Y-53954520D01*
X76704329Y-53944030D01*
X76727428Y-53935765D01*
X76751227Y-53929804D01*
X76775495Y-53926204D01*
X76799999Y-53925000D01*
X77700001Y-53925000D01*
X77724505Y-53926204D01*
G37*
G36*
X54624505Y-49801204D02*
G01*
X54648773Y-49804804D01*
X54672572Y-49810765D01*
X54695671Y-49819030D01*
X54717850Y-49829520D01*
X54738893Y-49842132D01*
X54758599Y-49856747D01*
X54776777Y-49873223D01*
X54793253Y-49891401D01*
X54807868Y-49911107D01*
X54820480Y-49932150D01*
X54830970Y-49954329D01*
X54839235Y-49977428D01*
X54845196Y-50001227D01*
X54848796Y-50025495D01*
X54850000Y-50049999D01*
X54850000Y-50950001D01*
X54848796Y-50974505D01*
X54845196Y-50998773D01*
X54839235Y-51022572D01*
X54830970Y-51045671D01*
X54820480Y-51067850D01*
X54807868Y-51088893D01*
X54793253Y-51108599D01*
X54776777Y-51126777D01*
X54758599Y-51143253D01*
X54738893Y-51157868D01*
X54717850Y-51170480D01*
X54695671Y-51180970D01*
X54672572Y-51189235D01*
X54648773Y-51195196D01*
X54624505Y-51198796D01*
X54600001Y-51200000D01*
X53949999Y-51200000D01*
X53925495Y-51198796D01*
X53901227Y-51195196D01*
X53877428Y-51189235D01*
X53854329Y-51180970D01*
X53832150Y-51170480D01*
X53811107Y-51157868D01*
X53791401Y-51143253D01*
X53773223Y-51126777D01*
X53756747Y-51108599D01*
X53742132Y-51088893D01*
X53729520Y-51067850D01*
X53719030Y-51045671D01*
X53710765Y-51022572D01*
X53704804Y-50998773D01*
X53701204Y-50974505D01*
X53700000Y-50950001D01*
X53700000Y-50049999D01*
X53701204Y-50025495D01*
X53704804Y-50001227D01*
X53710765Y-49977428D01*
X53719030Y-49954329D01*
X53729520Y-49932150D01*
X53742132Y-49911107D01*
X53756747Y-49891401D01*
X53773223Y-49873223D01*
X53791401Y-49856747D01*
X53811107Y-49842132D01*
X53832150Y-49829520D01*
X53854329Y-49819030D01*
X53877428Y-49810765D01*
X53901227Y-49804804D01*
X53925495Y-49801204D01*
X53949999Y-49800000D01*
X54600001Y-49800000D01*
X54624505Y-49801204D01*
G37*
G36*
X52574505Y-49801204D02*
G01*
X52598773Y-49804804D01*
X52622572Y-49810765D01*
X52645671Y-49819030D01*
X52667850Y-49829520D01*
X52688893Y-49842132D01*
X52708599Y-49856747D01*
X52726777Y-49873223D01*
X52743253Y-49891401D01*
X52757868Y-49911107D01*
X52770480Y-49932150D01*
X52780970Y-49954329D01*
X52789235Y-49977428D01*
X52795196Y-50001227D01*
X52798796Y-50025495D01*
X52800000Y-50049999D01*
X52800000Y-50950001D01*
X52798796Y-50974505D01*
X52795196Y-50998773D01*
X52789235Y-51022572D01*
X52780970Y-51045671D01*
X52770480Y-51067850D01*
X52757868Y-51088893D01*
X52743253Y-51108599D01*
X52726777Y-51126777D01*
X52708599Y-51143253D01*
X52688893Y-51157868D01*
X52667850Y-51170480D01*
X52645671Y-51180970D01*
X52622572Y-51189235D01*
X52598773Y-51195196D01*
X52574505Y-51198796D01*
X52550001Y-51200000D01*
X51899999Y-51200000D01*
X51875495Y-51198796D01*
X51851227Y-51195196D01*
X51827428Y-51189235D01*
X51804329Y-51180970D01*
X51782150Y-51170480D01*
X51761107Y-51157868D01*
X51741401Y-51143253D01*
X51723223Y-51126777D01*
X51706747Y-51108599D01*
X51692132Y-51088893D01*
X51679520Y-51067850D01*
X51669030Y-51045671D01*
X51660765Y-51022572D01*
X51654804Y-50998773D01*
X51651204Y-50974505D01*
X51650000Y-50950001D01*
X51650000Y-50049999D01*
X51651204Y-50025495D01*
X51654804Y-50001227D01*
X51660765Y-49977428D01*
X51669030Y-49954329D01*
X51679520Y-49932150D01*
X51692132Y-49911107D01*
X51706747Y-49891401D01*
X51723223Y-49873223D01*
X51741401Y-49856747D01*
X51761107Y-49842132D01*
X51782150Y-49829520D01*
X51804329Y-49819030D01*
X51827428Y-49810765D01*
X51851227Y-49804804D01*
X51875495Y-49801204D01*
X51899999Y-49800000D01*
X52550001Y-49800000D01*
X52574505Y-49801204D01*
G37*
D16*
X51000000Y-75225000D03*
X51000000Y-69775000D03*
D17*
X45712000Y-79845000D03*
X45712000Y-81115000D03*
X45712000Y-82385000D03*
X45712000Y-83655000D03*
X40288000Y-83655000D03*
X40288000Y-82385000D03*
X40288000Y-81115000D03*
X40288000Y-79845000D03*
D18*
X41850000Y-74500000D03*
X45150000Y-74500000D03*
D11*
G36*
X44074505Y-70301204D02*
G01*
X44098773Y-70304804D01*
X44122572Y-70310765D01*
X44145671Y-70319030D01*
X44167850Y-70329520D01*
X44188893Y-70342132D01*
X44208599Y-70356747D01*
X44226777Y-70373223D01*
X44243253Y-70391401D01*
X44257868Y-70411107D01*
X44270480Y-70432150D01*
X44280970Y-70454329D01*
X44289235Y-70477428D01*
X44295196Y-70501227D01*
X44298796Y-70525495D01*
X44300000Y-70549999D01*
X44300000Y-71450001D01*
X44298796Y-71474505D01*
X44295196Y-71498773D01*
X44289235Y-71522572D01*
X44280970Y-71545671D01*
X44270480Y-71567850D01*
X44257868Y-71588893D01*
X44243253Y-71608599D01*
X44226777Y-71626777D01*
X44208599Y-71643253D01*
X44188893Y-71657868D01*
X44167850Y-71670480D01*
X44145671Y-71680970D01*
X44122572Y-71689235D01*
X44098773Y-71695196D01*
X44074505Y-71698796D01*
X44050001Y-71700000D01*
X43399999Y-71700000D01*
X43375495Y-71698796D01*
X43351227Y-71695196D01*
X43327428Y-71689235D01*
X43304329Y-71680970D01*
X43282150Y-71670480D01*
X43261107Y-71657868D01*
X43241401Y-71643253D01*
X43223223Y-71626777D01*
X43206747Y-71608599D01*
X43192132Y-71588893D01*
X43179520Y-71567850D01*
X43169030Y-71545671D01*
X43160765Y-71522572D01*
X43154804Y-71498773D01*
X43151204Y-71474505D01*
X43150000Y-71450001D01*
X43150000Y-70549999D01*
X43151204Y-70525495D01*
X43154804Y-70501227D01*
X43160765Y-70477428D01*
X43169030Y-70454329D01*
X43179520Y-70432150D01*
X43192132Y-70411107D01*
X43206747Y-70391401D01*
X43223223Y-70373223D01*
X43241401Y-70356747D01*
X43261107Y-70342132D01*
X43282150Y-70329520D01*
X43304329Y-70319030D01*
X43327428Y-70310765D01*
X43351227Y-70304804D01*
X43375495Y-70301204D01*
X43399999Y-70300000D01*
X44050001Y-70300000D01*
X44074505Y-70301204D01*
G37*
G36*
X46124505Y-70301204D02*
G01*
X46148773Y-70304804D01*
X46172572Y-70310765D01*
X46195671Y-70319030D01*
X46217850Y-70329520D01*
X46238893Y-70342132D01*
X46258599Y-70356747D01*
X46276777Y-70373223D01*
X46293253Y-70391401D01*
X46307868Y-70411107D01*
X46320480Y-70432150D01*
X46330970Y-70454329D01*
X46339235Y-70477428D01*
X46345196Y-70501227D01*
X46348796Y-70525495D01*
X46350000Y-70549999D01*
X46350000Y-71450001D01*
X46348796Y-71474505D01*
X46345196Y-71498773D01*
X46339235Y-71522572D01*
X46330970Y-71545671D01*
X46320480Y-71567850D01*
X46307868Y-71588893D01*
X46293253Y-71608599D01*
X46276777Y-71626777D01*
X46258599Y-71643253D01*
X46238893Y-71657868D01*
X46217850Y-71670480D01*
X46195671Y-71680970D01*
X46172572Y-71689235D01*
X46148773Y-71695196D01*
X46124505Y-71698796D01*
X46100001Y-71700000D01*
X45449999Y-71700000D01*
X45425495Y-71698796D01*
X45401227Y-71695196D01*
X45377428Y-71689235D01*
X45354329Y-71680970D01*
X45332150Y-71670480D01*
X45311107Y-71657868D01*
X45291401Y-71643253D01*
X45273223Y-71626777D01*
X45256747Y-71608599D01*
X45242132Y-71588893D01*
X45229520Y-71567850D01*
X45219030Y-71545671D01*
X45210765Y-71522572D01*
X45204804Y-71498773D01*
X45201204Y-71474505D01*
X45200000Y-71450001D01*
X45200000Y-70549999D01*
X45201204Y-70525495D01*
X45204804Y-70501227D01*
X45210765Y-70477428D01*
X45219030Y-70454329D01*
X45229520Y-70432150D01*
X45242132Y-70411107D01*
X45256747Y-70391401D01*
X45273223Y-70373223D01*
X45291401Y-70356747D01*
X45311107Y-70342132D01*
X45332150Y-70329520D01*
X45354329Y-70319030D01*
X45377428Y-70310765D01*
X45401227Y-70304804D01*
X45425495Y-70301204D01*
X45449999Y-70300000D01*
X46100001Y-70300000D01*
X46124505Y-70301204D01*
G37*
G36*
X44074505Y-65051204D02*
G01*
X44098773Y-65054804D01*
X44122572Y-65060765D01*
X44145671Y-65069030D01*
X44167850Y-65079520D01*
X44188893Y-65092132D01*
X44208599Y-65106747D01*
X44226777Y-65123223D01*
X44243253Y-65141401D01*
X44257868Y-65161107D01*
X44270480Y-65182150D01*
X44280970Y-65204329D01*
X44289235Y-65227428D01*
X44295196Y-65251227D01*
X44298796Y-65275495D01*
X44300000Y-65299999D01*
X44300000Y-66200001D01*
X44298796Y-66224505D01*
X44295196Y-66248773D01*
X44289235Y-66272572D01*
X44280970Y-66295671D01*
X44270480Y-66317850D01*
X44257868Y-66338893D01*
X44243253Y-66358599D01*
X44226777Y-66376777D01*
X44208599Y-66393253D01*
X44188893Y-66407868D01*
X44167850Y-66420480D01*
X44145671Y-66430970D01*
X44122572Y-66439235D01*
X44098773Y-66445196D01*
X44074505Y-66448796D01*
X44050001Y-66450000D01*
X43399999Y-66450000D01*
X43375495Y-66448796D01*
X43351227Y-66445196D01*
X43327428Y-66439235D01*
X43304329Y-66430970D01*
X43282150Y-66420480D01*
X43261107Y-66407868D01*
X43241401Y-66393253D01*
X43223223Y-66376777D01*
X43206747Y-66358599D01*
X43192132Y-66338893D01*
X43179520Y-66317850D01*
X43169030Y-66295671D01*
X43160765Y-66272572D01*
X43154804Y-66248773D01*
X43151204Y-66224505D01*
X43150000Y-66200001D01*
X43150000Y-65299999D01*
X43151204Y-65275495D01*
X43154804Y-65251227D01*
X43160765Y-65227428D01*
X43169030Y-65204329D01*
X43179520Y-65182150D01*
X43192132Y-65161107D01*
X43206747Y-65141401D01*
X43223223Y-65123223D01*
X43241401Y-65106747D01*
X43261107Y-65092132D01*
X43282150Y-65079520D01*
X43304329Y-65069030D01*
X43327428Y-65060765D01*
X43351227Y-65054804D01*
X43375495Y-65051204D01*
X43399999Y-65050000D01*
X44050001Y-65050000D01*
X44074505Y-65051204D01*
G37*
G36*
X46124505Y-65051204D02*
G01*
X46148773Y-65054804D01*
X46172572Y-65060765D01*
X46195671Y-65069030D01*
X46217850Y-65079520D01*
X46238893Y-65092132D01*
X46258599Y-65106747D01*
X46276777Y-65123223D01*
X46293253Y-65141401D01*
X46307868Y-65161107D01*
X46320480Y-65182150D01*
X46330970Y-65204329D01*
X46339235Y-65227428D01*
X46345196Y-65251227D01*
X46348796Y-65275495D01*
X46350000Y-65299999D01*
X46350000Y-66200001D01*
X46348796Y-66224505D01*
X46345196Y-66248773D01*
X46339235Y-66272572D01*
X46330970Y-66295671D01*
X46320480Y-66317850D01*
X46307868Y-66338893D01*
X46293253Y-66358599D01*
X46276777Y-66376777D01*
X46258599Y-66393253D01*
X46238893Y-66407868D01*
X46217850Y-66420480D01*
X46195671Y-66430970D01*
X46172572Y-66439235D01*
X46148773Y-66445196D01*
X46124505Y-66448796D01*
X46100001Y-66450000D01*
X45449999Y-66450000D01*
X45425495Y-66448796D01*
X45401227Y-66445196D01*
X45377428Y-66439235D01*
X45354329Y-66430970D01*
X45332150Y-66420480D01*
X45311107Y-66407868D01*
X45291401Y-66393253D01*
X45273223Y-66376777D01*
X45256747Y-66358599D01*
X45242132Y-66338893D01*
X45229520Y-66317850D01*
X45219030Y-66295671D01*
X45210765Y-66272572D01*
X45204804Y-66248773D01*
X45201204Y-66224505D01*
X45200000Y-66200001D01*
X45200000Y-65299999D01*
X45201204Y-65275495D01*
X45204804Y-65251227D01*
X45210765Y-65227428D01*
X45219030Y-65204329D01*
X45229520Y-65182150D01*
X45242132Y-65161107D01*
X45256747Y-65141401D01*
X45273223Y-65123223D01*
X45291401Y-65106747D01*
X45311107Y-65092132D01*
X45332150Y-65079520D01*
X45354329Y-65069030D01*
X45377428Y-65060765D01*
X45401227Y-65054804D01*
X45425495Y-65051204D01*
X45449999Y-65050000D01*
X46100001Y-65050000D01*
X46124505Y-65051204D01*
G37*
G36*
X44074505Y-67801204D02*
G01*
X44098773Y-67804804D01*
X44122572Y-67810765D01*
X44145671Y-67819030D01*
X44167850Y-67829520D01*
X44188893Y-67842132D01*
X44208599Y-67856747D01*
X44226777Y-67873223D01*
X44243253Y-67891401D01*
X44257868Y-67911107D01*
X44270480Y-67932150D01*
X44280970Y-67954329D01*
X44289235Y-67977428D01*
X44295196Y-68001227D01*
X44298796Y-68025495D01*
X44300000Y-68049999D01*
X44300000Y-68950001D01*
X44298796Y-68974505D01*
X44295196Y-68998773D01*
X44289235Y-69022572D01*
X44280970Y-69045671D01*
X44270480Y-69067850D01*
X44257868Y-69088893D01*
X44243253Y-69108599D01*
X44226777Y-69126777D01*
X44208599Y-69143253D01*
X44188893Y-69157868D01*
X44167850Y-69170480D01*
X44145671Y-69180970D01*
X44122572Y-69189235D01*
X44098773Y-69195196D01*
X44074505Y-69198796D01*
X44050001Y-69200000D01*
X43399999Y-69200000D01*
X43375495Y-69198796D01*
X43351227Y-69195196D01*
X43327428Y-69189235D01*
X43304329Y-69180970D01*
X43282150Y-69170480D01*
X43261107Y-69157868D01*
X43241401Y-69143253D01*
X43223223Y-69126777D01*
X43206747Y-69108599D01*
X43192132Y-69088893D01*
X43179520Y-69067850D01*
X43169030Y-69045671D01*
X43160765Y-69022572D01*
X43154804Y-68998773D01*
X43151204Y-68974505D01*
X43150000Y-68950001D01*
X43150000Y-68049999D01*
X43151204Y-68025495D01*
X43154804Y-68001227D01*
X43160765Y-67977428D01*
X43169030Y-67954329D01*
X43179520Y-67932150D01*
X43192132Y-67911107D01*
X43206747Y-67891401D01*
X43223223Y-67873223D01*
X43241401Y-67856747D01*
X43261107Y-67842132D01*
X43282150Y-67829520D01*
X43304329Y-67819030D01*
X43327428Y-67810765D01*
X43351227Y-67804804D01*
X43375495Y-67801204D01*
X43399999Y-67800000D01*
X44050001Y-67800000D01*
X44074505Y-67801204D01*
G37*
G36*
X46124505Y-67801204D02*
G01*
X46148773Y-67804804D01*
X46172572Y-67810765D01*
X46195671Y-67819030D01*
X46217850Y-67829520D01*
X46238893Y-67842132D01*
X46258599Y-67856747D01*
X46276777Y-67873223D01*
X46293253Y-67891401D01*
X46307868Y-67911107D01*
X46320480Y-67932150D01*
X46330970Y-67954329D01*
X46339235Y-67977428D01*
X46345196Y-68001227D01*
X46348796Y-68025495D01*
X46350000Y-68049999D01*
X46350000Y-68950001D01*
X46348796Y-68974505D01*
X46345196Y-68998773D01*
X46339235Y-69022572D01*
X46330970Y-69045671D01*
X46320480Y-69067850D01*
X46307868Y-69088893D01*
X46293253Y-69108599D01*
X46276777Y-69126777D01*
X46258599Y-69143253D01*
X46238893Y-69157868D01*
X46217850Y-69170480D01*
X46195671Y-69180970D01*
X46172572Y-69189235D01*
X46148773Y-69195196D01*
X46124505Y-69198796D01*
X46100001Y-69200000D01*
X45449999Y-69200000D01*
X45425495Y-69198796D01*
X45401227Y-69195196D01*
X45377428Y-69189235D01*
X45354329Y-69180970D01*
X45332150Y-69170480D01*
X45311107Y-69157868D01*
X45291401Y-69143253D01*
X45273223Y-69126777D01*
X45256747Y-69108599D01*
X45242132Y-69088893D01*
X45229520Y-69067850D01*
X45219030Y-69045671D01*
X45210765Y-69022572D01*
X45204804Y-68998773D01*
X45201204Y-68974505D01*
X45200000Y-68950001D01*
X45200000Y-68049999D01*
X45201204Y-68025495D01*
X45204804Y-68001227D01*
X45210765Y-67977428D01*
X45219030Y-67954329D01*
X45229520Y-67932150D01*
X45242132Y-67911107D01*
X45256747Y-67891401D01*
X45273223Y-67873223D01*
X45291401Y-67856747D01*
X45311107Y-67842132D01*
X45332150Y-67829520D01*
X45354329Y-67819030D01*
X45377428Y-67810765D01*
X45401227Y-67804804D01*
X45425495Y-67801204D01*
X45449999Y-67800000D01*
X46100001Y-67800000D01*
X46124505Y-67801204D01*
G37*
G36*
X43224505Y-62951204D02*
G01*
X43248773Y-62954804D01*
X43272572Y-62960765D01*
X43295671Y-62969030D01*
X43317850Y-62979520D01*
X43338893Y-62992132D01*
X43358599Y-63006747D01*
X43376777Y-63023223D01*
X43393253Y-63041401D01*
X43407868Y-63061107D01*
X43420480Y-63082150D01*
X43430970Y-63104329D01*
X43439235Y-63127428D01*
X43445196Y-63151227D01*
X43448796Y-63175495D01*
X43450000Y-63199999D01*
X43450000Y-63850001D01*
X43448796Y-63874505D01*
X43445196Y-63898773D01*
X43439235Y-63922572D01*
X43430970Y-63945671D01*
X43420480Y-63967850D01*
X43407868Y-63988893D01*
X43393253Y-64008599D01*
X43376777Y-64026777D01*
X43358599Y-64043253D01*
X43338893Y-64057868D01*
X43317850Y-64070480D01*
X43295671Y-64080970D01*
X43272572Y-64089235D01*
X43248773Y-64095196D01*
X43224505Y-64098796D01*
X43200001Y-64100000D01*
X42299999Y-64100000D01*
X42275495Y-64098796D01*
X42251227Y-64095196D01*
X42227428Y-64089235D01*
X42204329Y-64080970D01*
X42182150Y-64070480D01*
X42161107Y-64057868D01*
X42141401Y-64043253D01*
X42123223Y-64026777D01*
X42106747Y-64008599D01*
X42092132Y-63988893D01*
X42079520Y-63967850D01*
X42069030Y-63945671D01*
X42060765Y-63922572D01*
X42054804Y-63898773D01*
X42051204Y-63874505D01*
X42050000Y-63850001D01*
X42050000Y-63199999D01*
X42051204Y-63175495D01*
X42054804Y-63151227D01*
X42060765Y-63127428D01*
X42069030Y-63104329D01*
X42079520Y-63082150D01*
X42092132Y-63061107D01*
X42106747Y-63041401D01*
X42123223Y-63023223D01*
X42141401Y-63006747D01*
X42161107Y-62992132D01*
X42182150Y-62979520D01*
X42204329Y-62969030D01*
X42227428Y-62960765D01*
X42251227Y-62954804D01*
X42275495Y-62951204D01*
X42299999Y-62950000D01*
X43200001Y-62950000D01*
X43224505Y-62951204D01*
G37*
G36*
X43224505Y-60901204D02*
G01*
X43248773Y-60904804D01*
X43272572Y-60910765D01*
X43295671Y-60919030D01*
X43317850Y-60929520D01*
X43338893Y-60942132D01*
X43358599Y-60956747D01*
X43376777Y-60973223D01*
X43393253Y-60991401D01*
X43407868Y-61011107D01*
X43420480Y-61032150D01*
X43430970Y-61054329D01*
X43439235Y-61077428D01*
X43445196Y-61101227D01*
X43448796Y-61125495D01*
X43450000Y-61149999D01*
X43450000Y-61800001D01*
X43448796Y-61824505D01*
X43445196Y-61848773D01*
X43439235Y-61872572D01*
X43430970Y-61895671D01*
X43420480Y-61917850D01*
X43407868Y-61938893D01*
X43393253Y-61958599D01*
X43376777Y-61976777D01*
X43358599Y-61993253D01*
X43338893Y-62007868D01*
X43317850Y-62020480D01*
X43295671Y-62030970D01*
X43272572Y-62039235D01*
X43248773Y-62045196D01*
X43224505Y-62048796D01*
X43200001Y-62050000D01*
X42299999Y-62050000D01*
X42275495Y-62048796D01*
X42251227Y-62045196D01*
X42227428Y-62039235D01*
X42204329Y-62030970D01*
X42182150Y-62020480D01*
X42161107Y-62007868D01*
X42141401Y-61993253D01*
X42123223Y-61976777D01*
X42106747Y-61958599D01*
X42092132Y-61938893D01*
X42079520Y-61917850D01*
X42069030Y-61895671D01*
X42060765Y-61872572D01*
X42054804Y-61848773D01*
X42051204Y-61824505D01*
X42050000Y-61800001D01*
X42050000Y-61149999D01*
X42051204Y-61125495D01*
X42054804Y-61101227D01*
X42060765Y-61077428D01*
X42069030Y-61054329D01*
X42079520Y-61032150D01*
X42092132Y-61011107D01*
X42106747Y-60991401D01*
X42123223Y-60973223D01*
X42141401Y-60956747D01*
X42161107Y-60942132D01*
X42182150Y-60929520D01*
X42204329Y-60919030D01*
X42227428Y-60910765D01*
X42251227Y-60904804D01*
X42275495Y-60901204D01*
X42299999Y-60900000D01*
X43200001Y-60900000D01*
X43224505Y-60901204D01*
G37*
G36*
X51185779Y-79526144D02*
G01*
X51208834Y-79529563D01*
X51231443Y-79535227D01*
X51253387Y-79543079D01*
X51274457Y-79553044D01*
X51294448Y-79565026D01*
X51313168Y-79578910D01*
X51330438Y-79594562D01*
X51346090Y-79611832D01*
X51359974Y-79630552D01*
X51371956Y-79650543D01*
X51381921Y-79671613D01*
X51389773Y-79693557D01*
X51395437Y-79716166D01*
X51398856Y-79739221D01*
X51400000Y-79762500D01*
X51400000Y-80237500D01*
X51398856Y-80260779D01*
X51395437Y-80283834D01*
X51389773Y-80306443D01*
X51381921Y-80328387D01*
X51371956Y-80349457D01*
X51359974Y-80369448D01*
X51346090Y-80388168D01*
X51330438Y-80405438D01*
X51313168Y-80421090D01*
X51294448Y-80434974D01*
X51274457Y-80446956D01*
X51253387Y-80456921D01*
X51231443Y-80464773D01*
X51208834Y-80470437D01*
X51185779Y-80473856D01*
X51162500Y-80475000D01*
X50587500Y-80475000D01*
X50564221Y-80473856D01*
X50541166Y-80470437D01*
X50518557Y-80464773D01*
X50496613Y-80456921D01*
X50475543Y-80446956D01*
X50455552Y-80434974D01*
X50436832Y-80421090D01*
X50419562Y-80405438D01*
X50403910Y-80388168D01*
X50390026Y-80369448D01*
X50378044Y-80349457D01*
X50368079Y-80328387D01*
X50360227Y-80306443D01*
X50354563Y-80283834D01*
X50351144Y-80260779D01*
X50350000Y-80237500D01*
X50350000Y-79762500D01*
X50351144Y-79739221D01*
X50354563Y-79716166D01*
X50360227Y-79693557D01*
X50368079Y-79671613D01*
X50378044Y-79650543D01*
X50390026Y-79630552D01*
X50403910Y-79611832D01*
X50419562Y-79594562D01*
X50436832Y-79578910D01*
X50455552Y-79565026D01*
X50475543Y-79553044D01*
X50496613Y-79543079D01*
X50518557Y-79535227D01*
X50541166Y-79529563D01*
X50564221Y-79526144D01*
X50587500Y-79525000D01*
X51162500Y-79525000D01*
X51185779Y-79526144D01*
G37*
G36*
X52935779Y-79526144D02*
G01*
X52958834Y-79529563D01*
X52981443Y-79535227D01*
X53003387Y-79543079D01*
X53024457Y-79553044D01*
X53044448Y-79565026D01*
X53063168Y-79578910D01*
X53080438Y-79594562D01*
X53096090Y-79611832D01*
X53109974Y-79630552D01*
X53121956Y-79650543D01*
X53131921Y-79671613D01*
X53139773Y-79693557D01*
X53145437Y-79716166D01*
X53148856Y-79739221D01*
X53150000Y-79762500D01*
X53150000Y-80237500D01*
X53148856Y-80260779D01*
X53145437Y-80283834D01*
X53139773Y-80306443D01*
X53131921Y-80328387D01*
X53121956Y-80349457D01*
X53109974Y-80369448D01*
X53096090Y-80388168D01*
X53080438Y-80405438D01*
X53063168Y-80421090D01*
X53044448Y-80434974D01*
X53024457Y-80446956D01*
X53003387Y-80456921D01*
X52981443Y-80464773D01*
X52958834Y-80470437D01*
X52935779Y-80473856D01*
X52912500Y-80475000D01*
X52337500Y-80475000D01*
X52314221Y-80473856D01*
X52291166Y-80470437D01*
X52268557Y-80464773D01*
X52246613Y-80456921D01*
X52225543Y-80446956D01*
X52205552Y-80434974D01*
X52186832Y-80421090D01*
X52169562Y-80405438D01*
X52153910Y-80388168D01*
X52140026Y-80369448D01*
X52128044Y-80349457D01*
X52118079Y-80328387D01*
X52110227Y-80306443D01*
X52104563Y-80283834D01*
X52101144Y-80260779D01*
X52100000Y-80237500D01*
X52100000Y-79762500D01*
X52101144Y-79739221D01*
X52104563Y-79716166D01*
X52110227Y-79693557D01*
X52118079Y-79671613D01*
X52128044Y-79650543D01*
X52140026Y-79630552D01*
X52153910Y-79611832D01*
X52169562Y-79594562D01*
X52186832Y-79578910D01*
X52205552Y-79565026D01*
X52225543Y-79553044D01*
X52246613Y-79543079D01*
X52268557Y-79535227D01*
X52291166Y-79529563D01*
X52314221Y-79526144D01*
X52337500Y-79525000D01*
X52912500Y-79525000D01*
X52935779Y-79526144D01*
G37*
G36*
X46474505Y-62951204D02*
G01*
X46498773Y-62954804D01*
X46522572Y-62960765D01*
X46545671Y-62969030D01*
X46567850Y-62979520D01*
X46588893Y-62992132D01*
X46608599Y-63006747D01*
X46626777Y-63023223D01*
X46643253Y-63041401D01*
X46657868Y-63061107D01*
X46670480Y-63082150D01*
X46680970Y-63104329D01*
X46689235Y-63127428D01*
X46695196Y-63151227D01*
X46698796Y-63175495D01*
X46700000Y-63199999D01*
X46700000Y-63850001D01*
X46698796Y-63874505D01*
X46695196Y-63898773D01*
X46689235Y-63922572D01*
X46680970Y-63945671D01*
X46670480Y-63967850D01*
X46657868Y-63988893D01*
X46643253Y-64008599D01*
X46626777Y-64026777D01*
X46608599Y-64043253D01*
X46588893Y-64057868D01*
X46567850Y-64070480D01*
X46545671Y-64080970D01*
X46522572Y-64089235D01*
X46498773Y-64095196D01*
X46474505Y-64098796D01*
X46450001Y-64100000D01*
X45549999Y-64100000D01*
X45525495Y-64098796D01*
X45501227Y-64095196D01*
X45477428Y-64089235D01*
X45454329Y-64080970D01*
X45432150Y-64070480D01*
X45411107Y-64057868D01*
X45391401Y-64043253D01*
X45373223Y-64026777D01*
X45356747Y-64008599D01*
X45342132Y-63988893D01*
X45329520Y-63967850D01*
X45319030Y-63945671D01*
X45310765Y-63922572D01*
X45304804Y-63898773D01*
X45301204Y-63874505D01*
X45300000Y-63850001D01*
X45300000Y-63199999D01*
X45301204Y-63175495D01*
X45304804Y-63151227D01*
X45310765Y-63127428D01*
X45319030Y-63104329D01*
X45329520Y-63082150D01*
X45342132Y-63061107D01*
X45356747Y-63041401D01*
X45373223Y-63023223D01*
X45391401Y-63006747D01*
X45411107Y-62992132D01*
X45432150Y-62979520D01*
X45454329Y-62969030D01*
X45477428Y-62960765D01*
X45501227Y-62954804D01*
X45525495Y-62951204D01*
X45549999Y-62950000D01*
X46450001Y-62950000D01*
X46474505Y-62951204D01*
G37*
G36*
X46474505Y-60901204D02*
G01*
X46498773Y-60904804D01*
X46522572Y-60910765D01*
X46545671Y-60919030D01*
X46567850Y-60929520D01*
X46588893Y-60942132D01*
X46608599Y-60956747D01*
X46626777Y-60973223D01*
X46643253Y-60991401D01*
X46657868Y-61011107D01*
X46670480Y-61032150D01*
X46680970Y-61054329D01*
X46689235Y-61077428D01*
X46695196Y-61101227D01*
X46698796Y-61125495D01*
X46700000Y-61149999D01*
X46700000Y-61800001D01*
X46698796Y-61824505D01*
X46695196Y-61848773D01*
X46689235Y-61872572D01*
X46680970Y-61895671D01*
X46670480Y-61917850D01*
X46657868Y-61938893D01*
X46643253Y-61958599D01*
X46626777Y-61976777D01*
X46608599Y-61993253D01*
X46588893Y-62007868D01*
X46567850Y-62020480D01*
X46545671Y-62030970D01*
X46522572Y-62039235D01*
X46498773Y-62045196D01*
X46474505Y-62048796D01*
X46450001Y-62050000D01*
X45549999Y-62050000D01*
X45525495Y-62048796D01*
X45501227Y-62045196D01*
X45477428Y-62039235D01*
X45454329Y-62030970D01*
X45432150Y-62020480D01*
X45411107Y-62007868D01*
X45391401Y-61993253D01*
X45373223Y-61976777D01*
X45356747Y-61958599D01*
X45342132Y-61938893D01*
X45329520Y-61917850D01*
X45319030Y-61895671D01*
X45310765Y-61872572D01*
X45304804Y-61848773D01*
X45301204Y-61824505D01*
X45300000Y-61800001D01*
X45300000Y-61149999D01*
X45301204Y-61125495D01*
X45304804Y-61101227D01*
X45310765Y-61077428D01*
X45319030Y-61054329D01*
X45329520Y-61032150D01*
X45342132Y-61011107D01*
X45356747Y-60991401D01*
X45373223Y-60973223D01*
X45391401Y-60956747D01*
X45411107Y-60942132D01*
X45432150Y-60929520D01*
X45454329Y-60919030D01*
X45477428Y-60910765D01*
X45501227Y-60904804D01*
X45525495Y-60901204D01*
X45549999Y-60900000D01*
X46450001Y-60900000D01*
X46474505Y-60901204D01*
G37*
G36*
X48724505Y-80151204D02*
G01*
X48748773Y-80154804D01*
X48772572Y-80160765D01*
X48795671Y-80169030D01*
X48817850Y-80179520D01*
X48838893Y-80192132D01*
X48858599Y-80206747D01*
X48876777Y-80223223D01*
X48893253Y-80241401D01*
X48907868Y-80261107D01*
X48920480Y-80282150D01*
X48930970Y-80304329D01*
X48939235Y-80327428D01*
X48945196Y-80351227D01*
X48948796Y-80375495D01*
X48950000Y-80399999D01*
X48950000Y-81050001D01*
X48948796Y-81074505D01*
X48945196Y-81098773D01*
X48939235Y-81122572D01*
X48930970Y-81145671D01*
X48920480Y-81167850D01*
X48907868Y-81188893D01*
X48893253Y-81208599D01*
X48876777Y-81226777D01*
X48858599Y-81243253D01*
X48838893Y-81257868D01*
X48817850Y-81270480D01*
X48795671Y-81280970D01*
X48772572Y-81289235D01*
X48748773Y-81295196D01*
X48724505Y-81298796D01*
X48700001Y-81300000D01*
X47799999Y-81300000D01*
X47775495Y-81298796D01*
X47751227Y-81295196D01*
X47727428Y-81289235D01*
X47704329Y-81280970D01*
X47682150Y-81270480D01*
X47661107Y-81257868D01*
X47641401Y-81243253D01*
X47623223Y-81226777D01*
X47606747Y-81208599D01*
X47592132Y-81188893D01*
X47579520Y-81167850D01*
X47569030Y-81145671D01*
X47560765Y-81122572D01*
X47554804Y-81098773D01*
X47551204Y-81074505D01*
X47550000Y-81050001D01*
X47550000Y-80399999D01*
X47551204Y-80375495D01*
X47554804Y-80351227D01*
X47560765Y-80327428D01*
X47569030Y-80304329D01*
X47579520Y-80282150D01*
X47592132Y-80261107D01*
X47606747Y-80241401D01*
X47623223Y-80223223D01*
X47641401Y-80206747D01*
X47661107Y-80192132D01*
X47682150Y-80179520D01*
X47704329Y-80169030D01*
X47727428Y-80160765D01*
X47751227Y-80154804D01*
X47775495Y-80151204D01*
X47799999Y-80150000D01*
X48700001Y-80150000D01*
X48724505Y-80151204D01*
G37*
G36*
X48724505Y-82201204D02*
G01*
X48748773Y-82204804D01*
X48772572Y-82210765D01*
X48795671Y-82219030D01*
X48817850Y-82229520D01*
X48838893Y-82242132D01*
X48858599Y-82256747D01*
X48876777Y-82273223D01*
X48893253Y-82291401D01*
X48907868Y-82311107D01*
X48920480Y-82332150D01*
X48930970Y-82354329D01*
X48939235Y-82377428D01*
X48945196Y-82401227D01*
X48948796Y-82425495D01*
X48950000Y-82449999D01*
X48950000Y-83100001D01*
X48948796Y-83124505D01*
X48945196Y-83148773D01*
X48939235Y-83172572D01*
X48930970Y-83195671D01*
X48920480Y-83217850D01*
X48907868Y-83238893D01*
X48893253Y-83258599D01*
X48876777Y-83276777D01*
X48858599Y-83293253D01*
X48838893Y-83307868D01*
X48817850Y-83320480D01*
X48795671Y-83330970D01*
X48772572Y-83339235D01*
X48748773Y-83345196D01*
X48724505Y-83348796D01*
X48700001Y-83350000D01*
X47799999Y-83350000D01*
X47775495Y-83348796D01*
X47751227Y-83345196D01*
X47727428Y-83339235D01*
X47704329Y-83330970D01*
X47682150Y-83320480D01*
X47661107Y-83307868D01*
X47641401Y-83293253D01*
X47623223Y-83276777D01*
X47606747Y-83258599D01*
X47592132Y-83238893D01*
X47579520Y-83217850D01*
X47569030Y-83195671D01*
X47560765Y-83172572D01*
X47554804Y-83148773D01*
X47551204Y-83124505D01*
X47550000Y-83100001D01*
X47550000Y-82449999D01*
X47551204Y-82425495D01*
X47554804Y-82401227D01*
X47560765Y-82377428D01*
X47569030Y-82354329D01*
X47579520Y-82332150D01*
X47592132Y-82311107D01*
X47606747Y-82291401D01*
X47623223Y-82273223D01*
X47641401Y-82256747D01*
X47661107Y-82242132D01*
X47682150Y-82229520D01*
X47704329Y-82219030D01*
X47727428Y-82210765D01*
X47751227Y-82204804D01*
X47775495Y-82201204D01*
X47799999Y-82200000D01*
X48700001Y-82200000D01*
X48724505Y-82201204D01*
G37*
G36*
X45824505Y-76801204D02*
G01*
X45848773Y-76804804D01*
X45872572Y-76810765D01*
X45895671Y-76819030D01*
X45917850Y-76829520D01*
X45938893Y-76842132D01*
X45958599Y-76856747D01*
X45976777Y-76873223D01*
X45993253Y-76891401D01*
X46007868Y-76911107D01*
X46020480Y-76932150D01*
X46030970Y-76954329D01*
X46039235Y-76977428D01*
X46045196Y-77001227D01*
X46048796Y-77025495D01*
X46050000Y-77049999D01*
X46050000Y-77950001D01*
X46048796Y-77974505D01*
X46045196Y-77998773D01*
X46039235Y-78022572D01*
X46030970Y-78045671D01*
X46020480Y-78067850D01*
X46007868Y-78088893D01*
X45993253Y-78108599D01*
X45976777Y-78126777D01*
X45958599Y-78143253D01*
X45938893Y-78157868D01*
X45917850Y-78170480D01*
X45895671Y-78180970D01*
X45872572Y-78189235D01*
X45848773Y-78195196D01*
X45824505Y-78198796D01*
X45800001Y-78200000D01*
X45149999Y-78200000D01*
X45125495Y-78198796D01*
X45101227Y-78195196D01*
X45077428Y-78189235D01*
X45054329Y-78180970D01*
X45032150Y-78170480D01*
X45011107Y-78157868D01*
X44991401Y-78143253D01*
X44973223Y-78126777D01*
X44956747Y-78108599D01*
X44942132Y-78088893D01*
X44929520Y-78067850D01*
X44919030Y-78045671D01*
X44910765Y-78022572D01*
X44904804Y-77998773D01*
X44901204Y-77974505D01*
X44900000Y-77950001D01*
X44900000Y-77049999D01*
X44901204Y-77025495D01*
X44904804Y-77001227D01*
X44910765Y-76977428D01*
X44919030Y-76954329D01*
X44929520Y-76932150D01*
X44942132Y-76911107D01*
X44956747Y-76891401D01*
X44973223Y-76873223D01*
X44991401Y-76856747D01*
X45011107Y-76842132D01*
X45032150Y-76829520D01*
X45054329Y-76819030D01*
X45077428Y-76810765D01*
X45101227Y-76804804D01*
X45125495Y-76801204D01*
X45149999Y-76800000D01*
X45800001Y-76800000D01*
X45824505Y-76801204D01*
G37*
G36*
X47874505Y-76801204D02*
G01*
X47898773Y-76804804D01*
X47922572Y-76810765D01*
X47945671Y-76819030D01*
X47967850Y-76829520D01*
X47988893Y-76842132D01*
X48008599Y-76856747D01*
X48026777Y-76873223D01*
X48043253Y-76891401D01*
X48057868Y-76911107D01*
X48070480Y-76932150D01*
X48080970Y-76954329D01*
X48089235Y-76977428D01*
X48095196Y-77001227D01*
X48098796Y-77025495D01*
X48100000Y-77049999D01*
X48100000Y-77950001D01*
X48098796Y-77974505D01*
X48095196Y-77998773D01*
X48089235Y-78022572D01*
X48080970Y-78045671D01*
X48070480Y-78067850D01*
X48057868Y-78088893D01*
X48043253Y-78108599D01*
X48026777Y-78126777D01*
X48008599Y-78143253D01*
X47988893Y-78157868D01*
X47967850Y-78170480D01*
X47945671Y-78180970D01*
X47922572Y-78189235D01*
X47898773Y-78195196D01*
X47874505Y-78198796D01*
X47850001Y-78200000D01*
X47199999Y-78200000D01*
X47175495Y-78198796D01*
X47151227Y-78195196D01*
X47127428Y-78189235D01*
X47104329Y-78180970D01*
X47082150Y-78170480D01*
X47061107Y-78157868D01*
X47041401Y-78143253D01*
X47023223Y-78126777D01*
X47006747Y-78108599D01*
X46992132Y-78088893D01*
X46979520Y-78067850D01*
X46969030Y-78045671D01*
X46960765Y-78022572D01*
X46954804Y-77998773D01*
X46951204Y-77974505D01*
X46950000Y-77950001D01*
X46950000Y-77049999D01*
X46951204Y-77025495D01*
X46954804Y-77001227D01*
X46960765Y-76977428D01*
X46969030Y-76954329D01*
X46979520Y-76932150D01*
X46992132Y-76911107D01*
X47006747Y-76891401D01*
X47023223Y-76873223D01*
X47041401Y-76856747D01*
X47061107Y-76842132D01*
X47082150Y-76829520D01*
X47104329Y-76819030D01*
X47127428Y-76810765D01*
X47151227Y-76804804D01*
X47175495Y-76801204D01*
X47199999Y-76800000D01*
X47850001Y-76800000D01*
X47874505Y-76801204D01*
G37*
G36*
X56724505Y-64151204D02*
G01*
X56748773Y-64154804D01*
X56772572Y-64160765D01*
X56795671Y-64169030D01*
X56817850Y-64179520D01*
X56838893Y-64192132D01*
X56858599Y-64206747D01*
X56876777Y-64223223D01*
X56893253Y-64241401D01*
X56907868Y-64261107D01*
X56920480Y-64282150D01*
X56930970Y-64304329D01*
X56939235Y-64327428D01*
X56945196Y-64351227D01*
X56948796Y-64375495D01*
X56950000Y-64399999D01*
X56950000Y-65050001D01*
X56948796Y-65074505D01*
X56945196Y-65098773D01*
X56939235Y-65122572D01*
X56930970Y-65145671D01*
X56920480Y-65167850D01*
X56907868Y-65188893D01*
X56893253Y-65208599D01*
X56876777Y-65226777D01*
X56858599Y-65243253D01*
X56838893Y-65257868D01*
X56817850Y-65270480D01*
X56795671Y-65280970D01*
X56772572Y-65289235D01*
X56748773Y-65295196D01*
X56724505Y-65298796D01*
X56700001Y-65300000D01*
X55799999Y-65300000D01*
X55775495Y-65298796D01*
X55751227Y-65295196D01*
X55727428Y-65289235D01*
X55704329Y-65280970D01*
X55682150Y-65270480D01*
X55661107Y-65257868D01*
X55641401Y-65243253D01*
X55623223Y-65226777D01*
X55606747Y-65208599D01*
X55592132Y-65188893D01*
X55579520Y-65167850D01*
X55569030Y-65145671D01*
X55560765Y-65122572D01*
X55554804Y-65098773D01*
X55551204Y-65074505D01*
X55550000Y-65050001D01*
X55550000Y-64399999D01*
X55551204Y-64375495D01*
X55554804Y-64351227D01*
X55560765Y-64327428D01*
X55569030Y-64304329D01*
X55579520Y-64282150D01*
X55592132Y-64261107D01*
X55606747Y-64241401D01*
X55623223Y-64223223D01*
X55641401Y-64206747D01*
X55661107Y-64192132D01*
X55682150Y-64179520D01*
X55704329Y-64169030D01*
X55727428Y-64160765D01*
X55751227Y-64154804D01*
X55775495Y-64151204D01*
X55799999Y-64150000D01*
X56700001Y-64150000D01*
X56724505Y-64151204D01*
G37*
G36*
X56724505Y-66201204D02*
G01*
X56748773Y-66204804D01*
X56772572Y-66210765D01*
X56795671Y-66219030D01*
X56817850Y-66229520D01*
X56838893Y-66242132D01*
X56858599Y-66256747D01*
X56876777Y-66273223D01*
X56893253Y-66291401D01*
X56907868Y-66311107D01*
X56920480Y-66332150D01*
X56930970Y-66354329D01*
X56939235Y-66377428D01*
X56945196Y-66401227D01*
X56948796Y-66425495D01*
X56950000Y-66449999D01*
X56950000Y-67100001D01*
X56948796Y-67124505D01*
X56945196Y-67148773D01*
X56939235Y-67172572D01*
X56930970Y-67195671D01*
X56920480Y-67217850D01*
X56907868Y-67238893D01*
X56893253Y-67258599D01*
X56876777Y-67276777D01*
X56858599Y-67293253D01*
X56838893Y-67307868D01*
X56817850Y-67320480D01*
X56795671Y-67330970D01*
X56772572Y-67339235D01*
X56748773Y-67345196D01*
X56724505Y-67348796D01*
X56700001Y-67350000D01*
X55799999Y-67350000D01*
X55775495Y-67348796D01*
X55751227Y-67345196D01*
X55727428Y-67339235D01*
X55704329Y-67330970D01*
X55682150Y-67320480D01*
X55661107Y-67307868D01*
X55641401Y-67293253D01*
X55623223Y-67276777D01*
X55606747Y-67258599D01*
X55592132Y-67238893D01*
X55579520Y-67217850D01*
X55569030Y-67195671D01*
X55560765Y-67172572D01*
X55554804Y-67148773D01*
X55551204Y-67124505D01*
X55550000Y-67100001D01*
X55550000Y-66449999D01*
X55551204Y-66425495D01*
X55554804Y-66401227D01*
X55560765Y-66377428D01*
X55569030Y-66354329D01*
X55579520Y-66332150D01*
X55592132Y-66311107D01*
X55606747Y-66291401D01*
X55623223Y-66273223D01*
X55641401Y-66256747D01*
X55661107Y-66242132D01*
X55682150Y-66229520D01*
X55704329Y-66219030D01*
X55727428Y-66210765D01*
X55751227Y-66204804D01*
X55775495Y-66201204D01*
X55799999Y-66200000D01*
X56700001Y-66200000D01*
X56724505Y-66201204D01*
G37*
G36*
X38010779Y-80351144D02*
G01*
X38033834Y-80354563D01*
X38056443Y-80360227D01*
X38078387Y-80368079D01*
X38099457Y-80378044D01*
X38119448Y-80390026D01*
X38138168Y-80403910D01*
X38155438Y-80419562D01*
X38171090Y-80436832D01*
X38184974Y-80455552D01*
X38196956Y-80475543D01*
X38206921Y-80496613D01*
X38214773Y-80518557D01*
X38220437Y-80541166D01*
X38223856Y-80564221D01*
X38225000Y-80587500D01*
X38225000Y-81162500D01*
X38223856Y-81185779D01*
X38220437Y-81208834D01*
X38214773Y-81231443D01*
X38206921Y-81253387D01*
X38196956Y-81274457D01*
X38184974Y-81294448D01*
X38171090Y-81313168D01*
X38155438Y-81330438D01*
X38138168Y-81346090D01*
X38119448Y-81359974D01*
X38099457Y-81371956D01*
X38078387Y-81381921D01*
X38056443Y-81389773D01*
X38033834Y-81395437D01*
X38010779Y-81398856D01*
X37987500Y-81400000D01*
X37512500Y-81400000D01*
X37489221Y-81398856D01*
X37466166Y-81395437D01*
X37443557Y-81389773D01*
X37421613Y-81381921D01*
X37400543Y-81371956D01*
X37380552Y-81359974D01*
X37361832Y-81346090D01*
X37344562Y-81330438D01*
X37328910Y-81313168D01*
X37315026Y-81294448D01*
X37303044Y-81274457D01*
X37293079Y-81253387D01*
X37285227Y-81231443D01*
X37279563Y-81208834D01*
X37276144Y-81185779D01*
X37275000Y-81162500D01*
X37275000Y-80587500D01*
X37276144Y-80564221D01*
X37279563Y-80541166D01*
X37285227Y-80518557D01*
X37293079Y-80496613D01*
X37303044Y-80475543D01*
X37315026Y-80455552D01*
X37328910Y-80436832D01*
X37344562Y-80419562D01*
X37361832Y-80403910D01*
X37380552Y-80390026D01*
X37400543Y-80378044D01*
X37421613Y-80368079D01*
X37443557Y-80360227D01*
X37466166Y-80354563D01*
X37489221Y-80351144D01*
X37512500Y-80350000D01*
X37987500Y-80350000D01*
X38010779Y-80351144D01*
G37*
G36*
X38010779Y-82101144D02*
G01*
X38033834Y-82104563D01*
X38056443Y-82110227D01*
X38078387Y-82118079D01*
X38099457Y-82128044D01*
X38119448Y-82140026D01*
X38138168Y-82153910D01*
X38155438Y-82169562D01*
X38171090Y-82186832D01*
X38184974Y-82205552D01*
X38196956Y-82225543D01*
X38206921Y-82246613D01*
X38214773Y-82268557D01*
X38220437Y-82291166D01*
X38223856Y-82314221D01*
X38225000Y-82337500D01*
X38225000Y-82912500D01*
X38223856Y-82935779D01*
X38220437Y-82958834D01*
X38214773Y-82981443D01*
X38206921Y-83003387D01*
X38196956Y-83024457D01*
X38184974Y-83044448D01*
X38171090Y-83063168D01*
X38155438Y-83080438D01*
X38138168Y-83096090D01*
X38119448Y-83109974D01*
X38099457Y-83121956D01*
X38078387Y-83131921D01*
X38056443Y-83139773D01*
X38033834Y-83145437D01*
X38010779Y-83148856D01*
X37987500Y-83150000D01*
X37512500Y-83150000D01*
X37489221Y-83148856D01*
X37466166Y-83145437D01*
X37443557Y-83139773D01*
X37421613Y-83131921D01*
X37400543Y-83121956D01*
X37380552Y-83109974D01*
X37361832Y-83096090D01*
X37344562Y-83080438D01*
X37328910Y-83063168D01*
X37315026Y-83044448D01*
X37303044Y-83024457D01*
X37293079Y-83003387D01*
X37285227Y-82981443D01*
X37279563Y-82958834D01*
X37276144Y-82935779D01*
X37275000Y-82912500D01*
X37275000Y-82337500D01*
X37276144Y-82314221D01*
X37279563Y-82291166D01*
X37285227Y-82268557D01*
X37293079Y-82246613D01*
X37303044Y-82225543D01*
X37315026Y-82205552D01*
X37328910Y-82186832D01*
X37344562Y-82169562D01*
X37361832Y-82153910D01*
X37380552Y-82140026D01*
X37400543Y-82128044D01*
X37421613Y-82118079D01*
X37443557Y-82110227D01*
X37466166Y-82104563D01*
X37489221Y-82101144D01*
X37512500Y-82100000D01*
X37987500Y-82100000D01*
X38010779Y-82101144D01*
G37*
G36*
X54974505Y-53151204D02*
G01*
X54998773Y-53154804D01*
X55022572Y-53160765D01*
X55045671Y-53169030D01*
X55067850Y-53179520D01*
X55088893Y-53192132D01*
X55108599Y-53206747D01*
X55126777Y-53223223D01*
X55143253Y-53241401D01*
X55157868Y-53261107D01*
X55170480Y-53282150D01*
X55180970Y-53304329D01*
X55189235Y-53327428D01*
X55195196Y-53351227D01*
X55198796Y-53375495D01*
X55200000Y-53399999D01*
X55200000Y-54050001D01*
X55198796Y-54074505D01*
X55195196Y-54098773D01*
X55189235Y-54122572D01*
X55180970Y-54145671D01*
X55170480Y-54167850D01*
X55157868Y-54188893D01*
X55143253Y-54208599D01*
X55126777Y-54226777D01*
X55108599Y-54243253D01*
X55088893Y-54257868D01*
X55067850Y-54270480D01*
X55045671Y-54280970D01*
X55022572Y-54289235D01*
X54998773Y-54295196D01*
X54974505Y-54298796D01*
X54950001Y-54300000D01*
X54049999Y-54300000D01*
X54025495Y-54298796D01*
X54001227Y-54295196D01*
X53977428Y-54289235D01*
X53954329Y-54280970D01*
X53932150Y-54270480D01*
X53911107Y-54257868D01*
X53891401Y-54243253D01*
X53873223Y-54226777D01*
X53856747Y-54208599D01*
X53842132Y-54188893D01*
X53829520Y-54167850D01*
X53819030Y-54145671D01*
X53810765Y-54122572D01*
X53804804Y-54098773D01*
X53801204Y-54074505D01*
X53800000Y-54050001D01*
X53800000Y-53399999D01*
X53801204Y-53375495D01*
X53804804Y-53351227D01*
X53810765Y-53327428D01*
X53819030Y-53304329D01*
X53829520Y-53282150D01*
X53842132Y-53261107D01*
X53856747Y-53241401D01*
X53873223Y-53223223D01*
X53891401Y-53206747D01*
X53911107Y-53192132D01*
X53932150Y-53179520D01*
X53954329Y-53169030D01*
X53977428Y-53160765D01*
X54001227Y-53154804D01*
X54025495Y-53151204D01*
X54049999Y-53150000D01*
X54950001Y-53150000D01*
X54974505Y-53151204D01*
G37*
G36*
X54974505Y-55201204D02*
G01*
X54998773Y-55204804D01*
X55022572Y-55210765D01*
X55045671Y-55219030D01*
X55067850Y-55229520D01*
X55088893Y-55242132D01*
X55108599Y-55256747D01*
X55126777Y-55273223D01*
X55143253Y-55291401D01*
X55157868Y-55311107D01*
X55170480Y-55332150D01*
X55180970Y-55354329D01*
X55189235Y-55377428D01*
X55195196Y-55401227D01*
X55198796Y-55425495D01*
X55200000Y-55449999D01*
X55200000Y-56100001D01*
X55198796Y-56124505D01*
X55195196Y-56148773D01*
X55189235Y-56172572D01*
X55180970Y-56195671D01*
X55170480Y-56217850D01*
X55157868Y-56238893D01*
X55143253Y-56258599D01*
X55126777Y-56276777D01*
X55108599Y-56293253D01*
X55088893Y-56307868D01*
X55067850Y-56320480D01*
X55045671Y-56330970D01*
X55022572Y-56339235D01*
X54998773Y-56345196D01*
X54974505Y-56348796D01*
X54950001Y-56350000D01*
X54049999Y-56350000D01*
X54025495Y-56348796D01*
X54001227Y-56345196D01*
X53977428Y-56339235D01*
X53954329Y-56330970D01*
X53932150Y-56320480D01*
X53911107Y-56307868D01*
X53891401Y-56293253D01*
X53873223Y-56276777D01*
X53856747Y-56258599D01*
X53842132Y-56238893D01*
X53829520Y-56217850D01*
X53819030Y-56195671D01*
X53810765Y-56172572D01*
X53804804Y-56148773D01*
X53801204Y-56124505D01*
X53800000Y-56100001D01*
X53800000Y-55449999D01*
X53801204Y-55425495D01*
X53804804Y-55401227D01*
X53810765Y-55377428D01*
X53819030Y-55354329D01*
X53829520Y-55332150D01*
X53842132Y-55311107D01*
X53856747Y-55291401D01*
X53873223Y-55273223D01*
X53891401Y-55256747D01*
X53911107Y-55242132D01*
X53932150Y-55229520D01*
X53954329Y-55219030D01*
X53977428Y-55210765D01*
X54001227Y-55204804D01*
X54025495Y-55201204D01*
X54049999Y-55200000D01*
X54950001Y-55200000D01*
X54974505Y-55201204D01*
G37*
G36*
X54624505Y-45301204D02*
G01*
X54648773Y-45304804D01*
X54672572Y-45310765D01*
X54695671Y-45319030D01*
X54717850Y-45329520D01*
X54738893Y-45342132D01*
X54758599Y-45356747D01*
X54776777Y-45373223D01*
X54793253Y-45391401D01*
X54807868Y-45411107D01*
X54820480Y-45432150D01*
X54830970Y-45454329D01*
X54839235Y-45477428D01*
X54845196Y-45501227D01*
X54848796Y-45525495D01*
X54850000Y-45549999D01*
X54850000Y-46450001D01*
X54848796Y-46474505D01*
X54845196Y-46498773D01*
X54839235Y-46522572D01*
X54830970Y-46545671D01*
X54820480Y-46567850D01*
X54807868Y-46588893D01*
X54793253Y-46608599D01*
X54776777Y-46626777D01*
X54758599Y-46643253D01*
X54738893Y-46657868D01*
X54717850Y-46670480D01*
X54695671Y-46680970D01*
X54672572Y-46689235D01*
X54648773Y-46695196D01*
X54624505Y-46698796D01*
X54600001Y-46700000D01*
X53949999Y-46700000D01*
X53925495Y-46698796D01*
X53901227Y-46695196D01*
X53877428Y-46689235D01*
X53854329Y-46680970D01*
X53832150Y-46670480D01*
X53811107Y-46657868D01*
X53791401Y-46643253D01*
X53773223Y-46626777D01*
X53756747Y-46608599D01*
X53742132Y-46588893D01*
X53729520Y-46567850D01*
X53719030Y-46545671D01*
X53710765Y-46522572D01*
X53704804Y-46498773D01*
X53701204Y-46474505D01*
X53700000Y-46450001D01*
X53700000Y-45549999D01*
X53701204Y-45525495D01*
X53704804Y-45501227D01*
X53710765Y-45477428D01*
X53719030Y-45454329D01*
X53729520Y-45432150D01*
X53742132Y-45411107D01*
X53756747Y-45391401D01*
X53773223Y-45373223D01*
X53791401Y-45356747D01*
X53811107Y-45342132D01*
X53832150Y-45329520D01*
X53854329Y-45319030D01*
X53877428Y-45310765D01*
X53901227Y-45304804D01*
X53925495Y-45301204D01*
X53949999Y-45300000D01*
X54600001Y-45300000D01*
X54624505Y-45301204D01*
G37*
G36*
X52574505Y-45301204D02*
G01*
X52598773Y-45304804D01*
X52622572Y-45310765D01*
X52645671Y-45319030D01*
X52667850Y-45329520D01*
X52688893Y-45342132D01*
X52708599Y-45356747D01*
X52726777Y-45373223D01*
X52743253Y-45391401D01*
X52757868Y-45411107D01*
X52770480Y-45432150D01*
X52780970Y-45454329D01*
X52789235Y-45477428D01*
X52795196Y-45501227D01*
X52798796Y-45525495D01*
X52800000Y-45549999D01*
X52800000Y-46450001D01*
X52798796Y-46474505D01*
X52795196Y-46498773D01*
X52789235Y-46522572D01*
X52780970Y-46545671D01*
X52770480Y-46567850D01*
X52757868Y-46588893D01*
X52743253Y-46608599D01*
X52726777Y-46626777D01*
X52708599Y-46643253D01*
X52688893Y-46657868D01*
X52667850Y-46670480D01*
X52645671Y-46680970D01*
X52622572Y-46689235D01*
X52598773Y-46695196D01*
X52574505Y-46698796D01*
X52550001Y-46700000D01*
X51899999Y-46700000D01*
X51875495Y-46698796D01*
X51851227Y-46695196D01*
X51827428Y-46689235D01*
X51804329Y-46680970D01*
X51782150Y-46670480D01*
X51761107Y-46657868D01*
X51741401Y-46643253D01*
X51723223Y-46626777D01*
X51706747Y-46608599D01*
X51692132Y-46588893D01*
X51679520Y-46567850D01*
X51669030Y-46545671D01*
X51660765Y-46522572D01*
X51654804Y-46498773D01*
X51651204Y-46474505D01*
X51650000Y-46450001D01*
X51650000Y-45549999D01*
X51651204Y-45525495D01*
X51654804Y-45501227D01*
X51660765Y-45477428D01*
X51669030Y-45454329D01*
X51679520Y-45432150D01*
X51692132Y-45411107D01*
X51706747Y-45391401D01*
X51723223Y-45373223D01*
X51741401Y-45356747D01*
X51761107Y-45342132D01*
X51782150Y-45329520D01*
X51804329Y-45319030D01*
X51827428Y-45310765D01*
X51851227Y-45304804D01*
X51875495Y-45301204D01*
X51899999Y-45300000D01*
X52550001Y-45300000D01*
X52574505Y-45301204D01*
G37*
M02*
