G04 #@! TF.GenerationSoftware,KiCad,Pcbnew,(5.1.5)-3*
G04 #@! TF.CreationDate,2021-05-19T18:43:05+02:00*
G04 #@! TF.ProjectId,esp12Board,65737031-3242-46f6-9172-642e6b696361,rev?*
G04 #@! TF.SameCoordinates,Original*
G04 #@! TF.FileFunction,Legend,Bot*
G04 #@! TF.FilePolarity,Positive*
%FSLAX46Y46*%
G04 Gerber Fmt 4.6, Leading zero omitted, Abs format (unit mm)*
G04 Created by KiCad (PCBNEW (5.1.5)-3) date 2021-05-19 18:43:05*
%MOMM*%
%LPD*%
G04 APERTURE LIST*
%ADD10O,1.802000X1.802000*%
%ADD11R,1.802000X1.802000*%
%ADD12O,1.829200X1.829200*%
%ADD13R,1.829200X1.829200*%
%ADD14C,3.302000*%
%ADD15C,1.702000*%
%ADD16R,1.702000X1.702000*%
%ADD17C,2.702000*%
%ADD18R,2.702000X2.702000*%
%ADD19C,2.102000*%
G04 APERTURE END LIST*
%LPC*%
D10*
X52500000Y-42080000D03*
X52500000Y-39540000D03*
D11*
X52500000Y-37000000D03*
D10*
X48500000Y-42080000D03*
X48500000Y-39540000D03*
D11*
X48500000Y-37000000D03*
D12*
X65540000Y-79660000D03*
X63000000Y-79660000D03*
X65540000Y-77120000D03*
X63000000Y-77120000D03*
X65540000Y-74580000D03*
X63000000Y-74580000D03*
X65540000Y-72040000D03*
X63000000Y-72040000D03*
X65540000Y-69500000D03*
D13*
X63000000Y-69500000D03*
D10*
X73170000Y-76250000D03*
X75710000Y-76250000D03*
D11*
X78250000Y-76250000D03*
D10*
X73170000Y-72000000D03*
X75710000Y-72000000D03*
D11*
X78250000Y-72000000D03*
D14*
X33500000Y-81500000D03*
X76500000Y-81500000D03*
X33500000Y-38500000D03*
X76750000Y-38500000D03*
D15*
X38000000Y-75750000D03*
D16*
X35500000Y-75750000D03*
D15*
X39750000Y-49750000D03*
D16*
X39750000Y-52250000D03*
D17*
X35750000Y-64670000D03*
D18*
X35750000Y-69750000D03*
D19*
X44000000Y-43000000D03*
X39500000Y-43000000D03*
X44000000Y-36500000D03*
X39500000Y-36500000D03*
D10*
X73170000Y-67750000D03*
X75710000Y-67750000D03*
D11*
X78250000Y-67750000D03*
D10*
X31750000Y-59240000D03*
X31750000Y-56700000D03*
X31750000Y-54160000D03*
X31750000Y-51620000D03*
X31750000Y-49080000D03*
X31750000Y-46540000D03*
D11*
X31750000Y-44000000D03*
M02*
