G04 #@! TF.GenerationSoftware,KiCad,Pcbnew,(5.1.5)-3*
G04 #@! TF.CreationDate,2021-05-19T18:43:05+02:00*
G04 #@! TF.ProjectId,esp12Board,65737031-3242-46f6-9172-642e6b696361,rev?*
G04 #@! TF.SameCoordinates,Original*
G04 #@! TF.FileFunction,Legend,Top*
G04 #@! TF.FilePolarity,Positive*
%FSLAX46Y46*%
G04 Gerber Fmt 4.6, Leading zero omitted, Abs format (unit mm)*
G04 Created by KiCad (PCBNEW (5.1.5)-3) date 2021-05-19 18:43:05*
%MOMM*%
%LPD*%
G04 APERTURE LIST*
%ADD10C,0.150000*%
%ADD11C,0.120000*%
%ADD12C,0.127000*%
%ADD13C,0.200000*%
%ADD14C,0.015000*%
%ADD15C,0.254000*%
%ADD16R,1.002000X0.902000*%
%ADD17O,1.802000X1.802000*%
%ADD18R,1.802000X1.802000*%
%ADD19O,1.829200X1.829200*%
%ADD20R,1.829200X1.829200*%
%ADD21C,3.302000*%
%ADD22C,0.100000*%
%ADD23C,1.702000*%
%ADD24R,1.702000X1.702000*%
%ADD25C,2.702000*%
%ADD26R,2.702000X2.702000*%
%ADD27R,1.602000X2.102000*%
%ADD28R,3.902000X2.102000*%
%ADD29R,1.202000X1.802000*%
%ADD30R,2.102000X1.302000*%
%ADD31C,2.102000*%
%ADD32R,3.602000X3.052000*%
%ADD33R,1.602000X1.102000*%
%ADD34R,1.627000X0.752000*%
%ADD35R,1.002000X1.302000*%
G04 APERTURE END LIST*
D10*
X37761904Y-45952380D02*
X37428571Y-45476190D01*
X37190476Y-45952380D02*
X37190476Y-44952380D01*
X37571428Y-44952380D01*
X37666666Y-45000000D01*
X37714285Y-45047619D01*
X37761904Y-45142857D01*
X37761904Y-45285714D01*
X37714285Y-45380952D01*
X37666666Y-45428571D01*
X37571428Y-45476190D01*
X37190476Y-45476190D01*
X38571428Y-45904761D02*
X38476190Y-45952380D01*
X38285714Y-45952380D01*
X38190476Y-45904761D01*
X38142857Y-45809523D01*
X38142857Y-45428571D01*
X38190476Y-45333333D01*
X38285714Y-45285714D01*
X38476190Y-45285714D01*
X38571428Y-45333333D01*
X38619047Y-45428571D01*
X38619047Y-45523809D01*
X38142857Y-45619047D01*
X39000000Y-45904761D02*
X39095238Y-45952380D01*
X39285714Y-45952380D01*
X39380952Y-45904761D01*
X39428571Y-45809523D01*
X39428571Y-45761904D01*
X39380952Y-45666666D01*
X39285714Y-45619047D01*
X39142857Y-45619047D01*
X39047619Y-45571428D01*
X39000000Y-45476190D01*
X39000000Y-45428571D01*
X39047619Y-45333333D01*
X39142857Y-45285714D01*
X39285714Y-45285714D01*
X39380952Y-45333333D01*
X40238095Y-45904761D02*
X40142857Y-45952380D01*
X39952380Y-45952380D01*
X39857142Y-45904761D01*
X39809523Y-45809523D01*
X39809523Y-45428571D01*
X39857142Y-45333333D01*
X39952380Y-45285714D01*
X40142857Y-45285714D01*
X40238095Y-45333333D01*
X40285714Y-45428571D01*
X40285714Y-45523809D01*
X39809523Y-45619047D01*
X40571428Y-45285714D02*
X40952380Y-45285714D01*
X40714285Y-44952380D02*
X40714285Y-45809523D01*
X40761904Y-45904761D01*
X40857142Y-45952380D01*
X40952380Y-45952380D01*
X34404761Y-44452380D02*
X34071428Y-43976190D01*
X33833333Y-44452380D02*
X33833333Y-43452380D01*
X34214285Y-43452380D01*
X34309523Y-43500000D01*
X34357142Y-43547619D01*
X34404761Y-43642857D01*
X34404761Y-43785714D01*
X34357142Y-43880952D01*
X34309523Y-43928571D01*
X34214285Y-43976190D01*
X33833333Y-43976190D01*
X34738095Y-44452380D02*
X35261904Y-43785714D01*
X34738095Y-43785714D02*
X35261904Y-44452380D01*
X33809523Y-50952380D02*
X34428571Y-50952380D01*
X34095238Y-51333333D01*
X34238095Y-51333333D01*
X34333333Y-51380952D01*
X34380952Y-51428571D01*
X34428571Y-51523809D01*
X34428571Y-51761904D01*
X34380952Y-51857142D01*
X34333333Y-51904761D01*
X34238095Y-51952380D01*
X33952380Y-51952380D01*
X33857142Y-51904761D01*
X33809523Y-51857142D01*
X34761904Y-51285714D02*
X35000000Y-51952380D01*
X35238095Y-51285714D01*
X35523809Y-50952380D02*
X36142857Y-50952380D01*
X35809523Y-51333333D01*
X35952380Y-51333333D01*
X36047619Y-51380952D01*
X36095238Y-51428571D01*
X36142857Y-51523809D01*
X36142857Y-51761904D01*
X36095238Y-51857142D01*
X36047619Y-51904761D01*
X35952380Y-51952380D01*
X35666666Y-51952380D01*
X35571428Y-51904761D01*
X35523809Y-51857142D01*
X33738095Y-53952380D02*
X34309523Y-53952380D01*
X34023809Y-54952380D02*
X34023809Y-53952380D01*
X34547619Y-53952380D02*
X35214285Y-54952380D01*
X35214285Y-53952380D02*
X34547619Y-54952380D01*
X34238095Y-59000000D02*
X34142857Y-58952380D01*
X34000000Y-58952380D01*
X33857142Y-59000000D01*
X33761904Y-59095238D01*
X33714285Y-59190476D01*
X33666666Y-59380952D01*
X33666666Y-59523809D01*
X33714285Y-59714285D01*
X33761904Y-59809523D01*
X33857142Y-59904761D01*
X34000000Y-59952380D01*
X34095238Y-59952380D01*
X34238095Y-59904761D01*
X34285714Y-59857142D01*
X34285714Y-59523809D01*
X34095238Y-59523809D01*
X34714285Y-59952380D02*
X34714285Y-58952380D01*
X35285714Y-59952380D01*
X35285714Y-58952380D01*
X35761904Y-59952380D02*
X35761904Y-58952380D01*
X36000000Y-58952380D01*
X36142857Y-59000000D01*
X36238095Y-59095238D01*
X36285714Y-59190476D01*
X36333333Y-59380952D01*
X36333333Y-59523809D01*
X36285714Y-59714285D01*
X36238095Y-59809523D01*
X36142857Y-59904761D01*
X36000000Y-59952380D01*
X35761904Y-59952380D01*
X40952380Y-71023809D02*
X41952380Y-70690476D01*
X40952380Y-70357142D01*
X41952380Y-70023809D02*
X41285714Y-70023809D01*
X40952380Y-70023809D02*
X41000000Y-70071428D01*
X41047619Y-70023809D01*
X41000000Y-69976190D01*
X40952380Y-70023809D01*
X41047619Y-70023809D01*
X41285714Y-69547619D02*
X41952380Y-69547619D01*
X41380952Y-69547619D02*
X41333333Y-69500000D01*
X41285714Y-69404761D01*
X41285714Y-69261904D01*
X41333333Y-69166666D01*
X41428571Y-69119047D01*
X41952380Y-69119047D01*
X41000000Y-66261904D02*
X40952380Y-66357142D01*
X40952380Y-66500000D01*
X41000000Y-66642857D01*
X41095238Y-66738095D01*
X41190476Y-66785714D01*
X41380952Y-66833333D01*
X41523809Y-66833333D01*
X41714285Y-66785714D01*
X41809523Y-66738095D01*
X41904761Y-66642857D01*
X41952380Y-66500000D01*
X41952380Y-66404761D01*
X41904761Y-66261904D01*
X41857142Y-66214285D01*
X41523809Y-66214285D01*
X41523809Y-66404761D01*
X41952380Y-65785714D02*
X40952380Y-65785714D01*
X41952380Y-65214285D01*
X40952380Y-65214285D01*
X41952380Y-64738095D02*
X40952380Y-64738095D01*
X40952380Y-64500000D01*
X41000000Y-64357142D01*
X41095238Y-64261904D01*
X41190476Y-64214285D01*
X41380952Y-64166666D01*
X41523809Y-64166666D01*
X41714285Y-64214285D01*
X41809523Y-64261904D01*
X41904761Y-64357142D01*
X41952380Y-64500000D01*
X41952380Y-64738095D01*
X65738095Y-81000000D02*
X65642857Y-80952380D01*
X65500000Y-80952380D01*
X65357142Y-81000000D01*
X65261904Y-81095238D01*
X65214285Y-81190476D01*
X65166666Y-81380952D01*
X65166666Y-81523809D01*
X65214285Y-81714285D01*
X65261904Y-81809523D01*
X65357142Y-81904761D01*
X65500000Y-81952380D01*
X65595238Y-81952380D01*
X65738095Y-81904761D01*
X65785714Y-81857142D01*
X65785714Y-81523809D01*
X65595238Y-81523809D01*
X66214285Y-81952380D02*
X66214285Y-80952380D01*
X66785714Y-81952380D01*
X66785714Y-80952380D01*
X67261904Y-81952380D02*
X67261904Y-80952380D01*
X67500000Y-80952380D01*
X67642857Y-81000000D01*
X67738095Y-81095238D01*
X67785714Y-81190476D01*
X67833333Y-81380952D01*
X67833333Y-81523809D01*
X67785714Y-81714285D01*
X67738095Y-81809523D01*
X67642857Y-81904761D01*
X67500000Y-81952380D01*
X67261904Y-81952380D01*
X65357142Y-66952380D02*
X64880952Y-66952380D01*
X64833333Y-67428571D01*
X64880952Y-67380952D01*
X64976190Y-67333333D01*
X65214285Y-67333333D01*
X65309523Y-67380952D01*
X65357142Y-67428571D01*
X65404761Y-67523809D01*
X65404761Y-67761904D01*
X65357142Y-67857142D01*
X65309523Y-67904761D01*
X65214285Y-67952380D01*
X64976190Y-67952380D01*
X64880952Y-67904761D01*
X64833333Y-67857142D01*
X65738095Y-67285714D02*
X65976190Y-67952380D01*
X66214285Y-67285714D01*
X61309523Y-66952380D02*
X61928571Y-66952380D01*
X61595238Y-67333333D01*
X61738095Y-67333333D01*
X61833333Y-67380952D01*
X61880952Y-67428571D01*
X61928571Y-67523809D01*
X61928571Y-67761904D01*
X61880952Y-67857142D01*
X61833333Y-67904761D01*
X61738095Y-67952380D01*
X61452380Y-67952380D01*
X61357142Y-67904761D01*
X61309523Y-67857142D01*
X62261904Y-67285714D02*
X62500000Y-67952380D01*
X62738095Y-67285714D01*
X63023809Y-66952380D02*
X63642857Y-66952380D01*
X63309523Y-67333333D01*
X63452380Y-67333333D01*
X63547619Y-67380952D01*
X63595238Y-67428571D01*
X63642857Y-67523809D01*
X63642857Y-67761904D01*
X63595238Y-67857142D01*
X63547619Y-67904761D01*
X63452380Y-67952380D01*
X63166666Y-67952380D01*
X63071428Y-67904761D01*
X63023809Y-67857142D01*
X71166666Y-77238095D02*
X71166666Y-76761904D01*
X71452380Y-77333333D02*
X70452380Y-77000000D01*
X71452380Y-76666666D01*
X71452380Y-76333333D02*
X70452380Y-76333333D01*
X70452380Y-76095238D01*
X70500000Y-75952380D01*
X70595238Y-75857142D01*
X70690476Y-75809523D01*
X70880952Y-75761904D01*
X71023809Y-75761904D01*
X71214285Y-75809523D01*
X71309523Y-75857142D01*
X71404761Y-75952380D01*
X71452380Y-76095238D01*
X71452380Y-76333333D01*
X71357142Y-74761904D02*
X71404761Y-74809523D01*
X71452380Y-74952380D01*
X71452380Y-75047619D01*
X71404761Y-75190476D01*
X71309523Y-75285714D01*
X71214285Y-75333333D01*
X71023809Y-75380952D01*
X70880952Y-75380952D01*
X70690476Y-75333333D01*
X70595238Y-75285714D01*
X70500000Y-75190476D01*
X70452380Y-75047619D01*
X70452380Y-74952380D01*
X70500000Y-74809523D01*
X70547619Y-74761904D01*
X71452380Y-73476190D02*
X70452380Y-73476190D01*
X70452380Y-72809523D02*
X70452380Y-72619047D01*
X70500000Y-72523809D01*
X70595238Y-72428571D01*
X70785714Y-72380952D01*
X71119047Y-72380952D01*
X71309523Y-72428571D01*
X71404761Y-72523809D01*
X71452380Y-72619047D01*
X71452380Y-72809523D01*
X71404761Y-72904761D01*
X71309523Y-73000000D01*
X71119047Y-73047619D01*
X70785714Y-73047619D01*
X70595238Y-73000000D01*
X70500000Y-72904761D01*
X70452380Y-72809523D01*
X71452380Y-71428571D02*
X71452380Y-72000000D01*
X71452380Y-71714285D02*
X70452380Y-71714285D01*
X70595238Y-71809523D01*
X70690476Y-71904761D01*
X70738095Y-72000000D01*
X70452380Y-71095238D02*
X70452380Y-70476190D01*
X70833333Y-70809523D01*
X70833333Y-70666666D01*
X70880952Y-70571428D01*
X70928571Y-70523809D01*
X71023809Y-70476190D01*
X71261904Y-70476190D01*
X71357142Y-70523809D01*
X71404761Y-70571428D01*
X71452380Y-70666666D01*
X71452380Y-70952380D01*
X71404761Y-71047619D01*
X71357142Y-71095238D01*
X71452380Y-69476190D02*
X70452380Y-69476190D01*
X70452380Y-68809523D02*
X70452380Y-68619047D01*
X70500000Y-68523809D01*
X70595238Y-68428571D01*
X70785714Y-68380952D01*
X71119047Y-68380952D01*
X71309523Y-68428571D01*
X71404761Y-68523809D01*
X71452380Y-68619047D01*
X71452380Y-68809523D01*
X71404761Y-68904761D01*
X71309523Y-69000000D01*
X71119047Y-69047619D01*
X70785714Y-69047619D01*
X70595238Y-69000000D01*
X70500000Y-68904761D01*
X70452380Y-68809523D01*
X71452380Y-67428571D02*
X71452380Y-68000000D01*
X71452380Y-67714285D02*
X70452380Y-67714285D01*
X70595238Y-67809523D01*
X70690476Y-67904761D01*
X70738095Y-68000000D01*
X70547619Y-67047619D02*
X70500000Y-67000000D01*
X70452380Y-66904761D01*
X70452380Y-66666666D01*
X70500000Y-66571428D01*
X70547619Y-66523809D01*
X70642857Y-66476190D01*
X70738095Y-66476190D01*
X70880952Y-66523809D01*
X71452380Y-67095238D01*
X71452380Y-66476190D01*
D11*
X49260000Y-50580000D02*
X47800000Y-50580000D01*
X49260000Y-47420000D02*
X47100000Y-47420000D01*
X49260000Y-47420000D02*
X49260000Y-48350000D01*
X49260000Y-50580000D02*
X49260000Y-49650000D01*
X47740000Y-52920000D02*
X49200000Y-52920000D01*
X47740000Y-56080000D02*
X49900000Y-56080000D01*
X47740000Y-56080000D02*
X47740000Y-55150000D01*
X47740000Y-52920000D02*
X47740000Y-53850000D01*
X51170000Y-35670000D02*
X52500000Y-35670000D01*
X51170000Y-37000000D02*
X51170000Y-35670000D01*
X51170000Y-38270000D02*
X53830000Y-38270000D01*
X53830000Y-38270000D02*
X53830000Y-43410000D01*
X51170000Y-38270000D02*
X51170000Y-43410000D01*
X51170000Y-43410000D02*
X53830000Y-43410000D01*
X47170000Y-35670000D02*
X48500000Y-35670000D01*
X47170000Y-37000000D02*
X47170000Y-35670000D01*
X47170000Y-38270000D02*
X49830000Y-38270000D01*
X49830000Y-38270000D02*
X49830000Y-43410000D01*
X47170000Y-38270000D02*
X47170000Y-43410000D01*
X47170000Y-43410000D02*
X49830000Y-43410000D01*
X59345000Y-63900000D02*
X61885000Y-63900000D01*
X59345000Y-63900000D02*
X59345000Y-66440000D01*
X59595000Y-64150000D02*
X68945000Y-64150000D01*
X59595000Y-85010000D02*
X59595000Y-64150000D01*
X68945000Y-85010000D02*
X59595000Y-85010000D01*
X68945000Y-64150000D02*
X68945000Y-85010000D01*
X79580000Y-74920000D02*
X79580000Y-76250000D01*
X78250000Y-74920000D02*
X79580000Y-74920000D01*
X76980000Y-74920000D02*
X76980000Y-77580000D01*
X76980000Y-77580000D02*
X71840000Y-77580000D01*
X76980000Y-74920000D02*
X71840000Y-74920000D01*
X71840000Y-74920000D02*
X71840000Y-77580000D01*
X79580000Y-70670000D02*
X79580000Y-72000000D01*
X78250000Y-70670000D02*
X79580000Y-70670000D01*
X76980000Y-70670000D02*
X76980000Y-73330000D01*
X76980000Y-73330000D02*
X71840000Y-73330000D01*
X76980000Y-70670000D02*
X71840000Y-70670000D01*
X71840000Y-70670000D02*
X71840000Y-73330000D01*
X59210000Y-66011252D02*
X59210000Y-65488748D01*
X57790000Y-66011252D02*
X57790000Y-65488748D01*
X33210000Y-75511252D02*
X33210000Y-74988748D01*
X31790000Y-75511252D02*
X31790000Y-74988748D01*
X34195225Y-74025000D02*
X34195225Y-74525000D01*
X33945225Y-74275000D02*
X34445225Y-74275000D01*
X39351000Y-75466000D02*
X39351000Y-76034000D01*
X39311000Y-75232000D02*
X39311000Y-76268000D01*
X39271000Y-75073000D02*
X39271000Y-76427000D01*
X39231000Y-74945000D02*
X39231000Y-76555000D01*
X39191000Y-74835000D02*
X39191000Y-76665000D01*
X39151000Y-74739000D02*
X39151000Y-76761000D01*
X39111000Y-74652000D02*
X39111000Y-76848000D01*
X39071000Y-74572000D02*
X39071000Y-76928000D01*
X39031000Y-76790000D02*
X39031000Y-77001000D01*
X39031000Y-74499000D02*
X39031000Y-74710000D01*
X38991000Y-76790000D02*
X38991000Y-77069000D01*
X38991000Y-74431000D02*
X38991000Y-74710000D01*
X38951000Y-76790000D02*
X38951000Y-77133000D01*
X38951000Y-74367000D02*
X38951000Y-74710000D01*
X38911000Y-76790000D02*
X38911000Y-77193000D01*
X38911000Y-74307000D02*
X38911000Y-74710000D01*
X38871000Y-76790000D02*
X38871000Y-77250000D01*
X38871000Y-74250000D02*
X38871000Y-74710000D01*
X38831000Y-76790000D02*
X38831000Y-77304000D01*
X38831000Y-74196000D02*
X38831000Y-74710000D01*
X38791000Y-76790000D02*
X38791000Y-77355000D01*
X38791000Y-74145000D02*
X38791000Y-74710000D01*
X38751000Y-76790000D02*
X38751000Y-77403000D01*
X38751000Y-74097000D02*
X38751000Y-74710000D01*
X38711000Y-76790000D02*
X38711000Y-77449000D01*
X38711000Y-74051000D02*
X38711000Y-74710000D01*
X38671000Y-76790000D02*
X38671000Y-77493000D01*
X38671000Y-74007000D02*
X38671000Y-74710000D01*
X38631000Y-76790000D02*
X38631000Y-77535000D01*
X38631000Y-73965000D02*
X38631000Y-74710000D01*
X38591000Y-76790000D02*
X38591000Y-77576000D01*
X38591000Y-73924000D02*
X38591000Y-74710000D01*
X38551000Y-76790000D02*
X38551000Y-77614000D01*
X38551000Y-73886000D02*
X38551000Y-74710000D01*
X38511000Y-76790000D02*
X38511000Y-77651000D01*
X38511000Y-73849000D02*
X38511000Y-74710000D01*
X38471000Y-76790000D02*
X38471000Y-77687000D01*
X38471000Y-73813000D02*
X38471000Y-74710000D01*
X38431000Y-76790000D02*
X38431000Y-77721000D01*
X38431000Y-73779000D02*
X38431000Y-74710000D01*
X38391000Y-76790000D02*
X38391000Y-77754000D01*
X38391000Y-73746000D02*
X38391000Y-74710000D01*
X38351000Y-76790000D02*
X38351000Y-77785000D01*
X38351000Y-73715000D02*
X38351000Y-74710000D01*
X38311000Y-76790000D02*
X38311000Y-77815000D01*
X38311000Y-73685000D02*
X38311000Y-74710000D01*
X38271000Y-76790000D02*
X38271000Y-77845000D01*
X38271000Y-73655000D02*
X38271000Y-74710000D01*
X38231000Y-76790000D02*
X38231000Y-77872000D01*
X38231000Y-73628000D02*
X38231000Y-74710000D01*
X38191000Y-76790000D02*
X38191000Y-77899000D01*
X38191000Y-73601000D02*
X38191000Y-74710000D01*
X38151000Y-76790000D02*
X38151000Y-77925000D01*
X38151000Y-73575000D02*
X38151000Y-74710000D01*
X38111000Y-76790000D02*
X38111000Y-77950000D01*
X38111000Y-73550000D02*
X38111000Y-74710000D01*
X38071000Y-76790000D02*
X38071000Y-77974000D01*
X38071000Y-73526000D02*
X38071000Y-74710000D01*
X38031000Y-76790000D02*
X38031000Y-77997000D01*
X38031000Y-73503000D02*
X38031000Y-74710000D01*
X37991000Y-76790000D02*
X37991000Y-78018000D01*
X37991000Y-73482000D02*
X37991000Y-74710000D01*
X37951000Y-76790000D02*
X37951000Y-78040000D01*
X37951000Y-73460000D02*
X37951000Y-74710000D01*
X37911000Y-76790000D02*
X37911000Y-78060000D01*
X37911000Y-73440000D02*
X37911000Y-74710000D01*
X37871000Y-76790000D02*
X37871000Y-78079000D01*
X37871000Y-73421000D02*
X37871000Y-74710000D01*
X37831000Y-76790000D02*
X37831000Y-78098000D01*
X37831000Y-73402000D02*
X37831000Y-74710000D01*
X37791000Y-76790000D02*
X37791000Y-78115000D01*
X37791000Y-73385000D02*
X37791000Y-74710000D01*
X37751000Y-76790000D02*
X37751000Y-78132000D01*
X37751000Y-73368000D02*
X37751000Y-74710000D01*
X37711000Y-76790000D02*
X37711000Y-78148000D01*
X37711000Y-73352000D02*
X37711000Y-74710000D01*
X37671000Y-76790000D02*
X37671000Y-78164000D01*
X37671000Y-73336000D02*
X37671000Y-74710000D01*
X37631000Y-76790000D02*
X37631000Y-78178000D01*
X37631000Y-73322000D02*
X37631000Y-74710000D01*
X37591000Y-76790000D02*
X37591000Y-78192000D01*
X37591000Y-73308000D02*
X37591000Y-74710000D01*
X37551000Y-76790000D02*
X37551000Y-78205000D01*
X37551000Y-73295000D02*
X37551000Y-74710000D01*
X37511000Y-76790000D02*
X37511000Y-78218000D01*
X37511000Y-73282000D02*
X37511000Y-74710000D01*
X37471000Y-76790000D02*
X37471000Y-78230000D01*
X37471000Y-73270000D02*
X37471000Y-74710000D01*
X37430000Y-76790000D02*
X37430000Y-78241000D01*
X37430000Y-73259000D02*
X37430000Y-74710000D01*
X37390000Y-76790000D02*
X37390000Y-78251000D01*
X37390000Y-73249000D02*
X37390000Y-74710000D01*
X37350000Y-76790000D02*
X37350000Y-78261000D01*
X37350000Y-73239000D02*
X37350000Y-74710000D01*
X37310000Y-76790000D02*
X37310000Y-78270000D01*
X37310000Y-73230000D02*
X37310000Y-74710000D01*
X37270000Y-76790000D02*
X37270000Y-78278000D01*
X37270000Y-73222000D02*
X37270000Y-74710000D01*
X37230000Y-76790000D02*
X37230000Y-78286000D01*
X37230000Y-73214000D02*
X37230000Y-74710000D01*
X37190000Y-76790000D02*
X37190000Y-78293000D01*
X37190000Y-73207000D02*
X37190000Y-74710000D01*
X37150000Y-76790000D02*
X37150000Y-78300000D01*
X37150000Y-73200000D02*
X37150000Y-74710000D01*
X37110000Y-76790000D02*
X37110000Y-78306000D01*
X37110000Y-73194000D02*
X37110000Y-74710000D01*
X37070000Y-76790000D02*
X37070000Y-78311000D01*
X37070000Y-73189000D02*
X37070000Y-74710000D01*
X37030000Y-76790000D02*
X37030000Y-78315000D01*
X37030000Y-73185000D02*
X37030000Y-74710000D01*
X36990000Y-76790000D02*
X36990000Y-78319000D01*
X36990000Y-73181000D02*
X36990000Y-74710000D01*
X36950000Y-73177000D02*
X36950000Y-78323000D01*
X36910000Y-73174000D02*
X36910000Y-78326000D01*
X36870000Y-73172000D02*
X36870000Y-78328000D01*
X36830000Y-73171000D02*
X36830000Y-78329000D01*
X36790000Y-73170000D02*
X36790000Y-78330000D01*
X36750000Y-73170000D02*
X36750000Y-78330000D01*
X39370000Y-75750000D02*
G75*
G03X39370000Y-75750000I-2620000J0D01*
G01*
X38025000Y-53554775D02*
X38525000Y-53554775D01*
X38275000Y-53804775D02*
X38275000Y-53304775D01*
X39466000Y-48399000D02*
X40034000Y-48399000D01*
X39232000Y-48439000D02*
X40268000Y-48439000D01*
X39073000Y-48479000D02*
X40427000Y-48479000D01*
X38945000Y-48519000D02*
X40555000Y-48519000D01*
X38835000Y-48559000D02*
X40665000Y-48559000D01*
X38739000Y-48599000D02*
X40761000Y-48599000D01*
X38652000Y-48639000D02*
X40848000Y-48639000D01*
X38572000Y-48679000D02*
X40928000Y-48679000D01*
X40790000Y-48719000D02*
X41001000Y-48719000D01*
X38499000Y-48719000D02*
X38710000Y-48719000D01*
X40790000Y-48759000D02*
X41069000Y-48759000D01*
X38431000Y-48759000D02*
X38710000Y-48759000D01*
X40790000Y-48799000D02*
X41133000Y-48799000D01*
X38367000Y-48799000D02*
X38710000Y-48799000D01*
X40790000Y-48839000D02*
X41193000Y-48839000D01*
X38307000Y-48839000D02*
X38710000Y-48839000D01*
X40790000Y-48879000D02*
X41250000Y-48879000D01*
X38250000Y-48879000D02*
X38710000Y-48879000D01*
X40790000Y-48919000D02*
X41304000Y-48919000D01*
X38196000Y-48919000D02*
X38710000Y-48919000D01*
X40790000Y-48959000D02*
X41355000Y-48959000D01*
X38145000Y-48959000D02*
X38710000Y-48959000D01*
X40790000Y-48999000D02*
X41403000Y-48999000D01*
X38097000Y-48999000D02*
X38710000Y-48999000D01*
X40790000Y-49039000D02*
X41449000Y-49039000D01*
X38051000Y-49039000D02*
X38710000Y-49039000D01*
X40790000Y-49079000D02*
X41493000Y-49079000D01*
X38007000Y-49079000D02*
X38710000Y-49079000D01*
X40790000Y-49119000D02*
X41535000Y-49119000D01*
X37965000Y-49119000D02*
X38710000Y-49119000D01*
X40790000Y-49159000D02*
X41576000Y-49159000D01*
X37924000Y-49159000D02*
X38710000Y-49159000D01*
X40790000Y-49199000D02*
X41614000Y-49199000D01*
X37886000Y-49199000D02*
X38710000Y-49199000D01*
X40790000Y-49239000D02*
X41651000Y-49239000D01*
X37849000Y-49239000D02*
X38710000Y-49239000D01*
X40790000Y-49279000D02*
X41687000Y-49279000D01*
X37813000Y-49279000D02*
X38710000Y-49279000D01*
X40790000Y-49319000D02*
X41721000Y-49319000D01*
X37779000Y-49319000D02*
X38710000Y-49319000D01*
X40790000Y-49359000D02*
X41754000Y-49359000D01*
X37746000Y-49359000D02*
X38710000Y-49359000D01*
X40790000Y-49399000D02*
X41785000Y-49399000D01*
X37715000Y-49399000D02*
X38710000Y-49399000D01*
X40790000Y-49439000D02*
X41815000Y-49439000D01*
X37685000Y-49439000D02*
X38710000Y-49439000D01*
X40790000Y-49479000D02*
X41845000Y-49479000D01*
X37655000Y-49479000D02*
X38710000Y-49479000D01*
X40790000Y-49519000D02*
X41872000Y-49519000D01*
X37628000Y-49519000D02*
X38710000Y-49519000D01*
X40790000Y-49559000D02*
X41899000Y-49559000D01*
X37601000Y-49559000D02*
X38710000Y-49559000D01*
X40790000Y-49599000D02*
X41925000Y-49599000D01*
X37575000Y-49599000D02*
X38710000Y-49599000D01*
X40790000Y-49639000D02*
X41950000Y-49639000D01*
X37550000Y-49639000D02*
X38710000Y-49639000D01*
X40790000Y-49679000D02*
X41974000Y-49679000D01*
X37526000Y-49679000D02*
X38710000Y-49679000D01*
X40790000Y-49719000D02*
X41997000Y-49719000D01*
X37503000Y-49719000D02*
X38710000Y-49719000D01*
X40790000Y-49759000D02*
X42018000Y-49759000D01*
X37482000Y-49759000D02*
X38710000Y-49759000D01*
X40790000Y-49799000D02*
X42040000Y-49799000D01*
X37460000Y-49799000D02*
X38710000Y-49799000D01*
X40790000Y-49839000D02*
X42060000Y-49839000D01*
X37440000Y-49839000D02*
X38710000Y-49839000D01*
X40790000Y-49879000D02*
X42079000Y-49879000D01*
X37421000Y-49879000D02*
X38710000Y-49879000D01*
X40790000Y-49919000D02*
X42098000Y-49919000D01*
X37402000Y-49919000D02*
X38710000Y-49919000D01*
X40790000Y-49959000D02*
X42115000Y-49959000D01*
X37385000Y-49959000D02*
X38710000Y-49959000D01*
X40790000Y-49999000D02*
X42132000Y-49999000D01*
X37368000Y-49999000D02*
X38710000Y-49999000D01*
X40790000Y-50039000D02*
X42148000Y-50039000D01*
X37352000Y-50039000D02*
X38710000Y-50039000D01*
X40790000Y-50079000D02*
X42164000Y-50079000D01*
X37336000Y-50079000D02*
X38710000Y-50079000D01*
X40790000Y-50119000D02*
X42178000Y-50119000D01*
X37322000Y-50119000D02*
X38710000Y-50119000D01*
X40790000Y-50159000D02*
X42192000Y-50159000D01*
X37308000Y-50159000D02*
X38710000Y-50159000D01*
X40790000Y-50199000D02*
X42205000Y-50199000D01*
X37295000Y-50199000D02*
X38710000Y-50199000D01*
X40790000Y-50239000D02*
X42218000Y-50239000D01*
X37282000Y-50239000D02*
X38710000Y-50239000D01*
X40790000Y-50279000D02*
X42230000Y-50279000D01*
X37270000Y-50279000D02*
X38710000Y-50279000D01*
X40790000Y-50320000D02*
X42241000Y-50320000D01*
X37259000Y-50320000D02*
X38710000Y-50320000D01*
X40790000Y-50360000D02*
X42251000Y-50360000D01*
X37249000Y-50360000D02*
X38710000Y-50360000D01*
X40790000Y-50400000D02*
X42261000Y-50400000D01*
X37239000Y-50400000D02*
X38710000Y-50400000D01*
X40790000Y-50440000D02*
X42270000Y-50440000D01*
X37230000Y-50440000D02*
X38710000Y-50440000D01*
X40790000Y-50480000D02*
X42278000Y-50480000D01*
X37222000Y-50480000D02*
X38710000Y-50480000D01*
X40790000Y-50520000D02*
X42286000Y-50520000D01*
X37214000Y-50520000D02*
X38710000Y-50520000D01*
X40790000Y-50560000D02*
X42293000Y-50560000D01*
X37207000Y-50560000D02*
X38710000Y-50560000D01*
X40790000Y-50600000D02*
X42300000Y-50600000D01*
X37200000Y-50600000D02*
X38710000Y-50600000D01*
X40790000Y-50640000D02*
X42306000Y-50640000D01*
X37194000Y-50640000D02*
X38710000Y-50640000D01*
X40790000Y-50680000D02*
X42311000Y-50680000D01*
X37189000Y-50680000D02*
X38710000Y-50680000D01*
X40790000Y-50720000D02*
X42315000Y-50720000D01*
X37185000Y-50720000D02*
X38710000Y-50720000D01*
X40790000Y-50760000D02*
X42319000Y-50760000D01*
X37181000Y-50760000D02*
X38710000Y-50760000D01*
X37177000Y-50800000D02*
X42323000Y-50800000D01*
X37174000Y-50840000D02*
X42326000Y-50840000D01*
X37172000Y-50880000D02*
X42328000Y-50880000D01*
X37171000Y-50920000D02*
X42329000Y-50920000D01*
X37170000Y-50960000D02*
X42330000Y-50960000D01*
X37170000Y-51000000D02*
X42330000Y-51000000D01*
X42370000Y-51000000D02*
G75*
G03X42370000Y-51000000I-2620000J0D01*
G01*
X40650000Y-72590000D02*
X40650000Y-72090000D01*
X39910000Y-72590000D02*
X40650000Y-72590000D01*
X36773000Y-65897000D02*
X36819000Y-65944000D01*
X34475000Y-63600000D02*
X34511000Y-63635000D01*
X36989000Y-65704000D02*
X37024000Y-65739000D01*
X34681000Y-63395000D02*
X34727000Y-63442000D01*
X30489000Y-62070000D02*
X40410000Y-62070000D01*
X30489000Y-72350000D02*
X40410000Y-72350000D01*
X40410000Y-72350000D02*
X40410000Y-62070000D01*
X30489000Y-72350000D02*
X30489000Y-62070000D01*
X33449000Y-72350000D02*
X33449000Y-62070000D01*
X38350000Y-72350000D02*
X38350000Y-62070000D01*
X39850000Y-72350000D02*
X39850000Y-62070000D01*
X37430000Y-64670000D02*
G75*
G03X37430000Y-64670000I-1680000J0D01*
G01*
X37430253Y-69721195D02*
G75*
G02X37285000Y-70434000I-1680253J-28805D01*
G01*
X36433042Y-71285426D02*
G75*
G02X35066000Y-71285000I-683042J1535426D01*
G01*
X34214574Y-70433042D02*
G75*
G02X34215000Y-69066000I1535426J683042D01*
G01*
X35066958Y-68214574D02*
G75*
G02X36434000Y-68215000I683042J-1535426D01*
G01*
X37284756Y-69066682D02*
G75*
G02X37430000Y-69750000I-1534756J-683318D01*
G01*
X47840000Y-65850000D02*
X47840000Y-59840000D01*
X54660000Y-63600000D02*
X54660000Y-59840000D01*
X47840000Y-59840000D02*
X49100000Y-59840000D01*
X54660000Y-59840000D02*
X53400000Y-59840000D01*
D12*
X55500000Y-43375000D02*
G75*
G03X55500000Y-43375000I-250000J0D01*
G01*
X72500000Y-59750000D02*
X70500000Y-59750000D01*
X72500000Y-59250000D02*
X72500000Y-59750000D01*
X56500000Y-59750000D02*
X58500000Y-59750000D01*
X56500000Y-59250000D02*
X56500000Y-59750000D01*
X72500000Y-35750000D02*
X72500000Y-43250000D01*
X56500000Y-35750000D02*
X72500000Y-35750000D01*
X56500000Y-43250000D02*
X56500000Y-35750000D01*
X58500000Y-58510000D02*
X58500000Y-43510000D01*
X70500000Y-58510000D02*
X58500000Y-58510000D01*
X70500000Y-43510000D02*
X70500000Y-58510000D01*
X58500000Y-43510000D02*
X70500000Y-43510000D01*
D11*
X41000000Y-43250000D02*
X42500000Y-43250000D01*
X45000000Y-42000000D02*
X45000000Y-37500000D01*
X42500000Y-36250000D02*
X41000000Y-36250000D01*
X38500000Y-37500000D02*
X38500000Y-42000000D01*
X55040000Y-80738748D02*
X55040000Y-81261252D01*
X56460000Y-80738748D02*
X56460000Y-81261252D01*
X56710000Y-76511252D02*
X56710000Y-75988748D01*
X55290000Y-76511252D02*
X55290000Y-75988748D01*
X56710000Y-72011252D02*
X56710000Y-71488748D01*
X55290000Y-72011252D02*
X55290000Y-71488748D01*
X52261252Y-81540000D02*
X51738748Y-81540000D01*
X52261252Y-82960000D02*
X51738748Y-82960000D01*
X74290000Y-57988748D02*
X74290000Y-58511252D01*
X75710000Y-57988748D02*
X75710000Y-58511252D01*
X43511252Y-45540000D02*
X42988748Y-45540000D01*
X43511252Y-46960000D02*
X42988748Y-46960000D01*
X45710000Y-51761252D02*
X45710000Y-51238748D01*
X44290000Y-51761252D02*
X44290000Y-51238748D01*
X51290000Y-54488748D02*
X51290000Y-55011252D01*
X52710000Y-54488748D02*
X52710000Y-55011252D01*
X52988748Y-48710000D02*
X53511252Y-48710000D01*
X52988748Y-47290000D02*
X53511252Y-47290000D01*
X75710000Y-53536252D02*
X75710000Y-53013748D01*
X74290000Y-53536252D02*
X74290000Y-53013748D01*
X76540000Y-55263748D02*
X76540000Y-55786252D01*
X77960000Y-55263748D02*
X77960000Y-55786252D01*
X52988748Y-51210000D02*
X53511252Y-51210000D01*
X52988748Y-49790000D02*
X53511252Y-49790000D01*
X52950000Y-69040000D02*
X53800000Y-69040000D01*
X53800000Y-75960000D02*
X52950000Y-75960000D01*
X48250000Y-69040000D02*
X49050000Y-69040000D01*
X47590000Y-75350000D02*
X47590000Y-69700000D01*
X49050000Y-75960000D02*
X48200000Y-75960000D01*
X48200000Y-75960000D02*
G75*
G02X47590000Y-75350000I0J610000D01*
G01*
X47590000Y-69700000D02*
G75*
G02X48250000Y-69040000I660000J0D01*
G01*
X54410000Y-69650000D02*
X54410000Y-75350000D01*
X54410000Y-75350000D02*
G75*
G02X53800000Y-75960000I-610000J0D01*
G01*
X53800000Y-69040000D02*
G75*
G02X54410000Y-69650000I0J-610000D01*
G01*
X36250000Y-48100000D02*
X36250000Y-50900000D01*
X36250000Y-50900000D02*
X34250000Y-50900000D01*
X34250000Y-50900000D02*
X34250000Y-48100000D01*
X34250000Y-48100000D02*
X36250000Y-48100000D01*
X79580000Y-66420000D02*
X79580000Y-67750000D01*
X78250000Y-66420000D02*
X79580000Y-66420000D01*
X76980000Y-66420000D02*
X76980000Y-69080000D01*
X76980000Y-69080000D02*
X71840000Y-69080000D01*
X76980000Y-66420000D02*
X71840000Y-66420000D01*
X71840000Y-66420000D02*
X71840000Y-69080000D01*
X30420000Y-42670000D02*
X31750000Y-42670000D01*
X30420000Y-44000000D02*
X30420000Y-42670000D01*
X30420000Y-45270000D02*
X33080000Y-45270000D01*
X33080000Y-45270000D02*
X33080000Y-60570000D01*
X30420000Y-45270000D02*
X30420000Y-60570000D01*
X30420000Y-60570000D02*
X33080000Y-60570000D01*
D13*
X39525000Y-79170000D02*
X41050000Y-79170000D01*
X41400000Y-84200000D02*
X41400000Y-79300000D01*
X44600000Y-84200000D02*
X41400000Y-84200000D01*
X44600000Y-79300000D02*
X44600000Y-84200000D01*
X41400000Y-79300000D02*
X44600000Y-79300000D01*
D11*
X45750000Y-75500000D02*
X41850000Y-75500000D01*
X45750000Y-73500000D02*
X41850000Y-73500000D01*
X45750000Y-75500000D02*
X45750000Y-73500000D01*
X45011252Y-70290000D02*
X44488748Y-70290000D01*
X45011252Y-71710000D02*
X44488748Y-71710000D01*
X45011252Y-65040000D02*
X44488748Y-65040000D01*
X45011252Y-66460000D02*
X44488748Y-66460000D01*
X45011252Y-67790000D02*
X44488748Y-67790000D01*
X45011252Y-69210000D02*
X44488748Y-69210000D01*
X42040000Y-62238748D02*
X42040000Y-62761252D01*
X43460000Y-62238748D02*
X43460000Y-62761252D01*
X51921267Y-79490000D02*
X51578733Y-79490000D01*
X51921267Y-80510000D02*
X51578733Y-80510000D01*
X45290000Y-62238748D02*
X45290000Y-62761252D01*
X46710000Y-62238748D02*
X46710000Y-62761252D01*
X48960000Y-82011252D02*
X48960000Y-81488748D01*
X47540000Y-82011252D02*
X47540000Y-81488748D01*
X46761252Y-76790000D02*
X46238748Y-76790000D01*
X46761252Y-78210000D02*
X46238748Y-78210000D01*
X56960000Y-66011252D02*
X56960000Y-65488748D01*
X55540000Y-66011252D02*
X55540000Y-65488748D01*
X38260000Y-81921267D02*
X38260000Y-81578733D01*
X37240000Y-81921267D02*
X37240000Y-81578733D01*
X55210000Y-55011252D02*
X55210000Y-54488748D01*
X53790000Y-55011252D02*
X53790000Y-54488748D01*
X52988748Y-46710000D02*
X53511252Y-46710000D01*
X52988748Y-45290000D02*
X53511252Y-45290000D01*
D10*
X48404761Y-47047619D02*
X48309523Y-47000000D01*
X48214285Y-46904761D01*
X48071428Y-46761904D01*
X47976190Y-46714285D01*
X47880952Y-46714285D01*
X47928571Y-46952380D02*
X47833333Y-46904761D01*
X47738095Y-46809523D01*
X47690476Y-46619047D01*
X47690476Y-46285714D01*
X47738095Y-46095238D01*
X47833333Y-46000000D01*
X47928571Y-45952380D01*
X48119047Y-45952380D01*
X48214285Y-46000000D01*
X48309523Y-46095238D01*
X48357142Y-46285714D01*
X48357142Y-46619047D01*
X48309523Y-46809523D01*
X48214285Y-46904761D01*
X48119047Y-46952380D01*
X47928571Y-46952380D01*
X48738095Y-46047619D02*
X48785714Y-46000000D01*
X48880952Y-45952380D01*
X49119047Y-45952380D01*
X49214285Y-46000000D01*
X49261904Y-46047619D01*
X49309523Y-46142857D01*
X49309523Y-46238095D01*
X49261904Y-46380952D01*
X48690476Y-46952380D01*
X49309523Y-46952380D01*
X48404761Y-57547619D02*
X48309523Y-57500000D01*
X48214285Y-57404761D01*
X48071428Y-57261904D01*
X47976190Y-57214285D01*
X47880952Y-57214285D01*
X47928571Y-57452380D02*
X47833333Y-57404761D01*
X47738095Y-57309523D01*
X47690476Y-57119047D01*
X47690476Y-56785714D01*
X47738095Y-56595238D01*
X47833333Y-56500000D01*
X47928571Y-56452380D01*
X48119047Y-56452380D01*
X48214285Y-56500000D01*
X48309523Y-56595238D01*
X48357142Y-56785714D01*
X48357142Y-57119047D01*
X48309523Y-57309523D01*
X48214285Y-57404761D01*
X48119047Y-57452380D01*
X47928571Y-57452380D01*
X49309523Y-57452380D02*
X48738095Y-57452380D01*
X49023809Y-57452380D02*
X49023809Y-56452380D01*
X48928571Y-56595238D01*
X48833333Y-56690476D01*
X48738095Y-56738095D01*
X52166666Y-34122380D02*
X52166666Y-34836666D01*
X52119047Y-34979523D01*
X52023809Y-35074761D01*
X51880952Y-35122380D01*
X51785714Y-35122380D01*
X52785714Y-34550952D02*
X52690476Y-34503333D01*
X52642857Y-34455714D01*
X52595238Y-34360476D01*
X52595238Y-34312857D01*
X52642857Y-34217619D01*
X52690476Y-34170000D01*
X52785714Y-34122380D01*
X52976190Y-34122380D01*
X53071428Y-34170000D01*
X53119047Y-34217619D01*
X53166666Y-34312857D01*
X53166666Y-34360476D01*
X53119047Y-34455714D01*
X53071428Y-34503333D01*
X52976190Y-34550952D01*
X52785714Y-34550952D01*
X52690476Y-34598571D01*
X52642857Y-34646190D01*
X52595238Y-34741428D01*
X52595238Y-34931904D01*
X52642857Y-35027142D01*
X52690476Y-35074761D01*
X52785714Y-35122380D01*
X52976190Y-35122380D01*
X53071428Y-35074761D01*
X53119047Y-35027142D01*
X53166666Y-34931904D01*
X53166666Y-34741428D01*
X53119047Y-34646190D01*
X53071428Y-34598571D01*
X52976190Y-34550952D01*
X48166666Y-34122380D02*
X48166666Y-34836666D01*
X48119047Y-34979523D01*
X48023809Y-35074761D01*
X47880952Y-35122380D01*
X47785714Y-35122380D01*
X48547619Y-34122380D02*
X49214285Y-34122380D01*
X48785714Y-35122380D01*
X63936666Y-62348380D02*
X63936666Y-63062666D01*
X63889047Y-63205523D01*
X63793809Y-63300761D01*
X63650952Y-63348380D01*
X63555714Y-63348380D01*
X64317619Y-62348380D02*
X64936666Y-62348380D01*
X64603333Y-62729333D01*
X64746190Y-62729333D01*
X64841428Y-62776952D01*
X64889047Y-62824571D01*
X64936666Y-62919809D01*
X64936666Y-63157904D01*
X64889047Y-63253142D01*
X64841428Y-63300761D01*
X64746190Y-63348380D01*
X64460476Y-63348380D01*
X64365238Y-63300761D01*
X64317619Y-63253142D01*
X80032380Y-76583333D02*
X80746666Y-76583333D01*
X80889523Y-76630952D01*
X80984761Y-76726190D01*
X81032380Y-76869047D01*
X81032380Y-76964285D01*
X80032380Y-75678571D02*
X80032380Y-75869047D01*
X80080000Y-75964285D01*
X80127619Y-76011904D01*
X80270476Y-76107142D01*
X80460952Y-76154761D01*
X80841904Y-76154761D01*
X80937142Y-76107142D01*
X80984761Y-76059523D01*
X81032380Y-75964285D01*
X81032380Y-75773809D01*
X80984761Y-75678571D01*
X80937142Y-75630952D01*
X80841904Y-75583333D01*
X80603809Y-75583333D01*
X80508571Y-75630952D01*
X80460952Y-75678571D01*
X80413333Y-75773809D01*
X80413333Y-75964285D01*
X80460952Y-76059523D01*
X80508571Y-76107142D01*
X80603809Y-76154761D01*
X80032380Y-72333333D02*
X80746666Y-72333333D01*
X80889523Y-72380952D01*
X80984761Y-72476190D01*
X81032380Y-72619047D01*
X81032380Y-72714285D01*
X80032380Y-71380952D02*
X80032380Y-71857142D01*
X80508571Y-71904761D01*
X80460952Y-71857142D01*
X80413333Y-71761904D01*
X80413333Y-71523809D01*
X80460952Y-71428571D01*
X80508571Y-71380952D01*
X80603809Y-71333333D01*
X80841904Y-71333333D01*
X80937142Y-71380952D01*
X80984761Y-71428571D01*
X81032380Y-71523809D01*
X81032380Y-71761904D01*
X80984761Y-71857142D01*
X80937142Y-71904761D01*
X32738095Y-77752380D02*
X32738095Y-76752380D01*
X32738095Y-77228571D02*
X33309523Y-77228571D01*
X33309523Y-77752380D02*
X33309523Y-76752380D01*
X34214285Y-77085714D02*
X34214285Y-77752380D01*
X33976190Y-76704761D02*
X33738095Y-77419047D01*
X34357142Y-77419047D01*
X75738095Y-77752380D02*
X75738095Y-76752380D01*
X75738095Y-77228571D02*
X76309523Y-77228571D01*
X76309523Y-77752380D02*
X76309523Y-76752380D01*
X76690476Y-76752380D02*
X77309523Y-76752380D01*
X76976190Y-77133333D01*
X77119047Y-77133333D01*
X77214285Y-77180952D01*
X77261904Y-77228571D01*
X77309523Y-77323809D01*
X77309523Y-77561904D01*
X77261904Y-77657142D01*
X77214285Y-77704761D01*
X77119047Y-77752380D01*
X76833333Y-77752380D01*
X76738095Y-77704761D01*
X76690476Y-77657142D01*
X32738095Y-34752380D02*
X32738095Y-33752380D01*
X32738095Y-34228571D02*
X33309523Y-34228571D01*
X33309523Y-34752380D02*
X33309523Y-33752380D01*
X33738095Y-33847619D02*
X33785714Y-33800000D01*
X33880952Y-33752380D01*
X34119047Y-33752380D01*
X34214285Y-33800000D01*
X34261904Y-33847619D01*
X34309523Y-33942857D01*
X34309523Y-34038095D01*
X34261904Y-34180952D01*
X33690476Y-34752380D01*
X34309523Y-34752380D01*
X75988095Y-34752380D02*
X75988095Y-33752380D01*
X75988095Y-34228571D02*
X76559523Y-34228571D01*
X76559523Y-34752380D02*
X76559523Y-33752380D01*
X77559523Y-34752380D02*
X76988095Y-34752380D01*
X77273809Y-34752380D02*
X77273809Y-33752380D01*
X77178571Y-33895238D01*
X77083333Y-33990476D01*
X76988095Y-34038095D01*
X57207142Y-65916666D02*
X57254761Y-65964285D01*
X57302380Y-66107142D01*
X57302380Y-66202380D01*
X57254761Y-66345238D01*
X57159523Y-66440476D01*
X57064285Y-66488095D01*
X56873809Y-66535714D01*
X56730952Y-66535714D01*
X56540476Y-66488095D01*
X56445238Y-66440476D01*
X56350000Y-66345238D01*
X56302380Y-66202380D01*
X56302380Y-66107142D01*
X56350000Y-65964285D01*
X56397619Y-65916666D01*
X56302380Y-65583333D02*
X56302380Y-64916666D01*
X57302380Y-65345238D01*
X31207142Y-75416666D02*
X31254761Y-75464285D01*
X31302380Y-75607142D01*
X31302380Y-75702380D01*
X31254761Y-75845238D01*
X31159523Y-75940476D01*
X31064285Y-75988095D01*
X30873809Y-76035714D01*
X30730952Y-76035714D01*
X30540476Y-75988095D01*
X30445238Y-75940476D01*
X30350000Y-75845238D01*
X30302380Y-75702380D01*
X30302380Y-75607142D01*
X30350000Y-75464285D01*
X30397619Y-75416666D01*
X30302380Y-74511904D02*
X30302380Y-74988095D01*
X30778571Y-75035714D01*
X30730952Y-74988095D01*
X30683333Y-74892857D01*
X30683333Y-74654761D01*
X30730952Y-74559523D01*
X30778571Y-74511904D01*
X30873809Y-74464285D01*
X31111904Y-74464285D01*
X31207142Y-74511904D01*
X31254761Y-74559523D01*
X31302380Y-74654761D01*
X31302380Y-74892857D01*
X31254761Y-74988095D01*
X31207142Y-75035714D01*
X36583333Y-72357142D02*
X36535714Y-72404761D01*
X36392857Y-72452380D01*
X36297619Y-72452380D01*
X36154761Y-72404761D01*
X36059523Y-72309523D01*
X36011904Y-72214285D01*
X35964285Y-72023809D01*
X35964285Y-71880952D01*
X36011904Y-71690476D01*
X36059523Y-71595238D01*
X36154761Y-71500000D01*
X36297619Y-71452380D01*
X36392857Y-71452380D01*
X36535714Y-71500000D01*
X36583333Y-71547619D01*
X36964285Y-71547619D02*
X37011904Y-71500000D01*
X37107142Y-71452380D01*
X37345238Y-71452380D01*
X37440476Y-71500000D01*
X37488095Y-71547619D01*
X37535714Y-71642857D01*
X37535714Y-71738095D01*
X37488095Y-71880952D01*
X36916666Y-72452380D01*
X37535714Y-72452380D01*
X37357142Y-48666666D02*
X37404761Y-48714285D01*
X37452380Y-48857142D01*
X37452380Y-48952380D01*
X37404761Y-49095238D01*
X37309523Y-49190476D01*
X37214285Y-49238095D01*
X37023809Y-49285714D01*
X36880952Y-49285714D01*
X36690476Y-49238095D01*
X36595238Y-49190476D01*
X36500000Y-49095238D01*
X36452380Y-48952380D01*
X36452380Y-48857142D01*
X36500000Y-48714285D01*
X36547619Y-48666666D01*
X36785714Y-47809523D02*
X37452380Y-47809523D01*
X36404761Y-48047619D02*
X37119047Y-48285714D01*
X37119047Y-47666666D01*
X28942380Y-67543333D02*
X29656666Y-67543333D01*
X29799523Y-67590952D01*
X29894761Y-67686190D01*
X29942380Y-67829047D01*
X29942380Y-67924285D01*
X29275714Y-66638571D02*
X29942380Y-66638571D01*
X28894761Y-66876666D02*
X29609047Y-67114761D01*
X29609047Y-66495714D01*
X46202380Y-62511904D02*
X47011904Y-62511904D01*
X47107142Y-62464285D01*
X47154761Y-62416666D01*
X47202380Y-62321428D01*
X47202380Y-62130952D01*
X47154761Y-62035714D01*
X47107142Y-61988095D01*
X47011904Y-61940476D01*
X46202380Y-61940476D01*
X46297619Y-61511904D02*
X46250000Y-61464285D01*
X46202380Y-61369047D01*
X46202380Y-61130952D01*
X46250000Y-61035714D01*
X46297619Y-60988095D01*
X46392857Y-60940476D01*
X46488095Y-60940476D01*
X46630952Y-60988095D01*
X47202380Y-61559523D01*
X47202380Y-60940476D01*
D14*
X58158217Y-34304368D02*
X58158217Y-35114516D01*
X58205872Y-35209828D01*
X58253528Y-35257484D01*
X58348840Y-35305140D01*
X58539463Y-35305140D01*
X58634775Y-35257484D01*
X58682430Y-35209828D01*
X58730086Y-35114516D01*
X58730086Y-34304368D01*
X59730858Y-35305140D02*
X59158989Y-35305140D01*
X59444923Y-35305140D02*
X59444923Y-34304368D01*
X59349612Y-34447335D01*
X59254300Y-34542647D01*
X59158989Y-34590303D01*
D10*
X46404761Y-41083333D02*
X46452380Y-40940476D01*
X46452380Y-40702380D01*
X46404761Y-40607142D01*
X46357142Y-40559523D01*
X46261904Y-40511904D01*
X46166666Y-40511904D01*
X46071428Y-40559523D01*
X46023809Y-40607142D01*
X45976190Y-40702380D01*
X45928571Y-40892857D01*
X45880952Y-40988095D01*
X45833333Y-41035714D01*
X45738095Y-41083333D01*
X45642857Y-41083333D01*
X45547619Y-41035714D01*
X45500000Y-40988095D01*
X45452380Y-40892857D01*
X45452380Y-40654761D01*
X45500000Y-40511904D01*
X45452380Y-40178571D02*
X46452380Y-39940476D01*
X45738095Y-39750000D01*
X46452380Y-39559523D01*
X45452380Y-39321428D01*
X45547619Y-38988095D02*
X45500000Y-38940476D01*
X45452380Y-38845238D01*
X45452380Y-38607142D01*
X45500000Y-38511904D01*
X45547619Y-38464285D01*
X45642857Y-38416666D01*
X45738095Y-38416666D01*
X45880952Y-38464285D01*
X46452380Y-39035714D01*
X46452380Y-38416666D01*
X57852380Y-81642857D02*
X57376190Y-81976190D01*
X57852380Y-82214285D02*
X56852380Y-82214285D01*
X56852380Y-81833333D01*
X56900000Y-81738095D01*
X56947619Y-81690476D01*
X57042857Y-81642857D01*
X57185714Y-81642857D01*
X57280952Y-81690476D01*
X57328571Y-81738095D01*
X57376190Y-81833333D01*
X57376190Y-82214285D01*
X57852380Y-80690476D02*
X57852380Y-81261904D01*
X57852380Y-80976190D02*
X56852380Y-80976190D01*
X56995238Y-81071428D01*
X57090476Y-81166666D01*
X57138095Y-81261904D01*
X57185714Y-79833333D02*
X57852380Y-79833333D01*
X56804761Y-80071428D02*
X57519047Y-80309523D01*
X57519047Y-79690476D01*
X54802380Y-76892857D02*
X54326190Y-77226190D01*
X54802380Y-77464285D02*
X53802380Y-77464285D01*
X53802380Y-77083333D01*
X53850000Y-76988095D01*
X53897619Y-76940476D01*
X53992857Y-76892857D01*
X54135714Y-76892857D01*
X54230952Y-76940476D01*
X54278571Y-76988095D01*
X54326190Y-77083333D01*
X54326190Y-77464285D01*
X54802380Y-75940476D02*
X54802380Y-76511904D01*
X54802380Y-76226190D02*
X53802380Y-76226190D01*
X53945238Y-76321428D01*
X54040476Y-76416666D01*
X54088095Y-76511904D01*
X53802380Y-75607142D02*
X53802380Y-74988095D01*
X54183333Y-75321428D01*
X54183333Y-75178571D01*
X54230952Y-75083333D01*
X54278571Y-75035714D01*
X54373809Y-74988095D01*
X54611904Y-74988095D01*
X54707142Y-75035714D01*
X54754761Y-75083333D01*
X54802380Y-75178571D01*
X54802380Y-75464285D01*
X54754761Y-75559523D01*
X54707142Y-75607142D01*
X54802380Y-72392857D02*
X54326190Y-72726190D01*
X54802380Y-72964285D02*
X53802380Y-72964285D01*
X53802380Y-72583333D01*
X53850000Y-72488095D01*
X53897619Y-72440476D01*
X53992857Y-72392857D01*
X54135714Y-72392857D01*
X54230952Y-72440476D01*
X54278571Y-72488095D01*
X54326190Y-72583333D01*
X54326190Y-72964285D01*
X54802380Y-71440476D02*
X54802380Y-72011904D01*
X54802380Y-71726190D02*
X53802380Y-71726190D01*
X53945238Y-71821428D01*
X54040476Y-71916666D01*
X54088095Y-72011904D01*
X53897619Y-71059523D02*
X53850000Y-71011904D01*
X53802380Y-70916666D01*
X53802380Y-70678571D01*
X53850000Y-70583333D01*
X53897619Y-70535714D01*
X53992857Y-70488095D01*
X54088095Y-70488095D01*
X54230952Y-70535714D01*
X54802380Y-71107142D01*
X54802380Y-70488095D01*
X51357142Y-84352380D02*
X51023809Y-83876190D01*
X50785714Y-84352380D02*
X50785714Y-83352380D01*
X51166666Y-83352380D01*
X51261904Y-83400000D01*
X51309523Y-83447619D01*
X51357142Y-83542857D01*
X51357142Y-83685714D01*
X51309523Y-83780952D01*
X51261904Y-83828571D01*
X51166666Y-83876190D01*
X50785714Y-83876190D01*
X52309523Y-84352380D02*
X51738095Y-84352380D01*
X52023809Y-84352380D02*
X52023809Y-83352380D01*
X51928571Y-83495238D01*
X51833333Y-83590476D01*
X51738095Y-83638095D01*
X53261904Y-84352380D02*
X52690476Y-84352380D01*
X52976190Y-84352380D02*
X52976190Y-83352380D01*
X52880952Y-83495238D01*
X52785714Y-83590476D01*
X52690476Y-83638095D01*
X77102380Y-58892857D02*
X76626190Y-59226190D01*
X77102380Y-59464285D02*
X76102380Y-59464285D01*
X76102380Y-59083333D01*
X76150000Y-58988095D01*
X76197619Y-58940476D01*
X76292857Y-58892857D01*
X76435714Y-58892857D01*
X76530952Y-58940476D01*
X76578571Y-58988095D01*
X76626190Y-59083333D01*
X76626190Y-59464285D01*
X77102380Y-57940476D02*
X77102380Y-58511904D01*
X77102380Y-58226190D02*
X76102380Y-58226190D01*
X76245238Y-58321428D01*
X76340476Y-58416666D01*
X76388095Y-58511904D01*
X76102380Y-57321428D02*
X76102380Y-57226190D01*
X76150000Y-57130952D01*
X76197619Y-57083333D01*
X76292857Y-57035714D01*
X76483333Y-56988095D01*
X76721428Y-56988095D01*
X76911904Y-57035714D01*
X77007142Y-57083333D01*
X77054761Y-57130952D01*
X77102380Y-57226190D01*
X77102380Y-57321428D01*
X77054761Y-57416666D01*
X77007142Y-57464285D01*
X76911904Y-57511904D01*
X76721428Y-57559523D01*
X76483333Y-57559523D01*
X76292857Y-57511904D01*
X76197619Y-57464285D01*
X76150000Y-57416666D01*
X76102380Y-57321428D01*
X43083333Y-48352380D02*
X42750000Y-47876190D01*
X42511904Y-48352380D02*
X42511904Y-47352380D01*
X42892857Y-47352380D01*
X42988095Y-47400000D01*
X43035714Y-47447619D01*
X43083333Y-47542857D01*
X43083333Y-47685714D01*
X43035714Y-47780952D01*
X42988095Y-47828571D01*
X42892857Y-47876190D01*
X42511904Y-47876190D01*
X43654761Y-47780952D02*
X43559523Y-47733333D01*
X43511904Y-47685714D01*
X43464285Y-47590476D01*
X43464285Y-47542857D01*
X43511904Y-47447619D01*
X43559523Y-47400000D01*
X43654761Y-47352380D01*
X43845238Y-47352380D01*
X43940476Y-47400000D01*
X43988095Y-47447619D01*
X44035714Y-47542857D01*
X44035714Y-47590476D01*
X43988095Y-47685714D01*
X43940476Y-47733333D01*
X43845238Y-47780952D01*
X43654761Y-47780952D01*
X43559523Y-47828571D01*
X43511904Y-47876190D01*
X43464285Y-47971428D01*
X43464285Y-48161904D01*
X43511904Y-48257142D01*
X43559523Y-48304761D01*
X43654761Y-48352380D01*
X43845238Y-48352380D01*
X43940476Y-48304761D01*
X43988095Y-48257142D01*
X44035714Y-48161904D01*
X44035714Y-47971428D01*
X43988095Y-47876190D01*
X43940476Y-47828571D01*
X43845238Y-47780952D01*
X43802380Y-51666666D02*
X43326190Y-52000000D01*
X43802380Y-52238095D02*
X42802380Y-52238095D01*
X42802380Y-51857142D01*
X42850000Y-51761904D01*
X42897619Y-51714285D01*
X42992857Y-51666666D01*
X43135714Y-51666666D01*
X43230952Y-51714285D01*
X43278571Y-51761904D01*
X43326190Y-51857142D01*
X43326190Y-52238095D01*
X42802380Y-50809523D02*
X42802380Y-51000000D01*
X42850000Y-51095238D01*
X42897619Y-51142857D01*
X43040476Y-51238095D01*
X43230952Y-51285714D01*
X43611904Y-51285714D01*
X43707142Y-51238095D01*
X43754761Y-51190476D01*
X43802380Y-51095238D01*
X43802380Y-50904761D01*
X43754761Y-50809523D01*
X43707142Y-50761904D01*
X43611904Y-50714285D01*
X43373809Y-50714285D01*
X43278571Y-50761904D01*
X43230952Y-50809523D01*
X43183333Y-50904761D01*
X43183333Y-51095238D01*
X43230952Y-51190476D01*
X43278571Y-51238095D01*
X43373809Y-51285714D01*
X54102380Y-54916666D02*
X53626190Y-55250000D01*
X54102380Y-55488095D02*
X53102380Y-55488095D01*
X53102380Y-55107142D01*
X53150000Y-55011904D01*
X53197619Y-54964285D01*
X53292857Y-54916666D01*
X53435714Y-54916666D01*
X53530952Y-54964285D01*
X53578571Y-55011904D01*
X53626190Y-55107142D01*
X53626190Y-55488095D01*
X53102380Y-54011904D02*
X53102380Y-54488095D01*
X53578571Y-54535714D01*
X53530952Y-54488095D01*
X53483333Y-54392857D01*
X53483333Y-54154761D01*
X53530952Y-54059523D01*
X53578571Y-54011904D01*
X53673809Y-53964285D01*
X53911904Y-53964285D01*
X54007142Y-54011904D01*
X54054761Y-54059523D01*
X54102380Y-54154761D01*
X54102380Y-54392857D01*
X54054761Y-54488095D01*
X54007142Y-54535714D01*
X53083333Y-46802380D02*
X52750000Y-46326190D01*
X52511904Y-46802380D02*
X52511904Y-45802380D01*
X52892857Y-45802380D01*
X52988095Y-45850000D01*
X53035714Y-45897619D01*
X53083333Y-45992857D01*
X53083333Y-46135714D01*
X53035714Y-46230952D01*
X52988095Y-46278571D01*
X52892857Y-46326190D01*
X52511904Y-46326190D01*
X53940476Y-46135714D02*
X53940476Y-46802380D01*
X53702380Y-45754761D02*
X53464285Y-46469047D01*
X54083333Y-46469047D01*
X73802380Y-53441666D02*
X73326190Y-53775000D01*
X73802380Y-54013095D02*
X72802380Y-54013095D01*
X72802380Y-53632142D01*
X72850000Y-53536904D01*
X72897619Y-53489285D01*
X72992857Y-53441666D01*
X73135714Y-53441666D01*
X73230952Y-53489285D01*
X73278571Y-53536904D01*
X73326190Y-53632142D01*
X73326190Y-54013095D01*
X72802380Y-53108333D02*
X72802380Y-52489285D01*
X73183333Y-52822619D01*
X73183333Y-52679761D01*
X73230952Y-52584523D01*
X73278571Y-52536904D01*
X73373809Y-52489285D01*
X73611904Y-52489285D01*
X73707142Y-52536904D01*
X73754761Y-52584523D01*
X73802380Y-52679761D01*
X73802380Y-52965476D01*
X73754761Y-53060714D01*
X73707142Y-53108333D01*
X79352380Y-55691666D02*
X78876190Y-56025000D01*
X79352380Y-56263095D02*
X78352380Y-56263095D01*
X78352380Y-55882142D01*
X78400000Y-55786904D01*
X78447619Y-55739285D01*
X78542857Y-55691666D01*
X78685714Y-55691666D01*
X78780952Y-55739285D01*
X78828571Y-55786904D01*
X78876190Y-55882142D01*
X78876190Y-56263095D01*
X78447619Y-55310714D02*
X78400000Y-55263095D01*
X78352380Y-55167857D01*
X78352380Y-54929761D01*
X78400000Y-54834523D01*
X78447619Y-54786904D01*
X78542857Y-54739285D01*
X78638095Y-54739285D01*
X78780952Y-54786904D01*
X79352380Y-55358333D01*
X79352380Y-54739285D01*
X53083333Y-49302380D02*
X52750000Y-48826190D01*
X52511904Y-49302380D02*
X52511904Y-48302380D01*
X52892857Y-48302380D01*
X52988095Y-48350000D01*
X53035714Y-48397619D01*
X53083333Y-48492857D01*
X53083333Y-48635714D01*
X53035714Y-48730952D01*
X52988095Y-48778571D01*
X52892857Y-48826190D01*
X52511904Y-48826190D01*
X54035714Y-49302380D02*
X53464285Y-49302380D01*
X53750000Y-49302380D02*
X53750000Y-48302380D01*
X53654761Y-48445238D01*
X53559523Y-48540476D01*
X53464285Y-48588095D01*
X55652380Y-72666666D02*
X55652380Y-73142857D01*
X54652380Y-73142857D01*
X55652380Y-71809523D02*
X55652380Y-72380952D01*
X55652380Y-72095238D02*
X54652380Y-72095238D01*
X54795238Y-72190476D01*
X54890476Y-72285714D01*
X54938095Y-72380952D01*
X36502380Y-50333333D02*
X37216666Y-50333333D01*
X37359523Y-50380952D01*
X37454761Y-50476190D01*
X37502380Y-50619047D01*
X37502380Y-50714285D01*
X37502380Y-49857142D02*
X36502380Y-49857142D01*
X36502380Y-49476190D01*
X36550000Y-49380952D01*
X36597619Y-49333333D01*
X36692857Y-49285714D01*
X36835714Y-49285714D01*
X36930952Y-49333333D01*
X36978571Y-49380952D01*
X37026190Y-49476190D01*
X37026190Y-49857142D01*
X37502380Y-48333333D02*
X37502380Y-48904761D01*
X37502380Y-48619047D02*
X36502380Y-48619047D01*
X36645238Y-48714285D01*
X36740476Y-48809523D01*
X36788095Y-48904761D01*
X80032380Y-68083333D02*
X80746666Y-68083333D01*
X80889523Y-68130952D01*
X80984761Y-68226190D01*
X81032380Y-68369047D01*
X81032380Y-68464285D01*
X80127619Y-67654761D02*
X80080000Y-67607142D01*
X80032380Y-67511904D01*
X80032380Y-67273809D01*
X80080000Y-67178571D01*
X80127619Y-67130952D01*
X80222857Y-67083333D01*
X80318095Y-67083333D01*
X80460952Y-67130952D01*
X81032380Y-67702380D01*
X81032380Y-67083333D01*
X31416666Y-41122380D02*
X31416666Y-41836666D01*
X31369047Y-41979523D01*
X31273809Y-42074761D01*
X31130952Y-42122380D01*
X31035714Y-42122380D01*
X32416666Y-42122380D02*
X31845238Y-42122380D01*
X32130952Y-42122380D02*
X32130952Y-41122380D01*
X32035714Y-41265238D01*
X31940476Y-41360476D01*
X31845238Y-41408095D01*
D15*
X41760238Y-82324523D02*
X41760238Y-81054523D01*
X43090714Y-82203571D02*
X43030238Y-82264047D01*
X42848809Y-82324523D01*
X42727857Y-82324523D01*
X42546428Y-82264047D01*
X42425476Y-82143095D01*
X42365000Y-82022142D01*
X42304523Y-81780238D01*
X42304523Y-81598809D01*
X42365000Y-81356904D01*
X42425476Y-81235952D01*
X42546428Y-81115000D01*
X42727857Y-81054523D01*
X42848809Y-81054523D01*
X43030238Y-81115000D01*
X43090714Y-81175476D01*
X44300238Y-82324523D02*
X43574523Y-82324523D01*
X43937380Y-82324523D02*
X43937380Y-81054523D01*
X43816428Y-81235952D01*
X43695476Y-81356904D01*
X43574523Y-81417380D01*
D10*
X42761904Y-76952380D02*
X42761904Y-75952380D01*
X43000000Y-75952380D01*
X43142857Y-76000000D01*
X43238095Y-76095238D01*
X43285714Y-76190476D01*
X43333333Y-76380952D01*
X43333333Y-76523809D01*
X43285714Y-76714285D01*
X43238095Y-76809523D01*
X43142857Y-76904761D01*
X43000000Y-76952380D01*
X42761904Y-76952380D01*
X44285714Y-76952380D02*
X43714285Y-76952380D01*
X44000000Y-76952380D02*
X44000000Y-75952380D01*
X43904761Y-76095238D01*
X43809523Y-76190476D01*
X43714285Y-76238095D01*
X44107142Y-73007142D02*
X44059523Y-73054761D01*
X43916666Y-73102380D01*
X43821428Y-73102380D01*
X43678571Y-73054761D01*
X43583333Y-72959523D01*
X43535714Y-72864285D01*
X43488095Y-72673809D01*
X43488095Y-72530952D01*
X43535714Y-72340476D01*
X43583333Y-72245238D01*
X43678571Y-72150000D01*
X43821428Y-72102380D01*
X43916666Y-72102380D01*
X44059523Y-72150000D01*
X44107142Y-72197619D01*
X45059523Y-73102380D02*
X44488095Y-73102380D01*
X44773809Y-73102380D02*
X44773809Y-72102380D01*
X44678571Y-72245238D01*
X44583333Y-72340476D01*
X44488095Y-72388095D01*
X45916666Y-72102380D02*
X45726190Y-72102380D01*
X45630952Y-72150000D01*
X45583333Y-72197619D01*
X45488095Y-72340476D01*
X45440476Y-72530952D01*
X45440476Y-72911904D01*
X45488095Y-73007142D01*
X45535714Y-73054761D01*
X45630952Y-73102380D01*
X45821428Y-73102380D01*
X45916666Y-73054761D01*
X45964285Y-73007142D01*
X46011904Y-72911904D01*
X46011904Y-72673809D01*
X45964285Y-72578571D01*
X45916666Y-72530952D01*
X45821428Y-72483333D01*
X45630952Y-72483333D01*
X45535714Y-72530952D01*
X45488095Y-72578571D01*
X45440476Y-72673809D01*
X44107142Y-67757142D02*
X44059523Y-67804761D01*
X43916666Y-67852380D01*
X43821428Y-67852380D01*
X43678571Y-67804761D01*
X43583333Y-67709523D01*
X43535714Y-67614285D01*
X43488095Y-67423809D01*
X43488095Y-67280952D01*
X43535714Y-67090476D01*
X43583333Y-66995238D01*
X43678571Y-66900000D01*
X43821428Y-66852380D01*
X43916666Y-66852380D01*
X44059523Y-66900000D01*
X44107142Y-66947619D01*
X45059523Y-67852380D02*
X44488095Y-67852380D01*
X44773809Y-67852380D02*
X44773809Y-66852380D01*
X44678571Y-66995238D01*
X44583333Y-67090476D01*
X44488095Y-67138095D01*
X45964285Y-66852380D02*
X45488095Y-66852380D01*
X45440476Y-67328571D01*
X45488095Y-67280952D01*
X45583333Y-67233333D01*
X45821428Y-67233333D01*
X45916666Y-67280952D01*
X45964285Y-67328571D01*
X46011904Y-67423809D01*
X46011904Y-67661904D01*
X45964285Y-67757142D01*
X45916666Y-67804761D01*
X45821428Y-67852380D01*
X45583333Y-67852380D01*
X45488095Y-67804761D01*
X45440476Y-67757142D01*
X44107142Y-70507142D02*
X44059523Y-70554761D01*
X43916666Y-70602380D01*
X43821428Y-70602380D01*
X43678571Y-70554761D01*
X43583333Y-70459523D01*
X43535714Y-70364285D01*
X43488095Y-70173809D01*
X43488095Y-70030952D01*
X43535714Y-69840476D01*
X43583333Y-69745238D01*
X43678571Y-69650000D01*
X43821428Y-69602380D01*
X43916666Y-69602380D01*
X44059523Y-69650000D01*
X44107142Y-69697619D01*
X45059523Y-70602380D02*
X44488095Y-70602380D01*
X44773809Y-70602380D02*
X44773809Y-69602380D01*
X44678571Y-69745238D01*
X44583333Y-69840476D01*
X44488095Y-69888095D01*
X45916666Y-69935714D02*
X45916666Y-70602380D01*
X45678571Y-69554761D02*
X45440476Y-70269047D01*
X46059523Y-70269047D01*
X44757142Y-63142857D02*
X44804761Y-63190476D01*
X44852380Y-63333333D01*
X44852380Y-63428571D01*
X44804761Y-63571428D01*
X44709523Y-63666666D01*
X44614285Y-63714285D01*
X44423809Y-63761904D01*
X44280952Y-63761904D01*
X44090476Y-63714285D01*
X43995238Y-63666666D01*
X43900000Y-63571428D01*
X43852380Y-63428571D01*
X43852380Y-63333333D01*
X43900000Y-63190476D01*
X43947619Y-63142857D01*
X44852380Y-62190476D02*
X44852380Y-62761904D01*
X44852380Y-62476190D02*
X43852380Y-62476190D01*
X43995238Y-62571428D01*
X44090476Y-62666666D01*
X44138095Y-62761904D01*
X43852380Y-61857142D02*
X43852380Y-61238095D01*
X44233333Y-61571428D01*
X44233333Y-61428571D01*
X44280952Y-61333333D01*
X44328571Y-61285714D01*
X44423809Y-61238095D01*
X44661904Y-61238095D01*
X44757142Y-61285714D01*
X44804761Y-61333333D01*
X44852380Y-61428571D01*
X44852380Y-61714285D01*
X44804761Y-61809523D01*
X44757142Y-61857142D01*
X51107142Y-81787142D02*
X51059523Y-81834761D01*
X50916666Y-81882380D01*
X50821428Y-81882380D01*
X50678571Y-81834761D01*
X50583333Y-81739523D01*
X50535714Y-81644285D01*
X50488095Y-81453809D01*
X50488095Y-81310952D01*
X50535714Y-81120476D01*
X50583333Y-81025238D01*
X50678571Y-80930000D01*
X50821428Y-80882380D01*
X50916666Y-80882380D01*
X51059523Y-80930000D01*
X51107142Y-80977619D01*
X52059523Y-81882380D02*
X51488095Y-81882380D01*
X51773809Y-81882380D02*
X51773809Y-80882380D01*
X51678571Y-81025238D01*
X51583333Y-81120476D01*
X51488095Y-81168095D01*
X52440476Y-80977619D02*
X52488095Y-80930000D01*
X52583333Y-80882380D01*
X52821428Y-80882380D01*
X52916666Y-80930000D01*
X52964285Y-80977619D01*
X53011904Y-81072857D01*
X53011904Y-81168095D01*
X52964285Y-81310952D01*
X52392857Y-81882380D01*
X53011904Y-81882380D01*
X48007142Y-63142857D02*
X48054761Y-63190476D01*
X48102380Y-63333333D01*
X48102380Y-63428571D01*
X48054761Y-63571428D01*
X47959523Y-63666666D01*
X47864285Y-63714285D01*
X47673809Y-63761904D01*
X47530952Y-63761904D01*
X47340476Y-63714285D01*
X47245238Y-63666666D01*
X47150000Y-63571428D01*
X47102380Y-63428571D01*
X47102380Y-63333333D01*
X47150000Y-63190476D01*
X47197619Y-63142857D01*
X48102380Y-62190476D02*
X48102380Y-62761904D01*
X48102380Y-62476190D02*
X47102380Y-62476190D01*
X47245238Y-62571428D01*
X47340476Y-62666666D01*
X47388095Y-62761904D01*
X48102380Y-61238095D02*
X48102380Y-61809523D01*
X48102380Y-61523809D02*
X47102380Y-61523809D01*
X47245238Y-61619047D01*
X47340476Y-61714285D01*
X47388095Y-61809523D01*
X46957142Y-82392857D02*
X47004761Y-82440476D01*
X47052380Y-82583333D01*
X47052380Y-82678571D01*
X47004761Y-82821428D01*
X46909523Y-82916666D01*
X46814285Y-82964285D01*
X46623809Y-83011904D01*
X46480952Y-83011904D01*
X46290476Y-82964285D01*
X46195238Y-82916666D01*
X46100000Y-82821428D01*
X46052380Y-82678571D01*
X46052380Y-82583333D01*
X46100000Y-82440476D01*
X46147619Y-82392857D01*
X47052380Y-81440476D02*
X47052380Y-82011904D01*
X47052380Y-81726190D02*
X46052380Y-81726190D01*
X46195238Y-81821428D01*
X46290476Y-81916666D01*
X46338095Y-82011904D01*
X46052380Y-80821428D02*
X46052380Y-80726190D01*
X46100000Y-80630952D01*
X46147619Y-80583333D01*
X46242857Y-80535714D01*
X46433333Y-80488095D01*
X46671428Y-80488095D01*
X46861904Y-80535714D01*
X46957142Y-80583333D01*
X47004761Y-80630952D01*
X47052380Y-80726190D01*
X47052380Y-80821428D01*
X47004761Y-80916666D01*
X46957142Y-80964285D01*
X46861904Y-81011904D01*
X46671428Y-81059523D01*
X46433333Y-81059523D01*
X46242857Y-81011904D01*
X46147619Y-80964285D01*
X46100000Y-80916666D01*
X46052380Y-80821428D01*
X46333333Y-79507142D02*
X46285714Y-79554761D01*
X46142857Y-79602380D01*
X46047619Y-79602380D01*
X45904761Y-79554761D01*
X45809523Y-79459523D01*
X45761904Y-79364285D01*
X45714285Y-79173809D01*
X45714285Y-79030952D01*
X45761904Y-78840476D01*
X45809523Y-78745238D01*
X45904761Y-78650000D01*
X46047619Y-78602380D01*
X46142857Y-78602380D01*
X46285714Y-78650000D01*
X46333333Y-78697619D01*
X46809523Y-79602380D02*
X47000000Y-79602380D01*
X47095238Y-79554761D01*
X47142857Y-79507142D01*
X47238095Y-79364285D01*
X47285714Y-79173809D01*
X47285714Y-78792857D01*
X47238095Y-78697619D01*
X47190476Y-78650000D01*
X47095238Y-78602380D01*
X46904761Y-78602380D01*
X46809523Y-78650000D01*
X46761904Y-78697619D01*
X46714285Y-78792857D01*
X46714285Y-79030952D01*
X46761904Y-79126190D01*
X46809523Y-79173809D01*
X46904761Y-79221428D01*
X47095238Y-79221428D01*
X47190476Y-79173809D01*
X47238095Y-79126190D01*
X47285714Y-79030952D01*
X54957142Y-65916666D02*
X55004761Y-65964285D01*
X55052380Y-66107142D01*
X55052380Y-66202380D01*
X55004761Y-66345238D01*
X54909523Y-66440476D01*
X54814285Y-66488095D01*
X54623809Y-66535714D01*
X54480952Y-66535714D01*
X54290476Y-66488095D01*
X54195238Y-66440476D01*
X54100000Y-66345238D01*
X54052380Y-66202380D01*
X54052380Y-66107142D01*
X54100000Y-65964285D01*
X54147619Y-65916666D01*
X54480952Y-65345238D02*
X54433333Y-65440476D01*
X54385714Y-65488095D01*
X54290476Y-65535714D01*
X54242857Y-65535714D01*
X54147619Y-65488095D01*
X54100000Y-65440476D01*
X54052380Y-65345238D01*
X54052380Y-65154761D01*
X54100000Y-65059523D01*
X54147619Y-65011904D01*
X54242857Y-64964285D01*
X54290476Y-64964285D01*
X54385714Y-65011904D01*
X54433333Y-65059523D01*
X54480952Y-65154761D01*
X54480952Y-65345238D01*
X54528571Y-65440476D01*
X54576190Y-65488095D01*
X54671428Y-65535714D01*
X54861904Y-65535714D01*
X54957142Y-65488095D01*
X55004761Y-65440476D01*
X55052380Y-65345238D01*
X55052380Y-65154761D01*
X55004761Y-65059523D01*
X54957142Y-65011904D01*
X54861904Y-64964285D01*
X54671428Y-64964285D01*
X54576190Y-65011904D01*
X54528571Y-65059523D01*
X54480952Y-65154761D01*
X36677142Y-81916666D02*
X36724761Y-81964285D01*
X36772380Y-82107142D01*
X36772380Y-82202380D01*
X36724761Y-82345238D01*
X36629523Y-82440476D01*
X36534285Y-82488095D01*
X36343809Y-82535714D01*
X36200952Y-82535714D01*
X36010476Y-82488095D01*
X35915238Y-82440476D01*
X35820000Y-82345238D01*
X35772380Y-82202380D01*
X35772380Y-82107142D01*
X35820000Y-81964285D01*
X35867619Y-81916666D01*
X35772380Y-81059523D02*
X35772380Y-81250000D01*
X35820000Y-81345238D01*
X35867619Y-81392857D01*
X36010476Y-81488095D01*
X36200952Y-81535714D01*
X36581904Y-81535714D01*
X36677142Y-81488095D01*
X36724761Y-81440476D01*
X36772380Y-81345238D01*
X36772380Y-81154761D01*
X36724761Y-81059523D01*
X36677142Y-81011904D01*
X36581904Y-80964285D01*
X36343809Y-80964285D01*
X36248571Y-81011904D01*
X36200952Y-81059523D01*
X36153333Y-81154761D01*
X36153333Y-81345238D01*
X36200952Y-81440476D01*
X36248571Y-81488095D01*
X36343809Y-81535714D01*
X53207142Y-54916666D02*
X53254761Y-54964285D01*
X53302380Y-55107142D01*
X53302380Y-55202380D01*
X53254761Y-55345238D01*
X53159523Y-55440476D01*
X53064285Y-55488095D01*
X52873809Y-55535714D01*
X52730952Y-55535714D01*
X52540476Y-55488095D01*
X52445238Y-55440476D01*
X52350000Y-55345238D01*
X52302380Y-55202380D01*
X52302380Y-55107142D01*
X52350000Y-54964285D01*
X52397619Y-54916666D01*
X52302380Y-54583333D02*
X52302380Y-53964285D01*
X52683333Y-54297619D01*
X52683333Y-54154761D01*
X52730952Y-54059523D01*
X52778571Y-54011904D01*
X52873809Y-53964285D01*
X53111904Y-53964285D01*
X53207142Y-54011904D01*
X53254761Y-54059523D01*
X53302380Y-54154761D01*
X53302380Y-54440476D01*
X53254761Y-54535714D01*
X53207142Y-54583333D01*
X53083333Y-44707142D02*
X53035714Y-44754761D01*
X52892857Y-44802380D01*
X52797619Y-44802380D01*
X52654761Y-44754761D01*
X52559523Y-44659523D01*
X52511904Y-44564285D01*
X52464285Y-44373809D01*
X52464285Y-44230952D01*
X52511904Y-44040476D01*
X52559523Y-43945238D01*
X52654761Y-43850000D01*
X52797619Y-43802380D01*
X52892857Y-43802380D01*
X53035714Y-43850000D01*
X53083333Y-43897619D01*
X54035714Y-44802380D02*
X53464285Y-44802380D01*
X53750000Y-44802380D02*
X53750000Y-43802380D01*
X53654761Y-43945238D01*
X53559523Y-44040476D01*
X53464285Y-44088095D01*
%LPC*%
D16*
X49500000Y-49000000D03*
X47500000Y-49950000D03*
X47500000Y-48050000D03*
X47500000Y-54500000D03*
X49500000Y-53550000D03*
X49500000Y-55450000D03*
D17*
X52500000Y-42080000D03*
X52500000Y-39540000D03*
D18*
X52500000Y-37000000D03*
D17*
X48500000Y-42080000D03*
X48500000Y-39540000D03*
D18*
X48500000Y-37000000D03*
D19*
X65540000Y-79660000D03*
X63000000Y-79660000D03*
X65540000Y-77120000D03*
X63000000Y-77120000D03*
X65540000Y-74580000D03*
X63000000Y-74580000D03*
X65540000Y-72040000D03*
X63000000Y-72040000D03*
X65540000Y-69500000D03*
D20*
X63000000Y-69500000D03*
D17*
X73170000Y-76250000D03*
X75710000Y-76250000D03*
D18*
X78250000Y-76250000D03*
D17*
X73170000Y-72000000D03*
X75710000Y-72000000D03*
D18*
X78250000Y-72000000D03*
D21*
X33500000Y-81500000D03*
X76500000Y-81500000D03*
X33500000Y-38500000D03*
X76750000Y-38500000D03*
D22*
G36*
X59005505Y-64100311D02*
G01*
X59031925Y-64104230D01*
X59057835Y-64110720D01*
X59082983Y-64119718D01*
X59107128Y-64131138D01*
X59130038Y-64144869D01*
X59151492Y-64160780D01*
X59171282Y-64178718D01*
X59189220Y-64198508D01*
X59205131Y-64219962D01*
X59218862Y-64242872D01*
X59230282Y-64267017D01*
X59239280Y-64292165D01*
X59245770Y-64318075D01*
X59249689Y-64344495D01*
X59251000Y-64371173D01*
X59251000Y-65078827D01*
X59249689Y-65105505D01*
X59245770Y-65131925D01*
X59239280Y-65157835D01*
X59230282Y-65182983D01*
X59218862Y-65207128D01*
X59205131Y-65230038D01*
X59189220Y-65251492D01*
X59171282Y-65271282D01*
X59151492Y-65289220D01*
X59130038Y-65305131D01*
X59107128Y-65318862D01*
X59082983Y-65330282D01*
X59057835Y-65339280D01*
X59031925Y-65345770D01*
X59005505Y-65349689D01*
X58978827Y-65351000D01*
X58021173Y-65351000D01*
X57994495Y-65349689D01*
X57968075Y-65345770D01*
X57942165Y-65339280D01*
X57917017Y-65330282D01*
X57892872Y-65318862D01*
X57869962Y-65305131D01*
X57848508Y-65289220D01*
X57828718Y-65271282D01*
X57810780Y-65251492D01*
X57794869Y-65230038D01*
X57781138Y-65207128D01*
X57769718Y-65182983D01*
X57760720Y-65157835D01*
X57754230Y-65131925D01*
X57750311Y-65105505D01*
X57749000Y-65078827D01*
X57749000Y-64371173D01*
X57750311Y-64344495D01*
X57754230Y-64318075D01*
X57760720Y-64292165D01*
X57769718Y-64267017D01*
X57781138Y-64242872D01*
X57794869Y-64219962D01*
X57810780Y-64198508D01*
X57828718Y-64178718D01*
X57848508Y-64160780D01*
X57869962Y-64144869D01*
X57892872Y-64131138D01*
X57917017Y-64119718D01*
X57942165Y-64110720D01*
X57968075Y-64104230D01*
X57994495Y-64100311D01*
X58021173Y-64099000D01*
X58978827Y-64099000D01*
X59005505Y-64100311D01*
G37*
G36*
X59005505Y-66150311D02*
G01*
X59031925Y-66154230D01*
X59057835Y-66160720D01*
X59082983Y-66169718D01*
X59107128Y-66181138D01*
X59130038Y-66194869D01*
X59151492Y-66210780D01*
X59171282Y-66228718D01*
X59189220Y-66248508D01*
X59205131Y-66269962D01*
X59218862Y-66292872D01*
X59230282Y-66317017D01*
X59239280Y-66342165D01*
X59245770Y-66368075D01*
X59249689Y-66394495D01*
X59251000Y-66421173D01*
X59251000Y-67128827D01*
X59249689Y-67155505D01*
X59245770Y-67181925D01*
X59239280Y-67207835D01*
X59230282Y-67232983D01*
X59218862Y-67257128D01*
X59205131Y-67280038D01*
X59189220Y-67301492D01*
X59171282Y-67321282D01*
X59151492Y-67339220D01*
X59130038Y-67355131D01*
X59107128Y-67368862D01*
X59082983Y-67380282D01*
X59057835Y-67389280D01*
X59031925Y-67395770D01*
X59005505Y-67399689D01*
X58978827Y-67401000D01*
X58021173Y-67401000D01*
X57994495Y-67399689D01*
X57968075Y-67395770D01*
X57942165Y-67389280D01*
X57917017Y-67380282D01*
X57892872Y-67368862D01*
X57869962Y-67355131D01*
X57848508Y-67339220D01*
X57828718Y-67321282D01*
X57810780Y-67301492D01*
X57794869Y-67280038D01*
X57781138Y-67257128D01*
X57769718Y-67232983D01*
X57760720Y-67207835D01*
X57754230Y-67181925D01*
X57750311Y-67155505D01*
X57749000Y-67128827D01*
X57749000Y-66421173D01*
X57750311Y-66394495D01*
X57754230Y-66368075D01*
X57760720Y-66342165D01*
X57769718Y-66317017D01*
X57781138Y-66292872D01*
X57794869Y-66269962D01*
X57810780Y-66248508D01*
X57828718Y-66228718D01*
X57848508Y-66210780D01*
X57869962Y-66194869D01*
X57892872Y-66181138D01*
X57917017Y-66169718D01*
X57942165Y-66160720D01*
X57968075Y-66154230D01*
X57994495Y-66150311D01*
X58021173Y-66149000D01*
X58978827Y-66149000D01*
X59005505Y-66150311D01*
G37*
G36*
X33005505Y-73600311D02*
G01*
X33031925Y-73604230D01*
X33057835Y-73610720D01*
X33082983Y-73619718D01*
X33107128Y-73631138D01*
X33130038Y-73644869D01*
X33151492Y-73660780D01*
X33171282Y-73678718D01*
X33189220Y-73698508D01*
X33205131Y-73719962D01*
X33218862Y-73742872D01*
X33230282Y-73767017D01*
X33239280Y-73792165D01*
X33245770Y-73818075D01*
X33249689Y-73844495D01*
X33251000Y-73871173D01*
X33251000Y-74578827D01*
X33249689Y-74605505D01*
X33245770Y-74631925D01*
X33239280Y-74657835D01*
X33230282Y-74682983D01*
X33218862Y-74707128D01*
X33205131Y-74730038D01*
X33189220Y-74751492D01*
X33171282Y-74771282D01*
X33151492Y-74789220D01*
X33130038Y-74805131D01*
X33107128Y-74818862D01*
X33082983Y-74830282D01*
X33057835Y-74839280D01*
X33031925Y-74845770D01*
X33005505Y-74849689D01*
X32978827Y-74851000D01*
X32021173Y-74851000D01*
X31994495Y-74849689D01*
X31968075Y-74845770D01*
X31942165Y-74839280D01*
X31917017Y-74830282D01*
X31892872Y-74818862D01*
X31869962Y-74805131D01*
X31848508Y-74789220D01*
X31828718Y-74771282D01*
X31810780Y-74751492D01*
X31794869Y-74730038D01*
X31781138Y-74707128D01*
X31769718Y-74682983D01*
X31760720Y-74657835D01*
X31754230Y-74631925D01*
X31750311Y-74605505D01*
X31749000Y-74578827D01*
X31749000Y-73871173D01*
X31750311Y-73844495D01*
X31754230Y-73818075D01*
X31760720Y-73792165D01*
X31769718Y-73767017D01*
X31781138Y-73742872D01*
X31794869Y-73719962D01*
X31810780Y-73698508D01*
X31828718Y-73678718D01*
X31848508Y-73660780D01*
X31869962Y-73644869D01*
X31892872Y-73631138D01*
X31917017Y-73619718D01*
X31942165Y-73610720D01*
X31968075Y-73604230D01*
X31994495Y-73600311D01*
X32021173Y-73599000D01*
X32978827Y-73599000D01*
X33005505Y-73600311D01*
G37*
G36*
X33005505Y-75650311D02*
G01*
X33031925Y-75654230D01*
X33057835Y-75660720D01*
X33082983Y-75669718D01*
X33107128Y-75681138D01*
X33130038Y-75694869D01*
X33151492Y-75710780D01*
X33171282Y-75728718D01*
X33189220Y-75748508D01*
X33205131Y-75769962D01*
X33218862Y-75792872D01*
X33230282Y-75817017D01*
X33239280Y-75842165D01*
X33245770Y-75868075D01*
X33249689Y-75894495D01*
X33251000Y-75921173D01*
X33251000Y-76628827D01*
X33249689Y-76655505D01*
X33245770Y-76681925D01*
X33239280Y-76707835D01*
X33230282Y-76732983D01*
X33218862Y-76757128D01*
X33205131Y-76780038D01*
X33189220Y-76801492D01*
X33171282Y-76821282D01*
X33151492Y-76839220D01*
X33130038Y-76855131D01*
X33107128Y-76868862D01*
X33082983Y-76880282D01*
X33057835Y-76889280D01*
X33031925Y-76895770D01*
X33005505Y-76899689D01*
X32978827Y-76901000D01*
X32021173Y-76901000D01*
X31994495Y-76899689D01*
X31968075Y-76895770D01*
X31942165Y-76889280D01*
X31917017Y-76880282D01*
X31892872Y-76868862D01*
X31869962Y-76855131D01*
X31848508Y-76839220D01*
X31828718Y-76821282D01*
X31810780Y-76801492D01*
X31794869Y-76780038D01*
X31781138Y-76757128D01*
X31769718Y-76732983D01*
X31760720Y-76707835D01*
X31754230Y-76681925D01*
X31750311Y-76655505D01*
X31749000Y-76628827D01*
X31749000Y-75921173D01*
X31750311Y-75894495D01*
X31754230Y-75868075D01*
X31760720Y-75842165D01*
X31769718Y-75817017D01*
X31781138Y-75792872D01*
X31794869Y-75769962D01*
X31810780Y-75748508D01*
X31828718Y-75728718D01*
X31848508Y-75710780D01*
X31869962Y-75694869D01*
X31892872Y-75681138D01*
X31917017Y-75669718D01*
X31942165Y-75660720D01*
X31968075Y-75654230D01*
X31994495Y-75650311D01*
X32021173Y-75649000D01*
X32978827Y-75649000D01*
X33005505Y-75650311D01*
G37*
D23*
X38000000Y-75750000D03*
D24*
X35500000Y-75750000D03*
D23*
X39750000Y-49750000D03*
D24*
X39750000Y-52250000D03*
D25*
X35750000Y-64670000D03*
D26*
X35750000Y-69750000D03*
D27*
X48950000Y-64900000D03*
X53550000Y-64900000D03*
X51250000Y-64900000D03*
D28*
X51250000Y-58600000D03*
D29*
X69500000Y-59750000D03*
X67500000Y-59750000D03*
X65500000Y-59750000D03*
X63500000Y-59750000D03*
X61500000Y-59750000D03*
X59500000Y-59750000D03*
D30*
X72000000Y-44250000D03*
X72000000Y-46250000D03*
X72000000Y-48250000D03*
X72000000Y-50250000D03*
X72000000Y-52250000D03*
X72000000Y-54250000D03*
X72000000Y-56250000D03*
X72000000Y-58250000D03*
X57000000Y-58250000D03*
X57000000Y-56250000D03*
X57000000Y-54250000D03*
X57000000Y-52250000D03*
X57000000Y-50250000D03*
X57000000Y-48250000D03*
X57000000Y-46250000D03*
X57000000Y-44250000D03*
D31*
X44000000Y-43000000D03*
X39500000Y-43000000D03*
X44000000Y-36500000D03*
X39500000Y-36500000D03*
D22*
G36*
X56255505Y-81400311D02*
G01*
X56281925Y-81404230D01*
X56307835Y-81410720D01*
X56332983Y-81419718D01*
X56357128Y-81431138D01*
X56380038Y-81444869D01*
X56401492Y-81460780D01*
X56421282Y-81478718D01*
X56439220Y-81498508D01*
X56455131Y-81519962D01*
X56468862Y-81542872D01*
X56480282Y-81567017D01*
X56489280Y-81592165D01*
X56495770Y-81618075D01*
X56499689Y-81644495D01*
X56501000Y-81671173D01*
X56501000Y-82378827D01*
X56499689Y-82405505D01*
X56495770Y-82431925D01*
X56489280Y-82457835D01*
X56480282Y-82482983D01*
X56468862Y-82507128D01*
X56455131Y-82530038D01*
X56439220Y-82551492D01*
X56421282Y-82571282D01*
X56401492Y-82589220D01*
X56380038Y-82605131D01*
X56357128Y-82618862D01*
X56332983Y-82630282D01*
X56307835Y-82639280D01*
X56281925Y-82645770D01*
X56255505Y-82649689D01*
X56228827Y-82651000D01*
X55271173Y-82651000D01*
X55244495Y-82649689D01*
X55218075Y-82645770D01*
X55192165Y-82639280D01*
X55167017Y-82630282D01*
X55142872Y-82618862D01*
X55119962Y-82605131D01*
X55098508Y-82589220D01*
X55078718Y-82571282D01*
X55060780Y-82551492D01*
X55044869Y-82530038D01*
X55031138Y-82507128D01*
X55019718Y-82482983D01*
X55010720Y-82457835D01*
X55004230Y-82431925D01*
X55000311Y-82405505D01*
X54999000Y-82378827D01*
X54999000Y-81671173D01*
X55000311Y-81644495D01*
X55004230Y-81618075D01*
X55010720Y-81592165D01*
X55019718Y-81567017D01*
X55031138Y-81542872D01*
X55044869Y-81519962D01*
X55060780Y-81498508D01*
X55078718Y-81478718D01*
X55098508Y-81460780D01*
X55119962Y-81444869D01*
X55142872Y-81431138D01*
X55167017Y-81419718D01*
X55192165Y-81410720D01*
X55218075Y-81404230D01*
X55244495Y-81400311D01*
X55271173Y-81399000D01*
X56228827Y-81399000D01*
X56255505Y-81400311D01*
G37*
G36*
X56255505Y-79350311D02*
G01*
X56281925Y-79354230D01*
X56307835Y-79360720D01*
X56332983Y-79369718D01*
X56357128Y-79381138D01*
X56380038Y-79394869D01*
X56401492Y-79410780D01*
X56421282Y-79428718D01*
X56439220Y-79448508D01*
X56455131Y-79469962D01*
X56468862Y-79492872D01*
X56480282Y-79517017D01*
X56489280Y-79542165D01*
X56495770Y-79568075D01*
X56499689Y-79594495D01*
X56501000Y-79621173D01*
X56501000Y-80328827D01*
X56499689Y-80355505D01*
X56495770Y-80381925D01*
X56489280Y-80407835D01*
X56480282Y-80432983D01*
X56468862Y-80457128D01*
X56455131Y-80480038D01*
X56439220Y-80501492D01*
X56421282Y-80521282D01*
X56401492Y-80539220D01*
X56380038Y-80555131D01*
X56357128Y-80568862D01*
X56332983Y-80580282D01*
X56307835Y-80589280D01*
X56281925Y-80595770D01*
X56255505Y-80599689D01*
X56228827Y-80601000D01*
X55271173Y-80601000D01*
X55244495Y-80599689D01*
X55218075Y-80595770D01*
X55192165Y-80589280D01*
X55167017Y-80580282D01*
X55142872Y-80568862D01*
X55119962Y-80555131D01*
X55098508Y-80539220D01*
X55078718Y-80521282D01*
X55060780Y-80501492D01*
X55044869Y-80480038D01*
X55031138Y-80457128D01*
X55019718Y-80432983D01*
X55010720Y-80407835D01*
X55004230Y-80381925D01*
X55000311Y-80355505D01*
X54999000Y-80328827D01*
X54999000Y-79621173D01*
X55000311Y-79594495D01*
X55004230Y-79568075D01*
X55010720Y-79542165D01*
X55019718Y-79517017D01*
X55031138Y-79492872D01*
X55044869Y-79469962D01*
X55060780Y-79448508D01*
X55078718Y-79428718D01*
X55098508Y-79410780D01*
X55119962Y-79394869D01*
X55142872Y-79381138D01*
X55167017Y-79369718D01*
X55192165Y-79360720D01*
X55218075Y-79354230D01*
X55244495Y-79350311D01*
X55271173Y-79349000D01*
X56228827Y-79349000D01*
X56255505Y-79350311D01*
G37*
G36*
X56505505Y-74600311D02*
G01*
X56531925Y-74604230D01*
X56557835Y-74610720D01*
X56582983Y-74619718D01*
X56607128Y-74631138D01*
X56630038Y-74644869D01*
X56651492Y-74660780D01*
X56671282Y-74678718D01*
X56689220Y-74698508D01*
X56705131Y-74719962D01*
X56718862Y-74742872D01*
X56730282Y-74767017D01*
X56739280Y-74792165D01*
X56745770Y-74818075D01*
X56749689Y-74844495D01*
X56751000Y-74871173D01*
X56751000Y-75578827D01*
X56749689Y-75605505D01*
X56745770Y-75631925D01*
X56739280Y-75657835D01*
X56730282Y-75682983D01*
X56718862Y-75707128D01*
X56705131Y-75730038D01*
X56689220Y-75751492D01*
X56671282Y-75771282D01*
X56651492Y-75789220D01*
X56630038Y-75805131D01*
X56607128Y-75818862D01*
X56582983Y-75830282D01*
X56557835Y-75839280D01*
X56531925Y-75845770D01*
X56505505Y-75849689D01*
X56478827Y-75851000D01*
X55521173Y-75851000D01*
X55494495Y-75849689D01*
X55468075Y-75845770D01*
X55442165Y-75839280D01*
X55417017Y-75830282D01*
X55392872Y-75818862D01*
X55369962Y-75805131D01*
X55348508Y-75789220D01*
X55328718Y-75771282D01*
X55310780Y-75751492D01*
X55294869Y-75730038D01*
X55281138Y-75707128D01*
X55269718Y-75682983D01*
X55260720Y-75657835D01*
X55254230Y-75631925D01*
X55250311Y-75605505D01*
X55249000Y-75578827D01*
X55249000Y-74871173D01*
X55250311Y-74844495D01*
X55254230Y-74818075D01*
X55260720Y-74792165D01*
X55269718Y-74767017D01*
X55281138Y-74742872D01*
X55294869Y-74719962D01*
X55310780Y-74698508D01*
X55328718Y-74678718D01*
X55348508Y-74660780D01*
X55369962Y-74644869D01*
X55392872Y-74631138D01*
X55417017Y-74619718D01*
X55442165Y-74610720D01*
X55468075Y-74604230D01*
X55494495Y-74600311D01*
X55521173Y-74599000D01*
X56478827Y-74599000D01*
X56505505Y-74600311D01*
G37*
G36*
X56505505Y-76650311D02*
G01*
X56531925Y-76654230D01*
X56557835Y-76660720D01*
X56582983Y-76669718D01*
X56607128Y-76681138D01*
X56630038Y-76694869D01*
X56651492Y-76710780D01*
X56671282Y-76728718D01*
X56689220Y-76748508D01*
X56705131Y-76769962D01*
X56718862Y-76792872D01*
X56730282Y-76817017D01*
X56739280Y-76842165D01*
X56745770Y-76868075D01*
X56749689Y-76894495D01*
X56751000Y-76921173D01*
X56751000Y-77628827D01*
X56749689Y-77655505D01*
X56745770Y-77681925D01*
X56739280Y-77707835D01*
X56730282Y-77732983D01*
X56718862Y-77757128D01*
X56705131Y-77780038D01*
X56689220Y-77801492D01*
X56671282Y-77821282D01*
X56651492Y-77839220D01*
X56630038Y-77855131D01*
X56607128Y-77868862D01*
X56582983Y-77880282D01*
X56557835Y-77889280D01*
X56531925Y-77895770D01*
X56505505Y-77899689D01*
X56478827Y-77901000D01*
X55521173Y-77901000D01*
X55494495Y-77899689D01*
X55468075Y-77895770D01*
X55442165Y-77889280D01*
X55417017Y-77880282D01*
X55392872Y-77868862D01*
X55369962Y-77855131D01*
X55348508Y-77839220D01*
X55328718Y-77821282D01*
X55310780Y-77801492D01*
X55294869Y-77780038D01*
X55281138Y-77757128D01*
X55269718Y-77732983D01*
X55260720Y-77707835D01*
X55254230Y-77681925D01*
X55250311Y-77655505D01*
X55249000Y-77628827D01*
X55249000Y-76921173D01*
X55250311Y-76894495D01*
X55254230Y-76868075D01*
X55260720Y-76842165D01*
X55269718Y-76817017D01*
X55281138Y-76792872D01*
X55294869Y-76769962D01*
X55310780Y-76748508D01*
X55328718Y-76728718D01*
X55348508Y-76710780D01*
X55369962Y-76694869D01*
X55392872Y-76681138D01*
X55417017Y-76669718D01*
X55442165Y-76660720D01*
X55468075Y-76654230D01*
X55494495Y-76650311D01*
X55521173Y-76649000D01*
X56478827Y-76649000D01*
X56505505Y-76650311D01*
G37*
G36*
X56505505Y-70100311D02*
G01*
X56531925Y-70104230D01*
X56557835Y-70110720D01*
X56582983Y-70119718D01*
X56607128Y-70131138D01*
X56630038Y-70144869D01*
X56651492Y-70160780D01*
X56671282Y-70178718D01*
X56689220Y-70198508D01*
X56705131Y-70219962D01*
X56718862Y-70242872D01*
X56730282Y-70267017D01*
X56739280Y-70292165D01*
X56745770Y-70318075D01*
X56749689Y-70344495D01*
X56751000Y-70371173D01*
X56751000Y-71078827D01*
X56749689Y-71105505D01*
X56745770Y-71131925D01*
X56739280Y-71157835D01*
X56730282Y-71182983D01*
X56718862Y-71207128D01*
X56705131Y-71230038D01*
X56689220Y-71251492D01*
X56671282Y-71271282D01*
X56651492Y-71289220D01*
X56630038Y-71305131D01*
X56607128Y-71318862D01*
X56582983Y-71330282D01*
X56557835Y-71339280D01*
X56531925Y-71345770D01*
X56505505Y-71349689D01*
X56478827Y-71351000D01*
X55521173Y-71351000D01*
X55494495Y-71349689D01*
X55468075Y-71345770D01*
X55442165Y-71339280D01*
X55417017Y-71330282D01*
X55392872Y-71318862D01*
X55369962Y-71305131D01*
X55348508Y-71289220D01*
X55328718Y-71271282D01*
X55310780Y-71251492D01*
X55294869Y-71230038D01*
X55281138Y-71207128D01*
X55269718Y-71182983D01*
X55260720Y-71157835D01*
X55254230Y-71131925D01*
X55250311Y-71105505D01*
X55249000Y-71078827D01*
X55249000Y-70371173D01*
X55250311Y-70344495D01*
X55254230Y-70318075D01*
X55260720Y-70292165D01*
X55269718Y-70267017D01*
X55281138Y-70242872D01*
X55294869Y-70219962D01*
X55310780Y-70198508D01*
X55328718Y-70178718D01*
X55348508Y-70160780D01*
X55369962Y-70144869D01*
X55392872Y-70131138D01*
X55417017Y-70119718D01*
X55442165Y-70110720D01*
X55468075Y-70104230D01*
X55494495Y-70100311D01*
X55521173Y-70099000D01*
X56478827Y-70099000D01*
X56505505Y-70100311D01*
G37*
G36*
X56505505Y-72150311D02*
G01*
X56531925Y-72154230D01*
X56557835Y-72160720D01*
X56582983Y-72169718D01*
X56607128Y-72181138D01*
X56630038Y-72194869D01*
X56651492Y-72210780D01*
X56671282Y-72228718D01*
X56689220Y-72248508D01*
X56705131Y-72269962D01*
X56718862Y-72292872D01*
X56730282Y-72317017D01*
X56739280Y-72342165D01*
X56745770Y-72368075D01*
X56749689Y-72394495D01*
X56751000Y-72421173D01*
X56751000Y-73128827D01*
X56749689Y-73155505D01*
X56745770Y-73181925D01*
X56739280Y-73207835D01*
X56730282Y-73232983D01*
X56718862Y-73257128D01*
X56705131Y-73280038D01*
X56689220Y-73301492D01*
X56671282Y-73321282D01*
X56651492Y-73339220D01*
X56630038Y-73355131D01*
X56607128Y-73368862D01*
X56582983Y-73380282D01*
X56557835Y-73389280D01*
X56531925Y-73395770D01*
X56505505Y-73399689D01*
X56478827Y-73401000D01*
X55521173Y-73401000D01*
X55494495Y-73399689D01*
X55468075Y-73395770D01*
X55442165Y-73389280D01*
X55417017Y-73380282D01*
X55392872Y-73368862D01*
X55369962Y-73355131D01*
X55348508Y-73339220D01*
X55328718Y-73321282D01*
X55310780Y-73301492D01*
X55294869Y-73280038D01*
X55281138Y-73257128D01*
X55269718Y-73232983D01*
X55260720Y-73207835D01*
X55254230Y-73181925D01*
X55250311Y-73155505D01*
X55249000Y-73128827D01*
X55249000Y-72421173D01*
X55250311Y-72394495D01*
X55254230Y-72368075D01*
X55260720Y-72342165D01*
X55269718Y-72317017D01*
X55281138Y-72292872D01*
X55294869Y-72269962D01*
X55310780Y-72248508D01*
X55328718Y-72228718D01*
X55348508Y-72210780D01*
X55369962Y-72194869D01*
X55392872Y-72181138D01*
X55417017Y-72169718D01*
X55442165Y-72160720D01*
X55468075Y-72154230D01*
X55494495Y-72150311D01*
X55521173Y-72149000D01*
X56478827Y-72149000D01*
X56505505Y-72150311D01*
G37*
G36*
X51355505Y-81500311D02*
G01*
X51381925Y-81504230D01*
X51407835Y-81510720D01*
X51432983Y-81519718D01*
X51457128Y-81531138D01*
X51480038Y-81544869D01*
X51501492Y-81560780D01*
X51521282Y-81578718D01*
X51539220Y-81598508D01*
X51555131Y-81619962D01*
X51568862Y-81642872D01*
X51580282Y-81667017D01*
X51589280Y-81692165D01*
X51595770Y-81718075D01*
X51599689Y-81744495D01*
X51601000Y-81771173D01*
X51601000Y-82728827D01*
X51599689Y-82755505D01*
X51595770Y-82781925D01*
X51589280Y-82807835D01*
X51580282Y-82832983D01*
X51568862Y-82857128D01*
X51555131Y-82880038D01*
X51539220Y-82901492D01*
X51521282Y-82921282D01*
X51501492Y-82939220D01*
X51480038Y-82955131D01*
X51457128Y-82968862D01*
X51432983Y-82980282D01*
X51407835Y-82989280D01*
X51381925Y-82995770D01*
X51355505Y-82999689D01*
X51328827Y-83001000D01*
X50621173Y-83001000D01*
X50594495Y-82999689D01*
X50568075Y-82995770D01*
X50542165Y-82989280D01*
X50517017Y-82980282D01*
X50492872Y-82968862D01*
X50469962Y-82955131D01*
X50448508Y-82939220D01*
X50428718Y-82921282D01*
X50410780Y-82901492D01*
X50394869Y-82880038D01*
X50381138Y-82857128D01*
X50369718Y-82832983D01*
X50360720Y-82807835D01*
X50354230Y-82781925D01*
X50350311Y-82755505D01*
X50349000Y-82728827D01*
X50349000Y-81771173D01*
X50350311Y-81744495D01*
X50354230Y-81718075D01*
X50360720Y-81692165D01*
X50369718Y-81667017D01*
X50381138Y-81642872D01*
X50394869Y-81619962D01*
X50410780Y-81598508D01*
X50428718Y-81578718D01*
X50448508Y-81560780D01*
X50469962Y-81544869D01*
X50492872Y-81531138D01*
X50517017Y-81519718D01*
X50542165Y-81510720D01*
X50568075Y-81504230D01*
X50594495Y-81500311D01*
X50621173Y-81499000D01*
X51328827Y-81499000D01*
X51355505Y-81500311D01*
G37*
G36*
X53405505Y-81500311D02*
G01*
X53431925Y-81504230D01*
X53457835Y-81510720D01*
X53482983Y-81519718D01*
X53507128Y-81531138D01*
X53530038Y-81544869D01*
X53551492Y-81560780D01*
X53571282Y-81578718D01*
X53589220Y-81598508D01*
X53605131Y-81619962D01*
X53618862Y-81642872D01*
X53630282Y-81667017D01*
X53639280Y-81692165D01*
X53645770Y-81718075D01*
X53649689Y-81744495D01*
X53651000Y-81771173D01*
X53651000Y-82728827D01*
X53649689Y-82755505D01*
X53645770Y-82781925D01*
X53639280Y-82807835D01*
X53630282Y-82832983D01*
X53618862Y-82857128D01*
X53605131Y-82880038D01*
X53589220Y-82901492D01*
X53571282Y-82921282D01*
X53551492Y-82939220D01*
X53530038Y-82955131D01*
X53507128Y-82968862D01*
X53482983Y-82980282D01*
X53457835Y-82989280D01*
X53431925Y-82995770D01*
X53405505Y-82999689D01*
X53378827Y-83001000D01*
X52671173Y-83001000D01*
X52644495Y-82999689D01*
X52618075Y-82995770D01*
X52592165Y-82989280D01*
X52567017Y-82980282D01*
X52542872Y-82968862D01*
X52519962Y-82955131D01*
X52498508Y-82939220D01*
X52478718Y-82921282D01*
X52460780Y-82901492D01*
X52444869Y-82880038D01*
X52431138Y-82857128D01*
X52419718Y-82832983D01*
X52410720Y-82807835D01*
X52404230Y-82781925D01*
X52400311Y-82755505D01*
X52399000Y-82728827D01*
X52399000Y-81771173D01*
X52400311Y-81744495D01*
X52404230Y-81718075D01*
X52410720Y-81692165D01*
X52419718Y-81667017D01*
X52431138Y-81642872D01*
X52444869Y-81619962D01*
X52460780Y-81598508D01*
X52478718Y-81578718D01*
X52498508Y-81560780D01*
X52519962Y-81544869D01*
X52542872Y-81531138D01*
X52567017Y-81519718D01*
X52592165Y-81510720D01*
X52618075Y-81504230D01*
X52644495Y-81500311D01*
X52671173Y-81499000D01*
X53378827Y-81499000D01*
X53405505Y-81500311D01*
G37*
G36*
X75505505Y-58650311D02*
G01*
X75531925Y-58654230D01*
X75557835Y-58660720D01*
X75582983Y-58669718D01*
X75607128Y-58681138D01*
X75630038Y-58694869D01*
X75651492Y-58710780D01*
X75671282Y-58728718D01*
X75689220Y-58748508D01*
X75705131Y-58769962D01*
X75718862Y-58792872D01*
X75730282Y-58817017D01*
X75739280Y-58842165D01*
X75745770Y-58868075D01*
X75749689Y-58894495D01*
X75751000Y-58921173D01*
X75751000Y-59628827D01*
X75749689Y-59655505D01*
X75745770Y-59681925D01*
X75739280Y-59707835D01*
X75730282Y-59732983D01*
X75718862Y-59757128D01*
X75705131Y-59780038D01*
X75689220Y-59801492D01*
X75671282Y-59821282D01*
X75651492Y-59839220D01*
X75630038Y-59855131D01*
X75607128Y-59868862D01*
X75582983Y-59880282D01*
X75557835Y-59889280D01*
X75531925Y-59895770D01*
X75505505Y-59899689D01*
X75478827Y-59901000D01*
X74521173Y-59901000D01*
X74494495Y-59899689D01*
X74468075Y-59895770D01*
X74442165Y-59889280D01*
X74417017Y-59880282D01*
X74392872Y-59868862D01*
X74369962Y-59855131D01*
X74348508Y-59839220D01*
X74328718Y-59821282D01*
X74310780Y-59801492D01*
X74294869Y-59780038D01*
X74281138Y-59757128D01*
X74269718Y-59732983D01*
X74260720Y-59707835D01*
X74254230Y-59681925D01*
X74250311Y-59655505D01*
X74249000Y-59628827D01*
X74249000Y-58921173D01*
X74250311Y-58894495D01*
X74254230Y-58868075D01*
X74260720Y-58842165D01*
X74269718Y-58817017D01*
X74281138Y-58792872D01*
X74294869Y-58769962D01*
X74310780Y-58748508D01*
X74328718Y-58728718D01*
X74348508Y-58710780D01*
X74369962Y-58694869D01*
X74392872Y-58681138D01*
X74417017Y-58669718D01*
X74442165Y-58660720D01*
X74468075Y-58654230D01*
X74494495Y-58650311D01*
X74521173Y-58649000D01*
X75478827Y-58649000D01*
X75505505Y-58650311D01*
G37*
G36*
X75505505Y-56600311D02*
G01*
X75531925Y-56604230D01*
X75557835Y-56610720D01*
X75582983Y-56619718D01*
X75607128Y-56631138D01*
X75630038Y-56644869D01*
X75651492Y-56660780D01*
X75671282Y-56678718D01*
X75689220Y-56698508D01*
X75705131Y-56719962D01*
X75718862Y-56742872D01*
X75730282Y-56767017D01*
X75739280Y-56792165D01*
X75745770Y-56818075D01*
X75749689Y-56844495D01*
X75751000Y-56871173D01*
X75751000Y-57578827D01*
X75749689Y-57605505D01*
X75745770Y-57631925D01*
X75739280Y-57657835D01*
X75730282Y-57682983D01*
X75718862Y-57707128D01*
X75705131Y-57730038D01*
X75689220Y-57751492D01*
X75671282Y-57771282D01*
X75651492Y-57789220D01*
X75630038Y-57805131D01*
X75607128Y-57818862D01*
X75582983Y-57830282D01*
X75557835Y-57839280D01*
X75531925Y-57845770D01*
X75505505Y-57849689D01*
X75478827Y-57851000D01*
X74521173Y-57851000D01*
X74494495Y-57849689D01*
X74468075Y-57845770D01*
X74442165Y-57839280D01*
X74417017Y-57830282D01*
X74392872Y-57818862D01*
X74369962Y-57805131D01*
X74348508Y-57789220D01*
X74328718Y-57771282D01*
X74310780Y-57751492D01*
X74294869Y-57730038D01*
X74281138Y-57707128D01*
X74269718Y-57682983D01*
X74260720Y-57657835D01*
X74254230Y-57631925D01*
X74250311Y-57605505D01*
X74249000Y-57578827D01*
X74249000Y-56871173D01*
X74250311Y-56844495D01*
X74254230Y-56818075D01*
X74260720Y-56792165D01*
X74269718Y-56767017D01*
X74281138Y-56742872D01*
X74294869Y-56719962D01*
X74310780Y-56698508D01*
X74328718Y-56678718D01*
X74348508Y-56660780D01*
X74369962Y-56644869D01*
X74392872Y-56631138D01*
X74417017Y-56619718D01*
X74442165Y-56610720D01*
X74468075Y-56604230D01*
X74494495Y-56600311D01*
X74521173Y-56599000D01*
X75478827Y-56599000D01*
X75505505Y-56600311D01*
G37*
G36*
X42605505Y-45500311D02*
G01*
X42631925Y-45504230D01*
X42657835Y-45510720D01*
X42682983Y-45519718D01*
X42707128Y-45531138D01*
X42730038Y-45544869D01*
X42751492Y-45560780D01*
X42771282Y-45578718D01*
X42789220Y-45598508D01*
X42805131Y-45619962D01*
X42818862Y-45642872D01*
X42830282Y-45667017D01*
X42839280Y-45692165D01*
X42845770Y-45718075D01*
X42849689Y-45744495D01*
X42851000Y-45771173D01*
X42851000Y-46728827D01*
X42849689Y-46755505D01*
X42845770Y-46781925D01*
X42839280Y-46807835D01*
X42830282Y-46832983D01*
X42818862Y-46857128D01*
X42805131Y-46880038D01*
X42789220Y-46901492D01*
X42771282Y-46921282D01*
X42751492Y-46939220D01*
X42730038Y-46955131D01*
X42707128Y-46968862D01*
X42682983Y-46980282D01*
X42657835Y-46989280D01*
X42631925Y-46995770D01*
X42605505Y-46999689D01*
X42578827Y-47001000D01*
X41871173Y-47001000D01*
X41844495Y-46999689D01*
X41818075Y-46995770D01*
X41792165Y-46989280D01*
X41767017Y-46980282D01*
X41742872Y-46968862D01*
X41719962Y-46955131D01*
X41698508Y-46939220D01*
X41678718Y-46921282D01*
X41660780Y-46901492D01*
X41644869Y-46880038D01*
X41631138Y-46857128D01*
X41619718Y-46832983D01*
X41610720Y-46807835D01*
X41604230Y-46781925D01*
X41600311Y-46755505D01*
X41599000Y-46728827D01*
X41599000Y-45771173D01*
X41600311Y-45744495D01*
X41604230Y-45718075D01*
X41610720Y-45692165D01*
X41619718Y-45667017D01*
X41631138Y-45642872D01*
X41644869Y-45619962D01*
X41660780Y-45598508D01*
X41678718Y-45578718D01*
X41698508Y-45560780D01*
X41719962Y-45544869D01*
X41742872Y-45531138D01*
X41767017Y-45519718D01*
X41792165Y-45510720D01*
X41818075Y-45504230D01*
X41844495Y-45500311D01*
X41871173Y-45499000D01*
X42578827Y-45499000D01*
X42605505Y-45500311D01*
G37*
G36*
X44655505Y-45500311D02*
G01*
X44681925Y-45504230D01*
X44707835Y-45510720D01*
X44732983Y-45519718D01*
X44757128Y-45531138D01*
X44780038Y-45544869D01*
X44801492Y-45560780D01*
X44821282Y-45578718D01*
X44839220Y-45598508D01*
X44855131Y-45619962D01*
X44868862Y-45642872D01*
X44880282Y-45667017D01*
X44889280Y-45692165D01*
X44895770Y-45718075D01*
X44899689Y-45744495D01*
X44901000Y-45771173D01*
X44901000Y-46728827D01*
X44899689Y-46755505D01*
X44895770Y-46781925D01*
X44889280Y-46807835D01*
X44880282Y-46832983D01*
X44868862Y-46857128D01*
X44855131Y-46880038D01*
X44839220Y-46901492D01*
X44821282Y-46921282D01*
X44801492Y-46939220D01*
X44780038Y-46955131D01*
X44757128Y-46968862D01*
X44732983Y-46980282D01*
X44707835Y-46989280D01*
X44681925Y-46995770D01*
X44655505Y-46999689D01*
X44628827Y-47001000D01*
X43921173Y-47001000D01*
X43894495Y-46999689D01*
X43868075Y-46995770D01*
X43842165Y-46989280D01*
X43817017Y-46980282D01*
X43792872Y-46968862D01*
X43769962Y-46955131D01*
X43748508Y-46939220D01*
X43728718Y-46921282D01*
X43710780Y-46901492D01*
X43694869Y-46880038D01*
X43681138Y-46857128D01*
X43669718Y-46832983D01*
X43660720Y-46807835D01*
X43654230Y-46781925D01*
X43650311Y-46755505D01*
X43649000Y-46728827D01*
X43649000Y-45771173D01*
X43650311Y-45744495D01*
X43654230Y-45718075D01*
X43660720Y-45692165D01*
X43669718Y-45667017D01*
X43681138Y-45642872D01*
X43694869Y-45619962D01*
X43710780Y-45598508D01*
X43728718Y-45578718D01*
X43748508Y-45560780D01*
X43769962Y-45544869D01*
X43792872Y-45531138D01*
X43817017Y-45519718D01*
X43842165Y-45510720D01*
X43868075Y-45504230D01*
X43894495Y-45500311D01*
X43921173Y-45499000D01*
X44628827Y-45499000D01*
X44655505Y-45500311D01*
G37*
G36*
X45505505Y-49850311D02*
G01*
X45531925Y-49854230D01*
X45557835Y-49860720D01*
X45582983Y-49869718D01*
X45607128Y-49881138D01*
X45630038Y-49894869D01*
X45651492Y-49910780D01*
X45671282Y-49928718D01*
X45689220Y-49948508D01*
X45705131Y-49969962D01*
X45718862Y-49992872D01*
X45730282Y-50017017D01*
X45739280Y-50042165D01*
X45745770Y-50068075D01*
X45749689Y-50094495D01*
X45751000Y-50121173D01*
X45751000Y-50828827D01*
X45749689Y-50855505D01*
X45745770Y-50881925D01*
X45739280Y-50907835D01*
X45730282Y-50932983D01*
X45718862Y-50957128D01*
X45705131Y-50980038D01*
X45689220Y-51001492D01*
X45671282Y-51021282D01*
X45651492Y-51039220D01*
X45630038Y-51055131D01*
X45607128Y-51068862D01*
X45582983Y-51080282D01*
X45557835Y-51089280D01*
X45531925Y-51095770D01*
X45505505Y-51099689D01*
X45478827Y-51101000D01*
X44521173Y-51101000D01*
X44494495Y-51099689D01*
X44468075Y-51095770D01*
X44442165Y-51089280D01*
X44417017Y-51080282D01*
X44392872Y-51068862D01*
X44369962Y-51055131D01*
X44348508Y-51039220D01*
X44328718Y-51021282D01*
X44310780Y-51001492D01*
X44294869Y-50980038D01*
X44281138Y-50957128D01*
X44269718Y-50932983D01*
X44260720Y-50907835D01*
X44254230Y-50881925D01*
X44250311Y-50855505D01*
X44249000Y-50828827D01*
X44249000Y-50121173D01*
X44250311Y-50094495D01*
X44254230Y-50068075D01*
X44260720Y-50042165D01*
X44269718Y-50017017D01*
X44281138Y-49992872D01*
X44294869Y-49969962D01*
X44310780Y-49948508D01*
X44328718Y-49928718D01*
X44348508Y-49910780D01*
X44369962Y-49894869D01*
X44392872Y-49881138D01*
X44417017Y-49869718D01*
X44442165Y-49860720D01*
X44468075Y-49854230D01*
X44494495Y-49850311D01*
X44521173Y-49849000D01*
X45478827Y-49849000D01*
X45505505Y-49850311D01*
G37*
G36*
X45505505Y-51900311D02*
G01*
X45531925Y-51904230D01*
X45557835Y-51910720D01*
X45582983Y-51919718D01*
X45607128Y-51931138D01*
X45630038Y-51944869D01*
X45651492Y-51960780D01*
X45671282Y-51978718D01*
X45689220Y-51998508D01*
X45705131Y-52019962D01*
X45718862Y-52042872D01*
X45730282Y-52067017D01*
X45739280Y-52092165D01*
X45745770Y-52118075D01*
X45749689Y-52144495D01*
X45751000Y-52171173D01*
X45751000Y-52878827D01*
X45749689Y-52905505D01*
X45745770Y-52931925D01*
X45739280Y-52957835D01*
X45730282Y-52982983D01*
X45718862Y-53007128D01*
X45705131Y-53030038D01*
X45689220Y-53051492D01*
X45671282Y-53071282D01*
X45651492Y-53089220D01*
X45630038Y-53105131D01*
X45607128Y-53118862D01*
X45582983Y-53130282D01*
X45557835Y-53139280D01*
X45531925Y-53145770D01*
X45505505Y-53149689D01*
X45478827Y-53151000D01*
X44521173Y-53151000D01*
X44494495Y-53149689D01*
X44468075Y-53145770D01*
X44442165Y-53139280D01*
X44417017Y-53130282D01*
X44392872Y-53118862D01*
X44369962Y-53105131D01*
X44348508Y-53089220D01*
X44328718Y-53071282D01*
X44310780Y-53051492D01*
X44294869Y-53030038D01*
X44281138Y-53007128D01*
X44269718Y-52982983D01*
X44260720Y-52957835D01*
X44254230Y-52931925D01*
X44250311Y-52905505D01*
X44249000Y-52878827D01*
X44249000Y-52171173D01*
X44250311Y-52144495D01*
X44254230Y-52118075D01*
X44260720Y-52092165D01*
X44269718Y-52067017D01*
X44281138Y-52042872D01*
X44294869Y-52019962D01*
X44310780Y-51998508D01*
X44328718Y-51978718D01*
X44348508Y-51960780D01*
X44369962Y-51944869D01*
X44392872Y-51931138D01*
X44417017Y-51919718D01*
X44442165Y-51910720D01*
X44468075Y-51904230D01*
X44494495Y-51900311D01*
X44521173Y-51899000D01*
X45478827Y-51899000D01*
X45505505Y-51900311D01*
G37*
G36*
X52505505Y-55150311D02*
G01*
X52531925Y-55154230D01*
X52557835Y-55160720D01*
X52582983Y-55169718D01*
X52607128Y-55181138D01*
X52630038Y-55194869D01*
X52651492Y-55210780D01*
X52671282Y-55228718D01*
X52689220Y-55248508D01*
X52705131Y-55269962D01*
X52718862Y-55292872D01*
X52730282Y-55317017D01*
X52739280Y-55342165D01*
X52745770Y-55368075D01*
X52749689Y-55394495D01*
X52751000Y-55421173D01*
X52751000Y-56128827D01*
X52749689Y-56155505D01*
X52745770Y-56181925D01*
X52739280Y-56207835D01*
X52730282Y-56232983D01*
X52718862Y-56257128D01*
X52705131Y-56280038D01*
X52689220Y-56301492D01*
X52671282Y-56321282D01*
X52651492Y-56339220D01*
X52630038Y-56355131D01*
X52607128Y-56368862D01*
X52582983Y-56380282D01*
X52557835Y-56389280D01*
X52531925Y-56395770D01*
X52505505Y-56399689D01*
X52478827Y-56401000D01*
X51521173Y-56401000D01*
X51494495Y-56399689D01*
X51468075Y-56395770D01*
X51442165Y-56389280D01*
X51417017Y-56380282D01*
X51392872Y-56368862D01*
X51369962Y-56355131D01*
X51348508Y-56339220D01*
X51328718Y-56321282D01*
X51310780Y-56301492D01*
X51294869Y-56280038D01*
X51281138Y-56257128D01*
X51269718Y-56232983D01*
X51260720Y-56207835D01*
X51254230Y-56181925D01*
X51250311Y-56155505D01*
X51249000Y-56128827D01*
X51249000Y-55421173D01*
X51250311Y-55394495D01*
X51254230Y-55368075D01*
X51260720Y-55342165D01*
X51269718Y-55317017D01*
X51281138Y-55292872D01*
X51294869Y-55269962D01*
X51310780Y-55248508D01*
X51328718Y-55228718D01*
X51348508Y-55210780D01*
X51369962Y-55194869D01*
X51392872Y-55181138D01*
X51417017Y-55169718D01*
X51442165Y-55160720D01*
X51468075Y-55154230D01*
X51494495Y-55150311D01*
X51521173Y-55149000D01*
X52478827Y-55149000D01*
X52505505Y-55150311D01*
G37*
G36*
X52505505Y-53100311D02*
G01*
X52531925Y-53104230D01*
X52557835Y-53110720D01*
X52582983Y-53119718D01*
X52607128Y-53131138D01*
X52630038Y-53144869D01*
X52651492Y-53160780D01*
X52671282Y-53178718D01*
X52689220Y-53198508D01*
X52705131Y-53219962D01*
X52718862Y-53242872D01*
X52730282Y-53267017D01*
X52739280Y-53292165D01*
X52745770Y-53318075D01*
X52749689Y-53344495D01*
X52751000Y-53371173D01*
X52751000Y-54078827D01*
X52749689Y-54105505D01*
X52745770Y-54131925D01*
X52739280Y-54157835D01*
X52730282Y-54182983D01*
X52718862Y-54207128D01*
X52705131Y-54230038D01*
X52689220Y-54251492D01*
X52671282Y-54271282D01*
X52651492Y-54289220D01*
X52630038Y-54305131D01*
X52607128Y-54318862D01*
X52582983Y-54330282D01*
X52557835Y-54339280D01*
X52531925Y-54345770D01*
X52505505Y-54349689D01*
X52478827Y-54351000D01*
X51521173Y-54351000D01*
X51494495Y-54349689D01*
X51468075Y-54345770D01*
X51442165Y-54339280D01*
X51417017Y-54330282D01*
X51392872Y-54318862D01*
X51369962Y-54305131D01*
X51348508Y-54289220D01*
X51328718Y-54271282D01*
X51310780Y-54251492D01*
X51294869Y-54230038D01*
X51281138Y-54207128D01*
X51269718Y-54182983D01*
X51260720Y-54157835D01*
X51254230Y-54131925D01*
X51250311Y-54105505D01*
X51249000Y-54078827D01*
X51249000Y-53371173D01*
X51250311Y-53344495D01*
X51254230Y-53318075D01*
X51260720Y-53292165D01*
X51269718Y-53267017D01*
X51281138Y-53242872D01*
X51294869Y-53219962D01*
X51310780Y-53198508D01*
X51328718Y-53178718D01*
X51348508Y-53160780D01*
X51369962Y-53144869D01*
X51392872Y-53131138D01*
X51417017Y-53119718D01*
X51442165Y-53110720D01*
X51468075Y-53104230D01*
X51494495Y-53100311D01*
X51521173Y-53099000D01*
X52478827Y-53099000D01*
X52505505Y-53100311D01*
G37*
G36*
X54655505Y-47250311D02*
G01*
X54681925Y-47254230D01*
X54707835Y-47260720D01*
X54732983Y-47269718D01*
X54757128Y-47281138D01*
X54780038Y-47294869D01*
X54801492Y-47310780D01*
X54821282Y-47328718D01*
X54839220Y-47348508D01*
X54855131Y-47369962D01*
X54868862Y-47392872D01*
X54880282Y-47417017D01*
X54889280Y-47442165D01*
X54895770Y-47468075D01*
X54899689Y-47494495D01*
X54901000Y-47521173D01*
X54901000Y-48478827D01*
X54899689Y-48505505D01*
X54895770Y-48531925D01*
X54889280Y-48557835D01*
X54880282Y-48582983D01*
X54868862Y-48607128D01*
X54855131Y-48630038D01*
X54839220Y-48651492D01*
X54821282Y-48671282D01*
X54801492Y-48689220D01*
X54780038Y-48705131D01*
X54757128Y-48718862D01*
X54732983Y-48730282D01*
X54707835Y-48739280D01*
X54681925Y-48745770D01*
X54655505Y-48749689D01*
X54628827Y-48751000D01*
X53921173Y-48751000D01*
X53894495Y-48749689D01*
X53868075Y-48745770D01*
X53842165Y-48739280D01*
X53817017Y-48730282D01*
X53792872Y-48718862D01*
X53769962Y-48705131D01*
X53748508Y-48689220D01*
X53728718Y-48671282D01*
X53710780Y-48651492D01*
X53694869Y-48630038D01*
X53681138Y-48607128D01*
X53669718Y-48582983D01*
X53660720Y-48557835D01*
X53654230Y-48531925D01*
X53650311Y-48505505D01*
X53649000Y-48478827D01*
X53649000Y-47521173D01*
X53650311Y-47494495D01*
X53654230Y-47468075D01*
X53660720Y-47442165D01*
X53669718Y-47417017D01*
X53681138Y-47392872D01*
X53694869Y-47369962D01*
X53710780Y-47348508D01*
X53728718Y-47328718D01*
X53748508Y-47310780D01*
X53769962Y-47294869D01*
X53792872Y-47281138D01*
X53817017Y-47269718D01*
X53842165Y-47260720D01*
X53868075Y-47254230D01*
X53894495Y-47250311D01*
X53921173Y-47249000D01*
X54628827Y-47249000D01*
X54655505Y-47250311D01*
G37*
G36*
X52605505Y-47250311D02*
G01*
X52631925Y-47254230D01*
X52657835Y-47260720D01*
X52682983Y-47269718D01*
X52707128Y-47281138D01*
X52730038Y-47294869D01*
X52751492Y-47310780D01*
X52771282Y-47328718D01*
X52789220Y-47348508D01*
X52805131Y-47369962D01*
X52818862Y-47392872D01*
X52830282Y-47417017D01*
X52839280Y-47442165D01*
X52845770Y-47468075D01*
X52849689Y-47494495D01*
X52851000Y-47521173D01*
X52851000Y-48478827D01*
X52849689Y-48505505D01*
X52845770Y-48531925D01*
X52839280Y-48557835D01*
X52830282Y-48582983D01*
X52818862Y-48607128D01*
X52805131Y-48630038D01*
X52789220Y-48651492D01*
X52771282Y-48671282D01*
X52751492Y-48689220D01*
X52730038Y-48705131D01*
X52707128Y-48718862D01*
X52682983Y-48730282D01*
X52657835Y-48739280D01*
X52631925Y-48745770D01*
X52605505Y-48749689D01*
X52578827Y-48751000D01*
X51871173Y-48751000D01*
X51844495Y-48749689D01*
X51818075Y-48745770D01*
X51792165Y-48739280D01*
X51767017Y-48730282D01*
X51742872Y-48718862D01*
X51719962Y-48705131D01*
X51698508Y-48689220D01*
X51678718Y-48671282D01*
X51660780Y-48651492D01*
X51644869Y-48630038D01*
X51631138Y-48607128D01*
X51619718Y-48582983D01*
X51610720Y-48557835D01*
X51604230Y-48531925D01*
X51600311Y-48505505D01*
X51599000Y-48478827D01*
X51599000Y-47521173D01*
X51600311Y-47494495D01*
X51604230Y-47468075D01*
X51610720Y-47442165D01*
X51619718Y-47417017D01*
X51631138Y-47392872D01*
X51644869Y-47369962D01*
X51660780Y-47348508D01*
X51678718Y-47328718D01*
X51698508Y-47310780D01*
X51719962Y-47294869D01*
X51742872Y-47281138D01*
X51767017Y-47269718D01*
X51792165Y-47260720D01*
X51818075Y-47254230D01*
X51844495Y-47250311D01*
X51871173Y-47249000D01*
X52578827Y-47249000D01*
X52605505Y-47250311D01*
G37*
G36*
X75505505Y-51625311D02*
G01*
X75531925Y-51629230D01*
X75557835Y-51635720D01*
X75582983Y-51644718D01*
X75607128Y-51656138D01*
X75630038Y-51669869D01*
X75651492Y-51685780D01*
X75671282Y-51703718D01*
X75689220Y-51723508D01*
X75705131Y-51744962D01*
X75718862Y-51767872D01*
X75730282Y-51792017D01*
X75739280Y-51817165D01*
X75745770Y-51843075D01*
X75749689Y-51869495D01*
X75751000Y-51896173D01*
X75751000Y-52603827D01*
X75749689Y-52630505D01*
X75745770Y-52656925D01*
X75739280Y-52682835D01*
X75730282Y-52707983D01*
X75718862Y-52732128D01*
X75705131Y-52755038D01*
X75689220Y-52776492D01*
X75671282Y-52796282D01*
X75651492Y-52814220D01*
X75630038Y-52830131D01*
X75607128Y-52843862D01*
X75582983Y-52855282D01*
X75557835Y-52864280D01*
X75531925Y-52870770D01*
X75505505Y-52874689D01*
X75478827Y-52876000D01*
X74521173Y-52876000D01*
X74494495Y-52874689D01*
X74468075Y-52870770D01*
X74442165Y-52864280D01*
X74417017Y-52855282D01*
X74392872Y-52843862D01*
X74369962Y-52830131D01*
X74348508Y-52814220D01*
X74328718Y-52796282D01*
X74310780Y-52776492D01*
X74294869Y-52755038D01*
X74281138Y-52732128D01*
X74269718Y-52707983D01*
X74260720Y-52682835D01*
X74254230Y-52656925D01*
X74250311Y-52630505D01*
X74249000Y-52603827D01*
X74249000Y-51896173D01*
X74250311Y-51869495D01*
X74254230Y-51843075D01*
X74260720Y-51817165D01*
X74269718Y-51792017D01*
X74281138Y-51767872D01*
X74294869Y-51744962D01*
X74310780Y-51723508D01*
X74328718Y-51703718D01*
X74348508Y-51685780D01*
X74369962Y-51669869D01*
X74392872Y-51656138D01*
X74417017Y-51644718D01*
X74442165Y-51635720D01*
X74468075Y-51629230D01*
X74494495Y-51625311D01*
X74521173Y-51624000D01*
X75478827Y-51624000D01*
X75505505Y-51625311D01*
G37*
G36*
X75505505Y-53675311D02*
G01*
X75531925Y-53679230D01*
X75557835Y-53685720D01*
X75582983Y-53694718D01*
X75607128Y-53706138D01*
X75630038Y-53719869D01*
X75651492Y-53735780D01*
X75671282Y-53753718D01*
X75689220Y-53773508D01*
X75705131Y-53794962D01*
X75718862Y-53817872D01*
X75730282Y-53842017D01*
X75739280Y-53867165D01*
X75745770Y-53893075D01*
X75749689Y-53919495D01*
X75751000Y-53946173D01*
X75751000Y-54653827D01*
X75749689Y-54680505D01*
X75745770Y-54706925D01*
X75739280Y-54732835D01*
X75730282Y-54757983D01*
X75718862Y-54782128D01*
X75705131Y-54805038D01*
X75689220Y-54826492D01*
X75671282Y-54846282D01*
X75651492Y-54864220D01*
X75630038Y-54880131D01*
X75607128Y-54893862D01*
X75582983Y-54905282D01*
X75557835Y-54914280D01*
X75531925Y-54920770D01*
X75505505Y-54924689D01*
X75478827Y-54926000D01*
X74521173Y-54926000D01*
X74494495Y-54924689D01*
X74468075Y-54920770D01*
X74442165Y-54914280D01*
X74417017Y-54905282D01*
X74392872Y-54893862D01*
X74369962Y-54880131D01*
X74348508Y-54864220D01*
X74328718Y-54846282D01*
X74310780Y-54826492D01*
X74294869Y-54805038D01*
X74281138Y-54782128D01*
X74269718Y-54757983D01*
X74260720Y-54732835D01*
X74254230Y-54706925D01*
X74250311Y-54680505D01*
X74249000Y-54653827D01*
X74249000Y-53946173D01*
X74250311Y-53919495D01*
X74254230Y-53893075D01*
X74260720Y-53867165D01*
X74269718Y-53842017D01*
X74281138Y-53817872D01*
X74294869Y-53794962D01*
X74310780Y-53773508D01*
X74328718Y-53753718D01*
X74348508Y-53735780D01*
X74369962Y-53719869D01*
X74392872Y-53706138D01*
X74417017Y-53694718D01*
X74442165Y-53685720D01*
X74468075Y-53679230D01*
X74494495Y-53675311D01*
X74521173Y-53674000D01*
X75478827Y-53674000D01*
X75505505Y-53675311D01*
G37*
G36*
X77755505Y-55925311D02*
G01*
X77781925Y-55929230D01*
X77807835Y-55935720D01*
X77832983Y-55944718D01*
X77857128Y-55956138D01*
X77880038Y-55969869D01*
X77901492Y-55985780D01*
X77921282Y-56003718D01*
X77939220Y-56023508D01*
X77955131Y-56044962D01*
X77968862Y-56067872D01*
X77980282Y-56092017D01*
X77989280Y-56117165D01*
X77995770Y-56143075D01*
X77999689Y-56169495D01*
X78001000Y-56196173D01*
X78001000Y-56903827D01*
X77999689Y-56930505D01*
X77995770Y-56956925D01*
X77989280Y-56982835D01*
X77980282Y-57007983D01*
X77968862Y-57032128D01*
X77955131Y-57055038D01*
X77939220Y-57076492D01*
X77921282Y-57096282D01*
X77901492Y-57114220D01*
X77880038Y-57130131D01*
X77857128Y-57143862D01*
X77832983Y-57155282D01*
X77807835Y-57164280D01*
X77781925Y-57170770D01*
X77755505Y-57174689D01*
X77728827Y-57176000D01*
X76771173Y-57176000D01*
X76744495Y-57174689D01*
X76718075Y-57170770D01*
X76692165Y-57164280D01*
X76667017Y-57155282D01*
X76642872Y-57143862D01*
X76619962Y-57130131D01*
X76598508Y-57114220D01*
X76578718Y-57096282D01*
X76560780Y-57076492D01*
X76544869Y-57055038D01*
X76531138Y-57032128D01*
X76519718Y-57007983D01*
X76510720Y-56982835D01*
X76504230Y-56956925D01*
X76500311Y-56930505D01*
X76499000Y-56903827D01*
X76499000Y-56196173D01*
X76500311Y-56169495D01*
X76504230Y-56143075D01*
X76510720Y-56117165D01*
X76519718Y-56092017D01*
X76531138Y-56067872D01*
X76544869Y-56044962D01*
X76560780Y-56023508D01*
X76578718Y-56003718D01*
X76598508Y-55985780D01*
X76619962Y-55969869D01*
X76642872Y-55956138D01*
X76667017Y-55944718D01*
X76692165Y-55935720D01*
X76718075Y-55929230D01*
X76744495Y-55925311D01*
X76771173Y-55924000D01*
X77728827Y-55924000D01*
X77755505Y-55925311D01*
G37*
G36*
X77755505Y-53875311D02*
G01*
X77781925Y-53879230D01*
X77807835Y-53885720D01*
X77832983Y-53894718D01*
X77857128Y-53906138D01*
X77880038Y-53919869D01*
X77901492Y-53935780D01*
X77921282Y-53953718D01*
X77939220Y-53973508D01*
X77955131Y-53994962D01*
X77968862Y-54017872D01*
X77980282Y-54042017D01*
X77989280Y-54067165D01*
X77995770Y-54093075D01*
X77999689Y-54119495D01*
X78001000Y-54146173D01*
X78001000Y-54853827D01*
X77999689Y-54880505D01*
X77995770Y-54906925D01*
X77989280Y-54932835D01*
X77980282Y-54957983D01*
X77968862Y-54982128D01*
X77955131Y-55005038D01*
X77939220Y-55026492D01*
X77921282Y-55046282D01*
X77901492Y-55064220D01*
X77880038Y-55080131D01*
X77857128Y-55093862D01*
X77832983Y-55105282D01*
X77807835Y-55114280D01*
X77781925Y-55120770D01*
X77755505Y-55124689D01*
X77728827Y-55126000D01*
X76771173Y-55126000D01*
X76744495Y-55124689D01*
X76718075Y-55120770D01*
X76692165Y-55114280D01*
X76667017Y-55105282D01*
X76642872Y-55093862D01*
X76619962Y-55080131D01*
X76598508Y-55064220D01*
X76578718Y-55046282D01*
X76560780Y-55026492D01*
X76544869Y-55005038D01*
X76531138Y-54982128D01*
X76519718Y-54957983D01*
X76510720Y-54932835D01*
X76504230Y-54906925D01*
X76500311Y-54880505D01*
X76499000Y-54853827D01*
X76499000Y-54146173D01*
X76500311Y-54119495D01*
X76504230Y-54093075D01*
X76510720Y-54067165D01*
X76519718Y-54042017D01*
X76531138Y-54017872D01*
X76544869Y-53994962D01*
X76560780Y-53973508D01*
X76578718Y-53953718D01*
X76598508Y-53935780D01*
X76619962Y-53919869D01*
X76642872Y-53906138D01*
X76667017Y-53894718D01*
X76692165Y-53885720D01*
X76718075Y-53879230D01*
X76744495Y-53875311D01*
X76771173Y-53874000D01*
X77728827Y-53874000D01*
X77755505Y-53875311D01*
G37*
G36*
X54655505Y-49750311D02*
G01*
X54681925Y-49754230D01*
X54707835Y-49760720D01*
X54732983Y-49769718D01*
X54757128Y-49781138D01*
X54780038Y-49794869D01*
X54801492Y-49810780D01*
X54821282Y-49828718D01*
X54839220Y-49848508D01*
X54855131Y-49869962D01*
X54868862Y-49892872D01*
X54880282Y-49917017D01*
X54889280Y-49942165D01*
X54895770Y-49968075D01*
X54899689Y-49994495D01*
X54901000Y-50021173D01*
X54901000Y-50978827D01*
X54899689Y-51005505D01*
X54895770Y-51031925D01*
X54889280Y-51057835D01*
X54880282Y-51082983D01*
X54868862Y-51107128D01*
X54855131Y-51130038D01*
X54839220Y-51151492D01*
X54821282Y-51171282D01*
X54801492Y-51189220D01*
X54780038Y-51205131D01*
X54757128Y-51218862D01*
X54732983Y-51230282D01*
X54707835Y-51239280D01*
X54681925Y-51245770D01*
X54655505Y-51249689D01*
X54628827Y-51251000D01*
X53921173Y-51251000D01*
X53894495Y-51249689D01*
X53868075Y-51245770D01*
X53842165Y-51239280D01*
X53817017Y-51230282D01*
X53792872Y-51218862D01*
X53769962Y-51205131D01*
X53748508Y-51189220D01*
X53728718Y-51171282D01*
X53710780Y-51151492D01*
X53694869Y-51130038D01*
X53681138Y-51107128D01*
X53669718Y-51082983D01*
X53660720Y-51057835D01*
X53654230Y-51031925D01*
X53650311Y-51005505D01*
X53649000Y-50978827D01*
X53649000Y-50021173D01*
X53650311Y-49994495D01*
X53654230Y-49968075D01*
X53660720Y-49942165D01*
X53669718Y-49917017D01*
X53681138Y-49892872D01*
X53694869Y-49869962D01*
X53710780Y-49848508D01*
X53728718Y-49828718D01*
X53748508Y-49810780D01*
X53769962Y-49794869D01*
X53792872Y-49781138D01*
X53817017Y-49769718D01*
X53842165Y-49760720D01*
X53868075Y-49754230D01*
X53894495Y-49750311D01*
X53921173Y-49749000D01*
X54628827Y-49749000D01*
X54655505Y-49750311D01*
G37*
G36*
X52605505Y-49750311D02*
G01*
X52631925Y-49754230D01*
X52657835Y-49760720D01*
X52682983Y-49769718D01*
X52707128Y-49781138D01*
X52730038Y-49794869D01*
X52751492Y-49810780D01*
X52771282Y-49828718D01*
X52789220Y-49848508D01*
X52805131Y-49869962D01*
X52818862Y-49892872D01*
X52830282Y-49917017D01*
X52839280Y-49942165D01*
X52845770Y-49968075D01*
X52849689Y-49994495D01*
X52851000Y-50021173D01*
X52851000Y-50978827D01*
X52849689Y-51005505D01*
X52845770Y-51031925D01*
X52839280Y-51057835D01*
X52830282Y-51082983D01*
X52818862Y-51107128D01*
X52805131Y-51130038D01*
X52789220Y-51151492D01*
X52771282Y-51171282D01*
X52751492Y-51189220D01*
X52730038Y-51205131D01*
X52707128Y-51218862D01*
X52682983Y-51230282D01*
X52657835Y-51239280D01*
X52631925Y-51245770D01*
X52605505Y-51249689D01*
X52578827Y-51251000D01*
X51871173Y-51251000D01*
X51844495Y-51249689D01*
X51818075Y-51245770D01*
X51792165Y-51239280D01*
X51767017Y-51230282D01*
X51742872Y-51218862D01*
X51719962Y-51205131D01*
X51698508Y-51189220D01*
X51678718Y-51171282D01*
X51660780Y-51151492D01*
X51644869Y-51130038D01*
X51631138Y-51107128D01*
X51619718Y-51082983D01*
X51610720Y-51057835D01*
X51604230Y-51031925D01*
X51600311Y-51005505D01*
X51599000Y-50978827D01*
X51599000Y-50021173D01*
X51600311Y-49994495D01*
X51604230Y-49968075D01*
X51610720Y-49942165D01*
X51619718Y-49917017D01*
X51631138Y-49892872D01*
X51644869Y-49869962D01*
X51660780Y-49848508D01*
X51678718Y-49828718D01*
X51698508Y-49810780D01*
X51719962Y-49794869D01*
X51742872Y-49781138D01*
X51767017Y-49769718D01*
X51792165Y-49760720D01*
X51818075Y-49754230D01*
X51844495Y-49750311D01*
X51871173Y-49749000D01*
X52578827Y-49749000D01*
X52605505Y-49750311D01*
G37*
D32*
X51000000Y-75225000D03*
X51000000Y-69775000D03*
D33*
X35250000Y-48850000D03*
X35250000Y-50150000D03*
D17*
X73170000Y-67750000D03*
X75710000Y-67750000D03*
D18*
X78250000Y-67750000D03*
D17*
X31750000Y-59240000D03*
X31750000Y-56700000D03*
X31750000Y-54160000D03*
X31750000Y-51620000D03*
X31750000Y-49080000D03*
X31750000Y-46540000D03*
D18*
X31750000Y-44000000D03*
D34*
X45712000Y-79845000D03*
X45712000Y-81115000D03*
X45712000Y-82385000D03*
X45712000Y-83655000D03*
X40288000Y-83655000D03*
X40288000Y-82385000D03*
X40288000Y-81115000D03*
X40288000Y-79845000D03*
D35*
X41850000Y-74500000D03*
X45150000Y-74500000D03*
D22*
G36*
X44105505Y-70250311D02*
G01*
X44131925Y-70254230D01*
X44157835Y-70260720D01*
X44182983Y-70269718D01*
X44207128Y-70281138D01*
X44230038Y-70294869D01*
X44251492Y-70310780D01*
X44271282Y-70328718D01*
X44289220Y-70348508D01*
X44305131Y-70369962D01*
X44318862Y-70392872D01*
X44330282Y-70417017D01*
X44339280Y-70442165D01*
X44345770Y-70468075D01*
X44349689Y-70494495D01*
X44351000Y-70521173D01*
X44351000Y-71478827D01*
X44349689Y-71505505D01*
X44345770Y-71531925D01*
X44339280Y-71557835D01*
X44330282Y-71582983D01*
X44318862Y-71607128D01*
X44305131Y-71630038D01*
X44289220Y-71651492D01*
X44271282Y-71671282D01*
X44251492Y-71689220D01*
X44230038Y-71705131D01*
X44207128Y-71718862D01*
X44182983Y-71730282D01*
X44157835Y-71739280D01*
X44131925Y-71745770D01*
X44105505Y-71749689D01*
X44078827Y-71751000D01*
X43371173Y-71751000D01*
X43344495Y-71749689D01*
X43318075Y-71745770D01*
X43292165Y-71739280D01*
X43267017Y-71730282D01*
X43242872Y-71718862D01*
X43219962Y-71705131D01*
X43198508Y-71689220D01*
X43178718Y-71671282D01*
X43160780Y-71651492D01*
X43144869Y-71630038D01*
X43131138Y-71607128D01*
X43119718Y-71582983D01*
X43110720Y-71557835D01*
X43104230Y-71531925D01*
X43100311Y-71505505D01*
X43099000Y-71478827D01*
X43099000Y-70521173D01*
X43100311Y-70494495D01*
X43104230Y-70468075D01*
X43110720Y-70442165D01*
X43119718Y-70417017D01*
X43131138Y-70392872D01*
X43144869Y-70369962D01*
X43160780Y-70348508D01*
X43178718Y-70328718D01*
X43198508Y-70310780D01*
X43219962Y-70294869D01*
X43242872Y-70281138D01*
X43267017Y-70269718D01*
X43292165Y-70260720D01*
X43318075Y-70254230D01*
X43344495Y-70250311D01*
X43371173Y-70249000D01*
X44078827Y-70249000D01*
X44105505Y-70250311D01*
G37*
G36*
X46155505Y-70250311D02*
G01*
X46181925Y-70254230D01*
X46207835Y-70260720D01*
X46232983Y-70269718D01*
X46257128Y-70281138D01*
X46280038Y-70294869D01*
X46301492Y-70310780D01*
X46321282Y-70328718D01*
X46339220Y-70348508D01*
X46355131Y-70369962D01*
X46368862Y-70392872D01*
X46380282Y-70417017D01*
X46389280Y-70442165D01*
X46395770Y-70468075D01*
X46399689Y-70494495D01*
X46401000Y-70521173D01*
X46401000Y-71478827D01*
X46399689Y-71505505D01*
X46395770Y-71531925D01*
X46389280Y-71557835D01*
X46380282Y-71582983D01*
X46368862Y-71607128D01*
X46355131Y-71630038D01*
X46339220Y-71651492D01*
X46321282Y-71671282D01*
X46301492Y-71689220D01*
X46280038Y-71705131D01*
X46257128Y-71718862D01*
X46232983Y-71730282D01*
X46207835Y-71739280D01*
X46181925Y-71745770D01*
X46155505Y-71749689D01*
X46128827Y-71751000D01*
X45421173Y-71751000D01*
X45394495Y-71749689D01*
X45368075Y-71745770D01*
X45342165Y-71739280D01*
X45317017Y-71730282D01*
X45292872Y-71718862D01*
X45269962Y-71705131D01*
X45248508Y-71689220D01*
X45228718Y-71671282D01*
X45210780Y-71651492D01*
X45194869Y-71630038D01*
X45181138Y-71607128D01*
X45169718Y-71582983D01*
X45160720Y-71557835D01*
X45154230Y-71531925D01*
X45150311Y-71505505D01*
X45149000Y-71478827D01*
X45149000Y-70521173D01*
X45150311Y-70494495D01*
X45154230Y-70468075D01*
X45160720Y-70442165D01*
X45169718Y-70417017D01*
X45181138Y-70392872D01*
X45194869Y-70369962D01*
X45210780Y-70348508D01*
X45228718Y-70328718D01*
X45248508Y-70310780D01*
X45269962Y-70294869D01*
X45292872Y-70281138D01*
X45317017Y-70269718D01*
X45342165Y-70260720D01*
X45368075Y-70254230D01*
X45394495Y-70250311D01*
X45421173Y-70249000D01*
X46128827Y-70249000D01*
X46155505Y-70250311D01*
G37*
G36*
X44105505Y-65000311D02*
G01*
X44131925Y-65004230D01*
X44157835Y-65010720D01*
X44182983Y-65019718D01*
X44207128Y-65031138D01*
X44230038Y-65044869D01*
X44251492Y-65060780D01*
X44271282Y-65078718D01*
X44289220Y-65098508D01*
X44305131Y-65119962D01*
X44318862Y-65142872D01*
X44330282Y-65167017D01*
X44339280Y-65192165D01*
X44345770Y-65218075D01*
X44349689Y-65244495D01*
X44351000Y-65271173D01*
X44351000Y-66228827D01*
X44349689Y-66255505D01*
X44345770Y-66281925D01*
X44339280Y-66307835D01*
X44330282Y-66332983D01*
X44318862Y-66357128D01*
X44305131Y-66380038D01*
X44289220Y-66401492D01*
X44271282Y-66421282D01*
X44251492Y-66439220D01*
X44230038Y-66455131D01*
X44207128Y-66468862D01*
X44182983Y-66480282D01*
X44157835Y-66489280D01*
X44131925Y-66495770D01*
X44105505Y-66499689D01*
X44078827Y-66501000D01*
X43371173Y-66501000D01*
X43344495Y-66499689D01*
X43318075Y-66495770D01*
X43292165Y-66489280D01*
X43267017Y-66480282D01*
X43242872Y-66468862D01*
X43219962Y-66455131D01*
X43198508Y-66439220D01*
X43178718Y-66421282D01*
X43160780Y-66401492D01*
X43144869Y-66380038D01*
X43131138Y-66357128D01*
X43119718Y-66332983D01*
X43110720Y-66307835D01*
X43104230Y-66281925D01*
X43100311Y-66255505D01*
X43099000Y-66228827D01*
X43099000Y-65271173D01*
X43100311Y-65244495D01*
X43104230Y-65218075D01*
X43110720Y-65192165D01*
X43119718Y-65167017D01*
X43131138Y-65142872D01*
X43144869Y-65119962D01*
X43160780Y-65098508D01*
X43178718Y-65078718D01*
X43198508Y-65060780D01*
X43219962Y-65044869D01*
X43242872Y-65031138D01*
X43267017Y-65019718D01*
X43292165Y-65010720D01*
X43318075Y-65004230D01*
X43344495Y-65000311D01*
X43371173Y-64999000D01*
X44078827Y-64999000D01*
X44105505Y-65000311D01*
G37*
G36*
X46155505Y-65000311D02*
G01*
X46181925Y-65004230D01*
X46207835Y-65010720D01*
X46232983Y-65019718D01*
X46257128Y-65031138D01*
X46280038Y-65044869D01*
X46301492Y-65060780D01*
X46321282Y-65078718D01*
X46339220Y-65098508D01*
X46355131Y-65119962D01*
X46368862Y-65142872D01*
X46380282Y-65167017D01*
X46389280Y-65192165D01*
X46395770Y-65218075D01*
X46399689Y-65244495D01*
X46401000Y-65271173D01*
X46401000Y-66228827D01*
X46399689Y-66255505D01*
X46395770Y-66281925D01*
X46389280Y-66307835D01*
X46380282Y-66332983D01*
X46368862Y-66357128D01*
X46355131Y-66380038D01*
X46339220Y-66401492D01*
X46321282Y-66421282D01*
X46301492Y-66439220D01*
X46280038Y-66455131D01*
X46257128Y-66468862D01*
X46232983Y-66480282D01*
X46207835Y-66489280D01*
X46181925Y-66495770D01*
X46155505Y-66499689D01*
X46128827Y-66501000D01*
X45421173Y-66501000D01*
X45394495Y-66499689D01*
X45368075Y-66495770D01*
X45342165Y-66489280D01*
X45317017Y-66480282D01*
X45292872Y-66468862D01*
X45269962Y-66455131D01*
X45248508Y-66439220D01*
X45228718Y-66421282D01*
X45210780Y-66401492D01*
X45194869Y-66380038D01*
X45181138Y-66357128D01*
X45169718Y-66332983D01*
X45160720Y-66307835D01*
X45154230Y-66281925D01*
X45150311Y-66255505D01*
X45149000Y-66228827D01*
X45149000Y-65271173D01*
X45150311Y-65244495D01*
X45154230Y-65218075D01*
X45160720Y-65192165D01*
X45169718Y-65167017D01*
X45181138Y-65142872D01*
X45194869Y-65119962D01*
X45210780Y-65098508D01*
X45228718Y-65078718D01*
X45248508Y-65060780D01*
X45269962Y-65044869D01*
X45292872Y-65031138D01*
X45317017Y-65019718D01*
X45342165Y-65010720D01*
X45368075Y-65004230D01*
X45394495Y-65000311D01*
X45421173Y-64999000D01*
X46128827Y-64999000D01*
X46155505Y-65000311D01*
G37*
G36*
X44105505Y-67750311D02*
G01*
X44131925Y-67754230D01*
X44157835Y-67760720D01*
X44182983Y-67769718D01*
X44207128Y-67781138D01*
X44230038Y-67794869D01*
X44251492Y-67810780D01*
X44271282Y-67828718D01*
X44289220Y-67848508D01*
X44305131Y-67869962D01*
X44318862Y-67892872D01*
X44330282Y-67917017D01*
X44339280Y-67942165D01*
X44345770Y-67968075D01*
X44349689Y-67994495D01*
X44351000Y-68021173D01*
X44351000Y-68978827D01*
X44349689Y-69005505D01*
X44345770Y-69031925D01*
X44339280Y-69057835D01*
X44330282Y-69082983D01*
X44318862Y-69107128D01*
X44305131Y-69130038D01*
X44289220Y-69151492D01*
X44271282Y-69171282D01*
X44251492Y-69189220D01*
X44230038Y-69205131D01*
X44207128Y-69218862D01*
X44182983Y-69230282D01*
X44157835Y-69239280D01*
X44131925Y-69245770D01*
X44105505Y-69249689D01*
X44078827Y-69251000D01*
X43371173Y-69251000D01*
X43344495Y-69249689D01*
X43318075Y-69245770D01*
X43292165Y-69239280D01*
X43267017Y-69230282D01*
X43242872Y-69218862D01*
X43219962Y-69205131D01*
X43198508Y-69189220D01*
X43178718Y-69171282D01*
X43160780Y-69151492D01*
X43144869Y-69130038D01*
X43131138Y-69107128D01*
X43119718Y-69082983D01*
X43110720Y-69057835D01*
X43104230Y-69031925D01*
X43100311Y-69005505D01*
X43099000Y-68978827D01*
X43099000Y-68021173D01*
X43100311Y-67994495D01*
X43104230Y-67968075D01*
X43110720Y-67942165D01*
X43119718Y-67917017D01*
X43131138Y-67892872D01*
X43144869Y-67869962D01*
X43160780Y-67848508D01*
X43178718Y-67828718D01*
X43198508Y-67810780D01*
X43219962Y-67794869D01*
X43242872Y-67781138D01*
X43267017Y-67769718D01*
X43292165Y-67760720D01*
X43318075Y-67754230D01*
X43344495Y-67750311D01*
X43371173Y-67749000D01*
X44078827Y-67749000D01*
X44105505Y-67750311D01*
G37*
G36*
X46155505Y-67750311D02*
G01*
X46181925Y-67754230D01*
X46207835Y-67760720D01*
X46232983Y-67769718D01*
X46257128Y-67781138D01*
X46280038Y-67794869D01*
X46301492Y-67810780D01*
X46321282Y-67828718D01*
X46339220Y-67848508D01*
X46355131Y-67869962D01*
X46368862Y-67892872D01*
X46380282Y-67917017D01*
X46389280Y-67942165D01*
X46395770Y-67968075D01*
X46399689Y-67994495D01*
X46401000Y-68021173D01*
X46401000Y-68978827D01*
X46399689Y-69005505D01*
X46395770Y-69031925D01*
X46389280Y-69057835D01*
X46380282Y-69082983D01*
X46368862Y-69107128D01*
X46355131Y-69130038D01*
X46339220Y-69151492D01*
X46321282Y-69171282D01*
X46301492Y-69189220D01*
X46280038Y-69205131D01*
X46257128Y-69218862D01*
X46232983Y-69230282D01*
X46207835Y-69239280D01*
X46181925Y-69245770D01*
X46155505Y-69249689D01*
X46128827Y-69251000D01*
X45421173Y-69251000D01*
X45394495Y-69249689D01*
X45368075Y-69245770D01*
X45342165Y-69239280D01*
X45317017Y-69230282D01*
X45292872Y-69218862D01*
X45269962Y-69205131D01*
X45248508Y-69189220D01*
X45228718Y-69171282D01*
X45210780Y-69151492D01*
X45194869Y-69130038D01*
X45181138Y-69107128D01*
X45169718Y-69082983D01*
X45160720Y-69057835D01*
X45154230Y-69031925D01*
X45150311Y-69005505D01*
X45149000Y-68978827D01*
X45149000Y-68021173D01*
X45150311Y-67994495D01*
X45154230Y-67968075D01*
X45160720Y-67942165D01*
X45169718Y-67917017D01*
X45181138Y-67892872D01*
X45194869Y-67869962D01*
X45210780Y-67848508D01*
X45228718Y-67828718D01*
X45248508Y-67810780D01*
X45269962Y-67794869D01*
X45292872Y-67781138D01*
X45317017Y-67769718D01*
X45342165Y-67760720D01*
X45368075Y-67754230D01*
X45394495Y-67750311D01*
X45421173Y-67749000D01*
X46128827Y-67749000D01*
X46155505Y-67750311D01*
G37*
G36*
X43255505Y-62900311D02*
G01*
X43281925Y-62904230D01*
X43307835Y-62910720D01*
X43332983Y-62919718D01*
X43357128Y-62931138D01*
X43380038Y-62944869D01*
X43401492Y-62960780D01*
X43421282Y-62978718D01*
X43439220Y-62998508D01*
X43455131Y-63019962D01*
X43468862Y-63042872D01*
X43480282Y-63067017D01*
X43489280Y-63092165D01*
X43495770Y-63118075D01*
X43499689Y-63144495D01*
X43501000Y-63171173D01*
X43501000Y-63878827D01*
X43499689Y-63905505D01*
X43495770Y-63931925D01*
X43489280Y-63957835D01*
X43480282Y-63982983D01*
X43468862Y-64007128D01*
X43455131Y-64030038D01*
X43439220Y-64051492D01*
X43421282Y-64071282D01*
X43401492Y-64089220D01*
X43380038Y-64105131D01*
X43357128Y-64118862D01*
X43332983Y-64130282D01*
X43307835Y-64139280D01*
X43281925Y-64145770D01*
X43255505Y-64149689D01*
X43228827Y-64151000D01*
X42271173Y-64151000D01*
X42244495Y-64149689D01*
X42218075Y-64145770D01*
X42192165Y-64139280D01*
X42167017Y-64130282D01*
X42142872Y-64118862D01*
X42119962Y-64105131D01*
X42098508Y-64089220D01*
X42078718Y-64071282D01*
X42060780Y-64051492D01*
X42044869Y-64030038D01*
X42031138Y-64007128D01*
X42019718Y-63982983D01*
X42010720Y-63957835D01*
X42004230Y-63931925D01*
X42000311Y-63905505D01*
X41999000Y-63878827D01*
X41999000Y-63171173D01*
X42000311Y-63144495D01*
X42004230Y-63118075D01*
X42010720Y-63092165D01*
X42019718Y-63067017D01*
X42031138Y-63042872D01*
X42044869Y-63019962D01*
X42060780Y-62998508D01*
X42078718Y-62978718D01*
X42098508Y-62960780D01*
X42119962Y-62944869D01*
X42142872Y-62931138D01*
X42167017Y-62919718D01*
X42192165Y-62910720D01*
X42218075Y-62904230D01*
X42244495Y-62900311D01*
X42271173Y-62899000D01*
X43228827Y-62899000D01*
X43255505Y-62900311D01*
G37*
G36*
X43255505Y-60850311D02*
G01*
X43281925Y-60854230D01*
X43307835Y-60860720D01*
X43332983Y-60869718D01*
X43357128Y-60881138D01*
X43380038Y-60894869D01*
X43401492Y-60910780D01*
X43421282Y-60928718D01*
X43439220Y-60948508D01*
X43455131Y-60969962D01*
X43468862Y-60992872D01*
X43480282Y-61017017D01*
X43489280Y-61042165D01*
X43495770Y-61068075D01*
X43499689Y-61094495D01*
X43501000Y-61121173D01*
X43501000Y-61828827D01*
X43499689Y-61855505D01*
X43495770Y-61881925D01*
X43489280Y-61907835D01*
X43480282Y-61932983D01*
X43468862Y-61957128D01*
X43455131Y-61980038D01*
X43439220Y-62001492D01*
X43421282Y-62021282D01*
X43401492Y-62039220D01*
X43380038Y-62055131D01*
X43357128Y-62068862D01*
X43332983Y-62080282D01*
X43307835Y-62089280D01*
X43281925Y-62095770D01*
X43255505Y-62099689D01*
X43228827Y-62101000D01*
X42271173Y-62101000D01*
X42244495Y-62099689D01*
X42218075Y-62095770D01*
X42192165Y-62089280D01*
X42167017Y-62080282D01*
X42142872Y-62068862D01*
X42119962Y-62055131D01*
X42098508Y-62039220D01*
X42078718Y-62021282D01*
X42060780Y-62001492D01*
X42044869Y-61980038D01*
X42031138Y-61957128D01*
X42019718Y-61932983D01*
X42010720Y-61907835D01*
X42004230Y-61881925D01*
X42000311Y-61855505D01*
X41999000Y-61828827D01*
X41999000Y-61121173D01*
X42000311Y-61094495D01*
X42004230Y-61068075D01*
X42010720Y-61042165D01*
X42019718Y-61017017D01*
X42031138Y-60992872D01*
X42044869Y-60969962D01*
X42060780Y-60948508D01*
X42078718Y-60928718D01*
X42098508Y-60910780D01*
X42119962Y-60894869D01*
X42142872Y-60881138D01*
X42167017Y-60869718D01*
X42192165Y-60860720D01*
X42218075Y-60854230D01*
X42244495Y-60850311D01*
X42271173Y-60849000D01*
X43228827Y-60849000D01*
X43255505Y-60850311D01*
G37*
G36*
X51213779Y-79475266D02*
G01*
X51239309Y-79479053D01*
X51264345Y-79485325D01*
X51288646Y-79494020D01*
X51311977Y-79505055D01*
X51334115Y-79518323D01*
X51354845Y-79533698D01*
X51373969Y-79551031D01*
X51391302Y-79570155D01*
X51406677Y-79590885D01*
X51419945Y-79613023D01*
X51430980Y-79636354D01*
X51439675Y-79660655D01*
X51445947Y-79685691D01*
X51449734Y-79711221D01*
X51451000Y-79737000D01*
X51451000Y-80263000D01*
X51449734Y-80288779D01*
X51445947Y-80314309D01*
X51439675Y-80339345D01*
X51430980Y-80363646D01*
X51419945Y-80386977D01*
X51406677Y-80409115D01*
X51391302Y-80429845D01*
X51373969Y-80448969D01*
X51354845Y-80466302D01*
X51334115Y-80481677D01*
X51311977Y-80494945D01*
X51288646Y-80505980D01*
X51264345Y-80514675D01*
X51239309Y-80520947D01*
X51213779Y-80524734D01*
X51188000Y-80526000D01*
X50562000Y-80526000D01*
X50536221Y-80524734D01*
X50510691Y-80520947D01*
X50485655Y-80514675D01*
X50461354Y-80505980D01*
X50438023Y-80494945D01*
X50415885Y-80481677D01*
X50395155Y-80466302D01*
X50376031Y-80448969D01*
X50358698Y-80429845D01*
X50343323Y-80409115D01*
X50330055Y-80386977D01*
X50319020Y-80363646D01*
X50310325Y-80339345D01*
X50304053Y-80314309D01*
X50300266Y-80288779D01*
X50299000Y-80263000D01*
X50299000Y-79737000D01*
X50300266Y-79711221D01*
X50304053Y-79685691D01*
X50310325Y-79660655D01*
X50319020Y-79636354D01*
X50330055Y-79613023D01*
X50343323Y-79590885D01*
X50358698Y-79570155D01*
X50376031Y-79551031D01*
X50395155Y-79533698D01*
X50415885Y-79518323D01*
X50438023Y-79505055D01*
X50461354Y-79494020D01*
X50485655Y-79485325D01*
X50510691Y-79479053D01*
X50536221Y-79475266D01*
X50562000Y-79474000D01*
X51188000Y-79474000D01*
X51213779Y-79475266D01*
G37*
G36*
X52963779Y-79475266D02*
G01*
X52989309Y-79479053D01*
X53014345Y-79485325D01*
X53038646Y-79494020D01*
X53061977Y-79505055D01*
X53084115Y-79518323D01*
X53104845Y-79533698D01*
X53123969Y-79551031D01*
X53141302Y-79570155D01*
X53156677Y-79590885D01*
X53169945Y-79613023D01*
X53180980Y-79636354D01*
X53189675Y-79660655D01*
X53195947Y-79685691D01*
X53199734Y-79711221D01*
X53201000Y-79737000D01*
X53201000Y-80263000D01*
X53199734Y-80288779D01*
X53195947Y-80314309D01*
X53189675Y-80339345D01*
X53180980Y-80363646D01*
X53169945Y-80386977D01*
X53156677Y-80409115D01*
X53141302Y-80429845D01*
X53123969Y-80448969D01*
X53104845Y-80466302D01*
X53084115Y-80481677D01*
X53061977Y-80494945D01*
X53038646Y-80505980D01*
X53014345Y-80514675D01*
X52989309Y-80520947D01*
X52963779Y-80524734D01*
X52938000Y-80526000D01*
X52312000Y-80526000D01*
X52286221Y-80524734D01*
X52260691Y-80520947D01*
X52235655Y-80514675D01*
X52211354Y-80505980D01*
X52188023Y-80494945D01*
X52165885Y-80481677D01*
X52145155Y-80466302D01*
X52126031Y-80448969D01*
X52108698Y-80429845D01*
X52093323Y-80409115D01*
X52080055Y-80386977D01*
X52069020Y-80363646D01*
X52060325Y-80339345D01*
X52054053Y-80314309D01*
X52050266Y-80288779D01*
X52049000Y-80263000D01*
X52049000Y-79737000D01*
X52050266Y-79711221D01*
X52054053Y-79685691D01*
X52060325Y-79660655D01*
X52069020Y-79636354D01*
X52080055Y-79613023D01*
X52093323Y-79590885D01*
X52108698Y-79570155D01*
X52126031Y-79551031D01*
X52145155Y-79533698D01*
X52165885Y-79518323D01*
X52188023Y-79505055D01*
X52211354Y-79494020D01*
X52235655Y-79485325D01*
X52260691Y-79479053D01*
X52286221Y-79475266D01*
X52312000Y-79474000D01*
X52938000Y-79474000D01*
X52963779Y-79475266D01*
G37*
G36*
X46505505Y-62900311D02*
G01*
X46531925Y-62904230D01*
X46557835Y-62910720D01*
X46582983Y-62919718D01*
X46607128Y-62931138D01*
X46630038Y-62944869D01*
X46651492Y-62960780D01*
X46671282Y-62978718D01*
X46689220Y-62998508D01*
X46705131Y-63019962D01*
X46718862Y-63042872D01*
X46730282Y-63067017D01*
X46739280Y-63092165D01*
X46745770Y-63118075D01*
X46749689Y-63144495D01*
X46751000Y-63171173D01*
X46751000Y-63878827D01*
X46749689Y-63905505D01*
X46745770Y-63931925D01*
X46739280Y-63957835D01*
X46730282Y-63982983D01*
X46718862Y-64007128D01*
X46705131Y-64030038D01*
X46689220Y-64051492D01*
X46671282Y-64071282D01*
X46651492Y-64089220D01*
X46630038Y-64105131D01*
X46607128Y-64118862D01*
X46582983Y-64130282D01*
X46557835Y-64139280D01*
X46531925Y-64145770D01*
X46505505Y-64149689D01*
X46478827Y-64151000D01*
X45521173Y-64151000D01*
X45494495Y-64149689D01*
X45468075Y-64145770D01*
X45442165Y-64139280D01*
X45417017Y-64130282D01*
X45392872Y-64118862D01*
X45369962Y-64105131D01*
X45348508Y-64089220D01*
X45328718Y-64071282D01*
X45310780Y-64051492D01*
X45294869Y-64030038D01*
X45281138Y-64007128D01*
X45269718Y-63982983D01*
X45260720Y-63957835D01*
X45254230Y-63931925D01*
X45250311Y-63905505D01*
X45249000Y-63878827D01*
X45249000Y-63171173D01*
X45250311Y-63144495D01*
X45254230Y-63118075D01*
X45260720Y-63092165D01*
X45269718Y-63067017D01*
X45281138Y-63042872D01*
X45294869Y-63019962D01*
X45310780Y-62998508D01*
X45328718Y-62978718D01*
X45348508Y-62960780D01*
X45369962Y-62944869D01*
X45392872Y-62931138D01*
X45417017Y-62919718D01*
X45442165Y-62910720D01*
X45468075Y-62904230D01*
X45494495Y-62900311D01*
X45521173Y-62899000D01*
X46478827Y-62899000D01*
X46505505Y-62900311D01*
G37*
G36*
X46505505Y-60850311D02*
G01*
X46531925Y-60854230D01*
X46557835Y-60860720D01*
X46582983Y-60869718D01*
X46607128Y-60881138D01*
X46630038Y-60894869D01*
X46651492Y-60910780D01*
X46671282Y-60928718D01*
X46689220Y-60948508D01*
X46705131Y-60969962D01*
X46718862Y-60992872D01*
X46730282Y-61017017D01*
X46739280Y-61042165D01*
X46745770Y-61068075D01*
X46749689Y-61094495D01*
X46751000Y-61121173D01*
X46751000Y-61828827D01*
X46749689Y-61855505D01*
X46745770Y-61881925D01*
X46739280Y-61907835D01*
X46730282Y-61932983D01*
X46718862Y-61957128D01*
X46705131Y-61980038D01*
X46689220Y-62001492D01*
X46671282Y-62021282D01*
X46651492Y-62039220D01*
X46630038Y-62055131D01*
X46607128Y-62068862D01*
X46582983Y-62080282D01*
X46557835Y-62089280D01*
X46531925Y-62095770D01*
X46505505Y-62099689D01*
X46478827Y-62101000D01*
X45521173Y-62101000D01*
X45494495Y-62099689D01*
X45468075Y-62095770D01*
X45442165Y-62089280D01*
X45417017Y-62080282D01*
X45392872Y-62068862D01*
X45369962Y-62055131D01*
X45348508Y-62039220D01*
X45328718Y-62021282D01*
X45310780Y-62001492D01*
X45294869Y-61980038D01*
X45281138Y-61957128D01*
X45269718Y-61932983D01*
X45260720Y-61907835D01*
X45254230Y-61881925D01*
X45250311Y-61855505D01*
X45249000Y-61828827D01*
X45249000Y-61121173D01*
X45250311Y-61094495D01*
X45254230Y-61068075D01*
X45260720Y-61042165D01*
X45269718Y-61017017D01*
X45281138Y-60992872D01*
X45294869Y-60969962D01*
X45310780Y-60948508D01*
X45328718Y-60928718D01*
X45348508Y-60910780D01*
X45369962Y-60894869D01*
X45392872Y-60881138D01*
X45417017Y-60869718D01*
X45442165Y-60860720D01*
X45468075Y-60854230D01*
X45494495Y-60850311D01*
X45521173Y-60849000D01*
X46478827Y-60849000D01*
X46505505Y-60850311D01*
G37*
G36*
X48755505Y-80100311D02*
G01*
X48781925Y-80104230D01*
X48807835Y-80110720D01*
X48832983Y-80119718D01*
X48857128Y-80131138D01*
X48880038Y-80144869D01*
X48901492Y-80160780D01*
X48921282Y-80178718D01*
X48939220Y-80198508D01*
X48955131Y-80219962D01*
X48968862Y-80242872D01*
X48980282Y-80267017D01*
X48989280Y-80292165D01*
X48995770Y-80318075D01*
X48999689Y-80344495D01*
X49001000Y-80371173D01*
X49001000Y-81078827D01*
X48999689Y-81105505D01*
X48995770Y-81131925D01*
X48989280Y-81157835D01*
X48980282Y-81182983D01*
X48968862Y-81207128D01*
X48955131Y-81230038D01*
X48939220Y-81251492D01*
X48921282Y-81271282D01*
X48901492Y-81289220D01*
X48880038Y-81305131D01*
X48857128Y-81318862D01*
X48832983Y-81330282D01*
X48807835Y-81339280D01*
X48781925Y-81345770D01*
X48755505Y-81349689D01*
X48728827Y-81351000D01*
X47771173Y-81351000D01*
X47744495Y-81349689D01*
X47718075Y-81345770D01*
X47692165Y-81339280D01*
X47667017Y-81330282D01*
X47642872Y-81318862D01*
X47619962Y-81305131D01*
X47598508Y-81289220D01*
X47578718Y-81271282D01*
X47560780Y-81251492D01*
X47544869Y-81230038D01*
X47531138Y-81207128D01*
X47519718Y-81182983D01*
X47510720Y-81157835D01*
X47504230Y-81131925D01*
X47500311Y-81105505D01*
X47499000Y-81078827D01*
X47499000Y-80371173D01*
X47500311Y-80344495D01*
X47504230Y-80318075D01*
X47510720Y-80292165D01*
X47519718Y-80267017D01*
X47531138Y-80242872D01*
X47544869Y-80219962D01*
X47560780Y-80198508D01*
X47578718Y-80178718D01*
X47598508Y-80160780D01*
X47619962Y-80144869D01*
X47642872Y-80131138D01*
X47667017Y-80119718D01*
X47692165Y-80110720D01*
X47718075Y-80104230D01*
X47744495Y-80100311D01*
X47771173Y-80099000D01*
X48728827Y-80099000D01*
X48755505Y-80100311D01*
G37*
G36*
X48755505Y-82150311D02*
G01*
X48781925Y-82154230D01*
X48807835Y-82160720D01*
X48832983Y-82169718D01*
X48857128Y-82181138D01*
X48880038Y-82194869D01*
X48901492Y-82210780D01*
X48921282Y-82228718D01*
X48939220Y-82248508D01*
X48955131Y-82269962D01*
X48968862Y-82292872D01*
X48980282Y-82317017D01*
X48989280Y-82342165D01*
X48995770Y-82368075D01*
X48999689Y-82394495D01*
X49001000Y-82421173D01*
X49001000Y-83128827D01*
X48999689Y-83155505D01*
X48995770Y-83181925D01*
X48989280Y-83207835D01*
X48980282Y-83232983D01*
X48968862Y-83257128D01*
X48955131Y-83280038D01*
X48939220Y-83301492D01*
X48921282Y-83321282D01*
X48901492Y-83339220D01*
X48880038Y-83355131D01*
X48857128Y-83368862D01*
X48832983Y-83380282D01*
X48807835Y-83389280D01*
X48781925Y-83395770D01*
X48755505Y-83399689D01*
X48728827Y-83401000D01*
X47771173Y-83401000D01*
X47744495Y-83399689D01*
X47718075Y-83395770D01*
X47692165Y-83389280D01*
X47667017Y-83380282D01*
X47642872Y-83368862D01*
X47619962Y-83355131D01*
X47598508Y-83339220D01*
X47578718Y-83321282D01*
X47560780Y-83301492D01*
X47544869Y-83280038D01*
X47531138Y-83257128D01*
X47519718Y-83232983D01*
X47510720Y-83207835D01*
X47504230Y-83181925D01*
X47500311Y-83155505D01*
X47499000Y-83128827D01*
X47499000Y-82421173D01*
X47500311Y-82394495D01*
X47504230Y-82368075D01*
X47510720Y-82342165D01*
X47519718Y-82317017D01*
X47531138Y-82292872D01*
X47544869Y-82269962D01*
X47560780Y-82248508D01*
X47578718Y-82228718D01*
X47598508Y-82210780D01*
X47619962Y-82194869D01*
X47642872Y-82181138D01*
X47667017Y-82169718D01*
X47692165Y-82160720D01*
X47718075Y-82154230D01*
X47744495Y-82150311D01*
X47771173Y-82149000D01*
X48728827Y-82149000D01*
X48755505Y-82150311D01*
G37*
G36*
X45855505Y-76750311D02*
G01*
X45881925Y-76754230D01*
X45907835Y-76760720D01*
X45932983Y-76769718D01*
X45957128Y-76781138D01*
X45980038Y-76794869D01*
X46001492Y-76810780D01*
X46021282Y-76828718D01*
X46039220Y-76848508D01*
X46055131Y-76869962D01*
X46068862Y-76892872D01*
X46080282Y-76917017D01*
X46089280Y-76942165D01*
X46095770Y-76968075D01*
X46099689Y-76994495D01*
X46101000Y-77021173D01*
X46101000Y-77978827D01*
X46099689Y-78005505D01*
X46095770Y-78031925D01*
X46089280Y-78057835D01*
X46080282Y-78082983D01*
X46068862Y-78107128D01*
X46055131Y-78130038D01*
X46039220Y-78151492D01*
X46021282Y-78171282D01*
X46001492Y-78189220D01*
X45980038Y-78205131D01*
X45957128Y-78218862D01*
X45932983Y-78230282D01*
X45907835Y-78239280D01*
X45881925Y-78245770D01*
X45855505Y-78249689D01*
X45828827Y-78251000D01*
X45121173Y-78251000D01*
X45094495Y-78249689D01*
X45068075Y-78245770D01*
X45042165Y-78239280D01*
X45017017Y-78230282D01*
X44992872Y-78218862D01*
X44969962Y-78205131D01*
X44948508Y-78189220D01*
X44928718Y-78171282D01*
X44910780Y-78151492D01*
X44894869Y-78130038D01*
X44881138Y-78107128D01*
X44869718Y-78082983D01*
X44860720Y-78057835D01*
X44854230Y-78031925D01*
X44850311Y-78005505D01*
X44849000Y-77978827D01*
X44849000Y-77021173D01*
X44850311Y-76994495D01*
X44854230Y-76968075D01*
X44860720Y-76942165D01*
X44869718Y-76917017D01*
X44881138Y-76892872D01*
X44894869Y-76869962D01*
X44910780Y-76848508D01*
X44928718Y-76828718D01*
X44948508Y-76810780D01*
X44969962Y-76794869D01*
X44992872Y-76781138D01*
X45017017Y-76769718D01*
X45042165Y-76760720D01*
X45068075Y-76754230D01*
X45094495Y-76750311D01*
X45121173Y-76749000D01*
X45828827Y-76749000D01*
X45855505Y-76750311D01*
G37*
G36*
X47905505Y-76750311D02*
G01*
X47931925Y-76754230D01*
X47957835Y-76760720D01*
X47982983Y-76769718D01*
X48007128Y-76781138D01*
X48030038Y-76794869D01*
X48051492Y-76810780D01*
X48071282Y-76828718D01*
X48089220Y-76848508D01*
X48105131Y-76869962D01*
X48118862Y-76892872D01*
X48130282Y-76917017D01*
X48139280Y-76942165D01*
X48145770Y-76968075D01*
X48149689Y-76994495D01*
X48151000Y-77021173D01*
X48151000Y-77978827D01*
X48149689Y-78005505D01*
X48145770Y-78031925D01*
X48139280Y-78057835D01*
X48130282Y-78082983D01*
X48118862Y-78107128D01*
X48105131Y-78130038D01*
X48089220Y-78151492D01*
X48071282Y-78171282D01*
X48051492Y-78189220D01*
X48030038Y-78205131D01*
X48007128Y-78218862D01*
X47982983Y-78230282D01*
X47957835Y-78239280D01*
X47931925Y-78245770D01*
X47905505Y-78249689D01*
X47878827Y-78251000D01*
X47171173Y-78251000D01*
X47144495Y-78249689D01*
X47118075Y-78245770D01*
X47092165Y-78239280D01*
X47067017Y-78230282D01*
X47042872Y-78218862D01*
X47019962Y-78205131D01*
X46998508Y-78189220D01*
X46978718Y-78171282D01*
X46960780Y-78151492D01*
X46944869Y-78130038D01*
X46931138Y-78107128D01*
X46919718Y-78082983D01*
X46910720Y-78057835D01*
X46904230Y-78031925D01*
X46900311Y-78005505D01*
X46899000Y-77978827D01*
X46899000Y-77021173D01*
X46900311Y-76994495D01*
X46904230Y-76968075D01*
X46910720Y-76942165D01*
X46919718Y-76917017D01*
X46931138Y-76892872D01*
X46944869Y-76869962D01*
X46960780Y-76848508D01*
X46978718Y-76828718D01*
X46998508Y-76810780D01*
X47019962Y-76794869D01*
X47042872Y-76781138D01*
X47067017Y-76769718D01*
X47092165Y-76760720D01*
X47118075Y-76754230D01*
X47144495Y-76750311D01*
X47171173Y-76749000D01*
X47878827Y-76749000D01*
X47905505Y-76750311D01*
G37*
G36*
X56755505Y-64100311D02*
G01*
X56781925Y-64104230D01*
X56807835Y-64110720D01*
X56832983Y-64119718D01*
X56857128Y-64131138D01*
X56880038Y-64144869D01*
X56901492Y-64160780D01*
X56921282Y-64178718D01*
X56939220Y-64198508D01*
X56955131Y-64219962D01*
X56968862Y-64242872D01*
X56980282Y-64267017D01*
X56989280Y-64292165D01*
X56995770Y-64318075D01*
X56999689Y-64344495D01*
X57001000Y-64371173D01*
X57001000Y-65078827D01*
X56999689Y-65105505D01*
X56995770Y-65131925D01*
X56989280Y-65157835D01*
X56980282Y-65182983D01*
X56968862Y-65207128D01*
X56955131Y-65230038D01*
X56939220Y-65251492D01*
X56921282Y-65271282D01*
X56901492Y-65289220D01*
X56880038Y-65305131D01*
X56857128Y-65318862D01*
X56832983Y-65330282D01*
X56807835Y-65339280D01*
X56781925Y-65345770D01*
X56755505Y-65349689D01*
X56728827Y-65351000D01*
X55771173Y-65351000D01*
X55744495Y-65349689D01*
X55718075Y-65345770D01*
X55692165Y-65339280D01*
X55667017Y-65330282D01*
X55642872Y-65318862D01*
X55619962Y-65305131D01*
X55598508Y-65289220D01*
X55578718Y-65271282D01*
X55560780Y-65251492D01*
X55544869Y-65230038D01*
X55531138Y-65207128D01*
X55519718Y-65182983D01*
X55510720Y-65157835D01*
X55504230Y-65131925D01*
X55500311Y-65105505D01*
X55499000Y-65078827D01*
X55499000Y-64371173D01*
X55500311Y-64344495D01*
X55504230Y-64318075D01*
X55510720Y-64292165D01*
X55519718Y-64267017D01*
X55531138Y-64242872D01*
X55544869Y-64219962D01*
X55560780Y-64198508D01*
X55578718Y-64178718D01*
X55598508Y-64160780D01*
X55619962Y-64144869D01*
X55642872Y-64131138D01*
X55667017Y-64119718D01*
X55692165Y-64110720D01*
X55718075Y-64104230D01*
X55744495Y-64100311D01*
X55771173Y-64099000D01*
X56728827Y-64099000D01*
X56755505Y-64100311D01*
G37*
G36*
X56755505Y-66150311D02*
G01*
X56781925Y-66154230D01*
X56807835Y-66160720D01*
X56832983Y-66169718D01*
X56857128Y-66181138D01*
X56880038Y-66194869D01*
X56901492Y-66210780D01*
X56921282Y-66228718D01*
X56939220Y-66248508D01*
X56955131Y-66269962D01*
X56968862Y-66292872D01*
X56980282Y-66317017D01*
X56989280Y-66342165D01*
X56995770Y-66368075D01*
X56999689Y-66394495D01*
X57001000Y-66421173D01*
X57001000Y-67128827D01*
X56999689Y-67155505D01*
X56995770Y-67181925D01*
X56989280Y-67207835D01*
X56980282Y-67232983D01*
X56968862Y-67257128D01*
X56955131Y-67280038D01*
X56939220Y-67301492D01*
X56921282Y-67321282D01*
X56901492Y-67339220D01*
X56880038Y-67355131D01*
X56857128Y-67368862D01*
X56832983Y-67380282D01*
X56807835Y-67389280D01*
X56781925Y-67395770D01*
X56755505Y-67399689D01*
X56728827Y-67401000D01*
X55771173Y-67401000D01*
X55744495Y-67399689D01*
X55718075Y-67395770D01*
X55692165Y-67389280D01*
X55667017Y-67380282D01*
X55642872Y-67368862D01*
X55619962Y-67355131D01*
X55598508Y-67339220D01*
X55578718Y-67321282D01*
X55560780Y-67301492D01*
X55544869Y-67280038D01*
X55531138Y-67257128D01*
X55519718Y-67232983D01*
X55510720Y-67207835D01*
X55504230Y-67181925D01*
X55500311Y-67155505D01*
X55499000Y-67128827D01*
X55499000Y-66421173D01*
X55500311Y-66394495D01*
X55504230Y-66368075D01*
X55510720Y-66342165D01*
X55519718Y-66317017D01*
X55531138Y-66292872D01*
X55544869Y-66269962D01*
X55560780Y-66248508D01*
X55578718Y-66228718D01*
X55598508Y-66210780D01*
X55619962Y-66194869D01*
X55642872Y-66181138D01*
X55667017Y-66169718D01*
X55692165Y-66160720D01*
X55718075Y-66154230D01*
X55744495Y-66150311D01*
X55771173Y-66149000D01*
X56728827Y-66149000D01*
X56755505Y-66150311D01*
G37*
G36*
X38038779Y-80300266D02*
G01*
X38064309Y-80304053D01*
X38089345Y-80310325D01*
X38113646Y-80319020D01*
X38136977Y-80330055D01*
X38159115Y-80343323D01*
X38179845Y-80358698D01*
X38198969Y-80376031D01*
X38216302Y-80395155D01*
X38231677Y-80415885D01*
X38244945Y-80438023D01*
X38255980Y-80461354D01*
X38264675Y-80485655D01*
X38270947Y-80510691D01*
X38274734Y-80536221D01*
X38276000Y-80562000D01*
X38276000Y-81188000D01*
X38274734Y-81213779D01*
X38270947Y-81239309D01*
X38264675Y-81264345D01*
X38255980Y-81288646D01*
X38244945Y-81311977D01*
X38231677Y-81334115D01*
X38216302Y-81354845D01*
X38198969Y-81373969D01*
X38179845Y-81391302D01*
X38159115Y-81406677D01*
X38136977Y-81419945D01*
X38113646Y-81430980D01*
X38089345Y-81439675D01*
X38064309Y-81445947D01*
X38038779Y-81449734D01*
X38013000Y-81451000D01*
X37487000Y-81451000D01*
X37461221Y-81449734D01*
X37435691Y-81445947D01*
X37410655Y-81439675D01*
X37386354Y-81430980D01*
X37363023Y-81419945D01*
X37340885Y-81406677D01*
X37320155Y-81391302D01*
X37301031Y-81373969D01*
X37283698Y-81354845D01*
X37268323Y-81334115D01*
X37255055Y-81311977D01*
X37244020Y-81288646D01*
X37235325Y-81264345D01*
X37229053Y-81239309D01*
X37225266Y-81213779D01*
X37224000Y-81188000D01*
X37224000Y-80562000D01*
X37225266Y-80536221D01*
X37229053Y-80510691D01*
X37235325Y-80485655D01*
X37244020Y-80461354D01*
X37255055Y-80438023D01*
X37268323Y-80415885D01*
X37283698Y-80395155D01*
X37301031Y-80376031D01*
X37320155Y-80358698D01*
X37340885Y-80343323D01*
X37363023Y-80330055D01*
X37386354Y-80319020D01*
X37410655Y-80310325D01*
X37435691Y-80304053D01*
X37461221Y-80300266D01*
X37487000Y-80299000D01*
X38013000Y-80299000D01*
X38038779Y-80300266D01*
G37*
G36*
X38038779Y-82050266D02*
G01*
X38064309Y-82054053D01*
X38089345Y-82060325D01*
X38113646Y-82069020D01*
X38136977Y-82080055D01*
X38159115Y-82093323D01*
X38179845Y-82108698D01*
X38198969Y-82126031D01*
X38216302Y-82145155D01*
X38231677Y-82165885D01*
X38244945Y-82188023D01*
X38255980Y-82211354D01*
X38264675Y-82235655D01*
X38270947Y-82260691D01*
X38274734Y-82286221D01*
X38276000Y-82312000D01*
X38276000Y-82938000D01*
X38274734Y-82963779D01*
X38270947Y-82989309D01*
X38264675Y-83014345D01*
X38255980Y-83038646D01*
X38244945Y-83061977D01*
X38231677Y-83084115D01*
X38216302Y-83104845D01*
X38198969Y-83123969D01*
X38179845Y-83141302D01*
X38159115Y-83156677D01*
X38136977Y-83169945D01*
X38113646Y-83180980D01*
X38089345Y-83189675D01*
X38064309Y-83195947D01*
X38038779Y-83199734D01*
X38013000Y-83201000D01*
X37487000Y-83201000D01*
X37461221Y-83199734D01*
X37435691Y-83195947D01*
X37410655Y-83189675D01*
X37386354Y-83180980D01*
X37363023Y-83169945D01*
X37340885Y-83156677D01*
X37320155Y-83141302D01*
X37301031Y-83123969D01*
X37283698Y-83104845D01*
X37268323Y-83084115D01*
X37255055Y-83061977D01*
X37244020Y-83038646D01*
X37235325Y-83014345D01*
X37229053Y-82989309D01*
X37225266Y-82963779D01*
X37224000Y-82938000D01*
X37224000Y-82312000D01*
X37225266Y-82286221D01*
X37229053Y-82260691D01*
X37235325Y-82235655D01*
X37244020Y-82211354D01*
X37255055Y-82188023D01*
X37268323Y-82165885D01*
X37283698Y-82145155D01*
X37301031Y-82126031D01*
X37320155Y-82108698D01*
X37340885Y-82093323D01*
X37363023Y-82080055D01*
X37386354Y-82069020D01*
X37410655Y-82060325D01*
X37435691Y-82054053D01*
X37461221Y-82050266D01*
X37487000Y-82049000D01*
X38013000Y-82049000D01*
X38038779Y-82050266D01*
G37*
G36*
X55005505Y-53100311D02*
G01*
X55031925Y-53104230D01*
X55057835Y-53110720D01*
X55082983Y-53119718D01*
X55107128Y-53131138D01*
X55130038Y-53144869D01*
X55151492Y-53160780D01*
X55171282Y-53178718D01*
X55189220Y-53198508D01*
X55205131Y-53219962D01*
X55218862Y-53242872D01*
X55230282Y-53267017D01*
X55239280Y-53292165D01*
X55245770Y-53318075D01*
X55249689Y-53344495D01*
X55251000Y-53371173D01*
X55251000Y-54078827D01*
X55249689Y-54105505D01*
X55245770Y-54131925D01*
X55239280Y-54157835D01*
X55230282Y-54182983D01*
X55218862Y-54207128D01*
X55205131Y-54230038D01*
X55189220Y-54251492D01*
X55171282Y-54271282D01*
X55151492Y-54289220D01*
X55130038Y-54305131D01*
X55107128Y-54318862D01*
X55082983Y-54330282D01*
X55057835Y-54339280D01*
X55031925Y-54345770D01*
X55005505Y-54349689D01*
X54978827Y-54351000D01*
X54021173Y-54351000D01*
X53994495Y-54349689D01*
X53968075Y-54345770D01*
X53942165Y-54339280D01*
X53917017Y-54330282D01*
X53892872Y-54318862D01*
X53869962Y-54305131D01*
X53848508Y-54289220D01*
X53828718Y-54271282D01*
X53810780Y-54251492D01*
X53794869Y-54230038D01*
X53781138Y-54207128D01*
X53769718Y-54182983D01*
X53760720Y-54157835D01*
X53754230Y-54131925D01*
X53750311Y-54105505D01*
X53749000Y-54078827D01*
X53749000Y-53371173D01*
X53750311Y-53344495D01*
X53754230Y-53318075D01*
X53760720Y-53292165D01*
X53769718Y-53267017D01*
X53781138Y-53242872D01*
X53794869Y-53219962D01*
X53810780Y-53198508D01*
X53828718Y-53178718D01*
X53848508Y-53160780D01*
X53869962Y-53144869D01*
X53892872Y-53131138D01*
X53917017Y-53119718D01*
X53942165Y-53110720D01*
X53968075Y-53104230D01*
X53994495Y-53100311D01*
X54021173Y-53099000D01*
X54978827Y-53099000D01*
X55005505Y-53100311D01*
G37*
G36*
X55005505Y-55150311D02*
G01*
X55031925Y-55154230D01*
X55057835Y-55160720D01*
X55082983Y-55169718D01*
X55107128Y-55181138D01*
X55130038Y-55194869D01*
X55151492Y-55210780D01*
X55171282Y-55228718D01*
X55189220Y-55248508D01*
X55205131Y-55269962D01*
X55218862Y-55292872D01*
X55230282Y-55317017D01*
X55239280Y-55342165D01*
X55245770Y-55368075D01*
X55249689Y-55394495D01*
X55251000Y-55421173D01*
X55251000Y-56128827D01*
X55249689Y-56155505D01*
X55245770Y-56181925D01*
X55239280Y-56207835D01*
X55230282Y-56232983D01*
X55218862Y-56257128D01*
X55205131Y-56280038D01*
X55189220Y-56301492D01*
X55171282Y-56321282D01*
X55151492Y-56339220D01*
X55130038Y-56355131D01*
X55107128Y-56368862D01*
X55082983Y-56380282D01*
X55057835Y-56389280D01*
X55031925Y-56395770D01*
X55005505Y-56399689D01*
X54978827Y-56401000D01*
X54021173Y-56401000D01*
X53994495Y-56399689D01*
X53968075Y-56395770D01*
X53942165Y-56389280D01*
X53917017Y-56380282D01*
X53892872Y-56368862D01*
X53869962Y-56355131D01*
X53848508Y-56339220D01*
X53828718Y-56321282D01*
X53810780Y-56301492D01*
X53794869Y-56280038D01*
X53781138Y-56257128D01*
X53769718Y-56232983D01*
X53760720Y-56207835D01*
X53754230Y-56181925D01*
X53750311Y-56155505D01*
X53749000Y-56128827D01*
X53749000Y-55421173D01*
X53750311Y-55394495D01*
X53754230Y-55368075D01*
X53760720Y-55342165D01*
X53769718Y-55317017D01*
X53781138Y-55292872D01*
X53794869Y-55269962D01*
X53810780Y-55248508D01*
X53828718Y-55228718D01*
X53848508Y-55210780D01*
X53869962Y-55194869D01*
X53892872Y-55181138D01*
X53917017Y-55169718D01*
X53942165Y-55160720D01*
X53968075Y-55154230D01*
X53994495Y-55150311D01*
X54021173Y-55149000D01*
X54978827Y-55149000D01*
X55005505Y-55150311D01*
G37*
G36*
X54655505Y-45250311D02*
G01*
X54681925Y-45254230D01*
X54707835Y-45260720D01*
X54732983Y-45269718D01*
X54757128Y-45281138D01*
X54780038Y-45294869D01*
X54801492Y-45310780D01*
X54821282Y-45328718D01*
X54839220Y-45348508D01*
X54855131Y-45369962D01*
X54868862Y-45392872D01*
X54880282Y-45417017D01*
X54889280Y-45442165D01*
X54895770Y-45468075D01*
X54899689Y-45494495D01*
X54901000Y-45521173D01*
X54901000Y-46478827D01*
X54899689Y-46505505D01*
X54895770Y-46531925D01*
X54889280Y-46557835D01*
X54880282Y-46582983D01*
X54868862Y-46607128D01*
X54855131Y-46630038D01*
X54839220Y-46651492D01*
X54821282Y-46671282D01*
X54801492Y-46689220D01*
X54780038Y-46705131D01*
X54757128Y-46718862D01*
X54732983Y-46730282D01*
X54707835Y-46739280D01*
X54681925Y-46745770D01*
X54655505Y-46749689D01*
X54628827Y-46751000D01*
X53921173Y-46751000D01*
X53894495Y-46749689D01*
X53868075Y-46745770D01*
X53842165Y-46739280D01*
X53817017Y-46730282D01*
X53792872Y-46718862D01*
X53769962Y-46705131D01*
X53748508Y-46689220D01*
X53728718Y-46671282D01*
X53710780Y-46651492D01*
X53694869Y-46630038D01*
X53681138Y-46607128D01*
X53669718Y-46582983D01*
X53660720Y-46557835D01*
X53654230Y-46531925D01*
X53650311Y-46505505D01*
X53649000Y-46478827D01*
X53649000Y-45521173D01*
X53650311Y-45494495D01*
X53654230Y-45468075D01*
X53660720Y-45442165D01*
X53669718Y-45417017D01*
X53681138Y-45392872D01*
X53694869Y-45369962D01*
X53710780Y-45348508D01*
X53728718Y-45328718D01*
X53748508Y-45310780D01*
X53769962Y-45294869D01*
X53792872Y-45281138D01*
X53817017Y-45269718D01*
X53842165Y-45260720D01*
X53868075Y-45254230D01*
X53894495Y-45250311D01*
X53921173Y-45249000D01*
X54628827Y-45249000D01*
X54655505Y-45250311D01*
G37*
G36*
X52605505Y-45250311D02*
G01*
X52631925Y-45254230D01*
X52657835Y-45260720D01*
X52682983Y-45269718D01*
X52707128Y-45281138D01*
X52730038Y-45294869D01*
X52751492Y-45310780D01*
X52771282Y-45328718D01*
X52789220Y-45348508D01*
X52805131Y-45369962D01*
X52818862Y-45392872D01*
X52830282Y-45417017D01*
X52839280Y-45442165D01*
X52845770Y-45468075D01*
X52849689Y-45494495D01*
X52851000Y-45521173D01*
X52851000Y-46478827D01*
X52849689Y-46505505D01*
X52845770Y-46531925D01*
X52839280Y-46557835D01*
X52830282Y-46582983D01*
X52818862Y-46607128D01*
X52805131Y-46630038D01*
X52789220Y-46651492D01*
X52771282Y-46671282D01*
X52751492Y-46689220D01*
X52730038Y-46705131D01*
X52707128Y-46718862D01*
X52682983Y-46730282D01*
X52657835Y-46739280D01*
X52631925Y-46745770D01*
X52605505Y-46749689D01*
X52578827Y-46751000D01*
X51871173Y-46751000D01*
X51844495Y-46749689D01*
X51818075Y-46745770D01*
X51792165Y-46739280D01*
X51767017Y-46730282D01*
X51742872Y-46718862D01*
X51719962Y-46705131D01*
X51698508Y-46689220D01*
X51678718Y-46671282D01*
X51660780Y-46651492D01*
X51644869Y-46630038D01*
X51631138Y-46607128D01*
X51619718Y-46582983D01*
X51610720Y-46557835D01*
X51604230Y-46531925D01*
X51600311Y-46505505D01*
X51599000Y-46478827D01*
X51599000Y-45521173D01*
X51600311Y-45494495D01*
X51604230Y-45468075D01*
X51610720Y-45442165D01*
X51619718Y-45417017D01*
X51631138Y-45392872D01*
X51644869Y-45369962D01*
X51660780Y-45348508D01*
X51678718Y-45328718D01*
X51698508Y-45310780D01*
X51719962Y-45294869D01*
X51742872Y-45281138D01*
X51767017Y-45269718D01*
X51792165Y-45260720D01*
X51818075Y-45254230D01*
X51844495Y-45250311D01*
X51871173Y-45249000D01*
X52578827Y-45249000D01*
X52605505Y-45250311D01*
G37*
M02*
