M48
; DRILL file {KiCad (5.1.5)-3} date 19/05/2021 18:45:37
; FORMAT={-:-/ absolute / metric / decimal}
; #@! TF.CreationDate,2021-05-19T18:45:37+02:00
; #@! TF.GenerationSoftware,Kicad,Pcbnew,(5.1.5)-3
FMAT,2
METRIC
T1C0.400
T2C0.800
T3C1.000
T4C1.016
T5C1.100
T6C1.300
T7C3.200
%
G90
G05
T1
X32.5Y-72.5
X35.487Y-57.013
X36.0Y-79.75
X39.25Y-78.25
X41.0Y-76.75
X42.5Y-79.0
X43.0Y-82.0
X43.75Y-78.5
X44.5Y-76.25
X49.325Y-61.475
X50.5Y-51.5
X50.75Y-46.5
X51.0Y-48.75
X51.5Y-78.75
X52.5Y-52.0
X52.75Y-62.75
X53.75Y-57.25
X54.0Y-78.75
X54.5Y-52.5
X54.5Y-42.0
X54.5Y-43.5
X54.75Y-58.5
X56.5Y-63.25
X58.5Y-62.0
X58.737Y-55.237
X59.0Y-44.5
X59.0Y-52.25
X59.5Y-54.25
X60.0Y-71.5
X61.0Y-52.5
X63.0Y-52.75
X64.0Y-52.0
X64.25Y-56.5
X67.0Y-67.75
X67.1Y-58.0
X67.5Y-46.25
X68.0Y-48.5
X68.0Y-54.0
X68.5Y-61.75
X68.75Y-57.0
X69.0Y-44.5
X69.5Y-47.0
X69.75Y-66.25
X70.0Y-50.5
X73.0Y-62.5
X74.0Y-60.75
X75.75Y-64.25
X76.406Y-53.094
X77.0Y-63.5
T2
X39.75Y-49.75
X39.75Y-52.25
X35.5Y-75.75
X38.0Y-75.75
T3
X52.5Y-37.0
X52.5Y-39.54
X52.5Y-42.08
X73.17Y-67.75
X75.71Y-67.75
X78.25Y-67.75
X31.75Y-44.0
X31.75Y-46.54
X31.75Y-49.08
X31.75Y-51.62
X31.75Y-54.16
X31.75Y-56.7
X31.75Y-59.24
X73.17Y-72.0
X75.71Y-72.0
X78.25Y-72.0
X73.17Y-76.25
X75.71Y-76.25
X78.25Y-76.25
X48.5Y-37.0
X48.5Y-39.54
X48.5Y-42.08
T4
X63.0Y-69.5
X63.0Y-72.04
X63.0Y-74.58
X63.0Y-77.12
X63.0Y-79.66
X65.54Y-69.5
X65.54Y-72.04
X65.54Y-74.58
X65.54Y-77.12
X65.54Y-79.66
T5
X39.5Y-36.5
X39.5Y-43.0
X44.0Y-36.5
X44.0Y-43.0
T6
X35.75Y-64.67
X35.75Y-69.75
T7
X76.5Y-81.5
X76.75Y-38.5
X33.5Y-38.5
X33.5Y-81.5
T0
M30
