G04 #@! TF.GenerationSoftware,KiCad,Pcbnew,(5.1.5)-3*
G04 #@! TF.CreationDate,2021-05-19T18:43:05+02:00*
G04 #@! TF.ProjectId,esp12Board,65737031-3242-46f6-9172-642e6b696361,rev?*
G04 #@! TF.SameCoordinates,Original*
G04 #@! TF.FileFunction,Copper,L2,Bot*
G04 #@! TF.FilePolarity,Positive*
%FSLAX46Y46*%
G04 Gerber Fmt 4.6, Leading zero omitted, Abs format (unit mm)*
G04 Created by KiCad (PCBNEW (5.1.5)-3) date 2021-05-19 18:43:05*
%MOMM*%
%LPD*%
G04 APERTURE LIST*
%ADD10O,1.700000X1.700000*%
%ADD11R,1.700000X1.700000*%
%ADD12O,1.727200X1.727200*%
%ADD13R,1.727200X1.727200*%
%ADD14C,1.600000*%
%ADD15R,1.600000X1.600000*%
%ADD16C,2.600000*%
%ADD17R,2.600000X2.600000*%
%ADD18C,2.000000*%
%ADD19C,0.800000*%
%ADD20C,0.500000*%
%ADD21C,0.250000*%
%ADD22C,0.254000*%
G04 APERTURE END LIST*
D10*
X52500000Y-42080000D03*
X52500000Y-39540000D03*
D11*
X52500000Y-37000000D03*
D10*
X48500000Y-42080000D03*
X48500000Y-39540000D03*
D11*
X48500000Y-37000000D03*
D12*
X65540000Y-79660000D03*
X63000000Y-79660000D03*
X65540000Y-77120000D03*
X63000000Y-77120000D03*
X65540000Y-74580000D03*
X63000000Y-74580000D03*
X65540000Y-72040000D03*
X63000000Y-72040000D03*
X65540000Y-69500000D03*
D13*
X63000000Y-69500000D03*
D10*
X73170000Y-76250000D03*
X75710000Y-76250000D03*
D11*
X78250000Y-76250000D03*
D10*
X73170000Y-72000000D03*
X75710000Y-72000000D03*
D11*
X78250000Y-72000000D03*
D14*
X38000000Y-75750000D03*
D15*
X35500000Y-75750000D03*
D14*
X39750000Y-49750000D03*
D15*
X39750000Y-52250000D03*
D16*
X35750000Y-64670000D03*
D17*
X35750000Y-69750000D03*
D18*
X44000000Y-43000000D03*
X39500000Y-43000000D03*
X44000000Y-36500000D03*
X39500000Y-36500000D03*
D10*
X73170000Y-67750000D03*
X75710000Y-67750000D03*
D11*
X78250000Y-67750000D03*
D10*
X31750000Y-59240000D03*
X31750000Y-56700000D03*
X31750000Y-54160000D03*
X31750000Y-51620000D03*
X31750000Y-49080000D03*
X31750000Y-46540000D03*
D11*
X31750000Y-44000000D03*
D19*
X56500016Y-63250000D03*
X74000000Y-60750000D03*
X51500000Y-78750000D03*
X54000000Y-78750000D03*
X43750000Y-78500000D03*
X42500000Y-79000000D03*
X41000000Y-76750000D03*
X43000000Y-82000000D03*
X36000000Y-79750000D03*
X32500000Y-72500000D03*
X50750000Y-46500000D03*
X54499990Y-52500000D03*
X52750000Y-62750000D03*
X54750000Y-58500000D03*
X52500000Y-52000000D03*
X53750000Y-57250000D03*
X51000000Y-48749990D03*
X76406442Y-53093558D03*
X63000000Y-52750000D03*
X50500000Y-51500000D03*
X49324994Y-61475000D03*
X69750000Y-66250000D03*
X35487340Y-57012660D03*
X44500000Y-76250000D03*
X39250000Y-78250000D03*
X61000000Y-52500000D03*
X64249999Y-56500000D03*
X77000000Y-63500000D03*
X59500000Y-54250000D03*
X59000000Y-52250000D03*
X58500000Y-62000000D03*
X60000000Y-71500000D03*
X58737347Y-55237347D03*
X67100001Y-58000000D03*
X73000000Y-62500000D03*
X75750000Y-64250000D03*
X67500000Y-46250001D03*
X69500000Y-47000000D03*
X54500000Y-43500000D03*
X59000000Y-44500000D03*
X69000000Y-44500000D03*
X70000000Y-50500000D03*
X54500000Y-42000000D03*
X68000000Y-48500000D03*
X68750000Y-57000000D03*
X68500000Y-61750000D03*
X67000000Y-67750000D03*
X64000000Y-52000000D03*
X68000000Y-54000000D03*
D20*
X63000000Y-69500000D02*
X59500000Y-69500000D01*
X59500000Y-69500000D02*
X53149999Y-63149999D01*
X53149999Y-63149999D02*
X52750000Y-62750000D01*
X74645999Y-75400001D02*
X74860001Y-75400001D01*
X71869999Y-71361997D02*
X71869999Y-72624001D01*
X74860001Y-75400001D02*
X75710000Y-76250000D01*
X67408001Y-66899999D02*
X71869999Y-71361997D01*
X71869999Y-72624001D02*
X74645999Y-75400001D01*
X65567685Y-66899999D02*
X67408001Y-66899999D01*
X63613591Y-68854093D02*
X65567685Y-66899999D01*
X63613591Y-69136409D02*
X63613591Y-68854093D01*
X63250000Y-69500000D02*
X63613591Y-69136409D01*
X63000000Y-69500000D02*
X63250000Y-69500000D01*
X76406442Y-53093558D02*
X74512660Y-54987340D01*
X65237340Y-54987340D02*
X63000000Y-52750000D01*
X74512660Y-54987340D02*
X65237340Y-54987340D01*
X51000000Y-48749990D02*
X51000000Y-51000000D01*
X51000000Y-51000000D02*
X50500000Y-51500000D01*
X52500000Y-52000000D02*
X52500000Y-56000000D01*
X52500000Y-56000000D02*
X53750000Y-57250000D01*
X51775000Y-61475000D02*
X49324994Y-61475000D01*
X54750000Y-58500000D02*
X51775000Y-61475000D01*
X74210000Y-66250000D02*
X75710000Y-67750000D01*
X69750000Y-66250000D02*
X74210000Y-66250000D01*
X48500000Y-39540000D02*
X52500000Y-39540000D01*
X35487340Y-44866658D02*
X35487340Y-56446975D01*
X40813998Y-39540000D02*
X35487340Y-44866658D01*
X48500000Y-39540000D02*
X40813998Y-39540000D01*
X35487340Y-56446975D02*
X35487340Y-57012660D01*
D21*
X44500000Y-76250000D02*
X42500000Y-78250000D01*
X42500000Y-78250000D02*
X39250000Y-78250000D01*
X64249999Y-55749999D02*
X64249999Y-56500000D01*
X61000000Y-52500000D02*
X64249999Y-55749999D01*
X60065685Y-54250000D02*
X59500000Y-54250000D01*
X70298004Y-55975002D02*
X66098006Y-55975002D01*
X66098006Y-55975002D02*
X64848002Y-57225006D01*
X64848002Y-57225006D02*
X63040691Y-57225006D01*
X77000000Y-62676998D02*
X70298004Y-55975002D01*
X63040691Y-57225006D02*
X60065685Y-54250000D01*
X77000000Y-63500000D02*
X77000000Y-62676998D01*
X58012346Y-61512346D02*
X58500000Y-62000000D01*
X59000000Y-52250000D02*
X58012346Y-53237654D01*
X58012346Y-53237654D02*
X58012346Y-61512346D01*
X64676401Y-75443599D02*
X65540000Y-74580000D01*
X64351399Y-75768601D02*
X64676401Y-75443599D01*
X62429471Y-75768601D02*
X64351399Y-75768601D01*
X60000000Y-73339130D02*
X62429471Y-75768601D01*
X60000000Y-71500000D02*
X60000000Y-73339130D01*
X73000000Y-62500000D02*
X74750000Y-64250000D01*
X74750000Y-64250000D02*
X75750000Y-64250000D01*
X58737347Y-55237347D02*
X59487345Y-55237347D01*
X59487345Y-55237347D02*
X61849999Y-57600001D01*
X61849999Y-57600001D02*
X62249998Y-58000000D01*
X62250000Y-58000000D02*
X67100001Y-58000000D01*
X62000000Y-57750000D02*
X62250000Y-58000000D01*
X69500000Y-47000000D02*
X68249999Y-47000000D01*
X68249999Y-47000000D02*
X67500000Y-46250001D01*
X54500000Y-43500000D02*
X58000000Y-43500000D01*
X58000000Y-43500000D02*
X59000000Y-44500000D01*
X70225001Y-50274999D02*
X70000000Y-50500000D01*
X69000000Y-44500000D02*
X70225001Y-45725001D01*
X70225001Y-45725001D02*
X70225001Y-50274999D01*
X58426998Y-48500000D02*
X67434315Y-48500000D01*
X54500000Y-42000000D02*
X53700009Y-42799991D01*
X53700009Y-42799991D02*
X53700009Y-43773011D01*
X67434315Y-48500000D02*
X68000000Y-48500000D01*
X53700009Y-43773011D02*
X58426998Y-48500000D01*
X68750000Y-57000000D02*
X68750000Y-61500000D01*
X68750000Y-61500000D02*
X68500000Y-61750000D01*
X64188601Y-70851399D02*
X63863599Y-71176401D01*
X63863599Y-71176401D02*
X63000000Y-72040000D01*
X64188601Y-69092269D02*
X64188601Y-70851399D01*
X65530870Y-67750000D02*
X64188601Y-69092269D01*
X67000000Y-67750000D02*
X65530870Y-67750000D01*
X64000000Y-52000000D02*
X66000000Y-54000000D01*
X66000000Y-54000000D02*
X68000000Y-54000000D01*
D22*
G36*
X37959296Y-35929571D02*
G01*
X37877616Y-36241108D01*
X37858282Y-36562595D01*
X37902039Y-36881675D01*
X38007205Y-37186088D01*
X38100186Y-37360044D01*
X38364587Y-37455808D01*
X39320395Y-36500000D01*
X39306253Y-36485858D01*
X39485858Y-36306253D01*
X39500000Y-36320395D01*
X39514143Y-36306253D01*
X39693748Y-36485858D01*
X39679605Y-36500000D01*
X40635413Y-37455808D01*
X40899814Y-37360044D01*
X41040704Y-37070429D01*
X41122384Y-36758892D01*
X41141718Y-36437405D01*
X41097961Y-36118325D01*
X40992795Y-35813912D01*
X40910528Y-35660000D01*
X42594872Y-35660000D01*
X42551082Y-35725537D01*
X42427832Y-36023088D01*
X42365000Y-36338967D01*
X42365000Y-36661033D01*
X42427832Y-36976912D01*
X42551082Y-37274463D01*
X42730013Y-37542252D01*
X42957748Y-37769987D01*
X43225537Y-37948918D01*
X43523088Y-38072168D01*
X43838967Y-38135000D01*
X44161033Y-38135000D01*
X44476912Y-38072168D01*
X44774463Y-37948918D01*
X45042252Y-37769987D01*
X45269987Y-37542252D01*
X45448918Y-37274463D01*
X45572168Y-36976912D01*
X45635000Y-36661033D01*
X45635000Y-36338967D01*
X45572168Y-36023088D01*
X45448918Y-35725537D01*
X45405128Y-35660000D01*
X47246111Y-35660000D01*
X47198815Y-35698815D01*
X47119463Y-35795506D01*
X47060498Y-35905820D01*
X47024188Y-36025518D01*
X47011928Y-36150000D01*
X47011928Y-37850000D01*
X47024188Y-37974482D01*
X47060498Y-38094180D01*
X47119463Y-38204494D01*
X47198815Y-38301185D01*
X47295506Y-38380537D01*
X47405820Y-38439502D01*
X47478380Y-38461513D01*
X47346525Y-38593368D01*
X47305344Y-38655000D01*
X40857467Y-38655000D01*
X40813998Y-38650719D01*
X40770529Y-38655000D01*
X40770521Y-38655000D01*
X40655304Y-38666348D01*
X40640507Y-38667805D01*
X40589901Y-38683157D01*
X40473685Y-38718411D01*
X40319939Y-38800589D01*
X40319937Y-38800590D01*
X40319938Y-38800590D01*
X40218951Y-38883468D01*
X40218949Y-38883470D01*
X40185181Y-38911183D01*
X40157468Y-38944951D01*
X34892296Y-44210124D01*
X34858523Y-44237841D01*
X34747929Y-44372600D01*
X34665751Y-44526346D01*
X34615145Y-44693169D01*
X34602340Y-44823182D01*
X34602340Y-44823189D01*
X34598059Y-44866658D01*
X34602340Y-44910127D01*
X34602341Y-56403489D01*
X34602340Y-56403499D01*
X34602340Y-56474206D01*
X34570135Y-56522404D01*
X34492114Y-56710762D01*
X34452340Y-56910721D01*
X34452340Y-57114599D01*
X34492114Y-57314558D01*
X34570135Y-57502916D01*
X34683403Y-57672434D01*
X34827566Y-57816597D01*
X34997084Y-57929865D01*
X35185442Y-58007886D01*
X35385401Y-58047660D01*
X35589279Y-58047660D01*
X35789238Y-58007886D01*
X35977596Y-57929865D01*
X36147114Y-57816597D01*
X36291277Y-57672434D01*
X36404545Y-57502916D01*
X36482566Y-57314558D01*
X36522340Y-57114599D01*
X36522340Y-56910721D01*
X36482566Y-56710762D01*
X36404545Y-56522404D01*
X36372340Y-56474206D01*
X36372340Y-51450000D01*
X38311928Y-51450000D01*
X38311928Y-53050000D01*
X38324188Y-53174482D01*
X38360498Y-53294180D01*
X38419463Y-53404494D01*
X38498815Y-53501185D01*
X38595506Y-53580537D01*
X38705820Y-53639502D01*
X38825518Y-53675812D01*
X38950000Y-53688072D01*
X40550000Y-53688072D01*
X40674482Y-53675812D01*
X40794180Y-53639502D01*
X40904494Y-53580537D01*
X41001185Y-53501185D01*
X41080537Y-53404494D01*
X41139502Y-53294180D01*
X41175812Y-53174482D01*
X41188072Y-53050000D01*
X41188072Y-51450000D01*
X41175812Y-51325518D01*
X41139502Y-51205820D01*
X41080537Y-51095506D01*
X41001185Y-50998815D01*
X40904494Y-50919463D01*
X40794180Y-50860498D01*
X40674482Y-50824188D01*
X40550000Y-50811928D01*
X40542785Y-50811928D01*
X40563097Y-50742702D01*
X39750000Y-49929605D01*
X38936903Y-50742702D01*
X38957215Y-50811928D01*
X38950000Y-50811928D01*
X38825518Y-50824188D01*
X38705820Y-50860498D01*
X38595506Y-50919463D01*
X38498815Y-50998815D01*
X38419463Y-51095506D01*
X38360498Y-51205820D01*
X38324188Y-51325518D01*
X38311928Y-51450000D01*
X36372340Y-51450000D01*
X36372340Y-49820512D01*
X38309783Y-49820512D01*
X38351213Y-50100130D01*
X38446397Y-50366292D01*
X38513329Y-50491514D01*
X38757298Y-50563097D01*
X39570395Y-49750000D01*
X39929605Y-49750000D01*
X40742702Y-50563097D01*
X40986671Y-50491514D01*
X41107571Y-50236004D01*
X41176300Y-49961816D01*
X41190217Y-49679488D01*
X41148787Y-49399870D01*
X41053603Y-49133708D01*
X40986671Y-49008486D01*
X40742702Y-48936903D01*
X39929605Y-49750000D01*
X39570395Y-49750000D01*
X38757298Y-48936903D01*
X38513329Y-49008486D01*
X38392429Y-49263996D01*
X38323700Y-49538184D01*
X38309783Y-49820512D01*
X36372340Y-49820512D01*
X36372340Y-48757298D01*
X38936903Y-48757298D01*
X39750000Y-49570395D01*
X40563097Y-48757298D01*
X40491514Y-48513329D01*
X40236004Y-48392429D01*
X39961816Y-48323700D01*
X39679488Y-48309783D01*
X39399870Y-48351213D01*
X39133708Y-48446397D01*
X39008486Y-48513329D01*
X38936903Y-48757298D01*
X36372340Y-48757298D01*
X36372340Y-45233236D01*
X37470163Y-44135413D01*
X38544192Y-44135413D01*
X38639956Y-44399814D01*
X38929571Y-44540704D01*
X39241108Y-44622384D01*
X39562595Y-44641718D01*
X39881675Y-44597961D01*
X40186088Y-44492795D01*
X40360044Y-44399814D01*
X40455808Y-44135413D01*
X39500000Y-43179605D01*
X38544192Y-44135413D01*
X37470163Y-44135413D01*
X37984682Y-43620894D01*
X38007205Y-43686088D01*
X38100186Y-43860044D01*
X38364587Y-43955808D01*
X39320395Y-43000000D01*
X39679605Y-43000000D01*
X40635413Y-43955808D01*
X40899814Y-43860044D01*
X41040704Y-43570429D01*
X41122384Y-43258892D01*
X41141718Y-42937405D01*
X41128219Y-42838967D01*
X42365000Y-42838967D01*
X42365000Y-43161033D01*
X42427832Y-43476912D01*
X42551082Y-43774463D01*
X42730013Y-44042252D01*
X42957748Y-44269987D01*
X43225537Y-44448918D01*
X43523088Y-44572168D01*
X43838967Y-44635000D01*
X44161033Y-44635000D01*
X44476912Y-44572168D01*
X44774463Y-44448918D01*
X45042252Y-44269987D01*
X45269987Y-44042252D01*
X45448918Y-43774463D01*
X45572168Y-43476912D01*
X45635000Y-43161033D01*
X45635000Y-42838967D01*
X45572168Y-42523088D01*
X45536464Y-42436890D01*
X47058524Y-42436890D01*
X47103175Y-42584099D01*
X47228359Y-42846920D01*
X47402412Y-43080269D01*
X47618645Y-43275178D01*
X47868748Y-43424157D01*
X48143109Y-43521481D01*
X48373000Y-43400814D01*
X48373000Y-42207000D01*
X48627000Y-42207000D01*
X48627000Y-43400814D01*
X48856891Y-43521481D01*
X49131252Y-43424157D01*
X49381355Y-43275178D01*
X49597588Y-43080269D01*
X49771641Y-42846920D01*
X49896825Y-42584099D01*
X49941476Y-42436890D01*
X51058524Y-42436890D01*
X51103175Y-42584099D01*
X51228359Y-42846920D01*
X51402412Y-43080269D01*
X51618645Y-43275178D01*
X51868748Y-43424157D01*
X52143109Y-43521481D01*
X52373000Y-43400814D01*
X52373000Y-42207000D01*
X51179845Y-42207000D01*
X51058524Y-42436890D01*
X49941476Y-42436890D01*
X49820155Y-42207000D01*
X48627000Y-42207000D01*
X48373000Y-42207000D01*
X47179845Y-42207000D01*
X47058524Y-42436890D01*
X45536464Y-42436890D01*
X45448918Y-42225537D01*
X45269987Y-41957748D01*
X45042252Y-41730013D01*
X44774463Y-41551082D01*
X44476912Y-41427832D01*
X44161033Y-41365000D01*
X43838967Y-41365000D01*
X43523088Y-41427832D01*
X43225537Y-41551082D01*
X42957748Y-41730013D01*
X42730013Y-41957748D01*
X42551082Y-42225537D01*
X42427832Y-42523088D01*
X42365000Y-42838967D01*
X41128219Y-42838967D01*
X41097961Y-42618325D01*
X40992795Y-42313912D01*
X40899814Y-42139956D01*
X40635413Y-42044192D01*
X39679605Y-43000000D01*
X39320395Y-43000000D01*
X39306253Y-42985858D01*
X39485858Y-42806253D01*
X39500000Y-42820395D01*
X40455808Y-41864587D01*
X40360044Y-41600186D01*
X40121457Y-41484120D01*
X41180577Y-40425000D01*
X47305344Y-40425000D01*
X47346525Y-40486632D01*
X47553368Y-40693475D01*
X47735534Y-40815195D01*
X47618645Y-40884822D01*
X47402412Y-41079731D01*
X47228359Y-41313080D01*
X47103175Y-41575901D01*
X47058524Y-41723110D01*
X47179845Y-41953000D01*
X48373000Y-41953000D01*
X48373000Y-41933000D01*
X48627000Y-41933000D01*
X48627000Y-41953000D01*
X49820155Y-41953000D01*
X49941476Y-41723110D01*
X49896825Y-41575901D01*
X49771641Y-41313080D01*
X49597588Y-41079731D01*
X49381355Y-40884822D01*
X49264466Y-40815195D01*
X49446632Y-40693475D01*
X49653475Y-40486632D01*
X49694656Y-40425000D01*
X51305344Y-40425000D01*
X51346525Y-40486632D01*
X51553368Y-40693475D01*
X51735534Y-40815195D01*
X51618645Y-40884822D01*
X51402412Y-41079731D01*
X51228359Y-41313080D01*
X51103175Y-41575901D01*
X51058524Y-41723110D01*
X51179845Y-41953000D01*
X52373000Y-41953000D01*
X52373000Y-41933000D01*
X52627000Y-41933000D01*
X52627000Y-41953000D01*
X52647000Y-41953000D01*
X52647000Y-42207000D01*
X52627000Y-42207000D01*
X52627000Y-43400814D01*
X52856891Y-43521481D01*
X52940010Y-43491996D01*
X52940010Y-43735679D01*
X52936333Y-43773011D01*
X52940010Y-43810344D01*
X52951007Y-43921997D01*
X52955316Y-43936201D01*
X52994463Y-44065257D01*
X53065035Y-44197287D01*
X53107478Y-44249003D01*
X53160009Y-44313012D01*
X53189007Y-44336810D01*
X57863199Y-49011003D01*
X57886997Y-49040001D01*
X57915995Y-49063799D01*
X58002721Y-49134974D01*
X58134751Y-49205546D01*
X58278012Y-49249003D01*
X58389665Y-49260000D01*
X58389675Y-49260000D01*
X58426998Y-49263676D01*
X58464321Y-49260000D01*
X67296289Y-49260000D01*
X67340226Y-49303937D01*
X67509744Y-49417205D01*
X67698102Y-49495226D01*
X67898061Y-49535000D01*
X68101939Y-49535000D01*
X68301898Y-49495226D01*
X68490256Y-49417205D01*
X68659774Y-49303937D01*
X68803937Y-49159774D01*
X68917205Y-48990256D01*
X68995226Y-48801898D01*
X69035000Y-48601939D01*
X69035000Y-48398061D01*
X68995226Y-48198102D01*
X68917205Y-48009744D01*
X68803937Y-47840226D01*
X68723711Y-47760000D01*
X68796289Y-47760000D01*
X68840226Y-47803937D01*
X69009744Y-47917205D01*
X69198102Y-47995226D01*
X69398061Y-48035000D01*
X69465002Y-48035000D01*
X69465002Y-49612691D01*
X69340226Y-49696063D01*
X69196063Y-49840226D01*
X69082795Y-50009744D01*
X69004774Y-50198102D01*
X68965000Y-50398061D01*
X68965000Y-50601939D01*
X69004774Y-50801898D01*
X69082795Y-50990256D01*
X69196063Y-51159774D01*
X69340226Y-51303937D01*
X69509744Y-51417205D01*
X69698102Y-51495226D01*
X69898061Y-51535000D01*
X70101939Y-51535000D01*
X70301898Y-51495226D01*
X70490256Y-51417205D01*
X70659774Y-51303937D01*
X70803937Y-51159774D01*
X70917205Y-50990256D01*
X70995226Y-50801898D01*
X71035000Y-50601939D01*
X71035000Y-50398061D01*
X70995226Y-50198102D01*
X70985001Y-50173417D01*
X70985001Y-45762323D01*
X70988677Y-45725000D01*
X70985001Y-45687677D01*
X70985001Y-45687668D01*
X70974004Y-45576015D01*
X70930547Y-45432754D01*
X70859976Y-45300726D01*
X70859975Y-45300724D01*
X70788800Y-45213998D01*
X70765002Y-45185000D01*
X70736005Y-45161203D01*
X70035000Y-44460199D01*
X70035000Y-44398061D01*
X69995226Y-44198102D01*
X69917205Y-44009744D01*
X69803937Y-43840226D01*
X69659774Y-43696063D01*
X69490256Y-43582795D01*
X69301898Y-43504774D01*
X69101939Y-43465000D01*
X68898061Y-43465000D01*
X68698102Y-43504774D01*
X68509744Y-43582795D01*
X68340226Y-43696063D01*
X68196063Y-43840226D01*
X68082795Y-44009744D01*
X68004774Y-44198102D01*
X67965000Y-44398061D01*
X67965000Y-44601939D01*
X68004774Y-44801898D01*
X68082795Y-44990256D01*
X68196063Y-45159774D01*
X68340226Y-45303937D01*
X68509744Y-45417205D01*
X68698102Y-45495226D01*
X68898061Y-45535000D01*
X68960199Y-45535000D01*
X69391503Y-45966305D01*
X69198102Y-46004774D01*
X69009744Y-46082795D01*
X68840226Y-46196063D01*
X68796289Y-46240000D01*
X68564801Y-46240000D01*
X68535000Y-46210199D01*
X68535000Y-46148062D01*
X68495226Y-45948103D01*
X68417205Y-45759745D01*
X68303937Y-45590227D01*
X68159774Y-45446064D01*
X67990256Y-45332796D01*
X67801898Y-45254775D01*
X67601939Y-45215001D01*
X67398061Y-45215001D01*
X67198102Y-45254775D01*
X67009744Y-45332796D01*
X66840226Y-45446064D01*
X66696063Y-45590227D01*
X66582795Y-45759745D01*
X66504774Y-45948103D01*
X66465000Y-46148062D01*
X66465000Y-46351940D01*
X66504774Y-46551899D01*
X66582795Y-46740257D01*
X66696063Y-46909775D01*
X66840226Y-47053938D01*
X67009744Y-47167206D01*
X67198102Y-47245227D01*
X67398061Y-47285001D01*
X67460198Y-47285001D01*
X67685282Y-47510084D01*
X67509744Y-47582795D01*
X67340226Y-47696063D01*
X67296289Y-47740000D01*
X58741800Y-47740000D01*
X55261799Y-44260000D01*
X57685199Y-44260000D01*
X57965000Y-44539802D01*
X57965000Y-44601939D01*
X58004774Y-44801898D01*
X58082795Y-44990256D01*
X58196063Y-45159774D01*
X58340226Y-45303937D01*
X58509744Y-45417205D01*
X58698102Y-45495226D01*
X58898061Y-45535000D01*
X59101939Y-45535000D01*
X59301898Y-45495226D01*
X59490256Y-45417205D01*
X59659774Y-45303937D01*
X59803937Y-45159774D01*
X59917205Y-44990256D01*
X59995226Y-44801898D01*
X60035000Y-44601939D01*
X60035000Y-44398061D01*
X59995226Y-44198102D01*
X59917205Y-44009744D01*
X59803937Y-43840226D01*
X59659774Y-43696063D01*
X59490256Y-43582795D01*
X59301898Y-43504774D01*
X59101939Y-43465000D01*
X59039802Y-43465000D01*
X58701802Y-43127000D01*
X74373000Y-43127000D01*
X74373000Y-46500000D01*
X74375440Y-46524776D01*
X74382667Y-46548601D01*
X74394403Y-46570557D01*
X74410197Y-46589803D01*
X74429443Y-46605597D01*
X74451399Y-46617333D01*
X74475224Y-46624560D01*
X74500000Y-46627000D01*
X79340000Y-46627000D01*
X79340001Y-66309230D01*
X79224482Y-66274188D01*
X79100000Y-66261928D01*
X77400000Y-66261928D01*
X77275518Y-66274188D01*
X77155820Y-66310498D01*
X77045506Y-66369463D01*
X76948815Y-66448815D01*
X76869463Y-66545506D01*
X76810498Y-66655820D01*
X76788487Y-66728380D01*
X76656632Y-66596525D01*
X76413411Y-66434010D01*
X76143158Y-66322068D01*
X75856260Y-66265000D01*
X75563740Y-66265000D01*
X75491040Y-66279461D01*
X74866534Y-65654956D01*
X74838817Y-65621183D01*
X74704059Y-65510589D01*
X74550313Y-65428411D01*
X74383490Y-65377805D01*
X74253477Y-65365000D01*
X74253469Y-65365000D01*
X74210000Y-65360719D01*
X74166531Y-65365000D01*
X70288454Y-65365000D01*
X70240256Y-65332795D01*
X70051898Y-65254774D01*
X69851939Y-65215000D01*
X69648061Y-65215000D01*
X69448102Y-65254774D01*
X69259744Y-65332795D01*
X69090226Y-65446063D01*
X68946063Y-65590226D01*
X68832795Y-65759744D01*
X68754774Y-65948102D01*
X68715000Y-66148061D01*
X68715000Y-66351939D01*
X68754774Y-66551898D01*
X68832795Y-66740256D01*
X68946063Y-66909774D01*
X69090226Y-67053937D01*
X69259744Y-67167205D01*
X69448102Y-67245226D01*
X69648061Y-67285000D01*
X69851939Y-67285000D01*
X70051898Y-67245226D01*
X70240256Y-67167205D01*
X70288454Y-67135000D01*
X71820078Y-67135000D01*
X71728519Y-67393109D01*
X71849186Y-67623000D01*
X73043000Y-67623000D01*
X73043000Y-67603000D01*
X73297000Y-67603000D01*
X73297000Y-67623000D01*
X73317000Y-67623000D01*
X73317000Y-67877000D01*
X73297000Y-67877000D01*
X73297000Y-69070155D01*
X73526890Y-69191476D01*
X73674099Y-69146825D01*
X73936920Y-69021641D01*
X74170269Y-68847588D01*
X74365178Y-68631355D01*
X74434805Y-68514466D01*
X74556525Y-68696632D01*
X74763368Y-68903475D01*
X75006589Y-69065990D01*
X75276842Y-69177932D01*
X75563740Y-69235000D01*
X75856260Y-69235000D01*
X76143158Y-69177932D01*
X76413411Y-69065990D01*
X76656632Y-68903475D01*
X76788487Y-68771620D01*
X76810498Y-68844180D01*
X76869463Y-68954494D01*
X76948815Y-69051185D01*
X77045506Y-69130537D01*
X77155820Y-69189502D01*
X77275518Y-69225812D01*
X77400000Y-69238072D01*
X79100000Y-69238072D01*
X79224482Y-69225812D01*
X79340001Y-69190770D01*
X79340001Y-70559230D01*
X79224482Y-70524188D01*
X79100000Y-70511928D01*
X77400000Y-70511928D01*
X77275518Y-70524188D01*
X77155820Y-70560498D01*
X77045506Y-70619463D01*
X76948815Y-70698815D01*
X76869463Y-70795506D01*
X76810498Y-70905820D01*
X76788487Y-70978380D01*
X76656632Y-70846525D01*
X76413411Y-70684010D01*
X76143158Y-70572068D01*
X75856260Y-70515000D01*
X75563740Y-70515000D01*
X75276842Y-70572068D01*
X75006589Y-70684010D01*
X74763368Y-70846525D01*
X74556525Y-71053368D01*
X74434805Y-71235534D01*
X74365178Y-71118645D01*
X74170269Y-70902412D01*
X73936920Y-70728359D01*
X73674099Y-70603175D01*
X73526890Y-70558524D01*
X73297000Y-70679845D01*
X73297000Y-71873000D01*
X73317000Y-71873000D01*
X73317000Y-72127000D01*
X73297000Y-72127000D01*
X73297000Y-72147000D01*
X73043000Y-72147000D01*
X73043000Y-72127000D01*
X73023000Y-72127000D01*
X73023000Y-71873000D01*
X73043000Y-71873000D01*
X73043000Y-70679845D01*
X72813110Y-70558524D01*
X72665901Y-70603175D01*
X72460561Y-70700980D01*
X69866472Y-68106891D01*
X71728519Y-68106891D01*
X71825843Y-68381252D01*
X71974822Y-68631355D01*
X72169731Y-68847588D01*
X72403080Y-69021641D01*
X72665901Y-69146825D01*
X72813110Y-69191476D01*
X73043000Y-69070155D01*
X73043000Y-67877000D01*
X71849186Y-67877000D01*
X71728519Y-68106891D01*
X69866472Y-68106891D01*
X68064535Y-66304955D01*
X68036818Y-66271182D01*
X67902060Y-66160588D01*
X67748314Y-66078410D01*
X67581491Y-66027804D01*
X67451478Y-66014999D01*
X67451470Y-66014999D01*
X67408001Y-66010718D01*
X67364532Y-66014999D01*
X65611150Y-66014999D01*
X65567684Y-66010718D01*
X65524218Y-66014999D01*
X65524208Y-66014999D01*
X65394195Y-66027804D01*
X65227372Y-66078410D01*
X65073626Y-66160588D01*
X65073624Y-66160589D01*
X65073625Y-66160589D01*
X64972638Y-66243467D01*
X64972636Y-66243469D01*
X64938868Y-66271182D01*
X64911155Y-66304950D01*
X63217778Y-67998328D01*
X62136400Y-67998328D01*
X62011918Y-68010588D01*
X61892220Y-68046898D01*
X61781906Y-68105863D01*
X61685215Y-68185215D01*
X61605863Y-68281906D01*
X61546898Y-68392220D01*
X61510588Y-68511918D01*
X61500436Y-68615000D01*
X59866579Y-68615000D01*
X53756535Y-62504957D01*
X53745226Y-62448102D01*
X53667205Y-62259744D01*
X53553937Y-62090226D01*
X53409774Y-61946063D01*
X53240256Y-61832795D01*
X53051898Y-61754774D01*
X52851939Y-61715000D01*
X52786578Y-61715000D01*
X54995044Y-59506535D01*
X55051898Y-59495226D01*
X55240256Y-59417205D01*
X55409774Y-59303937D01*
X55553937Y-59159774D01*
X55667205Y-58990256D01*
X55745226Y-58801898D01*
X55785000Y-58601939D01*
X55785000Y-58398061D01*
X55745226Y-58198102D01*
X55667205Y-58009744D01*
X55553937Y-57840226D01*
X55409774Y-57696063D01*
X55240256Y-57582795D01*
X55051898Y-57504774D01*
X54851939Y-57465000D01*
X54762511Y-57465000D01*
X54785000Y-57351939D01*
X54785000Y-57148061D01*
X54745226Y-56948102D01*
X54667205Y-56759744D01*
X54553937Y-56590226D01*
X54409774Y-56446063D01*
X54240256Y-56332795D01*
X54051898Y-56254774D01*
X53995044Y-56243465D01*
X53385000Y-55633422D01*
X53385000Y-53237654D01*
X57248670Y-53237654D01*
X57252346Y-53274976D01*
X57252347Y-61475014D01*
X57248670Y-61512346D01*
X57263344Y-61661331D01*
X57306800Y-61804592D01*
X57377372Y-61936622D01*
X57438077Y-62010590D01*
X57465000Y-62043396D01*
X57465000Y-62101939D01*
X57504774Y-62301898D01*
X57582795Y-62490256D01*
X57696063Y-62659774D01*
X57840226Y-62803937D01*
X58009744Y-62917205D01*
X58198102Y-62995226D01*
X58398061Y-63035000D01*
X58601939Y-63035000D01*
X58801898Y-62995226D01*
X58990256Y-62917205D01*
X59159774Y-62803937D01*
X59303937Y-62659774D01*
X59417205Y-62490256D01*
X59495226Y-62301898D01*
X59535000Y-62101939D01*
X59535000Y-61898061D01*
X59495226Y-61698102D01*
X59417205Y-61509744D01*
X59303937Y-61340226D01*
X59159774Y-61196063D01*
X58990256Y-61082795D01*
X58801898Y-61004774D01*
X58772346Y-60998896D01*
X58772346Y-56272347D01*
X58839286Y-56272347D01*
X59039245Y-56232573D01*
X59227603Y-56154552D01*
X59288835Y-56113638D01*
X61338996Y-58163800D01*
X61339002Y-58163805D01*
X61686205Y-58511008D01*
X61709999Y-58540001D01*
X61738992Y-58563795D01*
X61738996Y-58563799D01*
X61825722Y-58634974D01*
X61957751Y-58705546D01*
X62044665Y-58731910D01*
X62101014Y-58749003D01*
X62212667Y-58760000D01*
X62212675Y-58760000D01*
X62249997Y-58763676D01*
X62249999Y-58763676D01*
X62287322Y-58760000D01*
X66396290Y-58760000D01*
X66440227Y-58803937D01*
X66609745Y-58917205D01*
X66798103Y-58995226D01*
X66998062Y-59035000D01*
X67201940Y-59035000D01*
X67401899Y-58995226D01*
X67590257Y-58917205D01*
X67759775Y-58803937D01*
X67903938Y-58659774D01*
X67990000Y-58530972D01*
X67990001Y-60845987D01*
X67840226Y-60946063D01*
X67696063Y-61090226D01*
X67582795Y-61259744D01*
X67504774Y-61448102D01*
X67465000Y-61648061D01*
X67465000Y-61851939D01*
X67504774Y-62051898D01*
X67582795Y-62240256D01*
X67696063Y-62409774D01*
X67840226Y-62553937D01*
X68009744Y-62667205D01*
X68198102Y-62745226D01*
X68398061Y-62785000D01*
X68601939Y-62785000D01*
X68801898Y-62745226D01*
X68990256Y-62667205D01*
X69159774Y-62553937D01*
X69303937Y-62409774D01*
X69417205Y-62240256D01*
X69495226Y-62051898D01*
X69535000Y-61851939D01*
X69535000Y-61648061D01*
X69510985Y-61527327D01*
X69513676Y-61500001D01*
X69510000Y-61462678D01*
X69510000Y-57703711D01*
X69553937Y-57659774D01*
X69667205Y-57490256D01*
X69745226Y-57301898D01*
X69785000Y-57101939D01*
X69785000Y-56898061D01*
X69752566Y-56735002D01*
X69983203Y-56735002D01*
X76152950Y-62904750D01*
X76082795Y-63009744D01*
X76004774Y-63198102D01*
X75995724Y-63243600D01*
X75851939Y-63215000D01*
X75648061Y-63215000D01*
X75448102Y-63254774D01*
X75259744Y-63332795D01*
X75090226Y-63446063D01*
X75055545Y-63480744D01*
X74035000Y-62460199D01*
X74035000Y-62398061D01*
X73995226Y-62198102D01*
X73917205Y-62009744D01*
X73803937Y-61840226D01*
X73659774Y-61696063D01*
X73490256Y-61582795D01*
X73301898Y-61504774D01*
X73101939Y-61465000D01*
X72898061Y-61465000D01*
X72698102Y-61504774D01*
X72509744Y-61582795D01*
X72340226Y-61696063D01*
X72196063Y-61840226D01*
X72082795Y-62009744D01*
X72004774Y-62198102D01*
X71965000Y-62398061D01*
X71965000Y-62601939D01*
X72004774Y-62801898D01*
X72082795Y-62990256D01*
X72196063Y-63159774D01*
X72340226Y-63303937D01*
X72509744Y-63417205D01*
X72698102Y-63495226D01*
X72898061Y-63535000D01*
X72960199Y-63535000D01*
X74186201Y-64761003D01*
X74209999Y-64790001D01*
X74325724Y-64884974D01*
X74457753Y-64955546D01*
X74601014Y-64999003D01*
X74712667Y-65010000D01*
X74712675Y-65010000D01*
X74750000Y-65013676D01*
X74787325Y-65010000D01*
X75046289Y-65010000D01*
X75090226Y-65053937D01*
X75259744Y-65167205D01*
X75448102Y-65245226D01*
X75648061Y-65285000D01*
X75851939Y-65285000D01*
X76051898Y-65245226D01*
X76240256Y-65167205D01*
X76409774Y-65053937D01*
X76553937Y-64909774D01*
X76667205Y-64740256D01*
X76745226Y-64551898D01*
X76754276Y-64506400D01*
X76898061Y-64535000D01*
X77101939Y-64535000D01*
X77301898Y-64495226D01*
X77490256Y-64417205D01*
X77659774Y-64303937D01*
X77803937Y-64159774D01*
X77917205Y-63990256D01*
X77995226Y-63801898D01*
X78035000Y-63601939D01*
X78035000Y-63398061D01*
X77995226Y-63198102D01*
X77917205Y-63009744D01*
X77803937Y-62840226D01*
X77760000Y-62796289D01*
X77760000Y-62714323D01*
X77763676Y-62676998D01*
X77760000Y-62639673D01*
X77760000Y-62639665D01*
X77749003Y-62528012D01*
X77705546Y-62384751D01*
X77634974Y-62252722D01*
X77540001Y-62136997D01*
X77511003Y-62113199D01*
X71270143Y-55872340D01*
X74469191Y-55872340D01*
X74512660Y-55876621D01*
X74556129Y-55872340D01*
X74556137Y-55872340D01*
X74686150Y-55859535D01*
X74852973Y-55808929D01*
X75006719Y-55726751D01*
X75141477Y-55616157D01*
X75169194Y-55582384D01*
X76651486Y-54100093D01*
X76708340Y-54088784D01*
X76896698Y-54010763D01*
X77066216Y-53897495D01*
X77210379Y-53753332D01*
X77323647Y-53583814D01*
X77401668Y-53395456D01*
X77441442Y-53195497D01*
X77441442Y-52991619D01*
X77401668Y-52791660D01*
X77323647Y-52603302D01*
X77210379Y-52433784D01*
X77066216Y-52289621D01*
X76896698Y-52176353D01*
X76708340Y-52098332D01*
X76508381Y-52058558D01*
X76304503Y-52058558D01*
X76104544Y-52098332D01*
X75916186Y-52176353D01*
X75746668Y-52289621D01*
X75602505Y-52433784D01*
X75489237Y-52603302D01*
X75411216Y-52791660D01*
X75399907Y-52848514D01*
X74146082Y-54102340D01*
X69034920Y-54102340D01*
X69035000Y-54101939D01*
X69035000Y-53898061D01*
X68995226Y-53698102D01*
X68917205Y-53509744D01*
X68803937Y-53340226D01*
X68659774Y-53196063D01*
X68490256Y-53082795D01*
X68301898Y-53004774D01*
X68101939Y-52965000D01*
X67898061Y-52965000D01*
X67698102Y-53004774D01*
X67509744Y-53082795D01*
X67340226Y-53196063D01*
X67296289Y-53240000D01*
X66314802Y-53240000D01*
X65035000Y-51960199D01*
X65035000Y-51898061D01*
X64995226Y-51698102D01*
X64917205Y-51509744D01*
X64803937Y-51340226D01*
X64659774Y-51196063D01*
X64490256Y-51082795D01*
X64301898Y-51004774D01*
X64101939Y-50965000D01*
X63898061Y-50965000D01*
X63698102Y-51004774D01*
X63509744Y-51082795D01*
X63340226Y-51196063D01*
X63196063Y-51340226D01*
X63082795Y-51509744D01*
X63004774Y-51698102D01*
X63001413Y-51715000D01*
X62898061Y-51715000D01*
X62698102Y-51754774D01*
X62509744Y-51832795D01*
X62340226Y-51946063D01*
X62196063Y-52090226D01*
X62082795Y-52259744D01*
X62031919Y-52382570D01*
X61995226Y-52198102D01*
X61917205Y-52009744D01*
X61803937Y-51840226D01*
X61659774Y-51696063D01*
X61490256Y-51582795D01*
X61301898Y-51504774D01*
X61101939Y-51465000D01*
X60898061Y-51465000D01*
X60698102Y-51504774D01*
X60509744Y-51582795D01*
X60340226Y-51696063D01*
X60196063Y-51840226D01*
X60082795Y-52009744D01*
X60031919Y-52132570D01*
X59995226Y-51948102D01*
X59917205Y-51759744D01*
X59803937Y-51590226D01*
X59659774Y-51446063D01*
X59490256Y-51332795D01*
X59301898Y-51254774D01*
X59101939Y-51215000D01*
X58898061Y-51215000D01*
X58698102Y-51254774D01*
X58509744Y-51332795D01*
X58340226Y-51446063D01*
X58196063Y-51590226D01*
X58082795Y-51759744D01*
X58004774Y-51948102D01*
X57965000Y-52148061D01*
X57965000Y-52210199D01*
X57501348Y-52673850D01*
X57472345Y-52697653D01*
X57417217Y-52764828D01*
X57377372Y-52813378D01*
X57318095Y-52924276D01*
X57306800Y-52945408D01*
X57263343Y-53088669D01*
X57252346Y-53200322D01*
X57252346Y-53200332D01*
X57248670Y-53237654D01*
X53385000Y-53237654D01*
X53385000Y-52538454D01*
X53417205Y-52490256D01*
X53495226Y-52301898D01*
X53535000Y-52101939D01*
X53535000Y-51898061D01*
X53495226Y-51698102D01*
X53417205Y-51509744D01*
X53303937Y-51340226D01*
X53159774Y-51196063D01*
X52990256Y-51082795D01*
X52801898Y-51004774D01*
X52601939Y-50965000D01*
X52398061Y-50965000D01*
X52198102Y-51004774D01*
X52009744Y-51082795D01*
X51871734Y-51175010D01*
X51872195Y-51173490D01*
X51885000Y-51043477D01*
X51885000Y-51043469D01*
X51889281Y-51000000D01*
X51885000Y-50956531D01*
X51885000Y-49288444D01*
X51917205Y-49240246D01*
X51995226Y-49051888D01*
X52035000Y-48851929D01*
X52035000Y-48648051D01*
X51995226Y-48448092D01*
X51917205Y-48259734D01*
X51803937Y-48090216D01*
X51659774Y-47946053D01*
X51490256Y-47832785D01*
X51301898Y-47754764D01*
X51101939Y-47714990D01*
X50898061Y-47714990D01*
X50698102Y-47754764D01*
X50509744Y-47832785D01*
X50340226Y-47946053D01*
X50196063Y-48090216D01*
X50082795Y-48259734D01*
X50004774Y-48448092D01*
X49965000Y-48648051D01*
X49965000Y-48851929D01*
X50004774Y-49051888D01*
X50082795Y-49240246D01*
X50115000Y-49288445D01*
X50115001Y-50539196D01*
X50009744Y-50582795D01*
X49840226Y-50696063D01*
X49696063Y-50840226D01*
X49582795Y-51009744D01*
X49504774Y-51198102D01*
X49465000Y-51398061D01*
X49465000Y-51601939D01*
X49504774Y-51801898D01*
X49582795Y-51990256D01*
X49696063Y-52159774D01*
X49840226Y-52303937D01*
X50009744Y-52417205D01*
X50198102Y-52495226D01*
X50398061Y-52535000D01*
X50601939Y-52535000D01*
X50801898Y-52495226D01*
X50990256Y-52417205D01*
X51159774Y-52303937D01*
X51303937Y-52159774D01*
X51417205Y-51990256D01*
X51473875Y-51853444D01*
X51465000Y-51898061D01*
X51465000Y-52101939D01*
X51504774Y-52301898D01*
X51582795Y-52490256D01*
X51615000Y-52538455D01*
X51615001Y-55956521D01*
X51610719Y-56000000D01*
X51627805Y-56173490D01*
X51678412Y-56340313D01*
X51760590Y-56494059D01*
X51843468Y-56595046D01*
X51843471Y-56595049D01*
X51871184Y-56628817D01*
X51904951Y-56656529D01*
X52743465Y-57495044D01*
X52754774Y-57551898D01*
X52832795Y-57740256D01*
X52946063Y-57909774D01*
X53090226Y-58053937D01*
X53259744Y-58167205D01*
X53448102Y-58245226D01*
X53648061Y-58285000D01*
X53713421Y-58285000D01*
X51408422Y-60590000D01*
X49863448Y-60590000D01*
X49815250Y-60557795D01*
X49626892Y-60479774D01*
X49426933Y-60440000D01*
X49223055Y-60440000D01*
X49023096Y-60479774D01*
X48834738Y-60557795D01*
X48665220Y-60671063D01*
X48521057Y-60815226D01*
X48407789Y-60984744D01*
X48329768Y-61173102D01*
X48289994Y-61373061D01*
X48289994Y-61576939D01*
X48329768Y-61776898D01*
X48407789Y-61965256D01*
X48521057Y-62134774D01*
X48665220Y-62278937D01*
X48834738Y-62392205D01*
X49023096Y-62470226D01*
X49223055Y-62510000D01*
X49426933Y-62510000D01*
X49626892Y-62470226D01*
X49815250Y-62392205D01*
X49863448Y-62360000D01*
X51731531Y-62360000D01*
X51775000Y-62364281D01*
X51790110Y-62362793D01*
X51754774Y-62448102D01*
X51715000Y-62648061D01*
X51715000Y-62851939D01*
X51754774Y-63051898D01*
X51832795Y-63240256D01*
X51946063Y-63409774D01*
X52090226Y-63553937D01*
X52259744Y-63667205D01*
X52448102Y-63745226D01*
X52504957Y-63756535D01*
X58843470Y-70095049D01*
X58871183Y-70128817D01*
X58904951Y-70156530D01*
X58904953Y-70156532D01*
X59005941Y-70239411D01*
X59159686Y-70321589D01*
X59326510Y-70372195D01*
X59456523Y-70385000D01*
X59456531Y-70385000D01*
X59500000Y-70389281D01*
X59543469Y-70385000D01*
X61500436Y-70385000D01*
X61510588Y-70488082D01*
X61546898Y-70607780D01*
X61605863Y-70718094D01*
X61685215Y-70814785D01*
X61781906Y-70894137D01*
X61892220Y-70953102D01*
X61950023Y-70970636D01*
X61835961Y-71084698D01*
X61671958Y-71330147D01*
X61558990Y-71602875D01*
X61501400Y-71892401D01*
X61501400Y-72187599D01*
X61558990Y-72477125D01*
X61671958Y-72749853D01*
X61835961Y-72995302D01*
X62044698Y-73204039D01*
X62203281Y-73310000D01*
X62044698Y-73415961D01*
X61835961Y-73624698D01*
X61671958Y-73870147D01*
X61652586Y-73916915D01*
X60760000Y-73024329D01*
X60760000Y-72203711D01*
X60803937Y-72159774D01*
X60917205Y-71990256D01*
X60995226Y-71801898D01*
X61035000Y-71601939D01*
X61035000Y-71398061D01*
X60995226Y-71198102D01*
X60917205Y-71009744D01*
X60803937Y-70840226D01*
X60659774Y-70696063D01*
X60490256Y-70582795D01*
X60301898Y-70504774D01*
X60101939Y-70465000D01*
X59898061Y-70465000D01*
X59698102Y-70504774D01*
X59509744Y-70582795D01*
X59340226Y-70696063D01*
X59196063Y-70840226D01*
X59082795Y-71009744D01*
X59004774Y-71198102D01*
X58965000Y-71398061D01*
X58965000Y-71601939D01*
X59004774Y-71801898D01*
X59082795Y-71990256D01*
X59196063Y-72159774D01*
X59240000Y-72203711D01*
X59240001Y-73301798D01*
X59236324Y-73339130D01*
X59250998Y-73488115D01*
X59294454Y-73631376D01*
X59365026Y-73763406D01*
X59420498Y-73830998D01*
X59460000Y-73879131D01*
X59488998Y-73902929D01*
X61801837Y-76215769D01*
X61671958Y-76410147D01*
X61558990Y-76682875D01*
X61501400Y-76972401D01*
X61501400Y-77267599D01*
X61558990Y-77557125D01*
X61671958Y-77829853D01*
X61835961Y-78075302D01*
X62044698Y-78284039D01*
X62203281Y-78390000D01*
X62044698Y-78495961D01*
X61835961Y-78704698D01*
X61671958Y-78950147D01*
X61558990Y-79222875D01*
X61501400Y-79512401D01*
X61501400Y-79807599D01*
X61558990Y-80097125D01*
X61671958Y-80369853D01*
X61835961Y-80615302D01*
X62044698Y-80824039D01*
X62290147Y-80988042D01*
X62562875Y-81101010D01*
X62852401Y-81158600D01*
X63147599Y-81158600D01*
X63437125Y-81101010D01*
X63709853Y-80988042D01*
X63955302Y-80824039D01*
X64164039Y-80615302D01*
X64271692Y-80454187D01*
X64433146Y-80670293D01*
X64651512Y-80866817D01*
X64904022Y-81016964D01*
X65180973Y-81114963D01*
X65413000Y-80994464D01*
X65413000Y-79787000D01*
X65667000Y-79787000D01*
X65667000Y-80994464D01*
X65899027Y-81114963D01*
X66175978Y-81016964D01*
X66428488Y-80866817D01*
X66646854Y-80670293D01*
X66822684Y-80434944D01*
X66949222Y-80169814D01*
X66994958Y-80019026D01*
X66873817Y-79787000D01*
X65667000Y-79787000D01*
X65413000Y-79787000D01*
X65393000Y-79787000D01*
X65393000Y-79533000D01*
X65413000Y-79533000D01*
X65413000Y-79513000D01*
X65667000Y-79513000D01*
X65667000Y-79533000D01*
X66873817Y-79533000D01*
X66994958Y-79300974D01*
X66949222Y-79150186D01*
X66822684Y-78885056D01*
X66646854Y-78649707D01*
X66428488Y-78453183D01*
X66329897Y-78394559D01*
X66495302Y-78284039D01*
X66704039Y-78075302D01*
X66868042Y-77829853D01*
X66981010Y-77557125D01*
X67038600Y-77267599D01*
X67038600Y-76972401D01*
X66981010Y-76682875D01*
X66949537Y-76606891D01*
X71728519Y-76606891D01*
X71825843Y-76881252D01*
X71974822Y-77131355D01*
X72169731Y-77347588D01*
X72403080Y-77521641D01*
X72665901Y-77646825D01*
X72813110Y-77691476D01*
X73043000Y-77570155D01*
X73043000Y-76377000D01*
X71849186Y-76377000D01*
X71728519Y-76606891D01*
X66949537Y-76606891D01*
X66868042Y-76410147D01*
X66704039Y-76164698D01*
X66495302Y-75955961D01*
X66336719Y-75850000D01*
X66495302Y-75744039D01*
X66704039Y-75535302D01*
X66868042Y-75289853D01*
X66981010Y-75017125D01*
X67038600Y-74727599D01*
X67038600Y-74432401D01*
X66981010Y-74142875D01*
X66868042Y-73870147D01*
X66704039Y-73624698D01*
X66495302Y-73415961D01*
X66336719Y-73310000D01*
X66495302Y-73204039D01*
X66704039Y-72995302D01*
X66868042Y-72749853D01*
X66981010Y-72477125D01*
X67038600Y-72187599D01*
X67038600Y-71892401D01*
X66981010Y-71602875D01*
X66868042Y-71330147D01*
X66704039Y-71084698D01*
X66495302Y-70875961D01*
X66336719Y-70770000D01*
X66495302Y-70664039D01*
X66704039Y-70455302D01*
X66868042Y-70209853D01*
X66981010Y-69937125D01*
X67038600Y-69647599D01*
X67038600Y-69352401D01*
X66981010Y-69062875D01*
X66868042Y-68790147D01*
X66859474Y-68777325D01*
X66898061Y-68785000D01*
X67101939Y-68785000D01*
X67301898Y-68745226D01*
X67490256Y-68667205D01*
X67659774Y-68553937D01*
X67735067Y-68478644D01*
X70984999Y-71728576D01*
X70985000Y-72580523D01*
X70980718Y-72624001D01*
X70997804Y-72797491D01*
X71048411Y-72964314D01*
X71130589Y-73118060D01*
X71213467Y-73219047D01*
X71213470Y-73219050D01*
X71241183Y-73252818D01*
X71274950Y-73280530D01*
X72805309Y-74810890D01*
X72665901Y-74853175D01*
X72403080Y-74978359D01*
X72169731Y-75152412D01*
X71974822Y-75368645D01*
X71825843Y-75618748D01*
X71728519Y-75893109D01*
X71849186Y-76123000D01*
X73043000Y-76123000D01*
X73043000Y-76103000D01*
X73297000Y-76103000D01*
X73297000Y-76123000D01*
X73317000Y-76123000D01*
X73317000Y-76377000D01*
X73297000Y-76377000D01*
X73297000Y-77570155D01*
X73526890Y-77691476D01*
X73674099Y-77646825D01*
X73936920Y-77521641D01*
X74170269Y-77347588D01*
X74365178Y-77131355D01*
X74434805Y-77014466D01*
X74556525Y-77196632D01*
X74763368Y-77403475D01*
X75006589Y-77565990D01*
X75276842Y-77677932D01*
X75563740Y-77735000D01*
X75856260Y-77735000D01*
X76143158Y-77677932D01*
X76413411Y-77565990D01*
X76656632Y-77403475D01*
X76788487Y-77271620D01*
X76810498Y-77344180D01*
X76869463Y-77454494D01*
X76948815Y-77551185D01*
X77045506Y-77630537D01*
X77155820Y-77689502D01*
X77275518Y-77725812D01*
X77400000Y-77738072D01*
X79100000Y-77738072D01*
X79224482Y-77725812D01*
X79340001Y-77690770D01*
X79340001Y-84340000D01*
X30660000Y-84340000D01*
X30660000Y-81279872D01*
X31265000Y-81279872D01*
X31265000Y-81720128D01*
X31350890Y-82151925D01*
X31519369Y-82558669D01*
X31763962Y-82924729D01*
X32075271Y-83236038D01*
X32441331Y-83480631D01*
X32848075Y-83649110D01*
X33279872Y-83735000D01*
X33720128Y-83735000D01*
X34151925Y-83649110D01*
X34558669Y-83480631D01*
X34924729Y-83236038D01*
X35236038Y-82924729D01*
X35480631Y-82558669D01*
X35649110Y-82151925D01*
X35735000Y-81720128D01*
X35735000Y-81279872D01*
X74265000Y-81279872D01*
X74265000Y-81720128D01*
X74350890Y-82151925D01*
X74519369Y-82558669D01*
X74763962Y-82924729D01*
X75075271Y-83236038D01*
X75441331Y-83480631D01*
X75848075Y-83649110D01*
X76279872Y-83735000D01*
X76720128Y-83735000D01*
X77151925Y-83649110D01*
X77558669Y-83480631D01*
X77924729Y-83236038D01*
X78236038Y-82924729D01*
X78480631Y-82558669D01*
X78649110Y-82151925D01*
X78735000Y-81720128D01*
X78735000Y-81279872D01*
X78649110Y-80848075D01*
X78480631Y-80441331D01*
X78236038Y-80075271D01*
X77924729Y-79763962D01*
X77558669Y-79519369D01*
X77151925Y-79350890D01*
X76720128Y-79265000D01*
X76279872Y-79265000D01*
X75848075Y-79350890D01*
X75441331Y-79519369D01*
X75075271Y-79763962D01*
X74763962Y-80075271D01*
X74519369Y-80441331D01*
X74350890Y-80848075D01*
X74265000Y-81279872D01*
X35735000Y-81279872D01*
X35649110Y-80848075D01*
X35480631Y-80441331D01*
X35236038Y-80075271D01*
X34924729Y-79763962D01*
X34558669Y-79519369D01*
X34151925Y-79350890D01*
X33720128Y-79265000D01*
X33279872Y-79265000D01*
X32848075Y-79350890D01*
X32441331Y-79519369D01*
X32075271Y-79763962D01*
X31763962Y-80075271D01*
X31519369Y-80441331D01*
X31350890Y-80848075D01*
X31265000Y-81279872D01*
X30660000Y-81279872D01*
X30660000Y-78148061D01*
X38215000Y-78148061D01*
X38215000Y-78351939D01*
X38254774Y-78551898D01*
X38332795Y-78740256D01*
X38446063Y-78909774D01*
X38590226Y-79053937D01*
X38759744Y-79167205D01*
X38948102Y-79245226D01*
X39148061Y-79285000D01*
X39351939Y-79285000D01*
X39551898Y-79245226D01*
X39740256Y-79167205D01*
X39909774Y-79053937D01*
X39953711Y-79010000D01*
X42462678Y-79010000D01*
X42500000Y-79013676D01*
X42537322Y-79010000D01*
X42537333Y-79010000D01*
X42648986Y-78999003D01*
X42792247Y-78955546D01*
X42924276Y-78884974D01*
X43040001Y-78790001D01*
X43063804Y-78760997D01*
X44539802Y-77285000D01*
X44601939Y-77285000D01*
X44801898Y-77245226D01*
X44990256Y-77167205D01*
X45159774Y-77053937D01*
X45303937Y-76909774D01*
X45417205Y-76740256D01*
X45495226Y-76551898D01*
X45535000Y-76351939D01*
X45535000Y-76148061D01*
X45495226Y-75948102D01*
X45417205Y-75759744D01*
X45303937Y-75590226D01*
X45159774Y-75446063D01*
X44990256Y-75332795D01*
X44801898Y-75254774D01*
X44601939Y-75215000D01*
X44398061Y-75215000D01*
X44198102Y-75254774D01*
X44009744Y-75332795D01*
X43840226Y-75446063D01*
X43696063Y-75590226D01*
X43582795Y-75759744D01*
X43504774Y-75948102D01*
X43465000Y-76148061D01*
X43465000Y-76210198D01*
X42185199Y-77490000D01*
X39953711Y-77490000D01*
X39909774Y-77446063D01*
X39740256Y-77332795D01*
X39551898Y-77254774D01*
X39351939Y-77215000D01*
X39148061Y-77215000D01*
X38948102Y-77254774D01*
X38759744Y-77332795D01*
X38590226Y-77446063D01*
X38446063Y-77590226D01*
X38332795Y-77759744D01*
X38254774Y-77948102D01*
X38215000Y-78148061D01*
X30660000Y-78148061D01*
X30660000Y-74950000D01*
X34061928Y-74950000D01*
X34061928Y-76550000D01*
X34074188Y-76674482D01*
X34110498Y-76794180D01*
X34169463Y-76904494D01*
X34248815Y-77001185D01*
X34345506Y-77080537D01*
X34455820Y-77139502D01*
X34575518Y-77175812D01*
X34700000Y-77188072D01*
X36300000Y-77188072D01*
X36424482Y-77175812D01*
X36544180Y-77139502D01*
X36654494Y-77080537D01*
X36751185Y-77001185D01*
X36830537Y-76904494D01*
X36889502Y-76794180D01*
X36905117Y-76742702D01*
X37186903Y-76742702D01*
X37258486Y-76986671D01*
X37513996Y-77107571D01*
X37788184Y-77176300D01*
X38070512Y-77190217D01*
X38350130Y-77148787D01*
X38616292Y-77053603D01*
X38741514Y-76986671D01*
X38813097Y-76742702D01*
X38000000Y-75929605D01*
X37186903Y-76742702D01*
X36905117Y-76742702D01*
X36925812Y-76674482D01*
X36938072Y-76550000D01*
X36938072Y-76542785D01*
X37007298Y-76563097D01*
X37820395Y-75750000D01*
X38179605Y-75750000D01*
X38992702Y-76563097D01*
X39236671Y-76491514D01*
X39357571Y-76236004D01*
X39426300Y-75961816D01*
X39440217Y-75679488D01*
X39398787Y-75399870D01*
X39303603Y-75133708D01*
X39236671Y-75008486D01*
X38992702Y-74936903D01*
X38179605Y-75750000D01*
X37820395Y-75750000D01*
X37007298Y-74936903D01*
X36938072Y-74957215D01*
X36938072Y-74950000D01*
X36925812Y-74825518D01*
X36905118Y-74757298D01*
X37186903Y-74757298D01*
X38000000Y-75570395D01*
X38813097Y-74757298D01*
X38741514Y-74513329D01*
X38486004Y-74392429D01*
X38211816Y-74323700D01*
X37929488Y-74309783D01*
X37649870Y-74351213D01*
X37383708Y-74446397D01*
X37258486Y-74513329D01*
X37186903Y-74757298D01*
X36905118Y-74757298D01*
X36889502Y-74705820D01*
X36830537Y-74595506D01*
X36751185Y-74498815D01*
X36654494Y-74419463D01*
X36544180Y-74360498D01*
X36424482Y-74324188D01*
X36300000Y-74311928D01*
X34700000Y-74311928D01*
X34575518Y-74324188D01*
X34455820Y-74360498D01*
X34345506Y-74419463D01*
X34248815Y-74498815D01*
X34169463Y-74595506D01*
X34110498Y-74705820D01*
X34074188Y-74825518D01*
X34061928Y-74950000D01*
X30660000Y-74950000D01*
X30660000Y-68450000D01*
X33811928Y-68450000D01*
X33811928Y-71050000D01*
X33824188Y-71174482D01*
X33860498Y-71294180D01*
X33919463Y-71404494D01*
X33998815Y-71501185D01*
X34095506Y-71580537D01*
X34205820Y-71639502D01*
X34325518Y-71675812D01*
X34450000Y-71688072D01*
X37050000Y-71688072D01*
X37174482Y-71675812D01*
X37294180Y-71639502D01*
X37404494Y-71580537D01*
X37501185Y-71501185D01*
X37580537Y-71404494D01*
X37639502Y-71294180D01*
X37675812Y-71174482D01*
X37688072Y-71050000D01*
X37688072Y-68450000D01*
X37675812Y-68325518D01*
X37639502Y-68205820D01*
X37580537Y-68095506D01*
X37501185Y-67998815D01*
X37404494Y-67919463D01*
X37294180Y-67860498D01*
X37174482Y-67824188D01*
X37050000Y-67811928D01*
X34450000Y-67811928D01*
X34325518Y-67824188D01*
X34205820Y-67860498D01*
X34095506Y-67919463D01*
X33998815Y-67998815D01*
X33919463Y-68095506D01*
X33860498Y-68205820D01*
X33824188Y-68325518D01*
X33811928Y-68450000D01*
X30660000Y-68450000D01*
X30660000Y-66019224D01*
X34580381Y-66019224D01*
X34712317Y-66314312D01*
X35053045Y-66485159D01*
X35420557Y-66586250D01*
X35800729Y-66613701D01*
X36178951Y-66566457D01*
X36540690Y-66446333D01*
X36787683Y-66314312D01*
X36919619Y-66019224D01*
X35750000Y-64849605D01*
X34580381Y-66019224D01*
X30660000Y-66019224D01*
X30660000Y-64720729D01*
X33806299Y-64720729D01*
X33853543Y-65098951D01*
X33973667Y-65460690D01*
X34105688Y-65707683D01*
X34400776Y-65839619D01*
X35570395Y-64670000D01*
X35929605Y-64670000D01*
X37099224Y-65839619D01*
X37394312Y-65707683D01*
X37565159Y-65366955D01*
X37666250Y-64999443D01*
X37693701Y-64619271D01*
X37646457Y-64241049D01*
X37526333Y-63879310D01*
X37394312Y-63632317D01*
X37099224Y-63500381D01*
X35929605Y-64670000D01*
X35570395Y-64670000D01*
X34400776Y-63500381D01*
X34105688Y-63632317D01*
X33934841Y-63973045D01*
X33833750Y-64340557D01*
X33806299Y-64720729D01*
X30660000Y-64720729D01*
X30660000Y-63320776D01*
X34580381Y-63320776D01*
X35750000Y-64490395D01*
X36919619Y-63320776D01*
X36787683Y-63025688D01*
X36446955Y-62854841D01*
X36079443Y-62753750D01*
X35699271Y-62726299D01*
X35321049Y-62773543D01*
X34959310Y-62893667D01*
X34712317Y-63025688D01*
X34580381Y-63320776D01*
X30660000Y-63320776D01*
X30660000Y-60247109D01*
X30868645Y-60435178D01*
X31118748Y-60584157D01*
X31393109Y-60681481D01*
X31623000Y-60560814D01*
X31623000Y-59367000D01*
X31877000Y-59367000D01*
X31877000Y-60560814D01*
X32106891Y-60681481D01*
X32381252Y-60584157D01*
X32631355Y-60435178D01*
X32847588Y-60240269D01*
X33021641Y-60006920D01*
X33146825Y-59744099D01*
X33191476Y-59596890D01*
X33070155Y-59367000D01*
X31877000Y-59367000D01*
X31623000Y-59367000D01*
X31603000Y-59367000D01*
X31603000Y-59113000D01*
X31623000Y-59113000D01*
X31623000Y-59093000D01*
X31877000Y-59093000D01*
X31877000Y-59113000D01*
X33070155Y-59113000D01*
X33191476Y-58883110D01*
X33146825Y-58735901D01*
X33021641Y-58473080D01*
X32847588Y-58239731D01*
X32631355Y-58044822D01*
X32514466Y-57975195D01*
X32696632Y-57853475D01*
X32903475Y-57646632D01*
X33065990Y-57403411D01*
X33177932Y-57133158D01*
X33235000Y-56846260D01*
X33235000Y-56553740D01*
X33177932Y-56266842D01*
X33065990Y-55996589D01*
X32903475Y-55753368D01*
X32696632Y-55546525D01*
X32522240Y-55430000D01*
X32696632Y-55313475D01*
X32903475Y-55106632D01*
X33065990Y-54863411D01*
X33177932Y-54593158D01*
X33235000Y-54306260D01*
X33235000Y-54013740D01*
X33177932Y-53726842D01*
X33065990Y-53456589D01*
X32903475Y-53213368D01*
X32696632Y-53006525D01*
X32522240Y-52890000D01*
X32696632Y-52773475D01*
X32903475Y-52566632D01*
X33065990Y-52323411D01*
X33177932Y-52053158D01*
X33235000Y-51766260D01*
X33235000Y-51473740D01*
X33177932Y-51186842D01*
X33065990Y-50916589D01*
X32903475Y-50673368D01*
X32696632Y-50466525D01*
X32522240Y-50350000D01*
X32696632Y-50233475D01*
X32903475Y-50026632D01*
X33065990Y-49783411D01*
X33177932Y-49513158D01*
X33235000Y-49226260D01*
X33235000Y-48933740D01*
X33177932Y-48646842D01*
X33065990Y-48376589D01*
X32903475Y-48133368D01*
X32696632Y-47926525D01*
X32522240Y-47810000D01*
X32696632Y-47693475D01*
X32903475Y-47486632D01*
X33065990Y-47243411D01*
X33177932Y-46973158D01*
X33235000Y-46686260D01*
X33235000Y-46393740D01*
X33177932Y-46106842D01*
X33065990Y-45836589D01*
X32903475Y-45593368D01*
X32771620Y-45461513D01*
X32844180Y-45439502D01*
X32954494Y-45380537D01*
X33051185Y-45301185D01*
X33130537Y-45204494D01*
X33189502Y-45094180D01*
X33225812Y-44974482D01*
X33238072Y-44850000D01*
X33238072Y-43150000D01*
X33225812Y-43025518D01*
X33189502Y-42905820D01*
X33130537Y-42795506D01*
X33051185Y-42698815D01*
X32954494Y-42619463D01*
X32844180Y-42560498D01*
X32724482Y-42524188D01*
X32600000Y-42511928D01*
X30900000Y-42511928D01*
X30775518Y-42524188D01*
X30660000Y-42559230D01*
X30660000Y-38279872D01*
X31265000Y-38279872D01*
X31265000Y-38720128D01*
X31350890Y-39151925D01*
X31519369Y-39558669D01*
X31763962Y-39924729D01*
X32075271Y-40236038D01*
X32441331Y-40480631D01*
X32848075Y-40649110D01*
X33279872Y-40735000D01*
X33720128Y-40735000D01*
X34151925Y-40649110D01*
X34558669Y-40480631D01*
X34924729Y-40236038D01*
X35236038Y-39924729D01*
X35480631Y-39558669D01*
X35649110Y-39151925D01*
X35735000Y-38720128D01*
X35735000Y-38279872D01*
X35649110Y-37848075D01*
X35561023Y-37635413D01*
X38544192Y-37635413D01*
X38639956Y-37899814D01*
X38929571Y-38040704D01*
X39241108Y-38122384D01*
X39562595Y-38141718D01*
X39881675Y-38097961D01*
X40186088Y-37992795D01*
X40360044Y-37899814D01*
X40455808Y-37635413D01*
X39500000Y-36679605D01*
X38544192Y-37635413D01*
X35561023Y-37635413D01*
X35480631Y-37441331D01*
X35236038Y-37075271D01*
X34924729Y-36763962D01*
X34558669Y-36519369D01*
X34151925Y-36350890D01*
X33720128Y-36265000D01*
X33279872Y-36265000D01*
X32848075Y-36350890D01*
X32441331Y-36519369D01*
X32075271Y-36763962D01*
X31763962Y-37075271D01*
X31519369Y-37441331D01*
X31350890Y-37848075D01*
X31265000Y-38279872D01*
X30660000Y-38279872D01*
X30660000Y-35660000D01*
X38090435Y-35660000D01*
X37959296Y-35929571D01*
G37*
X37959296Y-35929571D02*
X37877616Y-36241108D01*
X37858282Y-36562595D01*
X37902039Y-36881675D01*
X38007205Y-37186088D01*
X38100186Y-37360044D01*
X38364587Y-37455808D01*
X39320395Y-36500000D01*
X39306253Y-36485858D01*
X39485858Y-36306253D01*
X39500000Y-36320395D01*
X39514143Y-36306253D01*
X39693748Y-36485858D01*
X39679605Y-36500000D01*
X40635413Y-37455808D01*
X40899814Y-37360044D01*
X41040704Y-37070429D01*
X41122384Y-36758892D01*
X41141718Y-36437405D01*
X41097961Y-36118325D01*
X40992795Y-35813912D01*
X40910528Y-35660000D01*
X42594872Y-35660000D01*
X42551082Y-35725537D01*
X42427832Y-36023088D01*
X42365000Y-36338967D01*
X42365000Y-36661033D01*
X42427832Y-36976912D01*
X42551082Y-37274463D01*
X42730013Y-37542252D01*
X42957748Y-37769987D01*
X43225537Y-37948918D01*
X43523088Y-38072168D01*
X43838967Y-38135000D01*
X44161033Y-38135000D01*
X44476912Y-38072168D01*
X44774463Y-37948918D01*
X45042252Y-37769987D01*
X45269987Y-37542252D01*
X45448918Y-37274463D01*
X45572168Y-36976912D01*
X45635000Y-36661033D01*
X45635000Y-36338967D01*
X45572168Y-36023088D01*
X45448918Y-35725537D01*
X45405128Y-35660000D01*
X47246111Y-35660000D01*
X47198815Y-35698815D01*
X47119463Y-35795506D01*
X47060498Y-35905820D01*
X47024188Y-36025518D01*
X47011928Y-36150000D01*
X47011928Y-37850000D01*
X47024188Y-37974482D01*
X47060498Y-38094180D01*
X47119463Y-38204494D01*
X47198815Y-38301185D01*
X47295506Y-38380537D01*
X47405820Y-38439502D01*
X47478380Y-38461513D01*
X47346525Y-38593368D01*
X47305344Y-38655000D01*
X40857467Y-38655000D01*
X40813998Y-38650719D01*
X40770529Y-38655000D01*
X40770521Y-38655000D01*
X40655304Y-38666348D01*
X40640507Y-38667805D01*
X40589901Y-38683157D01*
X40473685Y-38718411D01*
X40319939Y-38800589D01*
X40319937Y-38800590D01*
X40319938Y-38800590D01*
X40218951Y-38883468D01*
X40218949Y-38883470D01*
X40185181Y-38911183D01*
X40157468Y-38944951D01*
X34892296Y-44210124D01*
X34858523Y-44237841D01*
X34747929Y-44372600D01*
X34665751Y-44526346D01*
X34615145Y-44693169D01*
X34602340Y-44823182D01*
X34602340Y-44823189D01*
X34598059Y-44866658D01*
X34602340Y-44910127D01*
X34602341Y-56403489D01*
X34602340Y-56403499D01*
X34602340Y-56474206D01*
X34570135Y-56522404D01*
X34492114Y-56710762D01*
X34452340Y-56910721D01*
X34452340Y-57114599D01*
X34492114Y-57314558D01*
X34570135Y-57502916D01*
X34683403Y-57672434D01*
X34827566Y-57816597D01*
X34997084Y-57929865D01*
X35185442Y-58007886D01*
X35385401Y-58047660D01*
X35589279Y-58047660D01*
X35789238Y-58007886D01*
X35977596Y-57929865D01*
X36147114Y-57816597D01*
X36291277Y-57672434D01*
X36404545Y-57502916D01*
X36482566Y-57314558D01*
X36522340Y-57114599D01*
X36522340Y-56910721D01*
X36482566Y-56710762D01*
X36404545Y-56522404D01*
X36372340Y-56474206D01*
X36372340Y-51450000D01*
X38311928Y-51450000D01*
X38311928Y-53050000D01*
X38324188Y-53174482D01*
X38360498Y-53294180D01*
X38419463Y-53404494D01*
X38498815Y-53501185D01*
X38595506Y-53580537D01*
X38705820Y-53639502D01*
X38825518Y-53675812D01*
X38950000Y-53688072D01*
X40550000Y-53688072D01*
X40674482Y-53675812D01*
X40794180Y-53639502D01*
X40904494Y-53580537D01*
X41001185Y-53501185D01*
X41080537Y-53404494D01*
X41139502Y-53294180D01*
X41175812Y-53174482D01*
X41188072Y-53050000D01*
X41188072Y-51450000D01*
X41175812Y-51325518D01*
X41139502Y-51205820D01*
X41080537Y-51095506D01*
X41001185Y-50998815D01*
X40904494Y-50919463D01*
X40794180Y-50860498D01*
X40674482Y-50824188D01*
X40550000Y-50811928D01*
X40542785Y-50811928D01*
X40563097Y-50742702D01*
X39750000Y-49929605D01*
X38936903Y-50742702D01*
X38957215Y-50811928D01*
X38950000Y-50811928D01*
X38825518Y-50824188D01*
X38705820Y-50860498D01*
X38595506Y-50919463D01*
X38498815Y-50998815D01*
X38419463Y-51095506D01*
X38360498Y-51205820D01*
X38324188Y-51325518D01*
X38311928Y-51450000D01*
X36372340Y-51450000D01*
X36372340Y-49820512D01*
X38309783Y-49820512D01*
X38351213Y-50100130D01*
X38446397Y-50366292D01*
X38513329Y-50491514D01*
X38757298Y-50563097D01*
X39570395Y-49750000D01*
X39929605Y-49750000D01*
X40742702Y-50563097D01*
X40986671Y-50491514D01*
X41107571Y-50236004D01*
X41176300Y-49961816D01*
X41190217Y-49679488D01*
X41148787Y-49399870D01*
X41053603Y-49133708D01*
X40986671Y-49008486D01*
X40742702Y-48936903D01*
X39929605Y-49750000D01*
X39570395Y-49750000D01*
X38757298Y-48936903D01*
X38513329Y-49008486D01*
X38392429Y-49263996D01*
X38323700Y-49538184D01*
X38309783Y-49820512D01*
X36372340Y-49820512D01*
X36372340Y-48757298D01*
X38936903Y-48757298D01*
X39750000Y-49570395D01*
X40563097Y-48757298D01*
X40491514Y-48513329D01*
X40236004Y-48392429D01*
X39961816Y-48323700D01*
X39679488Y-48309783D01*
X39399870Y-48351213D01*
X39133708Y-48446397D01*
X39008486Y-48513329D01*
X38936903Y-48757298D01*
X36372340Y-48757298D01*
X36372340Y-45233236D01*
X37470163Y-44135413D01*
X38544192Y-44135413D01*
X38639956Y-44399814D01*
X38929571Y-44540704D01*
X39241108Y-44622384D01*
X39562595Y-44641718D01*
X39881675Y-44597961D01*
X40186088Y-44492795D01*
X40360044Y-44399814D01*
X40455808Y-44135413D01*
X39500000Y-43179605D01*
X38544192Y-44135413D01*
X37470163Y-44135413D01*
X37984682Y-43620894D01*
X38007205Y-43686088D01*
X38100186Y-43860044D01*
X38364587Y-43955808D01*
X39320395Y-43000000D01*
X39679605Y-43000000D01*
X40635413Y-43955808D01*
X40899814Y-43860044D01*
X41040704Y-43570429D01*
X41122384Y-43258892D01*
X41141718Y-42937405D01*
X41128219Y-42838967D01*
X42365000Y-42838967D01*
X42365000Y-43161033D01*
X42427832Y-43476912D01*
X42551082Y-43774463D01*
X42730013Y-44042252D01*
X42957748Y-44269987D01*
X43225537Y-44448918D01*
X43523088Y-44572168D01*
X43838967Y-44635000D01*
X44161033Y-44635000D01*
X44476912Y-44572168D01*
X44774463Y-44448918D01*
X45042252Y-44269987D01*
X45269987Y-44042252D01*
X45448918Y-43774463D01*
X45572168Y-43476912D01*
X45635000Y-43161033D01*
X45635000Y-42838967D01*
X45572168Y-42523088D01*
X45536464Y-42436890D01*
X47058524Y-42436890D01*
X47103175Y-42584099D01*
X47228359Y-42846920D01*
X47402412Y-43080269D01*
X47618645Y-43275178D01*
X47868748Y-43424157D01*
X48143109Y-43521481D01*
X48373000Y-43400814D01*
X48373000Y-42207000D01*
X48627000Y-42207000D01*
X48627000Y-43400814D01*
X48856891Y-43521481D01*
X49131252Y-43424157D01*
X49381355Y-43275178D01*
X49597588Y-43080269D01*
X49771641Y-42846920D01*
X49896825Y-42584099D01*
X49941476Y-42436890D01*
X51058524Y-42436890D01*
X51103175Y-42584099D01*
X51228359Y-42846920D01*
X51402412Y-43080269D01*
X51618645Y-43275178D01*
X51868748Y-43424157D01*
X52143109Y-43521481D01*
X52373000Y-43400814D01*
X52373000Y-42207000D01*
X51179845Y-42207000D01*
X51058524Y-42436890D01*
X49941476Y-42436890D01*
X49820155Y-42207000D01*
X48627000Y-42207000D01*
X48373000Y-42207000D01*
X47179845Y-42207000D01*
X47058524Y-42436890D01*
X45536464Y-42436890D01*
X45448918Y-42225537D01*
X45269987Y-41957748D01*
X45042252Y-41730013D01*
X44774463Y-41551082D01*
X44476912Y-41427832D01*
X44161033Y-41365000D01*
X43838967Y-41365000D01*
X43523088Y-41427832D01*
X43225537Y-41551082D01*
X42957748Y-41730013D01*
X42730013Y-41957748D01*
X42551082Y-42225537D01*
X42427832Y-42523088D01*
X42365000Y-42838967D01*
X41128219Y-42838967D01*
X41097961Y-42618325D01*
X40992795Y-42313912D01*
X40899814Y-42139956D01*
X40635413Y-42044192D01*
X39679605Y-43000000D01*
X39320395Y-43000000D01*
X39306253Y-42985858D01*
X39485858Y-42806253D01*
X39500000Y-42820395D01*
X40455808Y-41864587D01*
X40360044Y-41600186D01*
X40121457Y-41484120D01*
X41180577Y-40425000D01*
X47305344Y-40425000D01*
X47346525Y-40486632D01*
X47553368Y-40693475D01*
X47735534Y-40815195D01*
X47618645Y-40884822D01*
X47402412Y-41079731D01*
X47228359Y-41313080D01*
X47103175Y-41575901D01*
X47058524Y-41723110D01*
X47179845Y-41953000D01*
X48373000Y-41953000D01*
X48373000Y-41933000D01*
X48627000Y-41933000D01*
X48627000Y-41953000D01*
X49820155Y-41953000D01*
X49941476Y-41723110D01*
X49896825Y-41575901D01*
X49771641Y-41313080D01*
X49597588Y-41079731D01*
X49381355Y-40884822D01*
X49264466Y-40815195D01*
X49446632Y-40693475D01*
X49653475Y-40486632D01*
X49694656Y-40425000D01*
X51305344Y-40425000D01*
X51346525Y-40486632D01*
X51553368Y-40693475D01*
X51735534Y-40815195D01*
X51618645Y-40884822D01*
X51402412Y-41079731D01*
X51228359Y-41313080D01*
X51103175Y-41575901D01*
X51058524Y-41723110D01*
X51179845Y-41953000D01*
X52373000Y-41953000D01*
X52373000Y-41933000D01*
X52627000Y-41933000D01*
X52627000Y-41953000D01*
X52647000Y-41953000D01*
X52647000Y-42207000D01*
X52627000Y-42207000D01*
X52627000Y-43400814D01*
X52856891Y-43521481D01*
X52940010Y-43491996D01*
X52940010Y-43735679D01*
X52936333Y-43773011D01*
X52940010Y-43810344D01*
X52951007Y-43921997D01*
X52955316Y-43936201D01*
X52994463Y-44065257D01*
X53065035Y-44197287D01*
X53107478Y-44249003D01*
X53160009Y-44313012D01*
X53189007Y-44336810D01*
X57863199Y-49011003D01*
X57886997Y-49040001D01*
X57915995Y-49063799D01*
X58002721Y-49134974D01*
X58134751Y-49205546D01*
X58278012Y-49249003D01*
X58389665Y-49260000D01*
X58389675Y-49260000D01*
X58426998Y-49263676D01*
X58464321Y-49260000D01*
X67296289Y-49260000D01*
X67340226Y-49303937D01*
X67509744Y-49417205D01*
X67698102Y-49495226D01*
X67898061Y-49535000D01*
X68101939Y-49535000D01*
X68301898Y-49495226D01*
X68490256Y-49417205D01*
X68659774Y-49303937D01*
X68803937Y-49159774D01*
X68917205Y-48990256D01*
X68995226Y-48801898D01*
X69035000Y-48601939D01*
X69035000Y-48398061D01*
X68995226Y-48198102D01*
X68917205Y-48009744D01*
X68803937Y-47840226D01*
X68723711Y-47760000D01*
X68796289Y-47760000D01*
X68840226Y-47803937D01*
X69009744Y-47917205D01*
X69198102Y-47995226D01*
X69398061Y-48035000D01*
X69465002Y-48035000D01*
X69465002Y-49612691D01*
X69340226Y-49696063D01*
X69196063Y-49840226D01*
X69082795Y-50009744D01*
X69004774Y-50198102D01*
X68965000Y-50398061D01*
X68965000Y-50601939D01*
X69004774Y-50801898D01*
X69082795Y-50990256D01*
X69196063Y-51159774D01*
X69340226Y-51303937D01*
X69509744Y-51417205D01*
X69698102Y-51495226D01*
X69898061Y-51535000D01*
X70101939Y-51535000D01*
X70301898Y-51495226D01*
X70490256Y-51417205D01*
X70659774Y-51303937D01*
X70803937Y-51159774D01*
X70917205Y-50990256D01*
X70995226Y-50801898D01*
X71035000Y-50601939D01*
X71035000Y-50398061D01*
X70995226Y-50198102D01*
X70985001Y-50173417D01*
X70985001Y-45762323D01*
X70988677Y-45725000D01*
X70985001Y-45687677D01*
X70985001Y-45687668D01*
X70974004Y-45576015D01*
X70930547Y-45432754D01*
X70859976Y-45300726D01*
X70859975Y-45300724D01*
X70788800Y-45213998D01*
X70765002Y-45185000D01*
X70736005Y-45161203D01*
X70035000Y-44460199D01*
X70035000Y-44398061D01*
X69995226Y-44198102D01*
X69917205Y-44009744D01*
X69803937Y-43840226D01*
X69659774Y-43696063D01*
X69490256Y-43582795D01*
X69301898Y-43504774D01*
X69101939Y-43465000D01*
X68898061Y-43465000D01*
X68698102Y-43504774D01*
X68509744Y-43582795D01*
X68340226Y-43696063D01*
X68196063Y-43840226D01*
X68082795Y-44009744D01*
X68004774Y-44198102D01*
X67965000Y-44398061D01*
X67965000Y-44601939D01*
X68004774Y-44801898D01*
X68082795Y-44990256D01*
X68196063Y-45159774D01*
X68340226Y-45303937D01*
X68509744Y-45417205D01*
X68698102Y-45495226D01*
X68898061Y-45535000D01*
X68960199Y-45535000D01*
X69391503Y-45966305D01*
X69198102Y-46004774D01*
X69009744Y-46082795D01*
X68840226Y-46196063D01*
X68796289Y-46240000D01*
X68564801Y-46240000D01*
X68535000Y-46210199D01*
X68535000Y-46148062D01*
X68495226Y-45948103D01*
X68417205Y-45759745D01*
X68303937Y-45590227D01*
X68159774Y-45446064D01*
X67990256Y-45332796D01*
X67801898Y-45254775D01*
X67601939Y-45215001D01*
X67398061Y-45215001D01*
X67198102Y-45254775D01*
X67009744Y-45332796D01*
X66840226Y-45446064D01*
X66696063Y-45590227D01*
X66582795Y-45759745D01*
X66504774Y-45948103D01*
X66465000Y-46148062D01*
X66465000Y-46351940D01*
X66504774Y-46551899D01*
X66582795Y-46740257D01*
X66696063Y-46909775D01*
X66840226Y-47053938D01*
X67009744Y-47167206D01*
X67198102Y-47245227D01*
X67398061Y-47285001D01*
X67460198Y-47285001D01*
X67685282Y-47510084D01*
X67509744Y-47582795D01*
X67340226Y-47696063D01*
X67296289Y-47740000D01*
X58741800Y-47740000D01*
X55261799Y-44260000D01*
X57685199Y-44260000D01*
X57965000Y-44539802D01*
X57965000Y-44601939D01*
X58004774Y-44801898D01*
X58082795Y-44990256D01*
X58196063Y-45159774D01*
X58340226Y-45303937D01*
X58509744Y-45417205D01*
X58698102Y-45495226D01*
X58898061Y-45535000D01*
X59101939Y-45535000D01*
X59301898Y-45495226D01*
X59490256Y-45417205D01*
X59659774Y-45303937D01*
X59803937Y-45159774D01*
X59917205Y-44990256D01*
X59995226Y-44801898D01*
X60035000Y-44601939D01*
X60035000Y-44398061D01*
X59995226Y-44198102D01*
X59917205Y-44009744D01*
X59803937Y-43840226D01*
X59659774Y-43696063D01*
X59490256Y-43582795D01*
X59301898Y-43504774D01*
X59101939Y-43465000D01*
X59039802Y-43465000D01*
X58701802Y-43127000D01*
X74373000Y-43127000D01*
X74373000Y-46500000D01*
X74375440Y-46524776D01*
X74382667Y-46548601D01*
X74394403Y-46570557D01*
X74410197Y-46589803D01*
X74429443Y-46605597D01*
X74451399Y-46617333D01*
X74475224Y-46624560D01*
X74500000Y-46627000D01*
X79340000Y-46627000D01*
X79340001Y-66309230D01*
X79224482Y-66274188D01*
X79100000Y-66261928D01*
X77400000Y-66261928D01*
X77275518Y-66274188D01*
X77155820Y-66310498D01*
X77045506Y-66369463D01*
X76948815Y-66448815D01*
X76869463Y-66545506D01*
X76810498Y-66655820D01*
X76788487Y-66728380D01*
X76656632Y-66596525D01*
X76413411Y-66434010D01*
X76143158Y-66322068D01*
X75856260Y-66265000D01*
X75563740Y-66265000D01*
X75491040Y-66279461D01*
X74866534Y-65654956D01*
X74838817Y-65621183D01*
X74704059Y-65510589D01*
X74550313Y-65428411D01*
X74383490Y-65377805D01*
X74253477Y-65365000D01*
X74253469Y-65365000D01*
X74210000Y-65360719D01*
X74166531Y-65365000D01*
X70288454Y-65365000D01*
X70240256Y-65332795D01*
X70051898Y-65254774D01*
X69851939Y-65215000D01*
X69648061Y-65215000D01*
X69448102Y-65254774D01*
X69259744Y-65332795D01*
X69090226Y-65446063D01*
X68946063Y-65590226D01*
X68832795Y-65759744D01*
X68754774Y-65948102D01*
X68715000Y-66148061D01*
X68715000Y-66351939D01*
X68754774Y-66551898D01*
X68832795Y-66740256D01*
X68946063Y-66909774D01*
X69090226Y-67053937D01*
X69259744Y-67167205D01*
X69448102Y-67245226D01*
X69648061Y-67285000D01*
X69851939Y-67285000D01*
X70051898Y-67245226D01*
X70240256Y-67167205D01*
X70288454Y-67135000D01*
X71820078Y-67135000D01*
X71728519Y-67393109D01*
X71849186Y-67623000D01*
X73043000Y-67623000D01*
X73043000Y-67603000D01*
X73297000Y-67603000D01*
X73297000Y-67623000D01*
X73317000Y-67623000D01*
X73317000Y-67877000D01*
X73297000Y-67877000D01*
X73297000Y-69070155D01*
X73526890Y-69191476D01*
X73674099Y-69146825D01*
X73936920Y-69021641D01*
X74170269Y-68847588D01*
X74365178Y-68631355D01*
X74434805Y-68514466D01*
X74556525Y-68696632D01*
X74763368Y-68903475D01*
X75006589Y-69065990D01*
X75276842Y-69177932D01*
X75563740Y-69235000D01*
X75856260Y-69235000D01*
X76143158Y-69177932D01*
X76413411Y-69065990D01*
X76656632Y-68903475D01*
X76788487Y-68771620D01*
X76810498Y-68844180D01*
X76869463Y-68954494D01*
X76948815Y-69051185D01*
X77045506Y-69130537D01*
X77155820Y-69189502D01*
X77275518Y-69225812D01*
X77400000Y-69238072D01*
X79100000Y-69238072D01*
X79224482Y-69225812D01*
X79340001Y-69190770D01*
X79340001Y-70559230D01*
X79224482Y-70524188D01*
X79100000Y-70511928D01*
X77400000Y-70511928D01*
X77275518Y-70524188D01*
X77155820Y-70560498D01*
X77045506Y-70619463D01*
X76948815Y-70698815D01*
X76869463Y-70795506D01*
X76810498Y-70905820D01*
X76788487Y-70978380D01*
X76656632Y-70846525D01*
X76413411Y-70684010D01*
X76143158Y-70572068D01*
X75856260Y-70515000D01*
X75563740Y-70515000D01*
X75276842Y-70572068D01*
X75006589Y-70684010D01*
X74763368Y-70846525D01*
X74556525Y-71053368D01*
X74434805Y-71235534D01*
X74365178Y-71118645D01*
X74170269Y-70902412D01*
X73936920Y-70728359D01*
X73674099Y-70603175D01*
X73526890Y-70558524D01*
X73297000Y-70679845D01*
X73297000Y-71873000D01*
X73317000Y-71873000D01*
X73317000Y-72127000D01*
X73297000Y-72127000D01*
X73297000Y-72147000D01*
X73043000Y-72147000D01*
X73043000Y-72127000D01*
X73023000Y-72127000D01*
X73023000Y-71873000D01*
X73043000Y-71873000D01*
X73043000Y-70679845D01*
X72813110Y-70558524D01*
X72665901Y-70603175D01*
X72460561Y-70700980D01*
X69866472Y-68106891D01*
X71728519Y-68106891D01*
X71825843Y-68381252D01*
X71974822Y-68631355D01*
X72169731Y-68847588D01*
X72403080Y-69021641D01*
X72665901Y-69146825D01*
X72813110Y-69191476D01*
X73043000Y-69070155D01*
X73043000Y-67877000D01*
X71849186Y-67877000D01*
X71728519Y-68106891D01*
X69866472Y-68106891D01*
X68064535Y-66304955D01*
X68036818Y-66271182D01*
X67902060Y-66160588D01*
X67748314Y-66078410D01*
X67581491Y-66027804D01*
X67451478Y-66014999D01*
X67451470Y-66014999D01*
X67408001Y-66010718D01*
X67364532Y-66014999D01*
X65611150Y-66014999D01*
X65567684Y-66010718D01*
X65524218Y-66014999D01*
X65524208Y-66014999D01*
X65394195Y-66027804D01*
X65227372Y-66078410D01*
X65073626Y-66160588D01*
X65073624Y-66160589D01*
X65073625Y-66160589D01*
X64972638Y-66243467D01*
X64972636Y-66243469D01*
X64938868Y-66271182D01*
X64911155Y-66304950D01*
X63217778Y-67998328D01*
X62136400Y-67998328D01*
X62011918Y-68010588D01*
X61892220Y-68046898D01*
X61781906Y-68105863D01*
X61685215Y-68185215D01*
X61605863Y-68281906D01*
X61546898Y-68392220D01*
X61510588Y-68511918D01*
X61500436Y-68615000D01*
X59866579Y-68615000D01*
X53756535Y-62504957D01*
X53745226Y-62448102D01*
X53667205Y-62259744D01*
X53553937Y-62090226D01*
X53409774Y-61946063D01*
X53240256Y-61832795D01*
X53051898Y-61754774D01*
X52851939Y-61715000D01*
X52786578Y-61715000D01*
X54995044Y-59506535D01*
X55051898Y-59495226D01*
X55240256Y-59417205D01*
X55409774Y-59303937D01*
X55553937Y-59159774D01*
X55667205Y-58990256D01*
X55745226Y-58801898D01*
X55785000Y-58601939D01*
X55785000Y-58398061D01*
X55745226Y-58198102D01*
X55667205Y-58009744D01*
X55553937Y-57840226D01*
X55409774Y-57696063D01*
X55240256Y-57582795D01*
X55051898Y-57504774D01*
X54851939Y-57465000D01*
X54762511Y-57465000D01*
X54785000Y-57351939D01*
X54785000Y-57148061D01*
X54745226Y-56948102D01*
X54667205Y-56759744D01*
X54553937Y-56590226D01*
X54409774Y-56446063D01*
X54240256Y-56332795D01*
X54051898Y-56254774D01*
X53995044Y-56243465D01*
X53385000Y-55633422D01*
X53385000Y-53237654D01*
X57248670Y-53237654D01*
X57252346Y-53274976D01*
X57252347Y-61475014D01*
X57248670Y-61512346D01*
X57263344Y-61661331D01*
X57306800Y-61804592D01*
X57377372Y-61936622D01*
X57438077Y-62010590D01*
X57465000Y-62043396D01*
X57465000Y-62101939D01*
X57504774Y-62301898D01*
X57582795Y-62490256D01*
X57696063Y-62659774D01*
X57840226Y-62803937D01*
X58009744Y-62917205D01*
X58198102Y-62995226D01*
X58398061Y-63035000D01*
X58601939Y-63035000D01*
X58801898Y-62995226D01*
X58990256Y-62917205D01*
X59159774Y-62803937D01*
X59303937Y-62659774D01*
X59417205Y-62490256D01*
X59495226Y-62301898D01*
X59535000Y-62101939D01*
X59535000Y-61898061D01*
X59495226Y-61698102D01*
X59417205Y-61509744D01*
X59303937Y-61340226D01*
X59159774Y-61196063D01*
X58990256Y-61082795D01*
X58801898Y-61004774D01*
X58772346Y-60998896D01*
X58772346Y-56272347D01*
X58839286Y-56272347D01*
X59039245Y-56232573D01*
X59227603Y-56154552D01*
X59288835Y-56113638D01*
X61338996Y-58163800D01*
X61339002Y-58163805D01*
X61686205Y-58511008D01*
X61709999Y-58540001D01*
X61738992Y-58563795D01*
X61738996Y-58563799D01*
X61825722Y-58634974D01*
X61957751Y-58705546D01*
X62044665Y-58731910D01*
X62101014Y-58749003D01*
X62212667Y-58760000D01*
X62212675Y-58760000D01*
X62249997Y-58763676D01*
X62249999Y-58763676D01*
X62287322Y-58760000D01*
X66396290Y-58760000D01*
X66440227Y-58803937D01*
X66609745Y-58917205D01*
X66798103Y-58995226D01*
X66998062Y-59035000D01*
X67201940Y-59035000D01*
X67401899Y-58995226D01*
X67590257Y-58917205D01*
X67759775Y-58803937D01*
X67903938Y-58659774D01*
X67990000Y-58530972D01*
X67990001Y-60845987D01*
X67840226Y-60946063D01*
X67696063Y-61090226D01*
X67582795Y-61259744D01*
X67504774Y-61448102D01*
X67465000Y-61648061D01*
X67465000Y-61851939D01*
X67504774Y-62051898D01*
X67582795Y-62240256D01*
X67696063Y-62409774D01*
X67840226Y-62553937D01*
X68009744Y-62667205D01*
X68198102Y-62745226D01*
X68398061Y-62785000D01*
X68601939Y-62785000D01*
X68801898Y-62745226D01*
X68990256Y-62667205D01*
X69159774Y-62553937D01*
X69303937Y-62409774D01*
X69417205Y-62240256D01*
X69495226Y-62051898D01*
X69535000Y-61851939D01*
X69535000Y-61648061D01*
X69510985Y-61527327D01*
X69513676Y-61500001D01*
X69510000Y-61462678D01*
X69510000Y-57703711D01*
X69553937Y-57659774D01*
X69667205Y-57490256D01*
X69745226Y-57301898D01*
X69785000Y-57101939D01*
X69785000Y-56898061D01*
X69752566Y-56735002D01*
X69983203Y-56735002D01*
X76152950Y-62904750D01*
X76082795Y-63009744D01*
X76004774Y-63198102D01*
X75995724Y-63243600D01*
X75851939Y-63215000D01*
X75648061Y-63215000D01*
X75448102Y-63254774D01*
X75259744Y-63332795D01*
X75090226Y-63446063D01*
X75055545Y-63480744D01*
X74035000Y-62460199D01*
X74035000Y-62398061D01*
X73995226Y-62198102D01*
X73917205Y-62009744D01*
X73803937Y-61840226D01*
X73659774Y-61696063D01*
X73490256Y-61582795D01*
X73301898Y-61504774D01*
X73101939Y-61465000D01*
X72898061Y-61465000D01*
X72698102Y-61504774D01*
X72509744Y-61582795D01*
X72340226Y-61696063D01*
X72196063Y-61840226D01*
X72082795Y-62009744D01*
X72004774Y-62198102D01*
X71965000Y-62398061D01*
X71965000Y-62601939D01*
X72004774Y-62801898D01*
X72082795Y-62990256D01*
X72196063Y-63159774D01*
X72340226Y-63303937D01*
X72509744Y-63417205D01*
X72698102Y-63495226D01*
X72898061Y-63535000D01*
X72960199Y-63535000D01*
X74186201Y-64761003D01*
X74209999Y-64790001D01*
X74325724Y-64884974D01*
X74457753Y-64955546D01*
X74601014Y-64999003D01*
X74712667Y-65010000D01*
X74712675Y-65010000D01*
X74750000Y-65013676D01*
X74787325Y-65010000D01*
X75046289Y-65010000D01*
X75090226Y-65053937D01*
X75259744Y-65167205D01*
X75448102Y-65245226D01*
X75648061Y-65285000D01*
X75851939Y-65285000D01*
X76051898Y-65245226D01*
X76240256Y-65167205D01*
X76409774Y-65053937D01*
X76553937Y-64909774D01*
X76667205Y-64740256D01*
X76745226Y-64551898D01*
X76754276Y-64506400D01*
X76898061Y-64535000D01*
X77101939Y-64535000D01*
X77301898Y-64495226D01*
X77490256Y-64417205D01*
X77659774Y-64303937D01*
X77803937Y-64159774D01*
X77917205Y-63990256D01*
X77995226Y-63801898D01*
X78035000Y-63601939D01*
X78035000Y-63398061D01*
X77995226Y-63198102D01*
X77917205Y-63009744D01*
X77803937Y-62840226D01*
X77760000Y-62796289D01*
X77760000Y-62714323D01*
X77763676Y-62676998D01*
X77760000Y-62639673D01*
X77760000Y-62639665D01*
X77749003Y-62528012D01*
X77705546Y-62384751D01*
X77634974Y-62252722D01*
X77540001Y-62136997D01*
X77511003Y-62113199D01*
X71270143Y-55872340D01*
X74469191Y-55872340D01*
X74512660Y-55876621D01*
X74556129Y-55872340D01*
X74556137Y-55872340D01*
X74686150Y-55859535D01*
X74852973Y-55808929D01*
X75006719Y-55726751D01*
X75141477Y-55616157D01*
X75169194Y-55582384D01*
X76651486Y-54100093D01*
X76708340Y-54088784D01*
X76896698Y-54010763D01*
X77066216Y-53897495D01*
X77210379Y-53753332D01*
X77323647Y-53583814D01*
X77401668Y-53395456D01*
X77441442Y-53195497D01*
X77441442Y-52991619D01*
X77401668Y-52791660D01*
X77323647Y-52603302D01*
X77210379Y-52433784D01*
X77066216Y-52289621D01*
X76896698Y-52176353D01*
X76708340Y-52098332D01*
X76508381Y-52058558D01*
X76304503Y-52058558D01*
X76104544Y-52098332D01*
X75916186Y-52176353D01*
X75746668Y-52289621D01*
X75602505Y-52433784D01*
X75489237Y-52603302D01*
X75411216Y-52791660D01*
X75399907Y-52848514D01*
X74146082Y-54102340D01*
X69034920Y-54102340D01*
X69035000Y-54101939D01*
X69035000Y-53898061D01*
X68995226Y-53698102D01*
X68917205Y-53509744D01*
X68803937Y-53340226D01*
X68659774Y-53196063D01*
X68490256Y-53082795D01*
X68301898Y-53004774D01*
X68101939Y-52965000D01*
X67898061Y-52965000D01*
X67698102Y-53004774D01*
X67509744Y-53082795D01*
X67340226Y-53196063D01*
X67296289Y-53240000D01*
X66314802Y-53240000D01*
X65035000Y-51960199D01*
X65035000Y-51898061D01*
X64995226Y-51698102D01*
X64917205Y-51509744D01*
X64803937Y-51340226D01*
X64659774Y-51196063D01*
X64490256Y-51082795D01*
X64301898Y-51004774D01*
X64101939Y-50965000D01*
X63898061Y-50965000D01*
X63698102Y-51004774D01*
X63509744Y-51082795D01*
X63340226Y-51196063D01*
X63196063Y-51340226D01*
X63082795Y-51509744D01*
X63004774Y-51698102D01*
X63001413Y-51715000D01*
X62898061Y-51715000D01*
X62698102Y-51754774D01*
X62509744Y-51832795D01*
X62340226Y-51946063D01*
X62196063Y-52090226D01*
X62082795Y-52259744D01*
X62031919Y-52382570D01*
X61995226Y-52198102D01*
X61917205Y-52009744D01*
X61803937Y-51840226D01*
X61659774Y-51696063D01*
X61490256Y-51582795D01*
X61301898Y-51504774D01*
X61101939Y-51465000D01*
X60898061Y-51465000D01*
X60698102Y-51504774D01*
X60509744Y-51582795D01*
X60340226Y-51696063D01*
X60196063Y-51840226D01*
X60082795Y-52009744D01*
X60031919Y-52132570D01*
X59995226Y-51948102D01*
X59917205Y-51759744D01*
X59803937Y-51590226D01*
X59659774Y-51446063D01*
X59490256Y-51332795D01*
X59301898Y-51254774D01*
X59101939Y-51215000D01*
X58898061Y-51215000D01*
X58698102Y-51254774D01*
X58509744Y-51332795D01*
X58340226Y-51446063D01*
X58196063Y-51590226D01*
X58082795Y-51759744D01*
X58004774Y-51948102D01*
X57965000Y-52148061D01*
X57965000Y-52210199D01*
X57501348Y-52673850D01*
X57472345Y-52697653D01*
X57417217Y-52764828D01*
X57377372Y-52813378D01*
X57318095Y-52924276D01*
X57306800Y-52945408D01*
X57263343Y-53088669D01*
X57252346Y-53200322D01*
X57252346Y-53200332D01*
X57248670Y-53237654D01*
X53385000Y-53237654D01*
X53385000Y-52538454D01*
X53417205Y-52490256D01*
X53495226Y-52301898D01*
X53535000Y-52101939D01*
X53535000Y-51898061D01*
X53495226Y-51698102D01*
X53417205Y-51509744D01*
X53303937Y-51340226D01*
X53159774Y-51196063D01*
X52990256Y-51082795D01*
X52801898Y-51004774D01*
X52601939Y-50965000D01*
X52398061Y-50965000D01*
X52198102Y-51004774D01*
X52009744Y-51082795D01*
X51871734Y-51175010D01*
X51872195Y-51173490D01*
X51885000Y-51043477D01*
X51885000Y-51043469D01*
X51889281Y-51000000D01*
X51885000Y-50956531D01*
X51885000Y-49288444D01*
X51917205Y-49240246D01*
X51995226Y-49051888D01*
X52035000Y-48851929D01*
X52035000Y-48648051D01*
X51995226Y-48448092D01*
X51917205Y-48259734D01*
X51803937Y-48090216D01*
X51659774Y-47946053D01*
X51490256Y-47832785D01*
X51301898Y-47754764D01*
X51101939Y-47714990D01*
X50898061Y-47714990D01*
X50698102Y-47754764D01*
X50509744Y-47832785D01*
X50340226Y-47946053D01*
X50196063Y-48090216D01*
X50082795Y-48259734D01*
X50004774Y-48448092D01*
X49965000Y-48648051D01*
X49965000Y-48851929D01*
X50004774Y-49051888D01*
X50082795Y-49240246D01*
X50115000Y-49288445D01*
X50115001Y-50539196D01*
X50009744Y-50582795D01*
X49840226Y-50696063D01*
X49696063Y-50840226D01*
X49582795Y-51009744D01*
X49504774Y-51198102D01*
X49465000Y-51398061D01*
X49465000Y-51601939D01*
X49504774Y-51801898D01*
X49582795Y-51990256D01*
X49696063Y-52159774D01*
X49840226Y-52303937D01*
X50009744Y-52417205D01*
X50198102Y-52495226D01*
X50398061Y-52535000D01*
X50601939Y-52535000D01*
X50801898Y-52495226D01*
X50990256Y-52417205D01*
X51159774Y-52303937D01*
X51303937Y-52159774D01*
X51417205Y-51990256D01*
X51473875Y-51853444D01*
X51465000Y-51898061D01*
X51465000Y-52101939D01*
X51504774Y-52301898D01*
X51582795Y-52490256D01*
X51615000Y-52538455D01*
X51615001Y-55956521D01*
X51610719Y-56000000D01*
X51627805Y-56173490D01*
X51678412Y-56340313D01*
X51760590Y-56494059D01*
X51843468Y-56595046D01*
X51843471Y-56595049D01*
X51871184Y-56628817D01*
X51904951Y-56656529D01*
X52743465Y-57495044D01*
X52754774Y-57551898D01*
X52832795Y-57740256D01*
X52946063Y-57909774D01*
X53090226Y-58053937D01*
X53259744Y-58167205D01*
X53448102Y-58245226D01*
X53648061Y-58285000D01*
X53713421Y-58285000D01*
X51408422Y-60590000D01*
X49863448Y-60590000D01*
X49815250Y-60557795D01*
X49626892Y-60479774D01*
X49426933Y-60440000D01*
X49223055Y-60440000D01*
X49023096Y-60479774D01*
X48834738Y-60557795D01*
X48665220Y-60671063D01*
X48521057Y-60815226D01*
X48407789Y-60984744D01*
X48329768Y-61173102D01*
X48289994Y-61373061D01*
X48289994Y-61576939D01*
X48329768Y-61776898D01*
X48407789Y-61965256D01*
X48521057Y-62134774D01*
X48665220Y-62278937D01*
X48834738Y-62392205D01*
X49023096Y-62470226D01*
X49223055Y-62510000D01*
X49426933Y-62510000D01*
X49626892Y-62470226D01*
X49815250Y-62392205D01*
X49863448Y-62360000D01*
X51731531Y-62360000D01*
X51775000Y-62364281D01*
X51790110Y-62362793D01*
X51754774Y-62448102D01*
X51715000Y-62648061D01*
X51715000Y-62851939D01*
X51754774Y-63051898D01*
X51832795Y-63240256D01*
X51946063Y-63409774D01*
X52090226Y-63553937D01*
X52259744Y-63667205D01*
X52448102Y-63745226D01*
X52504957Y-63756535D01*
X58843470Y-70095049D01*
X58871183Y-70128817D01*
X58904951Y-70156530D01*
X58904953Y-70156532D01*
X59005941Y-70239411D01*
X59159686Y-70321589D01*
X59326510Y-70372195D01*
X59456523Y-70385000D01*
X59456531Y-70385000D01*
X59500000Y-70389281D01*
X59543469Y-70385000D01*
X61500436Y-70385000D01*
X61510588Y-70488082D01*
X61546898Y-70607780D01*
X61605863Y-70718094D01*
X61685215Y-70814785D01*
X61781906Y-70894137D01*
X61892220Y-70953102D01*
X61950023Y-70970636D01*
X61835961Y-71084698D01*
X61671958Y-71330147D01*
X61558990Y-71602875D01*
X61501400Y-71892401D01*
X61501400Y-72187599D01*
X61558990Y-72477125D01*
X61671958Y-72749853D01*
X61835961Y-72995302D01*
X62044698Y-73204039D01*
X62203281Y-73310000D01*
X62044698Y-73415961D01*
X61835961Y-73624698D01*
X61671958Y-73870147D01*
X61652586Y-73916915D01*
X60760000Y-73024329D01*
X60760000Y-72203711D01*
X60803937Y-72159774D01*
X60917205Y-71990256D01*
X60995226Y-71801898D01*
X61035000Y-71601939D01*
X61035000Y-71398061D01*
X60995226Y-71198102D01*
X60917205Y-71009744D01*
X60803937Y-70840226D01*
X60659774Y-70696063D01*
X60490256Y-70582795D01*
X60301898Y-70504774D01*
X60101939Y-70465000D01*
X59898061Y-70465000D01*
X59698102Y-70504774D01*
X59509744Y-70582795D01*
X59340226Y-70696063D01*
X59196063Y-70840226D01*
X59082795Y-71009744D01*
X59004774Y-71198102D01*
X58965000Y-71398061D01*
X58965000Y-71601939D01*
X59004774Y-71801898D01*
X59082795Y-71990256D01*
X59196063Y-72159774D01*
X59240000Y-72203711D01*
X59240001Y-73301798D01*
X59236324Y-73339130D01*
X59250998Y-73488115D01*
X59294454Y-73631376D01*
X59365026Y-73763406D01*
X59420498Y-73830998D01*
X59460000Y-73879131D01*
X59488998Y-73902929D01*
X61801837Y-76215769D01*
X61671958Y-76410147D01*
X61558990Y-76682875D01*
X61501400Y-76972401D01*
X61501400Y-77267599D01*
X61558990Y-77557125D01*
X61671958Y-77829853D01*
X61835961Y-78075302D01*
X62044698Y-78284039D01*
X62203281Y-78390000D01*
X62044698Y-78495961D01*
X61835961Y-78704698D01*
X61671958Y-78950147D01*
X61558990Y-79222875D01*
X61501400Y-79512401D01*
X61501400Y-79807599D01*
X61558990Y-80097125D01*
X61671958Y-80369853D01*
X61835961Y-80615302D01*
X62044698Y-80824039D01*
X62290147Y-80988042D01*
X62562875Y-81101010D01*
X62852401Y-81158600D01*
X63147599Y-81158600D01*
X63437125Y-81101010D01*
X63709853Y-80988042D01*
X63955302Y-80824039D01*
X64164039Y-80615302D01*
X64271692Y-80454187D01*
X64433146Y-80670293D01*
X64651512Y-80866817D01*
X64904022Y-81016964D01*
X65180973Y-81114963D01*
X65413000Y-80994464D01*
X65413000Y-79787000D01*
X65667000Y-79787000D01*
X65667000Y-80994464D01*
X65899027Y-81114963D01*
X66175978Y-81016964D01*
X66428488Y-80866817D01*
X66646854Y-80670293D01*
X66822684Y-80434944D01*
X66949222Y-80169814D01*
X66994958Y-80019026D01*
X66873817Y-79787000D01*
X65667000Y-79787000D01*
X65413000Y-79787000D01*
X65393000Y-79787000D01*
X65393000Y-79533000D01*
X65413000Y-79533000D01*
X65413000Y-79513000D01*
X65667000Y-79513000D01*
X65667000Y-79533000D01*
X66873817Y-79533000D01*
X66994958Y-79300974D01*
X66949222Y-79150186D01*
X66822684Y-78885056D01*
X66646854Y-78649707D01*
X66428488Y-78453183D01*
X66329897Y-78394559D01*
X66495302Y-78284039D01*
X66704039Y-78075302D01*
X66868042Y-77829853D01*
X66981010Y-77557125D01*
X67038600Y-77267599D01*
X67038600Y-76972401D01*
X66981010Y-76682875D01*
X66949537Y-76606891D01*
X71728519Y-76606891D01*
X71825843Y-76881252D01*
X71974822Y-77131355D01*
X72169731Y-77347588D01*
X72403080Y-77521641D01*
X72665901Y-77646825D01*
X72813110Y-77691476D01*
X73043000Y-77570155D01*
X73043000Y-76377000D01*
X71849186Y-76377000D01*
X71728519Y-76606891D01*
X66949537Y-76606891D01*
X66868042Y-76410147D01*
X66704039Y-76164698D01*
X66495302Y-75955961D01*
X66336719Y-75850000D01*
X66495302Y-75744039D01*
X66704039Y-75535302D01*
X66868042Y-75289853D01*
X66981010Y-75017125D01*
X67038600Y-74727599D01*
X67038600Y-74432401D01*
X66981010Y-74142875D01*
X66868042Y-73870147D01*
X66704039Y-73624698D01*
X66495302Y-73415961D01*
X66336719Y-73310000D01*
X66495302Y-73204039D01*
X66704039Y-72995302D01*
X66868042Y-72749853D01*
X66981010Y-72477125D01*
X67038600Y-72187599D01*
X67038600Y-71892401D01*
X66981010Y-71602875D01*
X66868042Y-71330147D01*
X66704039Y-71084698D01*
X66495302Y-70875961D01*
X66336719Y-70770000D01*
X66495302Y-70664039D01*
X66704039Y-70455302D01*
X66868042Y-70209853D01*
X66981010Y-69937125D01*
X67038600Y-69647599D01*
X67038600Y-69352401D01*
X66981010Y-69062875D01*
X66868042Y-68790147D01*
X66859474Y-68777325D01*
X66898061Y-68785000D01*
X67101939Y-68785000D01*
X67301898Y-68745226D01*
X67490256Y-68667205D01*
X67659774Y-68553937D01*
X67735067Y-68478644D01*
X70984999Y-71728576D01*
X70985000Y-72580523D01*
X70980718Y-72624001D01*
X70997804Y-72797491D01*
X71048411Y-72964314D01*
X71130589Y-73118060D01*
X71213467Y-73219047D01*
X71213470Y-73219050D01*
X71241183Y-73252818D01*
X71274950Y-73280530D01*
X72805309Y-74810890D01*
X72665901Y-74853175D01*
X72403080Y-74978359D01*
X72169731Y-75152412D01*
X71974822Y-75368645D01*
X71825843Y-75618748D01*
X71728519Y-75893109D01*
X71849186Y-76123000D01*
X73043000Y-76123000D01*
X73043000Y-76103000D01*
X73297000Y-76103000D01*
X73297000Y-76123000D01*
X73317000Y-76123000D01*
X73317000Y-76377000D01*
X73297000Y-76377000D01*
X73297000Y-77570155D01*
X73526890Y-77691476D01*
X73674099Y-77646825D01*
X73936920Y-77521641D01*
X74170269Y-77347588D01*
X74365178Y-77131355D01*
X74434805Y-77014466D01*
X74556525Y-77196632D01*
X74763368Y-77403475D01*
X75006589Y-77565990D01*
X75276842Y-77677932D01*
X75563740Y-77735000D01*
X75856260Y-77735000D01*
X76143158Y-77677932D01*
X76413411Y-77565990D01*
X76656632Y-77403475D01*
X76788487Y-77271620D01*
X76810498Y-77344180D01*
X76869463Y-77454494D01*
X76948815Y-77551185D01*
X77045506Y-77630537D01*
X77155820Y-77689502D01*
X77275518Y-77725812D01*
X77400000Y-77738072D01*
X79100000Y-77738072D01*
X79224482Y-77725812D01*
X79340001Y-77690770D01*
X79340001Y-84340000D01*
X30660000Y-84340000D01*
X30660000Y-81279872D01*
X31265000Y-81279872D01*
X31265000Y-81720128D01*
X31350890Y-82151925D01*
X31519369Y-82558669D01*
X31763962Y-82924729D01*
X32075271Y-83236038D01*
X32441331Y-83480631D01*
X32848075Y-83649110D01*
X33279872Y-83735000D01*
X33720128Y-83735000D01*
X34151925Y-83649110D01*
X34558669Y-83480631D01*
X34924729Y-83236038D01*
X35236038Y-82924729D01*
X35480631Y-82558669D01*
X35649110Y-82151925D01*
X35735000Y-81720128D01*
X35735000Y-81279872D01*
X74265000Y-81279872D01*
X74265000Y-81720128D01*
X74350890Y-82151925D01*
X74519369Y-82558669D01*
X74763962Y-82924729D01*
X75075271Y-83236038D01*
X75441331Y-83480631D01*
X75848075Y-83649110D01*
X76279872Y-83735000D01*
X76720128Y-83735000D01*
X77151925Y-83649110D01*
X77558669Y-83480631D01*
X77924729Y-83236038D01*
X78236038Y-82924729D01*
X78480631Y-82558669D01*
X78649110Y-82151925D01*
X78735000Y-81720128D01*
X78735000Y-81279872D01*
X78649110Y-80848075D01*
X78480631Y-80441331D01*
X78236038Y-80075271D01*
X77924729Y-79763962D01*
X77558669Y-79519369D01*
X77151925Y-79350890D01*
X76720128Y-79265000D01*
X76279872Y-79265000D01*
X75848075Y-79350890D01*
X75441331Y-79519369D01*
X75075271Y-79763962D01*
X74763962Y-80075271D01*
X74519369Y-80441331D01*
X74350890Y-80848075D01*
X74265000Y-81279872D01*
X35735000Y-81279872D01*
X35649110Y-80848075D01*
X35480631Y-80441331D01*
X35236038Y-80075271D01*
X34924729Y-79763962D01*
X34558669Y-79519369D01*
X34151925Y-79350890D01*
X33720128Y-79265000D01*
X33279872Y-79265000D01*
X32848075Y-79350890D01*
X32441331Y-79519369D01*
X32075271Y-79763962D01*
X31763962Y-80075271D01*
X31519369Y-80441331D01*
X31350890Y-80848075D01*
X31265000Y-81279872D01*
X30660000Y-81279872D01*
X30660000Y-78148061D01*
X38215000Y-78148061D01*
X38215000Y-78351939D01*
X38254774Y-78551898D01*
X38332795Y-78740256D01*
X38446063Y-78909774D01*
X38590226Y-79053937D01*
X38759744Y-79167205D01*
X38948102Y-79245226D01*
X39148061Y-79285000D01*
X39351939Y-79285000D01*
X39551898Y-79245226D01*
X39740256Y-79167205D01*
X39909774Y-79053937D01*
X39953711Y-79010000D01*
X42462678Y-79010000D01*
X42500000Y-79013676D01*
X42537322Y-79010000D01*
X42537333Y-79010000D01*
X42648986Y-78999003D01*
X42792247Y-78955546D01*
X42924276Y-78884974D01*
X43040001Y-78790001D01*
X43063804Y-78760997D01*
X44539802Y-77285000D01*
X44601939Y-77285000D01*
X44801898Y-77245226D01*
X44990256Y-77167205D01*
X45159774Y-77053937D01*
X45303937Y-76909774D01*
X45417205Y-76740256D01*
X45495226Y-76551898D01*
X45535000Y-76351939D01*
X45535000Y-76148061D01*
X45495226Y-75948102D01*
X45417205Y-75759744D01*
X45303937Y-75590226D01*
X45159774Y-75446063D01*
X44990256Y-75332795D01*
X44801898Y-75254774D01*
X44601939Y-75215000D01*
X44398061Y-75215000D01*
X44198102Y-75254774D01*
X44009744Y-75332795D01*
X43840226Y-75446063D01*
X43696063Y-75590226D01*
X43582795Y-75759744D01*
X43504774Y-75948102D01*
X43465000Y-76148061D01*
X43465000Y-76210198D01*
X42185199Y-77490000D01*
X39953711Y-77490000D01*
X39909774Y-77446063D01*
X39740256Y-77332795D01*
X39551898Y-77254774D01*
X39351939Y-77215000D01*
X39148061Y-77215000D01*
X38948102Y-77254774D01*
X38759744Y-77332795D01*
X38590226Y-77446063D01*
X38446063Y-77590226D01*
X38332795Y-77759744D01*
X38254774Y-77948102D01*
X38215000Y-78148061D01*
X30660000Y-78148061D01*
X30660000Y-74950000D01*
X34061928Y-74950000D01*
X34061928Y-76550000D01*
X34074188Y-76674482D01*
X34110498Y-76794180D01*
X34169463Y-76904494D01*
X34248815Y-77001185D01*
X34345506Y-77080537D01*
X34455820Y-77139502D01*
X34575518Y-77175812D01*
X34700000Y-77188072D01*
X36300000Y-77188072D01*
X36424482Y-77175812D01*
X36544180Y-77139502D01*
X36654494Y-77080537D01*
X36751185Y-77001185D01*
X36830537Y-76904494D01*
X36889502Y-76794180D01*
X36905117Y-76742702D01*
X37186903Y-76742702D01*
X37258486Y-76986671D01*
X37513996Y-77107571D01*
X37788184Y-77176300D01*
X38070512Y-77190217D01*
X38350130Y-77148787D01*
X38616292Y-77053603D01*
X38741514Y-76986671D01*
X38813097Y-76742702D01*
X38000000Y-75929605D01*
X37186903Y-76742702D01*
X36905117Y-76742702D01*
X36925812Y-76674482D01*
X36938072Y-76550000D01*
X36938072Y-76542785D01*
X37007298Y-76563097D01*
X37820395Y-75750000D01*
X38179605Y-75750000D01*
X38992702Y-76563097D01*
X39236671Y-76491514D01*
X39357571Y-76236004D01*
X39426300Y-75961816D01*
X39440217Y-75679488D01*
X39398787Y-75399870D01*
X39303603Y-75133708D01*
X39236671Y-75008486D01*
X38992702Y-74936903D01*
X38179605Y-75750000D01*
X37820395Y-75750000D01*
X37007298Y-74936903D01*
X36938072Y-74957215D01*
X36938072Y-74950000D01*
X36925812Y-74825518D01*
X36905118Y-74757298D01*
X37186903Y-74757298D01*
X38000000Y-75570395D01*
X38813097Y-74757298D01*
X38741514Y-74513329D01*
X38486004Y-74392429D01*
X38211816Y-74323700D01*
X37929488Y-74309783D01*
X37649870Y-74351213D01*
X37383708Y-74446397D01*
X37258486Y-74513329D01*
X37186903Y-74757298D01*
X36905118Y-74757298D01*
X36889502Y-74705820D01*
X36830537Y-74595506D01*
X36751185Y-74498815D01*
X36654494Y-74419463D01*
X36544180Y-74360498D01*
X36424482Y-74324188D01*
X36300000Y-74311928D01*
X34700000Y-74311928D01*
X34575518Y-74324188D01*
X34455820Y-74360498D01*
X34345506Y-74419463D01*
X34248815Y-74498815D01*
X34169463Y-74595506D01*
X34110498Y-74705820D01*
X34074188Y-74825518D01*
X34061928Y-74950000D01*
X30660000Y-74950000D01*
X30660000Y-68450000D01*
X33811928Y-68450000D01*
X33811928Y-71050000D01*
X33824188Y-71174482D01*
X33860498Y-71294180D01*
X33919463Y-71404494D01*
X33998815Y-71501185D01*
X34095506Y-71580537D01*
X34205820Y-71639502D01*
X34325518Y-71675812D01*
X34450000Y-71688072D01*
X37050000Y-71688072D01*
X37174482Y-71675812D01*
X37294180Y-71639502D01*
X37404494Y-71580537D01*
X37501185Y-71501185D01*
X37580537Y-71404494D01*
X37639502Y-71294180D01*
X37675812Y-71174482D01*
X37688072Y-71050000D01*
X37688072Y-68450000D01*
X37675812Y-68325518D01*
X37639502Y-68205820D01*
X37580537Y-68095506D01*
X37501185Y-67998815D01*
X37404494Y-67919463D01*
X37294180Y-67860498D01*
X37174482Y-67824188D01*
X37050000Y-67811928D01*
X34450000Y-67811928D01*
X34325518Y-67824188D01*
X34205820Y-67860498D01*
X34095506Y-67919463D01*
X33998815Y-67998815D01*
X33919463Y-68095506D01*
X33860498Y-68205820D01*
X33824188Y-68325518D01*
X33811928Y-68450000D01*
X30660000Y-68450000D01*
X30660000Y-66019224D01*
X34580381Y-66019224D01*
X34712317Y-66314312D01*
X35053045Y-66485159D01*
X35420557Y-66586250D01*
X35800729Y-66613701D01*
X36178951Y-66566457D01*
X36540690Y-66446333D01*
X36787683Y-66314312D01*
X36919619Y-66019224D01*
X35750000Y-64849605D01*
X34580381Y-66019224D01*
X30660000Y-66019224D01*
X30660000Y-64720729D01*
X33806299Y-64720729D01*
X33853543Y-65098951D01*
X33973667Y-65460690D01*
X34105688Y-65707683D01*
X34400776Y-65839619D01*
X35570395Y-64670000D01*
X35929605Y-64670000D01*
X37099224Y-65839619D01*
X37394312Y-65707683D01*
X37565159Y-65366955D01*
X37666250Y-64999443D01*
X37693701Y-64619271D01*
X37646457Y-64241049D01*
X37526333Y-63879310D01*
X37394312Y-63632317D01*
X37099224Y-63500381D01*
X35929605Y-64670000D01*
X35570395Y-64670000D01*
X34400776Y-63500381D01*
X34105688Y-63632317D01*
X33934841Y-63973045D01*
X33833750Y-64340557D01*
X33806299Y-64720729D01*
X30660000Y-64720729D01*
X30660000Y-63320776D01*
X34580381Y-63320776D01*
X35750000Y-64490395D01*
X36919619Y-63320776D01*
X36787683Y-63025688D01*
X36446955Y-62854841D01*
X36079443Y-62753750D01*
X35699271Y-62726299D01*
X35321049Y-62773543D01*
X34959310Y-62893667D01*
X34712317Y-63025688D01*
X34580381Y-63320776D01*
X30660000Y-63320776D01*
X30660000Y-60247109D01*
X30868645Y-60435178D01*
X31118748Y-60584157D01*
X31393109Y-60681481D01*
X31623000Y-60560814D01*
X31623000Y-59367000D01*
X31877000Y-59367000D01*
X31877000Y-60560814D01*
X32106891Y-60681481D01*
X32381252Y-60584157D01*
X32631355Y-60435178D01*
X32847588Y-60240269D01*
X33021641Y-60006920D01*
X33146825Y-59744099D01*
X33191476Y-59596890D01*
X33070155Y-59367000D01*
X31877000Y-59367000D01*
X31623000Y-59367000D01*
X31603000Y-59367000D01*
X31603000Y-59113000D01*
X31623000Y-59113000D01*
X31623000Y-59093000D01*
X31877000Y-59093000D01*
X31877000Y-59113000D01*
X33070155Y-59113000D01*
X33191476Y-58883110D01*
X33146825Y-58735901D01*
X33021641Y-58473080D01*
X32847588Y-58239731D01*
X32631355Y-58044822D01*
X32514466Y-57975195D01*
X32696632Y-57853475D01*
X32903475Y-57646632D01*
X33065990Y-57403411D01*
X33177932Y-57133158D01*
X33235000Y-56846260D01*
X33235000Y-56553740D01*
X33177932Y-56266842D01*
X33065990Y-55996589D01*
X32903475Y-55753368D01*
X32696632Y-55546525D01*
X32522240Y-55430000D01*
X32696632Y-55313475D01*
X32903475Y-55106632D01*
X33065990Y-54863411D01*
X33177932Y-54593158D01*
X33235000Y-54306260D01*
X33235000Y-54013740D01*
X33177932Y-53726842D01*
X33065990Y-53456589D01*
X32903475Y-53213368D01*
X32696632Y-53006525D01*
X32522240Y-52890000D01*
X32696632Y-52773475D01*
X32903475Y-52566632D01*
X33065990Y-52323411D01*
X33177932Y-52053158D01*
X33235000Y-51766260D01*
X33235000Y-51473740D01*
X33177932Y-51186842D01*
X33065990Y-50916589D01*
X32903475Y-50673368D01*
X32696632Y-50466525D01*
X32522240Y-50350000D01*
X32696632Y-50233475D01*
X32903475Y-50026632D01*
X33065990Y-49783411D01*
X33177932Y-49513158D01*
X33235000Y-49226260D01*
X33235000Y-48933740D01*
X33177932Y-48646842D01*
X33065990Y-48376589D01*
X32903475Y-48133368D01*
X32696632Y-47926525D01*
X32522240Y-47810000D01*
X32696632Y-47693475D01*
X32903475Y-47486632D01*
X33065990Y-47243411D01*
X33177932Y-46973158D01*
X33235000Y-46686260D01*
X33235000Y-46393740D01*
X33177932Y-46106842D01*
X33065990Y-45836589D01*
X32903475Y-45593368D01*
X32771620Y-45461513D01*
X32844180Y-45439502D01*
X32954494Y-45380537D01*
X33051185Y-45301185D01*
X33130537Y-45204494D01*
X33189502Y-45094180D01*
X33225812Y-44974482D01*
X33238072Y-44850000D01*
X33238072Y-43150000D01*
X33225812Y-43025518D01*
X33189502Y-42905820D01*
X33130537Y-42795506D01*
X33051185Y-42698815D01*
X32954494Y-42619463D01*
X32844180Y-42560498D01*
X32724482Y-42524188D01*
X32600000Y-42511928D01*
X30900000Y-42511928D01*
X30775518Y-42524188D01*
X30660000Y-42559230D01*
X30660000Y-38279872D01*
X31265000Y-38279872D01*
X31265000Y-38720128D01*
X31350890Y-39151925D01*
X31519369Y-39558669D01*
X31763962Y-39924729D01*
X32075271Y-40236038D01*
X32441331Y-40480631D01*
X32848075Y-40649110D01*
X33279872Y-40735000D01*
X33720128Y-40735000D01*
X34151925Y-40649110D01*
X34558669Y-40480631D01*
X34924729Y-40236038D01*
X35236038Y-39924729D01*
X35480631Y-39558669D01*
X35649110Y-39151925D01*
X35735000Y-38720128D01*
X35735000Y-38279872D01*
X35649110Y-37848075D01*
X35561023Y-37635413D01*
X38544192Y-37635413D01*
X38639956Y-37899814D01*
X38929571Y-38040704D01*
X39241108Y-38122384D01*
X39562595Y-38141718D01*
X39881675Y-38097961D01*
X40186088Y-37992795D01*
X40360044Y-37899814D01*
X40455808Y-37635413D01*
X39500000Y-36679605D01*
X38544192Y-37635413D01*
X35561023Y-37635413D01*
X35480631Y-37441331D01*
X35236038Y-37075271D01*
X34924729Y-36763962D01*
X34558669Y-36519369D01*
X34151925Y-36350890D01*
X33720128Y-36265000D01*
X33279872Y-36265000D01*
X32848075Y-36350890D01*
X32441331Y-36519369D01*
X32075271Y-36763962D01*
X31763962Y-37075271D01*
X31519369Y-37441331D01*
X31350890Y-37848075D01*
X31265000Y-38279872D01*
X30660000Y-38279872D01*
X30660000Y-35660000D01*
X38090435Y-35660000D01*
X37959296Y-35929571D01*
M02*
