M48
; DRILL file {KiCad (5.1.5)-3} date 2021-01-02 11:20:24
; FORMAT={-:-/ absolute / inch / decimal}
; #@! TF.CreationDate,2021-01-02T11:20:24+01:00
; #@! TF.GenerationSoftware,Kicad,Pcbnew,(5.1.5)-3
FMAT,2
INCH
T1C0.0394
T2C0.0433
T3C0.0512
%
G90
G05
T1
X2.7756Y-2.9232
X2.7756Y-3.0232
X2.7756Y-3.1232
X2.7756Y-3.2232
X2.8756Y-2.9232
X2.8756Y-3.0232
X2.8756Y-3.1232
X2.8756Y-3.2232
X2.3591Y-2.815
X2.4591Y-2.815
X2.5591Y-2.815
X1.2598Y-1.6929
X1.2598Y-1.7929
X1.2598Y-1.8929
X1.2598Y-1.9929
X1.2598Y-2.0929
X1.2598Y-2.1929
X1.2598Y-2.2929
T2
X1.4075Y-1.4469
X1.4075Y-1.7028
X1.5846Y-1.4469
X1.5846Y-1.7028
X1.752Y-1.4469
X1.752Y-1.7028
X1.9291Y-1.4469
X1.9291Y-1.7028
T3
X1.4173Y-2.5264
X1.4173Y-2.7264
T0
M30
