G04 #@! TF.GenerationSoftware,KiCad,Pcbnew,(5.1.5)-3*
G04 #@! TF.CreationDate,2021-01-02T11:20:14+01:00*
G04 #@! TF.ProjectId,esp12Board,65737031-3242-46f6-9172-642e6b696361,rev?*
G04 #@! TF.SameCoordinates,Original*
G04 #@! TF.FileFunction,Soldermask,Top*
G04 #@! TF.FilePolarity,Negative*
%FSLAX46Y46*%
G04 Gerber Fmt 4.6, Leading zero omitted, Abs format (unit mm)*
G04 Created by KiCad (PCBNEW (5.1.5)-3) date 2021-01-02 11:20:14*
%MOMM*%
%LPD*%
G04 APERTURE LIST*
%ADD10C,0.100000*%
G04 APERTURE END LIST*
D10*
G36*
X37614499Y-82803445D02*
G01*
X37651995Y-82814820D01*
X37686554Y-82833292D01*
X37716847Y-82858153D01*
X37741708Y-82888446D01*
X37760180Y-82923005D01*
X37771555Y-82960501D01*
X37776000Y-83005638D01*
X37776000Y-83744362D01*
X37771555Y-83789499D01*
X37760180Y-83826995D01*
X37741708Y-83861554D01*
X37716847Y-83891847D01*
X37686554Y-83916708D01*
X37651995Y-83935180D01*
X37614499Y-83946555D01*
X37569362Y-83951000D01*
X36930638Y-83951000D01*
X36885501Y-83946555D01*
X36848005Y-83935180D01*
X36813446Y-83916708D01*
X36783153Y-83891847D01*
X36758292Y-83861554D01*
X36739820Y-83826995D01*
X36728445Y-83789499D01*
X36724000Y-83744362D01*
X36724000Y-83005638D01*
X36728445Y-82960501D01*
X36739820Y-82923005D01*
X36758292Y-82888446D01*
X36783153Y-82858153D01*
X36813446Y-82833292D01*
X36848005Y-82814820D01*
X36885501Y-82803445D01*
X36930638Y-82799000D01*
X37569362Y-82799000D01*
X37614499Y-82803445D01*
G37*
G36*
X46025500Y-83781000D02*
G01*
X44398500Y-83781000D01*
X44398500Y-83029000D01*
X46025500Y-83029000D01*
X46025500Y-83781000D01*
G37*
G36*
X40601500Y-83781000D02*
G01*
X38974500Y-83781000D01*
X38974500Y-83029000D01*
X40601500Y-83029000D01*
X40601500Y-83781000D01*
G37*
G36*
X51438674Y-81503465D02*
G01*
X51476367Y-81514899D01*
X51511103Y-81533466D01*
X51541548Y-81558452D01*
X51566534Y-81588897D01*
X51585101Y-81623633D01*
X51596535Y-81661326D01*
X51601000Y-81706661D01*
X51601000Y-82793339D01*
X51596535Y-82838674D01*
X51585101Y-82876367D01*
X51566534Y-82911103D01*
X51541548Y-82941548D01*
X51511103Y-82966534D01*
X51476367Y-82985101D01*
X51438674Y-82996535D01*
X51393339Y-83001000D01*
X50556661Y-83001000D01*
X50511326Y-82996535D01*
X50473633Y-82985101D01*
X50438897Y-82966534D01*
X50408452Y-82941548D01*
X50383466Y-82911103D01*
X50364899Y-82876367D01*
X50353465Y-82838674D01*
X50349000Y-82793339D01*
X50349000Y-81706661D01*
X50353465Y-81661326D01*
X50364899Y-81623633D01*
X50383466Y-81588897D01*
X50408452Y-81558452D01*
X50438897Y-81533466D01*
X50473633Y-81514899D01*
X50511326Y-81503465D01*
X50556661Y-81499000D01*
X51393339Y-81499000D01*
X51438674Y-81503465D01*
G37*
G36*
X53488674Y-81503465D02*
G01*
X53526367Y-81514899D01*
X53561103Y-81533466D01*
X53591548Y-81558452D01*
X53616534Y-81588897D01*
X53635101Y-81623633D01*
X53646535Y-81661326D01*
X53651000Y-81706661D01*
X53651000Y-82793339D01*
X53646535Y-82838674D01*
X53635101Y-82876367D01*
X53616534Y-82911103D01*
X53591548Y-82941548D01*
X53561103Y-82966534D01*
X53526367Y-82985101D01*
X53488674Y-82996535D01*
X53443339Y-83001000D01*
X52606661Y-83001000D01*
X52561326Y-82996535D01*
X52523633Y-82985101D01*
X52488897Y-82966534D01*
X52458452Y-82941548D01*
X52433466Y-82911103D01*
X52414899Y-82876367D01*
X52403465Y-82838674D01*
X52399000Y-82793339D01*
X52399000Y-81706661D01*
X52403465Y-81661326D01*
X52414899Y-81623633D01*
X52433466Y-81588897D01*
X52458452Y-81558452D01*
X52488897Y-81533466D01*
X52523633Y-81514899D01*
X52561326Y-81503465D01*
X52606661Y-81499000D01*
X53443339Y-81499000D01*
X53488674Y-81503465D01*
G37*
G36*
X48838674Y-81653465D02*
G01*
X48876367Y-81664899D01*
X48911103Y-81683466D01*
X48941548Y-81708452D01*
X48966534Y-81738897D01*
X48985101Y-81773633D01*
X48996535Y-81811326D01*
X49001000Y-81856661D01*
X49001000Y-82693339D01*
X48996535Y-82738674D01*
X48985101Y-82776367D01*
X48966534Y-82811103D01*
X48941548Y-82841548D01*
X48911103Y-82866534D01*
X48876367Y-82885101D01*
X48838674Y-82896535D01*
X48793339Y-82901000D01*
X47706661Y-82901000D01*
X47661326Y-82896535D01*
X47623633Y-82885101D01*
X47588897Y-82866534D01*
X47558452Y-82841548D01*
X47533466Y-82811103D01*
X47514899Y-82776367D01*
X47503465Y-82738674D01*
X47499000Y-82693339D01*
X47499000Y-81856661D01*
X47503465Y-81811326D01*
X47514899Y-81773633D01*
X47533466Y-81738897D01*
X47558452Y-81708452D01*
X47588897Y-81683466D01*
X47623633Y-81664899D01*
X47661326Y-81653465D01*
X47706661Y-81649000D01*
X48793339Y-81649000D01*
X48838674Y-81653465D01*
G37*
G36*
X73153512Y-80973927D02*
G01*
X73302812Y-81003624D01*
X73466784Y-81071544D01*
X73614354Y-81170147D01*
X73739853Y-81295646D01*
X73838456Y-81443216D01*
X73906376Y-81607188D01*
X73941000Y-81781259D01*
X73941000Y-81958741D01*
X73906376Y-82132812D01*
X73838456Y-82296784D01*
X73739853Y-82444354D01*
X73614354Y-82569853D01*
X73466784Y-82668456D01*
X73302812Y-82736376D01*
X73153512Y-82766073D01*
X73128742Y-82771000D01*
X72951258Y-82771000D01*
X72926488Y-82766073D01*
X72777188Y-82736376D01*
X72613216Y-82668456D01*
X72465646Y-82569853D01*
X72340147Y-82444354D01*
X72241544Y-82296784D01*
X72173624Y-82132812D01*
X72139000Y-81958741D01*
X72139000Y-81781259D01*
X72173624Y-81607188D01*
X72241544Y-81443216D01*
X72340147Y-81295646D01*
X72465646Y-81170147D01*
X72613216Y-81071544D01*
X72777188Y-81003624D01*
X72926488Y-80973927D01*
X72951258Y-80969000D01*
X73128742Y-80969000D01*
X73153512Y-80973927D01*
G37*
G36*
X70613512Y-80973927D02*
G01*
X70762812Y-81003624D01*
X70926784Y-81071544D01*
X71074354Y-81170147D01*
X71199853Y-81295646D01*
X71298456Y-81443216D01*
X71366376Y-81607188D01*
X71401000Y-81781259D01*
X71401000Y-81958741D01*
X71366376Y-82132812D01*
X71298456Y-82296784D01*
X71199853Y-82444354D01*
X71074354Y-82569853D01*
X70926784Y-82668456D01*
X70762812Y-82736376D01*
X70613512Y-82766073D01*
X70588742Y-82771000D01*
X70411258Y-82771000D01*
X70386488Y-82766073D01*
X70237188Y-82736376D01*
X70073216Y-82668456D01*
X69925646Y-82569853D01*
X69800147Y-82444354D01*
X69701544Y-82296784D01*
X69633624Y-82132812D01*
X69599000Y-81958741D01*
X69599000Y-81781259D01*
X69633624Y-81607188D01*
X69701544Y-81443216D01*
X69800147Y-81295646D01*
X69925646Y-81170147D01*
X70073216Y-81071544D01*
X70237188Y-81003624D01*
X70386488Y-80973927D01*
X70411258Y-80969000D01*
X70588742Y-80969000D01*
X70613512Y-80973927D01*
G37*
G36*
X56338674Y-81403465D02*
G01*
X56376367Y-81414899D01*
X56411103Y-81433466D01*
X56441548Y-81458452D01*
X56466534Y-81488897D01*
X56485101Y-81523633D01*
X56496535Y-81561326D01*
X56501000Y-81606661D01*
X56501000Y-82443339D01*
X56496535Y-82488674D01*
X56485101Y-82526367D01*
X56466534Y-82561103D01*
X56441548Y-82591548D01*
X56411103Y-82616534D01*
X56376367Y-82635101D01*
X56338674Y-82646535D01*
X56293339Y-82651000D01*
X55206661Y-82651000D01*
X55161326Y-82646535D01*
X55123633Y-82635101D01*
X55088897Y-82616534D01*
X55058452Y-82591548D01*
X55033466Y-82561103D01*
X55014899Y-82526367D01*
X55003465Y-82488674D01*
X54999000Y-82443339D01*
X54999000Y-81606661D01*
X55003465Y-81561326D01*
X55014899Y-81523633D01*
X55033466Y-81488897D01*
X55058452Y-81458452D01*
X55088897Y-81433466D01*
X55123633Y-81414899D01*
X55161326Y-81403465D01*
X55206661Y-81399000D01*
X56293339Y-81399000D01*
X56338674Y-81403465D01*
G37*
G36*
X46025500Y-82511000D02*
G01*
X44398500Y-82511000D01*
X44398500Y-81759000D01*
X46025500Y-81759000D01*
X46025500Y-82511000D01*
G37*
G36*
X40601500Y-82511000D02*
G01*
X38974500Y-82511000D01*
X38974500Y-81759000D01*
X40601500Y-81759000D01*
X40601500Y-82511000D01*
G37*
G36*
X37614499Y-81053445D02*
G01*
X37651995Y-81064820D01*
X37686554Y-81083292D01*
X37716847Y-81108153D01*
X37741708Y-81138446D01*
X37760180Y-81173005D01*
X37771555Y-81210501D01*
X37776000Y-81255638D01*
X37776000Y-81994362D01*
X37771555Y-82039499D01*
X37760180Y-82076995D01*
X37741708Y-82111554D01*
X37716847Y-82141847D01*
X37686554Y-82166708D01*
X37651995Y-82185180D01*
X37614499Y-82196555D01*
X37569362Y-82201000D01*
X36930638Y-82201000D01*
X36885501Y-82196555D01*
X36848005Y-82185180D01*
X36813446Y-82166708D01*
X36783153Y-82141847D01*
X36758292Y-82111554D01*
X36739820Y-82076995D01*
X36728445Y-82039499D01*
X36724000Y-81994362D01*
X36724000Y-81255638D01*
X36728445Y-81210501D01*
X36739820Y-81173005D01*
X36758292Y-81138446D01*
X36783153Y-81108153D01*
X36813446Y-81083292D01*
X36848005Y-81064820D01*
X36885501Y-81053445D01*
X36930638Y-81049000D01*
X37569362Y-81049000D01*
X37614499Y-81053445D01*
G37*
G36*
X46025500Y-81241000D02*
G01*
X44398500Y-81241000D01*
X44398500Y-80489000D01*
X46025500Y-80489000D01*
X46025500Y-81241000D01*
G37*
G36*
X40601500Y-81241000D02*
G01*
X38974500Y-81241000D01*
X38974500Y-80489000D01*
X40601500Y-80489000D01*
X40601500Y-81241000D01*
G37*
G36*
X48838674Y-79603465D02*
G01*
X48876367Y-79614899D01*
X48911103Y-79633466D01*
X48941548Y-79658452D01*
X48966534Y-79688897D01*
X48985101Y-79723633D01*
X48996535Y-79761326D01*
X49001000Y-79806661D01*
X49001000Y-80643339D01*
X48996535Y-80688674D01*
X48985101Y-80726367D01*
X48966534Y-80761103D01*
X48941548Y-80791548D01*
X48911103Y-80816534D01*
X48876367Y-80835101D01*
X48838674Y-80846535D01*
X48793339Y-80851000D01*
X47706661Y-80851000D01*
X47661326Y-80846535D01*
X47623633Y-80835101D01*
X47588897Y-80816534D01*
X47558452Y-80791548D01*
X47533466Y-80761103D01*
X47514899Y-80726367D01*
X47503465Y-80688674D01*
X47499000Y-80643339D01*
X47499000Y-79806661D01*
X47503465Y-79761326D01*
X47514899Y-79723633D01*
X47533466Y-79688897D01*
X47558452Y-79658452D01*
X47588897Y-79633466D01*
X47623633Y-79614899D01*
X47661326Y-79603465D01*
X47706661Y-79599000D01*
X48793339Y-79599000D01*
X48838674Y-79603465D01*
G37*
G36*
X56338674Y-79353465D02*
G01*
X56376367Y-79364899D01*
X56411103Y-79383466D01*
X56441548Y-79408452D01*
X56466534Y-79438897D01*
X56485101Y-79473633D01*
X56496535Y-79511326D01*
X56501000Y-79556661D01*
X56501000Y-80393339D01*
X56496535Y-80438674D01*
X56485102Y-80476364D01*
X56466534Y-80511103D01*
X56441548Y-80541548D01*
X56411103Y-80566534D01*
X56376367Y-80585101D01*
X56338674Y-80596535D01*
X56293339Y-80601000D01*
X55206661Y-80601000D01*
X55161326Y-80596535D01*
X55123633Y-80585101D01*
X55088897Y-80566534D01*
X55058452Y-80541548D01*
X55033466Y-80511103D01*
X55014898Y-80476364D01*
X55003465Y-80438674D01*
X54999000Y-80393339D01*
X54999000Y-79556661D01*
X55003465Y-79511326D01*
X55014899Y-79473633D01*
X55033466Y-79438897D01*
X55058452Y-79408452D01*
X55088897Y-79383466D01*
X55123633Y-79364899D01*
X55161326Y-79353465D01*
X55206661Y-79349000D01*
X56293339Y-79349000D01*
X56338674Y-79353465D01*
G37*
G36*
X51289499Y-79478445D02*
G01*
X51326995Y-79489820D01*
X51361554Y-79508292D01*
X51391847Y-79533153D01*
X51416708Y-79563446D01*
X51435180Y-79598005D01*
X51446555Y-79635501D01*
X51451000Y-79680638D01*
X51451000Y-80319362D01*
X51446555Y-80364499D01*
X51435180Y-80401995D01*
X51416708Y-80436554D01*
X51391847Y-80466847D01*
X51361554Y-80491708D01*
X51326995Y-80510180D01*
X51289499Y-80521555D01*
X51244362Y-80526000D01*
X50505638Y-80526000D01*
X50460501Y-80521555D01*
X50423005Y-80510180D01*
X50388446Y-80491708D01*
X50358153Y-80466847D01*
X50333292Y-80436554D01*
X50314820Y-80401995D01*
X50303445Y-80364499D01*
X50299000Y-80319362D01*
X50299000Y-79680638D01*
X50303445Y-79635501D01*
X50314820Y-79598005D01*
X50333292Y-79563446D01*
X50358153Y-79533153D01*
X50388446Y-79508292D01*
X50423005Y-79489820D01*
X50460501Y-79478445D01*
X50505638Y-79474000D01*
X51244362Y-79474000D01*
X51289499Y-79478445D01*
G37*
G36*
X53039499Y-79478445D02*
G01*
X53076995Y-79489820D01*
X53111554Y-79508292D01*
X53141847Y-79533153D01*
X53166708Y-79563446D01*
X53185180Y-79598005D01*
X53196555Y-79635501D01*
X53201000Y-79680638D01*
X53201000Y-80319362D01*
X53196555Y-80364499D01*
X53185180Y-80401995D01*
X53166708Y-80436554D01*
X53141847Y-80466847D01*
X53111554Y-80491708D01*
X53076995Y-80510180D01*
X53039499Y-80521555D01*
X52994362Y-80526000D01*
X52255638Y-80526000D01*
X52210501Y-80521555D01*
X52173005Y-80510180D01*
X52138446Y-80491708D01*
X52108153Y-80466847D01*
X52083292Y-80436554D01*
X52064820Y-80401995D01*
X52053445Y-80364499D01*
X52049000Y-80319362D01*
X52049000Y-79680638D01*
X52053445Y-79635501D01*
X52064820Y-79598005D01*
X52083292Y-79563446D01*
X52108153Y-79533153D01*
X52138446Y-79508292D01*
X52173005Y-79489820D01*
X52210501Y-79478445D01*
X52255638Y-79474000D01*
X52994362Y-79474000D01*
X53039499Y-79478445D01*
G37*
G36*
X73153512Y-78433927D02*
G01*
X73302812Y-78463624D01*
X73466784Y-78531544D01*
X73614354Y-78630147D01*
X73739853Y-78755646D01*
X73838456Y-78903216D01*
X73906376Y-79067188D01*
X73941000Y-79241259D01*
X73941000Y-79418741D01*
X73906376Y-79592812D01*
X73838456Y-79756784D01*
X73739853Y-79904354D01*
X73614354Y-80029853D01*
X73466784Y-80128456D01*
X73302812Y-80196376D01*
X73153512Y-80226073D01*
X73128742Y-80231000D01*
X72951258Y-80231000D01*
X72926488Y-80226073D01*
X72777188Y-80196376D01*
X72613216Y-80128456D01*
X72465646Y-80029853D01*
X72340147Y-79904354D01*
X72241544Y-79756784D01*
X72173624Y-79592812D01*
X72139000Y-79418741D01*
X72139000Y-79241259D01*
X72173624Y-79067188D01*
X72241544Y-78903216D01*
X72340147Y-78755646D01*
X72465646Y-78630147D01*
X72613216Y-78531544D01*
X72777188Y-78463624D01*
X72926488Y-78433927D01*
X72951258Y-78429000D01*
X73128742Y-78429000D01*
X73153512Y-78433927D01*
G37*
G36*
X70613512Y-78433927D02*
G01*
X70762812Y-78463624D01*
X70926784Y-78531544D01*
X71074354Y-78630147D01*
X71199853Y-78755646D01*
X71298456Y-78903216D01*
X71366376Y-79067188D01*
X71401000Y-79241259D01*
X71401000Y-79418741D01*
X71366376Y-79592812D01*
X71298456Y-79756784D01*
X71199853Y-79904354D01*
X71074354Y-80029853D01*
X70926784Y-80128456D01*
X70762812Y-80196376D01*
X70613512Y-80226073D01*
X70588742Y-80231000D01*
X70411258Y-80231000D01*
X70386488Y-80226073D01*
X70237188Y-80196376D01*
X70073216Y-80128456D01*
X69925646Y-80029853D01*
X69800147Y-79904354D01*
X69701544Y-79756784D01*
X69633624Y-79592812D01*
X69599000Y-79418741D01*
X69599000Y-79241259D01*
X69633624Y-79067188D01*
X69701544Y-78903216D01*
X69800147Y-78755646D01*
X69925646Y-78630147D01*
X70073216Y-78531544D01*
X70237188Y-78463624D01*
X70386488Y-78433927D01*
X70411258Y-78429000D01*
X70588742Y-78429000D01*
X70613512Y-78433927D01*
G37*
G36*
X40601500Y-79971000D02*
G01*
X38974500Y-79971000D01*
X38974500Y-79219000D01*
X40601500Y-79219000D01*
X40601500Y-79971000D01*
G37*
G36*
X46025500Y-79971000D02*
G01*
X44398500Y-79971000D01*
X44398500Y-79219000D01*
X46025500Y-79219000D01*
X46025500Y-79971000D01*
G37*
G36*
X37275562Y-76728181D02*
G01*
X37310481Y-76738774D01*
X37342663Y-76755976D01*
X37370873Y-76779127D01*
X37394024Y-76807337D01*
X37411226Y-76839519D01*
X37421819Y-76874438D01*
X37426000Y-76916895D01*
X37426000Y-78058105D01*
X37421819Y-78100562D01*
X37411226Y-78135481D01*
X37394024Y-78167663D01*
X37370873Y-78195873D01*
X37342663Y-78219024D01*
X37310481Y-78236226D01*
X37275562Y-78246819D01*
X37233105Y-78251000D01*
X35766895Y-78251000D01*
X35724438Y-78246819D01*
X35689519Y-78236226D01*
X35657337Y-78219024D01*
X35629127Y-78195873D01*
X35605976Y-78167663D01*
X35588774Y-78135481D01*
X35578181Y-78100562D01*
X35574000Y-78058105D01*
X35574000Y-76916895D01*
X35578181Y-76874438D01*
X35588774Y-76839519D01*
X35605976Y-76807337D01*
X35629127Y-76779127D01*
X35657337Y-76755976D01*
X35689519Y-76738774D01*
X35724438Y-76728181D01*
X35766895Y-76724000D01*
X37233105Y-76724000D01*
X37275562Y-76728181D01*
G37*
G36*
X45438674Y-76753465D02*
G01*
X45476367Y-76764899D01*
X45511103Y-76783466D01*
X45541548Y-76808452D01*
X45566534Y-76838897D01*
X45585101Y-76873633D01*
X45596535Y-76911326D01*
X45601000Y-76956661D01*
X45601000Y-78043339D01*
X45596535Y-78088674D01*
X45585101Y-78126367D01*
X45566534Y-78161103D01*
X45541548Y-78191548D01*
X45511103Y-78216534D01*
X45476367Y-78235101D01*
X45438674Y-78246535D01*
X45393339Y-78251000D01*
X44556661Y-78251000D01*
X44511326Y-78246535D01*
X44473633Y-78235101D01*
X44438897Y-78216534D01*
X44408452Y-78191548D01*
X44383466Y-78161103D01*
X44364899Y-78126367D01*
X44353465Y-78088674D01*
X44349000Y-78043339D01*
X44349000Y-76956661D01*
X44353465Y-76911326D01*
X44364899Y-76873633D01*
X44383466Y-76838897D01*
X44408452Y-76808452D01*
X44438897Y-76783466D01*
X44473633Y-76764899D01*
X44511326Y-76753465D01*
X44556661Y-76749000D01*
X45393339Y-76749000D01*
X45438674Y-76753465D01*
G37*
G36*
X47488674Y-76753465D02*
G01*
X47526367Y-76764899D01*
X47561103Y-76783466D01*
X47591548Y-76808452D01*
X47616534Y-76838897D01*
X47635101Y-76873633D01*
X47646535Y-76911326D01*
X47651000Y-76956661D01*
X47651000Y-78043339D01*
X47646535Y-78088674D01*
X47635101Y-78126367D01*
X47616534Y-78161103D01*
X47591548Y-78191548D01*
X47561103Y-78216534D01*
X47526367Y-78235101D01*
X47488674Y-78246535D01*
X47443339Y-78251000D01*
X46606661Y-78251000D01*
X46561326Y-78246535D01*
X46523633Y-78235101D01*
X46488897Y-78216534D01*
X46458452Y-78191548D01*
X46433466Y-78161103D01*
X46414899Y-78126367D01*
X46403465Y-78088674D01*
X46399000Y-78043339D01*
X46399000Y-76956661D01*
X46403465Y-76911326D01*
X46414899Y-76873633D01*
X46433466Y-76838897D01*
X46458452Y-76808452D01*
X46488897Y-76783466D01*
X46523633Y-76764899D01*
X46561326Y-76753465D01*
X46606661Y-76749000D01*
X47443339Y-76749000D01*
X47488674Y-76753465D01*
G37*
G36*
X56588674Y-76653465D02*
G01*
X56626367Y-76664899D01*
X56661103Y-76683466D01*
X56691548Y-76708452D01*
X56716534Y-76738897D01*
X56735101Y-76773633D01*
X56746535Y-76811326D01*
X56751000Y-76856661D01*
X56751000Y-77693339D01*
X56746535Y-77738674D01*
X56735101Y-77776367D01*
X56716534Y-77811103D01*
X56691548Y-77841548D01*
X56661103Y-77866534D01*
X56626367Y-77885101D01*
X56588674Y-77896535D01*
X56543339Y-77901000D01*
X55456661Y-77901000D01*
X55411326Y-77896535D01*
X55373633Y-77885101D01*
X55338897Y-77866534D01*
X55308452Y-77841548D01*
X55283466Y-77811103D01*
X55264899Y-77776367D01*
X55253465Y-77738674D01*
X55249000Y-77693339D01*
X55249000Y-76856661D01*
X55253465Y-76811326D01*
X55264899Y-76773633D01*
X55283466Y-76738897D01*
X55308452Y-76708452D01*
X55338897Y-76683466D01*
X55373633Y-76664899D01*
X55411326Y-76653465D01*
X55456661Y-76649000D01*
X56543339Y-76649000D01*
X56588674Y-76653465D01*
G37*
G36*
X70613512Y-75893927D02*
G01*
X70762812Y-75923624D01*
X70926784Y-75991544D01*
X71074354Y-76090147D01*
X71199853Y-76215646D01*
X71298456Y-76363216D01*
X71366376Y-76527188D01*
X71401000Y-76701259D01*
X71401000Y-76878741D01*
X71366376Y-77052812D01*
X71298456Y-77216784D01*
X71199853Y-77364354D01*
X71074354Y-77489853D01*
X70926784Y-77588456D01*
X70762812Y-77656376D01*
X70613512Y-77686073D01*
X70588742Y-77691000D01*
X70411258Y-77691000D01*
X70386488Y-77686073D01*
X70237188Y-77656376D01*
X70073216Y-77588456D01*
X69925646Y-77489853D01*
X69800147Y-77364354D01*
X69701544Y-77216784D01*
X69633624Y-77052812D01*
X69599000Y-76878741D01*
X69599000Y-76701259D01*
X69633624Y-76527188D01*
X69701544Y-76363216D01*
X69800147Y-76215646D01*
X69925646Y-76090147D01*
X70073216Y-75991544D01*
X70237188Y-75923624D01*
X70386488Y-75893927D01*
X70411258Y-75889000D01*
X70588742Y-75889000D01*
X70613512Y-75893927D01*
G37*
G36*
X73153512Y-75893927D02*
G01*
X73302812Y-75923624D01*
X73466784Y-75991544D01*
X73614354Y-76090147D01*
X73739853Y-76215646D01*
X73838456Y-76363216D01*
X73906376Y-76527188D01*
X73941000Y-76701259D01*
X73941000Y-76878741D01*
X73906376Y-77052812D01*
X73838456Y-77216784D01*
X73739853Y-77364354D01*
X73614354Y-77489853D01*
X73466784Y-77588456D01*
X73302812Y-77656376D01*
X73153512Y-77686073D01*
X73128742Y-77691000D01*
X72951258Y-77691000D01*
X72926488Y-77686073D01*
X72777188Y-77656376D01*
X72613216Y-77588456D01*
X72465646Y-77489853D01*
X72340147Y-77364354D01*
X72241544Y-77216784D01*
X72173624Y-77052812D01*
X72139000Y-76878741D01*
X72139000Y-76701259D01*
X72173624Y-76527188D01*
X72241544Y-76363216D01*
X72340147Y-76215646D01*
X72465646Y-76090147D01*
X72613216Y-75991544D01*
X72777188Y-75923624D01*
X72926488Y-75893927D01*
X72951258Y-75889000D01*
X73128742Y-75889000D01*
X73153512Y-75893927D01*
G37*
G36*
X52801000Y-76751000D02*
G01*
X49199000Y-76751000D01*
X49199000Y-73699000D01*
X52801000Y-73699000D01*
X52801000Y-76751000D01*
G37*
G36*
X56588674Y-74603465D02*
G01*
X56626367Y-74614899D01*
X56661103Y-74633466D01*
X56691548Y-74658452D01*
X56716534Y-74688897D01*
X56735101Y-74723633D01*
X56746535Y-74761326D01*
X56751000Y-74806661D01*
X56751000Y-75643339D01*
X56746535Y-75688674D01*
X56735101Y-75726367D01*
X56716534Y-75761103D01*
X56691548Y-75791548D01*
X56661103Y-75816534D01*
X56626367Y-75835101D01*
X56588674Y-75846535D01*
X56543339Y-75851000D01*
X55456661Y-75851000D01*
X55411326Y-75846535D01*
X55373633Y-75835101D01*
X55338897Y-75816534D01*
X55308452Y-75791548D01*
X55283466Y-75761103D01*
X55264899Y-75726367D01*
X55253465Y-75688674D01*
X55249000Y-75643339D01*
X55249000Y-74806661D01*
X55253465Y-74761326D01*
X55264899Y-74723633D01*
X55283466Y-74688897D01*
X55308452Y-74658452D01*
X55338897Y-74633466D01*
X55373633Y-74614899D01*
X55411326Y-74603465D01*
X55456661Y-74599000D01*
X56543339Y-74599000D01*
X56588674Y-74603465D01*
G37*
G36*
X37275562Y-73753181D02*
G01*
X37310481Y-73763774D01*
X37342663Y-73780976D01*
X37370873Y-73804127D01*
X37394024Y-73832337D01*
X37411226Y-73864519D01*
X37421819Y-73899438D01*
X37426000Y-73941895D01*
X37426000Y-75083105D01*
X37421819Y-75125562D01*
X37411226Y-75160481D01*
X37394024Y-75192663D01*
X37370873Y-75220873D01*
X37342663Y-75244024D01*
X37310481Y-75261226D01*
X37275562Y-75271819D01*
X37233105Y-75276000D01*
X35766895Y-75276000D01*
X35724438Y-75271819D01*
X35689519Y-75261226D01*
X35657337Y-75244024D01*
X35629127Y-75220873D01*
X35605976Y-75192663D01*
X35588774Y-75160481D01*
X35578181Y-75125562D01*
X35574000Y-75083105D01*
X35574000Y-73941895D01*
X35578181Y-73899438D01*
X35588774Y-73864519D01*
X35605976Y-73832337D01*
X35629127Y-73804127D01*
X35657337Y-73780976D01*
X35689519Y-73763774D01*
X35724438Y-73753181D01*
X35766895Y-73749000D01*
X37233105Y-73749000D01*
X37275562Y-73753181D01*
G37*
G36*
X73153512Y-73353927D02*
G01*
X73302812Y-73383624D01*
X73466784Y-73451544D01*
X73614354Y-73550147D01*
X73739853Y-73675646D01*
X73838456Y-73823216D01*
X73906376Y-73987188D01*
X73941000Y-74161259D01*
X73941000Y-74338741D01*
X73906376Y-74512812D01*
X73838456Y-74676784D01*
X73739853Y-74824354D01*
X73614354Y-74949853D01*
X73466784Y-75048456D01*
X73302812Y-75116376D01*
X73153512Y-75146073D01*
X73128742Y-75151000D01*
X72951258Y-75151000D01*
X72926488Y-75146073D01*
X72777188Y-75116376D01*
X72613216Y-75048456D01*
X72465646Y-74949853D01*
X72340147Y-74824354D01*
X72241544Y-74676784D01*
X72173624Y-74512812D01*
X72139000Y-74338741D01*
X72139000Y-74161259D01*
X72173624Y-73987188D01*
X72241544Y-73823216D01*
X72340147Y-73675646D01*
X72465646Y-73550147D01*
X72613216Y-73451544D01*
X72777188Y-73383624D01*
X72926488Y-73353927D01*
X72951258Y-73349000D01*
X73128742Y-73349000D01*
X73153512Y-73353927D01*
G37*
G36*
X71401000Y-75151000D02*
G01*
X69599000Y-75151000D01*
X69599000Y-73349000D01*
X71401000Y-73349000D01*
X71401000Y-75151000D01*
G37*
G36*
X45651000Y-75151000D02*
G01*
X44649000Y-75151000D01*
X44649000Y-73849000D01*
X45651000Y-73849000D01*
X45651000Y-75151000D01*
G37*
G36*
X42351000Y-75151000D02*
G01*
X41349000Y-75151000D01*
X41349000Y-73849000D01*
X42351000Y-73849000D01*
X42351000Y-75151000D01*
G37*
G36*
X56588674Y-72153465D02*
G01*
X56626367Y-72164899D01*
X56661103Y-72183466D01*
X56691548Y-72208452D01*
X56716534Y-72238897D01*
X56735101Y-72273633D01*
X56746535Y-72311326D01*
X56751000Y-72356661D01*
X56751000Y-73193339D01*
X56746535Y-73238674D01*
X56735101Y-73276367D01*
X56716534Y-73311103D01*
X56691548Y-73341548D01*
X56661103Y-73366534D01*
X56626367Y-73385101D01*
X56588674Y-73396535D01*
X56543339Y-73401000D01*
X55456661Y-73401000D01*
X55411326Y-73396535D01*
X55373633Y-73385101D01*
X55338897Y-73366534D01*
X55308452Y-73341548D01*
X55283466Y-73311103D01*
X55264899Y-73276367D01*
X55253465Y-73238674D01*
X55249000Y-73193339D01*
X55249000Y-72356661D01*
X55253465Y-72311326D01*
X55264899Y-72273633D01*
X55283466Y-72238897D01*
X55308452Y-72208452D01*
X55338897Y-72183466D01*
X55373633Y-72164899D01*
X55411326Y-72153465D01*
X55456661Y-72149000D01*
X56543339Y-72149000D01*
X56588674Y-72153465D01*
G37*
G36*
X62573512Y-70603927D02*
G01*
X62722812Y-70633624D01*
X62886784Y-70701544D01*
X63034354Y-70800147D01*
X63159853Y-70925646D01*
X63258456Y-71073216D01*
X63326376Y-71237188D01*
X63361000Y-71411259D01*
X63361000Y-71588741D01*
X63326376Y-71762812D01*
X63258456Y-71926784D01*
X63159853Y-72074354D01*
X63034354Y-72199853D01*
X62886784Y-72298456D01*
X62722812Y-72366376D01*
X62573512Y-72396073D01*
X62548742Y-72401000D01*
X62371258Y-72401000D01*
X62346488Y-72396073D01*
X62197188Y-72366376D01*
X62033216Y-72298456D01*
X61885646Y-72199853D01*
X61760147Y-72074354D01*
X61661544Y-71926784D01*
X61593624Y-71762812D01*
X61559000Y-71588741D01*
X61559000Y-71411259D01*
X61593624Y-71237188D01*
X61661544Y-71073216D01*
X61760147Y-70925646D01*
X61885646Y-70800147D01*
X62033216Y-70701544D01*
X62197188Y-70633624D01*
X62346488Y-70603927D01*
X62371258Y-70599000D01*
X62548742Y-70599000D01*
X62573512Y-70603927D01*
G37*
G36*
X65901000Y-72401000D02*
G01*
X64099000Y-72401000D01*
X64099000Y-70599000D01*
X65901000Y-70599000D01*
X65901000Y-72401000D01*
G37*
G36*
X60033512Y-70603927D02*
G01*
X60182812Y-70633624D01*
X60346784Y-70701544D01*
X60494354Y-70800147D01*
X60619853Y-70925646D01*
X60718456Y-71073216D01*
X60786376Y-71237188D01*
X60821000Y-71411259D01*
X60821000Y-71588741D01*
X60786376Y-71762812D01*
X60718456Y-71926784D01*
X60619853Y-72074354D01*
X60494354Y-72199853D01*
X60346784Y-72298456D01*
X60182812Y-72366376D01*
X60033512Y-72396073D01*
X60008742Y-72401000D01*
X59831258Y-72401000D01*
X59806488Y-72396073D01*
X59657188Y-72366376D01*
X59493216Y-72298456D01*
X59345646Y-72199853D01*
X59220147Y-72074354D01*
X59121544Y-71926784D01*
X59053624Y-71762812D01*
X59019000Y-71588741D01*
X59019000Y-71411259D01*
X59053624Y-71237188D01*
X59121544Y-71073216D01*
X59220147Y-70925646D01*
X59345646Y-70800147D01*
X59493216Y-70701544D01*
X59657188Y-70633624D01*
X59806488Y-70603927D01*
X59831258Y-70599000D01*
X60008742Y-70599000D01*
X60033512Y-70603927D01*
G37*
G36*
X44188674Y-70253465D02*
G01*
X44226367Y-70264899D01*
X44261103Y-70283466D01*
X44291548Y-70308452D01*
X44316534Y-70338897D01*
X44335101Y-70373633D01*
X44346535Y-70411326D01*
X44351000Y-70456661D01*
X44351000Y-71543339D01*
X44346535Y-71588674D01*
X44335101Y-71626367D01*
X44316534Y-71661103D01*
X44291548Y-71691548D01*
X44261103Y-71716534D01*
X44226367Y-71735101D01*
X44188674Y-71746535D01*
X44143339Y-71751000D01*
X43306661Y-71751000D01*
X43261326Y-71746535D01*
X43223633Y-71735101D01*
X43188897Y-71716534D01*
X43158452Y-71691548D01*
X43133466Y-71661103D01*
X43114899Y-71626367D01*
X43103465Y-71588674D01*
X43099000Y-71543339D01*
X43099000Y-70456661D01*
X43103465Y-70411326D01*
X43114899Y-70373633D01*
X43133466Y-70338897D01*
X43158452Y-70308452D01*
X43188897Y-70283466D01*
X43223633Y-70264899D01*
X43261326Y-70253465D01*
X43306661Y-70249000D01*
X44143339Y-70249000D01*
X44188674Y-70253465D01*
G37*
G36*
X46238674Y-70253465D02*
G01*
X46276367Y-70264899D01*
X46311103Y-70283466D01*
X46341548Y-70308452D01*
X46366534Y-70338897D01*
X46385101Y-70373633D01*
X46396535Y-70411326D01*
X46401000Y-70456661D01*
X46401000Y-71543339D01*
X46396535Y-71588674D01*
X46385101Y-71626367D01*
X46366534Y-71661103D01*
X46341548Y-71691548D01*
X46311103Y-71716534D01*
X46276367Y-71735101D01*
X46238674Y-71746535D01*
X46193339Y-71751000D01*
X45356661Y-71751000D01*
X45311326Y-71746535D01*
X45273633Y-71735101D01*
X45238897Y-71716534D01*
X45208452Y-71691548D01*
X45183466Y-71661103D01*
X45164899Y-71626367D01*
X45153465Y-71588674D01*
X45149000Y-71543339D01*
X45149000Y-70456661D01*
X45153465Y-70411326D01*
X45164899Y-70373633D01*
X45183466Y-70338897D01*
X45208452Y-70308452D01*
X45238897Y-70283466D01*
X45273633Y-70264899D01*
X45311326Y-70253465D01*
X45356661Y-70249000D01*
X46193339Y-70249000D01*
X46238674Y-70253465D01*
G37*
G36*
X56588674Y-70103465D02*
G01*
X56626367Y-70114899D01*
X56661103Y-70133466D01*
X56691548Y-70158452D01*
X56716534Y-70188897D01*
X56735101Y-70223633D01*
X56746535Y-70261326D01*
X56751000Y-70306661D01*
X56751000Y-71143339D01*
X56746535Y-71188674D01*
X56735101Y-71226367D01*
X56716534Y-71261103D01*
X56691548Y-71291548D01*
X56661103Y-71316534D01*
X56626367Y-71335101D01*
X56588674Y-71346535D01*
X56543339Y-71351000D01*
X55456661Y-71351000D01*
X55411326Y-71346535D01*
X55373633Y-71335101D01*
X55338897Y-71316534D01*
X55308452Y-71291548D01*
X55283466Y-71261103D01*
X55264899Y-71226367D01*
X55253465Y-71188674D01*
X55249000Y-71143339D01*
X55249000Y-70306661D01*
X55253465Y-70261326D01*
X55264899Y-70223633D01*
X55283466Y-70188897D01*
X55308452Y-70158452D01*
X55338897Y-70133466D01*
X55373633Y-70114899D01*
X55411326Y-70103465D01*
X55456661Y-70099000D01*
X56543339Y-70099000D01*
X56588674Y-70103465D01*
G37*
G36*
X52801000Y-71301000D02*
G01*
X49199000Y-71301000D01*
X49199000Y-68249000D01*
X52801000Y-68249000D01*
X52801000Y-71301000D01*
G37*
G36*
X37351000Y-70601000D02*
G01*
X34649000Y-70601000D01*
X34649000Y-67899000D01*
X37351000Y-67899000D01*
X37351000Y-70601000D01*
G37*
G36*
X44188674Y-67753465D02*
G01*
X44226367Y-67764899D01*
X44261103Y-67783466D01*
X44291548Y-67808452D01*
X44316534Y-67838897D01*
X44335101Y-67873633D01*
X44346535Y-67911326D01*
X44351000Y-67956661D01*
X44351000Y-69043339D01*
X44346535Y-69088674D01*
X44335101Y-69126367D01*
X44316534Y-69161103D01*
X44291548Y-69191548D01*
X44261103Y-69216534D01*
X44226367Y-69235101D01*
X44188674Y-69246535D01*
X44143339Y-69251000D01*
X43306661Y-69251000D01*
X43261326Y-69246535D01*
X43223633Y-69235101D01*
X43188897Y-69216534D01*
X43158452Y-69191548D01*
X43133466Y-69161103D01*
X43114899Y-69126367D01*
X43103465Y-69088674D01*
X43099000Y-69043339D01*
X43099000Y-67956661D01*
X43103465Y-67911326D01*
X43114899Y-67873633D01*
X43133466Y-67838897D01*
X43158452Y-67808452D01*
X43188897Y-67783466D01*
X43223633Y-67764899D01*
X43261326Y-67753465D01*
X43306661Y-67749000D01*
X44143339Y-67749000D01*
X44188674Y-67753465D01*
G37*
G36*
X46238674Y-67753465D02*
G01*
X46276367Y-67764899D01*
X46311103Y-67783466D01*
X46341548Y-67808452D01*
X46366534Y-67838897D01*
X46385101Y-67873633D01*
X46396535Y-67911326D01*
X46401000Y-67956661D01*
X46401000Y-69043339D01*
X46396535Y-69088674D01*
X46385101Y-69126367D01*
X46366534Y-69161103D01*
X46341548Y-69191548D01*
X46311103Y-69216534D01*
X46276367Y-69235101D01*
X46238674Y-69246535D01*
X46193339Y-69251000D01*
X45356661Y-69251000D01*
X45311326Y-69246535D01*
X45273633Y-69235101D01*
X45238897Y-69216534D01*
X45208452Y-69191548D01*
X45183466Y-69161103D01*
X45164899Y-69126367D01*
X45153465Y-69088674D01*
X45149000Y-69043339D01*
X45149000Y-67956661D01*
X45153465Y-67911326D01*
X45164899Y-67873633D01*
X45183466Y-67838897D01*
X45208452Y-67808452D01*
X45238897Y-67783466D01*
X45273633Y-67764899D01*
X45311326Y-67753465D01*
X45356661Y-67749000D01*
X46193339Y-67749000D01*
X46238674Y-67753465D01*
G37*
G36*
X57275562Y-66478181D02*
G01*
X57310481Y-66488774D01*
X57342663Y-66505976D01*
X57370873Y-66529127D01*
X57394024Y-66557337D01*
X57411226Y-66589519D01*
X57421819Y-66624438D01*
X57426000Y-66666895D01*
X57426000Y-67808105D01*
X57421819Y-67850562D01*
X57411226Y-67885481D01*
X57394024Y-67917663D01*
X57370873Y-67945873D01*
X57342663Y-67969024D01*
X57310481Y-67986226D01*
X57275562Y-67996819D01*
X57233105Y-68001000D01*
X55766895Y-68001000D01*
X55724438Y-67996819D01*
X55689519Y-67986226D01*
X55657337Y-67969024D01*
X55629127Y-67945873D01*
X55605976Y-67917663D01*
X55588774Y-67885481D01*
X55578181Y-67850562D01*
X55574000Y-67808105D01*
X55574000Y-66666895D01*
X55578181Y-66624438D01*
X55588774Y-66589519D01*
X55605976Y-66557337D01*
X55629127Y-66529127D01*
X55657337Y-66505976D01*
X55689519Y-66488774D01*
X55724438Y-66478181D01*
X55766895Y-66474000D01*
X57233105Y-66474000D01*
X57275562Y-66478181D01*
G37*
G36*
X62338674Y-66153465D02*
G01*
X62376367Y-66164899D01*
X62411103Y-66183466D01*
X62441548Y-66208452D01*
X62466534Y-66238897D01*
X62485101Y-66273633D01*
X62496535Y-66311326D01*
X62501000Y-66356661D01*
X62501000Y-67193339D01*
X62496535Y-67238674D01*
X62485101Y-67276367D01*
X62466534Y-67311103D01*
X62441548Y-67341548D01*
X62411103Y-67366534D01*
X62376367Y-67385101D01*
X62338674Y-67396535D01*
X62293339Y-67401000D01*
X61206661Y-67401000D01*
X61161326Y-67396535D01*
X61123633Y-67385101D01*
X61088897Y-67366534D01*
X61058452Y-67341548D01*
X61033466Y-67311103D01*
X61014899Y-67276367D01*
X61003465Y-67238674D01*
X60999000Y-67193339D01*
X60999000Y-66356661D01*
X61003465Y-66311326D01*
X61014899Y-66273633D01*
X61033466Y-66238897D01*
X61058452Y-66208452D01*
X61088897Y-66183466D01*
X61123633Y-66164899D01*
X61161326Y-66153465D01*
X61206661Y-66149000D01*
X62293339Y-66149000D01*
X62338674Y-66153465D01*
G37*
G36*
X59838674Y-66153465D02*
G01*
X59876367Y-66164899D01*
X59911103Y-66183466D01*
X59941548Y-66208452D01*
X59966534Y-66238897D01*
X59985101Y-66273633D01*
X59996535Y-66311326D01*
X60001000Y-66356661D01*
X60001000Y-67193339D01*
X59996535Y-67238674D01*
X59985101Y-67276367D01*
X59966534Y-67311103D01*
X59941548Y-67341548D01*
X59911103Y-67366534D01*
X59876367Y-67385101D01*
X59838674Y-67396535D01*
X59793339Y-67401000D01*
X58706661Y-67401000D01*
X58661326Y-67396535D01*
X58623633Y-67385101D01*
X58588897Y-67366534D01*
X58558452Y-67341548D01*
X58533466Y-67311103D01*
X58514899Y-67276367D01*
X58503465Y-67238674D01*
X58499000Y-67193339D01*
X58499000Y-66356661D01*
X58503465Y-66311326D01*
X58514899Y-66273633D01*
X58533466Y-66238897D01*
X58558452Y-66208452D01*
X58588897Y-66183466D01*
X58623633Y-66164899D01*
X58661326Y-66153465D01*
X58706661Y-66149000D01*
X59793339Y-66149000D01*
X59838674Y-66153465D01*
G37*
G36*
X69588674Y-66153465D02*
G01*
X69626367Y-66164899D01*
X69661103Y-66183466D01*
X69691548Y-66208452D01*
X69716534Y-66238897D01*
X69735101Y-66273633D01*
X69746535Y-66311326D01*
X69751000Y-66356661D01*
X69751000Y-67193339D01*
X69746535Y-67238674D01*
X69735101Y-67276367D01*
X69716534Y-67311103D01*
X69691548Y-67341548D01*
X69661103Y-67366534D01*
X69626367Y-67385101D01*
X69588674Y-67396535D01*
X69543339Y-67401000D01*
X68456661Y-67401000D01*
X68411326Y-67396535D01*
X68373633Y-67385101D01*
X68338897Y-67366534D01*
X68308452Y-67341548D01*
X68283466Y-67311103D01*
X68264899Y-67276367D01*
X68253465Y-67238674D01*
X68249000Y-67193339D01*
X68249000Y-66356661D01*
X68253465Y-66311326D01*
X68264899Y-66273633D01*
X68283466Y-66238897D01*
X68308452Y-66208452D01*
X68338897Y-66183466D01*
X68373633Y-66164899D01*
X68411326Y-66153465D01*
X68456661Y-66149000D01*
X69543339Y-66149000D01*
X69588674Y-66153465D01*
G37*
G36*
X74338674Y-66153465D02*
G01*
X74376367Y-66164899D01*
X74411103Y-66183466D01*
X74441548Y-66208452D01*
X74466534Y-66238897D01*
X74485101Y-66273633D01*
X74496535Y-66311326D01*
X74501000Y-66356661D01*
X74501000Y-67193339D01*
X74496535Y-67238674D01*
X74485101Y-67276367D01*
X74466534Y-67311103D01*
X74441548Y-67341548D01*
X74411103Y-67366534D01*
X74376367Y-67385101D01*
X74338674Y-67396535D01*
X74293339Y-67401000D01*
X73206661Y-67401000D01*
X73161326Y-67396535D01*
X73123633Y-67385101D01*
X73088897Y-67366534D01*
X73058452Y-67341548D01*
X73033466Y-67311103D01*
X73014899Y-67276367D01*
X73003465Y-67238674D01*
X72999000Y-67193339D01*
X72999000Y-66356661D01*
X73003465Y-66311326D01*
X73014899Y-66273633D01*
X73033466Y-66238897D01*
X73058452Y-66208452D01*
X73088897Y-66183466D01*
X73123633Y-66164899D01*
X73161326Y-66153465D01*
X73206661Y-66149000D01*
X74293339Y-66149000D01*
X74338674Y-66153465D01*
G37*
G36*
X72088674Y-66153465D02*
G01*
X72126367Y-66164899D01*
X72161103Y-66183466D01*
X72191548Y-66208452D01*
X72216534Y-66238897D01*
X72235101Y-66273633D01*
X72246535Y-66311326D01*
X72251000Y-66356661D01*
X72251000Y-67193339D01*
X72246535Y-67238674D01*
X72235101Y-67276367D01*
X72216534Y-67311103D01*
X72191548Y-67341548D01*
X72161103Y-67366534D01*
X72126367Y-67385101D01*
X72088674Y-67396535D01*
X72043339Y-67401000D01*
X70956661Y-67401000D01*
X70911326Y-67396535D01*
X70873633Y-67385101D01*
X70838897Y-67366534D01*
X70808452Y-67341548D01*
X70783466Y-67311103D01*
X70764899Y-67276367D01*
X70753465Y-67238674D01*
X70749000Y-67193339D01*
X70749000Y-66356661D01*
X70753465Y-66311326D01*
X70764899Y-66273633D01*
X70783466Y-66238897D01*
X70808452Y-66208452D01*
X70838897Y-66183466D01*
X70873633Y-66164899D01*
X70911326Y-66153465D01*
X70956661Y-66149000D01*
X72043339Y-66149000D01*
X72088674Y-66153465D01*
G37*
G36*
X66838674Y-66153465D02*
G01*
X66876367Y-66164899D01*
X66911103Y-66183466D01*
X66941548Y-66208452D01*
X66966534Y-66238897D01*
X66985101Y-66273633D01*
X66996535Y-66311326D01*
X67001000Y-66356661D01*
X67001000Y-67193339D01*
X66996535Y-67238674D01*
X66985101Y-67276367D01*
X66966534Y-67311103D01*
X66941548Y-67341548D01*
X66911103Y-67366534D01*
X66876367Y-67385101D01*
X66838674Y-67396535D01*
X66793339Y-67401000D01*
X65706661Y-67401000D01*
X65661326Y-67396535D01*
X65623633Y-67385101D01*
X65588897Y-67366534D01*
X65558452Y-67341548D01*
X65533466Y-67311103D01*
X65514899Y-67276367D01*
X65503465Y-67238674D01*
X65499000Y-67193339D01*
X65499000Y-66356661D01*
X65503465Y-66311326D01*
X65514899Y-66273633D01*
X65533466Y-66238897D01*
X65558452Y-66208452D01*
X65588897Y-66183466D01*
X65623633Y-66164899D01*
X65661326Y-66153465D01*
X65706661Y-66149000D01*
X66793339Y-66149000D01*
X66838674Y-66153465D01*
G37*
G36*
X46238674Y-65003465D02*
G01*
X46276367Y-65014899D01*
X46311103Y-65033466D01*
X46341548Y-65058452D01*
X46366534Y-65088897D01*
X46385101Y-65123633D01*
X46396535Y-65161326D01*
X46401000Y-65206661D01*
X46401000Y-66293339D01*
X46396535Y-66338674D01*
X46385101Y-66376367D01*
X46366534Y-66411103D01*
X46341548Y-66441548D01*
X46311103Y-66466534D01*
X46276367Y-66485101D01*
X46238674Y-66496535D01*
X46193339Y-66501000D01*
X45356661Y-66501000D01*
X45311326Y-66496535D01*
X45273633Y-66485101D01*
X45238897Y-66466534D01*
X45208452Y-66441548D01*
X45183466Y-66411103D01*
X45164899Y-66376367D01*
X45153465Y-66338674D01*
X45149000Y-66293339D01*
X45149000Y-65206661D01*
X45153465Y-65161326D01*
X45164899Y-65123633D01*
X45183466Y-65088897D01*
X45208452Y-65058452D01*
X45238897Y-65033466D01*
X45273633Y-65014899D01*
X45311326Y-65003465D01*
X45356661Y-64999000D01*
X46193339Y-64999000D01*
X46238674Y-65003465D01*
G37*
G36*
X44188674Y-65003465D02*
G01*
X44226367Y-65014899D01*
X44261103Y-65033466D01*
X44291548Y-65058452D01*
X44316534Y-65088897D01*
X44335101Y-65123633D01*
X44346535Y-65161326D01*
X44351000Y-65206661D01*
X44351000Y-66293339D01*
X44346535Y-66338674D01*
X44335101Y-66376367D01*
X44316534Y-66411103D01*
X44291548Y-66441548D01*
X44261103Y-66466534D01*
X44226367Y-66485101D01*
X44188674Y-66496535D01*
X44143339Y-66501000D01*
X43306661Y-66501000D01*
X43261326Y-66496535D01*
X43223633Y-66485101D01*
X43188897Y-66466534D01*
X43158452Y-66441548D01*
X43133466Y-66411103D01*
X43114899Y-66376367D01*
X43103465Y-66338674D01*
X43099000Y-66293339D01*
X43099000Y-65206661D01*
X43103465Y-65161326D01*
X43114899Y-65123633D01*
X43133466Y-65088897D01*
X43158452Y-65058452D01*
X43188897Y-65033466D01*
X43223633Y-65014899D01*
X43261326Y-65003465D01*
X43306661Y-64999000D01*
X44143339Y-64999000D01*
X44188674Y-65003465D01*
G37*
G36*
X54351000Y-65951000D02*
G01*
X52749000Y-65951000D01*
X52749000Y-63849000D01*
X54351000Y-63849000D01*
X54351000Y-65951000D01*
G37*
G36*
X52051000Y-65951000D02*
G01*
X50449000Y-65951000D01*
X50449000Y-63849000D01*
X52051000Y-63849000D01*
X52051000Y-65951000D01*
G37*
G36*
X49751000Y-65951000D02*
G01*
X48149000Y-65951000D01*
X48149000Y-63849000D01*
X49751000Y-63849000D01*
X49751000Y-65951000D01*
G37*
G36*
X36372032Y-62866534D02*
G01*
X36394072Y-62870918D01*
X36639939Y-62972759D01*
X36861212Y-63120610D01*
X37049390Y-63308788D01*
X37176487Y-63499000D01*
X37197242Y-63530063D01*
X37233692Y-63618061D01*
X37299082Y-63775928D01*
X37351000Y-64036938D01*
X37351000Y-64303062D01*
X37299082Y-64564072D01*
X37197241Y-64809939D01*
X37181762Y-64833105D01*
X37049391Y-65031211D01*
X36861211Y-65219391D01*
X36798785Y-65261103D01*
X36639939Y-65367241D01*
X36639938Y-65367242D01*
X36639937Y-65367242D01*
X36394072Y-65469082D01*
X36133063Y-65521000D01*
X35866937Y-65521000D01*
X35605928Y-65469082D01*
X35360063Y-65367242D01*
X35360062Y-65367242D01*
X35360061Y-65367241D01*
X35201215Y-65261103D01*
X35138789Y-65219391D01*
X34950609Y-65031211D01*
X34818238Y-64833105D01*
X34802759Y-64809939D01*
X34700918Y-64564072D01*
X34649000Y-64303062D01*
X34649000Y-64036938D01*
X34700918Y-63775928D01*
X34766308Y-63618061D01*
X34802758Y-63530063D01*
X34823514Y-63499000D01*
X34950610Y-63308788D01*
X35138788Y-63120610D01*
X35360061Y-62972759D01*
X35605928Y-62870918D01*
X35627968Y-62866534D01*
X35866937Y-62819000D01*
X36133063Y-62819000D01*
X36372032Y-62866534D01*
G37*
G36*
X72088674Y-64103465D02*
G01*
X72126367Y-64114899D01*
X72161103Y-64133466D01*
X72191548Y-64158452D01*
X72216534Y-64188897D01*
X72235101Y-64223633D01*
X72246535Y-64261326D01*
X72251000Y-64306661D01*
X72251000Y-65143339D01*
X72246535Y-65188674D01*
X72235101Y-65226367D01*
X72216534Y-65261103D01*
X72191548Y-65291548D01*
X72161103Y-65316534D01*
X72126367Y-65335101D01*
X72088674Y-65346535D01*
X72043339Y-65351000D01*
X70956661Y-65351000D01*
X70911326Y-65346535D01*
X70873633Y-65335101D01*
X70838897Y-65316534D01*
X70808452Y-65291548D01*
X70783466Y-65261103D01*
X70764899Y-65226367D01*
X70753465Y-65188674D01*
X70749000Y-65143339D01*
X70749000Y-64306661D01*
X70753465Y-64261326D01*
X70764899Y-64223633D01*
X70783466Y-64188897D01*
X70808452Y-64158452D01*
X70838897Y-64133466D01*
X70873633Y-64114899D01*
X70911326Y-64103465D01*
X70956661Y-64099000D01*
X72043339Y-64099000D01*
X72088674Y-64103465D01*
G37*
G36*
X69588674Y-64103465D02*
G01*
X69626367Y-64114899D01*
X69661103Y-64133466D01*
X69691548Y-64158452D01*
X69716534Y-64188897D01*
X69735101Y-64223633D01*
X69746535Y-64261326D01*
X69751000Y-64306661D01*
X69751000Y-65143339D01*
X69746535Y-65188674D01*
X69735101Y-65226367D01*
X69716534Y-65261103D01*
X69691548Y-65291548D01*
X69661103Y-65316534D01*
X69626367Y-65335101D01*
X69588674Y-65346535D01*
X69543339Y-65351000D01*
X68456661Y-65351000D01*
X68411326Y-65346535D01*
X68373633Y-65335101D01*
X68338897Y-65316534D01*
X68308452Y-65291548D01*
X68283466Y-65261103D01*
X68264899Y-65226367D01*
X68253465Y-65188674D01*
X68249000Y-65143339D01*
X68249000Y-64306661D01*
X68253465Y-64261326D01*
X68264899Y-64223633D01*
X68283466Y-64188897D01*
X68308452Y-64158452D01*
X68338897Y-64133466D01*
X68373633Y-64114899D01*
X68411326Y-64103465D01*
X68456661Y-64099000D01*
X69543339Y-64099000D01*
X69588674Y-64103465D01*
G37*
G36*
X59838674Y-64103465D02*
G01*
X59876367Y-64114899D01*
X59911103Y-64133466D01*
X59941548Y-64158452D01*
X59966534Y-64188897D01*
X59985101Y-64223633D01*
X59996535Y-64261326D01*
X60001000Y-64306661D01*
X60001000Y-65143339D01*
X59996535Y-65188674D01*
X59985101Y-65226367D01*
X59966534Y-65261103D01*
X59941548Y-65291548D01*
X59911103Y-65316534D01*
X59876367Y-65335101D01*
X59838674Y-65346535D01*
X59793339Y-65351000D01*
X58706661Y-65351000D01*
X58661326Y-65346535D01*
X58623633Y-65335101D01*
X58588897Y-65316534D01*
X58558452Y-65291548D01*
X58533466Y-65261103D01*
X58514899Y-65226367D01*
X58503465Y-65188674D01*
X58499000Y-65143339D01*
X58499000Y-64306661D01*
X58503465Y-64261326D01*
X58514899Y-64223633D01*
X58533466Y-64188897D01*
X58558452Y-64158452D01*
X58588897Y-64133466D01*
X58623633Y-64114899D01*
X58661326Y-64103465D01*
X58706661Y-64099000D01*
X59793339Y-64099000D01*
X59838674Y-64103465D01*
G37*
G36*
X62338674Y-64103465D02*
G01*
X62376367Y-64114899D01*
X62411103Y-64133466D01*
X62441548Y-64158452D01*
X62466534Y-64188897D01*
X62485101Y-64223633D01*
X62496535Y-64261326D01*
X62501000Y-64306661D01*
X62501000Y-65143339D01*
X62496535Y-65188674D01*
X62485101Y-65226367D01*
X62466534Y-65261103D01*
X62441548Y-65291548D01*
X62411103Y-65316534D01*
X62376367Y-65335101D01*
X62338674Y-65346535D01*
X62293339Y-65351000D01*
X61206661Y-65351000D01*
X61161326Y-65346535D01*
X61123633Y-65335101D01*
X61088897Y-65316534D01*
X61058452Y-65291548D01*
X61033466Y-65261103D01*
X61014899Y-65226367D01*
X61003465Y-65188674D01*
X60999000Y-65143339D01*
X60999000Y-64306661D01*
X61003465Y-64261326D01*
X61014899Y-64223633D01*
X61033466Y-64188897D01*
X61058452Y-64158452D01*
X61088897Y-64133466D01*
X61123633Y-64114899D01*
X61161326Y-64103465D01*
X61206661Y-64099000D01*
X62293339Y-64099000D01*
X62338674Y-64103465D01*
G37*
G36*
X66838674Y-64103465D02*
G01*
X66876367Y-64114899D01*
X66911103Y-64133466D01*
X66941548Y-64158452D01*
X66966534Y-64188897D01*
X66985101Y-64223633D01*
X66996535Y-64261326D01*
X67001000Y-64306661D01*
X67001000Y-65143339D01*
X66996535Y-65188674D01*
X66985101Y-65226367D01*
X66966534Y-65261103D01*
X66941548Y-65291548D01*
X66911103Y-65316534D01*
X66876367Y-65335101D01*
X66838674Y-65346535D01*
X66793339Y-65351000D01*
X65706661Y-65351000D01*
X65661326Y-65346535D01*
X65623633Y-65335101D01*
X65588897Y-65316534D01*
X65558452Y-65291548D01*
X65533466Y-65261103D01*
X65514899Y-65226367D01*
X65503465Y-65188674D01*
X65499000Y-65143339D01*
X65499000Y-64306661D01*
X65503465Y-64261326D01*
X65514899Y-64223633D01*
X65533466Y-64188897D01*
X65558452Y-64158452D01*
X65588897Y-64133466D01*
X65623633Y-64114899D01*
X65661326Y-64103465D01*
X65706661Y-64099000D01*
X66793339Y-64099000D01*
X66838674Y-64103465D01*
G37*
G36*
X74338674Y-64103465D02*
G01*
X74376367Y-64114899D01*
X74411103Y-64133466D01*
X74441548Y-64158452D01*
X74466534Y-64188897D01*
X74485101Y-64223633D01*
X74496535Y-64261326D01*
X74501000Y-64306661D01*
X74501000Y-65143339D01*
X74496535Y-65188674D01*
X74485101Y-65226367D01*
X74466534Y-65261103D01*
X74441548Y-65291548D01*
X74411103Y-65316534D01*
X74376367Y-65335101D01*
X74338674Y-65346535D01*
X74293339Y-65351000D01*
X73206661Y-65351000D01*
X73161326Y-65346535D01*
X73123633Y-65335101D01*
X73088897Y-65316534D01*
X73058452Y-65291548D01*
X73033466Y-65261103D01*
X73014899Y-65226367D01*
X73003465Y-65188674D01*
X72999000Y-65143339D01*
X72999000Y-64306661D01*
X73003465Y-64261326D01*
X73014899Y-64223633D01*
X73033466Y-64188897D01*
X73058452Y-64158452D01*
X73088897Y-64133466D01*
X73123633Y-64114899D01*
X73161326Y-64103465D01*
X73206661Y-64099000D01*
X74293339Y-64099000D01*
X74338674Y-64103465D01*
G37*
G36*
X57275562Y-63503181D02*
G01*
X57310481Y-63513774D01*
X57342663Y-63530976D01*
X57370873Y-63554127D01*
X57394024Y-63582337D01*
X57411226Y-63614519D01*
X57421819Y-63649438D01*
X57426000Y-63691895D01*
X57426000Y-64833105D01*
X57421819Y-64875562D01*
X57411226Y-64910481D01*
X57394024Y-64942663D01*
X57370873Y-64970873D01*
X57342663Y-64994024D01*
X57310481Y-65011226D01*
X57275562Y-65021819D01*
X57233105Y-65026000D01*
X55766895Y-65026000D01*
X55724438Y-65021819D01*
X55689519Y-65011226D01*
X55657337Y-64994024D01*
X55629127Y-64970873D01*
X55605976Y-64942663D01*
X55588774Y-64910481D01*
X55578181Y-64875562D01*
X55574000Y-64833105D01*
X55574000Y-63691895D01*
X55578181Y-63649438D01*
X55588774Y-63614519D01*
X55605976Y-63582337D01*
X55629127Y-63554127D01*
X55657337Y-63530976D01*
X55689519Y-63513774D01*
X55724438Y-63503181D01*
X55766895Y-63499000D01*
X57233105Y-63499000D01*
X57275562Y-63503181D01*
G37*
G36*
X46588674Y-61653465D02*
G01*
X46626367Y-61664899D01*
X46661103Y-61683466D01*
X46691548Y-61708452D01*
X46716534Y-61738897D01*
X46735101Y-61773633D01*
X46746535Y-61811326D01*
X46751000Y-61856661D01*
X46751000Y-62693339D01*
X46746535Y-62738674D01*
X46735101Y-62776367D01*
X46716534Y-62811103D01*
X46691548Y-62841548D01*
X46661103Y-62866534D01*
X46626367Y-62885101D01*
X46588674Y-62896535D01*
X46543339Y-62901000D01*
X45456661Y-62901000D01*
X45411326Y-62896535D01*
X45373633Y-62885101D01*
X45338897Y-62866534D01*
X45308452Y-62841548D01*
X45283466Y-62811103D01*
X45264899Y-62776367D01*
X45253465Y-62738674D01*
X45249000Y-62693339D01*
X45249000Y-61856661D01*
X45253465Y-61811326D01*
X45264899Y-61773633D01*
X45283466Y-61738897D01*
X45308452Y-61708452D01*
X45338897Y-61683466D01*
X45373633Y-61664899D01*
X45411326Y-61653465D01*
X45456661Y-61649000D01*
X46543339Y-61649000D01*
X46588674Y-61653465D01*
G37*
G36*
X43838674Y-61653465D02*
G01*
X43876367Y-61664899D01*
X43911103Y-61683466D01*
X43941548Y-61708452D01*
X43966534Y-61738897D01*
X43985101Y-61773633D01*
X43996535Y-61811326D01*
X44001000Y-61856661D01*
X44001000Y-62693339D01*
X43996535Y-62738674D01*
X43985101Y-62776367D01*
X43966534Y-62811103D01*
X43941548Y-62841548D01*
X43911103Y-62866534D01*
X43876367Y-62885101D01*
X43838674Y-62896535D01*
X43793339Y-62901000D01*
X42706661Y-62901000D01*
X42661326Y-62896535D01*
X42623633Y-62885101D01*
X42588897Y-62866534D01*
X42558452Y-62841548D01*
X42533466Y-62811103D01*
X42514899Y-62776367D01*
X42503465Y-62738674D01*
X42499000Y-62693339D01*
X42499000Y-61856661D01*
X42503465Y-61811326D01*
X42514899Y-61773633D01*
X42533466Y-61738897D01*
X42558452Y-61708452D01*
X42588897Y-61683466D01*
X42623633Y-61664899D01*
X42661326Y-61653465D01*
X42706661Y-61649000D01*
X43793339Y-61649000D01*
X43838674Y-61653465D01*
G37*
G36*
X66351000Y-62151000D02*
G01*
X65149000Y-62151000D01*
X65149000Y-60349000D01*
X66351000Y-60349000D01*
X66351000Y-62151000D01*
G37*
G36*
X60351000Y-62151000D02*
G01*
X59149000Y-62151000D01*
X59149000Y-60349000D01*
X60351000Y-60349000D01*
X60351000Y-62151000D01*
G37*
G36*
X62351000Y-62151000D02*
G01*
X61149000Y-62151000D01*
X61149000Y-60349000D01*
X62351000Y-60349000D01*
X62351000Y-62151000D01*
G37*
G36*
X70351000Y-62151000D02*
G01*
X69149000Y-62151000D01*
X69149000Y-60349000D01*
X70351000Y-60349000D01*
X70351000Y-62151000D01*
G37*
G36*
X68351000Y-62151000D02*
G01*
X67149000Y-62151000D01*
X67149000Y-60349000D01*
X68351000Y-60349000D01*
X68351000Y-62151000D01*
G37*
G36*
X64351000Y-62151000D02*
G01*
X63149000Y-62151000D01*
X63149000Y-60349000D01*
X64351000Y-60349000D01*
X64351000Y-62151000D01*
G37*
G36*
X43838674Y-59603465D02*
G01*
X43876367Y-59614899D01*
X43911103Y-59633466D01*
X43941548Y-59658452D01*
X43966534Y-59688897D01*
X43985101Y-59723633D01*
X43996535Y-59761326D01*
X44001000Y-59806661D01*
X44001000Y-60643339D01*
X43996535Y-60688674D01*
X43985101Y-60726367D01*
X43966534Y-60761103D01*
X43941548Y-60791548D01*
X43911103Y-60816534D01*
X43876367Y-60835101D01*
X43838674Y-60846535D01*
X43793339Y-60851000D01*
X42706661Y-60851000D01*
X42661326Y-60846535D01*
X42623633Y-60835101D01*
X42588897Y-60816534D01*
X42558452Y-60791548D01*
X42533466Y-60761103D01*
X42514899Y-60726367D01*
X42503465Y-60688674D01*
X42499000Y-60643339D01*
X42499000Y-59806661D01*
X42503465Y-59761326D01*
X42514899Y-59723633D01*
X42533466Y-59688897D01*
X42558452Y-59658452D01*
X42588897Y-59633466D01*
X42623633Y-59614899D01*
X42661326Y-59603465D01*
X42706661Y-59599000D01*
X43793339Y-59599000D01*
X43838674Y-59603465D01*
G37*
G36*
X46588674Y-59603465D02*
G01*
X46626367Y-59614899D01*
X46661103Y-59633466D01*
X46691548Y-59658452D01*
X46716534Y-59688897D01*
X46735101Y-59723633D01*
X46746535Y-59761326D01*
X46751000Y-59806661D01*
X46751000Y-60643339D01*
X46746535Y-60688674D01*
X46735101Y-60726367D01*
X46716534Y-60761103D01*
X46691548Y-60791548D01*
X46661103Y-60816534D01*
X46626367Y-60835101D01*
X46588674Y-60846535D01*
X46543339Y-60851000D01*
X45456661Y-60851000D01*
X45411326Y-60846535D01*
X45373633Y-60835101D01*
X45338897Y-60816534D01*
X45308452Y-60791548D01*
X45283466Y-60761103D01*
X45264899Y-60726367D01*
X45253465Y-60688674D01*
X45249000Y-60643339D01*
X45249000Y-59806661D01*
X45253465Y-59761326D01*
X45264899Y-59723633D01*
X45283466Y-59688897D01*
X45308452Y-59658452D01*
X45338897Y-59633466D01*
X45373633Y-59614899D01*
X45411326Y-59603465D01*
X45456661Y-59599000D01*
X46543339Y-59599000D01*
X46588674Y-59603465D01*
G37*
G36*
X73301000Y-60401000D02*
G01*
X71199000Y-60401000D01*
X71199000Y-59099000D01*
X73301000Y-59099000D01*
X73301000Y-60401000D01*
G37*
G36*
X58301000Y-60401000D02*
G01*
X56199000Y-60401000D01*
X56199000Y-59099000D01*
X58301000Y-59099000D01*
X58301000Y-60401000D01*
G37*
G36*
X53201000Y-59651000D02*
G01*
X49299000Y-59651000D01*
X49299000Y-57549000D01*
X53201000Y-57549000D01*
X53201000Y-59651000D01*
G37*
G36*
X32113512Y-57343927D02*
G01*
X32262812Y-57373624D01*
X32426784Y-57441544D01*
X32574354Y-57540147D01*
X32699853Y-57665646D01*
X32798456Y-57813216D01*
X32866376Y-57977188D01*
X32901000Y-58151259D01*
X32901000Y-58328741D01*
X32866376Y-58502812D01*
X32798456Y-58666784D01*
X32699853Y-58814354D01*
X32574354Y-58939853D01*
X32426784Y-59038456D01*
X32262812Y-59106376D01*
X32113512Y-59136073D01*
X32088742Y-59141000D01*
X31911258Y-59141000D01*
X31886488Y-59136073D01*
X31737188Y-59106376D01*
X31573216Y-59038456D01*
X31425646Y-58939853D01*
X31300147Y-58814354D01*
X31201544Y-58666784D01*
X31133624Y-58502812D01*
X31099000Y-58328741D01*
X31099000Y-58151259D01*
X31133624Y-57977188D01*
X31201544Y-57813216D01*
X31300147Y-57665646D01*
X31425646Y-57540147D01*
X31573216Y-57441544D01*
X31737188Y-57373624D01*
X31886488Y-57343927D01*
X31911258Y-57339000D01*
X32088742Y-57339000D01*
X32113512Y-57343927D01*
G37*
G36*
X39875562Y-56828181D02*
G01*
X39910481Y-56838774D01*
X39942663Y-56855976D01*
X39970873Y-56879127D01*
X39994024Y-56907337D01*
X40011226Y-56939519D01*
X40021819Y-56974438D01*
X40026000Y-57016895D01*
X40026000Y-58483105D01*
X40021819Y-58525562D01*
X40011226Y-58560481D01*
X39994024Y-58592663D01*
X39970873Y-58620873D01*
X39942663Y-58644024D01*
X39910481Y-58661226D01*
X39875562Y-58671819D01*
X39833105Y-58676000D01*
X38691895Y-58676000D01*
X38649438Y-58671819D01*
X38614519Y-58661226D01*
X38582337Y-58644024D01*
X38554127Y-58620873D01*
X38530976Y-58592663D01*
X38513774Y-58560481D01*
X38503181Y-58525562D01*
X38499000Y-58483105D01*
X38499000Y-57016895D01*
X38503181Y-56974438D01*
X38513774Y-56939519D01*
X38530976Y-56907337D01*
X38554127Y-56879127D01*
X38582337Y-56855976D01*
X38614519Y-56838774D01*
X38649438Y-56828181D01*
X38691895Y-56824000D01*
X39833105Y-56824000D01*
X39875562Y-56828181D01*
G37*
G36*
X42850562Y-56828181D02*
G01*
X42885481Y-56838774D01*
X42917663Y-56855976D01*
X42945873Y-56879127D01*
X42969024Y-56907337D01*
X42986226Y-56939519D01*
X42996819Y-56974438D01*
X43001000Y-57016895D01*
X43001000Y-58483105D01*
X42996819Y-58525562D01*
X42986226Y-58560481D01*
X42969024Y-58592663D01*
X42945873Y-58620873D01*
X42917663Y-58644024D01*
X42885481Y-58661226D01*
X42850562Y-58671819D01*
X42808105Y-58676000D01*
X41666895Y-58676000D01*
X41624438Y-58671819D01*
X41589519Y-58661226D01*
X41557337Y-58644024D01*
X41529127Y-58620873D01*
X41505976Y-58592663D01*
X41488774Y-58560481D01*
X41478181Y-58525562D01*
X41474000Y-58483105D01*
X41474000Y-57016895D01*
X41478181Y-56974438D01*
X41488774Y-56939519D01*
X41505976Y-56907337D01*
X41529127Y-56879127D01*
X41557337Y-56855976D01*
X41589519Y-56838774D01*
X41624438Y-56828181D01*
X41666895Y-56824000D01*
X42808105Y-56824000D01*
X42850562Y-56828181D01*
G37*
G36*
X58301000Y-58401000D02*
G01*
X56199000Y-58401000D01*
X56199000Y-57099000D01*
X58301000Y-57099000D01*
X58301000Y-58401000D01*
G37*
G36*
X73301000Y-58401000D02*
G01*
X71199000Y-58401000D01*
X71199000Y-57099000D01*
X73301000Y-57099000D01*
X73301000Y-58401000D01*
G37*
G36*
X32113512Y-54803927D02*
G01*
X32262812Y-54833624D01*
X32426784Y-54901544D01*
X32574354Y-55000147D01*
X32699853Y-55125646D01*
X32798456Y-55273216D01*
X32866376Y-55437188D01*
X32901000Y-55611259D01*
X32901000Y-55788741D01*
X32866376Y-55962812D01*
X32798456Y-56126784D01*
X32699853Y-56274354D01*
X32574354Y-56399853D01*
X32426784Y-56498456D01*
X32262812Y-56566376D01*
X32113512Y-56596073D01*
X32088742Y-56601000D01*
X31911258Y-56601000D01*
X31886488Y-56596073D01*
X31737188Y-56566376D01*
X31573216Y-56498456D01*
X31425646Y-56399853D01*
X31300147Y-56274354D01*
X31201544Y-56126784D01*
X31133624Y-55962812D01*
X31099000Y-55788741D01*
X31099000Y-55611259D01*
X31133624Y-55437188D01*
X31201544Y-55273216D01*
X31300147Y-55125646D01*
X31425646Y-55000147D01*
X31573216Y-54901544D01*
X31737188Y-54833624D01*
X31886488Y-54803927D01*
X31911258Y-54799000D01*
X32088742Y-54799000D01*
X32113512Y-54803927D01*
G37*
G36*
X58301000Y-56401000D02*
G01*
X56199000Y-56401000D01*
X56199000Y-55099000D01*
X58301000Y-55099000D01*
X58301000Y-56401000D01*
G37*
G36*
X73301000Y-56401000D02*
G01*
X71199000Y-56401000D01*
X71199000Y-55099000D01*
X73301000Y-55099000D01*
X73301000Y-56401000D01*
G37*
G36*
X39028048Y-53278122D02*
G01*
X39062387Y-53288539D01*
X39094036Y-53305456D01*
X39121778Y-53328222D01*
X39144544Y-53355964D01*
X39161461Y-53387613D01*
X39171878Y-53421952D01*
X39176000Y-53463807D01*
X39176000Y-55536193D01*
X39171878Y-55578048D01*
X39161461Y-55612387D01*
X39144544Y-55644036D01*
X39121778Y-55671778D01*
X39094036Y-55694544D01*
X39062387Y-55711461D01*
X39028048Y-55721878D01*
X38986193Y-55726000D01*
X37763807Y-55726000D01*
X37721952Y-55721878D01*
X37687613Y-55711461D01*
X37655964Y-55694544D01*
X37628222Y-55671778D01*
X37605456Y-55644036D01*
X37588539Y-55612387D01*
X37578122Y-55578048D01*
X37574000Y-55536193D01*
X37574000Y-53463807D01*
X37578122Y-53421952D01*
X37588539Y-53387613D01*
X37605456Y-53355964D01*
X37628222Y-53328222D01*
X37655964Y-53305456D01*
X37687613Y-53288539D01*
X37721952Y-53278122D01*
X37763807Y-53274000D01*
X38986193Y-53274000D01*
X39028048Y-53278122D01*
G37*
G36*
X42278048Y-53278122D02*
G01*
X42312387Y-53288539D01*
X42344036Y-53305456D01*
X42371778Y-53328222D01*
X42394544Y-53355964D01*
X42411461Y-53387613D01*
X42421878Y-53421952D01*
X42426000Y-53463807D01*
X42426000Y-55536193D01*
X42421878Y-55578048D01*
X42411461Y-55612387D01*
X42394544Y-55644036D01*
X42371778Y-55671778D01*
X42344036Y-55694544D01*
X42312387Y-55711461D01*
X42278048Y-55721878D01*
X42236193Y-55726000D01*
X41013807Y-55726000D01*
X40971952Y-55721878D01*
X40937613Y-55711461D01*
X40905964Y-55694544D01*
X40878222Y-55671778D01*
X40855456Y-55644036D01*
X40838539Y-55612387D01*
X40828122Y-55578048D01*
X40824000Y-55536193D01*
X40824000Y-53463807D01*
X40828122Y-53421952D01*
X40838539Y-53387613D01*
X40855456Y-53355964D01*
X40878222Y-53328222D01*
X40905964Y-53305456D01*
X40937613Y-53288539D01*
X40971952Y-53278122D01*
X41013807Y-53274000D01*
X42236193Y-53274000D01*
X42278048Y-53278122D01*
G37*
G36*
X49751000Y-55651000D02*
G01*
X48749000Y-55651000D01*
X48749000Y-54749000D01*
X49751000Y-54749000D01*
X49751000Y-55651000D01*
G37*
G36*
X47751000Y-54701000D02*
G01*
X46749000Y-54701000D01*
X46749000Y-53799000D01*
X47751000Y-53799000D01*
X47751000Y-54701000D01*
G37*
G36*
X58301000Y-54401000D02*
G01*
X56199000Y-54401000D01*
X56199000Y-53099000D01*
X58301000Y-53099000D01*
X58301000Y-54401000D01*
G37*
G36*
X73301000Y-54401000D02*
G01*
X71199000Y-54401000D01*
X71199000Y-53099000D01*
X73301000Y-53099000D01*
X73301000Y-54401000D01*
G37*
G36*
X32113512Y-52263927D02*
G01*
X32262812Y-52293624D01*
X32426784Y-52361544D01*
X32574354Y-52460147D01*
X32699853Y-52585646D01*
X32798456Y-52733216D01*
X32866376Y-52897188D01*
X32901000Y-53071259D01*
X32901000Y-53248741D01*
X32866376Y-53422812D01*
X32798456Y-53586784D01*
X32699853Y-53734354D01*
X32574354Y-53859853D01*
X32426784Y-53958456D01*
X32262812Y-54026376D01*
X32113512Y-54056073D01*
X32088742Y-54061000D01*
X31911258Y-54061000D01*
X31886488Y-54056073D01*
X31737188Y-54026376D01*
X31573216Y-53958456D01*
X31425646Y-53859853D01*
X31300147Y-53734354D01*
X31201544Y-53586784D01*
X31133624Y-53422812D01*
X31099000Y-53248741D01*
X31099000Y-53071259D01*
X31133624Y-52897188D01*
X31201544Y-52733216D01*
X31300147Y-52585646D01*
X31425646Y-52460147D01*
X31573216Y-52361544D01*
X31737188Y-52293624D01*
X31886488Y-52263927D01*
X31911258Y-52259000D01*
X32088742Y-52259000D01*
X32113512Y-52263927D01*
G37*
G36*
X49751000Y-53751000D02*
G01*
X48749000Y-53751000D01*
X48749000Y-52849000D01*
X49751000Y-52849000D01*
X49751000Y-53751000D01*
G37*
G36*
X52088674Y-52153465D02*
G01*
X52126367Y-52164899D01*
X52161103Y-52183466D01*
X52191548Y-52208452D01*
X52216534Y-52238897D01*
X52235101Y-52273633D01*
X52246535Y-52311326D01*
X52251000Y-52356661D01*
X52251000Y-53193339D01*
X52246535Y-53238674D01*
X52235101Y-53276367D01*
X52216534Y-53311103D01*
X52191548Y-53341548D01*
X52161103Y-53366534D01*
X52126367Y-53385101D01*
X52088674Y-53396535D01*
X52043339Y-53401000D01*
X50956661Y-53401000D01*
X50911326Y-53396535D01*
X50873633Y-53385101D01*
X50838897Y-53366534D01*
X50808452Y-53341548D01*
X50783466Y-53311103D01*
X50764899Y-53276367D01*
X50753465Y-53238674D01*
X50749000Y-53193339D01*
X50749000Y-52356661D01*
X50753465Y-52311326D01*
X50764899Y-52273633D01*
X50783466Y-52238897D01*
X50808452Y-52208452D01*
X50838897Y-52183466D01*
X50873633Y-52164899D01*
X50911326Y-52153465D01*
X50956661Y-52149000D01*
X52043339Y-52149000D01*
X52088674Y-52153465D01*
G37*
G36*
X45588674Y-51903465D02*
G01*
X45626367Y-51914899D01*
X45661103Y-51933466D01*
X45691548Y-51958452D01*
X45716534Y-51988897D01*
X45735101Y-52023633D01*
X45746535Y-52061326D01*
X45751000Y-52106661D01*
X45751000Y-52943339D01*
X45746535Y-52988674D01*
X45735101Y-53026367D01*
X45716534Y-53061103D01*
X45691548Y-53091548D01*
X45661103Y-53116534D01*
X45626367Y-53135101D01*
X45588674Y-53146535D01*
X45543339Y-53151000D01*
X44456661Y-53151000D01*
X44411326Y-53146535D01*
X44373633Y-53135101D01*
X44338897Y-53116534D01*
X44308452Y-53091548D01*
X44283466Y-53061103D01*
X44264899Y-53026367D01*
X44253465Y-52988674D01*
X44249000Y-52943339D01*
X44249000Y-52106661D01*
X44253465Y-52061326D01*
X44264899Y-52023633D01*
X44283466Y-51988897D01*
X44308452Y-51958452D01*
X44338897Y-51933466D01*
X44373633Y-51914899D01*
X44411326Y-51903465D01*
X44456661Y-51899000D01*
X45543339Y-51899000D01*
X45588674Y-51903465D01*
G37*
G36*
X58301000Y-52401000D02*
G01*
X56199000Y-52401000D01*
X56199000Y-51099000D01*
X58301000Y-51099000D01*
X58301000Y-52401000D01*
G37*
G36*
X73301000Y-52401000D02*
G01*
X71199000Y-52401000D01*
X71199000Y-51099000D01*
X73301000Y-51099000D01*
X73301000Y-52401000D01*
G37*
G36*
X38451000Y-51801000D02*
G01*
X36049000Y-51801000D01*
X36049000Y-50199000D01*
X38451000Y-50199000D01*
X38451000Y-51801000D01*
G37*
G36*
X32113512Y-49723927D02*
G01*
X32262812Y-49753624D01*
X32426784Y-49821544D01*
X32574354Y-49920147D01*
X32699853Y-50045646D01*
X32798456Y-50193216D01*
X32866376Y-50357188D01*
X32901000Y-50531259D01*
X32901000Y-50708741D01*
X32866376Y-50882812D01*
X32798456Y-51046784D01*
X32699853Y-51194354D01*
X32574354Y-51319853D01*
X32426784Y-51418456D01*
X32262812Y-51486376D01*
X32113512Y-51516073D01*
X32088742Y-51521000D01*
X31911258Y-51521000D01*
X31886488Y-51516073D01*
X31737188Y-51486376D01*
X31573216Y-51418456D01*
X31425646Y-51319853D01*
X31300147Y-51194354D01*
X31201544Y-51046784D01*
X31133624Y-50882812D01*
X31099000Y-50708741D01*
X31099000Y-50531259D01*
X31133624Y-50357188D01*
X31201544Y-50193216D01*
X31300147Y-50045646D01*
X31425646Y-49920147D01*
X31573216Y-49821544D01*
X31737188Y-49753624D01*
X31886488Y-49723927D01*
X31911258Y-49719000D01*
X32088742Y-49719000D01*
X32113512Y-49723927D01*
G37*
G36*
X52088674Y-50103465D02*
G01*
X52126367Y-50114899D01*
X52161103Y-50133466D01*
X52191548Y-50158452D01*
X52216534Y-50188897D01*
X52235101Y-50223633D01*
X52246535Y-50261326D01*
X52251000Y-50306661D01*
X52251000Y-51143339D01*
X52246535Y-51188674D01*
X52235101Y-51226367D01*
X52216534Y-51261103D01*
X52191548Y-51291548D01*
X52161103Y-51316534D01*
X52126367Y-51335101D01*
X52088674Y-51346535D01*
X52043339Y-51351000D01*
X50956661Y-51351000D01*
X50911326Y-51346535D01*
X50873633Y-51335101D01*
X50838897Y-51316534D01*
X50808452Y-51291548D01*
X50783466Y-51261103D01*
X50764899Y-51226367D01*
X50753465Y-51188674D01*
X50749000Y-51143339D01*
X50749000Y-50306661D01*
X50753465Y-50261326D01*
X50764899Y-50223633D01*
X50783466Y-50188897D01*
X50808452Y-50158452D01*
X50838897Y-50133466D01*
X50873633Y-50114899D01*
X50911326Y-50103465D01*
X50956661Y-50099000D01*
X52043339Y-50099000D01*
X52088674Y-50103465D01*
G37*
G36*
X45588674Y-49853465D02*
G01*
X45626367Y-49864899D01*
X45661103Y-49883466D01*
X45691548Y-49908452D01*
X45716534Y-49938897D01*
X45735101Y-49973633D01*
X45746535Y-50011326D01*
X45751000Y-50056661D01*
X45751000Y-50893339D01*
X45746535Y-50938674D01*
X45735101Y-50976367D01*
X45716534Y-51011103D01*
X45691548Y-51041548D01*
X45661103Y-51066534D01*
X45626367Y-51085101D01*
X45588674Y-51096535D01*
X45543339Y-51101000D01*
X44456661Y-51101000D01*
X44411326Y-51096535D01*
X44373633Y-51085101D01*
X44338897Y-51066534D01*
X44308452Y-51041548D01*
X44283466Y-51011103D01*
X44264899Y-50976367D01*
X44253465Y-50938674D01*
X44249000Y-50893339D01*
X44249000Y-50056661D01*
X44253465Y-50011326D01*
X44264899Y-49973633D01*
X44283466Y-49938897D01*
X44308452Y-49908452D01*
X44338897Y-49883466D01*
X44373633Y-49864899D01*
X44411326Y-49853465D01*
X44456661Y-49849000D01*
X45543339Y-49849000D01*
X45588674Y-49853465D01*
G37*
G36*
X49751000Y-50901000D02*
G01*
X48749000Y-50901000D01*
X48749000Y-49999000D01*
X49751000Y-49999000D01*
X49751000Y-50901000D01*
G37*
G36*
X73301000Y-50401000D02*
G01*
X71199000Y-50401000D01*
X71199000Y-49099000D01*
X73301000Y-49099000D01*
X73301000Y-50401000D01*
G37*
G36*
X58301000Y-50401000D02*
G01*
X56199000Y-50401000D01*
X56199000Y-49099000D01*
X58301000Y-49099000D01*
X58301000Y-50401000D01*
G37*
G36*
X47751000Y-49951000D02*
G01*
X46749000Y-49951000D01*
X46749000Y-49049000D01*
X47751000Y-49049000D01*
X47751000Y-49951000D01*
G37*
G36*
X49751000Y-49001000D02*
G01*
X48749000Y-49001000D01*
X48749000Y-48099000D01*
X49751000Y-48099000D01*
X49751000Y-49001000D01*
G37*
G36*
X32113512Y-47183927D02*
G01*
X32262812Y-47213624D01*
X32426784Y-47281544D01*
X32574354Y-47380147D01*
X32699853Y-47505646D01*
X32798456Y-47653216D01*
X32866376Y-47817188D01*
X32901000Y-47991259D01*
X32901000Y-48168741D01*
X32866376Y-48342812D01*
X32798456Y-48506784D01*
X32699853Y-48654354D01*
X32574354Y-48779853D01*
X32426784Y-48878456D01*
X32262812Y-48946376D01*
X32113512Y-48976073D01*
X32088742Y-48981000D01*
X31911258Y-48981000D01*
X31886488Y-48976073D01*
X31737188Y-48946376D01*
X31573216Y-48878456D01*
X31425646Y-48779853D01*
X31300147Y-48654354D01*
X31201544Y-48506784D01*
X31133624Y-48342812D01*
X31099000Y-48168741D01*
X31099000Y-47991259D01*
X31133624Y-47817188D01*
X31201544Y-47653216D01*
X31300147Y-47505646D01*
X31425646Y-47380147D01*
X31573216Y-47281544D01*
X31737188Y-47213624D01*
X31886488Y-47183927D01*
X31911258Y-47179000D01*
X32088742Y-47179000D01*
X32113512Y-47183927D01*
G37*
G36*
X40838674Y-47653465D02*
G01*
X40876367Y-47664899D01*
X40911103Y-47683466D01*
X40941548Y-47708452D01*
X40966534Y-47738897D01*
X40985101Y-47773633D01*
X40996535Y-47811326D01*
X41001000Y-47856661D01*
X41001000Y-48693339D01*
X40996535Y-48738674D01*
X40985101Y-48776367D01*
X40966534Y-48811103D01*
X40941548Y-48841548D01*
X40911103Y-48866534D01*
X40876367Y-48885101D01*
X40838674Y-48896535D01*
X40793339Y-48901000D01*
X39706661Y-48901000D01*
X39661326Y-48896535D01*
X39623633Y-48885101D01*
X39588897Y-48866534D01*
X39558452Y-48841548D01*
X39533466Y-48811103D01*
X39514899Y-48776367D01*
X39503465Y-48738674D01*
X39499000Y-48693339D01*
X39499000Y-47856661D01*
X39503465Y-47811326D01*
X39514899Y-47773633D01*
X39533466Y-47738897D01*
X39558452Y-47708452D01*
X39588897Y-47683466D01*
X39623633Y-47664899D01*
X39661326Y-47653465D01*
X39706661Y-47649000D01*
X40793339Y-47649000D01*
X40838674Y-47653465D01*
G37*
G36*
X52688674Y-47003465D02*
G01*
X52726367Y-47014899D01*
X52761103Y-47033466D01*
X52791548Y-47058452D01*
X52816534Y-47088897D01*
X52835101Y-47123633D01*
X52846535Y-47161326D01*
X52851000Y-47206661D01*
X52851000Y-48293339D01*
X52846535Y-48338674D01*
X52835101Y-48376367D01*
X52816534Y-48411103D01*
X52791548Y-48441548D01*
X52761103Y-48466534D01*
X52726367Y-48485101D01*
X52688674Y-48496535D01*
X52643339Y-48501000D01*
X51806661Y-48501000D01*
X51761326Y-48496535D01*
X51723633Y-48485101D01*
X51688897Y-48466534D01*
X51658452Y-48441548D01*
X51633466Y-48411103D01*
X51614899Y-48376367D01*
X51603465Y-48338674D01*
X51599000Y-48293339D01*
X51599000Y-47206661D01*
X51603465Y-47161326D01*
X51614899Y-47123633D01*
X51633466Y-47088897D01*
X51658452Y-47058452D01*
X51688897Y-47033466D01*
X51723633Y-47014899D01*
X51761326Y-47003465D01*
X51806661Y-46999000D01*
X52643339Y-46999000D01*
X52688674Y-47003465D01*
G37*
G36*
X54738674Y-47003465D02*
G01*
X54776367Y-47014899D01*
X54811103Y-47033466D01*
X54841548Y-47058452D01*
X54866534Y-47088897D01*
X54885101Y-47123633D01*
X54896535Y-47161326D01*
X54901000Y-47206661D01*
X54901000Y-48293339D01*
X54896535Y-48338674D01*
X54885101Y-48376367D01*
X54866534Y-48411103D01*
X54841548Y-48441548D01*
X54811103Y-48466534D01*
X54776367Y-48485101D01*
X54738674Y-48496535D01*
X54693339Y-48501000D01*
X53856661Y-48501000D01*
X53811326Y-48496535D01*
X53773633Y-48485101D01*
X53738897Y-48466534D01*
X53708452Y-48441548D01*
X53683466Y-48411103D01*
X53664899Y-48376367D01*
X53653465Y-48338674D01*
X53649000Y-48293339D01*
X53649000Y-47206661D01*
X53653465Y-47161326D01*
X53664899Y-47123633D01*
X53683466Y-47088897D01*
X53708452Y-47058452D01*
X53738897Y-47033466D01*
X53773633Y-47014899D01*
X53811326Y-47003465D01*
X53856661Y-46999000D01*
X54693339Y-46999000D01*
X54738674Y-47003465D01*
G37*
G36*
X58301000Y-48401000D02*
G01*
X56199000Y-48401000D01*
X56199000Y-47099000D01*
X58301000Y-47099000D01*
X58301000Y-48401000D01*
G37*
G36*
X73301000Y-48401000D02*
G01*
X71199000Y-48401000D01*
X71199000Y-47099000D01*
X73301000Y-47099000D01*
X73301000Y-48401000D01*
G37*
G36*
X40838674Y-45603465D02*
G01*
X40876367Y-45614899D01*
X40911103Y-45633466D01*
X40941548Y-45658452D01*
X40966534Y-45688897D01*
X40985101Y-45723633D01*
X40996535Y-45761326D01*
X41001000Y-45806661D01*
X41001000Y-46643339D01*
X40996535Y-46688674D01*
X40985101Y-46726367D01*
X40966534Y-46761103D01*
X40941548Y-46791548D01*
X40911103Y-46816534D01*
X40876367Y-46835101D01*
X40838674Y-46846535D01*
X40793339Y-46851000D01*
X39706661Y-46851000D01*
X39661326Y-46846535D01*
X39623633Y-46835101D01*
X39588897Y-46816534D01*
X39558452Y-46791548D01*
X39533466Y-46761103D01*
X39514899Y-46726367D01*
X39503465Y-46688674D01*
X39499000Y-46643339D01*
X39499000Y-45806661D01*
X39503465Y-45761326D01*
X39514899Y-45723633D01*
X39533466Y-45688897D01*
X39558452Y-45658452D01*
X39588897Y-45633466D01*
X39623633Y-45614899D01*
X39661326Y-45603465D01*
X39706661Y-45599000D01*
X40793339Y-45599000D01*
X40838674Y-45603465D01*
G37*
G36*
X47688674Y-45253465D02*
G01*
X47726367Y-45264899D01*
X47761103Y-45283466D01*
X47791548Y-45308452D01*
X47816534Y-45338897D01*
X47835101Y-45373633D01*
X47846535Y-45411326D01*
X47851000Y-45456661D01*
X47851000Y-46543339D01*
X47846535Y-46588674D01*
X47835101Y-46626367D01*
X47816534Y-46661103D01*
X47791548Y-46691548D01*
X47761103Y-46716534D01*
X47726367Y-46735101D01*
X47688674Y-46746535D01*
X47643339Y-46751000D01*
X46806661Y-46751000D01*
X46761326Y-46746535D01*
X46723633Y-46735101D01*
X46688897Y-46716534D01*
X46658452Y-46691548D01*
X46633466Y-46661103D01*
X46614899Y-46626367D01*
X46603465Y-46588674D01*
X46599000Y-46543339D01*
X46599000Y-45456661D01*
X46603465Y-45411326D01*
X46614899Y-45373633D01*
X46633466Y-45338897D01*
X46658452Y-45308452D01*
X46688897Y-45283466D01*
X46723633Y-45264899D01*
X46761326Y-45253465D01*
X46806661Y-45249000D01*
X47643339Y-45249000D01*
X47688674Y-45253465D01*
G37*
G36*
X49738674Y-45253465D02*
G01*
X49776367Y-45264899D01*
X49811103Y-45283466D01*
X49841548Y-45308452D01*
X49866534Y-45338897D01*
X49885101Y-45373633D01*
X49896535Y-45411326D01*
X49901000Y-45456661D01*
X49901000Y-46543339D01*
X49896535Y-46588674D01*
X49885101Y-46626367D01*
X49866534Y-46661103D01*
X49841548Y-46691548D01*
X49811103Y-46716534D01*
X49776367Y-46735101D01*
X49738674Y-46746535D01*
X49693339Y-46751000D01*
X48856661Y-46751000D01*
X48811326Y-46746535D01*
X48773633Y-46735101D01*
X48738897Y-46716534D01*
X48708452Y-46691548D01*
X48683466Y-46661103D01*
X48664899Y-46626367D01*
X48653465Y-46588674D01*
X48649000Y-46543339D01*
X48649000Y-45456661D01*
X48653465Y-45411326D01*
X48664899Y-45373633D01*
X48683466Y-45338897D01*
X48708452Y-45308452D01*
X48738897Y-45283466D01*
X48773633Y-45264899D01*
X48811326Y-45253465D01*
X48856661Y-45249000D01*
X49693339Y-45249000D01*
X49738674Y-45253465D01*
G37*
G36*
X32113512Y-44643927D02*
G01*
X32262812Y-44673624D01*
X32426784Y-44741544D01*
X32574354Y-44840147D01*
X32699853Y-44965646D01*
X32798456Y-45113216D01*
X32866376Y-45277188D01*
X32901000Y-45451259D01*
X32901000Y-45628741D01*
X32866376Y-45802812D01*
X32798456Y-45966784D01*
X32699853Y-46114354D01*
X32574354Y-46239853D01*
X32426784Y-46338456D01*
X32262812Y-46406376D01*
X32113512Y-46436073D01*
X32088742Y-46441000D01*
X31911258Y-46441000D01*
X31886488Y-46436073D01*
X31737188Y-46406376D01*
X31573216Y-46338456D01*
X31425646Y-46239853D01*
X31300147Y-46114354D01*
X31201544Y-45966784D01*
X31133624Y-45802812D01*
X31099000Y-45628741D01*
X31099000Y-45451259D01*
X31133624Y-45277188D01*
X31201544Y-45113216D01*
X31300147Y-44965646D01*
X31425646Y-44840147D01*
X31573216Y-44741544D01*
X31737188Y-44673624D01*
X31886488Y-44643927D01*
X31911258Y-44639000D01*
X32088742Y-44639000D01*
X32113512Y-44643927D01*
G37*
G36*
X73301000Y-46401000D02*
G01*
X71199000Y-46401000D01*
X71199000Y-45099000D01*
X73301000Y-45099000D01*
X73301000Y-46401000D01*
G37*
G36*
X58301000Y-46401000D02*
G01*
X56199000Y-46401000D01*
X56199000Y-45099000D01*
X58301000Y-45099000D01*
X58301000Y-46401000D01*
G37*
G36*
X52688674Y-44503465D02*
G01*
X52726367Y-44514899D01*
X52761103Y-44533466D01*
X52791548Y-44558452D01*
X52816534Y-44588897D01*
X52835101Y-44623633D01*
X52846535Y-44661326D01*
X52851000Y-44706661D01*
X52851000Y-45793339D01*
X52846535Y-45838674D01*
X52835101Y-45876367D01*
X52816534Y-45911103D01*
X52791548Y-45941548D01*
X52761103Y-45966534D01*
X52726367Y-45985101D01*
X52688674Y-45996535D01*
X52643339Y-46001000D01*
X51806661Y-46001000D01*
X51761326Y-45996535D01*
X51723633Y-45985101D01*
X51688897Y-45966534D01*
X51658452Y-45941548D01*
X51633466Y-45911103D01*
X51614899Y-45876367D01*
X51603465Y-45838674D01*
X51599000Y-45793339D01*
X51599000Y-44706661D01*
X51603465Y-44661326D01*
X51614899Y-44623633D01*
X51633466Y-44588897D01*
X51658452Y-44558452D01*
X51688897Y-44533466D01*
X51723633Y-44514899D01*
X51761326Y-44503465D01*
X51806661Y-44499000D01*
X52643339Y-44499000D01*
X52688674Y-44503465D01*
G37*
G36*
X54738674Y-44503465D02*
G01*
X54776367Y-44514899D01*
X54811103Y-44533466D01*
X54841548Y-44558452D01*
X54866534Y-44588897D01*
X54885101Y-44623633D01*
X54896535Y-44661326D01*
X54901000Y-44706661D01*
X54901000Y-45793339D01*
X54896535Y-45838674D01*
X54885101Y-45876367D01*
X54866534Y-45911103D01*
X54841548Y-45941548D01*
X54811103Y-45966534D01*
X54776367Y-45985101D01*
X54738674Y-45996535D01*
X54693339Y-46001000D01*
X53856661Y-46001000D01*
X53811326Y-45996535D01*
X53773633Y-45985101D01*
X53738897Y-45966534D01*
X53708452Y-45941548D01*
X53683466Y-45911103D01*
X53664899Y-45876367D01*
X53653465Y-45838674D01*
X53649000Y-45793339D01*
X53649000Y-44706661D01*
X53653465Y-44661326D01*
X53664899Y-44623633D01*
X53683466Y-44588897D01*
X53708452Y-44558452D01*
X53738897Y-44533466D01*
X53773633Y-44514899D01*
X53811326Y-44503465D01*
X53856661Y-44499000D01*
X54693339Y-44499000D01*
X54738674Y-44503465D01*
G37*
G36*
X36056564Y-42239389D02*
G01*
X36247833Y-42318615D01*
X36247835Y-42318616D01*
X36419973Y-42433635D01*
X36566365Y-42580027D01*
X36681385Y-42752167D01*
X36760611Y-42943436D01*
X36801000Y-43146484D01*
X36801000Y-43353516D01*
X36760611Y-43556564D01*
X36681385Y-43747833D01*
X36681384Y-43747835D01*
X36566365Y-43919973D01*
X36419973Y-44066365D01*
X36247835Y-44181384D01*
X36247834Y-44181385D01*
X36247833Y-44181385D01*
X36056564Y-44260611D01*
X35853516Y-44301000D01*
X35646484Y-44301000D01*
X35443436Y-44260611D01*
X35252167Y-44181385D01*
X35252166Y-44181385D01*
X35252165Y-44181384D01*
X35080027Y-44066365D01*
X34933635Y-43919973D01*
X34818616Y-43747835D01*
X34818615Y-43747833D01*
X34739389Y-43556564D01*
X34699000Y-43353516D01*
X34699000Y-43146484D01*
X34739389Y-42943436D01*
X34818615Y-42752167D01*
X34933635Y-42580027D01*
X35080027Y-42433635D01*
X35252165Y-42318616D01*
X35252167Y-42318615D01*
X35443436Y-42239389D01*
X35646484Y-42199000D01*
X35853516Y-42199000D01*
X36056564Y-42239389D01*
G37*
G36*
X40556564Y-42239389D02*
G01*
X40747833Y-42318615D01*
X40747835Y-42318616D01*
X40919973Y-42433635D01*
X41066365Y-42580027D01*
X41181385Y-42752167D01*
X41260611Y-42943436D01*
X41301000Y-43146484D01*
X41301000Y-43353516D01*
X41260611Y-43556564D01*
X41181385Y-43747833D01*
X41181384Y-43747835D01*
X41066365Y-43919973D01*
X40919973Y-44066365D01*
X40747835Y-44181384D01*
X40747834Y-44181385D01*
X40747833Y-44181385D01*
X40556564Y-44260611D01*
X40353516Y-44301000D01*
X40146484Y-44301000D01*
X39943436Y-44260611D01*
X39752167Y-44181385D01*
X39752166Y-44181385D01*
X39752165Y-44181384D01*
X39580027Y-44066365D01*
X39433635Y-43919973D01*
X39318616Y-43747835D01*
X39318615Y-43747833D01*
X39239389Y-43556564D01*
X39199000Y-43353516D01*
X39199000Y-43146484D01*
X39239389Y-42943436D01*
X39318615Y-42752167D01*
X39433635Y-42580027D01*
X39580027Y-42433635D01*
X39752165Y-42318616D01*
X39752167Y-42318615D01*
X39943436Y-42239389D01*
X40146484Y-42199000D01*
X40353516Y-42199000D01*
X40556564Y-42239389D01*
G37*
G36*
X44806564Y-42239389D02*
G01*
X44997833Y-42318615D01*
X44997835Y-42318616D01*
X45169973Y-42433635D01*
X45316365Y-42580027D01*
X45431385Y-42752167D01*
X45510611Y-42943436D01*
X45551000Y-43146484D01*
X45551000Y-43353516D01*
X45510611Y-43556564D01*
X45431385Y-43747833D01*
X45431384Y-43747835D01*
X45316365Y-43919973D01*
X45169973Y-44066365D01*
X44997835Y-44181384D01*
X44997834Y-44181385D01*
X44997833Y-44181385D01*
X44806564Y-44260611D01*
X44603516Y-44301000D01*
X44396484Y-44301000D01*
X44193436Y-44260611D01*
X44002167Y-44181385D01*
X44002166Y-44181385D01*
X44002165Y-44181384D01*
X43830027Y-44066365D01*
X43683635Y-43919973D01*
X43568616Y-43747835D01*
X43568615Y-43747833D01*
X43489389Y-43556564D01*
X43449000Y-43353516D01*
X43449000Y-43146484D01*
X43489389Y-42943436D01*
X43568615Y-42752167D01*
X43683635Y-42580027D01*
X43830027Y-42433635D01*
X44002165Y-42318616D01*
X44002167Y-42318615D01*
X44193436Y-42239389D01*
X44396484Y-42199000D01*
X44603516Y-42199000D01*
X44806564Y-42239389D01*
G37*
G36*
X49306564Y-42239389D02*
G01*
X49497833Y-42318615D01*
X49497835Y-42318616D01*
X49669973Y-42433635D01*
X49816365Y-42580027D01*
X49931385Y-42752167D01*
X50010611Y-42943436D01*
X50051000Y-43146484D01*
X50051000Y-43353516D01*
X50010611Y-43556564D01*
X49931385Y-43747833D01*
X49931384Y-43747835D01*
X49816365Y-43919973D01*
X49669973Y-44066365D01*
X49497835Y-44181384D01*
X49497834Y-44181385D01*
X49497833Y-44181385D01*
X49306564Y-44260611D01*
X49103516Y-44301000D01*
X48896484Y-44301000D01*
X48693436Y-44260611D01*
X48502167Y-44181385D01*
X48502166Y-44181385D01*
X48502165Y-44181384D01*
X48330027Y-44066365D01*
X48183635Y-43919973D01*
X48068616Y-43747835D01*
X48068615Y-43747833D01*
X47989389Y-43556564D01*
X47949000Y-43353516D01*
X47949000Y-43146484D01*
X47989389Y-42943436D01*
X48068615Y-42752167D01*
X48183635Y-42580027D01*
X48330027Y-42433635D01*
X48502165Y-42318616D01*
X48502167Y-42318615D01*
X48693436Y-42239389D01*
X48896484Y-42199000D01*
X49103516Y-42199000D01*
X49306564Y-42239389D01*
G37*
G36*
X52688674Y-42503465D02*
G01*
X52726367Y-42514899D01*
X52761103Y-42533466D01*
X52791548Y-42558452D01*
X52816534Y-42588897D01*
X52835101Y-42623633D01*
X52846535Y-42661326D01*
X52851000Y-42706661D01*
X52851000Y-43793339D01*
X52846535Y-43838674D01*
X52835101Y-43876367D01*
X52816534Y-43911103D01*
X52791548Y-43941548D01*
X52761103Y-43966534D01*
X52726367Y-43985101D01*
X52688674Y-43996535D01*
X52643339Y-44001000D01*
X51806661Y-44001000D01*
X51761326Y-43996535D01*
X51723633Y-43985101D01*
X51688897Y-43966534D01*
X51658452Y-43941548D01*
X51633466Y-43911103D01*
X51614899Y-43876367D01*
X51603465Y-43838674D01*
X51599000Y-43793339D01*
X51599000Y-42706661D01*
X51603465Y-42661326D01*
X51614899Y-42623633D01*
X51633466Y-42588897D01*
X51658452Y-42558452D01*
X51688897Y-42533466D01*
X51723633Y-42514899D01*
X51761326Y-42503465D01*
X51806661Y-42499000D01*
X52643339Y-42499000D01*
X52688674Y-42503465D01*
G37*
G36*
X54738674Y-42503465D02*
G01*
X54776367Y-42514899D01*
X54811103Y-42533466D01*
X54841548Y-42558452D01*
X54866534Y-42588897D01*
X54885101Y-42623633D01*
X54896535Y-42661326D01*
X54901000Y-42706661D01*
X54901000Y-43793339D01*
X54896535Y-43838674D01*
X54885101Y-43876367D01*
X54866534Y-43911103D01*
X54841548Y-43941548D01*
X54811103Y-43966534D01*
X54776367Y-43985101D01*
X54738674Y-43996535D01*
X54693339Y-44001000D01*
X53856661Y-44001000D01*
X53811326Y-43996535D01*
X53773633Y-43985101D01*
X53738897Y-43966534D01*
X53708452Y-43941548D01*
X53683466Y-43911103D01*
X53664899Y-43876367D01*
X53653465Y-43838674D01*
X53649000Y-43793339D01*
X53649000Y-42706661D01*
X53653465Y-42661326D01*
X53664899Y-42623633D01*
X53683466Y-42588897D01*
X53708452Y-42558452D01*
X53738897Y-42533466D01*
X53773633Y-42514899D01*
X53811326Y-42503465D01*
X53856661Y-42499000D01*
X54693339Y-42499000D01*
X54738674Y-42503465D01*
G37*
G36*
X32901000Y-43901000D02*
G01*
X31099000Y-43901000D01*
X31099000Y-42099000D01*
X32901000Y-42099000D01*
X32901000Y-43901000D01*
G37*
G36*
X49306564Y-35739389D02*
G01*
X49497833Y-35818615D01*
X49497835Y-35818616D01*
X49669973Y-35933635D01*
X49816365Y-36080027D01*
X49931385Y-36252167D01*
X50010611Y-36443436D01*
X50051000Y-36646484D01*
X50051000Y-36853516D01*
X50010611Y-37056564D01*
X49931385Y-37247833D01*
X49931384Y-37247835D01*
X49816365Y-37419973D01*
X49669973Y-37566365D01*
X49497835Y-37681384D01*
X49497834Y-37681385D01*
X49497833Y-37681385D01*
X49306564Y-37760611D01*
X49103516Y-37801000D01*
X48896484Y-37801000D01*
X48693436Y-37760611D01*
X48502167Y-37681385D01*
X48502166Y-37681385D01*
X48502165Y-37681384D01*
X48330027Y-37566365D01*
X48183635Y-37419973D01*
X48068616Y-37247835D01*
X48068615Y-37247833D01*
X47989389Y-37056564D01*
X47949000Y-36853516D01*
X47949000Y-36646484D01*
X47989389Y-36443436D01*
X48068615Y-36252167D01*
X48183635Y-36080027D01*
X48330027Y-35933635D01*
X48502165Y-35818616D01*
X48502167Y-35818615D01*
X48693436Y-35739389D01*
X48896484Y-35699000D01*
X49103516Y-35699000D01*
X49306564Y-35739389D01*
G37*
G36*
X44806564Y-35739389D02*
G01*
X44997833Y-35818615D01*
X44997835Y-35818616D01*
X45169973Y-35933635D01*
X45316365Y-36080027D01*
X45431385Y-36252167D01*
X45510611Y-36443436D01*
X45551000Y-36646484D01*
X45551000Y-36853516D01*
X45510611Y-37056564D01*
X45431385Y-37247833D01*
X45431384Y-37247835D01*
X45316365Y-37419973D01*
X45169973Y-37566365D01*
X44997835Y-37681384D01*
X44997834Y-37681385D01*
X44997833Y-37681385D01*
X44806564Y-37760611D01*
X44603516Y-37801000D01*
X44396484Y-37801000D01*
X44193436Y-37760611D01*
X44002167Y-37681385D01*
X44002166Y-37681385D01*
X44002165Y-37681384D01*
X43830027Y-37566365D01*
X43683635Y-37419973D01*
X43568616Y-37247835D01*
X43568615Y-37247833D01*
X43489389Y-37056564D01*
X43449000Y-36853516D01*
X43449000Y-36646484D01*
X43489389Y-36443436D01*
X43568615Y-36252167D01*
X43683635Y-36080027D01*
X43830027Y-35933635D01*
X44002165Y-35818616D01*
X44002167Y-35818615D01*
X44193436Y-35739389D01*
X44396484Y-35699000D01*
X44603516Y-35699000D01*
X44806564Y-35739389D01*
G37*
G36*
X40556564Y-35739389D02*
G01*
X40747833Y-35818615D01*
X40747835Y-35818616D01*
X40919973Y-35933635D01*
X41066365Y-36080027D01*
X41181385Y-36252167D01*
X41260611Y-36443436D01*
X41301000Y-36646484D01*
X41301000Y-36853516D01*
X41260611Y-37056564D01*
X41181385Y-37247833D01*
X41181384Y-37247835D01*
X41066365Y-37419973D01*
X40919973Y-37566365D01*
X40747835Y-37681384D01*
X40747834Y-37681385D01*
X40747833Y-37681385D01*
X40556564Y-37760611D01*
X40353516Y-37801000D01*
X40146484Y-37801000D01*
X39943436Y-37760611D01*
X39752167Y-37681385D01*
X39752166Y-37681385D01*
X39752165Y-37681384D01*
X39580027Y-37566365D01*
X39433635Y-37419973D01*
X39318616Y-37247835D01*
X39318615Y-37247833D01*
X39239389Y-37056564D01*
X39199000Y-36853516D01*
X39199000Y-36646484D01*
X39239389Y-36443436D01*
X39318615Y-36252167D01*
X39433635Y-36080027D01*
X39580027Y-35933635D01*
X39752165Y-35818616D01*
X39752167Y-35818615D01*
X39943436Y-35739389D01*
X40146484Y-35699000D01*
X40353516Y-35699000D01*
X40556564Y-35739389D01*
G37*
G36*
X36056564Y-35739389D02*
G01*
X36247833Y-35818615D01*
X36247835Y-35818616D01*
X36419973Y-35933635D01*
X36566365Y-36080027D01*
X36681385Y-36252167D01*
X36760611Y-36443436D01*
X36801000Y-36646484D01*
X36801000Y-36853516D01*
X36760611Y-37056564D01*
X36681385Y-37247833D01*
X36681384Y-37247835D01*
X36566365Y-37419973D01*
X36419973Y-37566365D01*
X36247835Y-37681384D01*
X36247834Y-37681385D01*
X36247833Y-37681385D01*
X36056564Y-37760611D01*
X35853516Y-37801000D01*
X35646484Y-37801000D01*
X35443436Y-37760611D01*
X35252167Y-37681385D01*
X35252166Y-37681385D01*
X35252165Y-37681384D01*
X35080027Y-37566365D01*
X34933635Y-37419973D01*
X34818616Y-37247835D01*
X34818615Y-37247833D01*
X34739389Y-37056564D01*
X34699000Y-36853516D01*
X34699000Y-36646484D01*
X34739389Y-36443436D01*
X34818615Y-36252167D01*
X34933635Y-36080027D01*
X35080027Y-35933635D01*
X35252165Y-35818616D01*
X35252167Y-35818615D01*
X35443436Y-35739389D01*
X35646484Y-35699000D01*
X35853516Y-35699000D01*
X36056564Y-35739389D01*
G37*
M02*
