G04 #@! TF.GenerationSoftware,KiCad,Pcbnew,(5.1.5)-3*
G04 #@! TF.CreationDate,2021-01-02T11:20:14+01:00*
G04 #@! TF.ProjectId,esp12Board,65737031-3242-46f6-9172-642e6b696361,rev?*
G04 #@! TF.SameCoordinates,Original*
G04 #@! TF.FileFunction,Soldermask,Bot*
G04 #@! TF.FilePolarity,Negative*
%FSLAX46Y46*%
G04 Gerber Fmt 4.6, Leading zero omitted, Abs format (unit mm)*
G04 Created by KiCad (PCBNEW (5.1.5)-3) date 2021-01-02 11:20:14*
%MOMM*%
%LPD*%
G04 APERTURE LIST*
%ADD10C,0.100000*%
G04 APERTURE END LIST*
D10*
G36*
X73153512Y-80973927D02*
G01*
X73302812Y-81003624D01*
X73466784Y-81071544D01*
X73614354Y-81170147D01*
X73739853Y-81295646D01*
X73838456Y-81443216D01*
X73906376Y-81607188D01*
X73941000Y-81781259D01*
X73941000Y-81958741D01*
X73906376Y-82132812D01*
X73838456Y-82296784D01*
X73739853Y-82444354D01*
X73614354Y-82569853D01*
X73466784Y-82668456D01*
X73302812Y-82736376D01*
X73153512Y-82766073D01*
X73128742Y-82771000D01*
X72951258Y-82771000D01*
X72926488Y-82766073D01*
X72777188Y-82736376D01*
X72613216Y-82668456D01*
X72465646Y-82569853D01*
X72340147Y-82444354D01*
X72241544Y-82296784D01*
X72173624Y-82132812D01*
X72139000Y-81958741D01*
X72139000Y-81781259D01*
X72173624Y-81607188D01*
X72241544Y-81443216D01*
X72340147Y-81295646D01*
X72465646Y-81170147D01*
X72613216Y-81071544D01*
X72777188Y-81003624D01*
X72926488Y-80973927D01*
X72951258Y-80969000D01*
X73128742Y-80969000D01*
X73153512Y-80973927D01*
G37*
G36*
X70613512Y-80973927D02*
G01*
X70762812Y-81003624D01*
X70926784Y-81071544D01*
X71074354Y-81170147D01*
X71199853Y-81295646D01*
X71298456Y-81443216D01*
X71366376Y-81607188D01*
X71401000Y-81781259D01*
X71401000Y-81958741D01*
X71366376Y-82132812D01*
X71298456Y-82296784D01*
X71199853Y-82444354D01*
X71074354Y-82569853D01*
X70926784Y-82668456D01*
X70762812Y-82736376D01*
X70613512Y-82766073D01*
X70588742Y-82771000D01*
X70411258Y-82771000D01*
X70386488Y-82766073D01*
X70237188Y-82736376D01*
X70073216Y-82668456D01*
X69925646Y-82569853D01*
X69800147Y-82444354D01*
X69701544Y-82296784D01*
X69633624Y-82132812D01*
X69599000Y-81958741D01*
X69599000Y-81781259D01*
X69633624Y-81607188D01*
X69701544Y-81443216D01*
X69800147Y-81295646D01*
X69925646Y-81170147D01*
X70073216Y-81071544D01*
X70237188Y-81003624D01*
X70386488Y-80973927D01*
X70411258Y-80969000D01*
X70588742Y-80969000D01*
X70613512Y-80973927D01*
G37*
G36*
X73153512Y-78433927D02*
G01*
X73302812Y-78463624D01*
X73466784Y-78531544D01*
X73614354Y-78630147D01*
X73739853Y-78755646D01*
X73838456Y-78903216D01*
X73906376Y-79067188D01*
X73941000Y-79241259D01*
X73941000Y-79418741D01*
X73906376Y-79592812D01*
X73838456Y-79756784D01*
X73739853Y-79904354D01*
X73614354Y-80029853D01*
X73466784Y-80128456D01*
X73302812Y-80196376D01*
X73153512Y-80226073D01*
X73128742Y-80231000D01*
X72951258Y-80231000D01*
X72926488Y-80226073D01*
X72777188Y-80196376D01*
X72613216Y-80128456D01*
X72465646Y-80029853D01*
X72340147Y-79904354D01*
X72241544Y-79756784D01*
X72173624Y-79592812D01*
X72139000Y-79418741D01*
X72139000Y-79241259D01*
X72173624Y-79067188D01*
X72241544Y-78903216D01*
X72340147Y-78755646D01*
X72465646Y-78630147D01*
X72613216Y-78531544D01*
X72777188Y-78463624D01*
X72926488Y-78433927D01*
X72951258Y-78429000D01*
X73128742Y-78429000D01*
X73153512Y-78433927D01*
G37*
G36*
X70613512Y-78433927D02*
G01*
X70762812Y-78463624D01*
X70926784Y-78531544D01*
X71074354Y-78630147D01*
X71199853Y-78755646D01*
X71298456Y-78903216D01*
X71366376Y-79067188D01*
X71401000Y-79241259D01*
X71401000Y-79418741D01*
X71366376Y-79592812D01*
X71298456Y-79756784D01*
X71199853Y-79904354D01*
X71074354Y-80029853D01*
X70926784Y-80128456D01*
X70762812Y-80196376D01*
X70613512Y-80226073D01*
X70588742Y-80231000D01*
X70411258Y-80231000D01*
X70386488Y-80226073D01*
X70237188Y-80196376D01*
X70073216Y-80128456D01*
X69925646Y-80029853D01*
X69800147Y-79904354D01*
X69701544Y-79756784D01*
X69633624Y-79592812D01*
X69599000Y-79418741D01*
X69599000Y-79241259D01*
X69633624Y-79067188D01*
X69701544Y-78903216D01*
X69800147Y-78755646D01*
X69925646Y-78630147D01*
X70073216Y-78531544D01*
X70237188Y-78463624D01*
X70386488Y-78433927D01*
X70411258Y-78429000D01*
X70588742Y-78429000D01*
X70613512Y-78433927D01*
G37*
G36*
X70613512Y-75893927D02*
G01*
X70762812Y-75923624D01*
X70926784Y-75991544D01*
X71074354Y-76090147D01*
X71199853Y-76215646D01*
X71298456Y-76363216D01*
X71366376Y-76527188D01*
X71401000Y-76701259D01*
X71401000Y-76878741D01*
X71366376Y-77052812D01*
X71298456Y-77216784D01*
X71199853Y-77364354D01*
X71074354Y-77489853D01*
X70926784Y-77588456D01*
X70762812Y-77656376D01*
X70613512Y-77686073D01*
X70588742Y-77691000D01*
X70411258Y-77691000D01*
X70386488Y-77686073D01*
X70237188Y-77656376D01*
X70073216Y-77588456D01*
X69925646Y-77489853D01*
X69800147Y-77364354D01*
X69701544Y-77216784D01*
X69633624Y-77052812D01*
X69599000Y-76878741D01*
X69599000Y-76701259D01*
X69633624Y-76527188D01*
X69701544Y-76363216D01*
X69800147Y-76215646D01*
X69925646Y-76090147D01*
X70073216Y-75991544D01*
X70237188Y-75923624D01*
X70386488Y-75893927D01*
X70411258Y-75889000D01*
X70588742Y-75889000D01*
X70613512Y-75893927D01*
G37*
G36*
X73153512Y-75893927D02*
G01*
X73302812Y-75923624D01*
X73466784Y-75991544D01*
X73614354Y-76090147D01*
X73739853Y-76215646D01*
X73838456Y-76363216D01*
X73906376Y-76527188D01*
X73941000Y-76701259D01*
X73941000Y-76878741D01*
X73906376Y-77052812D01*
X73838456Y-77216784D01*
X73739853Y-77364354D01*
X73614354Y-77489853D01*
X73466784Y-77588456D01*
X73302812Y-77656376D01*
X73153512Y-77686073D01*
X73128742Y-77691000D01*
X72951258Y-77691000D01*
X72926488Y-77686073D01*
X72777188Y-77656376D01*
X72613216Y-77588456D01*
X72465646Y-77489853D01*
X72340147Y-77364354D01*
X72241544Y-77216784D01*
X72173624Y-77052812D01*
X72139000Y-76878741D01*
X72139000Y-76701259D01*
X72173624Y-76527188D01*
X72241544Y-76363216D01*
X72340147Y-76215646D01*
X72465646Y-76090147D01*
X72613216Y-75991544D01*
X72777188Y-75923624D01*
X72926488Y-75893927D01*
X72951258Y-75889000D01*
X73128742Y-75889000D01*
X73153512Y-75893927D01*
G37*
G36*
X73153512Y-73353927D02*
G01*
X73302812Y-73383624D01*
X73466784Y-73451544D01*
X73614354Y-73550147D01*
X73739853Y-73675646D01*
X73838456Y-73823216D01*
X73906376Y-73987188D01*
X73941000Y-74161259D01*
X73941000Y-74338741D01*
X73906376Y-74512812D01*
X73838456Y-74676784D01*
X73739853Y-74824354D01*
X73614354Y-74949853D01*
X73466784Y-75048456D01*
X73302812Y-75116376D01*
X73153512Y-75146073D01*
X73128742Y-75151000D01*
X72951258Y-75151000D01*
X72926488Y-75146073D01*
X72777188Y-75116376D01*
X72613216Y-75048456D01*
X72465646Y-74949853D01*
X72340147Y-74824354D01*
X72241544Y-74676784D01*
X72173624Y-74512812D01*
X72139000Y-74338741D01*
X72139000Y-74161259D01*
X72173624Y-73987188D01*
X72241544Y-73823216D01*
X72340147Y-73675646D01*
X72465646Y-73550147D01*
X72613216Y-73451544D01*
X72777188Y-73383624D01*
X72926488Y-73353927D01*
X72951258Y-73349000D01*
X73128742Y-73349000D01*
X73153512Y-73353927D01*
G37*
G36*
X71401000Y-75151000D02*
G01*
X69599000Y-75151000D01*
X69599000Y-73349000D01*
X71401000Y-73349000D01*
X71401000Y-75151000D01*
G37*
G36*
X60033512Y-70603927D02*
G01*
X60182812Y-70633624D01*
X60346784Y-70701544D01*
X60494354Y-70800147D01*
X60619853Y-70925646D01*
X60718456Y-71073216D01*
X60786376Y-71237188D01*
X60821000Y-71411259D01*
X60821000Y-71588741D01*
X60786376Y-71762812D01*
X60718456Y-71926784D01*
X60619853Y-72074354D01*
X60494354Y-72199853D01*
X60346784Y-72298456D01*
X60182812Y-72366376D01*
X60033512Y-72396073D01*
X60008742Y-72401000D01*
X59831258Y-72401000D01*
X59806488Y-72396073D01*
X59657188Y-72366376D01*
X59493216Y-72298456D01*
X59345646Y-72199853D01*
X59220147Y-72074354D01*
X59121544Y-71926784D01*
X59053624Y-71762812D01*
X59019000Y-71588741D01*
X59019000Y-71411259D01*
X59053624Y-71237188D01*
X59121544Y-71073216D01*
X59220147Y-70925646D01*
X59345646Y-70800147D01*
X59493216Y-70701544D01*
X59657188Y-70633624D01*
X59806488Y-70603927D01*
X59831258Y-70599000D01*
X60008742Y-70599000D01*
X60033512Y-70603927D01*
G37*
G36*
X62573512Y-70603927D02*
G01*
X62722812Y-70633624D01*
X62886784Y-70701544D01*
X63034354Y-70800147D01*
X63159853Y-70925646D01*
X63258456Y-71073216D01*
X63326376Y-71237188D01*
X63361000Y-71411259D01*
X63361000Y-71588741D01*
X63326376Y-71762812D01*
X63258456Y-71926784D01*
X63159853Y-72074354D01*
X63034354Y-72199853D01*
X62886784Y-72298456D01*
X62722812Y-72366376D01*
X62573512Y-72396073D01*
X62548742Y-72401000D01*
X62371258Y-72401000D01*
X62346488Y-72396073D01*
X62197188Y-72366376D01*
X62033216Y-72298456D01*
X61885646Y-72199853D01*
X61760147Y-72074354D01*
X61661544Y-71926784D01*
X61593624Y-71762812D01*
X61559000Y-71588741D01*
X61559000Y-71411259D01*
X61593624Y-71237188D01*
X61661544Y-71073216D01*
X61760147Y-70925646D01*
X61885646Y-70800147D01*
X62033216Y-70701544D01*
X62197188Y-70633624D01*
X62346488Y-70603927D01*
X62371258Y-70599000D01*
X62548742Y-70599000D01*
X62573512Y-70603927D01*
G37*
G36*
X65901000Y-72401000D02*
G01*
X64099000Y-72401000D01*
X64099000Y-70599000D01*
X65901000Y-70599000D01*
X65901000Y-72401000D01*
G37*
G36*
X37351000Y-70601000D02*
G01*
X34649000Y-70601000D01*
X34649000Y-67899000D01*
X37351000Y-67899000D01*
X37351000Y-70601000D01*
G37*
G36*
X36394072Y-62870918D02*
G01*
X36639939Y-62972759D01*
X36861212Y-63120610D01*
X37049390Y-63308788D01*
X37197241Y-63530061D01*
X37299082Y-63775928D01*
X37351000Y-64036938D01*
X37351000Y-64303062D01*
X37299082Y-64564072D01*
X37197241Y-64809939D01*
X37049390Y-65031212D01*
X36861212Y-65219390D01*
X36639939Y-65367241D01*
X36639938Y-65367242D01*
X36639937Y-65367242D01*
X36394072Y-65469082D01*
X36133063Y-65521000D01*
X35866937Y-65521000D01*
X35605928Y-65469082D01*
X35360063Y-65367242D01*
X35360062Y-65367242D01*
X35360061Y-65367241D01*
X35138788Y-65219390D01*
X34950610Y-65031212D01*
X34802759Y-64809939D01*
X34700918Y-64564072D01*
X34649000Y-64303062D01*
X34649000Y-64036938D01*
X34700918Y-63775928D01*
X34802759Y-63530061D01*
X34950610Y-63308788D01*
X35138788Y-63120610D01*
X35360061Y-62972759D01*
X35605928Y-62870918D01*
X35866937Y-62819000D01*
X36133063Y-62819000D01*
X36394072Y-62870918D01*
G37*
G36*
X32113512Y-57343927D02*
G01*
X32262812Y-57373624D01*
X32426784Y-57441544D01*
X32574354Y-57540147D01*
X32699853Y-57665646D01*
X32798456Y-57813216D01*
X32866376Y-57977188D01*
X32901000Y-58151259D01*
X32901000Y-58328741D01*
X32866376Y-58502812D01*
X32798456Y-58666784D01*
X32699853Y-58814354D01*
X32574354Y-58939853D01*
X32426784Y-59038456D01*
X32262812Y-59106376D01*
X32113512Y-59136073D01*
X32088742Y-59141000D01*
X31911258Y-59141000D01*
X31886488Y-59136073D01*
X31737188Y-59106376D01*
X31573216Y-59038456D01*
X31425646Y-58939853D01*
X31300147Y-58814354D01*
X31201544Y-58666784D01*
X31133624Y-58502812D01*
X31099000Y-58328741D01*
X31099000Y-58151259D01*
X31133624Y-57977188D01*
X31201544Y-57813216D01*
X31300147Y-57665646D01*
X31425646Y-57540147D01*
X31573216Y-57441544D01*
X31737188Y-57373624D01*
X31886488Y-57343927D01*
X31911258Y-57339000D01*
X32088742Y-57339000D01*
X32113512Y-57343927D01*
G37*
G36*
X32113512Y-54803927D02*
G01*
X32262812Y-54833624D01*
X32426784Y-54901544D01*
X32574354Y-55000147D01*
X32699853Y-55125646D01*
X32798456Y-55273216D01*
X32866376Y-55437188D01*
X32901000Y-55611259D01*
X32901000Y-55788741D01*
X32866376Y-55962812D01*
X32798456Y-56126784D01*
X32699853Y-56274354D01*
X32574354Y-56399853D01*
X32426784Y-56498456D01*
X32262812Y-56566376D01*
X32113512Y-56596073D01*
X32088742Y-56601000D01*
X31911258Y-56601000D01*
X31886488Y-56596073D01*
X31737188Y-56566376D01*
X31573216Y-56498456D01*
X31425646Y-56399853D01*
X31300147Y-56274354D01*
X31201544Y-56126784D01*
X31133624Y-55962812D01*
X31099000Y-55788741D01*
X31099000Y-55611259D01*
X31133624Y-55437188D01*
X31201544Y-55273216D01*
X31300147Y-55125646D01*
X31425646Y-55000147D01*
X31573216Y-54901544D01*
X31737188Y-54833624D01*
X31886488Y-54803927D01*
X31911258Y-54799000D01*
X32088742Y-54799000D01*
X32113512Y-54803927D01*
G37*
G36*
X32113512Y-52263927D02*
G01*
X32262812Y-52293624D01*
X32426784Y-52361544D01*
X32574354Y-52460147D01*
X32699853Y-52585646D01*
X32798456Y-52733216D01*
X32866376Y-52897188D01*
X32901000Y-53071259D01*
X32901000Y-53248741D01*
X32866376Y-53422812D01*
X32798456Y-53586784D01*
X32699853Y-53734354D01*
X32574354Y-53859853D01*
X32426784Y-53958456D01*
X32262812Y-54026376D01*
X32113512Y-54056073D01*
X32088742Y-54061000D01*
X31911258Y-54061000D01*
X31886488Y-54056073D01*
X31737188Y-54026376D01*
X31573216Y-53958456D01*
X31425646Y-53859853D01*
X31300147Y-53734354D01*
X31201544Y-53586784D01*
X31133624Y-53422812D01*
X31099000Y-53248741D01*
X31099000Y-53071259D01*
X31133624Y-52897188D01*
X31201544Y-52733216D01*
X31300147Y-52585646D01*
X31425646Y-52460147D01*
X31573216Y-52361544D01*
X31737188Y-52293624D01*
X31886488Y-52263927D01*
X31911258Y-52259000D01*
X32088742Y-52259000D01*
X32113512Y-52263927D01*
G37*
G36*
X32113512Y-49723927D02*
G01*
X32262812Y-49753624D01*
X32426784Y-49821544D01*
X32574354Y-49920147D01*
X32699853Y-50045646D01*
X32798456Y-50193216D01*
X32866376Y-50357188D01*
X32901000Y-50531259D01*
X32901000Y-50708741D01*
X32866376Y-50882812D01*
X32798456Y-51046784D01*
X32699853Y-51194354D01*
X32574354Y-51319853D01*
X32426784Y-51418456D01*
X32262812Y-51486376D01*
X32113512Y-51516073D01*
X32088742Y-51521000D01*
X31911258Y-51521000D01*
X31886488Y-51516073D01*
X31737188Y-51486376D01*
X31573216Y-51418456D01*
X31425646Y-51319853D01*
X31300147Y-51194354D01*
X31201544Y-51046784D01*
X31133624Y-50882812D01*
X31099000Y-50708741D01*
X31099000Y-50531259D01*
X31133624Y-50357188D01*
X31201544Y-50193216D01*
X31300147Y-50045646D01*
X31425646Y-49920147D01*
X31573216Y-49821544D01*
X31737188Y-49753624D01*
X31886488Y-49723927D01*
X31911258Y-49719000D01*
X32088742Y-49719000D01*
X32113512Y-49723927D01*
G37*
G36*
X32113512Y-47183927D02*
G01*
X32262812Y-47213624D01*
X32426784Y-47281544D01*
X32574354Y-47380147D01*
X32699853Y-47505646D01*
X32798456Y-47653216D01*
X32866376Y-47817188D01*
X32901000Y-47991259D01*
X32901000Y-48168741D01*
X32866376Y-48342812D01*
X32798456Y-48506784D01*
X32699853Y-48654354D01*
X32574354Y-48779853D01*
X32426784Y-48878456D01*
X32262812Y-48946376D01*
X32113512Y-48976073D01*
X32088742Y-48981000D01*
X31911258Y-48981000D01*
X31886488Y-48976073D01*
X31737188Y-48946376D01*
X31573216Y-48878456D01*
X31425646Y-48779853D01*
X31300147Y-48654354D01*
X31201544Y-48506784D01*
X31133624Y-48342812D01*
X31099000Y-48168741D01*
X31099000Y-47991259D01*
X31133624Y-47817188D01*
X31201544Y-47653216D01*
X31300147Y-47505646D01*
X31425646Y-47380147D01*
X31573216Y-47281544D01*
X31737188Y-47213624D01*
X31886488Y-47183927D01*
X31911258Y-47179000D01*
X32088742Y-47179000D01*
X32113512Y-47183927D01*
G37*
G36*
X32113512Y-44643927D02*
G01*
X32262812Y-44673624D01*
X32426784Y-44741544D01*
X32574354Y-44840147D01*
X32699853Y-44965646D01*
X32798456Y-45113216D01*
X32866376Y-45277188D01*
X32901000Y-45451259D01*
X32901000Y-45628741D01*
X32866376Y-45802812D01*
X32798456Y-45966784D01*
X32699853Y-46114354D01*
X32574354Y-46239853D01*
X32426784Y-46338456D01*
X32262812Y-46406376D01*
X32113512Y-46436073D01*
X32088742Y-46441000D01*
X31911258Y-46441000D01*
X31886488Y-46436073D01*
X31737188Y-46406376D01*
X31573216Y-46338456D01*
X31425646Y-46239853D01*
X31300147Y-46114354D01*
X31201544Y-45966784D01*
X31133624Y-45802812D01*
X31099000Y-45628741D01*
X31099000Y-45451259D01*
X31133624Y-45277188D01*
X31201544Y-45113216D01*
X31300147Y-44965646D01*
X31425646Y-44840147D01*
X31573216Y-44741544D01*
X31737188Y-44673624D01*
X31886488Y-44643927D01*
X31911258Y-44639000D01*
X32088742Y-44639000D01*
X32113512Y-44643927D01*
G37*
G36*
X36056564Y-42239389D02*
G01*
X36247833Y-42318615D01*
X36247835Y-42318616D01*
X36419973Y-42433635D01*
X36566365Y-42580027D01*
X36681385Y-42752167D01*
X36760611Y-42943436D01*
X36801000Y-43146484D01*
X36801000Y-43353516D01*
X36760611Y-43556564D01*
X36681385Y-43747833D01*
X36681384Y-43747835D01*
X36566365Y-43919973D01*
X36419973Y-44066365D01*
X36247835Y-44181384D01*
X36247834Y-44181385D01*
X36247833Y-44181385D01*
X36056564Y-44260611D01*
X35853516Y-44301000D01*
X35646484Y-44301000D01*
X35443436Y-44260611D01*
X35252167Y-44181385D01*
X35252166Y-44181385D01*
X35252165Y-44181384D01*
X35080027Y-44066365D01*
X34933635Y-43919973D01*
X34818616Y-43747835D01*
X34818615Y-43747833D01*
X34739389Y-43556564D01*
X34699000Y-43353516D01*
X34699000Y-43146484D01*
X34739389Y-42943436D01*
X34818615Y-42752167D01*
X34933635Y-42580027D01*
X35080027Y-42433635D01*
X35252165Y-42318616D01*
X35252167Y-42318615D01*
X35443436Y-42239389D01*
X35646484Y-42199000D01*
X35853516Y-42199000D01*
X36056564Y-42239389D01*
G37*
G36*
X49306564Y-42239389D02*
G01*
X49497833Y-42318615D01*
X49497835Y-42318616D01*
X49669973Y-42433635D01*
X49816365Y-42580027D01*
X49931385Y-42752167D01*
X50010611Y-42943436D01*
X50051000Y-43146484D01*
X50051000Y-43353516D01*
X50010611Y-43556564D01*
X49931385Y-43747833D01*
X49931384Y-43747835D01*
X49816365Y-43919973D01*
X49669973Y-44066365D01*
X49497835Y-44181384D01*
X49497834Y-44181385D01*
X49497833Y-44181385D01*
X49306564Y-44260611D01*
X49103516Y-44301000D01*
X48896484Y-44301000D01*
X48693436Y-44260611D01*
X48502167Y-44181385D01*
X48502166Y-44181385D01*
X48502165Y-44181384D01*
X48330027Y-44066365D01*
X48183635Y-43919973D01*
X48068616Y-43747835D01*
X48068615Y-43747833D01*
X47989389Y-43556564D01*
X47949000Y-43353516D01*
X47949000Y-43146484D01*
X47989389Y-42943436D01*
X48068615Y-42752167D01*
X48183635Y-42580027D01*
X48330027Y-42433635D01*
X48502165Y-42318616D01*
X48502167Y-42318615D01*
X48693436Y-42239389D01*
X48896484Y-42199000D01*
X49103516Y-42199000D01*
X49306564Y-42239389D01*
G37*
G36*
X44806564Y-42239389D02*
G01*
X44997833Y-42318615D01*
X44997835Y-42318616D01*
X45169973Y-42433635D01*
X45316365Y-42580027D01*
X45431385Y-42752167D01*
X45510611Y-42943436D01*
X45551000Y-43146484D01*
X45551000Y-43353516D01*
X45510611Y-43556564D01*
X45431385Y-43747833D01*
X45431384Y-43747835D01*
X45316365Y-43919973D01*
X45169973Y-44066365D01*
X44997835Y-44181384D01*
X44997834Y-44181385D01*
X44997833Y-44181385D01*
X44806564Y-44260611D01*
X44603516Y-44301000D01*
X44396484Y-44301000D01*
X44193436Y-44260611D01*
X44002167Y-44181385D01*
X44002166Y-44181385D01*
X44002165Y-44181384D01*
X43830027Y-44066365D01*
X43683635Y-43919973D01*
X43568616Y-43747835D01*
X43568615Y-43747833D01*
X43489389Y-43556564D01*
X43449000Y-43353516D01*
X43449000Y-43146484D01*
X43489389Y-42943436D01*
X43568615Y-42752167D01*
X43683635Y-42580027D01*
X43830027Y-42433635D01*
X44002165Y-42318616D01*
X44002167Y-42318615D01*
X44193436Y-42239389D01*
X44396484Y-42199000D01*
X44603516Y-42199000D01*
X44806564Y-42239389D01*
G37*
G36*
X40556564Y-42239389D02*
G01*
X40747833Y-42318615D01*
X40747835Y-42318616D01*
X40919973Y-42433635D01*
X41066365Y-42580027D01*
X41181385Y-42752167D01*
X41260611Y-42943436D01*
X41301000Y-43146484D01*
X41301000Y-43353516D01*
X41260611Y-43556564D01*
X41181385Y-43747833D01*
X41181384Y-43747835D01*
X41066365Y-43919973D01*
X40919973Y-44066365D01*
X40747835Y-44181384D01*
X40747834Y-44181385D01*
X40747833Y-44181385D01*
X40556564Y-44260611D01*
X40353516Y-44301000D01*
X40146484Y-44301000D01*
X39943436Y-44260611D01*
X39752167Y-44181385D01*
X39752166Y-44181385D01*
X39752165Y-44181384D01*
X39580027Y-44066365D01*
X39433635Y-43919973D01*
X39318616Y-43747835D01*
X39318615Y-43747833D01*
X39239389Y-43556564D01*
X39199000Y-43353516D01*
X39199000Y-43146484D01*
X39239389Y-42943436D01*
X39318615Y-42752167D01*
X39433635Y-42580027D01*
X39580027Y-42433635D01*
X39752165Y-42318616D01*
X39752167Y-42318615D01*
X39943436Y-42239389D01*
X40146484Y-42199000D01*
X40353516Y-42199000D01*
X40556564Y-42239389D01*
G37*
G36*
X32901000Y-43901000D02*
G01*
X31099000Y-43901000D01*
X31099000Y-42099000D01*
X32901000Y-42099000D01*
X32901000Y-43901000D01*
G37*
G36*
X44806564Y-35739389D02*
G01*
X44997833Y-35818615D01*
X44997835Y-35818616D01*
X45169973Y-35933635D01*
X45316365Y-36080027D01*
X45431385Y-36252167D01*
X45510611Y-36443436D01*
X45551000Y-36646484D01*
X45551000Y-36853516D01*
X45510611Y-37056564D01*
X45431385Y-37247833D01*
X45431384Y-37247835D01*
X45316365Y-37419973D01*
X45169973Y-37566365D01*
X44997835Y-37681384D01*
X44997834Y-37681385D01*
X44997833Y-37681385D01*
X44806564Y-37760611D01*
X44603516Y-37801000D01*
X44396484Y-37801000D01*
X44193436Y-37760611D01*
X44002167Y-37681385D01*
X44002166Y-37681385D01*
X44002165Y-37681384D01*
X43830027Y-37566365D01*
X43683635Y-37419973D01*
X43568616Y-37247835D01*
X43568615Y-37247833D01*
X43489389Y-37056564D01*
X43449000Y-36853516D01*
X43449000Y-36646484D01*
X43489389Y-36443436D01*
X43568615Y-36252167D01*
X43683635Y-36080027D01*
X43830027Y-35933635D01*
X44002165Y-35818616D01*
X44002167Y-35818615D01*
X44193436Y-35739389D01*
X44396484Y-35699000D01*
X44603516Y-35699000D01*
X44806564Y-35739389D01*
G37*
G36*
X49306564Y-35739389D02*
G01*
X49497833Y-35818615D01*
X49497835Y-35818616D01*
X49669973Y-35933635D01*
X49816365Y-36080027D01*
X49931385Y-36252167D01*
X50010611Y-36443436D01*
X50051000Y-36646484D01*
X50051000Y-36853516D01*
X50010611Y-37056564D01*
X49931385Y-37247833D01*
X49931384Y-37247835D01*
X49816365Y-37419973D01*
X49669973Y-37566365D01*
X49497835Y-37681384D01*
X49497834Y-37681385D01*
X49497833Y-37681385D01*
X49306564Y-37760611D01*
X49103516Y-37801000D01*
X48896484Y-37801000D01*
X48693436Y-37760611D01*
X48502167Y-37681385D01*
X48502166Y-37681385D01*
X48502165Y-37681384D01*
X48330027Y-37566365D01*
X48183635Y-37419973D01*
X48068616Y-37247835D01*
X48068615Y-37247833D01*
X47989389Y-37056564D01*
X47949000Y-36853516D01*
X47949000Y-36646484D01*
X47989389Y-36443436D01*
X48068615Y-36252167D01*
X48183635Y-36080027D01*
X48330027Y-35933635D01*
X48502165Y-35818616D01*
X48502167Y-35818615D01*
X48693436Y-35739389D01*
X48896484Y-35699000D01*
X49103516Y-35699000D01*
X49306564Y-35739389D01*
G37*
G36*
X36056564Y-35739389D02*
G01*
X36247833Y-35818615D01*
X36247835Y-35818616D01*
X36419973Y-35933635D01*
X36566365Y-36080027D01*
X36681385Y-36252167D01*
X36760611Y-36443436D01*
X36801000Y-36646484D01*
X36801000Y-36853516D01*
X36760611Y-37056564D01*
X36681385Y-37247833D01*
X36681384Y-37247835D01*
X36566365Y-37419973D01*
X36419973Y-37566365D01*
X36247835Y-37681384D01*
X36247834Y-37681385D01*
X36247833Y-37681385D01*
X36056564Y-37760611D01*
X35853516Y-37801000D01*
X35646484Y-37801000D01*
X35443436Y-37760611D01*
X35252167Y-37681385D01*
X35252166Y-37681385D01*
X35252165Y-37681384D01*
X35080027Y-37566365D01*
X34933635Y-37419973D01*
X34818616Y-37247835D01*
X34818615Y-37247833D01*
X34739389Y-37056564D01*
X34699000Y-36853516D01*
X34699000Y-36646484D01*
X34739389Y-36443436D01*
X34818615Y-36252167D01*
X34933635Y-36080027D01*
X35080027Y-35933635D01*
X35252165Y-35818616D01*
X35252167Y-35818615D01*
X35443436Y-35739389D01*
X35646484Y-35699000D01*
X35853516Y-35699000D01*
X36056564Y-35739389D01*
G37*
G36*
X40556564Y-35739389D02*
G01*
X40747833Y-35818615D01*
X40747835Y-35818616D01*
X40919973Y-35933635D01*
X41066365Y-36080027D01*
X41181385Y-36252167D01*
X41260611Y-36443436D01*
X41301000Y-36646484D01*
X41301000Y-36853516D01*
X41260611Y-37056564D01*
X41181385Y-37247833D01*
X41181384Y-37247835D01*
X41066365Y-37419973D01*
X40919973Y-37566365D01*
X40747835Y-37681384D01*
X40747834Y-37681385D01*
X40747833Y-37681385D01*
X40556564Y-37760611D01*
X40353516Y-37801000D01*
X40146484Y-37801000D01*
X39943436Y-37760611D01*
X39752167Y-37681385D01*
X39752166Y-37681385D01*
X39752165Y-37681384D01*
X39580027Y-37566365D01*
X39433635Y-37419973D01*
X39318616Y-37247835D01*
X39318615Y-37247833D01*
X39239389Y-37056564D01*
X39199000Y-36853516D01*
X39199000Y-36646484D01*
X39239389Y-36443436D01*
X39318615Y-36252167D01*
X39433635Y-36080027D01*
X39580027Y-35933635D01*
X39752165Y-35818616D01*
X39752167Y-35818615D01*
X39943436Y-35739389D01*
X40146484Y-35699000D01*
X40353516Y-35699000D01*
X40556564Y-35739389D01*
G37*
M02*
