G04 #@! TF.GenerationSoftware,KiCad,Pcbnew,(5.1.5)-3*
G04 #@! TF.CreationDate,2021-01-02T11:20:14+01:00*
G04 #@! TF.ProjectId,esp12Board,65737031-3242-46f6-9172-642e6b696361,rev?*
G04 #@! TF.SameCoordinates,Original*
G04 #@! TF.FileFunction,Legend,Top*
G04 #@! TF.FilePolarity,Positive*
%FSLAX46Y46*%
G04 Gerber Fmt 4.6, Leading zero omitted, Abs format (unit mm)*
G04 Created by KiCad (PCBNEW (5.1.5)-3) date 2021-01-02 11:20:14*
%MOMM*%
%LPD*%
G04 APERTURE LIST*
%ADD10C,0.120000*%
%ADD11C,0.127000*%
%ADD12C,0.200000*%
%ADD13C,0.150000*%
%ADD14C,0.015000*%
%ADD15C,0.254000*%
G04 APERTURE END LIST*
D10*
X40900000Y-72090000D02*
X40900000Y-71590000D01*
X40160000Y-72090000D02*
X40900000Y-72090000D01*
X37023000Y-65397000D02*
X37069000Y-65444000D01*
X34725000Y-63100000D02*
X34761000Y-63135000D01*
X37239000Y-65204000D02*
X37274000Y-65239000D01*
X34931000Y-62895000D02*
X34977000Y-62942000D01*
X30739000Y-61570000D02*
X40660000Y-61570000D01*
X30739000Y-71850000D02*
X40660000Y-71850000D01*
X40660000Y-71850000D02*
X40660000Y-61570000D01*
X30739000Y-71850000D02*
X30739000Y-61570000D01*
X33699000Y-71850000D02*
X33699000Y-61570000D01*
X38600000Y-71850000D02*
X38600000Y-61570000D01*
X40100000Y-71850000D02*
X40100000Y-61570000D01*
X37680000Y-64170000D02*
G75*
G03X37680000Y-64170000I-1680000J0D01*
G01*
X37680253Y-69221195D02*
G75*
G02X37535000Y-69934000I-1680253J-28805D01*
G01*
X36683042Y-70785426D02*
G75*
G02X35316000Y-70785000I-683042J1535426D01*
G01*
X34464574Y-69933042D02*
G75*
G02X34465000Y-68566000I1535426J683042D01*
G01*
X35316958Y-67714574D02*
G75*
G02X36684000Y-67715000I683042J-1535426D01*
G01*
X37534756Y-68566682D02*
G75*
G02X37680000Y-69250000I-1534756J-683318D01*
G01*
X47840000Y-65850000D02*
X47840000Y-59840000D01*
X54660000Y-63600000D02*
X54660000Y-59840000D01*
X47840000Y-59840000D02*
X49100000Y-59840000D01*
X54660000Y-59840000D02*
X53400000Y-59840000D01*
D11*
X55750000Y-44875000D02*
G75*
G03X55750000Y-44875000I-250000J0D01*
G01*
X72750000Y-61250000D02*
X70750000Y-61250000D01*
X72750000Y-60750000D02*
X72750000Y-61250000D01*
X56750000Y-61250000D02*
X58750000Y-61250000D01*
X56750000Y-60750000D02*
X56750000Y-61250000D01*
X72750000Y-37250000D02*
X72750000Y-44750000D01*
X56750000Y-37250000D02*
X72750000Y-37250000D01*
X56750000Y-44750000D02*
X56750000Y-37250000D01*
X58750000Y-60010000D02*
X58750000Y-45010000D01*
X70750000Y-60010000D02*
X58750000Y-60010000D01*
X70750000Y-45010000D02*
X70750000Y-60010000D01*
X58750000Y-45010000D02*
X70750000Y-45010000D01*
D10*
X37250000Y-43500000D02*
X38750000Y-43500000D01*
X41250000Y-42250000D02*
X41250000Y-37750000D01*
X38750000Y-36500000D02*
X37250000Y-36500000D01*
X34750000Y-37750000D02*
X34750000Y-42250000D01*
X46000000Y-43500000D02*
X47500000Y-43500000D01*
X50000000Y-42250000D02*
X50000000Y-37750000D01*
X47500000Y-36500000D02*
X46000000Y-36500000D01*
X43500000Y-37750000D02*
X43500000Y-42250000D01*
X55040000Y-80738748D02*
X55040000Y-81261252D01*
X56460000Y-80738748D02*
X56460000Y-81261252D01*
X56710000Y-76511252D02*
X56710000Y-75988748D01*
X55290000Y-76511252D02*
X55290000Y-75988748D01*
X56710000Y-72011252D02*
X56710000Y-71488748D01*
X55290000Y-72011252D02*
X55290000Y-71488748D01*
X52261252Y-81540000D02*
X51738748Y-81540000D01*
X52261252Y-82960000D02*
X51738748Y-82960000D01*
X68290000Y-65488748D02*
X68290000Y-66011252D01*
X69710000Y-65488748D02*
X69710000Y-66011252D01*
X66960000Y-66011252D02*
X66960000Y-65488748D01*
X65540000Y-66011252D02*
X65540000Y-65488748D01*
X40960000Y-47511252D02*
X40960000Y-46988748D01*
X39540000Y-47511252D02*
X39540000Y-46988748D01*
X47988748Y-46710000D02*
X48511252Y-46710000D01*
X47988748Y-45290000D02*
X48511252Y-45290000D01*
X45710000Y-51761252D02*
X45710000Y-51238748D01*
X44290000Y-51761252D02*
X44290000Y-51238748D01*
X50790000Y-51488748D02*
X50790000Y-52011252D01*
X52210000Y-51488748D02*
X52210000Y-52011252D01*
X52988748Y-45960000D02*
X53511252Y-45960000D01*
X52988748Y-44540000D02*
X53511252Y-44540000D01*
X74460000Y-66011252D02*
X74460000Y-65488748D01*
X73040000Y-66011252D02*
X73040000Y-65488748D01*
X72210000Y-66011252D02*
X72210000Y-65488748D01*
X70790000Y-66011252D02*
X70790000Y-65488748D01*
X52988748Y-48460000D02*
X53511252Y-48460000D01*
X52988748Y-47040000D02*
X53511252Y-47040000D01*
X47490000Y-47920000D02*
X48950000Y-47920000D01*
X47490000Y-51080000D02*
X49650000Y-51080000D01*
X47490000Y-51080000D02*
X47490000Y-50150000D01*
X47490000Y-47920000D02*
X47490000Y-48850000D01*
X47490000Y-52670000D02*
X48950000Y-52670000D01*
X47490000Y-55830000D02*
X49650000Y-55830000D01*
X47490000Y-55830000D02*
X47490000Y-54900000D01*
X47490000Y-52670000D02*
X47490000Y-53600000D01*
X52950000Y-69040000D02*
X53800000Y-69040000D01*
X53800000Y-75960000D02*
X52950000Y-75960000D01*
X48250000Y-69040000D02*
X49050000Y-69040000D01*
X47590000Y-75350000D02*
X47590000Y-69700000D01*
X49050000Y-75960000D02*
X48200000Y-75960000D01*
X48200000Y-75960000D02*
G75*
G02X47590000Y-75350000I0J610000D01*
G01*
X47590000Y-69700000D02*
G75*
G02X48250000Y-69040000I660000J0D01*
G01*
X54410000Y-69650000D02*
X54410000Y-75350000D01*
X54410000Y-75350000D02*
G75*
G02X53800000Y-75960000I-610000J0D01*
G01*
X53800000Y-69040000D02*
G75*
G02X54410000Y-69650000I0J-610000D01*
G01*
X38650000Y-52000000D02*
X35850000Y-52000000D01*
X35850000Y-52000000D02*
X35850000Y-50000000D01*
X35850000Y-50000000D02*
X38650000Y-50000000D01*
X38650000Y-50000000D02*
X38650000Y-52000000D01*
X69170000Y-72920000D02*
X70500000Y-72920000D01*
X69170000Y-74250000D02*
X69170000Y-72920000D01*
X71770000Y-72920000D02*
X74370000Y-72920000D01*
X71770000Y-75520000D02*
X71770000Y-72920000D01*
X69170000Y-75520000D02*
X71770000Y-75520000D01*
X74370000Y-72920000D02*
X74370000Y-83200000D01*
X69170000Y-75520000D02*
X69170000Y-83200000D01*
X69170000Y-83200000D02*
X74370000Y-83200000D01*
X66330000Y-70170000D02*
X66330000Y-71500000D01*
X65000000Y-70170000D02*
X66330000Y-70170000D01*
X63730000Y-70170000D02*
X63730000Y-72830000D01*
X63730000Y-72830000D02*
X58590000Y-72830000D01*
X63730000Y-70170000D02*
X58590000Y-70170000D01*
X58590000Y-70170000D02*
X58590000Y-72830000D01*
X30670000Y-41670000D02*
X32000000Y-41670000D01*
X30670000Y-43000000D02*
X30670000Y-41670000D01*
X30670000Y-44270000D02*
X33330000Y-44270000D01*
X33330000Y-44270000D02*
X33330000Y-59570000D01*
X30670000Y-44270000D02*
X30670000Y-59570000D01*
X30670000Y-59570000D02*
X33330000Y-59570000D01*
D12*
X39025000Y-78920000D02*
X40550000Y-78920000D01*
X40900000Y-83950000D02*
X40900000Y-79050000D01*
X44100000Y-83950000D02*
X40900000Y-83950000D01*
X44100000Y-79050000D02*
X44100000Y-83950000D01*
X40900000Y-79050000D02*
X44100000Y-79050000D01*
D10*
X45750000Y-75500000D02*
X41850000Y-75500000D01*
X45750000Y-73500000D02*
X41850000Y-73500000D01*
X45750000Y-75500000D02*
X45750000Y-73500000D01*
X45011252Y-70290000D02*
X44488748Y-70290000D01*
X45011252Y-71710000D02*
X44488748Y-71710000D01*
X45011252Y-65040000D02*
X44488748Y-65040000D01*
X45011252Y-66460000D02*
X44488748Y-66460000D01*
X45011252Y-67790000D02*
X44488748Y-67790000D01*
X45011252Y-69210000D02*
X44488748Y-69210000D01*
X42540000Y-60988748D02*
X42540000Y-61511252D01*
X43960000Y-60988748D02*
X43960000Y-61511252D01*
X51921267Y-79490000D02*
X51578733Y-79490000D01*
X51921267Y-80510000D02*
X51578733Y-80510000D01*
X45290000Y-60988748D02*
X45290000Y-61511252D01*
X46710000Y-60988748D02*
X46710000Y-61511252D01*
X48960000Y-81511252D02*
X48960000Y-80988748D01*
X47540000Y-81511252D02*
X47540000Y-80988748D01*
X46261252Y-76790000D02*
X45738748Y-76790000D01*
X46261252Y-78210000D02*
X45738748Y-78210000D01*
X59960000Y-66011252D02*
X59960000Y-65488748D01*
X58540000Y-66011252D02*
X58540000Y-65488748D01*
X57410000Y-66352064D02*
X57410000Y-65147936D01*
X55590000Y-66352064D02*
X55590000Y-65147936D01*
X36740000Y-82328733D02*
X36740000Y-82671267D01*
X37760000Y-82328733D02*
X37760000Y-82671267D01*
X37410000Y-76602064D02*
X37410000Y-75397936D01*
X35590000Y-76602064D02*
X35590000Y-75397936D01*
X42635000Y-52990000D02*
X38250000Y-52990000D01*
X42635000Y-56010000D02*
X42635000Y-52990000D01*
X38250000Y-56010000D02*
X42635000Y-56010000D01*
X62460000Y-66011252D02*
X62460000Y-65488748D01*
X61040000Y-66011252D02*
X61040000Y-65488748D01*
X41352064Y-56840000D02*
X40147936Y-56840000D01*
X41352064Y-58660000D02*
X40147936Y-58660000D01*
X52988748Y-43960000D02*
X53511252Y-43960000D01*
X52988748Y-42540000D02*
X53511252Y-42540000D01*
D13*
X29192380Y-67043333D02*
X29906666Y-67043333D01*
X30049523Y-67090952D01*
X30144761Y-67186190D01*
X30192380Y-67329047D01*
X30192380Y-67424285D01*
X29525714Y-66138571D02*
X30192380Y-66138571D01*
X29144761Y-66376666D02*
X29859047Y-66614761D01*
X29859047Y-65995714D01*
X46202380Y-62511904D02*
X47011904Y-62511904D01*
X47107142Y-62464285D01*
X47154761Y-62416666D01*
X47202380Y-62321428D01*
X47202380Y-62130952D01*
X47154761Y-62035714D01*
X47107142Y-61988095D01*
X47011904Y-61940476D01*
X46202380Y-61940476D01*
X46297619Y-61511904D02*
X46250000Y-61464285D01*
X46202380Y-61369047D01*
X46202380Y-61130952D01*
X46250000Y-61035714D01*
X46297619Y-60988095D01*
X46392857Y-60940476D01*
X46488095Y-60940476D01*
X46630952Y-60988095D01*
X47202380Y-61559523D01*
X47202380Y-60940476D01*
D14*
X58408217Y-35804368D02*
X58408217Y-36614516D01*
X58455872Y-36709828D01*
X58503528Y-36757484D01*
X58598840Y-36805140D01*
X58789463Y-36805140D01*
X58884775Y-36757484D01*
X58932430Y-36709828D01*
X58980086Y-36614516D01*
X58980086Y-35804368D01*
X59980858Y-36805140D02*
X59408989Y-36805140D01*
X59694923Y-36805140D02*
X59694923Y-35804368D01*
X59599612Y-35947335D01*
X59504300Y-36042647D01*
X59408989Y-36090303D01*
D13*
X42654761Y-41333333D02*
X42702380Y-41190476D01*
X42702380Y-40952380D01*
X42654761Y-40857142D01*
X42607142Y-40809523D01*
X42511904Y-40761904D01*
X42416666Y-40761904D01*
X42321428Y-40809523D01*
X42273809Y-40857142D01*
X42226190Y-40952380D01*
X42178571Y-41142857D01*
X42130952Y-41238095D01*
X42083333Y-41285714D01*
X41988095Y-41333333D01*
X41892857Y-41333333D01*
X41797619Y-41285714D01*
X41750000Y-41238095D01*
X41702380Y-41142857D01*
X41702380Y-40904761D01*
X41750000Y-40761904D01*
X41702380Y-40428571D02*
X42702380Y-40190476D01*
X41988095Y-40000000D01*
X42702380Y-39809523D01*
X41702380Y-39571428D01*
X41797619Y-39238095D02*
X41750000Y-39190476D01*
X41702380Y-39095238D01*
X41702380Y-38857142D01*
X41750000Y-38761904D01*
X41797619Y-38714285D01*
X41892857Y-38666666D01*
X41988095Y-38666666D01*
X42130952Y-38714285D01*
X42702380Y-39285714D01*
X42702380Y-38666666D01*
X51404761Y-41333333D02*
X51452380Y-41190476D01*
X51452380Y-40952380D01*
X51404761Y-40857142D01*
X51357142Y-40809523D01*
X51261904Y-40761904D01*
X51166666Y-40761904D01*
X51071428Y-40809523D01*
X51023809Y-40857142D01*
X50976190Y-40952380D01*
X50928571Y-41142857D01*
X50880952Y-41238095D01*
X50833333Y-41285714D01*
X50738095Y-41333333D01*
X50642857Y-41333333D01*
X50547619Y-41285714D01*
X50500000Y-41238095D01*
X50452380Y-41142857D01*
X50452380Y-40904761D01*
X50500000Y-40761904D01*
X50452380Y-40428571D02*
X51452380Y-40190476D01*
X50738095Y-40000000D01*
X51452380Y-39809523D01*
X50452380Y-39571428D01*
X51452380Y-38666666D02*
X51452380Y-39238095D01*
X51452380Y-38952380D02*
X50452380Y-38952380D01*
X50595238Y-39047619D01*
X50690476Y-39142857D01*
X50738095Y-39238095D01*
X57852380Y-81642857D02*
X57376190Y-81976190D01*
X57852380Y-82214285D02*
X56852380Y-82214285D01*
X56852380Y-81833333D01*
X56900000Y-81738095D01*
X56947619Y-81690476D01*
X57042857Y-81642857D01*
X57185714Y-81642857D01*
X57280952Y-81690476D01*
X57328571Y-81738095D01*
X57376190Y-81833333D01*
X57376190Y-82214285D01*
X57852380Y-80690476D02*
X57852380Y-81261904D01*
X57852380Y-80976190D02*
X56852380Y-80976190D01*
X56995238Y-81071428D01*
X57090476Y-81166666D01*
X57138095Y-81261904D01*
X57185714Y-79833333D02*
X57852380Y-79833333D01*
X56804761Y-80071428D02*
X57519047Y-80309523D01*
X57519047Y-79690476D01*
X54802380Y-76892857D02*
X54326190Y-77226190D01*
X54802380Y-77464285D02*
X53802380Y-77464285D01*
X53802380Y-77083333D01*
X53850000Y-76988095D01*
X53897619Y-76940476D01*
X53992857Y-76892857D01*
X54135714Y-76892857D01*
X54230952Y-76940476D01*
X54278571Y-76988095D01*
X54326190Y-77083333D01*
X54326190Y-77464285D01*
X54802380Y-75940476D02*
X54802380Y-76511904D01*
X54802380Y-76226190D02*
X53802380Y-76226190D01*
X53945238Y-76321428D01*
X54040476Y-76416666D01*
X54088095Y-76511904D01*
X53802380Y-75607142D02*
X53802380Y-74988095D01*
X54183333Y-75321428D01*
X54183333Y-75178571D01*
X54230952Y-75083333D01*
X54278571Y-75035714D01*
X54373809Y-74988095D01*
X54611904Y-74988095D01*
X54707142Y-75035714D01*
X54754761Y-75083333D01*
X54802380Y-75178571D01*
X54802380Y-75464285D01*
X54754761Y-75559523D01*
X54707142Y-75607142D01*
X54802380Y-72392857D02*
X54326190Y-72726190D01*
X54802380Y-72964285D02*
X53802380Y-72964285D01*
X53802380Y-72583333D01*
X53850000Y-72488095D01*
X53897619Y-72440476D01*
X53992857Y-72392857D01*
X54135714Y-72392857D01*
X54230952Y-72440476D01*
X54278571Y-72488095D01*
X54326190Y-72583333D01*
X54326190Y-72964285D01*
X54802380Y-71440476D02*
X54802380Y-72011904D01*
X54802380Y-71726190D02*
X53802380Y-71726190D01*
X53945238Y-71821428D01*
X54040476Y-71916666D01*
X54088095Y-72011904D01*
X53897619Y-71059523D02*
X53850000Y-71011904D01*
X53802380Y-70916666D01*
X53802380Y-70678571D01*
X53850000Y-70583333D01*
X53897619Y-70535714D01*
X53992857Y-70488095D01*
X54088095Y-70488095D01*
X54230952Y-70535714D01*
X54802380Y-71107142D01*
X54802380Y-70488095D01*
X51357142Y-84352380D02*
X51023809Y-83876190D01*
X50785714Y-84352380D02*
X50785714Y-83352380D01*
X51166666Y-83352380D01*
X51261904Y-83400000D01*
X51309523Y-83447619D01*
X51357142Y-83542857D01*
X51357142Y-83685714D01*
X51309523Y-83780952D01*
X51261904Y-83828571D01*
X51166666Y-83876190D01*
X50785714Y-83876190D01*
X52309523Y-84352380D02*
X51738095Y-84352380D01*
X52023809Y-84352380D02*
X52023809Y-83352380D01*
X51928571Y-83495238D01*
X51833333Y-83590476D01*
X51738095Y-83638095D01*
X53261904Y-84352380D02*
X52690476Y-84352380D01*
X52976190Y-84352380D02*
X52976190Y-83352380D01*
X52880952Y-83495238D01*
X52785714Y-83590476D01*
X52690476Y-83638095D01*
X71102380Y-66392857D02*
X70626190Y-66726190D01*
X71102380Y-66964285D02*
X70102380Y-66964285D01*
X70102380Y-66583333D01*
X70150000Y-66488095D01*
X70197619Y-66440476D01*
X70292857Y-66392857D01*
X70435714Y-66392857D01*
X70530952Y-66440476D01*
X70578571Y-66488095D01*
X70626190Y-66583333D01*
X70626190Y-66964285D01*
X71102380Y-65440476D02*
X71102380Y-66011904D01*
X71102380Y-65726190D02*
X70102380Y-65726190D01*
X70245238Y-65821428D01*
X70340476Y-65916666D01*
X70388095Y-66011904D01*
X70102380Y-64821428D02*
X70102380Y-64726190D01*
X70150000Y-64630952D01*
X70197619Y-64583333D01*
X70292857Y-64535714D01*
X70483333Y-64488095D01*
X70721428Y-64488095D01*
X70911904Y-64535714D01*
X71007142Y-64583333D01*
X71054761Y-64630952D01*
X71102380Y-64726190D01*
X71102380Y-64821428D01*
X71054761Y-64916666D01*
X71007142Y-64964285D01*
X70911904Y-65011904D01*
X70721428Y-65059523D01*
X70483333Y-65059523D01*
X70292857Y-65011904D01*
X70197619Y-64964285D01*
X70150000Y-64916666D01*
X70102380Y-64821428D01*
X65052380Y-65916666D02*
X64576190Y-66250000D01*
X65052380Y-66488095D02*
X64052380Y-66488095D01*
X64052380Y-66107142D01*
X64100000Y-66011904D01*
X64147619Y-65964285D01*
X64242857Y-65916666D01*
X64385714Y-65916666D01*
X64480952Y-65964285D01*
X64528571Y-66011904D01*
X64576190Y-66107142D01*
X64576190Y-66488095D01*
X65052380Y-65440476D02*
X65052380Y-65250000D01*
X65004761Y-65154761D01*
X64957142Y-65107142D01*
X64814285Y-65011904D01*
X64623809Y-64964285D01*
X64242857Y-64964285D01*
X64147619Y-65011904D01*
X64100000Y-65059523D01*
X64052380Y-65154761D01*
X64052380Y-65345238D01*
X64100000Y-65440476D01*
X64147619Y-65488095D01*
X64242857Y-65535714D01*
X64480952Y-65535714D01*
X64576190Y-65488095D01*
X64623809Y-65440476D01*
X64671428Y-65345238D01*
X64671428Y-65154761D01*
X64623809Y-65059523D01*
X64576190Y-65011904D01*
X64480952Y-64964285D01*
X39052380Y-47416666D02*
X38576190Y-47750000D01*
X39052380Y-47988095D02*
X38052380Y-47988095D01*
X38052380Y-47607142D01*
X38100000Y-47511904D01*
X38147619Y-47464285D01*
X38242857Y-47416666D01*
X38385714Y-47416666D01*
X38480952Y-47464285D01*
X38528571Y-47511904D01*
X38576190Y-47607142D01*
X38576190Y-47988095D01*
X38480952Y-46845238D02*
X38433333Y-46940476D01*
X38385714Y-46988095D01*
X38290476Y-47035714D01*
X38242857Y-47035714D01*
X38147619Y-46988095D01*
X38100000Y-46940476D01*
X38052380Y-46845238D01*
X38052380Y-46654761D01*
X38100000Y-46559523D01*
X38147619Y-46511904D01*
X38242857Y-46464285D01*
X38290476Y-46464285D01*
X38385714Y-46511904D01*
X38433333Y-46559523D01*
X38480952Y-46654761D01*
X38480952Y-46845238D01*
X38528571Y-46940476D01*
X38576190Y-46988095D01*
X38671428Y-47035714D01*
X38861904Y-47035714D01*
X38957142Y-46988095D01*
X39004761Y-46940476D01*
X39052380Y-46845238D01*
X39052380Y-46654761D01*
X39004761Y-46559523D01*
X38957142Y-46511904D01*
X38861904Y-46464285D01*
X38671428Y-46464285D01*
X38576190Y-46511904D01*
X38528571Y-46559523D01*
X38480952Y-46654761D01*
X48083333Y-44802380D02*
X47750000Y-44326190D01*
X47511904Y-44802380D02*
X47511904Y-43802380D01*
X47892857Y-43802380D01*
X47988095Y-43850000D01*
X48035714Y-43897619D01*
X48083333Y-43992857D01*
X48083333Y-44135714D01*
X48035714Y-44230952D01*
X47988095Y-44278571D01*
X47892857Y-44326190D01*
X47511904Y-44326190D01*
X48416666Y-43802380D02*
X49083333Y-43802380D01*
X48654761Y-44802380D01*
X43802380Y-51666666D02*
X43326190Y-52000000D01*
X43802380Y-52238095D02*
X42802380Y-52238095D01*
X42802380Y-51857142D01*
X42850000Y-51761904D01*
X42897619Y-51714285D01*
X42992857Y-51666666D01*
X43135714Y-51666666D01*
X43230952Y-51714285D01*
X43278571Y-51761904D01*
X43326190Y-51857142D01*
X43326190Y-52238095D01*
X42802380Y-50809523D02*
X42802380Y-51000000D01*
X42850000Y-51095238D01*
X42897619Y-51142857D01*
X43040476Y-51238095D01*
X43230952Y-51285714D01*
X43611904Y-51285714D01*
X43707142Y-51238095D01*
X43754761Y-51190476D01*
X43802380Y-51095238D01*
X43802380Y-50904761D01*
X43754761Y-50809523D01*
X43707142Y-50761904D01*
X43611904Y-50714285D01*
X43373809Y-50714285D01*
X43278571Y-50761904D01*
X43230952Y-50809523D01*
X43183333Y-50904761D01*
X43183333Y-51095238D01*
X43230952Y-51190476D01*
X43278571Y-51238095D01*
X43373809Y-51285714D01*
X53602380Y-51916666D02*
X53126190Y-52250000D01*
X53602380Y-52488095D02*
X52602380Y-52488095D01*
X52602380Y-52107142D01*
X52650000Y-52011904D01*
X52697619Y-51964285D01*
X52792857Y-51916666D01*
X52935714Y-51916666D01*
X53030952Y-51964285D01*
X53078571Y-52011904D01*
X53126190Y-52107142D01*
X53126190Y-52488095D01*
X52602380Y-51011904D02*
X52602380Y-51488095D01*
X53078571Y-51535714D01*
X53030952Y-51488095D01*
X52983333Y-51392857D01*
X52983333Y-51154761D01*
X53030952Y-51059523D01*
X53078571Y-51011904D01*
X53173809Y-50964285D01*
X53411904Y-50964285D01*
X53507142Y-51011904D01*
X53554761Y-51059523D01*
X53602380Y-51154761D01*
X53602380Y-51392857D01*
X53554761Y-51488095D01*
X53507142Y-51535714D01*
X53083333Y-44052380D02*
X52750000Y-43576190D01*
X52511904Y-44052380D02*
X52511904Y-43052380D01*
X52892857Y-43052380D01*
X52988095Y-43100000D01*
X53035714Y-43147619D01*
X53083333Y-43242857D01*
X53083333Y-43385714D01*
X53035714Y-43480952D01*
X52988095Y-43528571D01*
X52892857Y-43576190D01*
X52511904Y-43576190D01*
X53940476Y-43385714D02*
X53940476Y-44052380D01*
X53702380Y-43004761D02*
X53464285Y-43719047D01*
X54083333Y-43719047D01*
X72552380Y-65916666D02*
X72076190Y-66250000D01*
X72552380Y-66488095D02*
X71552380Y-66488095D01*
X71552380Y-66107142D01*
X71600000Y-66011904D01*
X71647619Y-65964285D01*
X71742857Y-65916666D01*
X71885714Y-65916666D01*
X71980952Y-65964285D01*
X72028571Y-66011904D01*
X72076190Y-66107142D01*
X72076190Y-66488095D01*
X71552380Y-65583333D02*
X71552380Y-64964285D01*
X71933333Y-65297619D01*
X71933333Y-65154761D01*
X71980952Y-65059523D01*
X72028571Y-65011904D01*
X72123809Y-64964285D01*
X72361904Y-64964285D01*
X72457142Y-65011904D01*
X72504761Y-65059523D01*
X72552380Y-65154761D01*
X72552380Y-65440476D01*
X72504761Y-65535714D01*
X72457142Y-65583333D01*
X70302380Y-65916666D02*
X69826190Y-66250000D01*
X70302380Y-66488095D02*
X69302380Y-66488095D01*
X69302380Y-66107142D01*
X69350000Y-66011904D01*
X69397619Y-65964285D01*
X69492857Y-65916666D01*
X69635714Y-65916666D01*
X69730952Y-65964285D01*
X69778571Y-66011904D01*
X69826190Y-66107142D01*
X69826190Y-66488095D01*
X69397619Y-65535714D02*
X69350000Y-65488095D01*
X69302380Y-65392857D01*
X69302380Y-65154761D01*
X69350000Y-65059523D01*
X69397619Y-65011904D01*
X69492857Y-64964285D01*
X69588095Y-64964285D01*
X69730952Y-65011904D01*
X70302380Y-65583333D01*
X70302380Y-64964285D01*
X53083333Y-46552380D02*
X52750000Y-46076190D01*
X52511904Y-46552380D02*
X52511904Y-45552380D01*
X52892857Y-45552380D01*
X52988095Y-45600000D01*
X53035714Y-45647619D01*
X53083333Y-45742857D01*
X53083333Y-45885714D01*
X53035714Y-45980952D01*
X52988095Y-46028571D01*
X52892857Y-46076190D01*
X52511904Y-46076190D01*
X54035714Y-46552380D02*
X53464285Y-46552380D01*
X53750000Y-46552380D02*
X53750000Y-45552380D01*
X53654761Y-45695238D01*
X53559523Y-45790476D01*
X53464285Y-45838095D01*
X48154761Y-52547619D02*
X48059523Y-52500000D01*
X47964285Y-52404761D01*
X47821428Y-52261904D01*
X47726190Y-52214285D01*
X47630952Y-52214285D01*
X47678571Y-52452380D02*
X47583333Y-52404761D01*
X47488095Y-52309523D01*
X47440476Y-52119047D01*
X47440476Y-51785714D01*
X47488095Y-51595238D01*
X47583333Y-51500000D01*
X47678571Y-51452380D01*
X47869047Y-51452380D01*
X47964285Y-51500000D01*
X48059523Y-51595238D01*
X48107142Y-51785714D01*
X48107142Y-52119047D01*
X48059523Y-52309523D01*
X47964285Y-52404761D01*
X47869047Y-52452380D01*
X47678571Y-52452380D01*
X48488095Y-51547619D02*
X48535714Y-51500000D01*
X48630952Y-51452380D01*
X48869047Y-51452380D01*
X48964285Y-51500000D01*
X49011904Y-51547619D01*
X49059523Y-51642857D01*
X49059523Y-51738095D01*
X49011904Y-51880952D01*
X48440476Y-52452380D01*
X49059523Y-52452380D01*
X48154761Y-57297619D02*
X48059523Y-57250000D01*
X47964285Y-57154761D01*
X47821428Y-57011904D01*
X47726190Y-56964285D01*
X47630952Y-56964285D01*
X47678571Y-57202380D02*
X47583333Y-57154761D01*
X47488095Y-57059523D01*
X47440476Y-56869047D01*
X47440476Y-56535714D01*
X47488095Y-56345238D01*
X47583333Y-56250000D01*
X47678571Y-56202380D01*
X47869047Y-56202380D01*
X47964285Y-56250000D01*
X48059523Y-56345238D01*
X48107142Y-56535714D01*
X48107142Y-56869047D01*
X48059523Y-57059523D01*
X47964285Y-57154761D01*
X47869047Y-57202380D01*
X47678571Y-57202380D01*
X49059523Y-57202380D02*
X48488095Y-57202380D01*
X48773809Y-57202380D02*
X48773809Y-56202380D01*
X48678571Y-56345238D01*
X48583333Y-56440476D01*
X48488095Y-56488095D01*
X55652380Y-72666666D02*
X55652380Y-73142857D01*
X54652380Y-73142857D01*
X55652380Y-71809523D02*
X55652380Y-72380952D01*
X55652380Y-72095238D02*
X54652380Y-72095238D01*
X54795238Y-72190476D01*
X54890476Y-72285714D01*
X54938095Y-72380952D01*
X36416666Y-52252380D02*
X36416666Y-52966666D01*
X36369047Y-53109523D01*
X36273809Y-53204761D01*
X36130952Y-53252380D01*
X36035714Y-53252380D01*
X36892857Y-53252380D02*
X36892857Y-52252380D01*
X37273809Y-52252380D01*
X37369047Y-52300000D01*
X37416666Y-52347619D01*
X37464285Y-52442857D01*
X37464285Y-52585714D01*
X37416666Y-52680952D01*
X37369047Y-52728571D01*
X37273809Y-52776190D01*
X36892857Y-52776190D01*
X38416666Y-53252380D02*
X37845238Y-53252380D01*
X38130952Y-53252380D02*
X38130952Y-52252380D01*
X38035714Y-52395238D01*
X37940476Y-52490476D01*
X37845238Y-52538095D01*
X71436666Y-71372380D02*
X71436666Y-72086666D01*
X71389047Y-72229523D01*
X71293809Y-72324761D01*
X71150952Y-72372380D01*
X71055714Y-72372380D01*
X71817619Y-71372380D02*
X72436666Y-71372380D01*
X72103333Y-71753333D01*
X72246190Y-71753333D01*
X72341428Y-71800952D01*
X72389047Y-71848571D01*
X72436666Y-71943809D01*
X72436666Y-72181904D01*
X72389047Y-72277142D01*
X72341428Y-72324761D01*
X72246190Y-72372380D01*
X71960476Y-72372380D01*
X71865238Y-72324761D01*
X71817619Y-72277142D01*
X66782380Y-71833333D02*
X67496666Y-71833333D01*
X67639523Y-71880952D01*
X67734761Y-71976190D01*
X67782380Y-72119047D01*
X67782380Y-72214285D01*
X66877619Y-71404761D02*
X66830000Y-71357142D01*
X66782380Y-71261904D01*
X66782380Y-71023809D01*
X66830000Y-70928571D01*
X66877619Y-70880952D01*
X66972857Y-70833333D01*
X67068095Y-70833333D01*
X67210952Y-70880952D01*
X67782380Y-71452380D01*
X67782380Y-70833333D01*
X31666666Y-40122380D02*
X31666666Y-40836666D01*
X31619047Y-40979523D01*
X31523809Y-41074761D01*
X31380952Y-41122380D01*
X31285714Y-41122380D01*
X32666666Y-41122380D02*
X32095238Y-41122380D01*
X32380952Y-41122380D02*
X32380952Y-40122380D01*
X32285714Y-40265238D01*
X32190476Y-40360476D01*
X32095238Y-40408095D01*
D15*
X41260238Y-82074523D02*
X41260238Y-80804523D01*
X42590714Y-81953571D02*
X42530238Y-82014047D01*
X42348809Y-82074523D01*
X42227857Y-82074523D01*
X42046428Y-82014047D01*
X41925476Y-81893095D01*
X41865000Y-81772142D01*
X41804523Y-81530238D01*
X41804523Y-81348809D01*
X41865000Y-81106904D01*
X41925476Y-80985952D01*
X42046428Y-80865000D01*
X42227857Y-80804523D01*
X42348809Y-80804523D01*
X42530238Y-80865000D01*
X42590714Y-80925476D01*
X43800238Y-82074523D02*
X43074523Y-82074523D01*
X43437380Y-82074523D02*
X43437380Y-80804523D01*
X43316428Y-80985952D01*
X43195476Y-81106904D01*
X43074523Y-81167380D01*
D13*
X42761904Y-76952380D02*
X42761904Y-75952380D01*
X43000000Y-75952380D01*
X43142857Y-76000000D01*
X43238095Y-76095238D01*
X43285714Y-76190476D01*
X43333333Y-76380952D01*
X43333333Y-76523809D01*
X43285714Y-76714285D01*
X43238095Y-76809523D01*
X43142857Y-76904761D01*
X43000000Y-76952380D01*
X42761904Y-76952380D01*
X44285714Y-76952380D02*
X43714285Y-76952380D01*
X44000000Y-76952380D02*
X44000000Y-75952380D01*
X43904761Y-76095238D01*
X43809523Y-76190476D01*
X43714285Y-76238095D01*
X44107142Y-73007142D02*
X44059523Y-73054761D01*
X43916666Y-73102380D01*
X43821428Y-73102380D01*
X43678571Y-73054761D01*
X43583333Y-72959523D01*
X43535714Y-72864285D01*
X43488095Y-72673809D01*
X43488095Y-72530952D01*
X43535714Y-72340476D01*
X43583333Y-72245238D01*
X43678571Y-72150000D01*
X43821428Y-72102380D01*
X43916666Y-72102380D01*
X44059523Y-72150000D01*
X44107142Y-72197619D01*
X45059523Y-73102380D02*
X44488095Y-73102380D01*
X44773809Y-73102380D02*
X44773809Y-72102380D01*
X44678571Y-72245238D01*
X44583333Y-72340476D01*
X44488095Y-72388095D01*
X45916666Y-72102380D02*
X45726190Y-72102380D01*
X45630952Y-72150000D01*
X45583333Y-72197619D01*
X45488095Y-72340476D01*
X45440476Y-72530952D01*
X45440476Y-72911904D01*
X45488095Y-73007142D01*
X45535714Y-73054761D01*
X45630952Y-73102380D01*
X45821428Y-73102380D01*
X45916666Y-73054761D01*
X45964285Y-73007142D01*
X46011904Y-72911904D01*
X46011904Y-72673809D01*
X45964285Y-72578571D01*
X45916666Y-72530952D01*
X45821428Y-72483333D01*
X45630952Y-72483333D01*
X45535714Y-72530952D01*
X45488095Y-72578571D01*
X45440476Y-72673809D01*
X44107142Y-67757142D02*
X44059523Y-67804761D01*
X43916666Y-67852380D01*
X43821428Y-67852380D01*
X43678571Y-67804761D01*
X43583333Y-67709523D01*
X43535714Y-67614285D01*
X43488095Y-67423809D01*
X43488095Y-67280952D01*
X43535714Y-67090476D01*
X43583333Y-66995238D01*
X43678571Y-66900000D01*
X43821428Y-66852380D01*
X43916666Y-66852380D01*
X44059523Y-66900000D01*
X44107142Y-66947619D01*
X45059523Y-67852380D02*
X44488095Y-67852380D01*
X44773809Y-67852380D02*
X44773809Y-66852380D01*
X44678571Y-66995238D01*
X44583333Y-67090476D01*
X44488095Y-67138095D01*
X45964285Y-66852380D02*
X45488095Y-66852380D01*
X45440476Y-67328571D01*
X45488095Y-67280952D01*
X45583333Y-67233333D01*
X45821428Y-67233333D01*
X45916666Y-67280952D01*
X45964285Y-67328571D01*
X46011904Y-67423809D01*
X46011904Y-67661904D01*
X45964285Y-67757142D01*
X45916666Y-67804761D01*
X45821428Y-67852380D01*
X45583333Y-67852380D01*
X45488095Y-67804761D01*
X45440476Y-67757142D01*
X44107142Y-70507142D02*
X44059523Y-70554761D01*
X43916666Y-70602380D01*
X43821428Y-70602380D01*
X43678571Y-70554761D01*
X43583333Y-70459523D01*
X43535714Y-70364285D01*
X43488095Y-70173809D01*
X43488095Y-70030952D01*
X43535714Y-69840476D01*
X43583333Y-69745238D01*
X43678571Y-69650000D01*
X43821428Y-69602380D01*
X43916666Y-69602380D01*
X44059523Y-69650000D01*
X44107142Y-69697619D01*
X45059523Y-70602380D02*
X44488095Y-70602380D01*
X44773809Y-70602380D02*
X44773809Y-69602380D01*
X44678571Y-69745238D01*
X44583333Y-69840476D01*
X44488095Y-69888095D01*
X45916666Y-69935714D02*
X45916666Y-70602380D01*
X45678571Y-69554761D02*
X45440476Y-70269047D01*
X46059523Y-70269047D01*
X45257142Y-61892857D02*
X45304761Y-61940476D01*
X45352380Y-62083333D01*
X45352380Y-62178571D01*
X45304761Y-62321428D01*
X45209523Y-62416666D01*
X45114285Y-62464285D01*
X44923809Y-62511904D01*
X44780952Y-62511904D01*
X44590476Y-62464285D01*
X44495238Y-62416666D01*
X44400000Y-62321428D01*
X44352380Y-62178571D01*
X44352380Y-62083333D01*
X44400000Y-61940476D01*
X44447619Y-61892857D01*
X45352380Y-60940476D02*
X45352380Y-61511904D01*
X45352380Y-61226190D02*
X44352380Y-61226190D01*
X44495238Y-61321428D01*
X44590476Y-61416666D01*
X44638095Y-61511904D01*
X44352380Y-60607142D02*
X44352380Y-59988095D01*
X44733333Y-60321428D01*
X44733333Y-60178571D01*
X44780952Y-60083333D01*
X44828571Y-60035714D01*
X44923809Y-59988095D01*
X45161904Y-59988095D01*
X45257142Y-60035714D01*
X45304761Y-60083333D01*
X45352380Y-60178571D01*
X45352380Y-60464285D01*
X45304761Y-60559523D01*
X45257142Y-60607142D01*
X51107142Y-81787142D02*
X51059523Y-81834761D01*
X50916666Y-81882380D01*
X50821428Y-81882380D01*
X50678571Y-81834761D01*
X50583333Y-81739523D01*
X50535714Y-81644285D01*
X50488095Y-81453809D01*
X50488095Y-81310952D01*
X50535714Y-81120476D01*
X50583333Y-81025238D01*
X50678571Y-80930000D01*
X50821428Y-80882380D01*
X50916666Y-80882380D01*
X51059523Y-80930000D01*
X51107142Y-80977619D01*
X52059523Y-81882380D02*
X51488095Y-81882380D01*
X51773809Y-81882380D02*
X51773809Y-80882380D01*
X51678571Y-81025238D01*
X51583333Y-81120476D01*
X51488095Y-81168095D01*
X52440476Y-80977619D02*
X52488095Y-80930000D01*
X52583333Y-80882380D01*
X52821428Y-80882380D01*
X52916666Y-80930000D01*
X52964285Y-80977619D01*
X53011904Y-81072857D01*
X53011904Y-81168095D01*
X52964285Y-81310952D01*
X52392857Y-81882380D01*
X53011904Y-81882380D01*
X48007142Y-61892857D02*
X48054761Y-61940476D01*
X48102380Y-62083333D01*
X48102380Y-62178571D01*
X48054761Y-62321428D01*
X47959523Y-62416666D01*
X47864285Y-62464285D01*
X47673809Y-62511904D01*
X47530952Y-62511904D01*
X47340476Y-62464285D01*
X47245238Y-62416666D01*
X47150000Y-62321428D01*
X47102380Y-62178571D01*
X47102380Y-62083333D01*
X47150000Y-61940476D01*
X47197619Y-61892857D01*
X48102380Y-60940476D02*
X48102380Y-61511904D01*
X48102380Y-61226190D02*
X47102380Y-61226190D01*
X47245238Y-61321428D01*
X47340476Y-61416666D01*
X47388095Y-61511904D01*
X48102380Y-59988095D02*
X48102380Y-60559523D01*
X48102380Y-60273809D02*
X47102380Y-60273809D01*
X47245238Y-60369047D01*
X47340476Y-60464285D01*
X47388095Y-60559523D01*
X46957142Y-81892857D02*
X47004761Y-81940476D01*
X47052380Y-82083333D01*
X47052380Y-82178571D01*
X47004761Y-82321428D01*
X46909523Y-82416666D01*
X46814285Y-82464285D01*
X46623809Y-82511904D01*
X46480952Y-82511904D01*
X46290476Y-82464285D01*
X46195238Y-82416666D01*
X46100000Y-82321428D01*
X46052380Y-82178571D01*
X46052380Y-82083333D01*
X46100000Y-81940476D01*
X46147619Y-81892857D01*
X47052380Y-80940476D02*
X47052380Y-81511904D01*
X47052380Y-81226190D02*
X46052380Y-81226190D01*
X46195238Y-81321428D01*
X46290476Y-81416666D01*
X46338095Y-81511904D01*
X46052380Y-80321428D02*
X46052380Y-80226190D01*
X46100000Y-80130952D01*
X46147619Y-80083333D01*
X46242857Y-80035714D01*
X46433333Y-79988095D01*
X46671428Y-79988095D01*
X46861904Y-80035714D01*
X46957142Y-80083333D01*
X47004761Y-80130952D01*
X47052380Y-80226190D01*
X47052380Y-80321428D01*
X47004761Y-80416666D01*
X46957142Y-80464285D01*
X46861904Y-80511904D01*
X46671428Y-80559523D01*
X46433333Y-80559523D01*
X46242857Y-80511904D01*
X46147619Y-80464285D01*
X46100000Y-80416666D01*
X46052380Y-80321428D01*
X45833333Y-79507142D02*
X45785714Y-79554761D01*
X45642857Y-79602380D01*
X45547619Y-79602380D01*
X45404761Y-79554761D01*
X45309523Y-79459523D01*
X45261904Y-79364285D01*
X45214285Y-79173809D01*
X45214285Y-79030952D01*
X45261904Y-78840476D01*
X45309523Y-78745238D01*
X45404761Y-78650000D01*
X45547619Y-78602380D01*
X45642857Y-78602380D01*
X45785714Y-78650000D01*
X45833333Y-78697619D01*
X46309523Y-79602380D02*
X46500000Y-79602380D01*
X46595238Y-79554761D01*
X46642857Y-79507142D01*
X46738095Y-79364285D01*
X46785714Y-79173809D01*
X46785714Y-78792857D01*
X46738095Y-78697619D01*
X46690476Y-78650000D01*
X46595238Y-78602380D01*
X46404761Y-78602380D01*
X46309523Y-78650000D01*
X46261904Y-78697619D01*
X46214285Y-78792857D01*
X46214285Y-79030952D01*
X46261904Y-79126190D01*
X46309523Y-79173809D01*
X46404761Y-79221428D01*
X46595238Y-79221428D01*
X46690476Y-79173809D01*
X46738095Y-79126190D01*
X46785714Y-79030952D01*
X57957142Y-65916666D02*
X58004761Y-65964285D01*
X58052380Y-66107142D01*
X58052380Y-66202380D01*
X58004761Y-66345238D01*
X57909523Y-66440476D01*
X57814285Y-66488095D01*
X57623809Y-66535714D01*
X57480952Y-66535714D01*
X57290476Y-66488095D01*
X57195238Y-66440476D01*
X57100000Y-66345238D01*
X57052380Y-66202380D01*
X57052380Y-66107142D01*
X57100000Y-65964285D01*
X57147619Y-65916666D01*
X57480952Y-65345238D02*
X57433333Y-65440476D01*
X57385714Y-65488095D01*
X57290476Y-65535714D01*
X57242857Y-65535714D01*
X57147619Y-65488095D01*
X57100000Y-65440476D01*
X57052380Y-65345238D01*
X57052380Y-65154761D01*
X57100000Y-65059523D01*
X57147619Y-65011904D01*
X57242857Y-64964285D01*
X57290476Y-64964285D01*
X57385714Y-65011904D01*
X57433333Y-65059523D01*
X57480952Y-65154761D01*
X57480952Y-65345238D01*
X57528571Y-65440476D01*
X57576190Y-65488095D01*
X57671428Y-65535714D01*
X57861904Y-65535714D01*
X57957142Y-65488095D01*
X58004761Y-65440476D01*
X58052380Y-65345238D01*
X58052380Y-65154761D01*
X58004761Y-65059523D01*
X57957142Y-65011904D01*
X57861904Y-64964285D01*
X57671428Y-64964285D01*
X57576190Y-65011904D01*
X57528571Y-65059523D01*
X57480952Y-65154761D01*
X55037142Y-65916666D02*
X55084761Y-65964285D01*
X55132380Y-66107142D01*
X55132380Y-66202380D01*
X55084761Y-66345238D01*
X54989523Y-66440476D01*
X54894285Y-66488095D01*
X54703809Y-66535714D01*
X54560952Y-66535714D01*
X54370476Y-66488095D01*
X54275238Y-66440476D01*
X54180000Y-66345238D01*
X54132380Y-66202380D01*
X54132380Y-66107142D01*
X54180000Y-65964285D01*
X54227619Y-65916666D01*
X54132380Y-65583333D02*
X54132380Y-64916666D01*
X55132380Y-65345238D01*
X39037142Y-82666666D02*
X39084761Y-82714285D01*
X39132380Y-82857142D01*
X39132380Y-82952380D01*
X39084761Y-83095238D01*
X38989523Y-83190476D01*
X38894285Y-83238095D01*
X38703809Y-83285714D01*
X38560952Y-83285714D01*
X38370476Y-83238095D01*
X38275238Y-83190476D01*
X38180000Y-83095238D01*
X38132380Y-82952380D01*
X38132380Y-82857142D01*
X38180000Y-82714285D01*
X38227619Y-82666666D01*
X38132380Y-81809523D02*
X38132380Y-82000000D01*
X38180000Y-82095238D01*
X38227619Y-82142857D01*
X38370476Y-82238095D01*
X38560952Y-82285714D01*
X38941904Y-82285714D01*
X39037142Y-82238095D01*
X39084761Y-82190476D01*
X39132380Y-82095238D01*
X39132380Y-81904761D01*
X39084761Y-81809523D01*
X39037142Y-81761904D01*
X38941904Y-81714285D01*
X38703809Y-81714285D01*
X38608571Y-81761904D01*
X38560952Y-81809523D01*
X38513333Y-81904761D01*
X38513333Y-82095238D01*
X38560952Y-82190476D01*
X38608571Y-82238095D01*
X38703809Y-82285714D01*
X35037142Y-76166666D02*
X35084761Y-76214285D01*
X35132380Y-76357142D01*
X35132380Y-76452380D01*
X35084761Y-76595238D01*
X34989523Y-76690476D01*
X34894285Y-76738095D01*
X34703809Y-76785714D01*
X34560952Y-76785714D01*
X34370476Y-76738095D01*
X34275238Y-76690476D01*
X34180000Y-76595238D01*
X34132380Y-76452380D01*
X34132380Y-76357142D01*
X34180000Y-76214285D01*
X34227619Y-76166666D01*
X34132380Y-75261904D02*
X34132380Y-75738095D01*
X34608571Y-75785714D01*
X34560952Y-75738095D01*
X34513333Y-75642857D01*
X34513333Y-75404761D01*
X34560952Y-75309523D01*
X34608571Y-75261904D01*
X34703809Y-75214285D01*
X34941904Y-75214285D01*
X35037142Y-75261904D01*
X35084761Y-75309523D01*
X35132380Y-75404761D01*
X35132380Y-75642857D01*
X35084761Y-75738095D01*
X35037142Y-75785714D01*
X39833333Y-57207142D02*
X39785714Y-57254761D01*
X39642857Y-57302380D01*
X39547619Y-57302380D01*
X39404761Y-57254761D01*
X39309523Y-57159523D01*
X39261904Y-57064285D01*
X39214285Y-56873809D01*
X39214285Y-56730952D01*
X39261904Y-56540476D01*
X39309523Y-56445238D01*
X39404761Y-56350000D01*
X39547619Y-56302380D01*
X39642857Y-56302380D01*
X39785714Y-56350000D01*
X39833333Y-56397619D01*
X40690476Y-56635714D02*
X40690476Y-57302380D01*
X40452380Y-56254761D02*
X40214285Y-56969047D01*
X40833333Y-56969047D01*
X60457142Y-65916666D02*
X60504761Y-65964285D01*
X60552380Y-66107142D01*
X60552380Y-66202380D01*
X60504761Y-66345238D01*
X60409523Y-66440476D01*
X60314285Y-66488095D01*
X60123809Y-66535714D01*
X59980952Y-66535714D01*
X59790476Y-66488095D01*
X59695238Y-66440476D01*
X59600000Y-66345238D01*
X59552380Y-66202380D01*
X59552380Y-66107142D01*
X59600000Y-65964285D01*
X59647619Y-65916666D01*
X59552380Y-65583333D02*
X59552380Y-64964285D01*
X59933333Y-65297619D01*
X59933333Y-65154761D01*
X59980952Y-65059523D01*
X60028571Y-65011904D01*
X60123809Y-64964285D01*
X60361904Y-64964285D01*
X60457142Y-65011904D01*
X60504761Y-65059523D01*
X60552380Y-65154761D01*
X60552380Y-65440476D01*
X60504761Y-65535714D01*
X60457142Y-65583333D01*
X40583333Y-59927142D02*
X40535714Y-59974761D01*
X40392857Y-60022380D01*
X40297619Y-60022380D01*
X40154761Y-59974761D01*
X40059523Y-59879523D01*
X40011904Y-59784285D01*
X39964285Y-59593809D01*
X39964285Y-59450952D01*
X40011904Y-59260476D01*
X40059523Y-59165238D01*
X40154761Y-59070000D01*
X40297619Y-59022380D01*
X40392857Y-59022380D01*
X40535714Y-59070000D01*
X40583333Y-59117619D01*
X40964285Y-59117619D02*
X41011904Y-59070000D01*
X41107142Y-59022380D01*
X41345238Y-59022380D01*
X41440476Y-59070000D01*
X41488095Y-59117619D01*
X41535714Y-59212857D01*
X41535714Y-59308095D01*
X41488095Y-59450952D01*
X40916666Y-60022380D01*
X41535714Y-60022380D01*
X53083333Y-41957142D02*
X53035714Y-42004761D01*
X52892857Y-42052380D01*
X52797619Y-42052380D01*
X52654761Y-42004761D01*
X52559523Y-41909523D01*
X52511904Y-41814285D01*
X52464285Y-41623809D01*
X52464285Y-41480952D01*
X52511904Y-41290476D01*
X52559523Y-41195238D01*
X52654761Y-41100000D01*
X52797619Y-41052380D01*
X52892857Y-41052380D01*
X53035714Y-41100000D01*
X53083333Y-41147619D01*
X54035714Y-42052380D02*
X53464285Y-42052380D01*
X53750000Y-42052380D02*
X53750000Y-41052380D01*
X53654761Y-41195238D01*
X53559523Y-41290476D01*
X53464285Y-41338095D01*
M02*
