G04 #@! TF.GenerationSoftware,KiCad,Pcbnew,(5.1.5)-3*
G04 #@! TF.CreationDate,2021-01-11T18:37:13+01:00*
G04 #@! TF.ProjectId,esp12Board,65737031-3242-46f6-9172-642e6b696361,rev?*
G04 #@! TF.SameCoordinates,Original*
G04 #@! TF.FileFunction,Legend,Top*
G04 #@! TF.FilePolarity,Positive*
%FSLAX46Y46*%
G04 Gerber Fmt 4.6, Leading zero omitted, Abs format (unit mm)*
G04 Created by KiCad (PCBNEW (5.1.5)-3) date 2021-01-11 18:37:13*
%MOMM*%
%LPD*%
G04 APERTURE LIST*
%ADD10C,0.120000*%
%ADD11C,0.127000*%
%ADD12C,0.200000*%
%ADD13C,0.150000*%
%ADD14C,0.015000*%
%ADD15C,0.254000*%
G04 APERTURE END LIST*
D10*
X59345000Y-63900000D02*
X61885000Y-63900000D01*
X59345000Y-63900000D02*
X59345000Y-66440000D01*
X59595000Y-64150000D02*
X68945000Y-64150000D01*
X59595000Y-85010000D02*
X59595000Y-64150000D01*
X68945000Y-85010000D02*
X59595000Y-85010000D01*
X68945000Y-64150000D02*
X68945000Y-85010000D01*
X79580000Y-74920000D02*
X79580000Y-76250000D01*
X78250000Y-74920000D02*
X79580000Y-74920000D01*
X76980000Y-74920000D02*
X76980000Y-77580000D01*
X76980000Y-77580000D02*
X71840000Y-77580000D01*
X76980000Y-74920000D02*
X71840000Y-74920000D01*
X71840000Y-74920000D02*
X71840000Y-77580000D01*
X79580000Y-70670000D02*
X79580000Y-72000000D01*
X78250000Y-70670000D02*
X79580000Y-70670000D01*
X76980000Y-70670000D02*
X76980000Y-73330000D01*
X76980000Y-73330000D02*
X71840000Y-73330000D01*
X76980000Y-70670000D02*
X71840000Y-70670000D01*
X71840000Y-70670000D02*
X71840000Y-73330000D01*
X59210000Y-66011252D02*
X59210000Y-65488748D01*
X57790000Y-66011252D02*
X57790000Y-65488748D01*
X33210000Y-75511252D02*
X33210000Y-74988748D01*
X31790000Y-75511252D02*
X31790000Y-74988748D01*
X34195225Y-74025000D02*
X34195225Y-74525000D01*
X33945225Y-74275000D02*
X34445225Y-74275000D01*
X39351000Y-75466000D02*
X39351000Y-76034000D01*
X39311000Y-75232000D02*
X39311000Y-76268000D01*
X39271000Y-75073000D02*
X39271000Y-76427000D01*
X39231000Y-74945000D02*
X39231000Y-76555000D01*
X39191000Y-74835000D02*
X39191000Y-76665000D01*
X39151000Y-74739000D02*
X39151000Y-76761000D01*
X39111000Y-74652000D02*
X39111000Y-76848000D01*
X39071000Y-74572000D02*
X39071000Y-76928000D01*
X39031000Y-76790000D02*
X39031000Y-77001000D01*
X39031000Y-74499000D02*
X39031000Y-74710000D01*
X38991000Y-76790000D02*
X38991000Y-77069000D01*
X38991000Y-74431000D02*
X38991000Y-74710000D01*
X38951000Y-76790000D02*
X38951000Y-77133000D01*
X38951000Y-74367000D02*
X38951000Y-74710000D01*
X38911000Y-76790000D02*
X38911000Y-77193000D01*
X38911000Y-74307000D02*
X38911000Y-74710000D01*
X38871000Y-76790000D02*
X38871000Y-77250000D01*
X38871000Y-74250000D02*
X38871000Y-74710000D01*
X38831000Y-76790000D02*
X38831000Y-77304000D01*
X38831000Y-74196000D02*
X38831000Y-74710000D01*
X38791000Y-76790000D02*
X38791000Y-77355000D01*
X38791000Y-74145000D02*
X38791000Y-74710000D01*
X38751000Y-76790000D02*
X38751000Y-77403000D01*
X38751000Y-74097000D02*
X38751000Y-74710000D01*
X38711000Y-76790000D02*
X38711000Y-77449000D01*
X38711000Y-74051000D02*
X38711000Y-74710000D01*
X38671000Y-76790000D02*
X38671000Y-77493000D01*
X38671000Y-74007000D02*
X38671000Y-74710000D01*
X38631000Y-76790000D02*
X38631000Y-77535000D01*
X38631000Y-73965000D02*
X38631000Y-74710000D01*
X38591000Y-76790000D02*
X38591000Y-77576000D01*
X38591000Y-73924000D02*
X38591000Y-74710000D01*
X38551000Y-76790000D02*
X38551000Y-77614000D01*
X38551000Y-73886000D02*
X38551000Y-74710000D01*
X38511000Y-76790000D02*
X38511000Y-77651000D01*
X38511000Y-73849000D02*
X38511000Y-74710000D01*
X38471000Y-76790000D02*
X38471000Y-77687000D01*
X38471000Y-73813000D02*
X38471000Y-74710000D01*
X38431000Y-76790000D02*
X38431000Y-77721000D01*
X38431000Y-73779000D02*
X38431000Y-74710000D01*
X38391000Y-76790000D02*
X38391000Y-77754000D01*
X38391000Y-73746000D02*
X38391000Y-74710000D01*
X38351000Y-76790000D02*
X38351000Y-77785000D01*
X38351000Y-73715000D02*
X38351000Y-74710000D01*
X38311000Y-76790000D02*
X38311000Y-77815000D01*
X38311000Y-73685000D02*
X38311000Y-74710000D01*
X38271000Y-76790000D02*
X38271000Y-77845000D01*
X38271000Y-73655000D02*
X38271000Y-74710000D01*
X38231000Y-76790000D02*
X38231000Y-77872000D01*
X38231000Y-73628000D02*
X38231000Y-74710000D01*
X38191000Y-76790000D02*
X38191000Y-77899000D01*
X38191000Y-73601000D02*
X38191000Y-74710000D01*
X38151000Y-76790000D02*
X38151000Y-77925000D01*
X38151000Y-73575000D02*
X38151000Y-74710000D01*
X38111000Y-76790000D02*
X38111000Y-77950000D01*
X38111000Y-73550000D02*
X38111000Y-74710000D01*
X38071000Y-76790000D02*
X38071000Y-77974000D01*
X38071000Y-73526000D02*
X38071000Y-74710000D01*
X38031000Y-76790000D02*
X38031000Y-77997000D01*
X38031000Y-73503000D02*
X38031000Y-74710000D01*
X37991000Y-76790000D02*
X37991000Y-78018000D01*
X37991000Y-73482000D02*
X37991000Y-74710000D01*
X37951000Y-76790000D02*
X37951000Y-78040000D01*
X37951000Y-73460000D02*
X37951000Y-74710000D01*
X37911000Y-76790000D02*
X37911000Y-78060000D01*
X37911000Y-73440000D02*
X37911000Y-74710000D01*
X37871000Y-76790000D02*
X37871000Y-78079000D01*
X37871000Y-73421000D02*
X37871000Y-74710000D01*
X37831000Y-76790000D02*
X37831000Y-78098000D01*
X37831000Y-73402000D02*
X37831000Y-74710000D01*
X37791000Y-76790000D02*
X37791000Y-78115000D01*
X37791000Y-73385000D02*
X37791000Y-74710000D01*
X37751000Y-76790000D02*
X37751000Y-78132000D01*
X37751000Y-73368000D02*
X37751000Y-74710000D01*
X37711000Y-76790000D02*
X37711000Y-78148000D01*
X37711000Y-73352000D02*
X37711000Y-74710000D01*
X37671000Y-76790000D02*
X37671000Y-78164000D01*
X37671000Y-73336000D02*
X37671000Y-74710000D01*
X37631000Y-76790000D02*
X37631000Y-78178000D01*
X37631000Y-73322000D02*
X37631000Y-74710000D01*
X37591000Y-76790000D02*
X37591000Y-78192000D01*
X37591000Y-73308000D02*
X37591000Y-74710000D01*
X37551000Y-76790000D02*
X37551000Y-78205000D01*
X37551000Y-73295000D02*
X37551000Y-74710000D01*
X37511000Y-76790000D02*
X37511000Y-78218000D01*
X37511000Y-73282000D02*
X37511000Y-74710000D01*
X37471000Y-76790000D02*
X37471000Y-78230000D01*
X37471000Y-73270000D02*
X37471000Y-74710000D01*
X37430000Y-76790000D02*
X37430000Y-78241000D01*
X37430000Y-73259000D02*
X37430000Y-74710000D01*
X37390000Y-76790000D02*
X37390000Y-78251000D01*
X37390000Y-73249000D02*
X37390000Y-74710000D01*
X37350000Y-76790000D02*
X37350000Y-78261000D01*
X37350000Y-73239000D02*
X37350000Y-74710000D01*
X37310000Y-76790000D02*
X37310000Y-78270000D01*
X37310000Y-73230000D02*
X37310000Y-74710000D01*
X37270000Y-76790000D02*
X37270000Y-78278000D01*
X37270000Y-73222000D02*
X37270000Y-74710000D01*
X37230000Y-76790000D02*
X37230000Y-78286000D01*
X37230000Y-73214000D02*
X37230000Y-74710000D01*
X37190000Y-76790000D02*
X37190000Y-78293000D01*
X37190000Y-73207000D02*
X37190000Y-74710000D01*
X37150000Y-76790000D02*
X37150000Y-78300000D01*
X37150000Y-73200000D02*
X37150000Y-74710000D01*
X37110000Y-76790000D02*
X37110000Y-78306000D01*
X37110000Y-73194000D02*
X37110000Y-74710000D01*
X37070000Y-76790000D02*
X37070000Y-78311000D01*
X37070000Y-73189000D02*
X37070000Y-74710000D01*
X37030000Y-76790000D02*
X37030000Y-78315000D01*
X37030000Y-73185000D02*
X37030000Y-74710000D01*
X36990000Y-76790000D02*
X36990000Y-78319000D01*
X36990000Y-73181000D02*
X36990000Y-74710000D01*
X36950000Y-73177000D02*
X36950000Y-78323000D01*
X36910000Y-73174000D02*
X36910000Y-78326000D01*
X36870000Y-73172000D02*
X36870000Y-78328000D01*
X36830000Y-73171000D02*
X36830000Y-78329000D01*
X36790000Y-73170000D02*
X36790000Y-78330000D01*
X36750000Y-73170000D02*
X36750000Y-78330000D01*
X39370000Y-75750000D02*
G75*
G03X39370000Y-75750000I-2620000J0D01*
G01*
X38025000Y-53554775D02*
X38525000Y-53554775D01*
X38275000Y-53804775D02*
X38275000Y-53304775D01*
X39466000Y-48399000D02*
X40034000Y-48399000D01*
X39232000Y-48439000D02*
X40268000Y-48439000D01*
X39073000Y-48479000D02*
X40427000Y-48479000D01*
X38945000Y-48519000D02*
X40555000Y-48519000D01*
X38835000Y-48559000D02*
X40665000Y-48559000D01*
X38739000Y-48599000D02*
X40761000Y-48599000D01*
X38652000Y-48639000D02*
X40848000Y-48639000D01*
X38572000Y-48679000D02*
X40928000Y-48679000D01*
X40790000Y-48719000D02*
X41001000Y-48719000D01*
X38499000Y-48719000D02*
X38710000Y-48719000D01*
X40790000Y-48759000D02*
X41069000Y-48759000D01*
X38431000Y-48759000D02*
X38710000Y-48759000D01*
X40790000Y-48799000D02*
X41133000Y-48799000D01*
X38367000Y-48799000D02*
X38710000Y-48799000D01*
X40790000Y-48839000D02*
X41193000Y-48839000D01*
X38307000Y-48839000D02*
X38710000Y-48839000D01*
X40790000Y-48879000D02*
X41250000Y-48879000D01*
X38250000Y-48879000D02*
X38710000Y-48879000D01*
X40790000Y-48919000D02*
X41304000Y-48919000D01*
X38196000Y-48919000D02*
X38710000Y-48919000D01*
X40790000Y-48959000D02*
X41355000Y-48959000D01*
X38145000Y-48959000D02*
X38710000Y-48959000D01*
X40790000Y-48999000D02*
X41403000Y-48999000D01*
X38097000Y-48999000D02*
X38710000Y-48999000D01*
X40790000Y-49039000D02*
X41449000Y-49039000D01*
X38051000Y-49039000D02*
X38710000Y-49039000D01*
X40790000Y-49079000D02*
X41493000Y-49079000D01*
X38007000Y-49079000D02*
X38710000Y-49079000D01*
X40790000Y-49119000D02*
X41535000Y-49119000D01*
X37965000Y-49119000D02*
X38710000Y-49119000D01*
X40790000Y-49159000D02*
X41576000Y-49159000D01*
X37924000Y-49159000D02*
X38710000Y-49159000D01*
X40790000Y-49199000D02*
X41614000Y-49199000D01*
X37886000Y-49199000D02*
X38710000Y-49199000D01*
X40790000Y-49239000D02*
X41651000Y-49239000D01*
X37849000Y-49239000D02*
X38710000Y-49239000D01*
X40790000Y-49279000D02*
X41687000Y-49279000D01*
X37813000Y-49279000D02*
X38710000Y-49279000D01*
X40790000Y-49319000D02*
X41721000Y-49319000D01*
X37779000Y-49319000D02*
X38710000Y-49319000D01*
X40790000Y-49359000D02*
X41754000Y-49359000D01*
X37746000Y-49359000D02*
X38710000Y-49359000D01*
X40790000Y-49399000D02*
X41785000Y-49399000D01*
X37715000Y-49399000D02*
X38710000Y-49399000D01*
X40790000Y-49439000D02*
X41815000Y-49439000D01*
X37685000Y-49439000D02*
X38710000Y-49439000D01*
X40790000Y-49479000D02*
X41845000Y-49479000D01*
X37655000Y-49479000D02*
X38710000Y-49479000D01*
X40790000Y-49519000D02*
X41872000Y-49519000D01*
X37628000Y-49519000D02*
X38710000Y-49519000D01*
X40790000Y-49559000D02*
X41899000Y-49559000D01*
X37601000Y-49559000D02*
X38710000Y-49559000D01*
X40790000Y-49599000D02*
X41925000Y-49599000D01*
X37575000Y-49599000D02*
X38710000Y-49599000D01*
X40790000Y-49639000D02*
X41950000Y-49639000D01*
X37550000Y-49639000D02*
X38710000Y-49639000D01*
X40790000Y-49679000D02*
X41974000Y-49679000D01*
X37526000Y-49679000D02*
X38710000Y-49679000D01*
X40790000Y-49719000D02*
X41997000Y-49719000D01*
X37503000Y-49719000D02*
X38710000Y-49719000D01*
X40790000Y-49759000D02*
X42018000Y-49759000D01*
X37482000Y-49759000D02*
X38710000Y-49759000D01*
X40790000Y-49799000D02*
X42040000Y-49799000D01*
X37460000Y-49799000D02*
X38710000Y-49799000D01*
X40790000Y-49839000D02*
X42060000Y-49839000D01*
X37440000Y-49839000D02*
X38710000Y-49839000D01*
X40790000Y-49879000D02*
X42079000Y-49879000D01*
X37421000Y-49879000D02*
X38710000Y-49879000D01*
X40790000Y-49919000D02*
X42098000Y-49919000D01*
X37402000Y-49919000D02*
X38710000Y-49919000D01*
X40790000Y-49959000D02*
X42115000Y-49959000D01*
X37385000Y-49959000D02*
X38710000Y-49959000D01*
X40790000Y-49999000D02*
X42132000Y-49999000D01*
X37368000Y-49999000D02*
X38710000Y-49999000D01*
X40790000Y-50039000D02*
X42148000Y-50039000D01*
X37352000Y-50039000D02*
X38710000Y-50039000D01*
X40790000Y-50079000D02*
X42164000Y-50079000D01*
X37336000Y-50079000D02*
X38710000Y-50079000D01*
X40790000Y-50119000D02*
X42178000Y-50119000D01*
X37322000Y-50119000D02*
X38710000Y-50119000D01*
X40790000Y-50159000D02*
X42192000Y-50159000D01*
X37308000Y-50159000D02*
X38710000Y-50159000D01*
X40790000Y-50199000D02*
X42205000Y-50199000D01*
X37295000Y-50199000D02*
X38710000Y-50199000D01*
X40790000Y-50239000D02*
X42218000Y-50239000D01*
X37282000Y-50239000D02*
X38710000Y-50239000D01*
X40790000Y-50279000D02*
X42230000Y-50279000D01*
X37270000Y-50279000D02*
X38710000Y-50279000D01*
X40790000Y-50320000D02*
X42241000Y-50320000D01*
X37259000Y-50320000D02*
X38710000Y-50320000D01*
X40790000Y-50360000D02*
X42251000Y-50360000D01*
X37249000Y-50360000D02*
X38710000Y-50360000D01*
X40790000Y-50400000D02*
X42261000Y-50400000D01*
X37239000Y-50400000D02*
X38710000Y-50400000D01*
X40790000Y-50440000D02*
X42270000Y-50440000D01*
X37230000Y-50440000D02*
X38710000Y-50440000D01*
X40790000Y-50480000D02*
X42278000Y-50480000D01*
X37222000Y-50480000D02*
X38710000Y-50480000D01*
X40790000Y-50520000D02*
X42286000Y-50520000D01*
X37214000Y-50520000D02*
X38710000Y-50520000D01*
X40790000Y-50560000D02*
X42293000Y-50560000D01*
X37207000Y-50560000D02*
X38710000Y-50560000D01*
X40790000Y-50600000D02*
X42300000Y-50600000D01*
X37200000Y-50600000D02*
X38710000Y-50600000D01*
X40790000Y-50640000D02*
X42306000Y-50640000D01*
X37194000Y-50640000D02*
X38710000Y-50640000D01*
X40790000Y-50680000D02*
X42311000Y-50680000D01*
X37189000Y-50680000D02*
X38710000Y-50680000D01*
X40790000Y-50720000D02*
X42315000Y-50720000D01*
X37185000Y-50720000D02*
X38710000Y-50720000D01*
X40790000Y-50760000D02*
X42319000Y-50760000D01*
X37181000Y-50760000D02*
X38710000Y-50760000D01*
X37177000Y-50800000D02*
X42323000Y-50800000D01*
X37174000Y-50840000D02*
X42326000Y-50840000D01*
X37172000Y-50880000D02*
X42328000Y-50880000D01*
X37171000Y-50920000D02*
X42329000Y-50920000D01*
X37170000Y-50960000D02*
X42330000Y-50960000D01*
X37170000Y-51000000D02*
X42330000Y-51000000D01*
X42370000Y-51000000D02*
G75*
G03X42370000Y-51000000I-2620000J0D01*
G01*
X40650000Y-72590000D02*
X40650000Y-72090000D01*
X39910000Y-72590000D02*
X40650000Y-72590000D01*
X36773000Y-65897000D02*
X36819000Y-65944000D01*
X34475000Y-63600000D02*
X34511000Y-63635000D01*
X36989000Y-65704000D02*
X37024000Y-65739000D01*
X34681000Y-63395000D02*
X34727000Y-63442000D01*
X30489000Y-62070000D02*
X40410000Y-62070000D01*
X30489000Y-72350000D02*
X40410000Y-72350000D01*
X40410000Y-72350000D02*
X40410000Y-62070000D01*
X30489000Y-72350000D02*
X30489000Y-62070000D01*
X33449000Y-72350000D02*
X33449000Y-62070000D01*
X38350000Y-72350000D02*
X38350000Y-62070000D01*
X39850000Y-72350000D02*
X39850000Y-62070000D01*
X37430000Y-64670000D02*
G75*
G03X37430000Y-64670000I-1680000J0D01*
G01*
X37430253Y-69721195D02*
G75*
G02X37285000Y-70434000I-1680253J-28805D01*
G01*
X36433042Y-71285426D02*
G75*
G02X35066000Y-71285000I-683042J1535426D01*
G01*
X34214574Y-70433042D02*
G75*
G02X34215000Y-69066000I1535426J683042D01*
G01*
X35066958Y-68214574D02*
G75*
G02X36434000Y-68215000I683042J-1535426D01*
G01*
X37284756Y-69066682D02*
G75*
G02X37430000Y-69750000I-1534756J-683318D01*
G01*
X47840000Y-65850000D02*
X47840000Y-59840000D01*
X54660000Y-63600000D02*
X54660000Y-59840000D01*
X47840000Y-59840000D02*
X49100000Y-59840000D01*
X54660000Y-59840000D02*
X53400000Y-59840000D01*
D11*
X55500000Y-43375000D02*
G75*
G03X55500000Y-43375000I-250000J0D01*
G01*
X72500000Y-59750000D02*
X70500000Y-59750000D01*
X72500000Y-59250000D02*
X72500000Y-59750000D01*
X56500000Y-59750000D02*
X58500000Y-59750000D01*
X56500000Y-59250000D02*
X56500000Y-59750000D01*
X72500000Y-35750000D02*
X72500000Y-43250000D01*
X56500000Y-35750000D02*
X72500000Y-35750000D01*
X56500000Y-43250000D02*
X56500000Y-35750000D01*
X58500000Y-58510000D02*
X58500000Y-43510000D01*
X70500000Y-58510000D02*
X58500000Y-58510000D01*
X70500000Y-43510000D02*
X70500000Y-58510000D01*
X58500000Y-43510000D02*
X70500000Y-43510000D01*
D10*
X42000000Y-43250000D02*
X43500000Y-43250000D01*
X46000000Y-42000000D02*
X46000000Y-37500000D01*
X43500000Y-36250000D02*
X42000000Y-36250000D01*
X39500000Y-37500000D02*
X39500000Y-42000000D01*
X50250000Y-43250000D02*
X51750000Y-43250000D01*
X54250000Y-42000000D02*
X54250000Y-37500000D01*
X51750000Y-36250000D02*
X50250000Y-36250000D01*
X47750000Y-37500000D02*
X47750000Y-42000000D01*
X55040000Y-80738748D02*
X55040000Y-81261252D01*
X56460000Y-80738748D02*
X56460000Y-81261252D01*
X56710000Y-76511252D02*
X56710000Y-75988748D01*
X55290000Y-76511252D02*
X55290000Y-75988748D01*
X56710000Y-72011252D02*
X56710000Y-71488748D01*
X55290000Y-72011252D02*
X55290000Y-71488748D01*
X52261252Y-81540000D02*
X51738748Y-81540000D01*
X52261252Y-82960000D02*
X51738748Y-82960000D01*
X74290000Y-57988748D02*
X74290000Y-58511252D01*
X75710000Y-57988748D02*
X75710000Y-58511252D01*
X43511252Y-45540000D02*
X42988748Y-45540000D01*
X43511252Y-46960000D02*
X42988748Y-46960000D01*
X48238748Y-46960000D02*
X48761252Y-46960000D01*
X48238748Y-45540000D02*
X48761252Y-45540000D01*
X45710000Y-51761252D02*
X45710000Y-51238748D01*
X44290000Y-51761252D02*
X44290000Y-51238748D01*
X51290000Y-54488748D02*
X51290000Y-55011252D01*
X52710000Y-54488748D02*
X52710000Y-55011252D01*
X52988748Y-48710000D02*
X53511252Y-48710000D01*
X52988748Y-47290000D02*
X53511252Y-47290000D01*
X75710000Y-53536252D02*
X75710000Y-53013748D01*
X74290000Y-53536252D02*
X74290000Y-53013748D01*
X76540000Y-55263748D02*
X76540000Y-55786252D01*
X77960000Y-55263748D02*
X77960000Y-55786252D01*
X52988748Y-51210000D02*
X53511252Y-51210000D01*
X52988748Y-49790000D02*
X53511252Y-49790000D01*
X47490000Y-47920000D02*
X48950000Y-47920000D01*
X47490000Y-51080000D02*
X49650000Y-51080000D01*
X47490000Y-51080000D02*
X47490000Y-50150000D01*
X47490000Y-47920000D02*
X47490000Y-48850000D01*
X47490000Y-52670000D02*
X48950000Y-52670000D01*
X47490000Y-55830000D02*
X49650000Y-55830000D01*
X47490000Y-55830000D02*
X47490000Y-54900000D01*
X47490000Y-52670000D02*
X47490000Y-53600000D01*
X52950000Y-69040000D02*
X53800000Y-69040000D01*
X53800000Y-75960000D02*
X52950000Y-75960000D01*
X48250000Y-69040000D02*
X49050000Y-69040000D01*
X47590000Y-75350000D02*
X47590000Y-69700000D01*
X49050000Y-75960000D02*
X48200000Y-75960000D01*
X48200000Y-75960000D02*
G75*
G02X47590000Y-75350000I0J610000D01*
G01*
X47590000Y-69700000D02*
G75*
G02X48250000Y-69040000I660000J0D01*
G01*
X54410000Y-69650000D02*
X54410000Y-75350000D01*
X54410000Y-75350000D02*
G75*
G02X53800000Y-75960000I-610000J0D01*
G01*
X53800000Y-69040000D02*
G75*
G02X54410000Y-69650000I0J-610000D01*
G01*
X36250000Y-48100000D02*
X36250000Y-50900000D01*
X36250000Y-50900000D02*
X34250000Y-50900000D01*
X34250000Y-50900000D02*
X34250000Y-48100000D01*
X34250000Y-48100000D02*
X36250000Y-48100000D01*
X79580000Y-66420000D02*
X79580000Y-67750000D01*
X78250000Y-66420000D02*
X79580000Y-66420000D01*
X76980000Y-66420000D02*
X76980000Y-69080000D01*
X76980000Y-69080000D02*
X71840000Y-69080000D01*
X76980000Y-66420000D02*
X71840000Y-66420000D01*
X71840000Y-66420000D02*
X71840000Y-69080000D01*
X30420000Y-42670000D02*
X31750000Y-42670000D01*
X30420000Y-44000000D02*
X30420000Y-42670000D01*
X30420000Y-45270000D02*
X33080000Y-45270000D01*
X33080000Y-45270000D02*
X33080000Y-60570000D01*
X30420000Y-45270000D02*
X30420000Y-60570000D01*
X30420000Y-60570000D02*
X33080000Y-60570000D01*
D12*
X39525000Y-79170000D02*
X41050000Y-79170000D01*
X41400000Y-84200000D02*
X41400000Y-79300000D01*
X44600000Y-84200000D02*
X41400000Y-84200000D01*
X44600000Y-79300000D02*
X44600000Y-84200000D01*
X41400000Y-79300000D02*
X44600000Y-79300000D01*
D10*
X45750000Y-75500000D02*
X41850000Y-75500000D01*
X45750000Y-73500000D02*
X41850000Y-73500000D01*
X45750000Y-75500000D02*
X45750000Y-73500000D01*
X45011252Y-70290000D02*
X44488748Y-70290000D01*
X45011252Y-71710000D02*
X44488748Y-71710000D01*
X45011252Y-65040000D02*
X44488748Y-65040000D01*
X45011252Y-66460000D02*
X44488748Y-66460000D01*
X45011252Y-67790000D02*
X44488748Y-67790000D01*
X45011252Y-69210000D02*
X44488748Y-69210000D01*
X42040000Y-62238748D02*
X42040000Y-62761252D01*
X43460000Y-62238748D02*
X43460000Y-62761252D01*
X51921267Y-79490000D02*
X51578733Y-79490000D01*
X51921267Y-80510000D02*
X51578733Y-80510000D01*
X45290000Y-62238748D02*
X45290000Y-62761252D01*
X46710000Y-62238748D02*
X46710000Y-62761252D01*
X48960000Y-82011252D02*
X48960000Y-81488748D01*
X47540000Y-82011252D02*
X47540000Y-81488748D01*
X46761252Y-76790000D02*
X46238748Y-76790000D01*
X46761252Y-78210000D02*
X46238748Y-78210000D01*
X56960000Y-66011252D02*
X56960000Y-65488748D01*
X55540000Y-66011252D02*
X55540000Y-65488748D01*
X38260000Y-81921267D02*
X38260000Y-81578733D01*
X37240000Y-81921267D02*
X37240000Y-81578733D01*
X55210000Y-55011252D02*
X55210000Y-54488748D01*
X53790000Y-55011252D02*
X53790000Y-54488748D01*
X52988748Y-46710000D02*
X53511252Y-46710000D01*
X52988748Y-45290000D02*
X53511252Y-45290000D01*
D13*
X63936666Y-62348380D02*
X63936666Y-63062666D01*
X63889047Y-63205523D01*
X63793809Y-63300761D01*
X63650952Y-63348380D01*
X63555714Y-63348380D01*
X64317619Y-62348380D02*
X64936666Y-62348380D01*
X64603333Y-62729333D01*
X64746190Y-62729333D01*
X64841428Y-62776952D01*
X64889047Y-62824571D01*
X64936666Y-62919809D01*
X64936666Y-63157904D01*
X64889047Y-63253142D01*
X64841428Y-63300761D01*
X64746190Y-63348380D01*
X64460476Y-63348380D01*
X64365238Y-63300761D01*
X64317619Y-63253142D01*
X80032380Y-76583333D02*
X80746666Y-76583333D01*
X80889523Y-76630952D01*
X80984761Y-76726190D01*
X81032380Y-76869047D01*
X81032380Y-76964285D01*
X80032380Y-75678571D02*
X80032380Y-75869047D01*
X80080000Y-75964285D01*
X80127619Y-76011904D01*
X80270476Y-76107142D01*
X80460952Y-76154761D01*
X80841904Y-76154761D01*
X80937142Y-76107142D01*
X80984761Y-76059523D01*
X81032380Y-75964285D01*
X81032380Y-75773809D01*
X80984761Y-75678571D01*
X80937142Y-75630952D01*
X80841904Y-75583333D01*
X80603809Y-75583333D01*
X80508571Y-75630952D01*
X80460952Y-75678571D01*
X80413333Y-75773809D01*
X80413333Y-75964285D01*
X80460952Y-76059523D01*
X80508571Y-76107142D01*
X80603809Y-76154761D01*
X80032380Y-72333333D02*
X80746666Y-72333333D01*
X80889523Y-72380952D01*
X80984761Y-72476190D01*
X81032380Y-72619047D01*
X81032380Y-72714285D01*
X80032380Y-71380952D02*
X80032380Y-71857142D01*
X80508571Y-71904761D01*
X80460952Y-71857142D01*
X80413333Y-71761904D01*
X80413333Y-71523809D01*
X80460952Y-71428571D01*
X80508571Y-71380952D01*
X80603809Y-71333333D01*
X80841904Y-71333333D01*
X80937142Y-71380952D01*
X80984761Y-71428571D01*
X81032380Y-71523809D01*
X81032380Y-71761904D01*
X80984761Y-71857142D01*
X80937142Y-71904761D01*
X32738095Y-77752380D02*
X32738095Y-76752380D01*
X32738095Y-77228571D02*
X33309523Y-77228571D01*
X33309523Y-77752380D02*
X33309523Y-76752380D01*
X34214285Y-77085714D02*
X34214285Y-77752380D01*
X33976190Y-76704761D02*
X33738095Y-77419047D01*
X34357142Y-77419047D01*
X75738095Y-77752380D02*
X75738095Y-76752380D01*
X75738095Y-77228571D02*
X76309523Y-77228571D01*
X76309523Y-77752380D02*
X76309523Y-76752380D01*
X76690476Y-76752380D02*
X77309523Y-76752380D01*
X76976190Y-77133333D01*
X77119047Y-77133333D01*
X77214285Y-77180952D01*
X77261904Y-77228571D01*
X77309523Y-77323809D01*
X77309523Y-77561904D01*
X77261904Y-77657142D01*
X77214285Y-77704761D01*
X77119047Y-77752380D01*
X76833333Y-77752380D01*
X76738095Y-77704761D01*
X76690476Y-77657142D01*
X32738095Y-34752380D02*
X32738095Y-33752380D01*
X32738095Y-34228571D02*
X33309523Y-34228571D01*
X33309523Y-34752380D02*
X33309523Y-33752380D01*
X33738095Y-33847619D02*
X33785714Y-33800000D01*
X33880952Y-33752380D01*
X34119047Y-33752380D01*
X34214285Y-33800000D01*
X34261904Y-33847619D01*
X34309523Y-33942857D01*
X34309523Y-34038095D01*
X34261904Y-34180952D01*
X33690476Y-34752380D01*
X34309523Y-34752380D01*
X75988095Y-34752380D02*
X75988095Y-33752380D01*
X75988095Y-34228571D02*
X76559523Y-34228571D01*
X76559523Y-34752380D02*
X76559523Y-33752380D01*
X77559523Y-34752380D02*
X76988095Y-34752380D01*
X77273809Y-34752380D02*
X77273809Y-33752380D01*
X77178571Y-33895238D01*
X77083333Y-33990476D01*
X76988095Y-34038095D01*
X57207142Y-65916666D02*
X57254761Y-65964285D01*
X57302380Y-66107142D01*
X57302380Y-66202380D01*
X57254761Y-66345238D01*
X57159523Y-66440476D01*
X57064285Y-66488095D01*
X56873809Y-66535714D01*
X56730952Y-66535714D01*
X56540476Y-66488095D01*
X56445238Y-66440476D01*
X56350000Y-66345238D01*
X56302380Y-66202380D01*
X56302380Y-66107142D01*
X56350000Y-65964285D01*
X56397619Y-65916666D01*
X56302380Y-65583333D02*
X56302380Y-64916666D01*
X57302380Y-65345238D01*
X31207142Y-75416666D02*
X31254761Y-75464285D01*
X31302380Y-75607142D01*
X31302380Y-75702380D01*
X31254761Y-75845238D01*
X31159523Y-75940476D01*
X31064285Y-75988095D01*
X30873809Y-76035714D01*
X30730952Y-76035714D01*
X30540476Y-75988095D01*
X30445238Y-75940476D01*
X30350000Y-75845238D01*
X30302380Y-75702380D01*
X30302380Y-75607142D01*
X30350000Y-75464285D01*
X30397619Y-75416666D01*
X30302380Y-74511904D02*
X30302380Y-74988095D01*
X30778571Y-75035714D01*
X30730952Y-74988095D01*
X30683333Y-74892857D01*
X30683333Y-74654761D01*
X30730952Y-74559523D01*
X30778571Y-74511904D01*
X30873809Y-74464285D01*
X31111904Y-74464285D01*
X31207142Y-74511904D01*
X31254761Y-74559523D01*
X31302380Y-74654761D01*
X31302380Y-74892857D01*
X31254761Y-74988095D01*
X31207142Y-75035714D01*
X36583333Y-72357142D02*
X36535714Y-72404761D01*
X36392857Y-72452380D01*
X36297619Y-72452380D01*
X36154761Y-72404761D01*
X36059523Y-72309523D01*
X36011904Y-72214285D01*
X35964285Y-72023809D01*
X35964285Y-71880952D01*
X36011904Y-71690476D01*
X36059523Y-71595238D01*
X36154761Y-71500000D01*
X36297619Y-71452380D01*
X36392857Y-71452380D01*
X36535714Y-71500000D01*
X36583333Y-71547619D01*
X36964285Y-71547619D02*
X37011904Y-71500000D01*
X37107142Y-71452380D01*
X37345238Y-71452380D01*
X37440476Y-71500000D01*
X37488095Y-71547619D01*
X37535714Y-71642857D01*
X37535714Y-71738095D01*
X37488095Y-71880952D01*
X36916666Y-72452380D01*
X37535714Y-72452380D01*
X36357142Y-51166666D02*
X36404761Y-51214285D01*
X36452380Y-51357142D01*
X36452380Y-51452380D01*
X36404761Y-51595238D01*
X36309523Y-51690476D01*
X36214285Y-51738095D01*
X36023809Y-51785714D01*
X35880952Y-51785714D01*
X35690476Y-51738095D01*
X35595238Y-51690476D01*
X35500000Y-51595238D01*
X35452380Y-51452380D01*
X35452380Y-51357142D01*
X35500000Y-51214285D01*
X35547619Y-51166666D01*
X35785714Y-50309523D02*
X36452380Y-50309523D01*
X35404761Y-50547619D02*
X36119047Y-50785714D01*
X36119047Y-50166666D01*
X28942380Y-67543333D02*
X29656666Y-67543333D01*
X29799523Y-67590952D01*
X29894761Y-67686190D01*
X29942380Y-67829047D01*
X29942380Y-67924285D01*
X29275714Y-66638571D02*
X29942380Y-66638571D01*
X28894761Y-66876666D02*
X29609047Y-67114761D01*
X29609047Y-66495714D01*
X46202380Y-62511904D02*
X47011904Y-62511904D01*
X47107142Y-62464285D01*
X47154761Y-62416666D01*
X47202380Y-62321428D01*
X47202380Y-62130952D01*
X47154761Y-62035714D01*
X47107142Y-61988095D01*
X47011904Y-61940476D01*
X46202380Y-61940476D01*
X46297619Y-61511904D02*
X46250000Y-61464285D01*
X46202380Y-61369047D01*
X46202380Y-61130952D01*
X46250000Y-61035714D01*
X46297619Y-60988095D01*
X46392857Y-60940476D01*
X46488095Y-60940476D01*
X46630952Y-60988095D01*
X47202380Y-61559523D01*
X47202380Y-60940476D01*
D14*
X58158217Y-34304368D02*
X58158217Y-35114516D01*
X58205872Y-35209828D01*
X58253528Y-35257484D01*
X58348840Y-35305140D01*
X58539463Y-35305140D01*
X58634775Y-35257484D01*
X58682430Y-35209828D01*
X58730086Y-35114516D01*
X58730086Y-34304368D01*
X59730858Y-35305140D02*
X59158989Y-35305140D01*
X59444923Y-35305140D02*
X59444923Y-34304368D01*
X59349612Y-34447335D01*
X59254300Y-34542647D01*
X59158989Y-34590303D01*
D13*
X47404761Y-41083333D02*
X47452380Y-40940476D01*
X47452380Y-40702380D01*
X47404761Y-40607142D01*
X47357142Y-40559523D01*
X47261904Y-40511904D01*
X47166666Y-40511904D01*
X47071428Y-40559523D01*
X47023809Y-40607142D01*
X46976190Y-40702380D01*
X46928571Y-40892857D01*
X46880952Y-40988095D01*
X46833333Y-41035714D01*
X46738095Y-41083333D01*
X46642857Y-41083333D01*
X46547619Y-41035714D01*
X46500000Y-40988095D01*
X46452380Y-40892857D01*
X46452380Y-40654761D01*
X46500000Y-40511904D01*
X46452380Y-40178571D02*
X47452380Y-39940476D01*
X46738095Y-39750000D01*
X47452380Y-39559523D01*
X46452380Y-39321428D01*
X46547619Y-38988095D02*
X46500000Y-38940476D01*
X46452380Y-38845238D01*
X46452380Y-38607142D01*
X46500000Y-38511904D01*
X46547619Y-38464285D01*
X46642857Y-38416666D01*
X46738095Y-38416666D01*
X46880952Y-38464285D01*
X47452380Y-39035714D01*
X47452380Y-38416666D01*
X55654761Y-41083333D02*
X55702380Y-40940476D01*
X55702380Y-40702380D01*
X55654761Y-40607142D01*
X55607142Y-40559523D01*
X55511904Y-40511904D01*
X55416666Y-40511904D01*
X55321428Y-40559523D01*
X55273809Y-40607142D01*
X55226190Y-40702380D01*
X55178571Y-40892857D01*
X55130952Y-40988095D01*
X55083333Y-41035714D01*
X54988095Y-41083333D01*
X54892857Y-41083333D01*
X54797619Y-41035714D01*
X54750000Y-40988095D01*
X54702380Y-40892857D01*
X54702380Y-40654761D01*
X54750000Y-40511904D01*
X54702380Y-40178571D02*
X55702380Y-39940476D01*
X54988095Y-39750000D01*
X55702380Y-39559523D01*
X54702380Y-39321428D01*
X55702380Y-38416666D02*
X55702380Y-38988095D01*
X55702380Y-38702380D02*
X54702380Y-38702380D01*
X54845238Y-38797619D01*
X54940476Y-38892857D01*
X54988095Y-38988095D01*
X57852380Y-81642857D02*
X57376190Y-81976190D01*
X57852380Y-82214285D02*
X56852380Y-82214285D01*
X56852380Y-81833333D01*
X56900000Y-81738095D01*
X56947619Y-81690476D01*
X57042857Y-81642857D01*
X57185714Y-81642857D01*
X57280952Y-81690476D01*
X57328571Y-81738095D01*
X57376190Y-81833333D01*
X57376190Y-82214285D01*
X57852380Y-80690476D02*
X57852380Y-81261904D01*
X57852380Y-80976190D02*
X56852380Y-80976190D01*
X56995238Y-81071428D01*
X57090476Y-81166666D01*
X57138095Y-81261904D01*
X57185714Y-79833333D02*
X57852380Y-79833333D01*
X56804761Y-80071428D02*
X57519047Y-80309523D01*
X57519047Y-79690476D01*
X54802380Y-76892857D02*
X54326190Y-77226190D01*
X54802380Y-77464285D02*
X53802380Y-77464285D01*
X53802380Y-77083333D01*
X53850000Y-76988095D01*
X53897619Y-76940476D01*
X53992857Y-76892857D01*
X54135714Y-76892857D01*
X54230952Y-76940476D01*
X54278571Y-76988095D01*
X54326190Y-77083333D01*
X54326190Y-77464285D01*
X54802380Y-75940476D02*
X54802380Y-76511904D01*
X54802380Y-76226190D02*
X53802380Y-76226190D01*
X53945238Y-76321428D01*
X54040476Y-76416666D01*
X54088095Y-76511904D01*
X53802380Y-75607142D02*
X53802380Y-74988095D01*
X54183333Y-75321428D01*
X54183333Y-75178571D01*
X54230952Y-75083333D01*
X54278571Y-75035714D01*
X54373809Y-74988095D01*
X54611904Y-74988095D01*
X54707142Y-75035714D01*
X54754761Y-75083333D01*
X54802380Y-75178571D01*
X54802380Y-75464285D01*
X54754761Y-75559523D01*
X54707142Y-75607142D01*
X54802380Y-72392857D02*
X54326190Y-72726190D01*
X54802380Y-72964285D02*
X53802380Y-72964285D01*
X53802380Y-72583333D01*
X53850000Y-72488095D01*
X53897619Y-72440476D01*
X53992857Y-72392857D01*
X54135714Y-72392857D01*
X54230952Y-72440476D01*
X54278571Y-72488095D01*
X54326190Y-72583333D01*
X54326190Y-72964285D01*
X54802380Y-71440476D02*
X54802380Y-72011904D01*
X54802380Y-71726190D02*
X53802380Y-71726190D01*
X53945238Y-71821428D01*
X54040476Y-71916666D01*
X54088095Y-72011904D01*
X53897619Y-71059523D02*
X53850000Y-71011904D01*
X53802380Y-70916666D01*
X53802380Y-70678571D01*
X53850000Y-70583333D01*
X53897619Y-70535714D01*
X53992857Y-70488095D01*
X54088095Y-70488095D01*
X54230952Y-70535714D01*
X54802380Y-71107142D01*
X54802380Y-70488095D01*
X51357142Y-84352380D02*
X51023809Y-83876190D01*
X50785714Y-84352380D02*
X50785714Y-83352380D01*
X51166666Y-83352380D01*
X51261904Y-83400000D01*
X51309523Y-83447619D01*
X51357142Y-83542857D01*
X51357142Y-83685714D01*
X51309523Y-83780952D01*
X51261904Y-83828571D01*
X51166666Y-83876190D01*
X50785714Y-83876190D01*
X52309523Y-84352380D02*
X51738095Y-84352380D01*
X52023809Y-84352380D02*
X52023809Y-83352380D01*
X51928571Y-83495238D01*
X51833333Y-83590476D01*
X51738095Y-83638095D01*
X53261904Y-84352380D02*
X52690476Y-84352380D01*
X52976190Y-84352380D02*
X52976190Y-83352380D01*
X52880952Y-83495238D01*
X52785714Y-83590476D01*
X52690476Y-83638095D01*
X77102380Y-58892857D02*
X76626190Y-59226190D01*
X77102380Y-59464285D02*
X76102380Y-59464285D01*
X76102380Y-59083333D01*
X76150000Y-58988095D01*
X76197619Y-58940476D01*
X76292857Y-58892857D01*
X76435714Y-58892857D01*
X76530952Y-58940476D01*
X76578571Y-58988095D01*
X76626190Y-59083333D01*
X76626190Y-59464285D01*
X77102380Y-57940476D02*
X77102380Y-58511904D01*
X77102380Y-58226190D02*
X76102380Y-58226190D01*
X76245238Y-58321428D01*
X76340476Y-58416666D01*
X76388095Y-58511904D01*
X76102380Y-57321428D02*
X76102380Y-57226190D01*
X76150000Y-57130952D01*
X76197619Y-57083333D01*
X76292857Y-57035714D01*
X76483333Y-56988095D01*
X76721428Y-56988095D01*
X76911904Y-57035714D01*
X77007142Y-57083333D01*
X77054761Y-57130952D01*
X77102380Y-57226190D01*
X77102380Y-57321428D01*
X77054761Y-57416666D01*
X77007142Y-57464285D01*
X76911904Y-57511904D01*
X76721428Y-57559523D01*
X76483333Y-57559523D01*
X76292857Y-57511904D01*
X76197619Y-57464285D01*
X76150000Y-57416666D01*
X76102380Y-57321428D01*
X43083333Y-48352380D02*
X42750000Y-47876190D01*
X42511904Y-48352380D02*
X42511904Y-47352380D01*
X42892857Y-47352380D01*
X42988095Y-47400000D01*
X43035714Y-47447619D01*
X43083333Y-47542857D01*
X43083333Y-47685714D01*
X43035714Y-47780952D01*
X42988095Y-47828571D01*
X42892857Y-47876190D01*
X42511904Y-47876190D01*
X43654761Y-47780952D02*
X43559523Y-47733333D01*
X43511904Y-47685714D01*
X43464285Y-47590476D01*
X43464285Y-47542857D01*
X43511904Y-47447619D01*
X43559523Y-47400000D01*
X43654761Y-47352380D01*
X43845238Y-47352380D01*
X43940476Y-47400000D01*
X43988095Y-47447619D01*
X44035714Y-47542857D01*
X44035714Y-47590476D01*
X43988095Y-47685714D01*
X43940476Y-47733333D01*
X43845238Y-47780952D01*
X43654761Y-47780952D01*
X43559523Y-47828571D01*
X43511904Y-47876190D01*
X43464285Y-47971428D01*
X43464285Y-48161904D01*
X43511904Y-48257142D01*
X43559523Y-48304761D01*
X43654761Y-48352380D01*
X43845238Y-48352380D01*
X43940476Y-48304761D01*
X43988095Y-48257142D01*
X44035714Y-48161904D01*
X44035714Y-47971428D01*
X43988095Y-47876190D01*
X43940476Y-47828571D01*
X43845238Y-47780952D01*
X48333333Y-45052380D02*
X48000000Y-44576190D01*
X47761904Y-45052380D02*
X47761904Y-44052380D01*
X48142857Y-44052380D01*
X48238095Y-44100000D01*
X48285714Y-44147619D01*
X48333333Y-44242857D01*
X48333333Y-44385714D01*
X48285714Y-44480952D01*
X48238095Y-44528571D01*
X48142857Y-44576190D01*
X47761904Y-44576190D01*
X48666666Y-44052380D02*
X49333333Y-44052380D01*
X48904761Y-45052380D01*
X43802380Y-51666666D02*
X43326190Y-52000000D01*
X43802380Y-52238095D02*
X42802380Y-52238095D01*
X42802380Y-51857142D01*
X42850000Y-51761904D01*
X42897619Y-51714285D01*
X42992857Y-51666666D01*
X43135714Y-51666666D01*
X43230952Y-51714285D01*
X43278571Y-51761904D01*
X43326190Y-51857142D01*
X43326190Y-52238095D01*
X42802380Y-50809523D02*
X42802380Y-51000000D01*
X42850000Y-51095238D01*
X42897619Y-51142857D01*
X43040476Y-51238095D01*
X43230952Y-51285714D01*
X43611904Y-51285714D01*
X43707142Y-51238095D01*
X43754761Y-51190476D01*
X43802380Y-51095238D01*
X43802380Y-50904761D01*
X43754761Y-50809523D01*
X43707142Y-50761904D01*
X43611904Y-50714285D01*
X43373809Y-50714285D01*
X43278571Y-50761904D01*
X43230952Y-50809523D01*
X43183333Y-50904761D01*
X43183333Y-51095238D01*
X43230952Y-51190476D01*
X43278571Y-51238095D01*
X43373809Y-51285714D01*
X54102380Y-54916666D02*
X53626190Y-55250000D01*
X54102380Y-55488095D02*
X53102380Y-55488095D01*
X53102380Y-55107142D01*
X53150000Y-55011904D01*
X53197619Y-54964285D01*
X53292857Y-54916666D01*
X53435714Y-54916666D01*
X53530952Y-54964285D01*
X53578571Y-55011904D01*
X53626190Y-55107142D01*
X53626190Y-55488095D01*
X53102380Y-54011904D02*
X53102380Y-54488095D01*
X53578571Y-54535714D01*
X53530952Y-54488095D01*
X53483333Y-54392857D01*
X53483333Y-54154761D01*
X53530952Y-54059523D01*
X53578571Y-54011904D01*
X53673809Y-53964285D01*
X53911904Y-53964285D01*
X54007142Y-54011904D01*
X54054761Y-54059523D01*
X54102380Y-54154761D01*
X54102380Y-54392857D01*
X54054761Y-54488095D01*
X54007142Y-54535714D01*
X53083333Y-46802380D02*
X52750000Y-46326190D01*
X52511904Y-46802380D02*
X52511904Y-45802380D01*
X52892857Y-45802380D01*
X52988095Y-45850000D01*
X53035714Y-45897619D01*
X53083333Y-45992857D01*
X53083333Y-46135714D01*
X53035714Y-46230952D01*
X52988095Y-46278571D01*
X52892857Y-46326190D01*
X52511904Y-46326190D01*
X53940476Y-46135714D02*
X53940476Y-46802380D01*
X53702380Y-45754761D02*
X53464285Y-46469047D01*
X54083333Y-46469047D01*
X73802380Y-53441666D02*
X73326190Y-53775000D01*
X73802380Y-54013095D02*
X72802380Y-54013095D01*
X72802380Y-53632142D01*
X72850000Y-53536904D01*
X72897619Y-53489285D01*
X72992857Y-53441666D01*
X73135714Y-53441666D01*
X73230952Y-53489285D01*
X73278571Y-53536904D01*
X73326190Y-53632142D01*
X73326190Y-54013095D01*
X72802380Y-53108333D02*
X72802380Y-52489285D01*
X73183333Y-52822619D01*
X73183333Y-52679761D01*
X73230952Y-52584523D01*
X73278571Y-52536904D01*
X73373809Y-52489285D01*
X73611904Y-52489285D01*
X73707142Y-52536904D01*
X73754761Y-52584523D01*
X73802380Y-52679761D01*
X73802380Y-52965476D01*
X73754761Y-53060714D01*
X73707142Y-53108333D01*
X79352380Y-55691666D02*
X78876190Y-56025000D01*
X79352380Y-56263095D02*
X78352380Y-56263095D01*
X78352380Y-55882142D01*
X78400000Y-55786904D01*
X78447619Y-55739285D01*
X78542857Y-55691666D01*
X78685714Y-55691666D01*
X78780952Y-55739285D01*
X78828571Y-55786904D01*
X78876190Y-55882142D01*
X78876190Y-56263095D01*
X78447619Y-55310714D02*
X78400000Y-55263095D01*
X78352380Y-55167857D01*
X78352380Y-54929761D01*
X78400000Y-54834523D01*
X78447619Y-54786904D01*
X78542857Y-54739285D01*
X78638095Y-54739285D01*
X78780952Y-54786904D01*
X79352380Y-55358333D01*
X79352380Y-54739285D01*
X53083333Y-49302380D02*
X52750000Y-48826190D01*
X52511904Y-49302380D02*
X52511904Y-48302380D01*
X52892857Y-48302380D01*
X52988095Y-48350000D01*
X53035714Y-48397619D01*
X53083333Y-48492857D01*
X53083333Y-48635714D01*
X53035714Y-48730952D01*
X52988095Y-48778571D01*
X52892857Y-48826190D01*
X52511904Y-48826190D01*
X54035714Y-49302380D02*
X53464285Y-49302380D01*
X53750000Y-49302380D02*
X53750000Y-48302380D01*
X53654761Y-48445238D01*
X53559523Y-48540476D01*
X53464285Y-48588095D01*
X48154761Y-52547619D02*
X48059523Y-52500000D01*
X47964285Y-52404761D01*
X47821428Y-52261904D01*
X47726190Y-52214285D01*
X47630952Y-52214285D01*
X47678571Y-52452380D02*
X47583333Y-52404761D01*
X47488095Y-52309523D01*
X47440476Y-52119047D01*
X47440476Y-51785714D01*
X47488095Y-51595238D01*
X47583333Y-51500000D01*
X47678571Y-51452380D01*
X47869047Y-51452380D01*
X47964285Y-51500000D01*
X48059523Y-51595238D01*
X48107142Y-51785714D01*
X48107142Y-52119047D01*
X48059523Y-52309523D01*
X47964285Y-52404761D01*
X47869047Y-52452380D01*
X47678571Y-52452380D01*
X48488095Y-51547619D02*
X48535714Y-51500000D01*
X48630952Y-51452380D01*
X48869047Y-51452380D01*
X48964285Y-51500000D01*
X49011904Y-51547619D01*
X49059523Y-51642857D01*
X49059523Y-51738095D01*
X49011904Y-51880952D01*
X48440476Y-52452380D01*
X49059523Y-52452380D01*
X48154761Y-57297619D02*
X48059523Y-57250000D01*
X47964285Y-57154761D01*
X47821428Y-57011904D01*
X47726190Y-56964285D01*
X47630952Y-56964285D01*
X47678571Y-57202380D02*
X47583333Y-57154761D01*
X47488095Y-57059523D01*
X47440476Y-56869047D01*
X47440476Y-56535714D01*
X47488095Y-56345238D01*
X47583333Y-56250000D01*
X47678571Y-56202380D01*
X47869047Y-56202380D01*
X47964285Y-56250000D01*
X48059523Y-56345238D01*
X48107142Y-56535714D01*
X48107142Y-56869047D01*
X48059523Y-57059523D01*
X47964285Y-57154761D01*
X47869047Y-57202380D01*
X47678571Y-57202380D01*
X49059523Y-57202380D02*
X48488095Y-57202380D01*
X48773809Y-57202380D02*
X48773809Y-56202380D01*
X48678571Y-56345238D01*
X48583333Y-56440476D01*
X48488095Y-56488095D01*
X55652380Y-72666666D02*
X55652380Y-73142857D01*
X54652380Y-73142857D01*
X55652380Y-71809523D02*
X55652380Y-72380952D01*
X55652380Y-72095238D02*
X54652380Y-72095238D01*
X54795238Y-72190476D01*
X54890476Y-72285714D01*
X54938095Y-72380952D01*
X36502380Y-50333333D02*
X37216666Y-50333333D01*
X37359523Y-50380952D01*
X37454761Y-50476190D01*
X37502380Y-50619047D01*
X37502380Y-50714285D01*
X37502380Y-49857142D02*
X36502380Y-49857142D01*
X36502380Y-49476190D01*
X36550000Y-49380952D01*
X36597619Y-49333333D01*
X36692857Y-49285714D01*
X36835714Y-49285714D01*
X36930952Y-49333333D01*
X36978571Y-49380952D01*
X37026190Y-49476190D01*
X37026190Y-49857142D01*
X37502380Y-48333333D02*
X37502380Y-48904761D01*
X37502380Y-48619047D02*
X36502380Y-48619047D01*
X36645238Y-48714285D01*
X36740476Y-48809523D01*
X36788095Y-48904761D01*
X80032380Y-68083333D02*
X80746666Y-68083333D01*
X80889523Y-68130952D01*
X80984761Y-68226190D01*
X81032380Y-68369047D01*
X81032380Y-68464285D01*
X80127619Y-67654761D02*
X80080000Y-67607142D01*
X80032380Y-67511904D01*
X80032380Y-67273809D01*
X80080000Y-67178571D01*
X80127619Y-67130952D01*
X80222857Y-67083333D01*
X80318095Y-67083333D01*
X80460952Y-67130952D01*
X81032380Y-67702380D01*
X81032380Y-67083333D01*
X31416666Y-41122380D02*
X31416666Y-41836666D01*
X31369047Y-41979523D01*
X31273809Y-42074761D01*
X31130952Y-42122380D01*
X31035714Y-42122380D01*
X32416666Y-42122380D02*
X31845238Y-42122380D01*
X32130952Y-42122380D02*
X32130952Y-41122380D01*
X32035714Y-41265238D01*
X31940476Y-41360476D01*
X31845238Y-41408095D01*
D15*
X41760238Y-82324523D02*
X41760238Y-81054523D01*
X43090714Y-82203571D02*
X43030238Y-82264047D01*
X42848809Y-82324523D01*
X42727857Y-82324523D01*
X42546428Y-82264047D01*
X42425476Y-82143095D01*
X42365000Y-82022142D01*
X42304523Y-81780238D01*
X42304523Y-81598809D01*
X42365000Y-81356904D01*
X42425476Y-81235952D01*
X42546428Y-81115000D01*
X42727857Y-81054523D01*
X42848809Y-81054523D01*
X43030238Y-81115000D01*
X43090714Y-81175476D01*
X44300238Y-82324523D02*
X43574523Y-82324523D01*
X43937380Y-82324523D02*
X43937380Y-81054523D01*
X43816428Y-81235952D01*
X43695476Y-81356904D01*
X43574523Y-81417380D01*
D13*
X42761904Y-76952380D02*
X42761904Y-75952380D01*
X43000000Y-75952380D01*
X43142857Y-76000000D01*
X43238095Y-76095238D01*
X43285714Y-76190476D01*
X43333333Y-76380952D01*
X43333333Y-76523809D01*
X43285714Y-76714285D01*
X43238095Y-76809523D01*
X43142857Y-76904761D01*
X43000000Y-76952380D01*
X42761904Y-76952380D01*
X44285714Y-76952380D02*
X43714285Y-76952380D01*
X44000000Y-76952380D02*
X44000000Y-75952380D01*
X43904761Y-76095238D01*
X43809523Y-76190476D01*
X43714285Y-76238095D01*
X44107142Y-73007142D02*
X44059523Y-73054761D01*
X43916666Y-73102380D01*
X43821428Y-73102380D01*
X43678571Y-73054761D01*
X43583333Y-72959523D01*
X43535714Y-72864285D01*
X43488095Y-72673809D01*
X43488095Y-72530952D01*
X43535714Y-72340476D01*
X43583333Y-72245238D01*
X43678571Y-72150000D01*
X43821428Y-72102380D01*
X43916666Y-72102380D01*
X44059523Y-72150000D01*
X44107142Y-72197619D01*
X45059523Y-73102380D02*
X44488095Y-73102380D01*
X44773809Y-73102380D02*
X44773809Y-72102380D01*
X44678571Y-72245238D01*
X44583333Y-72340476D01*
X44488095Y-72388095D01*
X45916666Y-72102380D02*
X45726190Y-72102380D01*
X45630952Y-72150000D01*
X45583333Y-72197619D01*
X45488095Y-72340476D01*
X45440476Y-72530952D01*
X45440476Y-72911904D01*
X45488095Y-73007142D01*
X45535714Y-73054761D01*
X45630952Y-73102380D01*
X45821428Y-73102380D01*
X45916666Y-73054761D01*
X45964285Y-73007142D01*
X46011904Y-72911904D01*
X46011904Y-72673809D01*
X45964285Y-72578571D01*
X45916666Y-72530952D01*
X45821428Y-72483333D01*
X45630952Y-72483333D01*
X45535714Y-72530952D01*
X45488095Y-72578571D01*
X45440476Y-72673809D01*
X44107142Y-67757142D02*
X44059523Y-67804761D01*
X43916666Y-67852380D01*
X43821428Y-67852380D01*
X43678571Y-67804761D01*
X43583333Y-67709523D01*
X43535714Y-67614285D01*
X43488095Y-67423809D01*
X43488095Y-67280952D01*
X43535714Y-67090476D01*
X43583333Y-66995238D01*
X43678571Y-66900000D01*
X43821428Y-66852380D01*
X43916666Y-66852380D01*
X44059523Y-66900000D01*
X44107142Y-66947619D01*
X45059523Y-67852380D02*
X44488095Y-67852380D01*
X44773809Y-67852380D02*
X44773809Y-66852380D01*
X44678571Y-66995238D01*
X44583333Y-67090476D01*
X44488095Y-67138095D01*
X45964285Y-66852380D02*
X45488095Y-66852380D01*
X45440476Y-67328571D01*
X45488095Y-67280952D01*
X45583333Y-67233333D01*
X45821428Y-67233333D01*
X45916666Y-67280952D01*
X45964285Y-67328571D01*
X46011904Y-67423809D01*
X46011904Y-67661904D01*
X45964285Y-67757142D01*
X45916666Y-67804761D01*
X45821428Y-67852380D01*
X45583333Y-67852380D01*
X45488095Y-67804761D01*
X45440476Y-67757142D01*
X44107142Y-70507142D02*
X44059523Y-70554761D01*
X43916666Y-70602380D01*
X43821428Y-70602380D01*
X43678571Y-70554761D01*
X43583333Y-70459523D01*
X43535714Y-70364285D01*
X43488095Y-70173809D01*
X43488095Y-70030952D01*
X43535714Y-69840476D01*
X43583333Y-69745238D01*
X43678571Y-69650000D01*
X43821428Y-69602380D01*
X43916666Y-69602380D01*
X44059523Y-69650000D01*
X44107142Y-69697619D01*
X45059523Y-70602380D02*
X44488095Y-70602380D01*
X44773809Y-70602380D02*
X44773809Y-69602380D01*
X44678571Y-69745238D01*
X44583333Y-69840476D01*
X44488095Y-69888095D01*
X45916666Y-69935714D02*
X45916666Y-70602380D01*
X45678571Y-69554761D02*
X45440476Y-70269047D01*
X46059523Y-70269047D01*
X44757142Y-63142857D02*
X44804761Y-63190476D01*
X44852380Y-63333333D01*
X44852380Y-63428571D01*
X44804761Y-63571428D01*
X44709523Y-63666666D01*
X44614285Y-63714285D01*
X44423809Y-63761904D01*
X44280952Y-63761904D01*
X44090476Y-63714285D01*
X43995238Y-63666666D01*
X43900000Y-63571428D01*
X43852380Y-63428571D01*
X43852380Y-63333333D01*
X43900000Y-63190476D01*
X43947619Y-63142857D01*
X44852380Y-62190476D02*
X44852380Y-62761904D01*
X44852380Y-62476190D02*
X43852380Y-62476190D01*
X43995238Y-62571428D01*
X44090476Y-62666666D01*
X44138095Y-62761904D01*
X43852380Y-61857142D02*
X43852380Y-61238095D01*
X44233333Y-61571428D01*
X44233333Y-61428571D01*
X44280952Y-61333333D01*
X44328571Y-61285714D01*
X44423809Y-61238095D01*
X44661904Y-61238095D01*
X44757142Y-61285714D01*
X44804761Y-61333333D01*
X44852380Y-61428571D01*
X44852380Y-61714285D01*
X44804761Y-61809523D01*
X44757142Y-61857142D01*
X51107142Y-81787142D02*
X51059523Y-81834761D01*
X50916666Y-81882380D01*
X50821428Y-81882380D01*
X50678571Y-81834761D01*
X50583333Y-81739523D01*
X50535714Y-81644285D01*
X50488095Y-81453809D01*
X50488095Y-81310952D01*
X50535714Y-81120476D01*
X50583333Y-81025238D01*
X50678571Y-80930000D01*
X50821428Y-80882380D01*
X50916666Y-80882380D01*
X51059523Y-80930000D01*
X51107142Y-80977619D01*
X52059523Y-81882380D02*
X51488095Y-81882380D01*
X51773809Y-81882380D02*
X51773809Y-80882380D01*
X51678571Y-81025238D01*
X51583333Y-81120476D01*
X51488095Y-81168095D01*
X52440476Y-80977619D02*
X52488095Y-80930000D01*
X52583333Y-80882380D01*
X52821428Y-80882380D01*
X52916666Y-80930000D01*
X52964285Y-80977619D01*
X53011904Y-81072857D01*
X53011904Y-81168095D01*
X52964285Y-81310952D01*
X52392857Y-81882380D01*
X53011904Y-81882380D01*
X48007142Y-63142857D02*
X48054761Y-63190476D01*
X48102380Y-63333333D01*
X48102380Y-63428571D01*
X48054761Y-63571428D01*
X47959523Y-63666666D01*
X47864285Y-63714285D01*
X47673809Y-63761904D01*
X47530952Y-63761904D01*
X47340476Y-63714285D01*
X47245238Y-63666666D01*
X47150000Y-63571428D01*
X47102380Y-63428571D01*
X47102380Y-63333333D01*
X47150000Y-63190476D01*
X47197619Y-63142857D01*
X48102380Y-62190476D02*
X48102380Y-62761904D01*
X48102380Y-62476190D02*
X47102380Y-62476190D01*
X47245238Y-62571428D01*
X47340476Y-62666666D01*
X47388095Y-62761904D01*
X48102380Y-61238095D02*
X48102380Y-61809523D01*
X48102380Y-61523809D02*
X47102380Y-61523809D01*
X47245238Y-61619047D01*
X47340476Y-61714285D01*
X47388095Y-61809523D01*
X46957142Y-82392857D02*
X47004761Y-82440476D01*
X47052380Y-82583333D01*
X47052380Y-82678571D01*
X47004761Y-82821428D01*
X46909523Y-82916666D01*
X46814285Y-82964285D01*
X46623809Y-83011904D01*
X46480952Y-83011904D01*
X46290476Y-82964285D01*
X46195238Y-82916666D01*
X46100000Y-82821428D01*
X46052380Y-82678571D01*
X46052380Y-82583333D01*
X46100000Y-82440476D01*
X46147619Y-82392857D01*
X47052380Y-81440476D02*
X47052380Y-82011904D01*
X47052380Y-81726190D02*
X46052380Y-81726190D01*
X46195238Y-81821428D01*
X46290476Y-81916666D01*
X46338095Y-82011904D01*
X46052380Y-80821428D02*
X46052380Y-80726190D01*
X46100000Y-80630952D01*
X46147619Y-80583333D01*
X46242857Y-80535714D01*
X46433333Y-80488095D01*
X46671428Y-80488095D01*
X46861904Y-80535714D01*
X46957142Y-80583333D01*
X47004761Y-80630952D01*
X47052380Y-80726190D01*
X47052380Y-80821428D01*
X47004761Y-80916666D01*
X46957142Y-80964285D01*
X46861904Y-81011904D01*
X46671428Y-81059523D01*
X46433333Y-81059523D01*
X46242857Y-81011904D01*
X46147619Y-80964285D01*
X46100000Y-80916666D01*
X46052380Y-80821428D01*
X46333333Y-79507142D02*
X46285714Y-79554761D01*
X46142857Y-79602380D01*
X46047619Y-79602380D01*
X45904761Y-79554761D01*
X45809523Y-79459523D01*
X45761904Y-79364285D01*
X45714285Y-79173809D01*
X45714285Y-79030952D01*
X45761904Y-78840476D01*
X45809523Y-78745238D01*
X45904761Y-78650000D01*
X46047619Y-78602380D01*
X46142857Y-78602380D01*
X46285714Y-78650000D01*
X46333333Y-78697619D01*
X46809523Y-79602380D02*
X47000000Y-79602380D01*
X47095238Y-79554761D01*
X47142857Y-79507142D01*
X47238095Y-79364285D01*
X47285714Y-79173809D01*
X47285714Y-78792857D01*
X47238095Y-78697619D01*
X47190476Y-78650000D01*
X47095238Y-78602380D01*
X46904761Y-78602380D01*
X46809523Y-78650000D01*
X46761904Y-78697619D01*
X46714285Y-78792857D01*
X46714285Y-79030952D01*
X46761904Y-79126190D01*
X46809523Y-79173809D01*
X46904761Y-79221428D01*
X47095238Y-79221428D01*
X47190476Y-79173809D01*
X47238095Y-79126190D01*
X47285714Y-79030952D01*
X54957142Y-65916666D02*
X55004761Y-65964285D01*
X55052380Y-66107142D01*
X55052380Y-66202380D01*
X55004761Y-66345238D01*
X54909523Y-66440476D01*
X54814285Y-66488095D01*
X54623809Y-66535714D01*
X54480952Y-66535714D01*
X54290476Y-66488095D01*
X54195238Y-66440476D01*
X54100000Y-66345238D01*
X54052380Y-66202380D01*
X54052380Y-66107142D01*
X54100000Y-65964285D01*
X54147619Y-65916666D01*
X54480952Y-65345238D02*
X54433333Y-65440476D01*
X54385714Y-65488095D01*
X54290476Y-65535714D01*
X54242857Y-65535714D01*
X54147619Y-65488095D01*
X54100000Y-65440476D01*
X54052380Y-65345238D01*
X54052380Y-65154761D01*
X54100000Y-65059523D01*
X54147619Y-65011904D01*
X54242857Y-64964285D01*
X54290476Y-64964285D01*
X54385714Y-65011904D01*
X54433333Y-65059523D01*
X54480952Y-65154761D01*
X54480952Y-65345238D01*
X54528571Y-65440476D01*
X54576190Y-65488095D01*
X54671428Y-65535714D01*
X54861904Y-65535714D01*
X54957142Y-65488095D01*
X55004761Y-65440476D01*
X55052380Y-65345238D01*
X55052380Y-65154761D01*
X55004761Y-65059523D01*
X54957142Y-65011904D01*
X54861904Y-64964285D01*
X54671428Y-64964285D01*
X54576190Y-65011904D01*
X54528571Y-65059523D01*
X54480952Y-65154761D01*
X36677142Y-81916666D02*
X36724761Y-81964285D01*
X36772380Y-82107142D01*
X36772380Y-82202380D01*
X36724761Y-82345238D01*
X36629523Y-82440476D01*
X36534285Y-82488095D01*
X36343809Y-82535714D01*
X36200952Y-82535714D01*
X36010476Y-82488095D01*
X35915238Y-82440476D01*
X35820000Y-82345238D01*
X35772380Y-82202380D01*
X35772380Y-82107142D01*
X35820000Y-81964285D01*
X35867619Y-81916666D01*
X35772380Y-81059523D02*
X35772380Y-81250000D01*
X35820000Y-81345238D01*
X35867619Y-81392857D01*
X36010476Y-81488095D01*
X36200952Y-81535714D01*
X36581904Y-81535714D01*
X36677142Y-81488095D01*
X36724761Y-81440476D01*
X36772380Y-81345238D01*
X36772380Y-81154761D01*
X36724761Y-81059523D01*
X36677142Y-81011904D01*
X36581904Y-80964285D01*
X36343809Y-80964285D01*
X36248571Y-81011904D01*
X36200952Y-81059523D01*
X36153333Y-81154761D01*
X36153333Y-81345238D01*
X36200952Y-81440476D01*
X36248571Y-81488095D01*
X36343809Y-81535714D01*
X53207142Y-54916666D02*
X53254761Y-54964285D01*
X53302380Y-55107142D01*
X53302380Y-55202380D01*
X53254761Y-55345238D01*
X53159523Y-55440476D01*
X53064285Y-55488095D01*
X52873809Y-55535714D01*
X52730952Y-55535714D01*
X52540476Y-55488095D01*
X52445238Y-55440476D01*
X52350000Y-55345238D01*
X52302380Y-55202380D01*
X52302380Y-55107142D01*
X52350000Y-54964285D01*
X52397619Y-54916666D01*
X52302380Y-54583333D02*
X52302380Y-53964285D01*
X52683333Y-54297619D01*
X52683333Y-54154761D01*
X52730952Y-54059523D01*
X52778571Y-54011904D01*
X52873809Y-53964285D01*
X53111904Y-53964285D01*
X53207142Y-54011904D01*
X53254761Y-54059523D01*
X53302380Y-54154761D01*
X53302380Y-54440476D01*
X53254761Y-54535714D01*
X53207142Y-54583333D01*
X53083333Y-44707142D02*
X53035714Y-44754761D01*
X52892857Y-44802380D01*
X52797619Y-44802380D01*
X52654761Y-44754761D01*
X52559523Y-44659523D01*
X52511904Y-44564285D01*
X52464285Y-44373809D01*
X52464285Y-44230952D01*
X52511904Y-44040476D01*
X52559523Y-43945238D01*
X52654761Y-43850000D01*
X52797619Y-43802380D01*
X52892857Y-43802380D01*
X53035714Y-43850000D01*
X53083333Y-43897619D01*
X54035714Y-44802380D02*
X53464285Y-44802380D01*
X53750000Y-44802380D02*
X53750000Y-43802380D01*
X53654761Y-43945238D01*
X53559523Y-44040476D01*
X53464285Y-44088095D01*
M02*
