M48
; DRILL file {KiCad (5.1.5)-3} date 2021-01-11 18:37:19
; FORMAT={-:-/ absolute / inch / decimal}
; #@! TF.CreationDate,2021-01-11T18:37:19+01:00
; #@! TF.GenerationSoftware,Kicad,Pcbnew,(5.1.5)-3
FMAT,2
INCH
T1C0.0157
T2C0.0315
T3C0.0394
T4C0.0400
T5C0.0433
T6C0.0512
T7C0.1260
%
G90
G05
T1
X1.2795Y-2.8543
X1.4173Y-3.1398
X1.5453Y-3.0807
X1.6142Y-3.0217
X1.6732Y-3.1102
X1.6929Y-3.2283
X1.7224Y-3.0906
X1.752Y-3.002
X1.9685Y-2.4016
X1.998Y-1.7913
X1.998Y-1.8799
X1.998Y-1.9783
X2.0079Y-1.9193
X2.0276Y-3.1004
X2.0669Y-2.0472
X2.0768Y-2.4705
X2.1161Y-2.2539
X2.126Y-3.1004
X2.1358Y-2.0571
X2.1555Y-2.3031
X2.2244Y-2.4902
X2.3031Y-2.4409
X2.3125Y-2.1747
X2.3228Y-2.0571
X2.3425Y-2.1358
X2.3622Y-2.815
X2.4016Y-2.0669
X2.4803Y-2.0768
X2.5295Y-2.2244
X2.6378Y-2.6673
X2.6417Y-2.2835
X2.6575Y-1.8209
X2.6969Y-2.4311
X2.7067Y-2.2441
X2.7362Y-1.8504
X2.7461Y-2.6083
X2.874Y-2.4606
X2.9134Y-2.3917
X2.9823Y-2.5295
X3.0081Y-2.0903
X3.0315Y-2.5
T2
X1.3976Y-2.9823
X1.4961Y-2.9823
X1.565Y-1.9587
X1.565Y-2.0571
T3
X1.25Y-1.7323
X1.25Y-1.8323
X1.25Y-1.9323
X1.25Y-2.0323
X1.25Y-2.1323
X1.25Y-2.2323
X1.25Y-2.3323
X2.8807Y-2.6673
X2.9807Y-2.6673
X3.0807Y-2.6673
X2.8807Y-2.8346
X2.9807Y-2.8346
X3.0807Y-2.8346
X2.8807Y-3.002
X2.9807Y-3.002
X3.0807Y-3.002
T4
X2.4803Y-2.7362
X2.4803Y-2.8362
X2.4803Y-2.9362
X2.4803Y-3.0362
X2.4803Y-3.1362
X2.5803Y-2.7362
X2.5803Y-2.8362
X2.5803Y-2.9362
X2.5803Y-3.0362
X2.5803Y-3.1362
T5
X1.9193Y-1.437
X1.9193Y-1.6929
X2.0965Y-1.437
X2.0965Y-1.6929
X1.5945Y-1.437
X1.5945Y-1.6929
X1.7717Y-1.437
X1.7717Y-1.6929
T6
X1.4075Y-2.5461
X1.4075Y-2.7461
T7
X1.3189Y-1.5157
X3.0217Y-1.5157
X3.0118Y-3.2087
X1.3189Y-3.2087
T0
M30
